<svg width="204" height="224" viewBox="0 0 204 224" fill="none" xmlns="http://www.w3.org/2000/svg">
<path d="M149.43 184.151C151.402 187.566 155.785 188.757 159.054 186.551C175.617 175.375 188.58 159.545 196.256 140.984C204.845 120.218 206.336 97.1975 200.497 75.4973C194.658 53.7971 181.816 34.6326 163.966 20.9805C146.117 7.32847 124.258 -0.0468396 101.786 0.000223693C79.3145 0.047287 57.487 7.51409 39.6947 21.2408C21.9024 34.9675 9.14108 54.1857 3.39312 75.9101C-2.35484 97.6345 -0.767706 120.649 7.90798 141.379C15.6623 159.907 28.6914 175.683 45.3008 186.789C48.5787 188.981 52.9572 187.772 54.9145 184.349C56.8719 180.926 55.6639 176.588 52.4111 174.359C38.5217 164.84 27.6202 151.491 21.0809 135.866C13.6198 118.038 12.2548 98.2457 17.1981 79.5627C22.1413 60.8797 33.116 44.352 48.4174 32.5471C63.7189 20.7421 82.4904 14.3207 101.816 14.2802C121.142 14.2397 139.94 20.5825 155.291 32.3233C170.642 44.064 181.686 60.5455 186.707 79.2077C191.729 97.8698 190.447 117.668 183.06 135.527C176.586 151.179 165.741 164.574 151.892 174.15C148.648 176.393 147.458 180.736 149.43 184.151Z" fill="#D9D9D9"/>
<path d="M173.426 39.5765C176.396 36.9816 176.716 32.4509 173.92 29.6705C165.125 20.9261 154.795 13.8441 143.426 8.79113C129.878 2.76985 115.18 -0.225657 100.356 0.0132434C85.5325 0.252144 70.939 3.71971 57.5921 10.1744C44.2452 16.6291 32.4658 25.9158 23.0744 37.3877C13.6829 48.8596 6.90523 62.2409 3.21326 76.5996C-0.4787 90.9583 -0.996148 105.949 1.69696 120.528C4.39007 135.107 10.229 148.924 18.807 161.016C26.0057 171.164 34.9881 179.892 45.297 186.787C48.5748 188.979 52.953 187.77 54.9105 184.347C56.868 180.924 55.6604 176.585 52.4077 174.356C43.8885 168.517 36.4514 161.208 30.4541 152.754C23.0769 142.355 18.0555 130.472 15.7394 117.934C13.4233 105.396 13.8683 92.5041 17.0434 80.1557C20.2185 67.8072 26.0473 56.2993 34.124 46.4334C42.2006 36.5676 52.3309 28.5811 63.8092 23.03C75.2875 17.4789 87.838 14.4968 100.586 14.2914C113.335 14.0859 125.975 16.6621 137.626 21.8404C147.098 26.0502 155.732 31.8975 163.138 39.0959C165.966 41.8443 170.457 42.1715 173.426 39.5765Z" fill="#FFC423"/>
<path d="M136.842 162.349C138.862 165.848 143.361 167.074 146.652 164.731C158.399 156.37 167.606 144.844 173.154 131.429C179.638 115.753 180.763 98.3746 176.355 81.9931C171.948 65.6116 162.253 51.1442 148.779 40.8382C135.304 30.5323 118.803 24.9646 101.839 25.0002C84.8746 25.0357 68.3971 30.6724 54.9656 41.0347C41.5341 51.397 31.9006 65.9049 27.5615 82.3047C23.2223 98.7045 24.4205 116.078 30.9698 131.727C36.5742 145.119 45.8289 156.605 57.611 164.918C60.9121 167.247 65.4053 166.002 67.4106 162.494C69.4159 158.987 68.1666 154.551 64.9182 152.149C55.911 145.489 48.825 136.496 44.4655 126.079C39.1606 113.403 38.1901 99.3306 41.7048 86.0468C45.2195 72.7629 53.0226 61.0116 63.9021 52.6181C74.7816 44.2246 88.1285 39.6589 101.869 39.6301C115.61 39.6014 128.976 44.1111 139.891 52.459C150.805 60.8068 158.658 72.5254 162.228 85.7944C165.798 99.0634 164.887 113.14 159.635 125.838C155.319 136.272 148.271 145.296 139.291 151.994C136.053 154.409 134.823 158.85 136.842 162.349Z" fill="#D9D9D9"/>
<path d="M154.47 56.1432C157.512 53.4846 157.846 48.8343 154.91 46.0582C148.58 40.0712 141.267 35.1894 133.272 31.6364C123.045 27.091 111.95 24.8297 100.759 25.01C89.5687 25.1903 78.552 27.808 68.4764 32.6807C58.4008 37.5534 49.5085 44.5639 42.4189 53.2241C35.3293 61.8842 30.2128 71.9858 27.4257 82.8252C24.6386 93.6646 24.248 104.981 26.281 115.987C28.3141 126.993 32.7219 137.423 39.1975 146.552C44.2591 153.687 50.489 159.892 57.6082 164.916C60.9092 167.245 65.4022 166 67.4077 162.493C69.4131 158.986 68.1643 154.55 64.916 152.148C59.6175 148.229 54.9607 143.487 51.13 138.087C45.8847 130.693 42.3144 122.244 40.6676 113.33C39.0209 104.415 39.3373 95.2483 41.5948 86.4684C43.8523 77.6885 47.9967 69.5062 53.7393 62.4915C59.4819 55.4768 66.6846 49.7982 74.8459 45.8514C83.0071 41.9045 91.9306 39.7842 100.995 39.6381C110.059 39.492 119.047 41.3237 127.331 45.0055C133.381 47.6944 138.95 51.323 143.837 55.7434C146.833 58.4534 151.429 58.8017 154.47 56.1432Z" fill="#3F86F1"/>
<path d="M86.6582 81.5742H83.0625V83.1328H88.0664V84.0078H76.9922V83.1328H81.9961V81.5742H78.4277V77.4727H86.6582V81.5742ZM78.2227 85.2793H86.6992V89.1074H85.6191V86.1406H78.2227V85.2793ZM85.5918 80.7129V78.334H79.4805V80.7129H85.5918ZM100.021 87.6172H88.8918V86.7285H91.9953V83.8301H89.9035V82.9414H91.8039V78.9766H89.8762V78.0879H98.9543V78.9766H97.0266V82.9414H98.927V83.8301H96.8352V86.7285H100.021V87.6172ZM95.9738 82.9414V78.9766H92.8703V82.9414H95.9738ZM95.7688 86.7285V83.8301H93.0754V86.7285H95.7688ZM114.181 83.2012H113.101V80.7812H110.408V79.8926H113.101V76.9531H114.181V83.2012ZM104.296 82.5723C105.755 82.2214 106.906 81.6904 107.749 80.9795C108.592 80.264 109.066 79.4186 109.171 78.4434H104.925V77.5547H110.312C110.312 78.5482 110.087 79.4368 109.635 80.2207C109.189 81 108.546 81.6608 107.708 82.2031C106.869 82.7454 105.86 83.1647 104.679 83.4609L104.296 82.5723ZM106.306 83.7207H114.181V86.6875H107.4V88.1094H114.591V88.998H106.334V85.8672H113.101V84.5957H106.306V83.7207ZM121.542 77.2266C122.421 77.2266 123.182 77.3177 123.825 77.5C124.468 77.6823 124.962 77.9489 125.308 78.2998C125.659 78.6462 125.835 79.0586 125.835 79.5371C125.835 80.0111 125.659 80.4189 125.308 80.7607C124.962 81.1025 124.468 81.3623 123.825 81.54C123.182 81.7178 122.421 81.8066 121.542 81.8066C120.662 81.8066 119.899 81.7178 119.252 81.54C118.605 81.3623 118.106 81.1025 117.755 80.7607C117.408 80.4189 117.235 80.0111 117.235 79.5371C117.235 79.0586 117.408 78.6462 117.755 78.2998C118.106 77.9489 118.605 77.6823 119.252 77.5C119.899 77.3177 120.662 77.2266 121.542 77.2266ZM116.005 82.8594H127.079V83.748H116.005V82.8594ZM117.358 84.9512H125.725V88.9434H117.358V84.9512ZM118.343 79.5371C118.343 79.8288 118.47 80.0817 118.725 80.2959C118.985 80.5055 119.357 80.6696 119.84 80.7881C120.323 80.902 120.89 80.959 121.542 80.959C122.189 80.959 122.752 80.902 123.23 80.7881C123.713 80.6696 124.085 80.5055 124.345 80.2959C124.609 80.0817 124.741 79.8288 124.741 79.5371C124.741 79.2363 124.609 78.9788 124.345 78.7646C124.085 78.5459 123.713 78.3796 123.23 78.2656C122.752 78.1471 122.189 78.0879 121.542 78.0879C120.89 78.0879 120.323 78.1471 119.84 78.2656C119.357 78.3796 118.985 78.5459 118.725 78.7646C118.47 78.9788 118.343 79.2363 118.343 79.5371ZM124.673 88.0684V85.8125H118.425V88.0684H124.673Z" fill="#444444"/>
<path opacity="0.9" d="M76.8733 118.234C75.6312 118.234 74.5218 118.031 73.5452 117.625C72.5687 117.211 71.803 116.641 71.2483 115.914C70.7015 115.188 70.428 114.367 70.428 113.453C70.428 112.75 70.5882 112.094 70.9085 111.484C71.2288 110.875 71.6663 110.371 72.221 109.973C72.7757 109.574 73.389 109.32 74.0608 109.211V109.117C73.4749 108.992 72.9554 108.75 72.5023 108.391C72.0491 108.031 71.6937 107.586 71.4358 107.055C71.1858 106.523 71.0608 105.953 71.0608 105.344C71.0608 104.477 71.3108 103.699 71.8108 103.012C72.3108 102.316 73.0023 101.773 73.8851 101.383C74.7757 100.992 75.7718 100.797 76.8733 100.797C77.9671 100.797 78.9554 100.992 79.8382 101.383C80.721 101.773 81.4124 102.316 81.9124 103.012C82.4124 103.707 82.6624 104.484 82.6624 105.344C82.6624 105.953 82.5335 106.523 82.2757 107.055C82.0257 107.586 81.6702 108.031 81.2093 108.391C80.7562 108.75 80.2405 108.992 79.6624 109.117V109.211C80.3421 109.32 80.9593 109.574 81.514 109.973C82.0687 110.371 82.5062 110.875 82.8265 111.484C83.1546 112.094 83.3187 112.75 83.3187 113.453C83.3187 114.367 83.0413 115.188 82.4866 115.914C81.9398 116.641 81.1741 117.211 80.1898 117.625C79.2132 118.031 78.1077 118.234 76.8733 118.234ZM76.8733 115.82C77.5296 115.82 78.1077 115.711 78.6077 115.492C79.1077 115.266 79.4944 114.953 79.7679 114.555C80.0413 114.148 80.178 113.688 80.178 113.172C80.178 112.648 80.0335 112.176 79.7444 111.754C79.4632 111.332 79.0687 111.004 78.5608 110.77C78.0608 110.527 77.4983 110.406 76.8733 110.406C76.2405 110.406 75.6702 110.527 75.1624 110.77C74.6624 111.004 74.2679 111.332 73.9788 111.754C73.6976 112.176 73.5608 112.648 73.5687 113.172C73.5608 113.688 73.6898 114.148 73.9554 114.555C74.2288 114.953 74.6155 115.266 75.1155 115.492C75.6233 115.711 76.2093 115.82 76.8733 115.82ZM76.8733 108.133C77.4124 108.133 77.8968 108.027 78.3265 107.816C78.7562 107.605 79.0882 107.309 79.3226 106.926C79.5648 106.543 79.6858 106.109 79.6858 105.625C79.6858 105.156 79.5648 104.738 79.3226 104.371C79.0882 103.996 78.7562 103.707 78.3265 103.504C77.9046 103.293 77.4202 103.188 76.8733 103.188C76.3187 103.188 75.8265 103.289 75.3968 103.492C74.9671 103.695 74.6312 103.984 74.389 104.359C74.1546 104.727 74.0374 105.148 74.0374 105.625C74.0374 106.109 74.1585 106.543 74.4007 106.926C74.6429 107.309 74.9788 107.605 75.4085 107.816C75.8382 108.027 76.3265 108.133 76.8733 108.133ZM86.7394 122.898H84.5128L85.7316 116.336H88.7082L86.7394 122.898ZM97.4727 118.234C96.1133 118.234 94.9453 117.895 93.9688 117.215C93 116.527 92.2539 115.531 91.7305 114.227C91.2148 112.922 90.957 111.352 90.957 109.516C90.957 107.688 91.2148 106.121 91.7305 104.816C92.2539 103.504 93.0039 102.508 93.9805 101.828C94.957 101.141 96.1211 100.797 97.4727 100.797C98.8164 100.797 99.9766 101.141 100.953 101.828C101.938 102.508 102.688 103.504 103.203 104.816C103.727 106.121 103.988 107.688 103.988 109.516C103.988 111.352 103.727 112.922 103.203 114.227C102.688 115.531 101.941 116.527 100.965 117.215C99.9961 117.895 98.832 118.234 97.4727 118.234ZM97.4727 115.68C98.1914 115.68 98.8047 115.449 99.3125 114.988C99.8281 114.52 100.223 113.828 100.496 112.914C100.777 111.992 100.918 110.859 100.918 109.516C100.918 108.188 100.777 107.062 100.496 106.141C100.223 105.211 99.8281 104.512 99.3125 104.043C98.7969 103.566 98.1836 103.328 97.4727 103.328C96.7617 103.328 96.1484 103.566 95.6328 104.043C95.1172 104.512 94.7188 105.211 94.4375 106.141C94.1641 107.062 94.0273 108.188 94.0273 109.516C94.0273 110.859 94.1641 111.992 94.4375 112.914C94.7188 113.828 95.1133 114.52 95.6211 114.988C96.1367 115.449 96.7539 115.68 97.4727 115.68ZM112.753 118.234C111.393 118.234 110.225 117.895 109.249 117.215C108.28 116.527 107.534 115.531 107.011 114.227C106.495 112.922 106.237 111.352 106.237 109.516C106.237 107.688 106.495 106.121 107.011 104.816C107.534 103.504 108.284 102.508 109.261 101.828C110.237 101.141 111.401 100.797 112.753 100.797C114.097 100.797 115.257 101.141 116.233 101.828C117.218 102.508 117.968 103.504 118.483 104.816C119.007 106.121 119.268 107.688 119.268 109.516C119.268 111.352 119.007 112.922 118.483 114.227C117.968 115.531 117.222 116.527 116.245 117.215C115.276 117.895 114.112 118.234 112.753 118.234ZM112.753 115.68C113.472 115.68 114.085 115.449 114.593 114.988C115.108 114.52 115.503 113.828 115.776 112.914C116.057 111.992 116.198 110.859 116.198 109.516C116.198 108.188 116.057 107.062 115.776 106.141C115.503 105.211 115.108 104.512 114.593 104.043C114.077 103.566 113.464 103.328 112.753 103.328C112.042 103.328 111.429 103.566 110.913 104.043C110.397 104.512 109.999 105.211 109.718 106.141C109.444 107.062 109.307 108.188 109.307 109.516C109.307 110.859 109.444 111.992 109.718 112.914C109.999 113.828 110.393 114.52 110.901 114.988C111.417 115.449 112.034 115.68 112.753 115.68ZM128.033 118.234C126.674 118.234 125.506 117.895 124.529 117.215C123.56 116.527 122.814 115.531 122.291 114.227C121.775 112.922 121.517 111.352 121.517 109.516C121.517 107.688 121.775 106.121 122.291 104.816C122.814 103.504 123.564 102.508 124.541 101.828C125.517 101.141 126.681 100.797 128.033 100.797C129.377 100.797 130.537 101.141 131.513 101.828C132.498 102.508 133.248 103.504 133.763 104.816C134.287 106.121 134.549 107.688 134.549 109.516C134.549 111.352 134.287 112.922 133.763 114.227C133.248 115.531 132.502 116.527 131.525 117.215C130.556 117.895 129.392 118.234 128.033 118.234ZM128.033 115.68C128.752 115.68 129.365 115.449 129.873 114.988C130.388 114.52 130.783 113.828 131.056 112.914C131.338 111.992 131.478 110.859 131.478 109.516C131.478 108.188 131.338 107.062 131.056 106.141C130.783 105.211 130.388 104.512 129.873 104.043C129.357 103.566 128.744 103.328 128.033 103.328C127.322 103.328 126.709 103.566 126.193 104.043C125.677 104.512 125.279 105.211 124.998 106.141C124.724 107.062 124.588 108.188 124.588 109.516C124.588 110.859 124.724 111.992 124.998 112.914C125.279 113.828 125.674 114.52 126.181 114.988C126.697 115.449 127.314 115.68 128.033 115.68Z" fill="#26282C"/>
<circle cx="43.3672" cy="214" r="4" fill="#FFCC00"/>
<path d="M61.1807 208.742V214.544H60.1777V212.297H57.6768V211.472H60.1777V208.742H61.1807ZM52.002 213.96C54.7061 213.306 56.3311 211.941 56.5278 210.126H52.5859V209.301H57.5879C57.5879 212.106 55.6074 213.966 52.3574 214.785L52.002 213.96ZM53.8682 215.839V215.026H61.1807V217.781H54.8838V219.102H61.5615V219.927H53.8936V217.02H60.1777V215.839H53.8682ZM68.0012 208.996C70.4577 208.996 71.9812 209.79 71.9875 211.142C71.9812 212.475 70.4577 213.255 68.0012 213.249C65.5446 213.255 64.0021 212.475 64.0021 211.142C64.0021 209.79 65.5446 208.996 68.0012 208.996ZM62.8596 215.052V214.227H73.1428V215.052H62.8596ZM64.1164 219.876V216.169H71.8859V219.876H64.1164ZM65.0305 211.142C65.0241 211.96 66.173 212.456 68.0012 212.462C69.8103 212.456 70.9655 211.96 70.9719 211.142C70.9655 210.297 69.8103 209.796 68.0012 209.796C66.173 209.796 65.0241 210.297 65.0305 211.142ZM65.1066 219.063H70.9084V216.969H65.1066V219.063ZM79.557 209.796C79.5634 211.389 81.6327 212.76 83.6703 213.046L83.2641 213.858C81.5121 213.566 79.7729 212.595 79.0492 211.211C78.3256 212.608 76.5927 213.566 74.8344 213.858L74.4281 213.046C76.4657 212.76 78.5287 211.415 78.5287 209.796V209.148H79.557V209.796ZM73.8949 215.94V215.103H84.1781V215.94H79.5063V220.028H78.5287V215.94H73.8949Z" fill="#666666"/>
<circle cx="101.367" cy="214" r="4" fill="#3F86F1"/>
<path d="M120.158 217.73V218.556H109.824V217.73H114.445V214.963H115.423V217.73H120.158ZM110.23 214.265C112.205 213.928 114.401 212.278 114.407 210.38V209.517H115.448V210.38C115.455 212.265 117.683 213.928 119.65 214.265L119.206 215.09C117.486 214.734 115.67 213.573 114.94 211.948C114.198 213.566 112.401 214.734 110.675 215.09L110.23 214.265ZM131.194 217.743V218.581H120.86V217.743H125.506V214.988H122.078V209.694H129.911V214.988H126.484V217.743H131.194ZM123.056 214.188H128.946V210.494H123.056V214.188ZM140.721 209.25C140.715 212.043 138.982 214.017 135.542 214.925L135.161 214.138C137.002 213.649 138.246 212.881 138.957 211.903L135.275 212.183L135.097 211.345L139.369 211.18C139.522 210.824 139.617 210.443 139.649 210.05H135.669V209.25H140.721ZM136.583 215.953V215.153H143.781V217.819H137.598V219.076H144.2V219.876H136.608V217.083H142.791V215.953H136.583ZM142.791 214.646V208.742H143.781V211.345H145.482V212.183H143.781V214.646H142.791ZM156.327 217.794V218.632H145.993V217.794H150.639V215.661H147.288V212.183H154.042V210.405H147.263V209.58H155.019V212.995H148.278V214.836H155.286V215.661H151.617V217.794H156.327ZM166.347 208.742V220.054H165.356V208.742H166.347ZM157.663 210.621V209.796H162.919V213.808H158.704V216.474C160.577 216.48 162.246 216.391 164.265 216.067L164.366 216.905C162.291 217.229 160.577 217.312 158.628 217.312H157.688V212.995H161.916V210.621H157.663Z" fill="#666666"/>
<path d="M85.6719 16.5371H83.5264L83.1201 19H82.0283L82.4346 16.5371H81.1143L81.2793 15.458H82.6123L82.9551 13.3506H81.6475L81.8125 12.2588H83.1392L83.5391 9.80859H84.6309L84.231 12.2588H86.3765L86.7764 9.80859H87.8555L87.4556 12.2588H88.7949L88.6172 13.3506H87.2778L86.9351 15.458H88.2617L88.0713 16.5371H86.7573L86.3574 19H85.2656L85.6719 16.5371ZM85.8496 15.458L86.1924 13.3506H84.0469L83.7041 15.458H85.8496ZM89.6359 9.80859H95.3361V11.0146H91.0324V13.7949H94.9299V14.9883H91.0324V19H89.6359V9.80859ZM96.6977 9.80859H102.398V11.0146H98.0941V13.7949H101.992V14.9883H98.0941V19H96.6977V9.80859ZM109.98 12.8047C109.908 12.4196 109.758 12.0874 109.529 11.8081C109.305 11.5288 109.026 11.3172 108.692 11.1733C108.361 11.0295 108 10.9596 107.606 10.9639C107.073 10.9596 106.597 11.0929 106.178 11.3638C105.763 11.6304 105.435 12.0239 105.194 12.5444C104.957 13.0607 104.838 13.6807 104.838 14.4043C104.838 15.1322 104.957 15.7563 105.194 16.2769C105.435 16.7931 105.763 17.1846 106.178 17.4512C106.597 17.7178 107.073 17.849 107.606 17.8447C107.995 17.849 108.355 17.7812 108.685 17.6416C109.015 17.4977 109.292 17.2882 109.517 17.0132C109.745 16.7381 109.9 16.4102 109.98 16.0293L111.389 16.042C111.292 16.6429 111.07 17.1782 110.723 17.6479C110.38 18.1134 109.938 18.4774 109.396 18.7397C108.859 18.9979 108.258 19.127 107.593 19.127C106.794 19.127 106.081 18.9365 105.454 18.5557C104.828 18.1748 104.337 17.6289 103.982 16.918C103.63 16.2028 103.455 15.3649 103.455 14.4043C103.455 13.4437 103.632 12.6079 103.988 11.897C104.343 11.1818 104.834 10.6338 105.461 10.2529C106.087 9.87207 106.798 9.68164 107.593 9.68164C108.241 9.68164 108.833 9.80648 109.371 10.0562C109.908 10.3016 110.352 10.6592 110.704 11.1289C111.059 11.5986 111.288 12.1572 111.389 12.8047H109.98ZM112.37 16.0801L116.432 9.80859H118.159V16.0293H119.416V17.21H118.159V19H116.839V17.21H112.37V16.0801ZM116.839 16.0293V11.4717H116.737L113.843 15.9531V16.0293H116.839ZM120.625 17.9844L123.812 14.7725C124.197 14.3747 124.491 14.0531 124.694 13.8076C124.897 13.5579 125.051 13.3167 125.157 13.084C125.267 12.847 125.322 12.5973 125.322 12.335C125.322 12.0387 125.248 11.7785 125.1 11.5542C124.952 11.3299 124.749 11.1564 124.491 11.0337C124.233 10.911 123.943 10.8496 123.621 10.8496C123.283 10.8496 122.986 10.9173 122.732 11.0527C122.483 11.1882 122.288 11.3786 122.148 11.624C122.013 11.8652 121.945 12.1488 121.945 12.4746H120.625C120.621 11.9245 120.748 11.4378 121.006 11.0146C121.264 10.5915 121.624 10.2635 122.085 10.0308C122.546 9.79801 123.067 9.68164 123.646 9.68164C124.226 9.68164 124.743 9.7959 125.195 10.0244C125.652 10.2487 126.008 10.5597 126.262 10.9575C126.52 11.3553 126.651 11.8018 126.655 12.2969C126.651 12.6481 126.583 12.9867 126.452 13.3125C126.321 13.6341 126.097 13.9938 125.779 14.3916C125.462 14.7852 125.013 15.2676 124.434 15.8389L122.567 17.7305V17.8066H126.808V19H120.625V17.9844ZM131.419 19.127C130.793 19.127 130.23 19.0212 129.731 18.8096C129.236 18.598 128.844 18.3018 128.556 17.9209C128.273 17.5358 128.123 17.0957 128.106 16.6006H129.528C129.544 16.863 129.635 17.0957 129.8 17.2988C129.97 17.4977 130.194 17.6522 130.473 17.7622C130.753 17.868 131.064 17.9209 131.406 17.9209C131.775 17.9209 132.103 17.8595 132.39 17.7368C132.682 17.6099 132.911 17.4321 133.076 17.2036C133.241 16.9751 133.323 16.7148 133.323 16.4229C133.323 16.1182 133.241 15.8494 133.076 15.6167C132.915 15.3797 132.678 15.1956 132.365 15.0645C132.052 14.929 131.682 14.8613 131.254 14.8613H130.467V13.7188H131.254C131.601 13.7188 131.908 13.6595 132.175 13.541C132.445 13.4183 132.655 13.2469 132.803 13.0269C132.955 12.8068 133.031 12.5508 133.031 12.2588C133.031 11.9795 132.966 11.734 132.835 11.5225C132.703 11.3109 132.517 11.1458 132.276 11.0273C132.035 10.9089 131.753 10.8496 131.432 10.8496C131.123 10.8496 130.833 10.9046 130.562 11.0146C130.296 11.1247 130.08 11.2834 129.915 11.4907C129.75 11.6938 129.663 11.9287 129.654 12.1953H128.309C128.321 11.7087 128.467 11.2749 128.747 10.894C129.03 10.509 129.409 10.2106 129.883 9.99902C130.357 9.78743 130.877 9.68164 131.445 9.68164C132.033 9.68164 132.549 9.79378 132.993 10.0181C133.438 10.2424 133.78 10.547 134.022 10.9321C134.263 11.313 134.381 11.7298 134.377 12.1826C134.381 12.6989 134.237 13.1369 133.946 13.4966C133.654 13.8563 133.256 14.0996 132.752 14.2266V14.29C133.167 14.3493 133.522 14.4784 133.819 14.6772C134.119 14.8719 134.345 15.1237 134.498 15.4326C134.654 15.7415 134.733 16.0885 134.733 16.4736C134.733 16.9772 134.589 17.4321 134.301 17.8384C134.017 18.2404 133.622 18.5557 133.114 18.7842C132.61 19.0127 132.045 19.127 131.419 19.127ZM139.385 17.9082V16.5371L143.74 14.5503V14.4868L139.385 12.5V11.1162L145.352 14.0107V15.0264L139.385 17.9082Z" fill="#26282C"/>
<path d="M33.6719 36.5371H31.5264L31.1201 39H30.0283L30.4346 36.5371H29.1143L29.2793 35.458H30.6123L30.9551 33.3506H29.6475L29.8125 32.2588H31.1392L31.5391 29.8086H32.6309L32.231 32.2588H34.3765L34.7764 29.8086H35.8555L35.4556 32.2588H36.7949L36.6172 33.3506H35.2778L34.9351 35.458H36.2617L36.0713 36.5371H34.7573L34.3574 39H33.2656L33.6719 36.5371ZM33.8496 35.458L34.1924 33.3506H32.0469L31.7041 35.458H33.8496ZM40.7717 39.127C40.1454 39.127 39.5826 39.0212 39.0832 38.8096C38.5881 38.598 38.1966 38.3018 37.9089 37.9209C37.6254 37.5358 37.4751 37.0957 37.4582 36.6006H38.8801C38.897 36.863 38.988 37.0957 39.153 37.2988C39.3223 37.4977 39.5466 37.6522 39.8259 37.7622C40.1052 37.868 40.4162 37.9209 40.759 37.9209C41.1271 37.9209 41.4551 37.8595 41.7429 37.7368C42.0349 37.6099 42.2634 37.4321 42.4284 37.2036C42.5935 36.9751 42.676 36.7148 42.676 36.4229C42.676 36.1182 42.5935 35.8494 42.4284 35.6167C42.2676 35.3797 42.0306 35.1956 41.7175 35.0645C41.4043 34.929 41.034 34.8613 40.6066 34.8613H39.8195V33.7188H40.6066C40.9536 33.7188 41.2604 33.6595 41.5271 33.541C41.7979 33.4183 42.0074 33.2469 42.1555 33.0269C42.3078 32.8068 42.384 32.5508 42.384 32.2588C42.384 31.9795 42.3184 31.734 42.1872 31.5225C42.056 31.3109 41.8698 31.1458 41.6286 31.0273C41.3874 30.9089 41.106 30.8496 40.7844 30.8496C40.4755 30.8496 40.1856 30.9046 39.9147 31.0146C39.6481 31.1247 39.4323 31.2834 39.2673 31.4907C39.1022 31.6938 39.0155 31.9287 39.007 32.1953H37.6613C37.674 31.7087 37.82 31.2749 38.0993 30.894C38.3828 30.509 38.7616 30.2106 39.2355 29.999C39.7095 29.7874 40.23 29.6816 40.7971 29.6816C41.3853 29.6816 41.9016 29.7938 42.3459 30.0181C42.7902 30.2424 43.133 30.547 43.3742 30.9321C43.6154 31.313 43.7339 31.7298 43.7297 32.1826C43.7339 32.6989 43.59 33.1369 43.298 33.4966C43.0061 33.8563 42.6083 34.0996 42.1047 34.2266V34.29C42.5194 34.3493 42.8749 34.4784 43.1711 34.6772C43.4715 34.8719 43.6979 35.1237 43.8503 35.4326C44.0069 35.7415 44.0852 36.0885 44.0852 36.4736C44.0852 36.9772 43.9413 37.4321 43.6535 37.8384C43.37 38.2404 42.9743 38.5557 42.4665 38.7842C41.9629 39.0127 41.398 39.127 40.7717 39.127ZM45.5482 29.8086H51.2484V31.0146H46.9447V33.7949H50.8422V34.9883H46.9447V39H45.5482V29.8086ZM55.6949 39.127C55.039 39.127 54.4529 39.0169 53.9366 38.7969C53.4246 38.5768 53.0247 38.2721 52.7369 37.8828C52.4534 37.4893 52.3137 37.0449 52.318 36.5498C52.3137 36.1647 52.3941 35.8071 52.5592 35.4771C52.7285 35.1427 52.9591 34.8677 53.2511 34.6519C53.5473 34.4318 53.8753 34.2943 54.235 34.2393V34.1885C53.9218 34.1165 53.6467 33.9832 53.4098 33.7886C53.1728 33.5897 52.9887 33.3464 52.8575 33.0586C52.7263 32.7708 52.6607 32.4619 52.6607 32.1318C52.6607 31.6663 52.7898 31.2474 53.0479 30.875C53.3103 30.5026 53.6721 30.2106 54.1334 29.999C54.5947 29.7874 55.1152 29.6816 55.6949 29.6816C56.2662 29.6816 56.7804 29.7874 57.2374 29.999C57.6987 30.2106 58.0605 30.5026 58.3229 30.875C58.5852 31.2474 58.7164 31.6663 58.7164 32.1318C58.7164 32.4619 58.6487 32.7708 58.5133 33.0586C58.3821 33.3464 58.1959 33.5897 57.9547 33.7886C57.7177 33.9832 57.4469 34.1165 57.1422 34.1885V34.2393C57.4977 34.2943 57.8214 34.4318 58.1134 34.6519C58.4096 34.8677 58.6423 35.1427 58.8116 35.4771C58.9851 35.8071 59.0719 36.1647 59.0719 36.5498C59.0719 37.0449 58.9259 37.4893 58.6339 37.8828C58.3461 38.2721 57.9462 38.5768 57.4342 38.7969C56.9221 39.0169 56.3424 39.127 55.6949 39.127ZM53.7398 36.4482C53.7356 36.7487 53.8118 37.0132 53.9684 37.2417C54.1249 37.4702 54.3513 37.6501 54.6476 37.7812C54.948 37.9082 55.2971 37.9717 55.6949 37.9717C56.0885 37.9717 56.4312 37.9082 56.7232 37.7812C57.0195 37.6543 57.248 37.4766 57.4088 37.248C57.5696 37.0153 57.65 36.7487 57.65 36.4482C57.65 36.1351 57.5654 35.8558 57.3961 35.6104C57.2268 35.3607 56.9941 35.166 56.6979 35.0264C56.4016 34.8825 56.0673 34.8105 55.6949 34.8105C55.3183 34.8105 54.9798 34.8825 54.6793 35.0264C54.3788 35.166 54.1461 35.3607 53.9811 35.6104C53.816 35.86 53.7356 36.1393 53.7398 36.4482ZM54.0191 32.2588C54.0191 32.5423 54.0911 32.7941 54.235 33.0142C54.3788 33.2342 54.5756 33.4056 54.8253 33.5283C55.0792 33.6468 55.3691 33.7061 55.6949 33.7061C56.0123 33.7061 56.2958 33.6468 56.5455 33.5283C56.7994 33.4056 56.9962 33.2342 57.1358 33.0142C57.2755 32.7941 57.3453 32.5423 57.3453 32.2588C57.3453 31.9753 57.2755 31.7256 57.1358 31.5098C57.0004 31.2897 56.8079 31.1204 56.5582 31.002C56.3085 30.8835 56.0208 30.8242 55.6949 30.8242C55.3648 30.8242 55.0729 30.8835 54.8189 31.002C54.565 31.1204 54.3683 31.2897 54.2286 31.5098C54.089 31.7256 54.0191 31.9753 54.0191 32.2588ZM63.6707 39.127C63.0486 39.127 62.4752 38.9894 61.9505 38.7144C61.4257 38.4351 60.9962 37.9674 60.6619 37.3115C60.3318 36.6514 60.1668 35.7839 60.1668 34.709C60.1668 33.6553 60.3128 32.7518 60.6048 31.9985C60.8968 31.241 61.3115 30.6655 61.8489 30.272C62.3906 29.8784 63.0275 29.6816 63.7596 29.6816C64.3139 29.6816 64.8112 29.7896 65.2513 30.0054C65.6914 30.217 66.049 30.5132 66.324 30.894C66.5991 31.2749 66.7726 31.7087 66.8445 32.1953H65.4607C65.3634 31.806 65.1666 31.495 64.8704 31.2622C64.5784 31.0252 64.2081 30.9046 63.7596 30.9004C63.2898 30.9004 62.8857 31.0337 62.5472 31.3003C62.2129 31.5627 61.9568 31.9414 61.7791 32.4365C61.6014 32.9316 61.5125 33.5241 61.5125 34.2139H61.6141C61.8637 33.8245 62.1938 33.522 62.6043 33.3062C63.019 33.0861 63.476 32.974 63.9754 32.9697C64.5171 32.9697 65.0143 33.1009 65.4671 33.3633C65.9199 33.6214 66.2775 33.9811 66.5398 34.4424C66.8022 34.8994 66.9334 35.4157 66.9334 35.9912C66.9334 36.5794 66.7959 37.1126 66.5208 37.5908C66.25 38.069 65.867 38.4456 65.3719 38.7207C64.8768 38.9915 64.3097 39.127 63.6707 39.127ZM61.6775 36.0293C61.6775 36.3678 61.7622 36.6852 61.9314 36.9814C62.1049 37.2777 62.3398 37.5146 62.636 37.6924C62.9323 37.8701 63.2645 37.959 63.6326 37.959C63.9966 37.959 64.3266 37.8722 64.6229 37.6987C64.9191 37.521 65.1518 37.2861 65.3211 36.9941C65.4904 36.6979 65.575 36.3721 65.575 36.0166C65.575 35.6696 65.4925 35.3501 65.3274 35.0581C65.1624 34.7661 64.9339 34.5355 64.6419 34.3662C64.3541 34.1969 64.0304 34.1123 63.6707 34.1123C63.3068 34.1123 62.9725 34.2012 62.6678 34.3789C62.3631 34.5524 62.1219 34.7873 61.9441 35.0835C61.7706 35.3755 61.6818 35.6908 61.6775 36.0293ZM68.3457 29.8086H74.0459V31.0146H69.7422V33.7949H73.6396V34.9883H69.7422V39H68.3457V29.8086ZM78.7717 39H77.3625V31.2051H77.3117L75.1154 32.6396V31.3066L77.4006 29.8086H78.7717V39ZM84.2242 37.9082V36.5371L88.5787 34.5503V34.4868L84.2242 32.5V31.1162L90.191 34.0107V35.0264L84.2242 37.9082Z" fill="#26282C"/>
<path d="M87.6719 154.537H85.5264L85.1201 157H84.0283L84.4346 154.537H83.1143L83.2793 153.458H84.6123L84.9551 151.351H83.6475L83.8125 150.259H85.1392L85.5391 147.809H86.6309L86.231 150.259H88.3765L88.7764 147.809H89.8555L89.4556 150.259H90.7949L90.6172 151.351H89.2778L88.9351 153.458H90.2617L90.0713 154.537H88.7573L88.3574 157H87.2656L87.6719 154.537ZM87.8496 153.458L88.1924 151.351H86.0469L85.7041 153.458H87.8496ZM91.6359 157V147.809H94.7082C95.6053 147.809 96.3776 147.993 97.0251 148.361C97.6768 148.725 98.174 149.252 98.5168 149.941C98.8638 150.627 99.0373 151.444 99.0373 152.392C99.0373 153.344 98.8617 154.167 98.5104 154.861C98.1634 155.551 97.6599 156.08 96.9997 156.448C96.3396 156.816 95.5461 157 94.6193 157H91.6359ZM94.5432 155.781C95.5757 155.777 96.3522 155.485 96.8728 154.905C97.3933 154.326 97.6535 153.488 97.6535 152.392C97.6535 151.3 97.3954 150.466 96.8791 149.891C96.3671 149.315 95.6138 149.027 94.6193 149.027H93.0324V155.781H94.5432ZM103.42 147.682C104.038 147.682 104.607 147.821 105.128 148.101C105.653 148.376 106.08 148.841 106.41 149.497C106.744 150.149 106.912 151.008 106.912 152.074C106.912 153.136 106.766 154.046 106.474 154.804C106.182 155.561 105.765 156.139 105.223 156.537C104.686 156.93 104.051 157.127 103.319 157.127C102.764 157.127 102.265 157.021 101.821 156.81C101.381 156.594 101.021 156.293 100.742 155.908C100.467 155.523 100.293 155.083 100.221 154.588H101.605C101.702 154.986 101.899 155.305 102.195 155.546C102.491 155.783 102.866 155.904 103.319 155.908C103.788 155.908 104.19 155.777 104.525 155.515C104.863 155.248 105.121 154.865 105.299 154.366C105.481 153.866 105.574 153.268 105.579 152.569H105.464C105.215 152.959 104.882 153.263 104.468 153.483C104.057 153.703 103.607 153.813 103.116 153.813C102.57 153.813 102.07 153.684 101.618 153.426C101.165 153.164 100.805 152.804 100.538 152.347C100.276 151.886 100.145 151.368 100.145 150.792C100.145 150.212 100.28 149.685 100.551 149.211C100.822 148.737 101.205 148.365 101.7 148.094C102.199 147.819 102.773 147.682 103.42 147.682ZM101.503 150.754C101.503 151.105 101.586 151.429 101.751 151.725C101.916 152.017 102.142 152.248 102.43 152.417C102.722 152.586 103.052 152.671 103.42 152.671C103.78 152.671 104.11 152.584 104.411 152.411C104.715 152.233 104.954 151.996 105.128 151.7C105.301 151.403 105.388 151.088 105.388 150.754C105.388 150.424 105.303 150.113 105.134 149.821C104.965 149.525 104.732 149.29 104.436 149.116C104.14 148.938 103.81 148.85 103.446 148.85C103.086 148.85 102.758 148.936 102.462 149.11C102.166 149.279 101.931 149.51 101.757 149.802C101.588 150.09 101.503 150.407 101.503 150.754ZM108.311 157V147.809H111.383C112.281 147.809 113.053 147.993 113.7 148.361C114.352 148.725 114.849 149.252 115.192 149.941C115.539 150.627 115.712 151.444 115.712 152.392C115.712 153.344 115.537 154.167 115.186 154.861C114.839 155.551 114.335 156.08 113.675 156.448C113.015 156.816 112.221 157 111.295 157H108.311ZM111.218 155.781C112.251 155.777 113.027 155.485 113.548 154.905C114.068 154.326 114.329 153.488 114.329 152.392C114.329 151.3 114.071 150.466 113.554 149.891C113.042 149.315 112.289 149.027 111.295 149.027H109.708V155.781H111.218ZM120.096 147.682C120.713 147.682 121.283 147.821 121.803 148.101C122.328 148.376 122.755 148.841 123.085 149.497C123.42 150.149 123.587 151.008 123.587 152.074C123.587 153.136 123.441 154.046 123.149 154.804C122.857 155.561 122.44 156.139 121.898 156.537C121.361 156.93 120.726 157.127 119.994 157.127C119.44 157.127 118.94 157.021 118.496 156.81C118.056 156.594 117.696 156.293 117.417 155.908C117.142 155.523 116.968 155.083 116.896 154.588H118.28C118.377 154.986 118.574 155.305 118.87 155.546C119.167 155.783 119.541 155.904 119.994 155.908C120.464 155.908 120.866 155.777 121.2 155.515C121.539 155.248 121.797 154.865 121.974 154.366C122.156 153.866 122.249 153.268 122.254 152.569H122.139C121.89 152.959 121.558 153.263 121.143 153.483C120.732 153.703 120.282 153.813 119.791 153.813C119.245 153.813 118.746 153.684 118.293 153.426C117.84 153.164 117.48 152.804 117.214 152.347C116.951 151.886 116.82 151.368 116.82 150.792C116.82 150.212 116.956 149.685 117.226 149.211C117.497 148.737 117.88 148.365 118.375 148.094C118.875 147.819 119.448 147.682 120.096 147.682ZM118.179 150.754C118.179 151.105 118.261 151.429 118.426 151.725C118.591 152.017 118.818 152.248 119.105 152.417C119.397 152.586 119.727 152.671 120.096 152.671C120.455 152.671 120.785 152.584 121.086 152.411C121.39 152.233 121.63 151.996 121.803 151.7C121.977 151.403 122.063 151.088 122.063 150.754C122.063 150.424 121.979 150.113 121.809 149.821C121.64 149.525 121.407 149.29 121.111 149.116C120.815 148.938 120.485 148.85 120.121 148.85C119.761 148.85 119.433 148.936 119.137 149.11C118.841 149.279 118.606 149.51 118.432 149.802C118.263 150.09 118.179 150.407 118.179 150.754ZM124.986 157V147.809H128.059C128.956 147.809 129.728 147.993 130.375 148.361C131.027 148.725 131.524 149.252 131.867 149.941C132.214 150.627 132.388 151.444 132.388 152.392C132.388 153.344 132.212 154.167 131.861 154.861C131.514 155.551 131.01 156.08 130.35 156.448C129.69 156.816 128.896 157 127.97 157H124.986ZM127.894 155.781C128.926 155.777 129.703 155.485 130.223 154.905C130.744 154.326 131.004 153.488 131.004 152.392C131.004 151.3 130.746 150.466 130.229 149.891C129.717 149.315 128.964 149.027 127.97 149.027H126.383V155.781H127.894ZM136.771 147.682C137.389 147.682 137.958 147.821 138.478 148.101C139.003 148.376 139.43 148.841 139.76 149.497C140.095 150.149 140.262 151.008 140.262 152.074C140.262 153.136 140.116 154.046 139.824 154.804C139.532 155.561 139.115 156.139 138.573 156.537C138.036 156.93 137.401 157.127 136.669 157.127C136.115 157.127 135.615 157.021 135.171 156.81C134.731 156.594 134.371 156.293 134.092 155.908C133.817 155.523 133.643 155.083 133.571 154.588H134.955C135.053 154.986 135.249 155.305 135.546 155.546C135.842 155.783 136.216 155.904 136.669 155.908C137.139 155.908 137.541 155.777 137.875 155.515C138.214 155.248 138.472 154.865 138.65 154.366C138.832 153.866 138.925 153.268 138.929 152.569H138.815C138.565 152.959 138.233 153.263 137.818 153.483C137.408 153.703 136.957 153.813 136.466 153.813C135.92 153.813 135.421 153.684 134.968 153.426C134.515 153.164 134.155 152.804 133.889 152.347C133.626 151.886 133.495 151.368 133.495 150.792C133.495 150.212 133.631 149.685 133.902 149.211C134.172 148.737 134.555 148.365 135.05 148.094C135.55 147.819 136.123 147.682 136.771 147.682ZM134.854 150.754C134.854 151.105 134.936 151.429 135.101 151.725C135.266 152.017 135.493 152.248 135.78 152.417C136.072 152.586 136.403 152.671 136.771 152.671C137.13 152.671 137.46 152.584 137.761 152.411C138.066 152.233 138.305 151.996 138.478 151.7C138.652 151.403 138.738 151.088 138.738 150.754C138.738 150.424 138.654 150.113 138.485 149.821C138.315 149.525 138.083 149.29 137.786 149.116C137.49 148.938 137.16 148.85 136.796 148.85C136.436 148.85 136.108 148.936 135.812 149.11C135.516 149.279 135.281 149.51 135.108 149.802C134.938 150.09 134.854 150.407 134.854 150.754ZM144.851 155.908V154.537L149.206 152.55V152.487L144.851 150.5V149.116L150.818 152.011V153.026L144.851 155.908Z" fill="#26282C"/>
</svg>
