<svg width="530" height="202" viewBox="0 0 530 202" fill="none" xmlns="http://www.w3.org/2000/svg">
<circle cx="80" cy="95" r="80" fill="#FEFBE2"/>
<circle cx="80" cy="95" r="67" fill="url(#paint0_linear_23_3)"/>
<path opacity="0.7" d="M61.0052 123.561V66.9987H83.1927C96.0443 66.9987 103.427 74.9284 103.427 86.0612C103.427 97.3503 95.9271 105.124 82.8802 105.124H72.724V123.561H61.0052ZM72.724 95.6706H81.0052C87.9583 95.6706 91.3568 91.7643 91.3177 86.0612C91.3568 80.4362 87.9583 76.6471 81.0052 76.6081H72.724V95.6706Z" fill="white"/>
<circle cx="450" cy="95" r="80" fill="#FEFBE2"/>
<circle cx="450" cy="95" r="67" fill="url(#paint1_linear_23_3)"/>
<path opacity="0.7" d="M431.005 123.561V66.9987H453.193C466.044 66.9987 473.427 74.9284 473.427 86.0612C473.427 97.3503 465.927 105.124 452.88 105.124H442.724V123.561H431.005ZM442.724 95.6706H451.005C457.958 95.6706 461.357 91.7643 461.318 86.0612C461.357 80.4362 457.958 76.6471 451.005 76.6081H442.724V95.6706Z" fill="white"/>
<g opacity="0.3" filter="url(#filter0_f_23_3)">
<ellipse cx="250" cy="176" rx="43" ry="5" fill="#CECE9C"/>
</g>
<g opacity="0.3" filter="url(#filter1_f_23_3)">
<ellipse cx="250" cy="176" rx="56" ry="6" fill="#E1E1C2"/>
</g>
<g opacity="0.5" filter="url(#filter2_f_23_3)">
<ellipse cx="250" cy="173.5" rx="20" ry="5.5" fill="#B8B898"/>
</g>
<circle cx="261" cy="100" r="100" fill="#FFF0BB"/>
<circle cx="261" cy="100" r="83.75" fill="url(#paint2_linear_23_3)"/>
<path d="M237.25 135.703V65H264.984C281.049 65 290.277 74.9121 290.277 88.8281C290.277 102.939 280.902 112.656 264.594 112.656H251.898V135.703H237.25ZM251.898 100.84H262.25C270.941 100.84 275.189 95.957 275.141 88.8281C275.189 81.7969 270.941 77.0605 262.25 77.0117H251.898V100.84Z" fill="white"/>
<defs>
<filter id="filter0_f_23_3" x="195" y="159" width="110" height="34" filterUnits="userSpaceOnUse" color-interpolation-filters="sRGB">
<feFlood flood-opacity="0" result="BackgroundImageFix"/>
<feBlend mode="normal" in="SourceGraphic" in2="BackgroundImageFix" result="shape"/>
<feGaussianBlur stdDeviation="6" result="effect1_foregroundBlur_23_3"/>
</filter>
<filter id="filter1_f_23_3" x="174" y="150" width="152" height="52" filterUnits="userSpaceOnUse" color-interpolation-filters="sRGB">
<feFlood flood-opacity="0" result="BackgroundImageFix"/>
<feBlend mode="normal" in="SourceGraphic" in2="BackgroundImageFix" result="shape"/>
<feGaussianBlur stdDeviation="10" result="effect1_foregroundBlur_23_3"/>
</filter>
<filter id="filter2_f_23_3" x="226" y="164" width="48" height="19" filterUnits="userSpaceOnUse" color-interpolation-filters="sRGB">
<feFlood flood-opacity="0" result="BackgroundImageFix"/>
<feBlend mode="normal" in="SourceGraphic" in2="BackgroundImageFix" result="shape"/>
<feGaussianBlur stdDeviation="2" result="effect1_foregroundBlur_23_3"/>
</filter>
<linearGradient id="paint0_linear_23_3" x1="80" y1="28" x2="80" y2="162" gradientUnits="userSpaceOnUse">
<stop stop-color="#FFFCED"/>
<stop offset="0.0001" stop-color="#FAF3C8"/>
<stop offset="1" stop-color="#FFFCE7"/>
</linearGradient>
<linearGradient id="paint1_linear_23_3" x1="450" y1="28" x2="450" y2="162" gradientUnits="userSpaceOnUse">
<stop stop-color="#FFFCED"/>
<stop offset="0.0001" stop-color="#FAF3C8"/>
<stop offset="1" stop-color="#FFFCE7"/>
</linearGradient>
<linearGradient id="paint2_linear_23_3" x1="271.024" y1="30.3637" x2="262.62" y2="183.839" gradientUnits="userSpaceOnUse">
<stop stop-color="#FFDF34"/>
<stop offset="1" stop-color="#F9CE37"/>
</linearGradient>
</defs>
</svg>
