<svg width="311" height="264" viewBox="0 0 311 264" fill="none" xmlns="http://www.w3.org/2000/svg">
<path d="M33.3984 0V240H308.919" stroke="#EEEEEE"/>
<path d="M28.5938 16H33.3438" stroke="#EEEEEE"/>
<path d="M28.5938 48H33.3438" stroke="#EEEEEE"/>
<path d="M28.5938 80H33.3438" stroke="#EEEEEE"/>
<path d="M28.5938 112H33.3438" stroke="#EEEEEE"/>
<path d="M28.5938 144H33.3438" stroke="#EEEEEE"/>
<path d="M28.5938 176H33.3438" stroke="#EEEEEE"/>
<path d="M28.5938 208H33.3438" stroke="#EEEEEE"/>
<path d="M74.0469 244.75L74.0469 240" stroke="#EEEEEE"/>
<path d="M121.047 244.75L121.047 240" stroke="#EEEEEE"/>
<path d="M168.047 244.75L168.047 240" stroke="#EEEEEE"/>
<path d="M215.047 244.75L215.047 240" stroke="#EEEEEE"/>
<path d="M262.047 244.75L262.047 240" stroke="#EEEEEE"/>
<path d="M309.047 244.75L309.047 240" stroke="#EEEEEE"/>
<rect x="33.5312" y="60" width="275.52" height="84" fill="#FEF7F5"/>
<rect width="275.52" height="35" transform="matrix(1 0 0 -1 33.3359 195)" fill="#F1FAFF"/>
<rect x="81.3516" y="114" width="8.31759" height="65" rx="4.1588" fill="#EEEEEE"/>
<ellipse cx="84.9911" cy="94.5" rx="4.67865" ry="4.5" fill="#3B4A65"/>
<rect width="8.16034" height="8.16034" transform="matrix(0.720733 0.693213 -0.720733 0.693213 85.5156 195)" fill="#0F61FF"/>
<rect x="108.188" y="160" width="8.31759" height="23" rx="4.1588" fill="#EEEEEE"/>
<ellipse cx="112.022" cy="118.5" rx="4.67865" ry="4.5" fill="#3B4A65"/>
<rect width="8.16034" height="8.16034" transform="matrix(0.720733 0.693213 -0.720733 0.693213 112.547 199)" fill="#0F61FF"/>
<rect x="180.969" y="160" width="8.31759" height="23" rx="4.1588" fill="#EEEEEE"/>
<ellipse cx="184.804" cy="118.5" rx="4.67865" ry="4.5" fill="#3B4A65"/>
<rect width="8.16034" height="8.16034" transform="matrix(0.720733 0.693213 -0.720733 0.693213 185.328 199)" fill="#0F61FF"/>
<path d="M128.984 74.1588C128.984 71.862 130.846 70 133.143 70C135.44 70 137.302 71.862 137.302 74.1588V198.841C137.302 201.138 135.44 203 133.143 203C130.846 203 128.984 201.138 128.984 198.841V74.1588Z" fill="#EEEEEE"/>
<ellipse cx="132.819" cy="149.5" rx="4.67865" ry="4.5" fill="#3B4A65"/>
<rect width="8.16034" height="8.16034" transform="matrix(0.720733 0.693213 -0.720733 0.693213 133.344 219)" fill="#0F61FF"/>
<path d="M222.555 104.159C222.555 101.862 224.417 100 226.713 100C229.01 100 230.872 101.862 230.872 104.159V198.841C230.872 201.138 229.01 203 226.713 203C224.417 203 222.555 201.138 222.555 198.841V104.159Z" fill="#EEEEEE"/>
<ellipse cx="226.39" cy="40.5" rx="4.67865" ry="4.5" fill="#EB5147"/>
<rect width="8.16034" height="8.16034" transform="matrix(0.720733 0.693213 -0.720733 0.693213 226.914 219)" fill="#EB5147"/>
<path d="M274.539 51.1588C274.539 48.862 276.401 47 278.698 47C280.995 47 282.857 48.862 282.857 51.1588V135.841C282.857 138.138 280.995 140 278.698 140C276.401 140 274.539 138.138 274.539 135.841V51.1588Z" fill="#EEEEEE"/>
<ellipse cx="278.374" cy="27.5" rx="4.67865" ry="4.5" fill="#EB5147"/>
<rect width="8.16034" height="8.16034" transform="matrix(0.720733 0.693213 -0.720733 0.693213 278.898 156)" fill="#0F61FF"/>
<path d="M7.86094 11.1016V21H6.6168V12.3867H6.56211L4.15586 13.9863V12.7422L6.6168 11.1016H7.86094ZM13.6082 21.1367C11.5232 21.1367 10.0877 19.9814 10.0945 18.375C10.0877 17.0967 10.9764 16.0371 12.1043 15.8594V15.8047C11.1199 15.5791 10.4705 14.6699 10.4773 13.5898C10.4705 12.0791 11.7967 10.9648 13.6082 10.9648C15.4129 10.9648 16.7391 12.0791 16.7527 13.5898C16.7391 14.6699 16.0828 15.5791 15.1121 15.8047V15.8594C16.2332 16.0371 17.1219 17.0967 17.1355 18.375C17.1219 19.9814 15.6727 21.1367 13.6082 21.1367ZM11.325 18.3066C11.3045 19.3457 12.1863 20.0498 13.6082 20.0566C15.0232 20.0498 15.9051 19.3457 15.9051 18.3066C15.9051 17.2129 14.9412 16.4062 13.6082 16.4062C12.282 16.4062 11.3045 17.2129 11.325 18.3066ZM11.6668 13.6855C11.6736 14.6836 12.4734 15.3604 13.6082 15.3672C14.7361 15.3604 15.5496 14.6836 15.5496 13.6855C15.5496 12.6943 14.7635 12.0244 13.6082 12.0312C12.4324 12.0244 11.6736 12.6943 11.6668 13.6855ZM21.8301 21.1367C19.6357 21.1367 18.3643 19.291 18.3711 16.0508C18.3643 12.8379 19.6494 10.9648 21.8301 10.9648C24.0039 10.9648 25.2891 12.8379 25.2891 16.0508C25.2891 19.291 24.0244 21.1367 21.8301 21.1367ZM19.5605 16.0508C19.5674 18.6143 20.3945 20.043 21.8301 20.043C23.2588 20.043 24.0928 18.6143 24.0859 16.0508C24.0928 13.4873 23.252 12.0381 21.8301 12.0312C20.4082 12.0381 19.5674 13.4873 19.5605 16.0508Z" fill="#888888"/>
<path d="M7.76523 43.1016V53H6.52109V44.3867H6.46641L4.06016 45.9863V44.7422L6.52109 43.1016H7.76523ZM13.6492 53.1367C11.9334 53.1162 10.0398 52.0977 10.0398 48.4336C10.0398 44.9268 11.4754 42.9648 13.7996 42.9648C15.5428 42.9648 16.7596 44.0381 17.0125 45.5898H15.7957C15.5701 44.7148 14.9002 44.0586 13.7996 44.0586C12.1727 44.0586 11.1951 45.4463 11.202 47.832H11.325C11.8924 47.0049 12.8016 46.5195 13.868 46.5195C15.6248 46.5195 17.0945 47.8867 17.0945 49.8008C17.0945 51.667 15.7342 53.1572 13.6492 53.1367ZM11.366 49.8281C11.3729 50.9902 12.323 52.0498 13.6492 52.0566C14.9275 52.0498 15.8982 51.0449 15.9051 49.8145C15.8982 48.5977 14.9686 47.6064 13.6766 47.5996C12.3777 47.6064 11.3797 48.6592 11.366 49.8281ZM21.8301 53.1367C19.6357 53.1367 18.3643 51.291 18.3711 48.0508C18.3643 44.8379 19.6494 42.9648 21.8301 42.9648C24.0039 42.9648 25.2891 44.8379 25.2891 48.0508C25.2891 51.291 24.0244 53.1367 21.8301 53.1367ZM19.5605 48.0508C19.5674 50.6143 20.3945 52.043 21.8301 52.043C23.2588 52.043 24.0928 50.6143 24.0859 48.0508C24.0928 45.4873 23.252 44.0381 21.8301 44.0312C20.4082 44.0381 19.5674 45.4873 19.5605 48.0508Z" fill="#888888"/>
<path d="M7.61484 75.1016V85H6.3707V76.3867H6.31602L3.90977 77.9863V76.7422L6.3707 75.1016H7.61484ZM9.80742 82.9766V81.9648L14.2645 75.1016H15.782V81.8965H17.1629V82.9766H15.782V85H14.6062V82.9766H9.80742ZM11.1336 81.8965H14.6062V76.6602H14.4832L11.1336 81.8145V81.8965ZM21.8301 85.1367C19.6357 85.1367 18.3643 83.291 18.3711 80.0508C18.3643 76.8379 19.6494 74.9648 21.8301 74.9648C24.0039 74.9648 25.2891 76.8379 25.2891 80.0508C25.2891 83.291 24.0244 85.1367 21.8301 85.1367ZM19.5605 80.0508C19.5674 82.6143 20.3945 84.043 21.8301 84.043C23.2588 84.043 24.0928 82.6143 24.0859 80.0508C24.0928 77.4873 23.252 76.0381 21.8301 76.0312C20.4082 76.0381 19.5674 77.4873 19.5605 80.0508Z" fill="#888888"/>
<path d="M8.13437 107.102V117H6.89023V108.387H6.83555L4.4293 109.986V108.742L6.89023 107.102H8.13437ZM10.573 117L10.5594 116.098L13.9363 112.543C15.1053 111.299 15.6658 110.629 15.6727 109.713C15.6658 108.694 14.8182 108.038 13.7039 108.031C12.5213 108.038 11.783 108.783 11.7762 109.891H10.6141C10.6004 108.141 11.9539 106.965 13.7449 106.965C15.5428 106.965 16.8143 108.175 16.8211 109.713C16.8143 110.82 16.3016 111.682 14.5516 113.486L12.282 115.824V115.906H16.9988V117H10.573ZM21.8301 117.137C19.6357 117.137 18.3643 115.291 18.3711 112.051C18.3643 108.838 19.6494 106.965 21.8301 106.965C24.0039 106.965 25.2891 108.838 25.2891 112.051C25.2891 115.291 24.0244 117.137 21.8301 117.137ZM19.5605 112.051C19.5674 114.614 20.3945 116.043 21.8301 116.043C23.2588 116.043 24.0928 114.614 24.0859 112.051C24.0928 109.487 23.252 108.038 21.8301 108.031C20.4082 108.038 19.5674 109.487 19.5605 112.051Z" fill="#888888"/>
<path d="M8.01133 139.102V149H6.76719V140.387H6.7125L4.30625 141.986V140.742L6.76719 139.102H8.01133ZM13.6902 149.137C11.4959 149.137 10.2244 147.291 10.2312 144.051C10.2244 140.838 11.5096 138.965 13.6902 138.965C15.8641 138.965 17.1492 140.838 17.1492 144.051C17.1492 147.291 15.8846 149.137 13.6902 149.137ZM11.4207 144.051C11.4275 146.614 12.2547 148.043 13.6902 148.043C15.1189 148.043 15.9529 146.614 15.9461 144.051C15.9529 141.487 15.1121 140.038 13.6902 140.031C12.2684 140.038 11.4275 141.487 11.4207 144.051ZM21.8301 149.137C19.6357 149.137 18.3643 147.291 18.3711 144.051C18.3643 140.838 19.6494 138.965 21.8301 138.965C24.0039 138.965 25.2891 140.838 25.2891 144.051C25.2891 147.291 24.0244 149.137 21.8301 149.137ZM19.5605 144.051C19.5674 146.614 20.3945 148.043 21.8301 148.043C23.2588 148.043 24.0928 146.614 24.0859 144.051C24.0928 141.487 23.252 140.038 21.8301 140.031C20.4082 140.038 19.5674 141.487 19.5605 144.051Z" fill="#888888"/>
<path d="M13.6082 181.137C11.5232 181.137 10.0877 179.981 10.0945 178.375C10.0877 177.097 10.9764 176.037 12.1043 175.859V175.805C11.1199 175.579 10.4705 174.67 10.4773 173.59C10.4705 172.079 11.7967 170.965 13.6082 170.965C15.4129 170.965 16.7391 172.079 16.7527 173.59C16.7391 174.67 16.0828 175.579 15.1121 175.805V175.859C16.2332 176.037 17.1219 177.097 17.1355 178.375C17.1219 179.981 15.6727 181.137 13.6082 181.137ZM11.325 178.307C11.3045 179.346 12.1863 180.05 13.6082 180.057C15.0232 180.05 15.9051 179.346 15.9051 178.307C15.9051 177.213 14.9412 176.406 13.6082 176.406C12.282 176.406 11.3045 177.213 11.325 178.307ZM11.6668 173.686C11.6736 174.684 12.4734 175.36 13.6082 175.367C14.7361 175.36 15.5496 174.684 15.5496 173.686C15.5496 172.694 14.7635 172.024 13.6082 172.031C12.4324 172.024 11.6736 172.694 11.6668 173.686ZM21.8301 181.137C19.6357 181.137 18.3643 179.291 18.3711 176.051C18.3643 172.838 19.6494 170.965 21.8301 170.965C24.0039 170.965 25.2891 172.838 25.2891 176.051C25.2891 179.291 24.0244 181.137 21.8301 181.137ZM19.5605 176.051C19.5674 178.614 20.3945 180.043 21.8301 180.043C23.2588 180.043 24.0928 178.614 24.0859 176.051C24.0928 173.487 23.252 172.038 21.8301 172.031C20.4082 172.038 19.5674 173.487 19.5605 176.051Z" fill="#888888"/>
<path d="M13.6492 213.137C11.9334 213.116 10.0398 212.098 10.0398 208.434C10.0398 204.927 11.4754 202.965 13.7996 202.965C15.5428 202.965 16.7596 204.038 17.0125 205.59H15.7957C15.5701 204.715 14.9002 204.059 13.7996 204.059C12.1727 204.059 11.1951 205.446 11.202 207.832H11.325C11.8924 207.005 12.8016 206.52 13.868 206.52C15.6248 206.52 17.0945 207.887 17.0945 209.801C17.0945 211.667 15.7342 213.157 13.6492 213.137ZM11.366 209.828C11.3729 210.99 12.323 212.05 13.6492 212.057C14.9275 212.05 15.8982 211.045 15.9051 209.814C15.8982 208.598 14.9686 207.606 13.6766 207.6C12.3777 207.606 11.3797 208.659 11.366 209.828ZM21.8301 213.137C19.6357 213.137 18.3643 211.291 18.3711 208.051C18.3643 204.838 19.6494 202.965 21.8301 202.965C24.0039 202.965 25.2891 204.838 25.2891 208.051C25.2891 211.291 24.0244 213.137 21.8301 213.137ZM19.5605 208.051C19.5674 210.614 20.3945 212.043 21.8301 212.043C23.2588 212.043 24.0928 210.614 24.0859 208.051C24.0928 205.487 23.252 204.038 21.8301 204.031C20.4082 204.038 19.5674 205.487 19.5605 208.051Z" fill="#888888"/>
<path d="M145.894 249.102V259H144.65V250.387H144.595L142.189 251.986V250.742L144.65 249.102H145.894ZM148.332 259L148.319 258.098L151.696 254.543C152.865 253.299 153.425 252.629 153.432 251.713C153.425 250.694 152.577 250.038 151.463 250.031C150.281 250.038 149.542 250.783 149.536 251.891H148.373C148.36 250.141 149.713 248.965 151.504 248.965C153.302 248.965 154.574 250.175 154.58 251.713C154.574 252.82 154.061 253.682 152.311 255.486L150.041 257.824V257.906H154.758V259H148.332ZM160.232 251.221C160.225 253.442 161.736 255.671 163.527 256.484L162.871 257.332C161.483 256.662 160.287 255.22 159.706 253.49C159.145 255.322 157.949 256.86 156.527 257.578L155.843 256.676C157.655 255.849 159.152 253.524 159.166 251.221V249.006H160.232V251.221ZM164.853 260.135V247.953H165.933V260.135H164.853Z" fill="#888888"/>
<path d="M103.547 259.137C101.462 259.137 100.027 257.981 100.034 256.375C100.027 255.097 100.915 254.037 102.043 253.859V253.805C101.059 253.579 100.41 252.67 100.416 251.59C100.41 250.079 101.736 248.965 103.547 248.965C105.352 248.965 106.678 250.079 106.692 251.59C106.678 252.67 106.022 253.579 105.051 253.805V253.859C106.172 254.037 107.061 255.097 107.075 256.375C107.061 257.981 105.612 259.137 103.547 259.137ZM101.264 256.307C101.244 257.346 102.125 258.05 103.547 258.057C104.962 258.05 105.844 257.346 105.844 256.307C105.844 255.213 104.88 254.406 103.547 254.406C102.221 254.406 101.244 255.213 101.264 256.307ZM101.606 251.686C101.613 252.684 102.412 253.36 103.547 253.367C104.675 253.36 105.489 252.684 105.489 251.686C105.489 250.694 104.702 250.024 103.547 250.031C102.371 250.024 101.613 250.694 101.606 251.686ZM112.412 251.221C112.405 253.442 113.916 255.671 115.707 256.484L115.05 257.332C113.663 256.662 112.466 255.22 111.885 253.49C111.325 255.322 110.128 256.86 108.707 257.578L108.023 256.676C109.835 255.849 111.332 253.524 111.345 251.221V249.006H112.412V251.221ZM117.033 260.135V247.953H118.113V260.135H117.033Z" fill="#888888"/>
<path d="M51.9183 256.977V255.965L56.3753 249.102H57.8929V255.896H59.2738V256.977H57.8929V259H56.7171V256.977H51.9183ZM53.2445 255.896H56.7171V250.66H56.5941L53.2445 255.814V255.896ZM64.5836 251.221C64.5767 253.442 66.0875 255.671 67.8785 256.484L67.2222 257.332C65.8345 256.662 64.6382 255.22 64.0572 253.49C63.4966 255.322 62.3004 256.86 60.8785 257.578L60.1949 256.676C62.0064 255.849 63.5035 253.524 63.5171 251.221V249.006H64.5836V251.221ZM69.2046 260.135V247.953H70.2847V260.135H69.2046Z" fill="#888888"/>
<path d="M193.353 249.102V259H192.109V250.387H192.054L189.648 251.986V250.742L192.109 249.102H193.353ZM199.237 259.137C197.521 259.116 195.627 258.098 195.627 254.434C195.627 250.927 197.063 248.965 199.387 248.965C201.13 248.965 202.347 250.038 202.6 251.59H201.383C201.158 250.715 200.488 250.059 199.387 250.059C197.76 250.059 196.783 251.446 196.789 253.832H196.912C197.48 253.005 198.389 252.52 199.455 252.52C201.212 252.52 202.682 253.887 202.682 255.801C202.682 257.667 201.322 259.157 199.237 259.137ZM196.953 255.828C196.96 256.99 197.911 258.05 199.237 258.057C200.515 258.05 201.486 257.045 201.493 255.814C201.486 254.598 200.556 253.606 199.264 253.6C197.965 253.606 196.967 254.659 196.953 255.828ZM208.06 251.221C208.053 253.442 209.564 255.671 211.355 256.484L210.699 257.332C209.311 256.662 208.115 255.22 207.534 253.49C206.973 255.322 205.777 256.86 204.355 257.578L203.671 256.676C205.483 255.849 206.98 253.524 206.994 251.221V249.006H208.06V251.221ZM212.681 260.135V247.953H213.761V260.135H212.681Z" fill="#888888"/>
<path d="M235.849 259L235.835 258.098L239.212 254.543C240.381 253.299 240.942 252.629 240.948 251.713C240.942 250.694 240.094 250.038 238.98 250.031C237.797 250.038 237.059 250.783 237.052 251.891H235.89C235.876 250.141 237.23 248.965 239.021 248.965C240.819 248.965 242.09 250.175 242.097 251.713C242.09 252.82 241.577 253.682 239.827 255.486L237.558 257.824V257.906H242.275V259H235.849ZM247.106 259.137C244.911 259.137 243.64 257.291 243.647 254.051C243.64 250.838 244.925 248.965 247.106 248.965C249.28 248.965 250.565 250.838 250.565 254.051C250.565 257.291 249.3 259.137 247.106 259.137ZM244.836 254.051C244.843 256.614 245.67 258.043 247.106 258.043C248.535 258.043 249.369 256.614 249.362 254.051C249.369 251.487 248.528 250.038 247.106 250.031C245.684 250.038 244.843 251.487 244.836 254.051ZM255.888 251.221C255.881 253.442 257.392 255.671 259.183 256.484L258.527 257.332C257.139 256.662 255.943 255.22 255.362 253.49C254.801 255.322 253.605 256.86 252.183 257.578L251.5 256.676C253.311 255.849 254.808 253.524 254.822 251.221V249.006H255.888V251.221ZM260.509 260.135V247.953H261.589V260.135H260.509Z" fill="#888888"/>
<path d="M283.499 259L283.486 258.098L286.862 254.543C288.031 253.299 288.592 252.629 288.599 251.713C288.592 250.694 287.744 250.038 286.63 250.031C285.447 250.038 284.709 250.783 284.702 251.891H283.54C283.527 250.141 284.88 248.965 286.671 248.965C288.469 248.965 289.74 250.175 289.747 251.713C289.74 252.82 289.228 253.682 287.478 255.486L285.208 257.824V257.906H289.925V259H283.499ZM291.051 256.977V255.965L295.508 249.102H297.026V255.896H298.407V256.977H297.026V259H295.85V256.977H291.051ZM292.377 255.896H295.85V250.66H295.727L292.377 255.814V255.896ZM303.716 251.221C303.71 253.442 305.22 255.671 307.011 256.484L306.355 257.332C304.967 256.662 303.771 255.22 303.19 253.49C302.629 255.322 301.433 256.86 300.011 257.578L299.328 256.676C301.139 255.849 302.636 253.524 302.65 251.221V249.006H303.716V251.221ZM308.337 260.135V247.953H309.418V260.135H308.337Z" fill="#888888"/>
<path d="M118.672 103.537H116.526L116.12 106H115.028L115.435 103.537H114.114L114.279 102.458H115.612L115.955 100.351H114.647L114.812 99.2588H116.139L116.539 96.8086H117.631L117.231 99.2588H119.376L119.776 96.8086H120.855L120.456 99.2588H121.795L121.617 100.351H120.278L119.935 102.458H121.262L121.071 103.537H119.757L119.357 106H118.266L118.672 103.537ZM118.85 102.458L119.192 100.351H117.047L116.704 102.458H118.85ZM125.772 106.127C125.145 106.127 124.583 106.021 124.083 105.81C123.588 105.598 123.197 105.302 122.909 104.921C122.625 104.536 122.475 104.096 122.458 103.601H123.88C123.897 103.863 123.988 104.096 124.153 104.299C124.322 104.498 124.547 104.652 124.826 104.762C125.105 104.868 125.416 104.921 125.759 104.921C126.127 104.921 126.455 104.86 126.743 104.737C127.035 104.61 127.263 104.432 127.428 104.204C127.593 103.975 127.676 103.715 127.676 103.423C127.676 103.118 127.593 102.849 127.428 102.617C127.268 102.38 127.031 102.196 126.717 102.064C126.404 101.929 126.034 101.861 125.607 101.861H124.82V100.719H125.607C125.954 100.719 126.26 100.66 126.527 100.541C126.798 100.418 127.007 100.247 127.155 100.027C127.308 99.8068 127.384 99.5508 127.384 99.2588C127.384 98.9795 127.318 98.734 127.187 98.5225C127.056 98.3109 126.87 98.1458 126.629 98.0273C126.387 97.9089 126.106 97.8496 125.784 97.8496C125.475 97.8496 125.186 97.9046 124.915 98.0146C124.648 98.1247 124.432 98.2834 124.267 98.4907C124.102 98.6938 124.015 98.9287 124.007 99.1953H122.661C122.674 98.7087 122.82 98.2749 123.099 97.894C123.383 97.509 123.762 97.2106 124.236 96.999C124.71 96.7874 125.23 96.6816 125.797 96.6816C126.385 96.6816 126.902 96.7938 127.346 97.0181C127.79 97.2424 128.133 97.547 128.374 97.9321C128.615 98.313 128.734 98.7298 128.73 99.1826C128.734 99.6989 128.59 100.137 128.298 100.497C128.006 100.856 127.608 101.1 127.105 101.227V101.29C127.519 101.349 127.875 101.478 128.171 101.677C128.472 101.872 128.698 102.124 128.85 102.433C129.007 102.742 129.085 103.089 129.085 103.474C129.085 103.977 128.941 104.432 128.654 104.838C128.37 105.24 127.974 105.556 127.467 105.784C126.963 106.013 126.398 106.127 125.772 106.127ZM130.548 96.8086H133.913C134.547 96.8086 135.083 96.9123 135.518 97.1196C135.954 97.327 136.28 97.6126 136.496 97.9766C136.712 98.3405 136.82 98.7552 136.82 99.2207C136.82 99.7581 136.676 100.188 136.388 100.509C136.105 100.827 135.732 101.045 135.271 101.163V101.252C135.588 101.269 135.893 101.37 136.185 101.557C136.477 101.743 136.714 102.005 136.896 102.344C137.082 102.678 137.175 103.072 137.175 103.524C137.175 104.007 137.063 104.434 136.839 104.807C136.614 105.179 136.27 105.471 135.804 105.683C135.339 105.894 134.759 106 134.065 106H130.548V96.8086ZM133.938 104.807C134.568 104.802 135.034 104.68 135.334 104.438C135.639 104.193 135.791 103.867 135.791 103.461C135.791 103.165 135.717 102.896 135.569 102.655C135.421 102.414 135.21 102.223 134.934 102.083C134.664 101.944 134.348 101.874 133.989 101.874H131.945V104.807H133.938ZM133.798 100.782C134.107 100.778 134.386 100.717 134.636 100.598C134.89 100.48 135.089 100.312 135.233 100.097C135.377 99.8766 135.449 99.6227 135.449 99.335C135.449 98.9372 135.309 98.6156 135.03 98.3701C134.755 98.1247 134.353 98.002 133.824 98.002H131.945V100.782H133.798ZM138.143 103.08L142.206 96.8086H143.932V103.029H145.189V104.21H143.932V106H142.612V104.21H138.143V103.08ZM142.612 103.029V98.4717H142.51L139.616 102.953V103.029H142.612ZM145.827 106L149.128 96.8086H150.74L154.054 106H152.568L151.73 103.575H148.15L147.312 106H145.827ZM151.324 102.407L149.966 98.4844H149.902L148.55 102.407H151.324ZM158.246 106.127C157.624 106.127 157.051 105.989 156.526 105.714C156.001 105.435 155.572 104.967 155.237 104.312C154.907 103.651 154.742 102.784 154.742 101.709C154.742 100.655 154.888 99.7518 155.18 98.9985C155.472 98.241 155.887 97.6655 156.424 97.272C156.966 96.8784 157.603 96.6816 158.335 96.6816C158.889 96.6816 159.387 96.7896 159.827 97.0054C160.267 97.217 160.624 97.5132 160.899 97.894C161.174 98.2749 161.348 98.7087 161.42 99.1953H160.036C159.939 98.806 159.742 98.495 159.446 98.2622C159.154 98.0252 158.784 97.9046 158.335 97.9004C157.865 97.9004 157.461 98.0337 157.123 98.3003C156.788 98.5627 156.532 98.9414 156.354 99.4365C156.177 99.9316 156.088 100.524 156.088 101.214H156.189C156.439 100.825 156.769 100.522 157.18 100.306C157.594 100.086 158.051 99.974 158.551 99.9697C159.092 99.9697 159.59 100.101 160.042 100.363C160.495 100.621 160.853 100.981 161.115 101.442C161.378 101.899 161.509 102.416 161.509 102.991C161.509 103.579 161.371 104.113 161.096 104.591C160.825 105.069 160.442 105.446 159.947 105.721C159.452 105.992 158.885 106.127 158.246 106.127ZM156.253 103.029C156.253 103.368 156.338 103.685 156.507 103.981C156.68 104.278 156.915 104.515 157.211 104.692C157.508 104.87 157.84 104.959 158.208 104.959C158.572 104.959 158.902 104.872 159.198 104.699C159.494 104.521 159.727 104.286 159.896 103.994C160.066 103.698 160.15 103.372 160.15 103.017C160.15 102.67 160.068 102.35 159.903 102.058C159.738 101.766 159.509 101.535 159.217 101.366C158.93 101.197 158.606 101.112 158.246 101.112C157.882 101.112 157.548 101.201 157.243 101.379C156.938 101.552 156.697 101.787 156.52 102.083C156.346 102.375 156.257 102.691 156.253 103.029ZM165.917 106.127C165.346 106.127 164.828 106.019 164.362 105.803C163.897 105.587 163.526 105.287 163.251 104.902C162.976 104.517 162.828 104.083 162.807 103.601H164.165C164.191 103.859 164.284 104.091 164.445 104.299C164.605 104.502 164.815 104.663 165.073 104.781C165.331 104.9 165.612 104.959 165.917 104.959C166.285 104.959 166.613 104.876 166.901 104.711C167.193 104.546 167.422 104.32 167.587 104.032C167.752 103.74 167.834 103.414 167.834 103.055C167.834 102.687 167.75 102.356 167.58 102.064C167.411 101.768 167.176 101.538 166.876 101.373C166.575 101.203 166.235 101.117 165.854 101.112C165.075 101.112 164.538 101.383 164.241 101.925H162.921L163.518 96.8086H168.723V98.002H164.673L164.368 100.579H164.457C164.652 100.393 164.902 100.245 165.206 100.135C165.515 100.021 165.841 99.9613 166.184 99.957C166.755 99.957 167.269 100.09 167.726 100.357C168.183 100.619 168.541 100.983 168.799 101.449C169.061 101.91 169.193 102.433 169.193 103.017C169.193 103.613 169.053 104.149 168.774 104.623C168.494 105.092 168.105 105.46 167.606 105.727C167.111 105.994 166.548 106.127 165.917 106.127ZM173.795 104.908V103.537L178.149 101.55V101.487L173.795 99.5V98.1162L179.761 101.011V102.026L173.795 104.908Z" fill="#26282C"/>
<path d="M218.672 163.537H216.526L216.12 166H215.028L215.435 163.537H214.114L214.279 162.458H215.612L215.955 160.351H214.647L214.812 159.259H216.139L216.539 156.809H217.631L217.231 159.259H219.376L219.776 156.809H220.855L220.456 159.259H221.795L221.617 160.351H220.278L219.935 162.458H221.262L221.071 163.537H219.757L219.357 166H218.266L218.672 163.537ZM218.85 162.458L219.192 160.351H217.047L216.704 162.458H218.85ZM225.708 166.127C225.001 166.127 224.394 165.943 223.886 165.575C223.383 165.202 222.998 164.663 222.731 163.956C222.465 163.249 222.331 162.399 222.331 161.404C222.331 160.414 222.465 159.566 222.731 158.859C223.002 158.152 223.389 157.613 223.893 157.24C224.401 156.868 225.006 156.682 225.708 156.682C226.406 156.682 227.007 156.868 227.511 157.24C228.019 157.613 228.408 158.152 228.679 158.859C228.95 159.566 229.085 160.414 229.085 161.404C229.085 162.399 228.95 163.251 228.679 163.962C228.412 164.669 228.027 165.207 227.524 165.575C227.02 165.943 226.415 166.127 225.708 166.127ZM223.728 161.436C223.728 162.185 223.806 162.82 223.963 163.34C224.119 163.861 224.346 164.254 224.642 164.521C224.938 164.788 225.293 164.921 225.708 164.921C226.123 164.921 226.478 164.788 226.775 164.521C227.071 164.25 227.297 163.852 227.454 163.328C227.61 162.803 227.689 162.162 227.689 161.404C227.689 160.651 227.608 160.01 227.447 159.481C227.291 158.952 227.064 158.552 226.768 158.281C226.472 158.006 226.119 157.867 225.708 157.862C225.293 157.862 224.938 158.002 224.642 158.281C224.346 158.556 224.119 158.963 223.963 159.5C223.806 160.033 223.728 160.679 223.728 161.436ZM230.459 156.809H236.16V158.015H231.856V160.795H235.753V161.988H231.856V166H230.459V156.809ZM240.746 166.127C240.124 166.127 239.55 165.989 239.025 165.714C238.501 165.435 238.071 164.967 237.737 164.312C237.407 163.651 237.242 162.784 237.242 161.709C237.242 160.655 237.388 159.752 237.68 158.999C237.972 158.241 238.386 157.666 238.924 157.272C239.466 156.878 240.102 156.682 240.835 156.682C241.389 156.682 241.886 156.79 242.326 157.005C242.766 157.217 243.124 157.513 243.399 157.894C243.674 158.275 243.848 158.709 243.92 159.195H242.536C242.438 158.806 242.242 158.495 241.945 158.262C241.653 158.025 241.283 157.905 240.835 157.9C240.365 157.9 239.961 158.034 239.622 158.3C239.288 158.563 239.032 158.941 238.854 159.437C238.676 159.932 238.587 160.524 238.587 161.214H238.689C238.939 160.825 239.269 160.522 239.679 160.306C240.094 160.086 240.551 159.974 241.05 159.97C241.592 159.97 242.089 160.101 242.542 160.363C242.995 160.621 243.352 160.981 243.615 161.442C243.877 161.899 244.008 162.416 244.008 162.991C244.008 163.579 243.871 164.113 243.596 164.591C243.325 165.069 242.942 165.446 242.447 165.721C241.952 165.992 241.385 166.127 240.746 166.127ZM238.753 163.029C238.753 163.368 238.837 163.685 239.006 163.981C239.18 164.278 239.415 164.515 239.711 164.692C240.007 164.87 240.339 164.959 240.708 164.959C241.072 164.959 241.402 164.872 241.698 164.699C241.994 164.521 242.227 164.286 242.396 163.994C242.565 163.698 242.65 163.372 242.65 163.017C242.65 162.67 242.567 162.35 242.402 162.058C242.237 161.766 242.009 161.535 241.717 161.366C241.429 161.197 241.105 161.112 240.746 161.112C240.382 161.112 240.047 161.201 239.743 161.379C239.438 161.552 239.197 161.787 239.019 162.083C238.846 162.375 238.757 162.691 238.753 163.029ZM248.785 166H247.376V158.205H247.325L245.129 159.64V158.307L247.414 156.809H248.785V166ZM251.048 156.809H256.748V158.015H252.444V160.795H256.342V161.988H252.444V166H251.048V156.809ZM258.11 156.809H263.81V158.015H259.506V160.795H263.404V161.988H259.506V166H258.11V156.809ZM268.361 164.908V163.537L272.715 161.55V161.487L268.361 159.5V158.116L274.328 161.011V162.026L268.361 164.908Z" fill="#26282C"/>
<path d="M164.672 41.5371H162.526L162.12 44H161.028L161.435 41.5371H160.114L160.279 40.458H161.612L161.955 38.3506H160.647L160.812 37.2588H162.139L162.539 34.8086H163.631L163.231 37.2588H165.376L165.776 34.8086H166.855L166.456 37.2588H167.795L167.617 38.3506H166.278L165.935 40.458H167.262L167.071 41.5371H165.757L165.357 44H164.266L164.672 41.5371ZM164.85 40.458L165.192 38.3506H163.047L162.704 40.458H164.85ZM168.636 34.8086H174.4V36.0146H170.032V38.7949H174.095V39.9883H170.032V42.7939H174.45V44H168.636V34.8086ZM175.913 34.8086H179.278C179.913 34.8086 180.448 34.9123 180.884 35.1196C181.32 35.327 181.645 35.6126 181.861 35.9766C182.077 36.3405 182.185 36.7552 182.185 37.2207C182.185 37.7581 182.041 38.1877 181.753 38.5093C181.47 38.8267 181.097 39.0446 180.636 39.1631V39.252C180.954 39.2689 181.258 39.3704 181.55 39.5566C181.842 39.7428 182.079 40.0052 182.261 40.3438C182.447 40.6781 182.54 41.0716 182.54 41.5244C182.54 42.0068 182.428 42.4342 182.204 42.8066C181.98 43.179 181.635 43.471 181.169 43.6826C180.704 43.8942 180.124 44 179.43 44H175.913V34.8086ZM179.303 42.8066C179.934 42.8024 180.399 42.6797 180.7 42.4385C181.004 42.193 181.157 41.8672 181.157 41.4609C181.157 41.1647 181.083 40.896 180.934 40.6548C180.786 40.4136 180.575 40.2231 180.3 40.0835C180.029 39.9438 179.714 39.874 179.354 39.874H177.31V42.8066H179.303ZM179.163 38.7822C179.472 38.778 179.752 38.7166 180.001 38.5981C180.255 38.4797 180.454 38.3125 180.598 38.0967C180.742 37.8766 180.814 37.6227 180.814 37.335C180.814 36.9372 180.674 36.6156 180.395 36.3701C180.12 36.1247 179.718 36.002 179.189 36.002H177.31V38.7822H179.163ZM186.835 44.127C186.263 44.127 185.745 44.019 185.279 43.8032C184.814 43.5874 184.444 43.2869 184.169 42.9019C183.893 42.5168 183.745 42.083 183.724 41.6006H185.083C185.108 41.8587 185.201 42.0915 185.362 42.2988C185.523 42.502 185.732 42.6628 185.99 42.7812C186.248 42.8997 186.53 42.959 186.835 42.959C187.203 42.959 187.531 42.8765 187.818 42.7114C188.11 42.5464 188.339 42.32 188.504 42.0322C188.669 41.7402 188.752 41.4144 188.752 41.0547C188.752 40.6865 188.667 40.3564 188.498 40.0645C188.328 39.7682 188.094 39.5376 187.793 39.3726C187.493 39.2033 187.152 39.1165 186.771 39.1123C185.992 39.1123 185.455 39.3831 185.159 39.9248H183.838L184.435 34.8086H189.64V36.002H185.59L185.286 38.5791H185.375C185.569 38.3929 185.819 38.2448 186.124 38.1348C186.433 38.0205 186.758 37.9613 187.101 37.957C187.672 37.957 188.187 38.0903 188.644 38.3569C189.101 38.6193 189.458 38.9832 189.716 39.4487C189.979 39.91 190.11 40.4326 190.11 41.0166C190.11 41.6133 189.97 42.1486 189.691 42.6226C189.412 43.0923 189.022 43.4604 188.523 43.7271C188.028 43.9937 187.465 44.127 186.835 44.127ZM194.887 44H193.477V36.2051H193.427L191.23 37.6396V36.3066L193.515 34.8086H194.887V44ZM196.819 41.0801L200.882 34.8086H202.608V41.0293H203.865V42.21H202.608V44H201.288V42.21H196.819V41.0801ZM201.288 41.0293V36.4717H201.187L198.292 40.9531V41.0293H201.288ZM209.492 36.0781V36.002H204.757V34.8086H210.94V36.0527L206.852 44H205.392L209.492 36.0781ZM215.465 42.9082V41.5371L219.82 39.5503V39.4868L215.465 37.5V36.1162L221.432 39.0107V40.0264L215.465 42.9082Z" fill="#26282C"/>
<path d="M32.6719 73.5371H30.5264L30.1201 76H29.0283L29.4346 73.5371H28.1143L28.2793 72.458H29.6123L29.9551 70.3506H28.6475L28.8125 69.2588H30.1392L30.5391 66.8086H31.6309L31.231 69.2588H33.3765L33.7764 66.8086H34.8555L34.4556 69.2588H35.7949L35.6172 70.3506H34.2778L33.9351 72.458H35.2617L35.0713 73.5371H33.7573L33.3574 76H32.2656L32.6719 73.5371ZM32.8496 72.458L33.1924 70.3506H31.0469L30.7041 72.458H32.8496ZM36.6359 66.8086H42.3361V68.0146H38.0324V70.7949H41.9299V71.9883H38.0324V76H36.6359V66.8086ZM43.6977 66.8086H49.4613V68.0146H45.0941V70.7949H49.1566V71.9883H45.0941V74.7939H49.5121V76H43.6977V66.8086ZM50.9752 66.8086H56.6754V68.0146H52.3717V70.7949H56.2691V71.9883H52.3717V76H50.9752V66.8086ZM62.3279 68.0781V68.002H57.5926V66.8086H63.7752V68.0527L59.6873 76H58.2273L62.3279 68.0781ZM65.1113 66.8086H70.8115V68.0146H66.5078V70.7949H70.4053V71.9883H66.5078V76H65.1113V66.8086ZM75.1691 76.127C74.5979 76.127 74.0795 76.019 73.614 75.8032C73.1485 75.5874 72.7782 75.2869 72.5031 74.9019C72.2281 74.5168 72.0799 74.083 72.0588 73.6006H73.4172C73.4426 73.8587 73.5357 74.0915 73.6965 74.2988C73.8573 74.502 74.0668 74.6628 74.3249 74.7812C74.583 74.8997 74.8645 74.959 75.1691 74.959C75.5373 74.959 75.8653 74.8765 76.153 74.7114C76.445 74.5464 76.6735 74.32 76.8386 74.0322C77.0036 73.7402 77.0861 73.4144 77.0861 73.0547C77.0861 72.6865 77.0015 72.3564 76.8322 72.0645C76.663 71.7682 76.4281 71.5376 76.1276 71.3726C75.8272 71.2033 75.4865 71.1165 75.1057 71.1123C74.327 71.1123 73.7896 71.3831 73.4934 71.9248H72.173L72.7697 66.8086H77.9748V68.002H73.925L73.6203 70.5791H73.7092C73.9038 70.3929 74.1535 70.2448 74.4582 70.1348C74.7671 70.0205 75.093 69.9613 75.4357 69.957C76.007 69.957 76.5212 70.0903 76.9782 70.3569C77.4353 70.6193 77.7928 70.9832 78.051 71.4487C78.3133 71.91 78.4445 72.4326 78.4445 73.0166C78.4445 73.6133 78.3049 74.1486 78.0256 74.6226C77.7463 75.0923 77.357 75.4604 76.8576 75.7271C76.3625 75.9937 75.7997 76.127 75.1691 76.127ZM83.6051 74.8193C83.4443 74.8193 83.294 74.7791 83.1544 74.6987C83.019 74.6183 82.909 74.5104 82.8243 74.375C82.7439 74.2396 82.7037 74.0915 82.7037 73.9307C82.7037 73.7656 82.7439 73.6133 82.8243 73.4736C82.9047 73.334 83.0126 73.224 83.148 73.1436C83.2877 73.0589 83.44 73.0166 83.6051 73.0166C83.7659 73.0166 83.914 73.0568 84.0494 73.1372C84.1891 73.2176 84.2991 73.3276 84.3795 73.4673C84.4641 73.6069 84.5064 73.7572 84.5064 73.918C84.5064 74.0788 84.4641 74.229 84.3795 74.3687C84.2991 74.5041 84.1891 74.6141 84.0494 74.6987C83.914 74.7791 83.7659 74.8193 83.6051 74.8193ZM83.6051 69.8047C83.4443 69.8047 83.294 69.7645 83.1544 69.6841C83.019 69.6037 82.909 69.4958 82.8243 69.3604C82.7439 69.2249 82.7037 69.0768 82.7037 68.916C82.7037 68.751 82.7439 68.5986 82.8243 68.459C82.9047 68.3193 83.0126 68.2093 83.148 68.1289C83.2877 68.0443 83.44 68.002 83.6051 68.002C83.7659 68.002 83.914 68.0422 84.0494 68.1226C84.1891 68.203 84.2991 68.313 84.3795 68.4526C84.4641 68.5923 84.5064 68.7425 84.5064 68.9033C84.5064 69.0641 84.4641 69.2144 84.3795 69.354C84.2991 69.4894 84.1891 69.5994 84.0494 69.6841C83.914 69.7645 83.7659 69.8047 83.6051 69.8047ZM89.0322 66.8086H90.3779V70.2236H90.4541C90.5768 70.0078 90.708 69.8174 90.8477 69.6523C90.9873 69.4873 91.1883 69.3413 91.4507 69.2144C91.7173 69.0832 92.0452 69.0176 92.4346 69.0176C92.9932 69.0176 93.4925 69.1593 93.9326 69.4429C94.3727 69.7264 94.7176 70.1369 94.9673 70.6743C95.217 71.2075 95.3418 71.8402 95.3418 72.5723C95.3418 73.2959 95.217 73.9285 94.9673 74.4702C94.7176 75.0076 94.3748 75.4202 93.939 75.708C93.5031 75.9915 93.0059 76.1354 92.4473 76.1396C92.0622 76.1396 91.7363 76.0741 91.4697 75.9429C91.2074 75.8117 91.0021 75.6615 90.854 75.4922C90.7059 75.3187 90.5726 75.1283 90.4541 74.9209H90.3525V76H89.0322V66.8086ZM90.3525 72.5469C90.3525 73.0293 90.4224 73.4546 90.562 73.8228C90.7017 74.1867 90.9069 74.4723 91.1777 74.6797C91.4486 74.8828 91.7702 74.9844 92.1426 74.9844C92.5277 74.9844 92.8556 74.8786 93.1265 74.667C93.4015 74.4554 93.6089 74.1676 93.7485 73.8037C93.8882 73.4355 93.958 73.0166 93.958 72.5469C93.958 72.0856 93.8882 71.6772 93.7485 71.3218C93.6131 70.9621 93.41 70.6807 93.1392 70.4775C92.8683 70.2744 92.5361 70.1729 92.1426 70.1729C91.7617 70.1729 91.4359 70.2702 91.165 70.4648C90.8984 70.6553 90.6953 70.9303 90.5557 71.29C90.4202 71.6455 90.3525 72.0645 90.3525 72.5469ZM99.382 78.7295C98.8065 78.7295 98.2987 78.647 97.8586 78.4819C97.4185 78.3211 97.0694 78.0863 96.8112 77.7773C96.5573 77.4684 96.4113 77.1003 96.3732 76.6729H97.757C97.8205 76.9902 97.9919 77.2293 98.2712 77.3901C98.5547 77.5552 98.9208 77.6377 99.3693 77.6377C99.9364 77.6377 100.374 77.5129 100.683 77.2632C100.996 77.0135 101.155 76.6263 101.159 76.1016V74.7432H101.071C100.897 75.0605 100.658 75.3335 100.353 75.562C100.053 75.7863 99.6232 75.8984 99.0647 75.8984C98.5145 75.8984 98.0215 75.7651 97.5856 75.4985C97.1498 75.2319 96.807 74.8426 96.5573 74.3306C96.3077 73.8143 96.1828 73.1986 96.1828 72.4834C96.1828 71.7682 96.3077 71.1504 96.5573 70.6299C96.807 70.1051 97.1498 69.7052 97.5856 69.4302C98.0258 69.1551 98.523 69.0176 99.0773 69.0176C99.4709 69.0176 99.7989 69.0832 100.061 69.2144C100.328 69.3413 100.533 69.4894 100.677 69.6587C100.821 69.8237 100.956 70.012 101.083 70.2236H101.172V69.1064H102.492V76.1523C102.492 76.7236 102.359 77.2018 102.092 77.5869C101.83 77.972 101.464 78.2576 100.994 78.4438C100.529 78.6343 99.9914 78.7295 99.382 78.7295ZM97.5666 72.5088C97.5624 73.2028 97.7168 73.755 98.03 74.1655C98.3431 74.5718 98.7896 74.777 99.3693 74.7812C99.9449 74.777 100.389 74.576 100.702 74.1782C101.015 73.7804 101.172 73.224 101.172 72.5088C101.172 72.0391 101.102 71.6286 100.963 71.2773C100.823 70.9261 100.618 70.6553 100.347 70.4648C100.076 70.2702 99.7502 70.1729 99.3693 70.1729C98.98 70.1729 98.6499 70.2744 98.3791 70.4775C98.1083 70.6764 97.903 70.9536 97.7634 71.3091C97.628 71.6603 97.5624 72.0602 97.5666 72.5088Z" fill="#26282C"/>
<path d="M32.6719 185.537H30.5264L30.1201 188H29.0283L29.4346 185.537H28.1143L28.2793 184.458H29.6123L29.9551 182.351H28.6475L28.8125 181.259H30.1392L30.5391 178.809H31.6309L31.231 181.259H33.3765L33.7764 178.809H34.8555L34.4556 181.259H35.7949L35.6172 182.351H34.2778L33.9351 184.458H35.2617L35.0713 185.537H33.7573L33.3574 188H32.2656L32.6719 185.537ZM32.8496 184.458L33.1924 182.351H31.0469L30.7041 184.458H32.8496ZM36.6359 178.809H42.3361V180.015H38.0324V182.795H41.9299V183.988H38.0324V188H36.6359V178.809ZM47.0619 188H45.6527V180.205H45.602L43.4057 181.64V180.307L45.6908 178.809H47.0619V188ZM49.3248 178.809H55.025V180.015H50.7213V182.795H54.6187V183.988H50.7213V188H49.3248V178.809ZM54.533 188L57.8338 178.809H59.4461L62.7596 188H61.2742L60.4363 185.575H56.8563L56.0184 188H54.533ZM60.0301 184.407L58.6717 180.484H58.6082L57.2562 184.407H60.0301ZM63.7275 178.809H69.4277V180.015H65.124V182.795H69.0215V183.988H65.124V188H63.7275V178.809ZM70.7893 178.809H76.4895V180.015H72.1857V182.795H76.0832V183.988H72.1857V188H70.7893V178.809ZM81.5992 186.819C81.4384 186.819 81.2882 186.779 81.1485 186.699C81.0131 186.618 80.9031 186.51 80.8185 186.375C80.7381 186.24 80.6979 186.091 80.6979 185.931C80.6979 185.766 80.7381 185.613 80.8185 185.474C80.8989 185.334 81.0068 185.224 81.1422 185.144C81.2818 185.059 81.4342 185.017 81.5992 185.017C81.76 185.017 81.9081 185.057 82.0436 185.137C82.1832 185.218 82.2932 185.328 82.3736 185.467C82.4583 185.607 82.5006 185.757 82.5006 185.918C82.5006 186.079 82.4583 186.229 82.3736 186.369C82.2932 186.504 82.1832 186.614 82.0436 186.699C81.9081 186.779 81.76 186.819 81.5992 186.819ZM81.5992 181.805C81.4384 181.805 81.2882 181.764 81.1485 181.684C81.0131 181.604 80.9031 181.496 80.8185 181.36C80.7381 181.225 80.6979 181.077 80.6979 180.916C80.6979 180.751 80.7381 180.599 80.8185 180.459C80.8989 180.319 81.0068 180.209 81.1422 180.129C81.2818 180.044 81.4342 180.002 81.5992 180.002C81.76 180.002 81.9081 180.042 82.0436 180.123C82.1832 180.203 82.2932 180.313 82.3736 180.453C82.4583 180.592 82.5006 180.743 82.5006 180.903C82.5006 181.064 82.4583 181.214 82.3736 181.354C82.2932 181.489 82.1832 181.599 82.0436 181.684C81.9081 181.764 81.76 181.805 81.5992 181.805ZM87.0264 178.809H88.3721V182.224H88.4482C88.571 182.008 88.7021 181.817 88.8418 181.652C88.9814 181.487 89.1825 181.341 89.4448 181.214C89.7114 181.083 90.0394 181.018 90.4287 181.018C90.9873 181.018 91.4867 181.159 91.9268 181.443C92.3669 181.726 92.7118 182.137 92.9614 182.674C93.2111 183.208 93.3359 183.84 93.3359 184.572C93.3359 185.296 93.2111 185.929 92.9614 186.47C92.7118 187.008 92.369 187.42 91.9331 187.708C91.4972 187.992 91 188.135 90.4414 188.14C90.0563 188.14 89.7305 188.074 89.4639 187.943C89.2015 187.812 88.9963 187.661 88.8481 187.492C88.7 187.319 88.5667 187.128 88.4482 186.921H88.3467V188H87.0264V178.809ZM88.3467 184.547C88.3467 185.029 88.4165 185.455 88.5562 185.823C88.6958 186.187 88.901 186.472 89.1719 186.68C89.4427 186.883 89.7643 186.984 90.1367 186.984C90.5218 186.984 90.8498 186.879 91.1206 186.667C91.3957 186.455 91.603 186.168 91.7427 185.804C91.8823 185.436 91.9521 185.017 91.9521 184.547C91.9521 184.086 91.8823 183.677 91.7427 183.322C91.6073 182.962 91.4041 182.681 91.1333 182.478C90.8625 182.274 90.5303 182.173 90.1367 182.173C89.7559 182.173 89.43 182.27 89.1592 182.465C88.8926 182.655 88.6895 182.93 88.5498 183.29C88.4144 183.646 88.3467 184.064 88.3467 184.547ZM97.3762 190.729C96.8007 190.729 96.2928 190.647 95.8527 190.482C95.4126 190.321 95.0635 190.086 94.8054 189.777C94.5515 189.468 94.4055 189.1 94.3674 188.673H95.7512C95.8147 188.99 95.986 189.229 96.2653 189.39C96.5489 189.555 96.9149 189.638 97.3635 189.638C97.9305 189.638 98.3685 189.513 98.6774 189.263C98.9906 189.014 99.1493 188.626 99.1535 188.102V186.743H99.0647C98.8911 187.061 98.6521 187.333 98.3474 187.562C98.0469 187.786 97.6174 187.898 97.0588 187.898C96.5087 187.898 96.0157 187.765 95.5798 187.499C95.1439 187.232 94.8011 186.843 94.5515 186.331C94.3018 185.814 94.177 185.199 94.177 184.483C94.177 183.768 94.3018 183.15 94.5515 182.63C94.8011 182.105 95.1439 181.705 95.5798 181.43C96.0199 181.155 96.5171 181.018 97.0715 181.018C97.465 181.018 97.793 181.083 98.0554 181.214C98.322 181.341 98.5272 181.489 98.6711 181.659C98.815 181.824 98.9504 182.012 99.0773 182.224H99.1662V181.106H100.487V188.152C100.487 188.724 100.353 189.202 100.087 189.587C99.8243 189.972 99.4582 190.258 98.9885 190.444C98.523 190.634 97.9855 190.729 97.3762 190.729ZM95.5607 184.509C95.5565 185.203 95.711 185.755 96.0241 186.166C96.3373 186.572 96.7837 186.777 97.3635 186.781C97.939 186.777 98.3833 186.576 98.6965 186.178C99.0096 185.78 99.1662 185.224 99.1662 184.509C99.1662 184.039 99.0964 183.629 98.9567 183.277C98.8171 182.926 98.6119 182.655 98.341 182.465C98.0702 182.27 97.7443 182.173 97.3635 182.173C96.9742 182.173 96.6441 182.274 96.3732 182.478C96.1024 182.676 95.8972 182.954 95.7575 183.309C95.6221 183.66 95.5565 184.06 95.5607 184.509Z" fill="#26282C"/>
<path d="M221.672 57.5371H219.526L219.12 60H218.028L218.435 57.5371H217.114L217.279 56.458H218.612L218.955 54.3506H217.647L217.812 53.2588H219.139L219.539 50.8086H220.631L220.231 53.2588H222.376L222.776 50.8086H223.855L223.456 53.2588H224.795L224.617 54.3506H223.278L222.935 56.458H224.262L224.071 57.5371H222.757L222.357 60H221.266L221.672 57.5371ZM221.85 56.458L222.192 54.3506H220.047L219.704 56.458H221.85ZM225.636 50.8086H231.4V52.0146H227.032V54.7949H231.095V55.9883H227.032V58.7939H231.45V60H225.636V50.8086ZM232.913 50.8086H238.677V52.0146H234.31V54.7949H238.372V55.9883H234.31V58.7939H238.728V60H232.913V50.8086ZM240.191 50.8086H245.955V52.0146H241.587V54.7949H245.65V55.9883H241.587V58.7939H246.005V60H240.191V50.8086ZM247.469 50.8086H253.232V52.0146H248.865V54.7949H252.928V55.9883H248.865V58.7939H253.283V60H247.469V50.8086ZM254.746 50.8086H260.51V52.0146H256.143V54.7949H260.205V55.9883H256.143V58.7939H260.561V60H254.746V50.8086ZM262.024 50.8086H267.787V52.0146H263.42V54.7949H267.483V55.9883H263.42V58.7939H267.838V60H262.024V50.8086ZM272.491 58.9082V57.5371L276.845 55.5503V55.4868L272.491 53.5V52.1162L278.458 55.0107V56.0264L272.491 58.9082Z" fill="#26282C"/>
</svg>
