<svg width="48" height="48" viewBox="0 0 48 48" fill="none" xmlns="http://www.w3.org/2000/svg">
<g id="Banner Icon-48">
<g id="&#236;&#157;&#152;&#236;&#130;&#172; &#236;&#149;&#132;&#236;&#157;&#180;&#236;&#189;&#152;">
<path id="Vector 1506" d="M5.08256 38.2871C5.23207 31.8579 12.1223 30.4998 15.5488 30.6244C16.6078 30.8734 21.3425 31.2222 31.8087 30.6244C42.2749 30.0265 43.0225 41.3396 42.088 47.0709H5.08256C5.02026 46.8218 4.93304 44.7163 5.08256 38.2871Z" fill="white"/>
<path id="Vector 1505" d="M27.6994 31.1875L19.2891 31.5613L21.5318 47.0737H25.2697L27.6994 31.1875Z" fill="#00B8E0"/>
<path id="Vector 1502" d="M19.4368 31.5612C19.1448 29.5176 19.0185 28.3718 18.7266 26.3281H27.6976L27.5107 31.5502C26.8877 32.1769 25.0063 33.4302 23.2121 33.4302C21.4179 33.4302 19.8729 32.1879 19.4368 31.5612Z" fill="#FDB69D"/>
<path id="Vector 1503" d="M16.4867 28.9453H19.1033L20.9722 43.1494L19.4771 41.6543H16.8605L16.2998 36.2343H12.375L16.4867 28.9453Z" fill="#E1E7F7"/>
<path id="Vector 1504" d="M30.3102 28.9453H27.6936L25.862 43.1494L27.3198 41.6543H29.9364L30.4971 36.2343H34.4219L30.3102 28.9453Z" fill="#E1E7F7"/>
<path id="Vector 1500" d="M36.6688 17.7325C37.5659 15.9383 36.0458 14.9914 35.1737 14.7422L33.3047 19.0408C34.0523 19.3523 35.7717 19.5267 36.6688 17.7325Z" fill="#FDB69D"/>
<path id="Vector 1501" d="M10.44 17.5985C9.42611 15.6597 11.1441 14.6365 12.1299 14.3672L14.2422 19.0123C13.3973 19.3489 11.4539 19.5374 10.44 17.5985Z" fill="#FDB69D"/>
<path id="Vector 1498" d="M13.8672 17.3591C13.8672 16.1629 14.864 13.1228 15.3624 11.7522C21.343 10.556 28.8189 12.126 31.8092 13.0605C32.0584 13.8703 32.6316 15.677 32.9306 16.4246C33.3044 17.3591 33.8651 20.7232 31.6223 24.2742C29.3796 27.8253 23.0251 29.1336 18.5396 26.8908C14.0541 24.648 13.8672 18.8543 13.8672 17.3591Z" fill="#FFE0C7"/>
<path id="Vector 1499" d="M15.175 11.7515L13.8667 18.6666C13.7421 18.6666 13.1565 17.62 11.8109 13.4335C10.1288 8.20045 16.4833 1.47218 24.5198 2.03287C32.5564 2.59355 35.7336 8.76114 35.5467 12.3122C35.3972 15.153 33.9893 17.9814 33.304 19.0404L31.9957 13.2466C31.9957 13.2466 19.4113 12.3122 15.175 11.7515Z" fill="#484848"/>
</g>
</g>
</svg>
