<svg width="61" height="34" viewBox="0 0 61 34" fill="none" xmlns="http://www.w3.org/2000/svg">
<path d="M27.1271 33.5311C27.1271 32.261 27.0083 29.5417 26.5786 28.0633L32.0022 21.2266L37.2661 28.0752C36.7492 29.6703 36.7364 32.2599 36.7364 33.5311C36.7364 33.5311 33.8494 33.599 32.0021 33.6002C30.0986 33.6014 27.1271 33.5311 27.1271 33.5311Z" fill="white"/>
<path d="M41.9463 18.7174C39.7889 21.9038 36.1403 23.998 32.0026 23.998C27.8648 23.998 24.2162 21.9038 22.0588 18.7174C20.3165 20.4951 17.8883 21.598 15.2025 21.598C9.90061 21.598 5.60254 17.2999 5.60254 11.998C5.60254 6.69602 9.90061 3.65 15.2025 3.65C16.8351 3.65 18.3725 4.05752 19.7185 4.77639C21.0569 5.49117 22.855 5.33704 23.9834 4.32273C26.1087 2.41237 28.9199 1.25 32.0026 1.25C35.0852 1.25 37.8964 2.41237 40.0217 4.32273C41.1501 5.33704 42.9482 5.49118 44.2866 4.77639C45.6326 4.05752 47.17 3.65 48.8026 3.65C54.1045 3.65 58.4026 6.69602 58.4026 11.998C58.4026 17.2999 54.1045 21.598 48.8026 21.598C46.1168 21.598 43.6886 20.4951 41.9463 18.7174Z" fill="#D3D3D3"/>
<path d="M58.4026 12C58.4026 12.1766 58.1485 12.1894 58.1048 12.0183C57.0455 7.86847 53.2824 4.8 48.8026 4.8C47.17 4.8 45.6326 5.20752 44.2866 5.92639C42.9482 6.64118 41.1501 6.48704 40.0217 5.47273C37.8964 3.56237 35.0852 2.4 32.0026 2.4C28.9199 2.4 26.1087 3.56237 23.9834 5.47273C22.855 6.48704 21.0569 6.64117 19.7185 5.92639C18.3725 5.20752 16.8351 4.8 15.2025 4.8C10.7227 4.8 6.95962 7.86847 5.90029 12.0183C5.8566 12.1894 5.60254 12.1766 5.60254 12C5.60254 6.69807 9.90061 2.4 15.2025 2.4C16.8351 2.4 18.3725 2.80752 19.7185 3.52639C21.0569 4.24117 22.855 4.08704 23.9834 3.07273C26.1087 1.16237 28.9199 0 32.0026 0C35.0852 0 37.8964 1.16237 40.0217 3.07273C41.1501 4.08704 42.9482 4.24117 44.2866 3.52639C45.6326 2.80752 47.17 2.4 48.8026 2.4C54.1045 2.4 58.4026 6.69807 58.4026 12Z" fill="#E6E6E6"/>
<path d="M34.0631 27.1584C32.8443 26.3844 31.16 26.3844 29.9412 27.1584C28.4554 28.1019 26.6926 28.6483 24.8022 28.6483C19.5002 28.6483 15.2021 24.3502 15.2021 19.0483C15.2021 13.7463 19.5002 10.75 24.8022 10.75C26.6926 10.75 28.4554 11.2964 29.9412 12.2399C31.16 13.0138 32.8443 13.0138 34.0631 12.2399C35.549 11.2964 37.3117 10.75 39.2022 10.75C44.5041 10.75 48.8022 13.7463 48.8022 19.0483C48.8022 24.3502 44.5041 28.6483 39.2022 28.6483C37.3117 28.6483 35.549 28.1019 34.0631 27.1584Z" fill="#CCCCCC"/>
<path d="M48.8022 19.0492C48.8022 19.2259 48.5481 19.2387 48.5044 19.0675C47.4451 14.9177 43.682 11.8492 39.2022 11.8492C37.3117 11.8492 35.549 12.3956 34.0631 13.3391C32.8443 14.1131 31.16 14.1131 29.9412 13.3391C28.4554 12.3956 26.6926 11.8492 24.8022 11.8492C20.3224 11.8492 16.5592 14.9177 15.4999 19.0675C15.4562 19.2387 15.2021 19.2259 15.2021 19.0492C15.2021 13.7473 19.5002 9.44922 24.8022 9.44922C26.6926 9.44922 28.4554 9.99563 29.9412 10.9391C31.16 11.7131 32.8443 11.7131 34.0631 10.9391C35.549 9.99563 37.3117 9.44922 39.2022 9.44922C44.5041 9.44922 48.8022 13.7473 48.8022 19.0492Z" fill="white"/>
<path d="M10.4027 6.0007C10.4027 7.98892 8.79097 9.6007 6.80274 9.6007C4.81451 9.6007 3.20274 7.98892 3.20274 6.0007C3.20274 4.01247 4.81451 2.40069 6.80274 2.40069C8.79097 2.40069 10.4027 4.01247 10.4027 6.0007Z" fill="white"/>
<path d="M51.6835 6.65187C53.5126 6.65187 54.9955 5.16904 54.9955 3.33987C54.9955 1.5107 53.5126 0.0278682 51.6835 0.0278682C49.8543 0.0278682 48.3715 1.5107 48.3715 3.33987C48.3715 5.16904 49.8543 6.65187 51.6835 6.65187Z" fill="white"/>
<path d="M5.60274 16.8007C5.60274 18.1262 4.52822 19.2007 3.20274 19.2007C1.87725 19.2007 0.802734 18.1262 0.802734 16.8007C0.802734 15.4752 1.87725 14.4007 3.20274 14.4007C4.52822 14.4007 5.60274 15.4752 5.60274 16.8007Z" fill="white"/>
<path d="M60.8028 19.2007C60.8028 20.5262 59.7283 21.6007 58.4028 21.6007C57.0773 21.6007 56.0028 20.5262 56.0028 19.2007C56.0028 17.8752 57.0773 16.8007 58.4028 16.8007C59.7283 16.8007 60.8028 17.8752 60.8028 19.2007Z" fill="white"/>
</svg>
