<svg width="61" height="60" viewBox="0 0 61 60" fill="none" xmlns="http://www.w3.org/2000/svg">
<rect width="60" height="60" transform="translate(0.5)" fill="white"/>
<rect width="60" height="60" transform="translate(0.5)" fill="#FF0000" fill-opacity="0.2"/>
<path fill-rule="evenodd" clip-rule="evenodd" d="M41.7797 33.7997H7.21973L7.57973 44.5997H7.58002C7.58002 44.5997 7.58002 44.5998 7.58002 44.5998C7.58002 48.3774 15.1554 51.4398 24.5 51.4398C33.8447 51.4398 41.42 48.3774 41.42 44.5998C41.42 44.597 41.42 44.5942 41.42 44.5914L41.7797 33.7997Z" fill="#94B2D7"/>
<path fill-rule="evenodd" clip-rule="evenodd" d="M42.1399 23.001H6.85986L7.21986 33.8009C7.21986 37.5786 14.9564 40.6409 24.4999 40.6409C34.0433 40.6409 41.7798 37.5786 41.7799 33.801C41.7799 33.801 41.7799 33.801 41.7799 33.8009L42.1399 23.001Z" fill="#B6CFEC"/>
<path fill-rule="evenodd" clip-rule="evenodd" d="M42.5 12.2H6.5L6.86 23H6.86005C6.86043 26.9763 14.758 30.1997 24.5 30.1997C34.2423 30.1997 42.14 26.9762 42.14 22.9997C42.14 22.9994 42.14 22.9991 42.14 22.9988L42.5 12.2Z" fill="#D6E4F5"/>
<ellipse cx="24.5" cy="12.2" rx="18" ry="7.2" fill="#F4F9FF"/>
<circle cx="40.5" cy="42" r="14" fill="url(#paint0_linear_607_9696)"/>
<path fill-rule="evenodd" clip-rule="evenodd" d="M39.0197 38.6149C39.5392 38.3144 40.142 38.1419 40.7898 38.1419C42.7443 38.1419 44.3291 39.7249 44.3321 41.6787H43.6105C43.165 41.6787 42.9419 42.2173 43.2569 42.5323L45.4727 44.748C45.6679 44.9433 45.9845 44.9433 46.1798 44.748L48.3955 42.5323C48.7105 42.2173 48.4874 41.6787 48.042 41.6787H47.3321C47.3291 38.068 44.4012 35.1419 40.7898 35.1419C39.6006 35.1419 38.4813 35.4605 37.5175 36.0181C36.8004 36.4329 36.5554 37.3505 36.9702 38.0676C37.385 38.7847 38.3026 39.0297 39.0197 38.6149ZM42.3466 45.7504C41.8271 46.0509 41.2242 46.2234 40.5765 46.2234C38.6223 46.2234 37.0377 44.641 37.0341 42.6877H37.7558C38.2012 42.6877 38.4243 42.1491 38.1093 41.8341L35.8936 39.6183C35.6983 39.4231 35.3817 39.4231 35.1865 39.6183L32.9707 41.8341C32.6557 42.1491 32.8788 42.6877 33.3242 42.6877H34.0341C34.0377 46.2979 36.9654 49.2234 40.5765 49.2234C41.7656 49.2234 42.8849 48.9048 43.8487 48.3472C44.5658 47.9324 44.8109 47.0148 44.3961 46.2977C43.9812 45.5807 43.0637 45.3356 42.3466 45.7504Z" fill="url(#paint1_linear_607_9696)"/>
<defs>
<linearGradient id="paint0_linear_607_9696" x1="31.9445" y1="29.3611" x2="50.6112" y2="53.2779" gradientUnits="userSpaceOnUse">
<stop stop-color="#A8F29C"/>
<stop offset="0.747259" stop-color="#58D84D"/>
<stop offset="1" stop-color="#75CC79"/>
</linearGradient>
<linearGradient id="paint1_linear_607_9696" x1="35.6295" y1="36.4409" x2="46.1244" y2="48.4327" gradientUnits="userSpaceOnUse">
<stop stop-color="white" stop-opacity="0.9"/>
<stop offset="1" stop-color="white"/>
</linearGradient>
</defs>
</svg>
