<svg width="60" height="60" viewBox="0 0 60 60" fill="none" xmlns="http://www.w3.org/2000/svg">
<mask id="mask0_7579_94243" style="mask-type:alpha" maskUnits="userSpaceOnUse" x="20" y="20" width="31" height="32">
<path d="M39.7032 20.67L20.9083 36.4408C19.9933 37.2085 20.175 38.6645 21.2506 39.1838L46.5244 51.3866C48.4411 52.312 50.5522 50.5405 49.9737 48.4922L42.3451 21.4834C42.0205 20.3341 40.6181 19.9023 39.7032 20.67Z" fill="url(#paint0_linear_7579_94243)"/>
<path d="M39.7032 20.67L20.9083 36.4408C19.9933 37.2085 20.175 38.6645 21.2506 39.1838L46.5244 51.3866C48.4411 52.312 50.5522 50.5405 49.9737 48.4922L42.3451 21.4834C42.0205 20.3341 40.6181 19.9023 39.7032 20.67Z" fill="url(#paint1_linear_7579_94243)"/>
</mask>
<g mask="url(#mask0_7579_94243)">
<path d="M12.0498 62.9941L31.4564 7.18004L37.758 9.37111L18.3514 65.1852L12.0498 62.9941Z" fill="#FFCD1D"/>
<path d="M18.3506 65.1836L37.7571 9.3695L44.0587 11.5606L24.6522 67.3747L18.3506 65.1836Z" fill="#FFD61B"/>
<path d="M24.6523 67.373L44.0589 11.559L50.3605 13.75L30.9539 69.5641L24.6523 67.373Z" fill="#FFCD1D"/>
<path d="M30.9546 69.5645L50.3611 13.7504L56.6627 15.9414L37.2562 71.7555L30.9546 69.5645Z" fill="#FFD61B"/>
<path d="M37.2227 71.8535L56.6292 16.0394L62.9308 18.2305L43.5242 74.0446L37.2227 71.8535Z" fill="#FFCD1D"/>
</g>
<path d="M41.7054 21.1459C42.0108 21.5098 42.1384 22.0843 41.9895 22.9153C41.8412 23.7428 41.4291 24.7511 40.7632 25.8788C39.4339 28.1301 37.1517 30.7599 34.2239 33.2166C31.2961 35.6734 28.3099 37.4642 25.862 38.3824C24.6358 38.8423 23.5712 39.0732 22.7306 39.0755C21.8863 39.0778 21.3427 38.8523 21.0374 38.4884C20.732 38.1245 20.6044 37.5501 20.7533 36.719C20.9015 35.8915 21.3137 34.8833 21.9796 33.7555C23.3089 31.5042 25.5911 28.8744 28.5189 26.4177C31.4467 23.961 34.4328 22.1701 36.8808 21.2519C38.107 20.792 39.1716 20.5612 40.0122 20.5589C40.8565 20.5566 41.4001 20.782 41.7054 21.1459Z" fill="url(#paint2_linear_7579_94243)" stroke="#FFE381"/>
<path fill-rule="evenodd" clip-rule="evenodd" d="M33.2915 19.7775C32.9275 22.1124 33.5921 24.4672 34.7942 27.035C35.0833 27.6525 34.8171 28.3873 34.1996 28.6764C33.5822 28.9654 32.8473 28.6992 32.5583 28.0818C31.2801 25.3514 30.3756 22.4539 30.8521 19.3973C31.3333 16.3103 33.1827 13.2959 36.9143 10.2439C37.442 9.81232 38.2197 9.89024 38.6513 10.418C39.0829 10.9457 39.005 11.7234 38.4773 12.155C35.0512 14.9571 33.6507 17.4731 33.2915 19.7775Z" fill="#FF7878"/>
<path fill-rule="evenodd" clip-rule="evenodd" d="M15.665 39.9494C14.7371 40.0953 13.8069 39.8083 12.9506 39.2183C12.1744 38.6836 11.6271 37.972 11.4308 37.104C11.2379 36.2511 11.4215 35.4145 11.7801 34.6835C12.3952 33.4296 13.6178 32.2795 15.0904 31.3621C14.759 30.9758 14.3597 30.6245 13.8866 30.3261C12.4896 29.4449 10.2949 28.9289 6.98043 29.5486C6.31029 29.6739 5.66547 29.2322 5.54018 28.5621C5.4149 27.8919 5.85659 27.2471 6.52673 27.1218C10.2759 26.4209 13.1453 26.9396 15.2037 28.238C16.0837 28.793 16.7872 29.4731 17.3331 30.2194C20.7216 28.8263 25.1508 28.3452 29.0014 30.2967C29.6095 30.6049 29.8526 31.3477 29.5444 31.9558C29.2362 32.5639 28.4934 32.8071 27.8853 32.4989C24.9101 30.9911 21.3316 31.2913 18.4617 32.4248C18.5715 32.759 18.658 33.0952 18.7225 33.4293C19.0825 35.2956 18.7824 37.2711 17.8142 38.5808C17.3144 39.2569 16.5926 39.8036 15.665 39.9494ZM16.2244 33.5663C16.2525 33.6764 16.2771 33.7867 16.2983 33.897C16.5669 35.2892 16.2775 36.5064 15.829 37.1131C15.6205 37.3952 15.4271 37.4876 15.2815 37.5105C15.1362 37.5334 14.8352 37.5187 14.3512 37.1853C13.9767 36.9272 13.8716 36.7042 13.8388 36.5593C13.8026 36.3993 13.813 36.1451 13.9966 35.7708C14.3219 35.1077 15.08 34.3085 16.2244 33.5663Z" fill="#287EFF"/>
<path d="M30.1768 4.82295C30.1768 4.36845 30.5452 4 30.9997 4H32.6456C33.1001 4 33.4685 4.36845 33.4685 4.82295V6.46884C33.4685 6.92334 33.1001 7.29179 32.6456 7.29179H30.9997C30.5452 7.29179 30.1768 6.92334 30.1768 6.46884V4.82295Z" fill="#AAF398"/>
<path d="M42.52 14.6979C42.52 14.2434 42.8885 13.875 43.343 13.875H44.9889C45.4434 13.875 45.8118 14.2434 45.8118 14.6979V16.3438C45.8118 16.7983 45.4434 17.1668 44.9889 17.1668H43.343C42.8885 17.1668 42.52 16.7983 42.52 16.3438V14.6979Z" fill="#6FA8FF"/>
<path d="M7.95605 17.989C7.95605 17.5345 8.3245 17.166 8.779 17.166H10.4249C10.8794 17.166 11.2478 17.5345 11.2478 17.989V19.6349C11.2478 20.0894 10.8794 20.4578 10.4249 20.4578H8.779C8.3245 20.4578 7.95605 20.0894 7.95605 19.6349V17.989Z" fill="#FF9D9D"/>
<circle cx="21" cy="19" r="6" fill="#FFEBA3"/>
<circle cx="21.0006" cy="18.9996" r="5.025" fill="url(#paint3_linear_7579_94243)"/>
<path d="M19.5747 21.1426V16.9004H21.2388C22.2026 16.9004 22.7563 17.4951 22.7563 18.3301C22.7563 19.1768 22.1938 19.7598 21.2153 19.7598H20.4536V21.1426H19.5747ZM20.4536 19.0508H21.0747C21.5962 19.0508 21.8511 18.7578 21.8481 18.3301C21.8511 17.9082 21.5962 17.624 21.0747 17.6211H20.4536V19.0508Z" fill="white"/>
<defs>
<linearGradient id="paint0_linear_7579_94243" x1="22.4147" y1="31.954" x2="56.9249" y2="48.1162" gradientUnits="userSpaceOnUse">
<stop stop-color="#FFDA55"/>
<stop stop-color="#FFDA55"/>
<stop offset="0.0001" stop-color="#FFDD65"/>
<stop offset="0.89618" stop-color="#F4C418"/>
</linearGradient>
<linearGradient id="paint1_linear_7579_94243" x1="24.3998" y1="35.6" x2="58.1548" y2="40.9873" gradientUnits="userSpaceOnUse">
<stop stop-color="#FFE924"/>
<stop offset="0.747259" stop-color="#FFCC15"/>
<stop offset="1" stop-color="#ECC640"/>
</linearGradient>
<linearGradient id="paint2_linear_7579_94243" x1="43.3165" y1="10.1255" x2="23.1596" y2="16.6321" gradientUnits="userSpaceOnUse">
<stop stop-color="#FFE924"/>
<stop offset="0.76718" stop-color="#FFCC15"/>
<stop offset="0.958132" stop-color="#ECC640"/>
</linearGradient>
<linearGradient id="paint3_linear_7579_94243" x1="21.0006" y1="13.9746" x2="21.0006" y2="24.0246" gradientUnits="userSpaceOnUse">
<stop stop-color="#FFDA55"/>
<stop offset="0.0001" stop-color="#FFDA55"/>
<stop offset="1" stop-color="#FFDD65"/>
</linearGradient>
</defs>
</svg>
