<svg width="72" height="72" viewBox="0 0 72 72" fill="none" xmlns="http://www.w3.org/2000/svg">
<circle cx="36" cy="36" r="36" fill="#DEDEDE"/>
<path d="M57.6031 26.4016C57.6031 25.456 57.4169 24.5198 57.0551 23.6462C56.6932 22.7727 56.1629 21.979 55.4943 21.3104C54.8257 20.6418 54.032 20.1115 53.1584 19.7496C52.2849 19.3878 51.3486 19.2016 50.4031 19.2016C49.4576 19.2016 48.5213 19.3878 47.6478 19.7496C46.7743 20.1115 45.9805 20.6418 45.312 21.3104C44.6434 21.979 44.113 22.7727 43.7512 23.6462C43.3894 24.5198 43.2031 25.456 43.2031 26.4016" stroke="#686868" stroke-width="3.375" stroke-linecap="round"/>
<path d="M46.125 38.25C46.125 39.7274 45.8631 41.1903 45.3543 42.5552C44.8455 43.9201 44.0996 45.1603 43.1595 46.205C42.2193 47.2496 41.1031 48.0783 39.8747 48.6436C38.6462 49.209 37.3296 49.5 36 49.5C34.6704 49.5 33.3538 49.209 32.1253 48.6436C30.8969 48.0783 29.7807 47.2496 28.8405 46.205C27.9004 45.1603 27.1545 43.9201 26.6457 42.5552C26.1369 41.1903 25.875 39.7274 25.875 38.25" stroke="#686868" stroke-width="3.375" stroke-linecap="round"/>
<path d="M28.7984 26.4016C28.7984 24.492 28.0399 22.6607 26.6896 21.3104C25.3393 19.9601 23.508 19.2016 21.5984 19.2016C19.6889 19.2016 17.8575 19.9601 16.5073 21.3104C15.157 22.6607 14.3984 24.492 14.3984 26.4016" stroke="#686868" stroke-width="3.375" stroke-linecap="round"/>
<path d="M20.25 5.70968C20.25 10.7419 13.32 15.9677 10.98 17.7097C10.44 18.0968 9.81 18.0968 9.36 17.7097C6.84 16.0645 0 10.7419 0 5.70968C0 2.51613 2.34 0 5.31 0C7.47 0 9.27 1.35484 10.17 3.29032C10.98 1.35484 12.87 0 15.03 0C17.82 0 20.25 2.6129 20.25 5.70968Z" fill="#B0B0B0"/>
<path d="M72 49.1734C72 54.8347 64.3 60.7137 61.7 62.6734C61.1 63.1089 60.4 63.1089 59.9 62.6734C57.1 60.8226 49.5 54.8347 49.5 49.1734C49.5 45.5806 52.1 42.75 55.4 42.75C57.8 42.75 59.8 44.2742 60.8 46.4516C61.7 44.2742 63.8 42.75 66.2 42.75C69.3 42.75 72 45.6895 72 49.1734Z" fill="#B0B0B0"/>
<path d="M19.6875 56.0323C19.6875 59.8065 14.49 63.7258 12.735 65.0323C12.33 65.3226 11.8575 65.3226 11.52 65.0323C9.63 63.7984 4.5 59.8065 4.5 56.0323C4.5 53.6371 6.255 51.75 8.4825 51.75C10.1025 51.75 11.4525 52.7661 12.1275 54.2177C12.735 52.7661 14.1525 51.75 15.7725 51.75C17.865 51.75 19.6875 53.7097 19.6875 56.0323Z" fill="#B0B0B0"/>
</svg>
