<svg width="56" height="56" viewBox="0 0 56 56" fill="none" xmlns="http://www.w3.org/2000/svg">
<g id="icon48">
<g id="&#237;&#131;&#129;&#234;&#181;&#172;">
<g id="Union">
<path fill-rule="evenodd" clip-rule="evenodd" d="M20.2535 39.462C26.6499 43.1872 35.5288 41.8446 41.6295 35.7438C48.7471 28.6263 49.3882 17.7276 43.0615 11.4008C36.7348 5.07413 25.836 5.71523 18.7185 12.8328C12.5866 18.9647 11.2616 27.9029 15.0576 34.3064L9.14514 38.7168C8.00501 39.5673 7.88458 41.2313 8.89036 42.237L12.254 45.6007C13.2533 46.6 14.9045 46.4886 15.7605 45.3641L20.2535 39.462Z" fill="white"/>
<path d="M20.2535 39.462L20.7819 38.5547L19.9801 38.0877L19.418 38.826L20.2535 39.462ZM15.0576 34.3064L15.6854 35.1481L16.4424 34.5834L15.9609 33.771L15.0576 34.3064ZM9.14514 38.7168L8.51732 37.8752L9.14514 38.7168ZM8.89036 42.237L8.1479 42.9795L8.89036 42.237ZM12.254 45.6007L12.9965 44.8583L12.254 45.6007ZM15.7605 45.3641L14.9251 44.7281L15.7605 45.3641ZM40.8871 35.0014C35.0764 40.8121 26.7117 42.0081 20.7819 38.5547L19.7251 40.3694C26.5882 44.3663 35.9811 42.8772 42.372 36.4863L40.8871 35.0014ZM42.319 12.1433C48.1559 17.9802 47.6792 28.2093 40.8871 35.0014L42.372 36.4863C49.815 29.0433 50.6205 17.4749 43.8039 10.6584L42.319 12.1433ZM19.4609 13.5753C26.2531 6.78312 36.4822 6.30644 42.319 12.1433L43.8039 10.6584C36.9874 3.84182 25.419 4.64735 17.976 12.0903L19.4609 13.5753ZM15.9609 33.771C12.4424 27.8358 13.6204 19.4158 19.4609 13.5753L17.976 12.0903C11.5529 18.5135 10.0808 27.9701 14.1544 34.8419L15.9609 33.771ZM9.77295 39.5585L15.6854 35.1481L14.4298 33.4648L8.51732 37.8752L9.77295 39.5585ZM9.63282 41.4946C9.07964 40.9414 9.14588 40.0262 9.77295 39.5585L8.51732 37.8752C6.86414 39.1084 6.68951 41.5211 8.1479 42.9795L9.63282 41.4946ZM12.9965 44.8583L9.63282 41.4946L8.1479 42.9795L11.5116 46.3432L12.9965 44.8583ZM14.9251 44.7281C14.4543 45.3466 13.5461 45.4079 12.9965 44.8583L11.5116 46.3432C12.9606 47.7922 15.3548 47.6306 16.596 46.0001L14.9251 44.7281ZM19.418 38.826L14.9251 44.7281L16.596 46.0001L21.0889 40.098L19.418 38.826Z" fill="#3F86F1"/>
</g>
<path id="Vector 2717" d="M14.6733 19.3594L36.6377 41.3202" stroke="#3F86F1" stroke-width="2.1" stroke-linecap="round"/>
<circle id="Ellipse 5444" cx="40.8339" cy="38.4987" r="8.16667" fill="white" stroke="#3F86F1" stroke-width="2.1"/>
</g>
</g>
</svg>
