<svg width="40" height="40" viewBox="0 0 40 40" fill="none" xmlns="http://www.w3.org/2000/svg">
<rect width="40" height="40" rx="8" fill="#F8F8F8"/>
<path d="M8.46021 26.5117C8.46021 25.4071 9.35564 24.5117 10.4602 24.5117H16.1532V32.2047H8.46021V26.5117Z" fill="#AE9679"/>
<path d="M16.1531 22.6641C16.1531 21.5595 17.0485 20.6641 18.1531 20.6641H23.8461V32.2035H16.1531V22.6641Z" fill="#E1C081"/>
<path d="M23.8462 18.8184C23.8462 17.7138 24.7416 16.8184 25.8462 16.8184H29.5392C30.6437 16.8184 31.5392 17.7138 31.5392 18.8184V32.2043H23.8462V18.8184Z" fill="#FFCF53"/>
<path fill-rule="evenodd" clip-rule="evenodd" d="M29.8348 7.9963C30.2092 8.37302 30.2072 8.98188 29.8305 9.35623L23.6914 15.4567C23.3146 15.831 22.7058 15.8291 22.3314 15.4524L19.6207 12.7245L11.4473 20.8561C11.0708 21.2307 10.4619 21.2291 10.0873 20.8526C9.71277 20.4761 9.71433 19.8672 10.0908 19.4927L18.9464 10.6824C19.1272 10.5025 19.3722 10.4018 19.6273 10.4025C19.8825 10.4032 20.1269 10.5053 20.3067 10.6863L23.0178 13.4146L28.4749 7.99199C28.8516 7.61765 29.4605 7.61957 29.8348 7.9963Z" fill="#FFCF53"/>
<path fill-rule="evenodd" clip-rule="evenodd" d="M30.5375 7.31467C30.7173 7.49595 30.8177 7.74133 30.8165 7.99669L30.7964 12.0771C30.7938 12.6082 30.3612 13.0366 29.8301 13.034C29.299 13.0314 28.8706 12.5988 28.8732 12.0677L28.8885 8.95077L25.7654 8.94163C25.2343 8.94007 24.8051 8.50828 24.8066 7.97719C24.8082 7.44611 25.24 7.01683 25.7711 7.01839L29.8577 7.03036C30.113 7.0311 30.3576 7.13339 30.5375 7.31467Z" fill="#FFCF53"/>
</svg>
