<svg width="32" height="32" viewBox="0 0 32 32" fill="none" xmlns="http://www.w3.org/2000/svg">
<g clip-path="url(#clip0_5438_32310)">
<circle cx="16" cy="16" r="16" fill="#AD78BF"/>
<path d="M8.01098 17.9004C9.02218 17.6295 9.78968 16.9033 10.1525 16.0015" stroke="#26282C" stroke-width="1.28" stroke-linecap="round"/>
<path d="M23.9109 17.9004C22.8997 17.6295 22.1322 16.9033 21.7694 16.0015" stroke="#26282C" stroke-width="1.28" stroke-linecap="round"/>
<path d="M18.4079 26.0439C17.7827 24.7391 16.218 24.1881 14.9131 24.8134C14.3552 25.0807 13.9351 25.5199 13.6858 26.037" stroke="#26282C" stroke-width="1.28" stroke-linecap="round"/>
<ellipse cx="10.4188" cy="20.9398" rx="0.96" ry="1.92" transform="rotate(60 10.4188 20.9398)" fill="#26282C" stroke="#26282C" stroke-width="1.28"/>
<ellipse cx="21.6193" cy="20.9411" rx="0.96" ry="1.92" transform="rotate(-60 21.6193 20.9411)" fill="#26282C" stroke="#26282C" stroke-width="1.28"/>
<path d="M20.1641 3.20312L20.1641 12.8031" stroke="#26282C" stroke-width="1.28" stroke-linecap="round"/>
<path d="M17.6016 4.16406L17.6016 8.00406" stroke="#26282C" stroke-width="1.28" stroke-linecap="round"/>
<path d="M22.7188 5.125L22.7187 12.165" stroke="#26282C" stroke-width="1.28" stroke-linecap="round"/>
<path d="M25.2812 8.32812L25.2813 11.8481" stroke="#26282C" stroke-width="1.28" stroke-linecap="round"/>
<path d="M27.8438 11.5234L27.8438 14.7234" stroke="#26282C" stroke-width="1.28" stroke-linecap="round"/>
</g>
<defs>
<clipPath id="clip0_5438_32310">
<rect width="32" height="32" fill="white"/>
</clipPath>
</defs>
</svg>
