<svg width="56" height="56" viewBox="0 0 56 56" fill="none" xmlns="http://www.w3.org/2000/svg">
<path d="M27.1033 5.81699C27.4701 5.07374 28.5299 5.07374 28.8967 5.81699L34.8208 17.8204C34.9664 18.1155 35.248 18.3201 35.5737 18.3674L48.8202 20.2922C49.6404 20.4114 49.9679 21.4194 49.3744 21.9979L39.7891 31.3412C39.5535 31.571 39.4459 31.902 39.5015 32.2264L41.7643 45.4193C41.9044 46.2363 41.047 46.8592 40.3134 46.4735L28.4653 40.2446C28.174 40.0915 27.826 40.0915 27.5347 40.2446L15.6866 46.4735C14.953 46.8592 14.0956 46.2363 14.2357 45.4193L16.4985 32.2264C16.5541 31.902 16.4465 31.571 16.2109 31.3412L6.6256 21.9979C6.03208 21.4194 6.35959 20.4114 7.17981 20.2922L20.4263 18.3674C20.752 18.3201 21.0336 18.1155 21.1792 17.8204L27.1033 5.81699Z" fill="#FFCC00"/>
<path d="M27.1033 5.81699C27.4701 5.07374 28.5299 5.07374 28.8967 5.81699L34.8208 17.8204C34.9664 18.1155 35.248 18.3201 35.5737 18.3674L48.8202 20.2922C49.6404 20.4114 49.9679 21.4194 49.3744 21.9979L39.7891 31.3412C39.5535 31.571 39.4459 31.902 39.5015 32.2264L41.7643 45.4193C41.9044 46.2363 41.047 46.8592 40.3134 46.4735L28.4653 40.2446C28.174 40.0915 27.826 40.0915 27.5347 40.2446L15.6866 46.4735C14.953 46.8592 14.0956 46.2363 14.2357 45.4193L16.4985 32.2264C16.5541 31.902 16.4465 31.571 16.2109 31.3412L6.6256 21.9979C6.03208 21.4194 6.35959 20.4114 7.17981 20.2922L20.4263 18.3674C20.752 18.3201 21.0336 18.1155 21.1792 17.8204L27.1033 5.81699Z" fill="url(#paint0_linear_7117_5450)" fill-opacity="0.5"/>
<defs>
<linearGradient id="paint0_linear_7117_5450" x1="14.124" y1="4" x2="44.479" y2="53.2685" gradientUnits="userSpaceOnUse">
<stop stop-color="#FFE70F"/>
<stop offset="1" stop-color="#FF5A13" stop-opacity="0"/>
</linearGradient>
</defs>
</svg>
