<svg width="38" height="46" viewBox="0 0 38 46" fill="none" xmlns="http://www.w3.org/2000/svg">
<path d="M0.0825561 36.2902C0.232073 29.861 7.12232 28.5029 10.5488 28.6275C11.6078 28.8766 16.3425 29.2253 26.8087 28.6275C37.2749 28.0297 38.0225 39.3428 37.088 45.0741H0.0825561C0.0202573 44.825 -0.066961 42.7195 0.0825561 36.2902Z" fill="white"/>
<path d="M22.6976 29.1887L14.2872 29.5625L16.53 45.0749H20.2679L22.6976 29.1887Z" fill="#00B8E0"/>
<path d="M14.4355 29.5616C14.1436 27.518 14.0173 26.3722 13.7253 24.3285H22.6964L22.5095 29.5506C21.8865 30.1773 20.0051 31.4306 18.2109 31.4306C16.4166 31.4306 14.8716 30.1883 14.4355 29.5616Z" fill="#FDB69D"/>
<path d="M11.4834 26.9459H14.0999L15.9689 41.15L14.4737 39.6548H11.8572L11.2965 34.2349H7.37164L11.4834 26.9459Z" fill="#E1E7F7"/>
<path d="M25.3142 26.9459H22.6977L20.8661 41.15L22.3239 39.6548H24.9405L25.5011 34.2349H29.426L25.3142 26.9459Z" fill="#E1E7F7"/>
<path d="M31.6675 15.7328C32.5646 13.9386 31.0446 12.9916 30.1724 12.7424L28.3034 17.041C29.051 17.3525 30.7704 17.527 31.6675 15.7328Z" fill="#FDB69D"/>
<path d="M5.4388 15.5992C4.42489 13.6604 6.1429 12.6371 7.12865 12.3678L9.24097 17.0129C8.39604 17.3495 6.45271 17.538 5.4388 15.5992Z" fill="#FDB69D"/>
<path d="M8.86755 15.3565C8.86755 14.1604 9.86433 11.1202 10.3627 9.74963C16.3434 8.55349 23.8193 10.1234 26.8096 11.0579C27.0588 11.8678 27.632 13.6745 27.931 14.422C28.3048 15.3565 28.8655 18.7207 26.6227 22.2717C24.38 25.8227 18.0255 27.131 13.54 24.8882C9.05445 22.6455 8.86755 16.8517 8.86755 15.3565Z" fill="#FFE0C7"/>
<path d="M10.1747 9.75148L8.86638 16.6666C8.74178 16.6666 8.15617 15.62 6.81052 11.4335C5.12845 6.20045 11.4829 -0.527824 19.5195 0.0328655C27.556 0.593555 30.7333 6.76114 30.5464 10.3122C30.3968 13.153 28.9889 15.9814 28.3036 17.0404L26.9953 11.2466C26.9953 11.2466 14.411 10.3122 10.1747 9.75148Z" fill="#484848"/>
</svg>
