<svg width="40" height="40" viewBox="0 0 40 40" fill="none" xmlns="http://www.w3.org/2000/svg">
<rect width="40" height="40" rx="8" fill="#F8F8F8"/>
<path d="M32 20C32 26.6274 26.6274 32 20 32C13.3726 32 8 26.6274 8 20C8 13.3726 13.3726 8 20 8C26.6274 8 32 13.3726 32 20Z" fill="#C1E1FF"/>
<path d="M28.0002 20C28.0002 24.4183 24.4185 28 20.0002 28C15.582 28 12.0002 24.4183 12.0002 20C12.0002 15.5817 15.582 12 20.0002 12C24.4185 12 28.0002 15.5817 28.0002 20Z" fill="#FEFFF7"/>
<path d="M23.9998 20C23.9998 22.2091 22.2089 24 19.9998 24C17.7906 24 15.9998 22.2091 15.9998 20C15.9998 17.7909 17.7906 16 19.9998 16C22.2089 16 23.9998 17.7909 23.9998 20Z" fill="#4EA4F3"/>
<path fill-rule="evenodd" clip-rule="evenodd" d="M19.4338 19.4375L25.4338 13.4375L26.5651 14.5689L20.5651 20.5689C20.2527 20.8813 19.7462 20.8813 19.4338 20.5689C19.1214 20.2565 19.1214 19.7499 19.4338 19.4375Z" fill="black"/>
<path d="M24.1172 11.8844L27.3172 8.68437C27.5691 8.43238 28 8.61085 28 8.96721V11.6015C28 11.8224 28.1791 12.0015 28.4 12.0015H31.0343C31.3907 12.0015 31.5691 12.4324 31.3172 12.6844L28.1172 15.8844C28.0421 15.9594 27.9404 16.0015 27.8343 16.0015H24.4C24.1791 16.0015 24 15.8224 24 15.6015V12.1672C24 12.0611 24.0421 11.9594 24.1172 11.8844Z" fill="#43668F"/>
</svg>
