<svg width="65" height="64" viewBox="0 0 65 64" fill="none" xmlns="http://www.w3.org/2000/svg">
<path fill-rule="evenodd" clip-rule="evenodd" d="M31 2C29.8954 2 29 2.89543 29 4V9C29 10.1046 29.8954 11 31 11H34C35.1046 11 36 10.1046 36 9V4C36 2.89543 35.1046 2 34 2H31ZM31 4C30.4477 4 30 4.44772 30 5C30 5.55228 30.4477 6 31 6H34C34.5523 6 35 5.55228 35 5C35 4.44772 34.5523 4 34 4H31Z" fill="#D9D9D9"/>
<path d="M16.5 55C16.5 54.4477 16.9477 54 17.5 54H47.5C48.0523 54 48.5 54.4477 48.5 55V55.4849C48.5 56.3809 47.8693 57.126 47.1278 57.629C45.7627 58.5551 45.2511 60.0319 45.0594 61.0087C44.953 61.5506 44.4967 62 43.9444 62H20.9263C20.4271 62 20.0008 61.6327 19.8667 61.152C19.5611 60.057 18.8165 58.1857 17.161 57.2869C16.7827 57.0815 16.5 56.7097 16.5 56.2792V55Z" fill="url(#paint0_linear_1482_69012)"/>
<mask id="mask0_1482_69012" style="mask-type:alpha" maskUnits="userSpaceOnUse" x="16" y="10" width="33" height="48">
<path fill-rule="evenodd" clip-rule="evenodd" d="M48.5 16.5848V18V56C48.5 57.1046 47.6046 58 46.5 58H18.5C17.3954 58 16.5 57.1046 16.5 56V18V16.5803V15C16.5 13.8954 17.3954 13 18.5 13H19.2752C19.64 12.2447 19.8344 11.5237 19.9379 10.9779C20.0398 10.4406 20.4949 10 21.0418 10H43.9444C44.4967 10 44.9548 10.4495 45.0537 10.9929C45.1527 11.5369 45.3413 12.2516 45.7009 13H46.5C47.6046 13 48.5 13.8954 48.5 15V16.5848Z" fill="url(#paint1_linear_1482_69012)"/>
</mask>
<g mask="url(#mask0_1482_69012)">
<path fill-rule="evenodd" clip-rule="evenodd" d="M48.5 16.5848V17V18V60C48.5 60.5523 48.0523 61 47.5 61H17.5C16.9477 61 16.5 60.5523 16.5 60V18V17V16.5803C16.5 16.2215 16.6968 15.8943 16.9924 15.6907C19.0211 14.2936 19.7066 12.198 19.9379 10.9779C20.0398 10.4406 20.4949 10 21.0418 10H43.9444C44.4967 10 44.9548 10.4495 45.0537 10.9929C45.2761 12.2154 45.9514 14.3003 48.0016 15.6917C48.3005 15.8945 48.5 16.2236 48.5 16.5848Z" fill="url(#paint2_linear_1482_69012)"/>
<path d="M16.5 28L48.5 42V61H16.5V28Z" fill="url(#paint3_linear_1482_69012)"/>
<rect x="17.5" y="10" width="30" height="3" rx="1" fill="#DEDDDC"/>
</g>
<rect x="17.5" y="8" width="30" height="3" rx="1" fill="url(#paint4_linear_1482_69012)"/>
<g filter="url(#filter0_i_1482_69012)">
<path d="M20.7834 28.4297H23.8107C24.3381 28.4297 24.7857 28.5029 25.1535 28.6494C25.5214 28.7926 25.798 28.9977 25.9836 29.2646C26.1724 29.5316 26.2684 29.8457 26.2717 30.207C26.2717 30.4642 26.2147 30.7002 26.1008 30.915C25.9868 31.1266 25.8273 31.3057 25.6223 31.4521C25.4172 31.5954 25.1812 31.6947 24.9143 31.75V31.8184C25.2137 31.8281 25.4872 31.9046 25.7346 32.0479C25.9852 32.1878 26.1822 32.3848 26.3254 32.6387C26.4719 32.8893 26.5451 33.179 26.5451 33.5078C26.5451 33.8919 26.4442 34.2354 26.2424 34.5381C26.0438 34.8376 25.7574 35.0736 25.383 35.2461C25.0087 35.4154 24.5692 35.5 24.0646 35.5H20.7834V28.4297ZM23.5861 34.0059C23.9182 34.0091 24.1672 33.9489 24.3332 33.8252C24.4992 33.6982 24.5822 33.5143 24.5822 33.2734C24.5822 33.0195 24.496 32.821 24.3234 32.6777C24.1509 32.5345 23.9149 32.4629 23.6154 32.4629H22.6389V34.0059H23.5861ZM23.4689 31.3008C23.7359 31.3008 23.9507 31.2389 24.1135 31.1152C24.2762 30.9915 24.3576 30.819 24.3576 30.5977C24.3576 30.3763 24.2779 30.2038 24.1184 30.0801C23.9621 29.9564 23.7554 29.8945 23.4982 29.8945H22.6389V31.3008H23.4689ZM27.058 28.4297H32.1068V29.9336H28.9135V31.2129H31.8432V32.7168H28.9135V33.9961H32.0971V35.5H27.058V28.4297ZM32.8834 28.4297H37.9322V29.9336H34.7389V31.2129H37.6686V32.7168H34.7389V33.9961H37.9225V35.5H32.8834V28.4297ZM38.7088 28.4297H41.7166C42.2407 28.4297 42.6997 28.5257 43.0936 28.7178C43.4907 28.9098 43.7967 29.1865 44.0115 29.5479C44.2264 29.9059 44.3338 30.3307 44.3338 30.8223C44.3338 31.304 44.228 31.7174 44.0164 32.0625C43.8081 32.4043 43.5102 32.6663 43.1229 32.8486L44.5682 35.5H42.5467L41.2918 33.1465H40.5643V35.5H38.7088V28.4297ZM41.2869 31.6914C42.0258 31.6914 42.3937 31.4017 42.3904 30.8223C42.3937 30.5163 42.2993 30.29 42.1072 30.1436C41.9184 29.9938 41.645 29.9173 41.2869 29.9141H40.5643V31.6914H41.2869Z" fill="#424038"/>
</g>
<defs>
<filter id="filter0_i_1482_69012" x="20.7832" y="28.4297" width="23.7852" height="7.07031" filterUnits="userSpaceOnUse" color-interpolation-filters="sRGB">
<feFlood flood-opacity="0" result="BackgroundImageFix"/>
<feBlend mode="normal" in="SourceGraphic" in2="BackgroundImageFix" result="shape"/>
<feColorMatrix in="SourceAlpha" type="matrix" values="0 0 0 0 0 0 0 0 0 0 0 0 0 0 0 0 0 0 127 0" result="hardAlpha"/>
<feOffset/>
<feGaussianBlur stdDeviation="0.5"/>
<feComposite in2="hardAlpha" operator="arithmetic" k2="-1" k3="1"/>
<feColorMatrix type="matrix" values="0 0 0 0 0 0 0 0 0 0 0 0 0 0 0 0 0 0 0.25 0"/>
<feBlend mode="normal" in2="shape" result="effect1_innerShadow_1482_69012"/>
</filter>
<linearGradient id="paint0_linear_1482_69012" x1="32.5" y1="56.5" x2="32.5" y2="62" gradientUnits="userSpaceOnUse">
<stop stop-color="#EFEFEF"/>
<stop offset="1" stop-color="#AFAFAF"/>
</linearGradient>
<linearGradient id="paint1_linear_1482_69012" x1="32.5" y1="11.0408" x2="32.5" y2="61" gradientUnits="userSpaceOnUse">
<stop stop-color="#F2F2F2"/>
<stop offset="1" stop-color="#E0E0E0"/>
</linearGradient>
<linearGradient id="paint2_linear_1482_69012" x1="16.5" y1="23" x2="48.5" y2="23.5" gradientUnits="userSpaceOnUse">
<stop stop-color="#F7F4F1"/>
<stop offset="1" stop-color="#D6D3CD"/>
</linearGradient>
<linearGradient id="paint3_linear_1482_69012" x1="16.5" y1="44.5" x2="48.5" y2="44.5" gradientUnits="userSpaceOnUse">
<stop stop-color="#FFC147"/>
<stop offset="1" stop-color="#E18921"/>
</linearGradient>
<linearGradient id="paint4_linear_1482_69012" x1="32.5" y1="8" x2="32.5" y2="11" gradientUnits="userSpaceOnUse">
<stop stop-color="#DEDDDC"/>
<stop offset="1" stop-color="#B9B7B6"/>
</linearGradient>
</defs>
</svg>
