<svg width="20" height="20" viewBox="0 0 20 20" fill="none" xmlns="http://www.w3.org/2000/svg">
<path d="M5.92934 17.5844C5.46154 17.6953 5.0194 17.3313 5.03907 16.8515L5.24769 11.7611C5.26337 11.3785 5.57278 11.0716 5.95544 11.059L6.95477 11.0262C7.35259 11.0132 7.68499 11.3221 7.7008 11.7197L7.89148 16.5114C7.90538 16.8607 7.66872 17.1721 7.32798 17.2529L5.92934 17.5844Z" fill="#FFAA31"/>
<path d="M2 9.32837C2 7.10184 3.80496 5.29688 6.0315 5.29688H12.185V13.3599H6.0315C3.80496 13.3599 2 11.5549 2 9.32837Z" fill="#FFDD36"/>
<path d="M12.1855 5.3179C12.1855 5.3179 13.4531 4.08359 14.368 3.51744C15.1778 3.01641 16.5505 2.41016 16.5505 2.41016V16.2512C16.5505 16.2512 15.1778 15.645 14.368 15.144C13.4531 14.5778 12.1855 13.3528 12.1855 13.3528V5.3179Z" fill="#FFDD36"/>
<mask id="mask0_993_62776" style="mask-type:alpha" maskUnits="userSpaceOnUse" x="2" y="5" width="11" height="9">
<path d="M2 9.33228C2 7.10574 3.80496 5.30078 6.0315 5.30078H12.185V13.3638H6.0315C3.80496 13.3638 2 11.5588 2 9.33228Z" fill="#FF6868"/>
</mask>
<g mask="url(#mask0_993_62776)">
<rect x="4.91016" y="3.25391" width="2.90999" height="11.728" fill="#FFAA31"/>
</g>
<path d="M16.9135 16.6602C16.3108 16.6602 15.8223 16.1716 15.8223 15.5689L15.8223 3.09142C15.8223 2.48874 16.3108 2.00017 16.9135 2.00017C17.5162 2.00017 18.0048 2.48874 18.0048 3.09142L18.0048 15.5689C18.0048 16.1716 17.5162 16.6602 16.9135 16.6602Z" fill="#FFAA31"/>
</svg>
