<svg width="20" height="20" viewBox="0 0 20 20" fill="none" xmlns="http://www.w3.org/2000/svg">
<g id="Icon Button / Basic 20/16">
<g id="ic">
<path id="Vector 511" d="M15.25 3.25V7.25H11.25" stroke="#0066FF" stroke-width="1.5" stroke-linecap="round"/>
<path id="Ellipse 1133" d="M16.9161 11.2595C16.9558 10.8471 16.6537 10.4808 16.2414 10.4411C15.8291 10.4015 15.4627 10.7036 15.423 11.1159L16.9161 11.2595ZM10.0142 16.0225C7.013 16.0225 4.58008 13.5895 4.58008 10.5884H3.08008C3.08008 14.418 6.18457 17.5225 10.0142 17.5225V16.0225ZM4.58008 10.5884C4.58008 7.58722 7.013 5.1543 10.0142 5.1543V3.6543C6.18457 3.6543 3.08008 6.75879 3.08008 10.5884H4.58008ZM10.0142 5.1543C11.8167 5.1543 13.4143 6.03114 14.404 7.3848L15.6149 6.49945C14.3548 4.77611 12.3154 3.6543 10.0142 3.6543V5.1543ZM15.423 11.1159C15.1583 13.8691 12.8372 16.0225 10.0142 16.0225V17.5225C13.6175 17.5225 16.5781 14.7745 16.9161 11.2595L15.423 11.1159Z" fill="#0066FF"/>
</g>
</g>
</svg>
