<svg width="64" height="64" viewBox="0 0 64 64" fill="none" xmlns="http://www.w3.org/2000/svg">
<g id="icon/64/&#236;&#150;&#145;&#236;&#163;&#188;">
<g id="&#236;&#150;&#145;&#236;&#163;&#188;">
<path id="Vector 1501" d="M24.2289 24.5833C21.7318 27.3828 22.0092 29.8333 22.0092 31H41.9909C41.9909 29.8333 42.2679 27.3834 39.7702 24.5833C37.55 22.0944 35.8854 21.6667 35.8853 20.5C35.8853 19.3333 36.4404 14.6667 35.3303 10H28.6697C27.5596 14.6667 28.1147 19.3333 28.1147 20.5C28.1147 21.6667 26.449 22.0944 24.2289 24.5833Z" fill="url(#paint0_linear_5333_160780)"/>
<path id="Rectangle 34624710" d="M28.1094 5C28.1094 4.44772 28.5571 4 29.1094 4H34.88C35.4323 4 35.88 4.44772 35.88 5V9.72C35.88 10.2723 35.4323 10.72 34.88 10.72H29.1094C28.5571 10.72 28.1094 10.2723 28.1094 9.72V5Z" fill="url(#paint1_linear_5333_160780)"/>
<rect id="Rectangle 34624711" x="22.0078" y="30.8828" width="19.9817" height="24.64" fill="url(#paint2_linear_5333_160780)"/>
<path id="Rectangle 34624713" d="M22.0078 55.5234H41.9895V59.0034C41.9895 59.5557 41.5418 60.0034 40.9895 60.0034H23.0078C22.4555 60.0034 22.0078 59.5557 22.0078 59.0034V55.5234Z" fill="url(#paint3_linear_5333_160780)"/>
<path id="Union" fill-rule="evenodd" clip-rule="evenodd" d="M31.988 36.4822C35.0534 36.4822 37.5384 35.9807 37.5384 35.3622C37.5384 34.7436 35.0534 34.2422 31.988 34.2422C28.9225 34.2422 26.4375 34.7436 26.4375 35.3622C26.4375 35.9807 28.9225 36.4822 31.988 36.4822ZM37.5384 43.2038C37.5384 45.0594 35.0534 46.5638 31.988 46.5638C28.9225 46.5638 26.4375 45.0594 26.4375 43.2038C26.4375 41.3481 28.9225 39.8438 31.988 39.8438C35.0534 39.8438 37.5384 41.3481 37.5384 43.2038ZM37.5384 51.0419C37.5384 51.6604 35.0534 52.1619 31.988 52.1619C28.9225 52.1619 26.4375 51.6604 26.4375 51.0419C26.4375 50.4233 28.9225 49.9219 31.988 49.9219C35.0534 49.9219 37.5384 50.4233 37.5384 51.0419Z" fill="url(#paint4_linear_5333_160780)"/>
</g>
</g>
<defs>
<linearGradient id="paint0_linear_5333_160780" x1="32" y1="10" x2="32" y2="31" gradientUnits="userSpaceOnUse">
<stop stop-color="#DC700D"/>
<stop offset="1" stop-color="#FBAF1B"/>
</linearGradient>
<linearGradient id="paint1_linear_5333_160780" x1="31.9947" y1="4" x2="31.9947" y2="10.72" gradientUnits="userSpaceOnUse">
<stop stop-color="#5B5D75"/>
<stop offset="1" stop-color="#37394F"/>
</linearGradient>
<linearGradient id="paint2_linear_5333_160780" x1="22" y1="41.502" x2="42" y2="41.502" gradientUnits="userSpaceOnUse">
<stop stop-color="#9698AC"/>
<stop offset="1" stop-color="#2F324A"/>
</linearGradient>
<linearGradient id="paint3_linear_5333_160780" x1="31.9987" y1="55.5234" x2="31.9987" y2="60.0034" gradientUnits="userSpaceOnUse">
<stop stop-color="#EEAA28"/>
<stop offset="1" stop-color="#99480E"/>
</linearGradient>
<linearGradient id="paint4_linear_5333_160780" x1="25.998" y1="36.002" x2="37.998" y2="36.002" gradientUnits="userSpaceOnUse">
<stop stop-color="#A7AABA"/>
<stop offset="1" stop-color="#595C82"/>
</linearGradient>
</defs>
</svg>
