<svg width="32" height="32" viewBox="0 0 32 32" fill="none" xmlns="http://www.w3.org/2000/svg">
<rect width="32" height="32" rx="16" fill="white"/>
<path fill-rule="evenodd" clip-rule="evenodd" d="M19.9308 8.1875C19.6749 8.1875 19.4261 8.21783 19.1878 8.2751C18.6096 7.09871 17.3996 6.28906 16.0005 6.28906C14.5897 6.28906 13.3712 7.11227 12.7989 8.3046C12.5265 8.2283 12.2393 8.1875 11.9425 8.1875C10.1923 8.1875 8.77344 9.60657 8.77344 11.3571C8.77344 11.7096 8.83099 12.0488 8.93722 12.3656C7.79889 12.8463 7 13.9732 7 15.2868C7 16.8768 8.17057 18.1933 9.6968 18.4214C9.92408 19.9487 11.2408 21.1204 12.8312 21.1204C14.2728 21.1204 15.4896 20.1576 15.8739 18.8398C15.9159 18.8413 15.9581 18.842 16.0005 18.842C16.0426 18.842 16.0846 18.8413 16.1264 18.8399C16.5106 20.1576 17.7274 21.1204 19.1691 21.1204C20.7594 21.1204 22.0761 19.9487 22.3034 18.4214C23.8296 18.1933 25.0002 16.8768 25.0002 15.2868C25.0002 13.9305 24.1484 12.7731 22.9507 12.3207C23.0476 12.0168 23.0998 11.693 23.0998 11.3571C23.0998 9.60657 21.681 8.1875 19.9308 8.1875Z" fill="#85D360"/>
<path d="M12.9588 26.6988H19.0434C19.2335 26.5087 19.1701 26.4452 18.8532 26.0015C18.5363 25.5578 17.7757 24.6702 17.5222 23.9729C17.2687 23.2756 17.2687 20.5498 17.3321 20.2328C17.3955 19.9158 18.9166 17.7605 19.1701 17.7605H20.0575C20.311 17.7605 20.4377 17.1266 20.6279 16.5561C20.818 15.9856 20.5645 15.9222 20.4377 15.9856C20.311 16.049 19.8039 16.5561 19.6138 16.5561H18.7265C18.4095 16.5561 18.0293 17.2534 17.649 17.7605C17.2687 18.2677 16.9518 18.0775 16.8884 17.9507C16.825 17.8239 16.5081 14.8445 16.5081 14.0204C16.5081 13.1963 17.0785 12.7526 16.8884 12.499C16.6983 12.2455 16.318 12.6892 16.0645 12.7526C15.8109 12.816 15.4306 12.4357 15.1137 12.2455C14.7968 12.0553 14.2264 11.8652 14.5433 12.3723C14.8602 12.8794 15.1771 13.5767 15.1771 14.6544C15.1771 15.732 15.0504 16.4293 14.7968 16.5561C14.594 16.6576 14.3743 16.5139 14.2898 16.4293C13.9518 16.1335 13.1109 15.5165 12.4517 15.4151C11.6278 15.2883 11.5644 15.6053 11.6912 15.7321C11.8179 15.8589 12.325 15.9856 13.1489 16.9365C13.9729 17.8874 14.7968 18.7749 14.7968 19.282C14.7968 19.7891 14.4799 23.4658 14.2898 24.0998C14.0996 24.7337 13.4658 25.4944 12.9588 26.0015C12.5532 26.4072 12.7898 26.6354 12.9588 26.6988Z" fill="#B1894D"/>
</svg>
