<svg width="60" height="60" viewBox="0 0 60 60" fill="none" xmlns="http://www.w3.org/2000/svg">
<rect width="60" height="60" fill="white"/>
<rect x="7" y="7" width="32" height="42" rx="4" fill="#7FA6C6"/>
<path d="M7 10.9963C7 8.14296 9.90189 6.20719 12.5364 7.30313L24.5364 12.2951C26.0281 12.9157 27 14.3727 27 15.9883V51.0037C27 53.857 24.0981 55.7928 21.4636 54.6969L9.46363 49.7049C7.97193 49.0843 7 47.6273 7 46.0117V10.9963Z" fill="#BEDAF0"/>
<path fill-rule="evenodd" clip-rule="evenodd" d="M47.1421 18.6865L55.0416 26.586C55.8227 27.367 55.8227 28.6333 55.0416 29.4144L47.1421 37.3139C45.8822 38.5738 43.7279 37.6815 43.7279 35.8997V30.0002H36C34.8954 30.0002 34 29.1048 34 28.0002C34 26.8956 34.8954 26.0002 36 26.0002H43.7279V20.1007C43.7279 18.3189 45.8822 17.4265 47.1421 18.6865Z" fill="#70848E"/>
</svg>
