<svg width="60" height="60" viewBox="0 0 60 60" fill="none" xmlns="http://www.w3.org/2000/svg">
<rect width="60" height="60" rx="8" fill="#F8F8F8"/>
<rect x="23.8125" y="14.1875" width="26.4538" height="30.4219" rx="3" fill="url(#paint0_linear_1066_75470)"/>
<rect x="27.7812" y="20.8047" width="18.5177" height="2.64538" rx="1.32269" fill="#E0E4E8"/>
<rect x="27.7812" y="27.4141" width="18.5177" height="2.64538" rx="1.32269" fill="#E0E4E8"/>
<rect x="27.7812" y="34.0312" width="18.5177" height="2.64538" rx="1.32269" fill="#E0E4E8"/>
<rect x="12.125" y="10.75" width="20.625" height="6.875" rx="1" fill="url(#paint1_linear_1066_75470)"/>
<rect x="15.5625" y="17.625" width="13.75" height="2.0625" fill="#F09B3E"/>
<rect x="10.0625" y="19.6875" width="24.75" height="29.5625" rx="3" fill="url(#paint2_linear_1066_75470)"/>
<rect x="10.0625" y="26.5625" width="24.75" height="15.8125" fill="url(#paint3_linear_1066_75470)"/>
<path fill-rule="evenodd" clip-rule="evenodd" d="M20.875 29.3125C20.5989 29.3125 20.375 29.5364 20.375 29.8125V32.0625H18.125C17.8489 32.0625 17.625 32.2864 17.625 32.5625V35.6875C17.625 35.9636 17.8489 36.1875 18.125 36.1875H20.375V38.4375C20.375 38.7136 20.5989 38.9375 20.875 38.9375H24C24.2761 38.9375 24.5 38.7136 24.5 38.4375V36.1875H26.75C27.0261 36.1875 27.25 35.9636 27.25 35.6875V32.5625C27.25 32.2864 27.0261 32.0625 26.75 32.0625H24.5V29.8125C24.5 29.5364 24.2761 29.3125 24 29.3125H20.875Z" fill="url(#paint4_linear_1066_75470)"/>
<defs>
<linearGradient id="paint0_linear_1066_75470" x1="37.0394" y1="14.1875" x2="37.0394" y2="44.6094" gradientUnits="userSpaceOnUse">
<stop stop-color="#F7FAFE"/>
<stop offset="1" stop-color="#EEF0F2"/>
</linearGradient>
<linearGradient id="paint1_linear_1066_75470" x1="17.625" y1="8.6875" x2="26.9063" y2="19" gradientUnits="userSpaceOnUse">
<stop stop-color="#CFE8FF"/>
<stop offset="1" stop-color="#BEDEFB"/>
</linearGradient>
<linearGradient id="paint2_linear_1066_75470" x1="22.4375" y1="19.6875" x2="22.4375" y2="49.25" gradientUnits="userSpaceOnUse">
<stop stop-color="#FFDD6B"/>
<stop offset="1" stop-color="#FBB52F"/>
</linearGradient>
<linearGradient id="paint3_linear_1066_75470" x1="9.375" y1="23.8125" x2="35.8437" y2="44.4375" gradientUnits="userSpaceOnUse">
<stop stop-color="#FFFEF9"/>
<stop offset="1" stop-color="#F0EFEB"/>
</linearGradient>
<linearGradient id="paint4_linear_1066_75470" x1="18.3125" y1="28.625" x2="26.5625" y2="39.625" gradientUnits="userSpaceOnUse">
<stop stop-color="#FB5872"/>
<stop offset="1" stop-color="#EE405D"/>
</linearGradient>
</defs>
</svg>
