<svg width="32" height="16" viewBox="0 0 32 16" fill="none" xmlns="http://www.w3.org/2000/svg">
<rect width="32" height="16" rx="4" fill="#FC445B"/>
<path d="M10.9941 12H9.72461L6.61914 7.50781H6.56055V12H5.0957V4.92969H6.38477L9.4707 9.42188H9.53906V4.92969H10.9941V12ZM11.9855 4.92969H16.7316V6.14062H13.4504V7.85938H16.4875V9.07031H13.4504V10.7891H16.7414V12H11.9855V4.92969ZM17.2348 4.92969H18.8363L20.0277 9.87109H20.0863L21.3852 4.92969H22.7621L24.0609 9.88086H24.1195L25.3109 4.92969H26.9125L24.891 12H23.4555L22.1078 7.33203H22.0492L20.6918 12H19.2563L17.2348 4.92969Z" fill="white"/>
</svg>
