<svg width="32" height="33" viewBox="0 0 32 33" fill="none" xmlns="http://www.w3.org/2000/svg">
<path d="M22.3327 18.6719C22.3327 24.5015 18.4343 27.5781 13.6248 27.5781C8.81534 27.5781 4.91602 24.5015 4.91602 18.6719C4.91602 12.8422 13.6248 3.82812 13.6248 3.82812C13.6248 3.82812 22.3327 12.8422 22.3327 18.6719Z" fill="#FC5757"/>
<rect x="14.416" y="16.4922" width="12.6667" height="12.6667" rx="6.33333" fill="white"/>
<path fill-rule="evenodd" clip-rule="evenodd" d="M20.7481 19.6596C20.4983 19.6596 20.2958 19.4571 20.2958 19.2072V17.3977C20.2958 17.1479 20.4983 16.9453 20.7481 16.9453C20.998 16.9453 21.2005 17.1479 21.2005 17.3977V19.2072C21.2005 19.4571 20.998 19.6596 20.7481 19.6596ZM15.3196 22.3739C15.0697 22.3739 14.8672 22.5764 14.8672 22.8263C14.8672 23.0761 15.0697 23.2786 15.3196 23.2786H17.1291C17.3789 23.2786 17.5815 23.0761 17.5815 22.8263C17.5815 22.5764 17.3789 22.3739 17.1291 22.3739H15.3196ZM24.3672 22.3739C24.1173 22.3739 23.9148 22.5764 23.9148 22.8263C23.9148 23.0761 24.1173 23.2786 24.3672 23.2786H26.1767C26.4266 23.2786 26.6291 23.0761 26.6291 22.8263C26.6291 22.5764 26.4266 22.3739 26.1767 22.3739H24.3672ZM20.2958 28.2548C20.2958 28.5047 20.4983 28.7072 20.7481 28.7072C20.998 28.7072 21.2005 28.5047 21.2005 28.2548V26.4453C21.2005 26.1955 20.998 25.9929 20.7481 25.9929C20.4983 25.9929 20.2958 26.1955 20.2958 26.4453V28.2548Z" fill="#DBE5ED"/>
<rect x="14.9493" y="17.0255" width="11.6" height="11.6" rx="5.8" stroke="#516F94" stroke-width="1.06667"/>
<path d="M20.1785 22.1365L23.3444 20.237L21.4449 23.4028C21.3244 23.6036 21.1074 23.7265 20.8732 23.7265L20.5215 23.7265C20.1534 23.7265 19.8549 23.428 19.8549 23.0598L19.8549 22.7081C19.8549 22.474 19.9777 22.2569 20.1785 22.1365Z" fill="#445570"/>
</svg>
