<svg width="24" height="24" viewBox="0 0 24 24" fill="none" xmlns="http://www.w3.org/2000/svg">
<g id="Frame 1261167700">
<g id="Group 1261167699">
<path id="Vector 1561" d="M10.5625 21.9394C2.58372 20.2403 3.72476 12.2692 6.62873 7.56847C6.82476 7.30095 7.13531 6.75703 7.13531 7.238C7.13531 7.87496 7.557 8.16413 7.94481 8.16413C8.33262 8.16413 9.81106 7.56425 10.0534 6.47889C11.5282 1.99475 12.9593 0.881267 13.735 1.14587C14.3414 1.35277 15.9428 2.15274 18.2697 8.09248C20.5966 14.0322 19.2392 17.9863 18.2697 19.2159C17.284 20.43 14.2468 22.724 10.5625 21.9394Z" fill="#FF632C"/>
<path id="Vector 1563" d="M11.8633 19.5856C6.57278 19.3965 7.67128 14.3935 8.88184 11.9157L8.88328 11.9127C9.22733 11.2085 9.73425 10.1709 10.3419 11.5966C10.9505 13.0243 11.5034 12.7588 11.7038 12.4476C11.8429 12.2703 12.2044 11.6698 12.5381 10.6864C13.2424 8.24508 13.8433 8.54954 14.5221 10.0729C15.2125 11.6225 15.7772 14.3091 15.7772 16.1466C15.814 17.3442 15.0827 19.7086 11.8633 19.5856Z" fill="#CC171A"/>
<path id="Vector 1562" d="M12.0332 19.1638C6.7427 18.9746 7.8412 13.9717 9.05176 11.4938L9.05321 11.4909C9.39725 10.7867 9.90417 9.74907 10.5119 11.1747C11.1204 12.6024 11.6734 12.3369 11.8737 12.0257C12.0128 11.8484 12.3743 11.248 12.7081 10.2645C13.4123 7.8232 14.0132 8.12766 14.692 9.65106C15.3824 11.2006 15.9471 13.8872 15.9471 15.7247C15.9839 16.9223 15.2527 19.2868 12.0332 19.1638Z" fill="#FCD546"/>
</g>
</g>
</svg>
