<svg width="40" height="40" viewBox="0 0 40 40" fill="none" xmlns="http://www.w3.org/2000/svg">
<rect width="40" height="40" rx="8" fill="#F8F8F8"/>
<path d="M19.8611 31.1273V8.16501C23.6863 6.1681 26.9651 9.16318 25.3257 10.6607C29.1509 8.16482 31.3368 13.1566 28.058 14.155C34.069 14.155 33.5226 20.1452 29.1509 20.1453C34.6155 20.6445 32.4297 27.1338 29.1509 25.6363C33.5226 28.6313 27.5115 33.6231 25.3257 30.1289C26.4186 33.6231 20.9541 32.6248 19.8611 31.1273Z" fill="#4EA4F3"/>
<path fill-rule="evenodd" clip-rule="evenodd" d="M26.3133 13.3756C26.5913 13.4389 26.7603 13.6958 26.6908 13.9493C26.5614 14.4214 26.2514 15.1049 25.7136 15.6138C25.6464 15.6775 25.5747 15.7392 25.4987 15.7977C25.4222 16.2564 25.4871 16.5161 25.5779 16.6848C25.6873 16.888 25.8694 17.0342 26.1657 17.2503C26.3894 17.4135 26.4257 17.7113 26.2467 17.9153C26.0677 18.1194 25.7412 18.1525 25.5174 17.9892L25.5112 17.9847C25.2317 17.7808 24.8698 17.5168 24.6464 17.1018C24.5155 16.8586 24.4416 16.5849 24.4291 16.2684C24.0653 16.3277 23.6718 16.3024 23.2561 16.176C22.9843 16.0934 22.8373 15.8255 22.928 15.5775C23.0186 15.3296 23.3124 15.1957 23.5843 15.2783C23.905 15.3758 24.161 15.3675 24.3704 15.3098C24.4925 15.2761 24.6094 15.2225 24.721 15.151C24.7225 15.15 24.7241 15.149 24.7256 15.148C24.8089 15.0942 24.8892 15.0303 24.9663 14.9573C25.3395 14.6041 25.5829 14.089 25.6841 13.7198C25.7536 13.4663 26.0353 13.3122 26.3133 13.3756Z" fill="#F8F8F8"/>
<path fill-rule="evenodd" clip-rule="evenodd" d="M25.7634 23.7924C26.0346 23.8687 26.1934 24.1532 26.1181 24.4278C26.0551 24.6575 25.9433 24.9431 25.7755 25.2265C25.9064 25.2556 26.0404 25.2935 26.1735 25.3427C26.7701 25.5634 27.373 26.0236 27.5936 26.9173C27.6619 27.1938 27.4959 27.474 27.2228 27.5432C26.9498 27.6123 26.6731 27.4442 26.6049 27.1676C26.4857 26.685 26.1863 26.4464 25.8239 26.3124C25.4988 26.1922 25.1455 26.1672 24.8734 26.1623C24.4311 26.4219 23.8728 26.5321 23.2157 26.3325C22.9461 26.2506 22.7932 25.9628 22.874 25.6898C22.9549 25.4168 23.239 25.2618 23.5086 25.3438C23.896 25.4615 24.1895 25.3912 24.4258 25.2296C24.4338 25.2236 24.442 25.2178 24.4504 25.2123C24.4976 25.1781 24.5426 25.1403 24.5856 25.0997C24.8715 24.8291 25.0591 24.4322 25.136 24.1516C25.2114 23.8769 25.4923 23.7161 25.7634 23.7924Z" fill="#F8F8F8"/>
<path fill-rule="evenodd" clip-rule="evenodd" d="M25.1365 21.3269C24.8394 21.4964 24.5861 21.7891 24.404 22.1213C24.2445 22.4122 23.8571 22.53 23.5386 22.3843C23.2201 22.2387 23.0912 21.8847 23.2506 21.5938C23.4985 21.1415 23.8901 20.649 24.4529 20.3277C25.0411 19.9919 25.7782 19.8674 26.611 20.1211C26.9489 20.224 27.1315 20.5576 27.0188 20.8663C26.9062 21.175 26.5409 21.3418 26.203 21.2388C25.746 21.0996 25.4082 21.1717 25.1365 21.3269Z" fill="#F8F8F8"/>
<path d="M20.1396 31.1273V8.16501C16.3144 6.1681 13.0356 9.16318 14.675 10.6607C10.8498 8.16482 8.66398 13.1566 11.9427 14.155C5.9317 14.155 6.47815 20.1452 10.8498 20.1453C5.38524 20.6445 7.57107 27.1338 10.8498 25.6363C6.47815 28.6313 12.4892 33.6231 14.675 30.1289C13.5821 33.6231 19.0467 32.6248 20.1396 31.1273Z" fill="#4EA4F3"/>
<path fill-rule="evenodd" clip-rule="evenodd" d="M13.6835 13.3756C13.4055 13.4389 13.2365 13.6958 13.306 13.9493C13.4354 14.4214 13.7455 15.1049 14.2832 15.6138C14.3505 15.6775 14.4221 15.7392 14.4982 15.7977C14.5747 16.2564 14.5097 16.5161 14.4189 16.6848C14.3095 16.888 14.1274 17.0342 13.8312 17.2503C13.6074 17.4135 13.5711 17.7113 13.7501 17.9153C13.9291 18.1194 14.2557 18.1525 14.4794 17.9892L14.4856 17.9847C14.7651 17.7808 15.127 17.5168 15.3505 17.1018C15.4814 16.8586 15.5552 16.5849 15.5677 16.2684C15.9316 16.3277 16.325 16.3024 16.7407 16.176C17.0126 16.0934 17.1595 15.8255 17.0689 15.5775C16.9783 15.3296 16.6844 15.1957 16.4126 15.2783C16.0919 15.3758 15.8358 15.3675 15.6264 15.3098C15.5044 15.2761 15.3874 15.2225 15.2758 15.151C15.2743 15.15 15.2727 15.149 15.2712 15.148C15.1879 15.0942 15.1077 15.0303 15.0305 14.9573C14.6574 14.6041 14.414 14.089 14.3128 13.7198C14.2433 13.4663 13.9615 13.3122 13.6835 13.3756Z" fill="#F8F8F8"/>
<path fill-rule="evenodd" clip-rule="evenodd" d="M14.2333 23.7924C13.9621 23.8687 13.8033 24.1532 13.8786 24.4278C13.9416 24.6575 14.0534 24.9431 14.2212 25.2265C14.0903 25.2556 13.9563 25.2935 13.8232 25.3427C13.2266 25.5634 12.6237 26.0236 12.4031 26.9173C12.3348 27.1938 12.5008 27.474 12.7739 27.5432C13.0469 27.6123 13.3236 27.4442 13.3918 27.1676C13.511 26.685 13.8104 26.4464 14.1728 26.3124C14.4979 26.1922 14.8512 26.1672 15.1233 26.1623C15.5656 26.4219 16.1239 26.5321 16.781 26.3325C17.0506 26.2506 17.2035 25.9628 17.1227 25.6898C17.0418 25.4168 16.7577 25.2618 16.4881 25.3438C16.1007 25.4615 15.8072 25.3912 15.5709 25.2296C15.5629 25.2236 15.5547 25.2178 15.5464 25.2123C15.4991 25.1781 15.4541 25.1403 15.4112 25.0997C15.1252 24.8291 14.9376 24.4322 14.8607 24.1516C14.7853 23.8769 14.5044 23.7161 14.2333 23.7924Z" fill="#F8F8F8"/>
<path fill-rule="evenodd" clip-rule="evenodd" d="M14.8641 21.3269C15.1612 21.4964 15.4145 21.7891 15.5966 22.1213C15.7561 22.4122 16.1435 22.53 16.462 22.3843C16.7805 22.2387 16.9094 21.8847 16.75 21.5938C16.5021 21.1415 16.1105 20.649 15.5477 20.3277C14.9595 19.9919 14.2224 19.8674 13.3896 20.1211C13.0517 20.224 12.8691 20.5576 12.9818 20.8663C13.0944 21.175 13.4597 21.3418 13.7976 21.2388C14.2546 21.0996 14.5924 21.1717 14.8641 21.3269Z" fill="#F8F8F8"/>
<path fill-rule="evenodd" clip-rule="evenodd" d="M19.9984 7.55078C20.264 7.55078 20.4793 7.76494 20.4793 8.02911V31.4673C20.4793 31.7314 20.264 31.9456 19.9984 31.9456C19.7329 31.9456 19.5176 31.7314 19.5176 31.4673V8.02911C19.5176 7.76494 19.7329 7.55078 19.9984 7.55078Z" fill="#F8F8F8"/>
</svg>
