<svg width="48" height="48" viewBox="0 0 48 48" fill="none" xmlns="http://www.w3.org/2000/svg">
<rect width="48" height="48" fill="#F8F8F8"/>
<path d="M12 8C12 5.79086 13.7909 4 16 4H32C34.2091 4 36 5.79086 36 8V26C36 31.5228 31.5228 36 26 36H22C16.4772 36 12 31.5228 12 26V8Z" fill="#4185FF"/>
<rect x="16" y="8" width="16" height="18" rx="2" fill="white"/>
<rect x="18" y="28" width="12" height="3" rx="1.5" fill="#003E83"/>
<path d="M21 30H27V42C27 43.1046 26.1046 44 25 44H23C21.8954 44 21 43.1046 21 42V30Z" fill="#003E83"/>
<path d="M21 38H27V42C27 43.1046 26.1046 44 25 44H23C21.8954 44 21 43.1046 21 42V38Z" fill="#FFCC00"/>
<path d="M27 18C27 20.2091 25.6569 21 24 21C22.3431 21 21 20.2091 21 18C21 15.7909 24 12 24 12C24 12 27 15.7909 27 18Z" fill="#EF4A6C"/>
</svg>
