<svg width="25" height="24" viewBox="0 0 25 24" fill="none" xmlns="http://www.w3.org/2000/svg">
<g id="icon_health04_walk">
<g id="Group 1619">
<path id="Vector 137" d="M11.5847 8.08673C13.6106 8.19896 15.0129 6.50615 15.5295 5.44974C15.788 5.0031 16.4563 5.26364 16.6216 5.44974L19.1022 8.16784C19.1663 8.23812 19.2185 8.31802 19.2696 8.39825C19.6027 8.92104 20.3559 9.50546 19.4719 10.7862L11.7822 19.3454C11.7452 19.3866 11.7049 19.4249 11.661 19.4586C10.5739 20.2913 9.08052 20.6192 7.73238 19.4073C6.00502 17.8546 9.19125 14.3369 9.99109 12.6698C10.0465 12.5544 10.0693 12.4278 10.0693 12.2998L10.0693 9.26064C10.0693 8.52715 10.8523 8.04616 11.5847 8.08673Z" fill="#C5CDF8"/>
<path id="Vector 138" d="M10.4637 6.74477C12.7506 7.2445 14.3374 5.37116 14.8897 4.2414C15.1426 3.80421 15.5294 4.05923 15.6911 4.2414L17.9628 6.7762C18.3312 7.18726 18.1532 7.87068 18.3223 8.39614C18.3474 8.47437 18.3809 8.55713 18.4186 8.64742C18.5576 8.98018 18.479 9.35609 18.2354 9.62202L11.1497 17.3571C10.0811 18.4501 8.72969 19.172 7.67685 18.7233C4.47114 17.3571 5.45066 14.8068 6.07399 13.2584L9.10673 7.29304C9.35186 6.81089 9.93529 6.6293 10.4637 6.74477Z" fill="#6267DE"/>
<g id="Mask group">
<mask id="mask0_5076_143156" style="mask-type:alpha" maskUnits="userSpaceOnUse" x="15" y="5" width="5" height="8">
<path id="Vector 139" d="M16.1964 11.9455C14.8446 9.75503 15.4361 7.49264 16.2116 6.0898C16.4918 5.58289 17.1709 5.54488 17.5685 5.96608C21.6445 10.2842 19.2434 11.9495 17.0568 12.3325C16.7178 12.3919 16.3772 12.2384 16.1964 11.9455Z" fill="#D9D9D9"/>
</mask>
<g mask="url(#mask0_5076_143156)">
<path id="Vector 138_2" d="M9.79346 6.15409C12.1522 6.67974 13.7892 4.80517 14.3568 3.67717C14.6153 3.2431 15.0106 3.49631 15.176 3.67717L18.7257 7.47527C19.381 8.12637 18.9987 8.83173 18.7257 9.10303L11.0802 17.2418C9.98797 18.327 8.89575 18.847 6.98438 18.0557C3.70775 16.6992 4.70894 14.1672 5.34606 12.6298L8.45565 6.6884C8.70234 6.21706 9.2742 6.03837 9.79346 6.15409Z" fill="#4D51BD"/>
</g>
</g>
<path id="Stroke-3 (Stroke)" fill-rule="evenodd" clip-rule="evenodd" d="M7.60275 9.54409C7.64171 9.29863 7.87228 9.13123 8.11773 9.17019L10.7135 9.58218C10.959 9.62114 11.1264 9.8517 11.0874 10.0972C11.0485 10.3426 10.8179 10.51 10.5724 10.4711L7.97665 10.0591C7.7312 10.0201 7.5638 9.78954 7.60275 9.54409Z" fill="white"/>
<path id="Stroke-5 (Stroke)" fill-rule="evenodd" clip-rule="evenodd" d="M6.39182 11.38C6.43077 11.1346 6.66134 10.9672 6.90679 11.0061L9.50259 11.4181C9.74804 11.4571 9.91544 11.6876 9.87648 11.9331C9.83753 12.1786 9.60696 12.346 9.36151 12.307L6.76571 11.895C6.52026 11.856 6.35286 11.6255 6.39182 11.38Z" fill="white"/>
<path id="Stroke-7 (Stroke)" fill-rule="evenodd" clip-rule="evenodd" d="M5.43088 13.3097C5.46984 13.0643 5.7004 12.8969 5.94586 12.9358L8.54165 13.3478C8.7871 13.3868 8.9545 13.6173 8.91555 13.8628C8.87659 14.1082 8.64603 14.2756 8.40057 14.2367L5.80478 13.8247C5.55932 13.7857 5.39192 13.5552 5.43088 13.3097Z" fill="white"/>
</g>
</g>
</svg>
