<svg width="20" height="19" viewBox="0 0 20 19" fill="none" xmlns="http://www.w3.org/2000/svg">
<rect opacity="0.5" y="0.265625" width="20" height="18.2996" fill="white"/>
<path d="M17.5 9.41556C17.5 13.1412 14.1849 16.2354 10 16.2354C5.81512 16.2354 2.5 13.1412 2.5 9.41556C2.5 5.68995 5.81512 2.5957 10 2.5957C14.1849 2.5957 17.5 5.68995 17.5 9.41556Z" stroke="#AAB0B8"/>
<path d="M10.2008 11.9316C10.6917 11.9316 11.1008 12.2987 11.1008 12.7504C11.1008 13.2022 10.7019 13.5786 10.2008 13.5786C9.70987 13.5786 9.30078 13.2116 9.30078 12.7504C9.30078 12.3081 9.69964 11.9316 10.2008 11.9316Z" fill="#AAB0B8"/>
<path d="M10.2489 10.4873C10.4512 9.72341 10.9675 9.31887 10.9675 9.31887L11.6477 8.70186C11.9533 8.38901 12.1406 7.98057 12.1406 7.53737C12.1406 6.55536 11.2337 5.75586 10.1197 5.75586C9.14623 5.75586 8.33087 6.36635 8.14062 7.17563" stroke="#AAB0B8" stroke-width="1.4" stroke-miterlimit="10" stroke-linecap="round"/>
</svg>
