<svg width="64" height="64" viewBox="0 0 64 64" fill="none" xmlns="http://www.w3.org/2000/svg">
<g id="icon/64/&#236;&#134;&#140;&#236;&#163;&#188;">
<g id="Group 1261167586">
<path id="Union" fill-rule="evenodd" clip-rule="evenodd" d="M22.25 31C22.25 29.8261 22.2505 27.3603 24.625 24.5435C27.5937 21.0217 28.1875 19.2609 28.1875 18.087V4.99775C28.1875 4.44547 28.6352 4 29.1875 4H34.3125C34.8647 4 35.3125 4.44149 35.3125 4.99377L35.3125 18.087C35.3125 19.2609 35.9062 21.0217 38.875 24.5435C41.25 27.3609 41.25 29.8261 41.25 31H41.25V34H22.25V31Z" fill="url(#paint0_linear_5587_22913)"/>
<path id="Rectangle 34624710" d="M28.1875 5C28.1875 4.44772 28.6352 4 29.1875 4H34.3125C34.8648 4 35.3125 4.44772 35.3125 5V9.83333H28.1875V5Z" fill="url(#paint1_linear_5587_22913)"/>
<rect id="Rectangle 34624711" x="22.25" y="34" width="19" height="20" fill="url(#paint2_linear_5587_22913)"/>
<path id="Rectangle 34624713" d="M22.25 54H41.25V59C41.25 59.5523 40.8023 60 40.25 60H23.25C22.6977 60 22.25 59.5523 22.25 59V54Z" fill="url(#paint3_linear_5587_22913)"/>
</g>
</g>
<defs>
<linearGradient id="paint0_linear_5587_22913" x1="31.75" y1="4" x2="31.75" y2="34" gradientUnits="userSpaceOnUse">
<stop stop-color="#1ABB20"/>
<stop offset="1" stop-color="#45DC54"/>
</linearGradient>
<linearGradient id="paint1_linear_5587_22913" x1="31.75" y1="4" x2="31.75" y2="9.83333" gradientUnits="userSpaceOnUse">
<stop stop-color="#1CA041"/>
<stop offset="1" stop-color="#168335"/>
</linearGradient>
<linearGradient id="paint2_linear_5587_22913" x1="22.75" y1="44" x2="41.75" y2="44" gradientUnits="userSpaceOnUse">
<stop stop-color="#DCF7C7"/>
<stop offset="1" stop-color="#AED78D"/>
</linearGradient>
<linearGradient id="paint3_linear_5587_22913" x1="31.75" y1="54" x2="31.75" y2="60" gradientUnits="userSpaceOnUse">
<stop stop-color="#2ECB5A"/>
<stop offset="1" stop-color="#178C38"/>
</linearGradient>
</defs>
</svg>
