<svg width="64" height="64" viewBox="0 0 64 64" fill="none" xmlns="http://www.w3.org/2000/svg">
<rect width="64" height="64" rx="11.6364" fill="white"/>
<path d="M14.3613 45.1547C14.028 44.5774 14.2258 43.8392 14.8031 43.5058L23.165 38.6777L26.1824 43.9043L17.8204 48.7325C17.2432 49.0658 16.505 48.868 16.1717 48.2907L14.3613 45.1547Z" fill="url(#paint0_linear_5333_159738)"/>
<rect width="22.9324" height="6.03509" transform="matrix(0.866008 -0.500031 0.499969 0.866043 23.1641 38.6719)" fill="url(#paint1_linear_5333_159738)"/>
<path d="M43.0234 27.2109L46.1591 25.4004C46.7364 25.0671 47.4746 25.2649 47.8079 25.8422L49.6183 28.9782C49.9516 29.5555 49.7538 30.2937 49.1765 30.627L46.0408 32.4376L43.0234 27.2109Z" fill="url(#paint2_linear_5333_159738)"/>
<path fill-rule="evenodd" clip-rule="evenodd" d="M28.3672 14.7814C28.3672 16.8368 29.7644 18.5658 31.6608 19.0703C32.0791 20.9838 33.7836 22.4164 35.8226 22.4164H41.7135C42.0923 23.2538 42.9351 23.8364 43.914 23.8364H45.3337C45.9611 23.8364 46.4698 23.3278 46.4698 22.7004C46.4698 20.2869 44.5882 18.3129 42.212 18.1651V18.1562H41.9256H41.7917C41.8343 17.9254 41.8565 17.6874 41.8565 17.4442C41.8565 15.2875 40.1083 13.5391 37.9517 13.5391C37.6563 13.5391 37.3686 13.5719 37.092 13.634C36.5863 11.7393 34.8584 10.3438 32.8045 10.3438C30.3538 10.3438 28.3672 12.3306 28.3672 14.7814Z" fill="url(#paint3_linear_5333_159738)"/>
<defs>
<linearGradient id="paint0_linear_5333_159738" x1="18.4614" y1="41.3935" x2="21.4791" y2="46.62" gradientUnits="userSpaceOnUse">
<stop stop-color="#F5B24C"/>
<stop offset="1" stop-color="#D88F22"/>
</linearGradient>
<linearGradient id="paint1_linear_5333_159738" x1="11.4662" y1="0" x2="11.4662" y2="6.03509" gradientUnits="userSpaceOnUse">
<stop stop-color="#FFF8F3"/>
<stop offset="1" stop-color="#EEE5DF"/>
</linearGradient>
<linearGradient id="paint2_linear_5333_159738" x1="45.1139" y1="26.0039" x2="48.1317" y2="31.2303" gradientUnits="userSpaceOnUse">
<stop stop-color="#FF8181"/>
<stop offset="1" stop-color="#F85353"/>
</linearGradient>
<linearGradient id="paint3_linear_5333_159738" x1="37.4185" y1="10.3438" x2="37.4185" y2="23.8364" gradientUnits="userSpaceOnUse">
<stop stop-color="#F7F9FF"/>
<stop offset="1" stop-color="#EEF1F5"/>
</linearGradient>
</defs>
</svg>
