<svg width="32" height="30" viewBox="0 0 32 30" fill="none" xmlns="http://www.w3.org/2000/svg">
<g id="icon/24/&#234;&#177;&#180;&#234;&#176;&#149;&#236;&#178;&#180;&#237;&#129;&#172;">
<g id="ic">
<g id="&#236;&#138;&#164;&#235;&#167;&#136;&#236;&#157;&#188;">
<circle id="Ellipse 3366" cx="16.4961" cy="22.5" r="7.5" fill="#33D07B"/>
<circle id="Ellipse 3368" cx="14.2461" cy="21" r="0.75" fill="#0F8143"/>
<circle id="Ellipse 3369" cx="18.7461" cy="21" r="0.75" fill="#0F8143"/>
<rect id="Rectangle 34624966" x="13.9961" y="23.3008" width="5" height="1.2" rx="0.6" fill="#0F8143"/>
</g>
</g>
<g id="ic_2">
<g id="&#236;&#138;&#164;&#235;&#167;&#136;&#236;&#157;&#188;_2">
<circle id="Ellipse 3366_2" cx="7.49609" cy="7.5" r="7.5" fill="#FFE03C"/>
<path id="Ellipse 3370" d="M9.77805 8.24145C10.0935 8.34396 10.2711 8.68716 10.1079 8.97595C9.89761 9.34809 9.609 9.67308 9.25945 9.92705C8.74691 10.2994 8.12963 10.5 7.49609 10.5C6.86256 10.5 6.24528 10.2994 5.73274 9.92705C5.38318 9.67308 5.09458 9.34809 4.88428 8.97595C4.72108 8.68716 4.89866 8.34396 5.21413 8.24145C5.5296 8.13895 5.86176 8.32137 6.06199 8.58582C6.1681 8.72596 6.29483 8.85065 6.43879 8.95525C6.74611 9.17853 7.11623 9.29879 7.49609 9.29879C7.87596 9.29879 8.24608 9.17853 8.5534 8.95525C8.69736 8.85066 8.82408 8.72597 8.93019 8.58582C9.13042 8.32137 9.46258 8.13895 9.77805 8.24145Z" fill="#B08515"/>
<circle id="Ellipse 3368_2" cx="5.24609" cy="6" r="0.75" fill="#B08515"/>
<circle id="Ellipse 3369_2" cx="9.74609" cy="6" r="0.75" fill="#B08515"/>
</g>
</g>
<g id="&#236;&#138;&#164;&#235;&#167;&#136;&#236;&#157;&#188;_3">
<circle id="Ellipse 3366_3" cx="24.4961" cy="7.5" r="7.5" fill="#FF7373"/>
<path id="Ellipse 3370_2" d="M26.7781 10.2585C27.0935 10.156 27.2711 9.81284 27.1079 9.52405C26.8976 9.15191 26.609 8.82692 26.2594 8.57295C25.7469 8.20056 25.1296 8 24.4961 8C23.8626 8 23.2453 8.20056 22.7327 8.57295C22.3832 8.82692 22.0946 9.15191 21.8843 9.52405C21.7211 9.81284 21.8987 10.156 22.2141 10.2585C22.5296 10.361 22.8618 10.1786 23.062 9.91418C23.1681 9.77404 23.2948 9.64935 23.4388 9.54475C23.7461 9.32147 24.1162 9.20121 24.4961 9.20121C24.876 9.20121 25.2461 9.32147 25.5534 9.54475C25.6974 9.64934 25.8241 9.77403 25.9302 9.91418C26.1304 10.1786 26.4626 10.361 26.7781 10.2585Z" fill="#BC2A2A"/>
<circle id="Ellipse 3368_3" cx="22.2461" cy="6" r="0.75" fill="#BC2A2A"/>
<circle id="Ellipse 3369_3" cx="26.7461" cy="6" r="0.75" fill="#BC2A2A"/>
</g>
</g>
</svg>
