<svg width="64" height="64" viewBox="0 0 64 64" fill="none" xmlns="http://www.w3.org/2000/svg">
<g id="icon/64/&#235;&#167;&#165;&#236;&#163;&#188;&#236;&#158;&#148; /on">
<g id="&#235;&#167;&#165;&#236;&#163;&#188;&#236;&#158;&#148;">
<g id="Mask group">
<mask id="mask0_1482_68910" style="mask-type:alpha" maskUnits="userSpaceOnUse" x="17" y="6" width="30" height="54">
<path id="Rectangle 34624908" d="M18.0189 6H45.0189C45.0189 6 45.8847 12.0776 46.0189 16C46.4605 28.899 39.0191 42 40.0189 48.5C40.1652 49.7144 40.4253 51.134 40.7105 52.5C41.0384 54.0704 41.3991 55.4201 41.6583 56.32C41.8679 57.0472 41.663 57.829 40.9976 58.1896C39.6323 58.9296 36.7527 60 31.5189 60C26.211 60 23.3239 58.8991 21.9822 58.1584C21.3489 57.8088 21.1398 57.0698 21.3244 56.3704C21.5721 55.432 21.9344 54.0102 22.2716 52.5C22.5747 51.1425 22.8575 49.7136 23.0189 48.5C24.0176 41 16.5774 28.899 17.0189 16C17.1532 12.0776 18.0189 6 18.0189 6Z" fill="#FFDBDB"/>
</mask>
<g mask="url(#mask0_1482_68910)">
<path id="Rectangle 34624906" d="M18.0189 6H45.0189C45.0189 6 45.8847 12.0776 46.0189 16C46.4605 28.899 39.0191 42 40.0189 48.5C40.1652 49.7144 40.4253 51.134 40.7105 52.5C41.3093 55.3681 42.0176 57.5 42.0176 57.5C42.0176 57.5 39.5176 60 31.5189 60C23.5203 60 21.0189 57.5 21.0189 57.5C21.0189 57.5 21.6833 55.1346 22.2716 52.5C22.5747 51.1425 22.8575 49.7136 23.0189 48.5C24.0176 41 16.5774 28.899 17.0189 16C17.1532 12.0776 18.0189 6 18.0189 6Z" fill="#DFEAF5"/>
<path id="Vector 2727" d="M30.0175 11.5551C35.5611 9.58658 38.6161 11.9727 38.6161 11.9727C38.6161 11.9727 42.0124 14.1638 44.8484 14.0619C48.7573 13.9215 46.7672 10.0774 50.5256 9.46368C56.4669 8.49356 54.115 18.0522 54.115 18.0522L38.6161 17.6367L7.22566 17.4046V17.6367C7.22566 17.6367 6.40844 12.1603 7.22566 11.5542C10.1929 9.35339 13.5706 13.782 19.5816 14.0619C23.3384 14.063 24.4739 13.5235 30.0175 11.5551Z" fill="url(#paint0_linear_1482_68910)"/>
<path id="Vector 2726" d="M24.1748 12.555C18.6312 9.01512 16.1325 11.5807 15.5762 13.3059V23.4914L46.9666 23.074V23.4914C46.9666 23.4914 47.7838 13.6434 46.9666 12.5534C43.9994 8.5958 41.0029 15.1457 34.9919 15.649C31.2351 15.651 29.7184 16.0948 24.1748 12.555Z" fill="url(#paint1_linear_1482_68910)"/>
<path id="Vector 1596" d="M44.4535 18.1357C46.9168 17.2244 47.8654 19.9162 48.0176 20.501L49.2466 25.1112L36.5927 37.1459C31.9076 34.6557 22.7875 28.8812 23.788 25.7054C25.0386 21.7358 31.3083 18.3604 36.6596 19.85C42.011 21.3396 41.3745 19.2747 44.4535 18.1357Z" fill="#773119"/>
<path id="Vector 1595" d="M42.7389 20.2556C46.2743 16.1705 47.0631 18.5535 47.0156 20.2556L43.7367 50.4681C42.9764 52.3121 39.6596 56 32.4747 56C25.2899 56 21.3078 53.4468 20.2149 52.1702L18.0765 22.3832C17.8864 21.8868 18.048 20.7662 20.2149 20.2556C22.9234 19.6173 26.7725 24.7236 30.9066 25.1492C35.0408 25.5747 38.3196 25.3619 42.7389 20.2556Z" fill="#ED9A1E"/>
<path id="Vector 1594" d="M25.1094 23.0861C19.5624 15.6927 16.4083 16.635 15.1575 16.78C13.0366 17.8672 7.46064 53.5152 19.5624 58.3133C45.3398 68.5335 70.6278 42.6567 48.6028 33.7412C46.8785 33.0432 32.0552 32.3437 25.1094 23.0861Z" fill="#FFCE3B"/>
<path id="Rectangle 34624907" d="M31.4753 60.6131C39.6821 60.6131 42.2485 58.5611 42.2485 58.5611L40.906 52.918C40.906 52.918 37.18 54.4564 31.4753 54.458C25.7485 54.4596 21.9874 52.918 21.9874 52.918L20.7021 58.0481C20.7021 58.0481 23.2686 60.6131 31.4753 60.6131Z" fill="#DFEAF5"/>
<path id="Ellipse 3425" d="M38.75 57.7109C38.75 57.4348 35.557 57.2109 31.5195 57.2109C27.482 57.2109 24.2891 57.4348 24.2891 57.7109C24.2891 57.9871 27.482 58.2109 31.5195 58.2109C35.557 58.2109 38.75 57.9871 38.75 57.7109Z" fill="#89B9D2" fill-opacity="0.3"/>
<path id="Rectangle 34624909" d="M40.402 42.4479C39.8513 44.7944 39.5655 46.8625 39.8208 48.5271C39.9681 49.749 40.2293 51.1737 40.5147 52.5409C40.8153 53.9805 41.1433 55.2351 41.3961 56.1299C41.5226 56.5774 41.6303 56.9351 41.7065 57.1812C41.7396 57.2881 41.7668 57.374 41.7869 57.437C41.781 57.4419 41.7748 57.447 41.7683 57.4523C41.6897 57.5163 41.5665 57.6098 41.3927 57.7231C41.0453 57.9497 40.4954 58.2558 39.6959 58.5633C38.0972 59.1783 35.4973 59.8 31.5189 59.8C27.5405 59.8 24.9403 59.1783 23.3412 58.5633C22.5416 58.2558 21.9915 57.9497 21.644 57.7231C21.4702 57.6098 21.3469 57.5163 21.2683 57.4523C21.26 57.4456 21.2523 57.4392 21.2451 57.4332C21.2643 57.3637 21.2913 57.2654 21.3249 57.1417C21.3966 56.8782 21.4982 56.4995 21.6182 56.0383C21.8582 55.1162 22.172 53.8639 22.4668 52.5436C22.7704 51.1839 23.0547 49.7484 23.2172 48.5264C23.4716 46.6156 23.1875 44.4251 22.6355 42.0269C22.162 39.9691 21.4874 37.7432 20.7757 35.3951C20.6577 35.0056 20.5387 34.6129 20.4193 34.2169C18.739 28.6407 16.9993 22.4196 17.2188 16.0068C17.2857 14.0542 17.5348 11.5608 17.7679 9.55215C17.8844 8.54856 17.9967 7.66735 18.0798 7.03707C18.1214 6.72195 18.1557 6.46959 18.1796 6.29609L18.1929 6.2H44.8449L44.8583 6.29609C44.8821 6.46959 44.9164 6.72195 44.958 7.03707C45.0412 7.66735 45.1535 8.54856 45.2699 9.55215C45.503 11.5608 45.7522 14.0542 45.819 16.0068C46.0386 22.4203 44.2982 28.892 42.6177 34.5931C42.4601 35.128 42.3029 35.6563 42.1479 36.1773C41.4784 38.4272 40.8501 40.5389 40.402 42.4479Z" fill="url(#paint2_linear_1482_68910)" fill-opacity="0.4" stroke="white" stroke-width="0.4"/>
</g>
</g>
<path id="Ellipse 3426" d="M44.9029 6C44.9029 6.13439 44.8297 6.27877 44.6606 6.43184C44.4917 6.58466 44.2371 6.73664 43.9002 6.88416C43.227 7.17889 42.2469 7.44662 41.0283 7.67228C38.5927 8.12332 35.2239 8.40289 31.5 8.40289C27.7761 8.40289 24.4073 8.12332 21.9717 7.67228C20.7531 7.44662 19.773 7.17889 19.0998 6.88416C18.7629 6.73664 18.5083 6.58466 18.3394 6.43184C18.1703 6.27877 18.0971 6.13439 18.0971 6C18.0971 5.86561 18.1703 5.72123 18.3394 5.56816C18.5083 5.41534 18.7629 5.26336 19.0998 5.11584C19.773 4.82111 20.7531 4.55338 21.9717 4.32772C24.4073 3.87668 27.7761 3.59711 31.5 3.59711C35.2239 3.59711 38.5927 3.87668 41.0283 4.32772C42.2469 4.55338 43.227 4.82111 43.9002 5.11584C44.2371 5.26336 44.4917 5.41534 44.6606 5.56816C44.8297 5.72123 44.9029 5.86561 44.9029 6Z" fill="url(#paint3_linear_1482_68910)" stroke="white" stroke-width="0.194215"/>
</g>
</g>
<defs>
<linearGradient id="paint0_linear_1482_68910" x1="40.9258" y1="13.1756" x2="23.5688" y2="12.7254" gradientUnits="userSpaceOnUse">
<stop stop-color="#FFFFF3"/>
<stop offset="0.885471" stop-color="#FFEDBB"/>
</linearGradient>
<linearGradient id="paint1_linear_1482_68910" x1="17.8301" y1="15.3894" x2="42.2911" y2="14.8754" gradientUnits="userSpaceOnUse">
<stop stop-color="#FFFFF3"/>
<stop offset="1" stop-color="#FFEDBB"/>
</linearGradient>
<linearGradient id="paint2_linear_1482_68910" x1="43.4452" y1="36.5407" x2="19.5927" y2="36.5407" gradientUnits="userSpaceOnUse">
<stop stop-color="white" stop-opacity="0.5"/>
<stop offset="0.478261" stop-color="white"/>
<stop offset="1" stop-color="white" stop-opacity="0.5"/>
</linearGradient>
<linearGradient id="paint3_linear_1482_68910" x1="31.5" y1="3.5" x2="31.5" y2="8.5" gradientUnits="userSpaceOnUse">
<stop stop-color="#DFEAF5"/>
<stop offset="1" stop-color="#DCF3FF"/>
</linearGradient>
</defs>
</svg>
