<svg width="32" height="32" viewBox="0 0 32 32" fill="none" xmlns="http://www.w3.org/2000/svg">
<g clip-path="url(#clip0_5438_32335)">
<circle cx="16" cy="16" r="16" fill="#FFBECA"/>
<path fill-rule="evenodd" clip-rule="evenodd" d="M5.32063 11.2621C4.97184 11.3194 4.74238 11.6474 4.80811 11.9947C4.86517 12.2962 5.12593 12.5131 5.4219 12.5276C5.19275 12.6542 5.06095 12.9161 5.1128 13.19C5.17073 13.4961 5.43863 13.7151 5.74018 13.7235C5.50268 13.847 5.36462 14.1139 5.41748 14.3932C5.47409 14.6922 5.73114 14.9081 6.02416 14.9257C5.79458 15.0521 5.66246 15.3143 5.71436 15.5885C5.78009 15.9358 6.11612 16.1709 6.46491 16.1136L12.5977 15.1061C12.9465 15.0488 13.1759 14.7208 13.1102 14.3735C13.0536 14.0745 12.7965 13.8586 12.5035 13.841C12.7331 13.7146 12.8652 13.4524 12.8133 13.1782C12.7554 12.8721 12.4875 12.6532 12.1859 12.6448C12.4234 12.5212 12.5615 12.2544 12.5086 11.9751C12.4516 11.6736 12.1908 11.4567 11.8948 11.4422C12.124 11.3156 12.2558 11.0537 12.2039 10.7798C12.1382 10.4325 11.8022 10.1974 11.4534 10.2547L5.32063 11.2621Z" fill="#26282C"/>
<path fill-rule="evenodd" clip-rule="evenodd" d="M19.3988 15.105C19.05 15.0477 18.8205 14.7198 18.8862 14.3725C18.9433 14.071 19.2041 13.854 19.5 13.8395C19.2709 13.713 19.1391 13.4511 19.1909 13.1772C19.2489 12.8711 19.5168 12.6521 19.8183 12.6437C19.5808 12.5201 19.4427 12.2533 19.4956 11.974C19.5522 11.675 19.8093 11.4591 20.1023 11.4415C19.8727 11.3151 19.7406 11.0529 19.7925 10.7787C19.8582 10.4314 20.1942 10.1963 20.543 10.2536L26.6758 11.2611C27.0246 11.3184 27.254 11.6464 27.1883 11.9937C27.1317 12.2927 26.8747 12.5086 26.5816 12.5262C26.8112 12.6526 26.9433 12.9148 26.8914 13.189C26.8335 13.4951 26.5656 13.714 26.2641 13.7224C26.5016 13.846 26.6396 14.1128 26.5868 14.3921C26.5297 14.6936 26.2689 14.9105 25.973 14.925C26.2021 15.0516 26.3339 15.3135 26.2821 15.5874C26.2163 15.9347 25.8803 16.1698 25.5315 16.1125L19.3988 15.105Z" fill="#26282C"/>
<path d="M11.2031 20.118C11.2031 19.9666 11.3259 19.8438 11.4774 19.8438H20.5288C20.6803 19.8438 20.8031 19.9666 20.8031 20.118V20.8037C20.8031 23.4547 18.6541 25.6038 16.0031 25.6038V25.6038C13.3522 25.6038 11.2031 23.4547 11.2031 20.8037V20.118Z" stroke="#26282C" stroke-width="1.28"/>
<circle cx="8.32" cy="12.4762" r="0.32" fill="white"/>
<circle cx="9.60094" cy="13.1244" r="0.64" fill="white"/>
<circle cx="21.7572" cy="12.7963" r="0.64" fill="white"/>
<circle cx="11.2028" cy="11.5231" r="0.32" fill="white"/>
<circle cx="23.9997" cy="11.8356" r="0.32" fill="white"/>
</g>
<defs>
<clipPath id="clip0_5438_32335">
<rect width="32" height="32" fill="white"/>
</clipPath>
</defs>
</svg>
