<svg width="72" height="72" viewBox="0 0 72 72" fill="none" xmlns="http://www.w3.org/2000/svg">
<circle cx="36" cy="36" r="36" fill="#DEDEDE"/>
<rect x="29.25" y="45" width="13.5" height="3.375" rx="1.6875" fill="#686868"/>
<circle cx="21.375" cy="30.375" r="11.25" fill="white"/>
<circle cx="22.5" cy="32.625" r="5.625" fill="#686868"/>
<circle cx="50.625" cy="30.375" r="11.25" fill="white"/>
<circle cx="49.5" cy="32.625" r="5.625" fill="#686868"/>
<path d="M27.4234 16.2328C26.7555 17.1521 25.8796 17.9002 24.8672 18.416C23.8548 18.9319 22.7347 19.2008 21.5984 19.2008C20.4622 19.2008 19.3421 18.9319 18.3297 18.416C17.3173 17.9002 16.4414 17.1521 15.7735 16.2328" stroke="#686868" stroke-width="3.375" stroke-linecap="round"/>
<path d="M56.228 17.3726C55.5602 16.4534 54.6842 15.7053 53.6719 15.1894C52.6595 14.6736 51.5394 14.4047 50.4031 14.4047C49.2669 14.4047 48.1468 14.6736 47.1344 15.1894C46.122 15.7053 45.2461 16.4534 44.5782 17.3726" stroke="#686868" stroke-width="3.375" stroke-linecap="round"/>
</svg>
