<svg width="64" height="64" viewBox="0 0 64 64" fill="none" xmlns="http://www.w3.org/2000/svg">
<g id="icon/64/&#235;&#167;&#137;&#234;&#177;&#184;&#235;&#166;&#172;&#236;&#158;&#148; /on">
<g id="&#235;&#167;&#137;&#234;&#177;&#184;&#235;&#166;&#172;&#236;&#158;&#148;">
<path id="Rectangle 34624903" d="M7.5 35.5H56.5L52.0561 48.8307C49.8329 55.4999 43.5916 59.9983 36.5616 59.9983H26.8196C19.5274 59.9983 13.1188 55.1643 11.1153 48.1528L7.5 35.5Z" fill="#F0C47D"/>
<path id="Rectangle 34624930" d="M11.3076 48.0978L7.76515 35.7H56.2225L51.8664 48.7675C49.6704 55.355 43.5055 59.7983 36.5616 59.7983H26.8196C19.6167 59.7983 13.2865 55.0235 11.3076 48.0978Z" fill="url(#paint0_linear_1482_68965)" fill-opacity="0.5" stroke="#DBA855" stroke-width="0.4"/>
<g id="Mask group">
<path id="Ellipse 5529" d="M55.9163 36.082C55.9163 38.337 45.2085 40.1651 31.9997 40.1651C18.7909 40.1651 8.08301 38.337 8.08301 36.082" stroke="#DBA855" stroke-width="2.91656" stroke-linecap="round"/>
<path id="Ellipse 5530" d="M55.9163 36.082C55.9163 33.827 45.2085 31.999 31.9997 31.999C18.7909 31.999 8.08301 33.827 8.08301 36.082" stroke="#DBA855" stroke-width="2.91656" stroke-linecap="round"/>
<mask id="mask0_1482_68965" style="mask-type:alpha" maskUnits="userSpaceOnUse" x="7" y="31" width="50" height="11">
<ellipse id="Ellipse 3431" cx="31.9997" cy="36.083" rx="23.9167" ry="4.08304" fill="#F0C47D" stroke="#C28738" stroke-width="1.98326"/>
</mask>
<g mask="url(#mask0_1482_68965)">
<ellipse id="Ellipse 5528" cx="31.9997" cy="36.083" rx="23.9167" ry="4.08304" fill="#F0C47D"/>
<path id="Ellipse 5527" d="M53 40.704C53 42.9842 45.9485 44.8327 37.25 44.8327C28.5515 44.8327 21.5 42.9842 21.5 40.704C21.5 38.4238 32 38.2272 37.25 36.5753C45.8409 33.2728 53 38.4238 53 40.704Z" fill="url(#paint1_linear_1482_68965)"/>
<path id="Ellipse 5531" d="M50.667 39.9038C50.667 41.3381 42.0485 42.5009 31.417 42.5009C20.7855 42.5009 12.167 41.3381 12.167 39.9038C12.167 38.4694 23.8337 35.3211 31.417 37.3066C41.3337 39.9038 50.667 38.4694 50.667 39.9038Z" fill="url(#paint2_linear_1482_68965)"/>
<path id="Ellipse 5532" d="M55.9163 36.082C55.9163 33.827 45.2085 31.999 31.9997 31.999C18.7909 31.999 8.08301 33.827 8.08301 36.082" stroke="#DBA855" stroke-width="2.91656" stroke-linecap="round"/>
<ellipse id="Ellipse 3433" cx="31.9997" cy="36.083" rx="23.9167" ry="4.08304" stroke="#D39A4E" stroke-width="2.09992"/>
</g>
</g>
</g>
</g>
<defs>
<linearGradient id="paint0_linear_1482_68965" x1="52.125" y1="49.3554" x2="11.875" y2="49.3554" gradientUnits="userSpaceOnUse">
<stop offset="0.208333" stop-color="#F0C47D"/>
<stop offset="0.478261" stop-color="#FFFCB1" stop-opacity="0.62"/>
<stop offset="0.770833" stop-color="#F0C47D"/>
</linearGradient>
<linearGradient id="paint1_linear_1482_68965" x1="37.8333" y1="33.9446" x2="37.8333" y2="42.2403" gradientUnits="userSpaceOnUse">
<stop stop-color="#F4E0CE"/>
<stop offset="1" stop-color="#E1C7AF"/>
</linearGradient>
<linearGradient id="paint2_linear_1482_68965" x1="21.5003" y1="38.2262" x2="35.5003" y2="38.2262" gradientUnits="userSpaceOnUse">
<stop stop-color="#F4E0CE"/>
<stop offset="1" stop-color="#FFF4EB"/>
</linearGradient>
</defs>
</svg>
