<svg width="65" height="65" viewBox="0 0 65 65" fill="none" xmlns="http://www.w3.org/2000/svg">
<g id="icon/88/&#236;&#157;&#188;&#235;&#176;&#152;&#235;&#139;&#180;&#235;&#176;&#176;">
<g id="Group 1261167588">
<path id="Rectangle 34624717" d="M14.4453 46.0219C14.112 45.4446 14.3098 44.7064 14.8871 44.373L23.249 39.5449L26.2663 44.7715L17.9044 49.5997C17.3271 49.933 16.589 49.7352 16.2557 49.1579L14.4453 46.0219Z" fill="url(#paint0_linear_1482_69151)"/>
<rect id="Rectangle 34624718" width="22.9324" height="6.03509" transform="matrix(0.866008 -0.500031 0.499969 0.866043 23.248 39.5391)" fill="url(#paint1_linear_1482_69151)"/>
<path id="Rectangle 34624719" d="M43.1074 28.0781L46.2431 26.2676C46.8204 25.9343 47.5586 26.132 47.8919 26.7093L49.7023 29.8454C50.0356 30.4227 49.8378 31.1609 49.2605 31.4942L46.1248 33.3048L43.1074 28.0781Z" fill="url(#paint2_linear_1482_69151)"/>
<path id="Union" fill-rule="evenodd" clip-rule="evenodd" d="M28.4512 15.6486C28.4512 17.704 29.8484 19.433 31.7448 19.9374C32.1631 21.851 33.8676 23.2836 35.9066 23.2836H41.7975C42.1763 24.121 43.0191 24.7036 43.998 24.7036H45.4177C46.0451 24.7036 46.5537 24.195 46.5537 23.5676C46.5537 21.1541 44.6722 19.1801 42.296 19.0323V19.0234H42.0096H41.8757C41.9183 18.7926 41.9405 18.5546 41.9405 18.3114C41.9405 16.1546 40.1922 14.4062 38.0357 14.4062C37.7403 14.4062 37.4526 14.439 37.176 14.5012C36.6703 12.6065 34.9424 11.2109 32.8885 11.2109C30.4378 11.2109 28.4512 13.1977 28.4512 15.6486Z" fill="url(#paint3_linear_1482_69151)"/>
</g>
</g>
<defs>
<linearGradient id="paint0_linear_1482_69151" x1="18.5454" y1="42.2607" x2="21.5631" y2="47.4871" gradientUnits="userSpaceOnUse">
<stop stop-color="#F5B24C"/>
<stop offset="1" stop-color="#D88F22"/>
</linearGradient>
<linearGradient id="paint1_linear_1482_69151" x1="11.4662" y1="0" x2="11.4662" y2="6.03509" gradientUnits="userSpaceOnUse">
<stop stop-color="#FFF8F3"/>
<stop offset="1" stop-color="#EEE5DF"/>
</linearGradient>
<linearGradient id="paint2_linear_1482_69151" x1="45.1979" y1="26.8711" x2="48.2156" y2="32.0975" gradientUnits="userSpaceOnUse">
<stop stop-color="#FF8181"/>
<stop offset="1" stop-color="#F85353"/>
</linearGradient>
<linearGradient id="paint3_linear_1482_69151" x1="37.5025" y1="11.2109" x2="37.5025" y2="24.7036" gradientUnits="userSpaceOnUse">
<stop stop-color="#F7F9FF"/>
<stop offset="1" stop-color="#EEF1F5"/>
</linearGradient>
</defs>
</svg>
