<svg width="60" height="60" viewBox="0 0 60 60" fill="none" xmlns="http://www.w3.org/2000/svg">
<rect width="60" height="60" fill="white"/>
<path fill-rule="evenodd" clip-rule="evenodd" d="M41.2797 33.7988H6.71973L7.07973 44.5988H7.08002C7.08002 44.5988 7.08002 44.5989 7.08002 44.5989C7.08002 48.3765 14.6554 51.4389 24 51.4389C33.3447 51.4389 40.92 48.3765 40.92 44.5989C40.92 44.5961 40.92 44.5933 40.92 44.5905L41.2797 33.7988Z" fill="#94B2D7"/>
<path fill-rule="evenodd" clip-rule="evenodd" d="M41.6399 23H6.35986L6.71986 33.8C6.71986 37.5776 14.4564 40.64 23.9999 40.64C33.5433 40.64 41.2798 37.5776 41.2799 33.8C41.2799 33.8 41.2799 33.8 41.2799 33.8L41.6399 23Z" fill="#B6CFEC"/>
<path fill-rule="evenodd" clip-rule="evenodd" d="M42 12.1992H6L6.36 22.9992H6.36005C6.36043 26.9755 14.258 30.1989 24 30.1989C33.7423 30.1989 41.64 26.9754 41.64 22.9989C41.64 22.9986 41.64 22.9983 41.64 22.998L42 12.1992Z" fill="#D6E4F5"/>
<ellipse cx="24" cy="12.2" rx="18" ry="7.2" fill="#F4F9FF"/>
<circle cx="40" cy="42" r="14" fill="url(#paint0_linear_8512_11192)"/>
<path fill-rule="evenodd" clip-rule="evenodd" d="M38.5197 38.6156C39.0392 38.315 39.642 38.1426 40.2898 38.1426C42.2443 38.1426 43.8291 39.7255 43.8321 41.6794H43.1105C42.665 41.6794 42.4419 42.2179 42.7569 42.5329L44.9727 44.7487C45.1679 44.944 45.4845 44.944 45.6798 44.7487L47.8955 42.5329C48.2105 42.2179 47.9874 41.6794 47.542 41.6794H46.8321C46.8291 38.0687 43.9012 35.1426 40.2898 35.1426C39.1006 35.1426 37.9813 35.4612 37.0175 36.0187C36.3004 36.4336 36.0554 37.3512 36.4702 38.0682C36.885 38.7853 37.8026 39.0304 38.5197 38.6156ZM41.8466 45.7511C41.3271 46.0516 40.7242 46.2241 40.0765 46.2241C38.1223 46.2241 36.5377 44.6417 36.5341 42.6883H37.2558C37.7012 42.6883 37.9243 42.1497 37.6093 41.8348L35.3936 39.619C35.1983 39.4237 34.8817 39.4237 34.6865 39.619L32.4707 41.8348C32.1557 42.1497 32.3788 42.6883 32.8242 42.6883H33.5341C33.5377 46.2985 36.4654 49.2241 40.0765 49.2241C41.2656 49.2241 42.3849 48.9054 43.3487 48.3479C44.0658 47.9331 44.3109 47.0155 43.8961 46.2984C43.4812 45.5813 42.5637 45.3363 41.8466 45.7511Z" fill="url(#paint1_linear_8512_11192)"/>
<defs>
<linearGradient id="paint0_linear_8512_11192" x1="31.4445" y1="29.3611" x2="50.1112" y2="53.2779" gradientUnits="userSpaceOnUse">
<stop stop-color="#A8F29C"/>
<stop offset="0.747259" stop-color="#58D84D"/>
<stop offset="1" stop-color="#75CC79"/>
</linearGradient>
<linearGradient id="paint1_linear_8512_11192" x1="35.1295" y1="36.4416" x2="45.6244" y2="48.4333" gradientUnits="userSpaceOnUse">
<stop stop-color="white" stop-opacity="0.9"/>
<stop offset="1" stop-color="white"/>
</linearGradient>
</defs>
</svg>
