<svg width="17" height="16" viewBox="0 0 17 16" fill="none" xmlns="http://www.w3.org/2000/svg">
<g id="emoji/&#236;&#164;&#145;&#235;&#166;&#189;/&#235;&#139;&#168;&#236;&#149;&#136;&#234;&#178;&#189;&#236;&#157;&#132; &#236;&#147;&#180; &#236;&#150;&#188;&#234;&#181;&#180;" clip-path="url(#clip0_800_6784)">
<g id="Layer_1">
<path id="Vector" d="M8.75732 15.5C12.8995 15.5 16.2573 12.1421 16.2573 8C16.2573 3.85786 12.8995 0.5 8.75732 0.5C4.61519 0.5 1.25732 3.85786 1.25732 8C1.25732 12.1421 4.61519 15.5 8.75732 15.5Z" fill="#F8D23C"/>
<g id="Group">
<path id="Vector_2" d="M9.46762 3.24056C10.4876 2.31056 12.9776 1.87056 13.2576 3.70056C13.2676 3.84056 13.1676 3.96056 13.0276 3.97056C12.9476 3.98056 12.8776 3.95056 12.8276 3.90056C12.6176 3.68056 12.4176 3.52056 12.2076 3.45056C11.4076 3.20056 10.5476 3.50056 9.69762 3.67056C9.44762 3.75056 9.25762 3.40056 9.46762 3.24056Z" fill="#6D470E"/>
<path id="Vector_3" d="M6.46744 3.68977C6.26744 3.57977 6.05744 3.47977 5.85744 3.40977C5.67744 3.33977 5.49744 3.28977 5.27744 3.24977C5.18744 3.20977 5.12744 3.12977 5.12744 3.02977C5.12744 2.92977 5.18744 2.84977 5.28744 2.80977C5.69744 2.65977 6.17744 2.65977 6.59744 2.80977C6.69744 2.84977 6.79744 2.88977 6.89744 2.94977C6.99744 3.00977 7.08744 3.06977 7.16744 3.13977C7.51744 3.42977 7.75744 3.84977 7.83744 4.27977C7.85744 4.37977 7.81744 4.47977 7.72744 4.52977C7.63744 4.56977 7.52744 4.56977 7.45744 4.49977C7.30744 4.33977 7.17744 4.20977 7.02744 4.07977C6.85744 3.93977 6.67744 3.80977 6.46744 3.68977Z" fill="#6D470E"/>
<path id="Vector_4" d="M10.4976 7.49023C11.0498 7.49023 11.4976 7.04252 11.4976 6.49023C11.4976 5.93795 11.0498 5.49023 10.4976 5.49023C9.94527 5.49023 9.49756 5.93795 9.49756 6.49023C9.49756 7.04252 9.94527 7.49023 10.4976 7.49023Z" fill="black"/>
<path id="Vector_5" d="M6.56738 6.80078C7.11967 6.80078 7.56738 6.35307 7.56738 5.80078C7.56738 5.2485 7.11967 4.80078 6.56738 4.80078C6.0151 4.80078 5.56738 5.2485 5.56738 5.80078C5.56738 6.35307 6.0151 6.80078 6.56738 6.80078Z" fill="black"/>
<g id="Group_2">
<path id="Vector_6" d="M10.7573 4.41023C11.9073 4.41023 12.8373 5.34023 12.8373 6.49023C12.8373 7.64023 11.9073 8.58023 10.7573 8.58023C9.60732 8.58023 8.67732 7.64023 8.67732 6.49023C8.67732 5.34023 9.60732 4.41023 10.7573 4.41023ZM10.7573 3.99023C9.37732 3.99023 8.25732 5.11023 8.25732 6.49023C8.25732 7.87023 9.37732 8.99023 10.7573 8.99023C12.1373 8.99023 13.2573 7.87023 13.2573 6.49023C13.2573 5.11023 12.1373 3.99023 10.7573 3.99023Z" fill="white"/>
</g>
</g>
<path id="Vector_7" d="M5.0272 9.55065C7.0072 8.43065 9.4372 9.15065 11.0572 10.5807C11.1672 10.6707 11.1772 10.8207 11.0972 10.9307C11.0372 11.0107 10.9272 11.0407 10.8372 11.0107C9.8772 10.7407 8.9972 10.2607 8.0272 10.0807C7.0772 9.86065 6.1472 9.93066 5.1672 10.0207C4.9072 10.0507 4.7972 9.66065 5.0272 9.55065Z" fill="#6D470E"/>
<g id="Group_3" opacity="0.6">
<path id="Vector_8" d="M10.7573 8.99023C12.138 8.99023 13.2573 7.87095 13.2573 6.49023C13.2573 5.10952 12.138 3.99023 10.7573 3.99023C9.37661 3.99023 8.25732 5.10952 8.25732 6.49023C8.25732 7.87095 9.37661 8.99023 10.7573 8.99023Z" fill="white"/>
</g>
</g>
</g>
<defs>
<clipPath id="clip0_800_6784">
<rect width="16" height="16" fill="white" transform="translate(0.757324)"/>
</clipPath>
</defs>
</svg>
