<svg width="28" height="28" viewBox="0 0 28 28" fill="none" xmlns="http://www.w3.org/2000/svg">
<circle cx="14" cy="14" r="13.5" fill="#EB5147" stroke="#EB5147"/>
<path d="M12.4646 17.1782V19.9782C12.4646 20.5351 12.6894 21.0692 13.0896 21.4631C13.4897 21.8569 14.0325 22.0781 14.5984 22.0781L17.4436 15.7782V8.07838H9.42026C9.07718 8.07456 8.74427 8.19289 8.48285 8.41157C8.22143 8.63024 8.04913 8.93453 7.99768 9.26836L7.01611 15.5682C6.98516 15.7689 6.99891 15.9738 7.05641 16.1687C7.11391 16.3636 7.21377 16.5438 7.34909 16.697C7.48441 16.8501 7.65194 16.9725 7.84008 17.0556C8.02822 17.1387 8.23247 17.1805 8.43868 17.1782H12.4646ZM17.4436 8.07838H19.3427C19.7453 8.07137 20.1364 8.21007 20.4419 8.46814C20.7474 8.72622 20.946 9.0857 21 9.47835V14.3783C20.946 14.7709 20.7474 15.1304 20.4419 15.3885C20.1364 15.6465 19.7453 15.7852 19.3427 15.7782H17.4436" fill="white"/>
<path d="M17.7656 8.07812V16.155" stroke="#EB5147"/>
</svg>
