<svg width="64" height="64" viewBox="0 0 64 64" fill="none" xmlns="http://www.w3.org/2000/svg">
<path d="M34.1937 10.9062H29.7978C29.2844 10.9062 28.8257 11.2275 28.6502 11.71L27.7213 14.264L26.6254 17.551C26.5423 17.8001 26.5 18.061 26.5 18.3235V46.0105L27.2719 51.67C27.3544 52.275 27.8712 52.7261 28.4819 52.7261H35.5097C36.1203 52.7261 36.6371 52.275 36.7196 51.67L37.4915 46.0105V18.3235C37.4915 18.061 37.4492 17.8001 37.3662 17.551L36.2703 14.264L35.3413 11.71C35.1658 11.2275 34.7072 10.9062 34.1937 10.9062Z" fill="url(#paint0_linear_1482_69144)"/>
<path d="M36.7196 51.6719L37.4915 46.0125V39.2969L32.4275 44.3599C32.189 44.5982 31.8025 44.5982 31.5641 44.3599L26.5 39.2969V46.0125L27.2719 51.6719C27.3544 52.277 27.8712 52.7281 28.4819 52.7281H35.5097C36.1203 52.7281 36.6371 52.277 36.7196 51.6719Z" fill="url(#paint1_linear_1482_69144)"/>
<rect x="31.0781" y="27.0859" width="1.83192" height="4.27356" rx="0.915962" fill="url(#paint2_linear_1482_69144)"/>
<rect x="31.0781" y="33.7969" width="1.83192" height="1.83153" rx="0.915763" fill="#6D7A9A"/>
<defs>
<linearGradient id="paint0_linear_1482_69144" x1="31.9958" y1="10.9062" x2="31.9958" y2="52.7261" gradientUnits="userSpaceOnUse">
<stop stop-color="#F5F8FF"/>
<stop offset="1" stop-color="#D8DFEF"/>
</linearGradient>
<linearGradient id="paint1_linear_1482_69144" x1="31.9958" y1="39.2969" x2="31.9958" y2="52.7281" gradientUnits="userSpaceOnUse">
<stop stop-color="#75809B"/>
<stop offset="1" stop-color="#586481"/>
</linearGradient>
<linearGradient id="paint2_linear_1482_69144" x1="31.9941" y1="27.0859" x2="31.9941" y2="31.3595" gradientUnits="userSpaceOnUse">
<stop stop-color="#96DBCF"/>
<stop offset="1" stop-color="#83CFC3"/>
</linearGradient>
</defs>
</svg>
