<svg width="40" height="40" viewBox="0 0 40 40" fill="none" xmlns="http://www.w3.org/2000/svg">
<rect width="40" height="40" rx="8" fill="#F8F8F8"/>
<path d="M16.25 23.2482C16.25 22.836 16.5858 22.502 17 22.502H22.9998C23.414 22.502 23.7498 22.836 23.7498 23.2482V32.2026C23.7498 32.472 23.4193 32.6036 23.2326 32.4084L20.2171 29.2582C20.0989 29.1347 19.9009 29.1347 19.7827 29.2582L16.7672 32.4084C16.5805 32.6036 16.25 32.472 16.25 32.2026V23.2482Z" fill="#C8D3DE"/>
<path d="M19.2605 8.31133C19.6572 7.87598 20.3423 7.87598 20.7389 8.31133L21.6385 9.29864C21.9016 9.58744 22.3088 9.69655 22.6811 9.57801L23.9537 9.17274C24.5149 8.99404 25.1083 9.33659 25.2341 9.91194L25.5194 11.2167C25.6029 11.5984 25.901 11.8965 26.2827 11.98L27.5875 12.2654C28.1629 12.3912 28.5054 12.9845 28.3267 13.5457L27.9214 14.8184C27.8029 15.1906 27.912 15.5979 28.2008 15.861L29.1881 16.7605C29.6235 17.1572 29.6235 17.8423 29.1881 18.2389L28.2008 19.1385C27.912 19.4016 27.8029 19.8088 27.9214 20.1811L28.3267 21.4537C28.5054 22.0149 28.1629 22.6083 27.5875 22.7341L26.2827 23.0194C25.901 23.1029 25.6029 23.401 25.5194 23.7827L25.2341 25.0875C25.1083 25.6629 24.5149 26.0054 23.9537 25.8267L22.6811 25.4214C22.3088 25.3029 21.9016 25.412 21.6385 25.7008L20.7389 26.6881C20.3423 27.1235 19.6572 27.1235 19.2605 26.6881L18.361 25.7008C18.0979 25.412 17.6906 25.3029 17.3184 25.4214L16.0457 25.8267C15.4845 26.0054 14.8912 25.6629 14.7654 25.0875L14.48 23.7827C14.3965 23.401 14.0984 23.1029 13.7167 23.0194L12.4119 22.7341C11.8366 22.6083 11.494 22.0149 11.6727 21.4537L12.078 20.1811C12.1966 19.8088 12.0874 19.4016 11.7986 19.1385L10.8113 18.2389C10.376 17.8423 10.376 17.1572 10.8113 16.7605L11.7986 15.861C12.0874 15.5979 12.1966 15.1906 12.078 14.8184L11.6727 13.5457C11.494 12.9845 11.8366 12.3912 12.4119 12.2654L13.7167 11.98C14.0984 11.8965 14.3965 11.5984 14.48 11.2167L14.7654 9.91194C14.8912 9.33659 15.4845 8.99404 16.0457 9.17274L17.3184 9.57801C17.6906 9.69655 18.0979 9.58744 18.361 9.29864L19.2605 8.31133Z" fill="#43668F"/>
<path d="M26.8746 17.4998C26.8746 21.2967 23.7967 24.3746 19.9998 24.3746C16.203 24.3746 13.125 21.2967 13.125 17.4998C13.125 13.703 16.203 10.625 19.9998 10.625C23.7967 10.625 26.8746 13.703 26.8746 17.4998Z" fill="#4EA4F3"/>
<path fill-rule="evenodd" clip-rule="evenodd" d="M23.436 14.9829C23.7401 15.2532 23.7674 15.7188 23.4972 16.0228L19.5687 20.4423C19.429 20.5996 19.2286 20.6896 19.0182 20.6896C18.8078 20.6896 18.6074 20.5996 18.4677 20.4423L16.5034 18.2326C16.2332 17.9285 16.2606 17.463 16.5646 17.1927C16.8687 16.9224 17.3342 16.9498 17.6045 17.2539L19.0182 18.8443L22.3961 15.0441C22.6664 14.7401 23.132 14.7127 23.436 14.9829Z" fill="url(#paint0_linear_7579_95640)"/>
<defs>
<linearGradient id="paint0_linear_7579_95640" x1="16.8576" y1="15.423" x2="21.4531" y2="19.4106" gradientUnits="userSpaceOnUse">
<stop stop-color="white" stop-opacity="0.9"/>
<stop offset="1" stop-color="white"/>
</linearGradient>
</defs>
</svg>
