<svg width="198" height="198" viewBox="0 0 198 198" fill="none" xmlns="http://www.w3.org/2000/svg">
<g opacity="0.3" filter="url(#filter0_f_4800_46522)">
<ellipse cx="99.0966" cy="171" rx="82.1122" ry="11" fill="#E44B3D" fill-opacity="0.3"/>
</g>
<g clip-path="url(#clip0_4800_46522)">
<path d="M103.438 14.3203L110.356 16.4601L99.7674 38.0234L99.375 37.902L103.438 14.3203Z" fill="#465059"/>
<path d="M120.321 35.5938C112.743 35.5938 105.556 37.222 99.1016 40.1349V161.973C103.104 163.296 107.34 164 111.673 164C114.263 164 117.081 163.383 119.623 162.922C122.309 162.436 124.959 161.768 127.525 160.849C137.222 157.372 144.963 150.494 150.181 141.873C151.771 139.246 153.208 136.534 154.546 133.777C159.391 123.791 163.374 113.29 167.493 103L167.525 102.923C169.734 97.3716 170.949 91.3341 170.949 85.019C170.949 57.7228 148.282 35.5944 120.321 35.5944V35.5938Z" fill="#E44B3D"/>
<path d="M77.8786 35.5944C49.9174 35.5944 27.25 57.7228 27.25 85.019C27.25 91.3341 28.4657 97.3716 30.674 102.923L30.706 103C34.8245 113.29 38.808 123.791 43.6525 133.777C44.9898 136.534 46.428 139.246 48.0177 141.873C53.2355 150.494 60.9771 157.372 70.6745 160.849C73.2403 161.768 75.8908 162.436 78.5768 162.922C81.1185 163.383 83.936 164 86.5267 164C90.8593 164 95.0958 163.296 99.0978 161.973V40.1349C92.6431 37.222 85.456 35.5938 77.8779 35.5938L77.8786 35.5944Z" fill="#E44B3D"/>
<path d="M99.8991 26.8904C99.8991 26.8904 81.2656 36.1525 64.1778 30.3565C47.0886 24.5598 38.3047 5.61719 38.3047 5.61719L99.8991 26.8897V26.8904Z" fill="#35AB91"/>
<path d="M74.3168 1.86771C91.4053 7.6644 99.8991 26.8888 99.8991 26.8888L38.3047 5.61626C38.3047 5.61626 57.2282 -3.92828 74.3168 1.86771Z" fill="#61CB91"/>
</g>
<g clip-path="url(#clip1_4800_46522)">
<mask id="mask0_4800_46522" style="mask-type:alpha" maskUnits="userSpaceOnUse" x="27" y="0" width="144" height="164">
<path d="M103.454 14.3281L110.372 16.4679L99.7831 38.0312L99.3906 37.9098L103.454 14.3281Z" fill="#465059"/>
<path d="M120.321 35.5938C112.743 35.5938 105.556 37.222 99.1016 40.1349V161.973C103.104 163.296 107.34 164 111.673 164C114.263 164 117.081 163.383 119.623 162.922C122.309 162.436 124.959 161.768 127.525 160.849C137.222 157.372 144.963 150.494 150.181 141.873C151.771 139.246 153.208 136.534 154.546 133.777C159.391 123.791 163.374 113.29 167.493 103L167.525 102.923C169.734 97.3716 170.949 91.3341 170.949 85.019C170.949 57.7228 148.282 35.5944 120.321 35.5944V35.5938Z" fill="#E44B3D"/>
<path d="M77.8786 35.5944C49.9174 35.5944 27.25 57.7228 27.25 85.019C27.25 91.3341 28.4657 97.3716 30.674 102.923L30.706 103C34.8245 113.29 38.808 123.791 43.6525 133.777C44.9898 136.534 46.428 139.246 48.0177 141.873C53.2355 150.494 60.9771 157.372 70.6745 160.849C73.2403 161.768 75.8908 162.436 78.5768 162.922C81.1185 163.383 83.936 164 86.5267 164C90.8593 164 95.0958 163.296 99.0978 161.973V40.1349C92.6431 37.222 85.456 35.5938 77.8779 35.5938L77.8786 35.5944Z" fill="#E44B3D"/>
<path d="M99.8913 26.8904C99.8913 26.8904 81.2578 36.1525 64.17 30.3565C47.0807 24.5598 38.2969 5.61719 38.2969 5.61719L99.8913 26.8897V26.8904Z" fill="#35AB91"/>
<path d="M74.309 1.86771C91.3975 7.6644 99.8913 26.8888 99.8913 26.8888L38.2969 5.61626C38.2969 5.61626 57.2204 -3.92828 74.309 1.86771Z" fill="#61CB91"/>
</mask>
<g mask="url(#mask0_4800_46522)">
<path d="M71.5081 81.8471C53.7532 74.8499 30.0801 87.4538 20.4629 94.6303H13.25V-11H185.25V71.7547C179.147 80.7254 162.169 99.7433 143.082 104.049C119.224 109.432 93.7016 90.5935 71.5081 81.8471Z" fill="#3D3D3D" fill-opacity="0.7"/>
</g>
</g>
<defs>
<filter id="filter0_f_4800_46522" x="0.984375" y="144" width="196.227" height="54" filterUnits="userSpaceOnUse" color-interpolation-filters="sRGB">
<feFlood flood-opacity="0" result="BackgroundImageFix"/>
<feBlend mode="normal" in="SourceGraphic" in2="BackgroundImageFix" result="shape"/>
<feGaussianBlur stdDeviation="8" result="effect1_foregroundBlur_4800_46522"/>
</filter>
<clipPath id="clip0_4800_46522">
<rect width="143.696" height="164" fill="white" transform="translate(27.25)"/>
</clipPath>
<clipPath id="clip1_4800_46522">
<rect width="143.696" height="164" fill="white" transform="translate(27.25)"/>
</clipPath>
</defs>
</svg>
