<svg width="121" height="120" viewBox="0 0 121 120" fill="none" xmlns="http://www.w3.org/2000/svg">
<circle cx="60.5" cy="60" r="60" fill="#F0F7FF"/>
<path d="M54.0695 45.6323C61.8047 48.273 67.1878 42.0179 68.9875 38.3375C69.763 36.9976 71.7678 37.7792 72.2637 38.3375L79.8989 46.7037C79.9631 46.774 80.0158 46.8531 80.0614 46.9366C80.9556 48.5726 83.6063 50.3024 80.8147 54.3468L57.6343 80.1483C57.5972 80.1896 57.5569 80.2277 57.5133 80.262C54.2418 82.8346 49.6951 83.8949 45.5961 80.2103C40.2877 75.4386 50.4473 64.4811 52.5346 59.6422C52.5853 59.5247 52.6068 59.4033 52.6068 59.2753L52.6068 46.6148C52.6068 45.8813 53.3753 45.3953 54.0695 45.6323Z" fill="#C5CDF8"/>
<path d="M51.9239 41.6677C59.7808 44.7386 65.2563 38.4114 67.0587 34.7242C67.8175 33.4126 68.9778 34.1777 69.463 34.7242L77.6118 43.8168C77.9802 44.2279 77.9218 44.8445 77.6007 45.2935C76.7655 46.4617 77.4439 47.3159 78.085 49.0233C78.2117 49.361 78.1281 49.7394 77.8845 50.0053L55.8387 74.0713C52.633 77.3502 48.5787 79.516 45.4202 78.1699C35.8031 74.0713 38.7416 66.4205 40.6116 61.7753L50.5901 42.1477C50.8352 41.6656 51.4201 41.4708 51.9239 41.6677Z" fill="#6267DE"/>
<mask id="mask0_7843_22417" style="mask-type:alpha" maskUnits="userSpaceOnUse" x="68" y="38" width="14" height="22">
<path d="M71.5856 58.747C66.0162 50.846 69.3035 42.4396 72.1617 38.4439C72.4987 37.9729 73.183 37.9503 73.5953 38.3572C88.6473 53.2131 79.4944 58.3446 72.4625 59.1436C72.1205 59.1824 71.7839 59.0283 71.5856 58.747Z" fill="#D9D9D9"/>
</mask>
<g mask="url(#mask0_7843_22417)">
<path d="M49.9434 39.8996C57.9941 42.9821 63.6052 36.6863 65.4503 33.0198C66.2259 31.7176 67.4118 32.4772 67.9078 33.0198L78.5569 44.4141C80.5228 46.3674 79.376 48.4835 78.5569 49.2974L55.6204 73.7137C52.3438 76.9692 49.0671 78.5291 43.333 76.1553C33.5031 72.0859 36.5067 64.4897 38.4181 59.8778L48.627 40.3717C48.8737 39.9004 49.4466 39.7093 49.9434 39.8996Z" fill="#4D51BD"/>
</g>
<path fill-rule="evenodd" clip-rule="evenodd" d="M45.2043 50.6205C45.3211 49.8842 46.0128 49.382 46.7492 49.4988L54.5366 50.7348C55.2729 50.8517 55.7751 51.5434 55.6583 52.2798C55.5414 53.0161 54.8497 53.5183 54.1133 53.4015L46.326 52.1655C45.5896 52.0486 45.0874 51.3569 45.2043 50.6205Z" fill="white"/>
<path fill-rule="evenodd" clip-rule="evenodd" d="M41.5656 56.1401C41.6825 55.4037 42.3741 54.9015 43.1105 55.0184L50.8979 56.2544C51.6343 56.3712 52.1365 57.0629 52.0196 57.7993C51.9027 58.5357 51.211 59.0379 50.4747 58.921L42.6873 57.685C41.9509 57.5681 41.4487 56.8764 41.5656 56.1401Z" fill="white"/>
<path fill-rule="evenodd" clip-rule="evenodd" d="M38.6828 61.9174C38.7996 61.181 39.4913 60.6788 40.2277 60.7957L48.0151 62.0317C48.7514 62.1486 49.2536 62.8403 49.1368 63.5766C49.0199 64.313 48.3282 64.8152 47.5918 64.6983L39.8045 63.4623C39.0681 63.3455 38.5659 62.6538 38.6828 61.9174Z" fill="white"/>
<circle cx="70.5" cy="72" r="14" fill="url(#paint0_linear_7843_22417)"/>
<path d="M64.5 72.5L68.5 77L76.5 68" stroke="url(#paint1_linear_7843_22417)" stroke-width="3" stroke-linecap="round" stroke-linejoin="round"/>
<defs>
<linearGradient id="paint0_linear_7843_22417" x1="61.9445" y1="59.3611" x2="80.6112" y2="83.2779" gradientUnits="userSpaceOnUse">
<stop stop-color="#A8F29C"/>
<stop offset="0.747259" stop-color="#58D84D"/>
<stop offset="1" stop-color="#75CC79"/>
</linearGradient>
<linearGradient id="paint1_linear_7843_22417" x1="64.1" y1="67.775" x2="73.4584" y2="75.8955" gradientUnits="userSpaceOnUse">
<stop stop-color="white" stop-opacity="0.9"/>
<stop offset="1" stop-color="white"/>
</linearGradient>
</defs>
</svg>
