<svg width="32" height="32" viewBox="0 0 32 32" fill="none" xmlns="http://www.w3.org/2000/svg">
<g clip-path="url(#clip0_5438_32302)">
<circle cx="16" cy="16" r="16" fill="#6A89D8"/>
<path d="M11.2031 22.0813C11.2031 19.4303 13.3522 17.2812 16.0031 17.2812V17.2812C18.6541 17.2812 20.8031 19.4303 20.8031 22.0813V22.767C20.8031 22.9184 20.6803 23.0413 20.5288 23.0413H11.4774C11.3259 23.0413 11.2031 22.9184 11.2031 22.767V22.0813Z" stroke="#26282C" stroke-width="1.28"/>
<path d="M6.77344 14.8594L12.1558 11.7519" stroke="#26282C" stroke-width="1.28" stroke-linecap="round"/>
<path d="M19.9531 11.75L25.3354 14.8575" stroke="#26282C" stroke-width="1.28" stroke-linecap="round"/>
<path d="M25.5988 19.68C25.5988 20.4753 24.954 21.12 24.1588 21.12C23.3635 21.12 22.7188 20.4753 22.7188 19.68C22.7188 18.8847 24.1588 16 24.1588 16C24.1588 16 25.5988 18.8847 25.5988 19.68Z" fill="white"/>
<path d="M9.27844 19.68C9.27844 20.4753 8.63373 21.12 7.83844 21.12C7.04315 21.12 6.39844 20.4753 6.39844 19.68C6.39844 18.8847 7.83844 16 7.83844 16C7.83844 16 9.27844 18.8847 9.27844 19.68Z" fill="white"/>
</g>
<defs>
<clipPath id="clip0_5438_32302">
<rect width="32" height="32" fill="white"/>
</clipPath>
</defs>
</svg>
