<svg width="101" height="100" viewBox="0 0 101 100" fill="none" xmlns="http://www.w3.org/2000/svg">
<circle cx="50.5" cy="50" r="50" fill="#F65E5E"/>
<circle cx="50.5" cy="51" r="43" fill="#F65E5E"/>
<circle cx="50.5" cy="51" r="43" stroke="#FFEEE6" stroke-width="2" stroke-linecap="round" stroke-dasharray="6 6"/>
<path d="M40.2172 41.9297C41.7406 41.9297 43.1117 42.1719 44.3305 42.6562C45.5492 43.1406 46.5063 43.8281 47.2016 44.7188C47.9047 45.6016 48.2563 46.6172 48.2563 47.7656C48.2563 48.8203 47.975 49.7617 47.4125 50.5898C46.8578 51.4102 46.0844 52.0781 45.0922 52.5938C44.1078 53.1016 42.975 53.4258 41.6938 53.5664V57.2109H50.0141V59.6719H30.4906V57.2109H38.7172V53.5664C37.4438 53.418 36.3148 53.0898 35.3305 52.582C34.3461 52.0664 33.5766 51.3984 33.0219 50.5781C32.475 49.75 32.2016 48.8125 32.2016 47.7656C32.2016 46.6172 32.5492 45.6016 33.2445 44.7188C33.9398 43.8281 34.893 43.1406 36.1039 42.6562C37.3227 42.1719 38.6938 41.9297 40.2172 41.9297ZM35.1547 47.7656C35.1547 48.5 35.3656 49.1328 35.7875 49.6641C36.2172 50.1875 36.8109 50.5859 37.5688 50.8594C38.3344 51.1328 39.2172 51.2734 40.2172 51.2812C41.225 51.2734 42.1078 51.1328 42.8656 50.8594C43.6313 50.5859 44.2289 50.1875 44.6586 49.6641C45.0883 49.1328 45.3031 48.5 45.3031 47.7656C45.3031 47.0625 45.0883 46.4531 44.6586 45.9375C44.2289 45.4141 43.6313 45.0156 42.8656 44.7422C42.1 44.4609 41.2172 44.3203 40.2172 44.3203C39.225 44.3203 38.3461 44.4609 37.5805 44.7422C36.8148 45.0156 36.2172 45.4141 35.7875 45.9375C35.3656 46.4531 35.1547 47.0625 35.1547 47.7656ZM67.9547 45.4453H70.8375V47.9062H67.9547V52.2422H64.9547V40.8281H67.9547V45.4453ZM51.8531 42.1172H61.3687V44.5078H54.8531V49.3359C56.9 49.3203 58.5211 49.2656 59.7164 49.1719C60.9117 49.0781 62.0797 48.9062 63.2203 48.6562L63.525 51.0703C62.2437 51.3359 60.9039 51.5156 59.5055 51.6094C58.107 51.6953 56.1578 51.7422 53.6578 51.75H51.8531V42.1172ZM53.9391 53.2734H56.9391V55.2422H64.9547V53.2734H67.9547V61.8984H53.9391V53.2734ZM64.9547 59.5078V57.5859H56.9391V59.5078H64.9547Z" fill="white"/>
</svg>
