<svg width="72" height="72" viewBox="0 0 72 72" fill="none" xmlns="http://www.w3.org/2000/svg">
<path fill-rule="evenodd" clip-rule="evenodd" d="M71.8963 31.0065C71.965 30.6733 72 30.3366 72 29.9969C72 22.7067 55.8823 16.7969 36 16.7969C16.1178 16.7969 0 22.7067 0 29.9969C0 30.3366 0.0349927 30.6733 0.103729 31.0065C0.0356528 31.3587 0 31.7224 0 32.0945V35.9945C0 55.8768 16.1178 71.9946 36 71.9946C55.8823 71.9946 72 55.8768 72 35.9945V32.0945C72 31.7224 71.9644 31.3587 71.8963 31.0065Z" fill="#FFD633"/>
<circle cx="23.0625" cy="47.9609" r="9.5625" fill="white"/>
<circle cx="25.875" cy="46.2734" r="3.375" fill="#26282C"/>
<circle cx="48.9375" cy="47.9609" r="9.5625" fill="white"/>
<circle cx="46.125" cy="46.2734" r="3.375" fill="#26282C"/>
<circle cx="36" cy="60.75" r="4.5" fill="#F56455"/>
<ellipse cx="35.9938" cy="27.6016" rx="26.4" ry="6" fill="#EB5147"/>
<path d="M31.1109 33.5311C31.1109 32.261 30.9922 29.5417 30.5625 28.0633L35.9861 21.2266L41.2499 28.0752C40.7331 29.6703 40.7203 32.2599 40.7203 33.5311C40.7203 33.5311 37.8332 33.599 35.9859 33.6002C34.0825 33.6014 31.1109 33.5311 31.1109 33.5311Z" fill="white"/>
<path d="M45.9375 18.7174C43.7801 21.9038 40.1315 23.998 35.9938 23.998C31.856 23.998 28.2074 21.9038 26.05 18.7174C24.3077 20.4951 21.8795 21.598 19.1938 21.598C13.8918 21.598 9.59375 17.2999 9.59375 11.998C9.59375 6.69602 13.8918 3.65 19.1938 3.65C20.8263 3.65 22.3637 4.05752 23.7098 4.77639C25.0481 5.49117 26.8462 5.33704 27.9746 4.32273C30.0999 2.41237 32.9111 1.25 35.9938 1.25C39.0764 1.25 41.8876 2.41237 44.0129 4.32273C45.1413 5.33704 46.9394 5.49118 48.2778 4.77639C49.6238 4.05752 51.1612 3.65 52.7938 3.65C58.0957 3.65 62.3938 6.69602 62.3938 11.998C62.3938 17.2999 58.0957 21.598 52.7938 21.598C50.108 21.598 47.6799 20.4951 45.9375 18.7174Z" fill="#D3D3D3"/>
<path d="M62.3938 12C62.3938 12.1766 62.1397 12.1894 62.096 12.0183C61.0367 7.86847 57.2736 4.8 52.7938 4.8C51.1612 4.8 49.6238 5.20752 48.2778 5.92639C46.9394 6.64118 45.1413 6.48704 44.0129 5.47273C41.8876 3.56237 39.0764 2.4 35.9938 2.4C32.9111 2.4 30.0999 3.56237 27.9746 5.47273C26.8462 6.48704 25.0481 6.64117 23.7098 5.92639C22.3637 5.20752 20.8263 4.8 19.1938 4.8C14.714 4.8 10.9508 7.86847 9.8915 12.0183C9.84782 12.1894 9.59375 12.1766 9.59375 12C9.59375 6.69807 13.8918 2.4 19.1938 2.4C20.8263 2.4 22.3637 2.80752 23.7098 3.52639C25.0481 4.24117 26.8462 4.08704 27.9746 3.07273C30.0999 1.16237 32.9111 0 35.9938 0C39.0764 0 41.8876 1.16237 44.0129 3.07273C45.1413 4.08704 46.9394 4.24117 48.2778 3.52639C49.6238 2.80752 51.1612 2.4 52.7938 2.4C58.0957 2.4 62.3938 6.69807 62.3938 12Z" fill="#E6E6E6"/>
<path d="M38.0563 27.1584C36.8375 26.3844 35.1532 26.3844 33.9344 27.1584C32.4485 28.1019 30.6857 28.6483 28.7953 28.6483C23.4934 28.6483 19.1953 24.3502 19.1953 19.0483C19.1953 13.7463 23.4934 10.75 28.7953 10.75C30.6857 10.75 32.4485 11.2964 33.9344 12.2399C35.1532 13.0138 36.8375 13.0138 38.0563 12.2399C39.5421 11.2964 41.3049 10.75 43.1953 10.75C48.4973 10.75 52.7953 13.7463 52.7953 19.0483C52.7953 24.3502 48.4973 28.6483 43.1953 28.6483C41.3049 28.6483 39.5421 28.1019 38.0563 27.1584Z" fill="#CCCCCC"/>
<path d="M52.7953 19.0492C52.7953 19.2259 52.5413 19.2387 52.4976 19.0675C51.4383 14.9177 47.6751 11.8492 43.1953 11.8492C41.3049 11.8492 39.5421 12.3956 38.0563 13.3391C36.8375 14.1131 35.1532 14.1131 33.9344 13.3391C32.4485 12.3956 30.6857 11.8492 28.7953 11.8492C24.3155 11.8492 20.5524 14.9177 19.4931 19.0675C19.4494 19.2387 19.1953 19.2259 19.1953 19.0492C19.1953 13.7473 23.4934 9.44922 28.7953 9.44922C30.6857 9.44922 32.4485 9.99563 33.9344 10.9391C35.1532 11.7131 36.8375 11.7131 38.0563 10.9391C39.5421 9.99563 41.3049 9.44922 43.1953 9.44922C48.4973 9.44922 52.7953 13.7473 52.7953 19.0492Z" fill="white"/>
<path d="M14.3969 6.0007C14.3969 7.98892 12.7851 9.6007 10.7969 9.6007C8.80865 9.6007 7.19688 7.98892 7.19688 6.0007C7.19688 4.01247 8.80865 2.40069 10.7969 2.40069C12.7851 2.40069 14.3969 4.01247 14.3969 6.0007Z" fill="white"/>
<path d="M55.6776 6.65187C57.5068 6.65187 58.9896 5.16904 58.9896 3.33987C58.9896 1.5107 57.5068 0.0278682 55.6776 0.0278682C53.8484 0.0278682 52.3656 1.5107 52.3656 3.33987C52.3656 5.16904 53.8484 6.65187 55.6776 6.65187Z" fill="white"/>
<path d="M9.59688 16.8007C9.59688 18.1262 8.52236 19.2007 7.19688 19.2007C5.87139 19.2007 4.79688 18.1262 4.79688 16.8007C4.79688 15.4752 5.87139 14.4007 7.19688 14.4007C8.52236 14.4007 9.59688 15.4752 9.59688 16.8007Z" fill="white"/>
<path d="M64.7969 19.2007C64.7969 20.5262 63.7224 21.6007 62.3969 21.6007C61.0714 21.6007 59.9969 20.5262 59.9969 19.2007C59.9969 17.8752 61.0714 16.8007 62.3969 16.8007C63.7224 16.8007 64.7969 17.8752 64.7969 19.2007Z" fill="white"/>
</svg>
