<svg width="64" height="64" viewBox="0 0 64 64" fill="none" xmlns="http://www.w3.org/2000/svg">
<g id="icon/64/&#236;&#153;&#128;&#236;&#157;&#184;">
<g id="&#236;&#153;&#128;&#236;&#157;&#184;">
<path id="Union" fill-rule="evenodd" clip-rule="evenodd" d="M22.5 33C22.5 31.8261 22.5005 29.3603 24.875 26.5435C27.8437 23.0217 28.4375 21.2609 28.4375 20.087V6.99775C28.4375 6.44547 28.8852 6 29.4375 6H34.5625C35.1147 6 35.5625 6.44149 35.5625 6.99377L35.5625 20.087C35.5625 21.2609 36.1562 23.0217 39.125 26.5435C41.5 29.3609 41.5 31.8261 41.5 33H41.5V59C41.5 59.5523 41.0523 60 40.5 60H23.5C22.9477 60 22.5 59.5523 22.5 59V33Z" fill="url(#paint0_linear_5333_160804)"/>
<path id="Rectangle 34624710" d="M28.4375 5C28.4375 4.44772 28.8852 4 29.4375 4H34.5625C35.1148 4 35.5625 4.44772 35.5625 5V19H28.4375V5Z" fill="url(#paint1_linear_5333_160804)"/>
<path id="Rectangle 34624715" d="M28 8C28 7.44772 28.4477 7 29 7H35C35.5523 7 36 7.44772 36 8V9C36 9.55228 35.5523 10 35 10H29C28.4477 10 28 9.55228 28 9V8Z" fill="url(#paint2_linear_5333_160804)"/>
<path id="Rectangle 34624711" d="M31.5 39C31.5 38.4477 31.9477 38 32.5 38H41.5V50H32.5C31.9477 50 31.5 49.5523 31.5 49V39Z" fill="url(#paint3_linear_5333_160804)"/>
</g>
</g>
<defs>
<linearGradient id="paint0_linear_5333_160804" x1="32" y1="6" x2="32" y2="60" gradientUnits="userSpaceOnUse">
<stop stop-color="#AA2B46"/>
<stop offset="1" stop-color="#511824"/>
</linearGradient>
<linearGradient id="paint1_linear_5333_160804" x1="32" y1="4" x2="32" y2="19" gradientUnits="userSpaceOnUse">
<stop stop-color="#EE4E6F"/>
<stop offset="1" stop-color="#D53456"/>
</linearGradient>
<linearGradient id="paint2_linear_5333_160804" x1="32" y1="7" x2="32" y2="10" gradientUnits="userSpaceOnUse">
<stop stop-color="#FC6B8A"/>
<stop offset="1" stop-color="#ED5171"/>
</linearGradient>
<linearGradient id="paint3_linear_5333_160804" x1="31" y1="44" x2="41.5" y2="44" gradientUnits="userSpaceOnUse">
<stop stop-color="#E0BEC5"/>
<stop offset="1" stop-color="#986B74"/>
</linearGradient>
</defs>
</svg>
