<svg width="20" height="20" viewBox="0 0 20 20" fill="none" xmlns="http://www.w3.org/2000/svg">
<rect x="7" y="1" width="6" height="2" rx="1" fill="#444444"/>
<rect x="9" y="3" width="2" height="2" fill="#444444"/>
<path d="M16.75 11.5C16.75 15.2279 13.7279 18.25 10 18.25C6.27208 18.25 3.25 15.2279 3.25 11.5C3.25 7.77208 6.27208 4.75 10 4.75C13.7279 4.75 16.75 7.77208 16.75 11.5Z" stroke="#444444" stroke-width="1.5"/>
<path d="M7.32317 14.1775C7.1279 14.3727 7.12631 14.692 7.34297 14.8632C7.76248 15.1947 8.24153 15.4457 8.75599 15.6017C9.43043 15.8063 10.1449 15.8414 10.8362 15.7039C11.5274 15.5664 12.1741 15.2606 12.7189 14.8135C13.2637 14.3663 13.6898 13.7918 13.9596 13.1406C14.2293 12.4895 14.3342 11.7819 14.2651 11.0805C14.1961 10.3791 13.9551 9.70555 13.5635 9.11954C13.172 8.53353 12.6419 8.05313 12.0203 7.7209C11.5462 7.46747 11.03 7.30622 10.4989 7.24398C10.2247 7.21183 10.0001 7.4387 10.0001 7.71484L10.0001 11.2935C10.0001 11.4261 9.94739 11.5532 9.85362 11.647L7.32317 14.1775Z" fill="#444444"/>
</svg>
