<svg width="13" height="12" viewBox="0 0 13 12" fill="none" xmlns="http://www.w3.org/2000/svg">
<g id="ic">
<path id="Union" fill-rule="evenodd" clip-rule="evenodd" d="M7.0625 1C7.0625 0.585786 6.72671 0.25 6.3125 0.25C5.89829 0.25 5.5625 0.585786 5.5625 1V5.25H1.3125C0.898286 5.25 0.5625 5.58579 0.5625 6C0.5625 6.41421 0.898286 6.75 1.3125 6.75H5.5625V11C5.5625 11.4142 5.89829 11.75 6.3125 11.75C6.72671 11.75 7.0625 11.4142 7.0625 11V6.75H11.3125C11.7267 6.75 12.0625 6.41421 12.0625 6C12.0625 5.58579 11.7267 5.25 11.3125 5.25H7.0625V1Z" fill="#444444"/>
</g>
</svg>
