<svg width="24" height="24" viewBox="0 0 24 24" fill="none" xmlns="http://www.w3.org/2000/svg">
<path d="M16.487 19.8034L16.1375 19.1969L16.487 19.8034ZM16.8087 19.7371L16.7207 20.4315L16.8087 19.7371ZM20.1909 20.1659L20.2789 19.4715L20.1909 20.1659ZM20.7313 19.5218L20.0627 19.7291L20.7313 19.5218ZM19.9022 16.3107L19.288 15.975L19.9022 16.3107ZM21.6998 12C21.6998 13.682 21.2711 15.266 20.5164 16.6465L19.288 15.975C19.9329 14.7952 20.2998 13.4415 20.2998 12H21.6998ZM11.9999 2.3C17.357 2.3 21.6998 6.64285 21.6998 12H20.2998C20.2998 7.41602 16.5838 3.7 11.9999 3.7V2.3ZM2.30014 12C2.30014 6.64285 6.64288 2.3 11.9999 2.3V3.7C7.4161 3.7 3.70014 7.41602 3.70014 12H2.30014ZM11.9999 21.7C6.64288 21.7 2.30014 17.3571 2.30014 12H3.70014C3.70014 16.584 7.4161 20.3 11.9999 20.3V21.7ZM16.8365 20.4099C15.4122 21.2307 13.7598 21.7 11.9999 21.7V20.3C13.508 20.3 14.9201 19.8984 16.1375 19.1969L16.8365 20.4099ZM20.1028 20.8604L16.7207 20.4315L16.8968 19.0427L20.2789 19.4715L20.1028 20.8604ZM20.5283 16.5032L21.3999 19.3145L20.0627 19.7291L19.1911 16.9178L20.5283 16.5032ZM16.1375 19.1969C16.3611 19.068 16.6268 19.0084 16.8968 19.0427L16.7207 20.4315C16.7676 20.4375 16.8077 20.4265 16.8365 20.4099L16.1375 19.1969ZM20.2789 19.4715C20.1346 19.4532 20.0197 19.5902 20.0627 19.7291L21.3999 19.3145C21.6584 20.1482 20.9687 20.9702 20.1028 20.8604L20.2789 19.4715ZM20.5164 16.6465C20.536 16.6107 20.5457 16.5594 20.5283 16.5032L19.1911 16.9178C19.0911 16.5951 19.1346 16.2556 19.288 15.975L20.5164 16.6465Z" fill="#F8F8F8"/>
<path d="M6.94996 12C6.94996 11.45 7.39995 11 7.94994 11C8.49993 11 8.94992 11.45 8.94992 12C8.94992 12.55 8.49993 13 7.94994 13C7.39995 13 6.94996 12.55 6.94996 12Z" fill="#F8F8F8"/>
<path d="M11 12C11 11.45 11.45 11 12 11C12.55 11 13 11.45 13 12C13 12.55 12.55 13 12 13C11.45 13 11 12.55 11 12Z" fill="#F8F8F8"/>
<path d="M15.05 12C15.05 11.45 15.5 11 16.05 11C16.6 11 17.05 11.45 17.05 12C17.05 12.55 16.6 13 16.05 13C15.5 13 15.05 12.55 15.05 12Z" fill="#F8F8F8"/>
</svg>
