<svg width="32" height="32" viewBox="0 0 32 32" fill="none" xmlns="http://www.w3.org/2000/svg">
<circle cx="16" cy="16" r="16" fill="#D1D7DF"/>
<path d="M30.6088 9.46468C31.2895 10.9839 31.7401 12.6287 31.9164 14.3546C31.5913 14.3816 31.3464 14.6643 31.3675 14.9912C31.3891 15.3246 31.4 15.661 31.4 16C31.4 16.339 31.3891 16.6754 31.3675 17.0088C31.3464 17.3357 31.5913 17.6184 31.9164 17.6454C31.7401 19.3713 31.2895 21.0161 30.6088 22.5353C30.3137 22.3962 29.9604 22.5187 29.8153 22.8124C29.5165 23.417 29.1792 23.9993 28.8065 24.5561C28.6242 24.8283 28.6943 25.1957 28.962 25.3821C27.9657 26.7562 26.7562 27.9657 25.3821 28.962C25.1957 28.6943 24.8283 28.6242 24.5561 28.8065C23.9994 29.1792 23.417 29.5165 22.8124 29.8153C22.5187 29.9604 22.3962 30.3137 22.5353 30.6088C21.0161 31.2895 19.3713 31.7401 17.6454 31.9164C17.6184 31.5913 17.3357 31.3464 17.0088 31.3675C16.6754 31.3891 16.339 31.4 16 31.4C15.661 31.4 15.3246 31.3891 14.9912 31.3675C14.6643 31.3464 14.3816 31.5913 14.3546 31.9164C12.6287 31.7401 10.9839 31.2895 9.46468 30.6088C9.60375 30.3137 9.48133 29.9604 9.18762 29.8153C8.58295 29.5165 8.00065 29.1792 7.44394 28.8065C7.1717 28.6242 6.80434 28.6943 6.6179 28.962C5.24381 27.9657 4.03434 26.7562 3.03801 25.3821C3.30574 25.1957 3.3758 24.8283 3.19353 24.5561C2.82083 23.9993 2.4835 23.417 2.18474 22.8124C2.03963 22.5187 1.6863 22.3962 1.39122 22.5353C0.710537 21.0161 0.259886 19.3713 0.0835714 17.6454C0.408725 17.6184 0.653618 17.3357 0.632489 17.0088C0.610945 16.6754 0.6 16.339 0.6 16C0.6 15.661 0.610945 15.3246 0.632489 14.9912C0.653618 14.6643 0.408725 14.3816 0.0835713 14.3546C0.259886 12.6287 0.710536 10.9839 1.39121 9.46468C1.68629 9.60375 2.03963 9.48133 2.18474 9.18762C2.4835 8.58295 2.82083 8.00065 3.19353 7.44394C3.3758 7.1717 3.30574 6.80434 3.03801 6.6179C4.03433 5.24381 5.2438 4.03434 6.6179 3.03802C6.80434 3.30574 7.1717 3.3758 7.44394 3.19353C8.00065 2.82083 8.58295 2.4835 9.18762 2.18474C9.48132 2.03963 9.60375 1.6863 9.46468 1.39122C10.9839 0.710537 12.6287 0.259886 14.3546 0.0835714C14.3816 0.408725 14.6643 0.653618 14.9912 0.632489C15.3246 0.610945 15.661 0.6 16 0.6C16.339 0.6 16.6754 0.610945 17.0088 0.632489C17.3357 0.653618 17.6184 0.408725 17.6454 0.0835712C19.3713 0.259885 21.0161 0.710536 22.5353 1.39121C22.3962 1.68629 22.5187 2.03963 22.8124 2.18474C23.417 2.4835 23.9993 2.82083 24.5561 3.19353C24.8283 3.3758 25.1957 3.30574 25.3821 3.03801C26.7562 4.03433 27.9657 5.2438 28.962 6.6179C28.6943 6.80434 28.6242 7.1717 28.8065 7.44394C29.1792 8.00065 29.5165 8.58295 29.8153 9.18762C29.9604 9.48132 30.3137 9.60375 30.6088 9.46468Z" stroke="#A3AFBF" stroke-width="1.2" stroke-linecap="round" stroke-linejoin="round" stroke-dasharray="2 6"/>
<rect x="12" y="20" width="8" height="1" rx="0.5" fill="#26282C"/>
<circle cx="10" cy="13.5" r="4.5" fill="white"/>
<circle cx="10.4531" cy="14.3984" r="2.25" fill="#26282C"/>
<circle cx="22" cy="13.5" r="4.5" fill="white"/>
<circle cx="21.5469" cy="14.3984" r="2.25" fill="#26282C"/>
</svg>
