<svg width="40" height="40" viewBox="0 0 40 40" fill="none" xmlns="http://www.w3.org/2000/svg">
<rect width="40" height="40" rx="8" fill="#F8F8F8"/>
<path fill-rule="evenodd" clip-rule="evenodd" d="M7.53303 27.6341C7.43989 22.3 9.94217 14.1818 13.8817 10.7466C18.5117 6.70947 19.517 7.73647 21.6708 9.93684C21.8078 10.0768 21.9494 10.2215 22.0969 10.3699C23.1374 11.417 20.5998 15.6671 18.456 15.6023C17.507 15.5737 16.977 15.2514 16.6218 15.0355C16.2754 14.8249 16.0953 14.7154 15.8549 15.078C15.2878 15.9335 15.7311 17.6381 16.1223 19.1422C16.4487 20.3973 16.7388 21.5128 16.3751 21.8786C15.8479 22.4087 14.7874 24.302 14.2213 25.9699L14.5848 26.1322C15.4517 22.9578 17.6534 21.4032 20.1592 21.4032C21.6258 21.4032 22.8393 21.7806 23.7656 22.4201C25.0055 21.0766 26.536 20.1121 28.8587 20.3071C32.2724 20.6891 32.4999 23.4137 32.4999 26.0623C32.4998 28.7108 30.5641 30.8031 28.4834 31.3262C27.8674 31.6358 22.8799 32.3118 19.6652 31.8365C18.7532 31.788 17.8469 31.6046 17.0458 31.2789C16.8557 31.2318 16.654 31.1788 16.436 31.1216C15.1556 30.7853 13.3158 30.3022 10.0006 30.0008C8.23173 29.84 7.62103 28.8396 7.54689 27.6395C7.54221 27.6376 7.53759 27.6358 7.53303 27.6341Z" fill="url(#paint0_linear_7579_95565)"/>
<defs>
<linearGradient id="paint0_linear_7579_95565" x1="14.0002" y1="8" x2="31.0002" y2="33.5" gradientUnits="userSpaceOnUse">
<stop stop-color="#FFE0C7"/>
<stop offset="0.548859" stop-color="#FEC9B0"/>
<stop offset="1" stop-color="#FDB69D"/>
</linearGradient>
</defs>
</svg>
