<svg width="32" height="32" viewBox="0 0 32 32" fill="none" xmlns="http://www.w3.org/2000/svg">
<g clip-path="url(#clip0_5438_32325)">
<circle cx="16" cy="16" r="16" fill="#FF777D"/>
<path d="M6.42477 16.209L12.7743 13.898L6.42331 11.266" stroke="#26282C" stroke-width="1.28" stroke-linecap="round" stroke-linejoin="round"/>
<path d="M25.708 16.209L19.3586 13.898L25.7095 11.266" stroke="#26282C" stroke-width="1.28" stroke-linecap="round" stroke-linejoin="round"/>
<path d="M17.0258 25.8634L16.7478 26.4398L17.0258 25.8634ZM14.7044 25.2869C14.2853 25.4889 13.8151 25.6025 13.3166 25.6025V26.8825C14.0117 26.8825 14.6716 26.7237 15.2603 26.4398L14.7044 25.2869ZM13.3166 25.6025C11.5493 25.6025 10.1166 24.1698 10.1166 22.4025H8.83656C8.83656 24.8767 10.8423 26.8825 13.3166 26.8825V25.6025ZM10.1166 22.4025C10.1166 20.6352 11.5493 19.2025 13.3166 19.2025V17.9225C10.8423 17.9225 8.83656 19.9283 8.83656 22.4025H10.1166ZM13.3166 19.2025C13.8151 19.2025 14.2853 19.3161 14.7044 19.5181L15.2603 18.3652C14.6716 18.0813 14.0117 17.9225 13.3166 17.9225V19.2025ZM17.3038 19.5181C17.7228 19.3161 18.193 19.2025 18.6916 19.2025V17.9225C17.9964 17.9225 17.3365 18.0813 16.7478 18.3652L17.3038 19.5181ZM18.6916 19.2025C20.4589 19.2025 21.8916 20.6352 21.8916 22.4025H23.1716C23.1716 19.9283 21.1658 17.9225 18.6916 17.9225V19.2025ZM21.8916 22.4025C21.8916 24.1698 20.4589 25.6025 18.6916 25.6025V26.8825C21.1658 26.8825 23.1716 24.8767 23.1716 22.4025H21.8916ZM18.6916 25.6025C18.193 25.6025 17.7228 25.4889 17.3038 25.2869L16.7478 26.4398C17.3365 26.7237 17.9964 26.8825 18.6916 26.8825V25.6025ZM14.7044 19.5181C15.5077 19.9055 16.5005 19.9055 17.3038 19.5181L16.7478 18.3652C16.2958 18.5831 15.7123 18.5831 15.2603 18.3652L14.7044 19.5181ZM15.2603 26.4398C15.7123 26.2219 16.2958 26.2219 16.7478 26.4398L17.3038 25.2869C16.5005 24.8995 15.5077 24.8995 14.7044 25.2869L15.2603 26.4398Z" fill="#26282C"/>
<path d="M14.7188 10.2422L14.7188 12.1622" stroke="#26282C" stroke-width="1.28" stroke-linecap="round"/>
<path d="M17.2812 10.2422L17.2813 12.1622" stroke="#26282C" stroke-width="1.28" stroke-linecap="round"/>
</g>
<defs>
<clipPath id="clip0_5438_32325">
<rect width="32" height="32" fill="white"/>
</clipPath>
</defs>
</svg>
