<svg width="20" height="20" viewBox="0 0 20 20" fill="none" xmlns="http://www.w3.org/2000/svg">
<path fill-rule="evenodd" clip-rule="evenodd" d="M3 4C3 3.44772 3.44772 3 4 3H16C16.5523 3 17 3.44772 17 4V6C17 6.55228 16.5523 7 16 7H4C3.44772 7 3 6.55228 3 6V4ZM3 9C3 8.44772 3.44772 8 4 8H16C16.5523 8 17 8.44772 17 9V11C17 11.5523 16.5523 12 16 12H4C3.44772 12 3 11.5523 3 11V9ZM4 13C3.44772 13 3 13.4477 3 14V16C3 16.5523 3.44772 17 4 17H16C16.5523 17 17 16.5523 17 16V14C17 13.4477 16.5523 13 16 13H4Z" fill="white"/>
</svg>
