<svg width="33" height="32" viewBox="0 0 33 32" fill="none" xmlns="http://www.w3.org/2000/svg">
<g id="emotion icon/100/&#236;&#139;&#160;&#236;&#157;&#180;&#235;&#130;&#168;" clip-path="url(#clip0_985_36551)">
<circle id="Ellipse 3140" cx="16.0508" cy="16" r="16" fill="#C7A3F4"/>
<path id="Ellipse 3141" d="M27.7655 12.4185C28.5219 14.8924 28.4756 17.5422 27.6334 19.9882" stroke="white" stroke-width="1.5" stroke-linecap="round" stroke-linejoin="round"/>
<path id="Ellipse 3142" d="M26.6596 22.125C26.5313 22.3472 26.3961 22.5653 26.2541 22.779" stroke="white" stroke-width="1.5" stroke-linecap="round" stroke-linejoin="round"/>
<path id="Rectangle 17267" d="M11.25 20.1102C11.25 19.9587 11.3728 19.8359 11.5243 19.8359H20.5757C20.7272 19.8359 20.85 19.9587 20.85 20.1102V20.7959C20.85 23.4469 18.701 25.5959 16.05 25.5959V25.5959C13.399 25.5959 11.25 23.4469 11.25 20.7959V20.1102Z" stroke="#26282C" stroke-width="1.28"/>
<g id="Group 1261165736">
<circle id="Ellipse 3151" cx="9.05078" cy="10.3359" r="3" fill="#26282C"/>
<ellipse id="Ellipse 3152" cx="10.5309" cy="11.2088" rx="0.409807" ry="0.614711" transform="rotate(45 10.5309 11.2088)" fill="white"/>
<circle id="Ellipse 3153" cx="9.55078" cy="9.98438" r="1" fill="white"/>
</g>
<g id="Group 1261165738">
<circle id="Ellipse 3151_2" cx="21.0508" cy="10.3359" r="3" fill="#26282C"/>
<ellipse id="Ellipse 3152_2" cx="22.5309" cy="11.2088" rx="0.409807" ry="0.614711" transform="rotate(45 22.5309 11.2088)" fill="white"/>
<circle id="Ellipse 3153_2" cx="21.5508" cy="9.98438" r="1" fill="white"/>
</g>
</g>
<defs>
<clipPath id="clip0_985_36551">
<rect width="32" height="32" fill="white" transform="translate(0.0507812)"/>
</clipPath>
</defs>
</svg>
