<svg width="64" height="64" viewBox="0 0 64 64" fill="none" xmlns="http://www.w3.org/2000/svg">
<g id="icon/64/&#236;&#178;&#173;&#236;&#163;&#188;">
<g id="Group 1261167585">
<path id="Vector 1501" d="M24.6911 30.8336C22.8288 35.9855 23.0044 40.167 23.0044 41.3336H40.9961C40.9961 40.167 40.9961 36.0836 39.3094 30.8336C37.8101 26.1669 36.4982 23.25 35.9359 18C35.4142 13.1283 35.3774 9.26118 35.3748 5.00051C35.3744 4.44822 34.9268 4.00023 34.3746 4.00023H29.6277C29.0754 4.00023 28.6276 4.4477 28.631 4.99998C28.6556 8.99249 28.7862 13.2667 28.0643 18.0003C27.2819 23.1312 26.378 26.1669 24.6911 30.8336Z" fill="url(#paint0_linear_5333_160769)"/>
<path id="Rectangle 34624710" d="M28.625 5C28.625 4.44772 29.0727 4 29.625 4H34.3719C34.9242 4 35.3719 4.44772 35.3719 5V9.83335H28.625V5Z" fill="url(#paint1_linear_5333_160769)"/>
<rect id="Rectangle 34624711" x="23" y="40.1719" width="17.9917" height="14" fill="url(#paint2_linear_5333_160769)"/>
<path id="Rectangle 34624713" d="M23 54.1641H40.9917V58.9974C40.9917 59.5497 40.544 59.9974 39.9917 59.9974H24C23.4477 59.9974 23 59.5497 23 58.9974V54.1641Z" fill="url(#paint3_linear_5333_160769)"/>
</g>
</g>
<defs>
<linearGradient id="paint0_linear_5333_160769" x1="31.998" y1="4" x2="31.998" y2="41.3336" gradientUnits="userSpaceOnUse">
<stop stop-color="#1DD05A"/>
<stop offset="1" stop-color="#42DA64"/>
</linearGradient>
<linearGradient id="paint1_linear_5333_160769" x1="31.9984" y1="4" x2="31.9984" y2="9.83335" gradientUnits="userSpaceOnUse">
<stop stop-color="#6CBDF5"/>
<stop offset="1" stop-color="#4B9CD5"/>
</linearGradient>
<linearGradient id="paint2_linear_5333_160769" x1="23" y1="47" x2="41" y2="47" gradientUnits="userSpaceOnUse">
<stop stop-color="#EFF8FF"/>
<stop offset="1" stop-color="#C0DAED"/>
</linearGradient>
<linearGradient id="paint3_linear_5333_160769" x1="31.9959" y1="54.1641" x2="31.9959" y2="59.9974" gradientUnits="userSpaceOnUse">
<stop stop-color="#37D55B"/>
<stop offset="1" stop-color="#11A039"/>
</linearGradient>
</defs>
</svg>
