<svg width="64" height="64" viewBox="0 0 64 64" fill="none" xmlns="http://www.w3.org/2000/svg">
<g id="icon/64/&#235;&#167;&#165;&#236;&#163;&#188;">
<g id="Group 1261167583">
<path id="Vector 1501" d="M23.9789 28.9167C21.4818 33.3158 21.7592 37.1667 21.7592 39H41.7409C41.7409 37.1667 42.0179 33.3167 39.5202 28.9167C37.3 25.0055 36.75 24.3333 36.75 22.5C36.75 20.6667 36.1904 13.3333 35.0803 6H28.4197C27.3096 13.3333 26.75 20.6667 26.75 22.5C26.75 24.3333 26.199 25.0055 23.9789 28.9167Z" fill="url(#paint0_linear_5587_22895)"/>
<path id="Intersect" fill-rule="evenodd" clip-rule="evenodd" d="M26.5547 24H36.938C36.7992 23.5242 36.7465 23.0678 36.7465 22.5C36.7464 21.6552 36.6276 19.6425 36.3908 17H27.1021C26.8653 19.6425 26.7465 21.6552 26.7465 22.5C26.7465 23.0678 26.6936 23.5242 26.5547 24Z" fill="url(#paint1_linear_5587_22895)"/>
<path id="Rectangle 34624710" d="M27.75 5C27.75 4.44772 28.1977 4 28.75 4H34.75C35.3023 4 35.75 4.44772 35.75 5V6C35.75 6.55228 35.3023 7 34.75 7H28.75C28.1977 7 27.75 6.55228 27.75 6V5Z" fill="url(#paint2_linear_5587_22895)"/>
<rect id="Rectangle 34624711" x="21.75" y="38" width="20" height="16" fill="url(#paint3_linear_5587_22895)"/>
<path id="Rectangle 34624713" d="M21.75 54H41.75V59C41.75 59.5523 41.3023 60 40.75 60H22.75C22.1977 60 21.75 59.5523 21.75 59V54Z" fill="url(#paint4_linear_5587_22895)"/>
</g>
</g>
<defs>
<linearGradient id="paint0_linear_5587_22895" x1="31.75" y1="6" x2="31.75" y2="39" gradientUnits="userSpaceOnUse">
<stop stop-color="#934A21"/>
<stop offset="1" stop-color="#BC6534"/>
</linearGradient>
<linearGradient id="paint1_linear_5587_22895" x1="26.7461" y1="21" x2="36.7461" y2="21" gradientUnits="userSpaceOnUse">
<stop stop-color="#FFBB3B"/>
<stop offset="1" stop-color="#EE962C"/>
</linearGradient>
<linearGradient id="paint2_linear_5587_22895" x1="31.75" y1="4" x2="31.75" y2="7" gradientUnits="userSpaceOnUse">
<stop stop-color="#DEDDDC"/>
<stop offset="1" stop-color="#B9B7B6"/>
</linearGradient>
<linearGradient id="paint3_linear_5587_22895" x1="21.75" y1="46" x2="41.75" y2="46" gradientUnits="userSpaceOnUse">
<stop stop-color="#FFC147"/>
<stop offset="1" stop-color="#E18921"/>
</linearGradient>
<linearGradient id="paint4_linear_5587_22895" x1="31.75" y1="54" x2="31.75" y2="60" gradientUnits="userSpaceOnUse">
<stop stop-color="#93502B"/>
<stop offset="1" stop-color="#723B1C"/>
</linearGradient>
</defs>
</svg>
