<svg width="64" height="64" viewBox="0 0 64 64" fill="none" xmlns="http://www.w3.org/2000/svg">
<g id="icon/64/&#235;&#167;&#137;&#234;&#177;&#184;&#235;&#166;&#172;">
<g id="&#235;&#167;&#137;&#234;&#177;&#184;&#235;&#166;&#172;">
<path id="Vector 1501" d="M24.875 23.8261C22.5005 26.9558 22.5 32.6957 22.5 34H41.5C41.5 32.6957 41.5 26.9566 39.125 23.8261C36.1562 19.913 35.5625 17.9565 35.5625 16.6522L35.5625 10.4981C35.5625 9.94582 35.1147 9.5 34.5625 9.5H29.4375C28.8852 9.5 28.4375 9.94988 28.4375 10.5022V16.6522C28.4375 17.9565 27.8437 19.913 24.875 23.8261Z" fill="url(#paint0_linear_5333_160794)"/>
<path id="Rectangle 34624710" d="M28.4375 5C28.4375 4.44772 28.8852 4 29.4375 4H34.5625C35.1148 4 35.5625 4.44772 35.5625 5V8.5C35.5625 9.05228 35.1148 9.5 34.5625 9.5H29.4375C28.8852 9.5 28.4375 9.05228 28.4375 8.5V5Z" fill="url(#paint1_linear_5333_160794)"/>
<rect id="Rectangle 34624711" x="22.5" y="34" width="19" height="20" fill="url(#paint2_linear_5333_160794)"/>
<path id="Rectangle 34624713" d="M22.5 54H41.5V59C41.5 59.5523 41.0523 60 40.5 60H23.5C22.9477 60 22.5 59.5523 22.5 59V54Z" fill="url(#paint3_linear_5333_160794)"/>
</g>
</g>
<defs>
<linearGradient id="paint0_linear_5333_160794" x1="32" y1="10" x2="32" y2="34" gradientUnits="userSpaceOnUse">
<stop stop-color="#F2F2F2"/>
<stop offset="1" stop-color="#E0E0E0"/>
</linearGradient>
<linearGradient id="paint1_linear_5333_160794" x1="32" y1="4" x2="32" y2="9.5" gradientUnits="userSpaceOnUse">
<stop stop-color="#666361"/>
<stop offset="1" stop-color="#44413E"/>
</linearGradient>
<linearGradient id="paint2_linear_5333_160794" x1="23" y1="44" x2="42" y2="44" gradientUnits="userSpaceOnUse">
<stop stop-color="#F3ECDE"/>
<stop offset="1" stop-color="#D1CCC1"/>
</linearGradient>
<linearGradient id="paint3_linear_5333_160794" x1="32" y1="54" x2="32" y2="60" gradientUnits="userSpaceOnUse">
<stop stop-color="#EBEBEB"/>
<stop offset="1" stop-color="#E0E0E0"/>
</linearGradient>
</defs>
</svg>
