<svg width="64" height="64" viewBox="0 0 64 64" fill="none" xmlns="http://www.w3.org/2000/svg">
<g id="icon/64/&#236;&#134;&#140;&#236;&#163;&#188;&#236;&#158;&#148; /on">
<g id="&#236;&#134;&#140;&#236;&#163;&#188;&#236;&#158;&#148;">
<g id="Group 1261167421">
<mask id="mask0_1482_68924" style="mask-type:alpha" maskUnits="userSpaceOnUse" x="15" y="25" width="35" height="35">
<path id="Vector 1608" d="M17.2983 51.213L15.4951 25.3672H49.4064L47.7761 51.656C47.6051 54.414 45.4859 56.6105 42.8927 57.5649C41.2541 58.168 39.9364 58.8511 39.0265 59.3536C38.2704 59.7712 37.404 59.8971 36.5475 59.7853C34.4909 59.5166 32.1864 59.4947 30.3511 59.612C28.5495 59.7271 26.6922 59.3225 25.082 58.5062C24.2845 58.102 23.4854 57.7679 22.7157 57.494C19.9279 56.502 17.5043 54.1649 17.2983 51.213Z" fill="#E6E6E6"/>
</mask>
<g mask="url(#mask0_1482_68924)">
<path id="Vector 1610" d="M17.6597 56.3922L15.4951 25.3672H49.4064L47.4824 56.3922C42.4318 57.1137 38.8242 59.5187 37.8622 59.9997C34.2546 59.2782 29.204 59.5187 27.5204 59.9997C23.8647 57.3061 19.4234 56.4724 17.6597 56.3922Z" fill="#DFEAF5"/>
<g id="Group 1261167422">
<path id="Vector 1596" d="M48.7275 35.5129C51.6848 34.6812 52.7901 35.543 52.973 36.0779L54.4863 41.8954L39.2979 52.8933C33.671 50.6128 22.717 45.3259 23.9168 42.4222C25.4165 38.7926 32.9432 35.7099 39.3697 37.0757C45.7961 38.4414 45.0308 36.5526 48.7275 35.5129Z" fill="#39ACE5"/>
<path id="Vector 1595" d="M48.1523 38.1527C53.0694 34.3459 54.1665 36.5665 54.1004 38.1527L49.5401 66.3068C48.4827 68.0252 43.8696 71.4618 33.8767 71.4618C23.8839 71.4618 18.3456 69.0826 16.8255 67.893L13.8515 40.1354C13.5871 39.6728 13.8118 38.6285 16.8255 38.1527C20.5927 37.5579 25.946 42.3163 31.6958 42.7129C37.4457 43.1094 42.0059 42.9111 48.1523 38.1527Z" fill="#4BC3FF"/>
<path id="Vector 1594" d="M25.1544 41.1289C18.4132 34.3878 14.5801 35.2469 13.06 35.3791C10.4825 36.3705 3.7062 68.8736 18.4132 73.2484C49.7399 82.5671 80.4717 58.9731 53.7053 50.8441C51.6098 50.2077 33.5954 49.5698 25.1544 41.1289Z" fill="#71D0FF"/>
</g>
<g id="Vector 1609">
<path d="M26.0786 24.8867L27.5217 60.2408L16.9394 57.3547L15.2559 24.8867H26.0786Z" fill="#B1DFF6" style="mix-blend-mode:multiply"/>
</g>
<g id="Vector 1611">
<path d="M39.0659 26.3275L37.8634 60.7196L48.2051 56.631L49.8887 25.125L39.0659 26.3275Z" fill="#B1DFF6" style="mix-blend-mode:multiply"/>
</g>
</g>
</g>
<path id="Vector 1608_2" d="M17.4921 51.1995L15.7034 25.5614H49.1998L47.5823 51.644C47.4173 54.304 45.3687 56.4467 42.8256 57.3827C41.1743 57.9904 39.8471 58.6786 38.9326 59.1836C38.2179 59.5783 37.3943 59.7 36.5727 59.5927C34.125 59.2729 31.3328 59.3003 29.3808 59.4959C28.222 59.612 27.0254 59.369 26.018 58.7908C24.9355 58.1694 23.8305 57.6845 22.7808 57.311C20.0382 56.335 17.6909 54.0487 17.4921 51.1995Z" fill="url(#paint0_linear_1482_68924)" fill-opacity="0.4" stroke="white" stroke-width="0.388429"/>
<path id="Ellipse 3426" d="M49.3093 25.1265C49.3093 25.304 49.2122 25.4906 48.997 25.6845C48.7821 25.8782 48.4596 26.0695 48.0352 26.2545C47.1871 26.6243 45.9539 26.9595 44.4226 27.2419C41.3617 27.8063 37.1289 28.156 32.4508 28.156C27.7727 28.156 23.5399 27.8063 20.4789 27.2419C18.9476 26.9595 17.7145 26.6243 16.8664 26.2545C16.442 26.0695 16.1195 25.8782 15.9046 25.6845C15.6894 25.4906 15.5922 25.304 15.5922 25.1265C15.5922 24.9491 15.6894 24.7625 15.9046 24.5686C16.1195 24.3749 16.442 24.1836 16.8664 23.9986C17.7145 23.6288 18.9476 23.2936 20.4789 23.0112C23.5399 22.4468 27.7727 22.0971 32.4508 22.0971C37.1289 22.0971 41.3617 22.4468 44.4226 23.0112C45.9539 23.2936 47.1871 23.6288 48.0352 23.9986C48.4596 24.1836 48.7821 24.3749 48.997 24.5686C49.2122 24.7625 49.3093 24.9491 49.3093 25.1265Z" fill="url(#paint1_linear_1482_68924)" stroke="white" stroke-width="0.194215"/>
</g>
</g>
<defs>
<linearGradient id="paint0_linear_1482_68924" x1="46.3787" y1="44.9543" x2="18.5229" y2="44.9543" gradientUnits="userSpaceOnUse">
<stop stop-color="white" stop-opacity="0.5"/>
<stop offset="0.478261" stop-color="white"/>
<stop offset="1" stop-color="white" stop-opacity="0.5"/>
</linearGradient>
<linearGradient id="paint1_linear_1482_68924" x1="32.4508" y1="22" x2="32.4508" y2="28.2531" gradientUnits="userSpaceOnUse">
<stop stop-color="#DFEAF5"/>
<stop offset="1" stop-color="#DCF3FF"/>
</linearGradient>
</defs>
</svg>
