<svg width="20" height="20" viewBox="0 0 20 20" fill="none" xmlns="http://www.w3.org/2000/svg">
<path d="M9.55163 1.90849C9.73504 1.53687 10.265 1.53687 10.4484 1.90849L12.5287 6.1237C12.6015 6.27127 12.7423 6.37356 12.9052 6.39722L17.5569 7.07316C17.967 7.13276 18.1308 7.63674 17.834 7.92601L14.468 11.2071C14.3501 11.322 14.2964 11.4875 14.3242 11.6497L15.1188 16.2826C15.1889 16.6911 14.7601 17.0026 14.3933 16.8097L10.2327 14.6223C10.087 14.5457 9.91299 14.5457 9.76733 14.6223L5.60667 16.8097C5.23985 17.0026 4.81114 16.6911 4.88119 16.2826L5.67581 11.6497C5.70363 11.4875 5.64985 11.322 5.53201 11.2071L2.16597 7.92601C1.86921 7.63674 2.03296 7.13276 2.44307 7.07316L7.09483 6.39722C7.25769 6.37356 7.39847 6.27127 7.4713 6.1237L9.55163 1.90849Z" fill="#FFC205"/>
</svg>
