<svg width="24" height="24" viewBox="0 0 24 24" fill="none" xmlns="http://www.w3.org/2000/svg">
<rect x="14.8618" y="2.86133" width="8.12535" height="1.2188" rx="0.609401" transform="rotate(45 14.8618 2.86133)" fill="#FF554A"/>
<path d="M10.2656 12.0547L11.4147 13.2038L5.96226 18.6562C5.77464 18.8439 5.52016 18.9492 5.25483 18.9491L4.61976 18.9489C4.56453 18.9489 4.51978 18.9041 4.51979 18.8489L4.52 18.2142C4.52009 17.9491 4.62544 17.6949 4.81289 17.5074L10.2656 12.0547Z" fill="#D9D4D3"/>
<path d="M6.52412 9.47637C8.21646 7.78403 10.9603 7.78403 12.6526 9.47637L13.9933 10.817C15.6856 12.5093 15.6856 15.2532 13.9933 16.9455C13.7817 17.1571 13.4387 17.1571 13.2272 16.9455L6.52412 10.2424C6.31257 10.0309 6.31257 9.68791 6.52412 9.47637Z" fill="#FF554A"/>
<path d="M14.903 4.62617L18.8428 8.56593L15.1493 12.9161L10.5529 8.31969L14.903 4.62617Z" fill="#EB392E"/>
</svg>
