<svg width="40" height="40" viewBox="0 0 40 40" fill="none" xmlns="http://www.w3.org/2000/svg">
<rect width="40" height="40" rx="8" fill="#F8F8F8"/>
<rect x="16.0625" y="9.9375" width="16.8342" height="19.3594" rx="3" fill="url(#paint0_linear_1066_75712)"/>
<rect x="18.5879" y="14.1484" width="11.784" height="1.68342" rx="0.841712" fill="#E0E4E8"/>
<rect x="18.5879" y="18.3555" width="11.784" height="1.68342" rx="0.841712" fill="#E0E4E8"/>
<rect x="18.5879" y="22.5625" width="11.784" height="1.68342" rx="0.841712" fill="#E0E4E8"/>
<rect x="8.625" y="7.75" width="13.125" height="4.375" rx="1" fill="url(#paint1_linear_1066_75712)"/>
<rect x="10.8125" y="12.125" width="8.75" height="1.3125" fill="#F09B3E"/>
<rect x="7.3125" y="13.4375" width="15.75" height="18.8125" rx="3" fill="url(#paint2_linear_1066_75712)"/>
<rect x="7.3125" y="17.8125" width="15.75" height="10.0625" fill="url(#paint3_linear_1066_75712)"/>
<path fill-rule="evenodd" clip-rule="evenodd" d="M14.375 19.5625C14.0989 19.5625 13.875 19.7864 13.875 20.0625V21.3125H12.625C12.3489 21.3125 12.125 21.5364 12.125 21.8125V23.4375C12.125 23.7136 12.3489 23.9375 12.625 23.9375H13.875V25.1875C13.875 25.4636 14.0989 25.6875 14.375 25.6875H16C16.2761 25.6875 16.5 25.4636 16.5 25.1875V23.9375H17.75C18.0261 23.9375 18.25 23.7136 18.25 23.4375V21.8125C18.25 21.5364 18.0261 21.3125 17.75 21.3125H16.5V20.0625C16.5 19.7864 16.2761 19.5625 16 19.5625H14.375Z" fill="url(#paint4_linear_1066_75712)"/>
<defs>
<linearGradient id="paint0_linear_1066_75712" x1="24.4796" y1="9.9375" x2="24.4796" y2="29.2969" gradientUnits="userSpaceOnUse">
<stop stop-color="#F7FAFE"/>
<stop offset="1" stop-color="#EEF0F2"/>
</linearGradient>
<linearGradient id="paint1_linear_1066_75712" x1="12.125" y1="6.4375" x2="18.0313" y2="13" gradientUnits="userSpaceOnUse">
<stop stop-color="#CFE8FF"/>
<stop offset="1" stop-color="#BEDEFB"/>
</linearGradient>
<linearGradient id="paint2_linear_1066_75712" x1="15.1875" y1="13.4375" x2="15.1875" y2="32.25" gradientUnits="userSpaceOnUse">
<stop stop-color="#FFDD6B"/>
<stop offset="1" stop-color="#FBB52F"/>
</linearGradient>
<linearGradient id="paint3_linear_1066_75712" x1="6.875" y1="16.0625" x2="23.7187" y2="29.1875" gradientUnits="userSpaceOnUse">
<stop stop-color="#FFFEF9"/>
<stop offset="1" stop-color="#F0EFEB"/>
</linearGradient>
<linearGradient id="paint4_linear_1066_75712" x1="12.5625" y1="19.125" x2="17.8125" y2="26.125" gradientUnits="userSpaceOnUse">
<stop stop-color="#FB5872"/>
<stop offset="1" stop-color="#EE405D"/>
</linearGradient>
</defs>
</svg>
