<svg width="32" height="32" viewBox="0 0 32 32" fill="none" xmlns="http://www.w3.org/2000/svg">
<rect width="32" height="32" rx="16" fill="white"/>
<rect x="11.7891" y="8.39062" width="11.6316" height="16.1053" rx="1" fill="#CFCFCF"/>
<path fill-rule="evenodd" clip-rule="evenodd" d="M14.92 12.8594C14.6729 12.8594 14.4727 13.0597 14.4727 13.3067V21.3594C14.4727 21.6065 14.6729 21.8067 14.92 21.8067C15.1671 21.8067 15.3674 21.6064 15.3674 21.3594V13.3067C15.3674 13.0597 15.1671 12.8594 14.92 12.8594ZM17.1562 13.3067C17.1562 13.0597 17.3565 12.8594 17.6036 12.8594C17.8507 12.8594 18.051 13.0597 18.051 13.3067V21.3594C18.051 21.6064 17.8507 21.8067 17.6036 21.8067C17.3565 21.8067 17.1562 21.6065 17.1562 21.3594V13.3067ZM19.8418 13.3067C19.8418 13.0597 20.0421 12.8594 20.2892 12.8594C20.5362 12.8594 20.7365 13.0597 20.7365 13.3067V21.3594C20.7365 21.6064 20.5362 21.8067 20.2892 21.8067C20.0421 21.8067 19.8418 21.6065 19.8418 21.3594V13.3067Z" fill="#B1B1B1"/>
<rect x="15.3672" y="7.5" width="4.47368" height="1.78947" rx="0.894737" fill="#797979"/>
<rect x="10.8945" y="8.39062" width="13.4211" height="2.68421" rx="1" fill="#9D9D9D"/>
<path fill-rule="evenodd" clip-rule="evenodd" d="M10.579 13.75C9.86799 13.75 9.32905 14.3914 9.45161 15.0918L9.45431 15.1072C9.08474 14.8619 8.56283 14.9231 8.2645 15.2786C7.92219 15.6865 8.0355 16.2898 8.50336 16.5504L9.83685 17.2931L9.89788 17.6419H10.1283C9.98097 17.7898 9.80507 17.958 9.59533 18.1482C7 20.5008 6.89453 22.4934 6.89453 23.4658C6.89453 24.4383 7.59101 25.5003 8.50397 25.5003H13.0429C14.1872 25.5003 14.8945 25.0879 14.8945 23.4658C14.8945 21.8437 14 19.5 11.8017 18.1482C11.5138 17.9712 11.308 17.8001 11.1619 17.6419H11.2601L11.3274 17.2571L12.5963 16.5504C13.0641 16.2898 13.1774 15.6865 12.8351 15.2786C12.5539 14.9434 12.0739 14.8699 11.7102 15.0681C11.8167 14.377 11.2819 13.75 10.579 13.75Z" fill="#738B57"/>
<rect x="9.1543" y="17.1484" width="3" height="1" rx="0.5" fill="#5B7340"/>
</svg>
