<svg width="193" height="206" viewBox="0 0 193 206" fill="none" xmlns="http://www.w3.org/2000/svg">
<path fill-rule="evenodd" clip-rule="evenodd" d="M24.0073 28.9023H168.523L154.072 163.096H154.07C154.069 179.058 128.189 191.998 96.2639 191.998C64.3382 191.998 38.4574 179.057 38.4574 163.095C38.4574 163.09 38.4574 163.086 38.4574 163.082L24.0073 28.9023Z" fill="url(#paint0_linear_1_10235)"/>
<ellipse cx="72.2581" cy="28.9032" rx="72.2581" ry="28.9032" transform="matrix(-1 0 0 1 168.523 0)" fill="#F1F9FF"/>
<mask id="mask0_1_10235" style="mask-type:alpha" maskUnits="userSpaceOnUse" x="0" y="71" width="193" height="205">
<path d="M37.888 72.9613C26.338 76.2616 20.0225 87.9912 20.0225 87.9912V275.292H192.723V81.344C192.723 81.344 183.373 72.4006 167.973 75.6319C152.573 78.8632 143.652 82.1399 128.407 84.3345C113.007 86.5514 92.7051 82.4233 80.1699 77.151C66.9699 71.5991 52.1699 68.8804 37.888 72.9613Z" fill="#ADE3FF"/>
<path opacity="0.5" d="M154.86 72.9613C166.41 76.2616 172.726 87.9912 172.726 87.9912V275.292H0.0249481V81.344C0.0249481 81.344 9.37498 72.4006 24.7751 75.6319C40.1751 78.8632 49.0959 82.1399 64.341 84.3345C79.7411 86.5514 100.043 82.4233 112.578 77.151C125.778 71.5991 140.578 68.8804 154.86 72.9613Z" fill="#70CEFF"/>
</mask>
<g mask="url(#mask0_1_10235)">
<path fill-rule="evenodd" clip-rule="evenodd" d="M32.4384 32.6288C32.3239 32.091 32.2656 31.5479 32.2656 31C32.2656 18.8497 60.9194 9 96.2656 9C131.612 9 160.266 18.8497 160.266 31C160.266 31.5479 160.207 32.091 160.093 32.6288L146.266 163C146.266 174.046 123.88 183 96.2656 183C68.6514 183 46.2656 174.046 46.2656 163L32.4384 32.6288Z" fill="url(#paint1_linear_1_10235)"/>
<circle opacity="0.5" cx="123.766" cy="156.5" r="5.5" fill="white"/>
<circle opacity="0.7" cx="113.266" cy="145" r="3" fill="white"/>
<circle cx="131.266" cy="117" r="2" fill="white"/>
</g>
<path fill-rule="evenodd" clip-rule="evenodd" d="M32.2656 31C32.2656 31.5479 32.3239 32.091 32.4384 32.6288L46.2656 163C46.2656 174.046 68.6514 183 96.2656 183C123.88 183 146.266 174.046 146.266 163L160.093 32.6288C160.207 32.091 160.266 31.5479 160.266 31C160.266 18.8497 131.612 9 96.2656 9C60.9194 9 32.2656 18.8497 32.2656 31Z" fill="white"/>
<defs>
<linearGradient id="paint0_linear_1_10235" x1="96.2654" y1="28.9023" x2="96.2654" y2="191.998" gradientUnits="userSpaceOnUse">
<stop stop-color="#F3FAFF"/>
<stop offset="0.895833" stop-color="#E0F2FF"/>
<stop offset="1" stop-color="#B9DFFA"/>
</linearGradient>
<linearGradient id="paint1_linear_1_10235" x1="96.2635" y1="63.4565" x2="96.2635" y2="183.457" gradientUnits="userSpaceOnUse">
<stop stop-color="#79D1FF"/>
<stop offset="1" stop-color="#36B5F7"/>
</linearGradient>
</defs>
</svg>
