<svg width="141" height="140" viewBox="0 0 141 140" fill="none" xmlns="http://www.w3.org/2000/svg">
<circle cx="70.5" cy="70" r="70" fill="#EB5147"/>
<g filter="url(#filter0_d_1155_9264)">
<rect x="47" y="45" width="40" height="46" rx="6" fill="white"/>
</g>
<rect x="53" y="55" width="28" height="4" rx="2" fill="#ECECEC"/>
<rect x="53" y="65" width="28" height="4" rx="2" fill="#ECECEC"/>
<rect x="53" y="75" width="28" height="4" rx="2" fill="#ECECEC"/>
<circle cx="81" cy="82" r="14" fill="url(#paint0_linear_1155_9264)"/>
<path fill-rule="evenodd" clip-rule="evenodd" d="M79.5 83.5C79.5 84.3284 80.1716 85 81 85C81.8284 85 82.5 84.3284 82.5 83.5L82.5 75.5C82.5 74.6716 81.8284 74 81 74C80.1716 74 79.5 74.6716 79.5 75.5L79.5 83.5ZM80.9945 87C80.1357 87 79.4395 87.6968 79.4395 88.5556C79.4395 89.4144 80.1357 90.1111 80.9945 90.1111C81.8533 90.1111 82.5495 89.4144 82.5495 88.5556C82.5495 87.6968 81.8533 87 80.9945 87Z" fill="url(#paint1_linear_1155_9264)"/>
<defs>
<filter id="filter0_d_1155_9264" x="43" y="41" width="48" height="54" filterUnits="userSpaceOnUse" color-interpolation-filters="sRGB">
<feFlood flood-opacity="0" result="BackgroundImageFix"/>
<feColorMatrix in="SourceAlpha" type="matrix" values="0 0 0 0 0 0 0 0 0 0 0 0 0 0 0 0 0 0 127 0" result="hardAlpha"/>
<feOffset/>
<feGaussianBlur stdDeviation="2"/>
<feComposite in2="hardAlpha" operator="out"/>
<feColorMatrix type="matrix" values="0 0 0 0 0.606667 0 0 0 0 0.668527 0 0 0 0 0.758333 0 0 0 0.4 0"/>
<feBlend mode="normal" in2="BackgroundImageFix" result="effect1_dropShadow_1155_9264"/>
<feBlend mode="normal" in="SourceGraphic" in2="effect1_dropShadow_1155_9264" result="shape"/>
</filter>
<linearGradient id="paint0_linear_1155_9264" x1="72.4444" y1="69.3611" x2="91.1111" y2="93.2778" gradientUnits="userSpaceOnUse">
<stop stop-color="#FF7979"/>
<stop offset="0.747259" stop-color="#FF4E4E"/>
<stop offset="1" stop-color="#F46262"/>
</linearGradient>
<linearGradient id="paint1_linear_1155_9264" x1="74.3293" y1="79.4581" x2="88.9134" y2="79.4581" gradientUnits="userSpaceOnUse">
<stop stop-color="white" stop-opacity="0.9"/>
<stop offset="1" stop-color="white"/>
</linearGradient>
</defs>
</svg>
