<svg width="18" height="161" viewBox="0 0 18 161" fill="none" xmlns="http://www.w3.org/2000/svg">
<mask id="path-1-inside-1_1_9976" fill="white">
<path d="M0 0H18V1H0V0Z"/>
</mask>
<path d="M0 0V-1H-1V0H0ZM18 0H19V-1H18V0ZM18 1V2H19V1H18ZM0 1H-1V2H0V1ZM0 1H18V-1H0V1ZM17 0V1H19V0H17ZM18 0H0V2H18V0ZM1 1V0H-1V1H1Z" fill="#CCCCCC" mask="url(#path-1-inside-1_1_9976)"/>
<mask id="path-3-inside-2_1_9976" fill="white">
<path d="M0 8H9V9H0V8Z"/>
</mask>
<path d="M0 8V7H-1V8H0ZM9 8H10V7H9V8ZM9 9V10H10V9H9ZM0 9H-1V10H0V9ZM0 9H9V7H0V9ZM8 8V9H10V8H8ZM9 8H0V10H9V8ZM1 9V8H-1V9H1Z" fill="#EEEEEE" mask="url(#path-3-inside-2_1_9976)"/>
<mask id="path-5-inside-3_1_9976" fill="white">
<path d="M0 16H9V17H0V16Z"/>
</mask>
<path d="M0 16V15H-1V16H0ZM9 16H10V15H9V16ZM9 17V18H10V17H9ZM0 17H-1V18H0V17ZM0 17H9V15H0V17ZM8 16V17H10V16H8ZM9 16H0V18H9V16ZM1 17V16H-1V17H1Z" fill="#EEEEEE" mask="url(#path-5-inside-3_1_9976)"/>
<mask id="path-7-inside-4_1_9976" fill="white">
<path d="M0 24H9V25H0V24Z"/>
</mask>
<path d="M0 24V23H-1V24H0ZM9 24H10V23H9V24ZM9 25V26H10V25H9ZM0 25H-1V26H0V25ZM0 25H9V23H0V25ZM8 24V25H10V24H8ZM9 24H0V26H9V24ZM1 25V24H-1V25H1Z" fill="#EEEEEE" mask="url(#path-7-inside-4_1_9976)"/>
<mask id="path-9-inside-5_1_9976" fill="white">
<path d="M0 32H9V33H0V32Z"/>
</mask>
<path d="M0 32V31H-1V32H0ZM9 32H10V31H9V32ZM9 33V34H10V33H9ZM0 33H-1V34H0V33ZM0 33H9V31H0V33ZM8 32V33H10V32H8ZM9 32H0V34H9V32ZM1 33V32H-1V33H1Z" fill="#EEEEEE" mask="url(#path-9-inside-5_1_9976)"/>
<mask id="path-11-inside-6_1_9976" fill="white">
<path d="M0 40H18V41H0V40Z"/>
</mask>
<path d="M0 40V39H-1V40H0ZM18 40H19V39H18V40ZM18 41V42H19V41H18ZM0 41H-1V42H0V41ZM0 41H18V39H0V41ZM17 40V41H19V40H17ZM18 40H0V42H18V40ZM1 41V40H-1V41H1Z" fill="#CCCCCC" mask="url(#path-11-inside-6_1_9976)"/>
<mask id="path-13-inside-7_1_9976" fill="white">
<path d="M0 48H9V49H0V48Z"/>
</mask>
<path d="M0 48V47H-1V48H0ZM9 48H10V47H9V48ZM9 49V50H10V49H9ZM0 49H-1V50H0V49ZM0 49H9V47H0V49ZM8 48V49H10V48H8ZM9 48H0V50H9V48ZM1 49V48H-1V49H1Z" fill="#EEEEEE" mask="url(#path-13-inside-7_1_9976)"/>
<mask id="path-15-inside-8_1_9976" fill="white">
<path d="M0 56H9V57H0V56Z"/>
</mask>
<path d="M0 56V55H-1V56H0ZM9 56H10V55H9V56ZM9 57V58H10V57H9ZM0 57H-1V58H0V57ZM0 57H9V55H0V57ZM8 56V57H10V56H8ZM9 56H0V58H9V56ZM1 57V56H-1V57H1Z" fill="#EEEEEE" mask="url(#path-15-inside-8_1_9976)"/>
<mask id="path-17-inside-9_1_9976" fill="white">
<path d="M0 64H9V65H0V64Z"/>
</mask>
<path d="M0 64V63H-1V64H0ZM9 64H10V63H9V64ZM9 65V66H10V65H9ZM0 65H-1V66H0V65ZM0 65H9V63H0V65ZM8 64V65H10V64H8ZM9 64H0V66H9V64ZM1 65V64H-1V65H1Z" fill="#EEEEEE" mask="url(#path-17-inside-9_1_9976)"/>
<mask id="path-19-inside-10_1_9976" fill="white">
<path d="M0 72H9V73H0V72Z"/>
</mask>
<path d="M0 72V71H-1V72H0ZM9 72H10V71H9V72ZM9 73V74H10V73H9ZM0 73H-1V74H0V73ZM0 73H9V71H0V73ZM8 72V73H10V72H8ZM9 72H0V74H9V72ZM1 73V72H-1V73H1Z" fill="#EEEEEE" mask="url(#path-19-inside-10_1_9976)"/>
<mask id="path-21-inside-11_1_9976" fill="white">
<path d="M0 80H18V81H0V80Z"/>
</mask>
<path d="M0 80V79H-1V80H0ZM18 80H19V79H18V80ZM18 81V82H19V81H18ZM0 81H-1V82H0V81ZM0 81H18V79H0V81ZM17 80V81H19V80H17ZM18 80H0V82H18V80ZM1 81V80H-1V81H1Z" fill="#CCCCCC" mask="url(#path-21-inside-11_1_9976)"/>
<mask id="path-23-inside-12_1_9976" fill="white">
<path d="M0 88H9V89H0V88Z"/>
</mask>
<path d="M0 88V87H-1V88H0ZM9 88H10V87H9V88ZM9 89V90H10V89H9ZM0 89H-1V90H0V89ZM0 89H9V87H0V89ZM8 88V89H10V88H8ZM9 88H0V90H9V88ZM1 89V88H-1V89H1Z" fill="#EEEEEE" mask="url(#path-23-inside-12_1_9976)"/>
<mask id="path-25-inside-13_1_9976" fill="white">
<path d="M0 96H9V97H0V96Z"/>
</mask>
<path d="M0 96V95H-1V96H0ZM9 96H10V95H9V96ZM9 97V98H10V97H9ZM0 97H-1V98H0V97ZM0 97H9V95H0V97ZM8 96V97H10V96H8ZM9 96H0V98H9V96ZM1 97V96H-1V97H1Z" fill="#EEEEEE" mask="url(#path-25-inside-13_1_9976)"/>
<mask id="path-27-inside-14_1_9976" fill="white">
<path d="M0 104H9V105H0V104Z"/>
</mask>
<path d="M0 104V103H-1V104H0ZM9 104H10V103H9V104ZM9 105V106H10V105H9ZM0 105H-1V106H0V105ZM0 105H9V103H0V105ZM8 104V105H10V104H8ZM9 104H0V106H9V104ZM1 105V104H-1V105H1Z" fill="#EEEEEE" mask="url(#path-27-inside-14_1_9976)"/>
<mask id="path-29-inside-15_1_9976" fill="white">
<path d="M0 112H9V113H0V112Z"/>
</mask>
<path d="M0 112V111H-1V112H0ZM9 112H10V111H9V112ZM9 113V114H10V113H9ZM0 113H-1V114H0V113ZM0 113H9V111H0V113ZM8 112V113H10V112H8ZM9 112H0V114H9V112ZM1 113V112H-1V113H1Z" fill="#EEEEEE" mask="url(#path-29-inside-15_1_9976)"/>
<mask id="path-31-inside-16_1_9976" fill="white">
<path d="M0 120H18V121H0V120Z"/>
</mask>
<path d="M0 120V119H-1V120H0ZM18 120H19V119H18V120ZM18 121V122H19V121H18ZM0 121H-1V122H0V121ZM0 121H18V119H0V121ZM17 120V121H19V120H17ZM18 120H0V122H18V120ZM1 121V120H-1V121H1Z" fill="#CCCCCC" mask="url(#path-31-inside-16_1_9976)"/>
<mask id="path-33-inside-17_1_9976" fill="white">
<path d="M0 128H9V129H0V128Z"/>
</mask>
<path d="M0 128V127H-1V128H0ZM9 128H10V127H9V128ZM9 129V130H10V129H9ZM0 129H-1V130H0V129ZM0 129H9V127H0V129ZM8 128V129H10V128H8ZM9 128H0V130H9V128ZM1 129V128H-1V129H1Z" fill="#EEEEEE" mask="url(#path-33-inside-17_1_9976)"/>
<mask id="path-35-inside-18_1_9976" fill="white">
<path d="M0 136H9V137H0V136Z"/>
</mask>
<path d="M0 136V135H-1V136H0ZM9 136H10V135H9V136ZM9 137V138H10V137H9ZM0 137H-1V138H0V137ZM0 137H9V135H0V137ZM8 136V137H10V136H8ZM9 136H0V138H9V136ZM1 137V136H-1V137H1Z" fill="#EEEEEE" mask="url(#path-35-inside-18_1_9976)"/>
<mask id="path-37-inside-19_1_9976" fill="white">
<path d="M0 144H9V145H0V144Z"/>
</mask>
<path d="M0 144V143H-1V144H0ZM9 144H10V143H9V144ZM9 145V146H10V145H9ZM0 145H-1V146H0V145ZM0 145H9V143H0V145ZM8 144V145H10V144H8ZM9 144H0V146H9V144ZM1 145V144H-1V145H1Z" fill="#EEEEEE" mask="url(#path-37-inside-19_1_9976)"/>
<mask id="path-39-inside-20_1_9976" fill="white">
<path d="M0 152H9V153H0V152Z"/>
</mask>
<path d="M0 152V151H-1V152H0ZM9 152H10V151H9V152ZM9 153V154H10V153H9ZM0 153H-1V154H0V153ZM0 153H9V151H0V153ZM8 152V153H10V152H8ZM9 152H0V154H9V152ZM1 153V152H-1V153H1Z" fill="#EEEEEE" mask="url(#path-39-inside-20_1_9976)"/>
<mask id="path-41-inside-21_1_9976" fill="white">
<path d="M0 160H18V161H0V160Z"/>
</mask>
<path d="M0 160V159H-1V160H0ZM18 160H19V159H18V160ZM18 161V162H19V161H18ZM0 161H-1V162H0V161ZM0 161H18V159H0V161ZM17 160V161H19V160H17ZM18 160H0V162H18V160ZM1 161V160H-1V161H1Z" fill="#CCCCCC" mask="url(#path-41-inside-21_1_9976)"/>
<mask id="path-43-inside-22_1_9976" fill="white">
<path d="M0 16H18V17H0V16Z"/>
</mask>
<path d="M0 16V15H-1V16H0ZM18 16H19V15H18V16ZM18 17V18H19V17H18ZM0 17H-1V18H0V17ZM0 17H18V15H0V17ZM17 16V17H19V16H17ZM18 16H0V18H18V16ZM1 17V16H-1V17H1Z" fill="#3B4A65" mask="url(#path-43-inside-22_1_9976)"/>
</svg>
