<svg width="48" height="48" viewBox="0 0 48 48" fill="none" xmlns="http://www.w3.org/2000/svg">
<path d="M24 -5.01377e-06C10.7452 -5.676e-06 5.699e-06 10.7452 3.67136e-06 24C1.64372e-06 37.2548 10.7452 48 24 48C37.2548 48 48 37.2548 48 24C48 10.7452 37.2548 -4.35154e-06 24 -5.01377e-06Z" fill="#DDE1E4"/>
<path fill-rule="evenodd" clip-rule="evenodd" d="M18.5 33C18.5 33.8284 19.1716 34.5 20 34.5C20.8284 34.5 21.5 33.8284 21.5 33L21.5 26.5L25 26.5C28.5899 26.5 31.5 23.5899 31.5 20C31.5 16.4101 28.5899 13.5 25 13.5L20.099 13.5C20.0822 13.5 20.0654 13.5003 20.0487 13.5008C20.0325 13.5003 20.0163 13.5 20 13.5C19.1716 13.5 18.5 14.1716 18.5 15L18.5 15.0972C18.5 15.0978 18.5 15.0984 18.5 15.099L18.5 25L18.5 26.5L18.5 33ZM21.5 16.5L21.5 23.5L25 23.5C26.933 23.5 28.5 21.933 28.5 20C28.5 18.067 26.933 16.5 25 16.5L21.5 16.5Z" fill="white"/>
</svg>
