<svg width="175" height="424" viewBox="0 0 175 424" fill="none" xmlns="http://www.w3.org/2000/svg">
<g clip-path="url(#clip0_174_82387)">
<path d="M87.8789 135.521C81.0174 135.521 66.4099 135.972 70.7318 129.521C75.0536 123.07 74.6952 116.997 74.6952 116.997L99.6952 116.691C99.6952 116.691 99.5096 122.899 104.482 129.898C109.455 136.897 94.7218 135.521 87.8602 135.521H87.8789Z" fill="#FAD5CA"/>
<mask id="mask0_174_82387" style="mask-type:alpha" maskUnits="userSpaceOnUse" x="69" y="116" width="37" height="20">
<path d="M87.8789 135.521C81.0174 135.521 66.4099 135.972 70.7318 129.521C75.0536 123.07 74.6952 116.997 74.6952 116.997L99.6952 116.691C99.6952 116.691 99.5096 122.899 104.482 129.898C109.455 136.897 94.7218 135.521 87.8602 135.521H87.8789Z" fill="#FAD5CA"/>
</mask>
<g mask="url(#mask0_174_82387)">
<path d="M101.829 115.47C101.829 120.855 95.6948 125.245 88.1096 125.245C80.5245 125.245 74.3901 120.884 74.3901 115.47C74.3901 110.055 80.5245 105.694 88.1096 105.694C95.6948 105.694 101.829 110.055 101.829 115.47Z" fill="#F4A292"/>
</g>
<path d="M53.7139 354.14C53.2135 348.703 52.867 343.462 52.9055 339.089C53.098 318.679 50.8653 270.609 56.755 267.181C62.5291 263.832 84.4325 268.993 84.7019 271.436C87.2041 293.107 78.6968 318.403 78.4273 340.192C78.3888 344.763 78.2349 349.767 77.8499 354.849C70.074 357.568 59.95 358.908 53.7139 354.14Z" fill="#FAD5CA"/>
<path d="M70.804 395.707C68.1864 401.184 59.2942 403.745 55.1368 401.696C51.0179 399.647 52.2112 391.019 54.7903 385.542C57.408 380.065 65.6073 379.71 69.7647 381.759C73.8836 383.808 73.3832 390.23 70.7655 395.707H70.804Z" fill="#E2E2E3"/>
<path d="M70.3818 393.462C67.7642 398.938 61.1047 401.145 56.9858 399.096C52.8669 397.047 51.9045 392.004 55.4075 385.424C58.2561 380.065 64.0302 378.962 68.1492 381.011C72.2681 383.06 72.9995 387.985 70.3818 393.462Z" fill="white"/>
<path d="M77.8884 354.849C77.1955 363.832 73.7311 378.411 71.8448 387.552C71.7678 388.025 68.8423 394.644 64.0689 395.748C56.6395 397.481 55.8311 388.813 55.7542 388.38C54.3684 379.357 54.5608 363.084 53.7524 354.14C64.9158 356.543 72.9612 355.913 77.8884 354.849Z" fill="#FAD5CA"/>
<path d="M54.8674 376.008C54.8674 376.008 54.521 376.008 54.521 376.126C54.752 380.697 55.2139 385.031 55.7143 388.38C55.7913 388.813 56.5997 397.482 64.0291 395.748C68.8024 394.645 71.728 387.986 71.805 387.552C72.3824 384.834 73.2293 381.524 73.9992 378.096C74.0762 377.82 74.1532 377.584 73.8837 377.623C65.2225 379.396 58.6399 378.53 54.9059 376.008H54.8674Z" fill="white"/>
<path d="M73.1929 388.92L73.4058 402.517H23.6987V402.112C23.6987 398.974 25.4512 396.123 28.1863 394.773L52.5403 384.77C53.4084 384.348 54.5384 384.365 55.2099 385.09C58.3545 388.515 61.8102 394.082 71.4241 388.042C72.1284 387.604 73.0291 388.093 73.1929 388.92Z" fill="#71706F"/>
<path d="M23.6965 405.826H73.3872V402.25H23.6965V405.826Z" fill="#D2D3DE"/>
<path d="M121.003 354.14C121.503 348.703 121.85 343.462 121.811 339.089C121.619 318.679 123.851 270.609 117.962 267.181C112.188 263.832 90.2842 268.993 90.0147 271.436C87.5126 293.107 96.0199 318.403 96.2893 340.192C96.3278 344.763 96.4818 349.767 96.8667 354.849C104.643 357.568 114.767 358.908 121.003 354.14Z" fill="#FAD5CA"/>
<path d="M104.336 393.462C106.954 398.938 113.613 401.145 117.732 399.096C121.851 397.047 122.813 392.004 119.31 385.424C116.462 380.065 110.687 378.962 106.569 381.011C102.45 383.06 101.718 387.985 104.336 393.462Z" fill="white"/>
<path d="M96.8672 354.849C97.5601 363.832 101.025 378.411 102.911 387.552C102.988 388.025 105.913 394.644 110.687 395.748C118.116 397.481 118.924 388.813 119.001 388.38C120.387 379.357 120.195 363.084 121.003 354.14C109.84 356.543 101.794 355.913 96.8672 354.849Z" fill="#FAD5CA"/>
<path d="M119.847 376.008C119.847 376.008 120.193 376.008 120.193 376.126C119.962 380.697 119.5 385.031 119 388.38C118.923 388.813 118.115 397.482 110.685 395.748C105.912 394.645 102.986 387.986 102.909 387.552C102.332 384.834 101.485 381.524 100.715 378.096C100.638 377.82 100.561 377.584 100.831 377.623C109.492 379.396 116.074 378.53 119.808 376.008H119.847Z" fill="white"/>
<path d="M101.362 388.921L101.149 402.518H150.856V402.113C150.856 398.975 149.104 396.124 146.369 394.774L122.015 384.771C121.147 384.349 120.017 384.366 119.345 385.091C116.201 388.516 112.745 394.083 103.131 388.043C102.427 387.605 101.526 388.094 101.362 388.921Z" fill="#71706F"/>
<path d="M150.859 405.827H101.168V402.251H150.859V405.827Z" fill="#D2D3DE"/>
<path d="M42.0138 243.541L33.1216 317.97C33.1216 317.97 59.0283 331.958 84.9736 322.028L87.0908 288.695L91.8256 243.028L42.0523 243.501L42.0138 243.541Z" fill="#434D52"/>
<path d="M132.896 243.54L141.673 318.009C141.673 318.009 115.882 331.997 89.9366 322.067L87.0495 288.734L83.123 243.067L132.896 243.54Z" fill="#434D52"/>
<path d="M151.266 255.816C151.574 260.308 151.843 264.681 149.765 264.839C147.724 264.997 144.837 256.525 144.529 252.073C144.221 247.581 145.684 248.093 147.763 247.936C149.803 247.778 150.958 251.324 151.266 255.816Z" fill="#FAD5CA"/>
<path d="M165.281 249.044C166.09 255.27 159.815 258.146 155.119 257.003C150.307 255.821 145.38 252.827 144.918 248.138C144.263 241.913 148.883 236.475 153.694 236.121C158.545 235.766 163.934 238.485 165.32 249.005L165.281 249.044Z" fill="#FAD5CA"/>
<path d="M162.199 257.944C163.585 261.648 163.123 265.312 161.583 266.021C160.043 266.73 157.965 264.248 156.579 260.544C155.193 256.841 155.347 253.295 156.887 252.546C158.427 251.837 160.813 254.24 162.199 257.944Z" fill="#FAD5CA"/>
<path d="M161.737 266.376C160.505 269.765 158.003 273.232 156.579 272.523C155.154 271.814 155.809 267.834 157.079 264.485C158.311 261.096 159.966 258.338 161.429 259.048C162.853 259.757 163.007 263.027 161.775 266.416L161.737 266.376Z" fill="#FAD5CA"/>
<path d="M165.548 255.857C166.934 259.561 166.78 263.107 165.24 263.855C163.7 264.565 161.314 262.161 159.928 258.457C158.542 254.754 158.696 251.208 160.236 250.459C161.776 249.75 164.162 252.153 165.548 255.857Z" fill="#FAD5CA"/>
<path d="M165.51 264.289C164.278 267.678 161.776 271.145 160.352 270.436C158.928 269.727 159.082 265.156 160.352 261.807C161.584 258.418 163.778 256.251 165.202 256.961C166.627 257.67 166.781 260.94 165.549 264.329L165.51 264.289Z" fill="#FAD5CA"/>
<path d="M166.318 250.419C167.665 253.768 167.511 256.999 165.971 257.668C164.432 258.338 162.045 256.171 160.698 252.822C159.35 249.473 160.005 243.878 161.583 243.208C163.123 242.538 164.97 247.069 166.356 250.419H166.318Z" fill="#FAD5CA"/>
<path d="M166.395 260.309C165.163 263.697 162.661 267.165 161.237 266.455C159.812 265.746 159.966 261.176 161.237 257.827C162.469 254.438 164.663 252.271 166.087 252.98C167.511 253.689 167.665 256.96 166.433 260.348L166.395 260.309Z" fill="#FAD5CA"/>
<path d="M165.434 256.646C165.434 256.646 166.203 259.325 165.664 262.516" stroke="#FAD5CA" stroke-width="0.24" stroke-miterlimit="10" stroke-linecap="round"/>
<path d="M146.798 240.909L126.657 183.225L147.531 176.346L160.497 239.036L146.798 240.909Z" fill="#FAD5CA"/>
<path d="M19.8664 255.816C19.5585 260.308 19.289 264.681 21.3677 264.839C23.4079 264.997 26.295 256.525 26.603 252.073C26.9109 247.581 25.4481 248.093 23.3694 247.936C21.3292 247.778 20.1744 251.324 19.8664 255.816Z" fill="#FAD5CA"/>
<path d="M5.85117 249.044C5.04279 255.27 11.3174 258.146 16.0137 257.003C20.8255 255.821 25.7528 252.827 26.2147 248.138C26.8691 241.913 22.2498 236.475 17.438 236.121C12.5877 235.766 7.19847 238.485 5.81268 249.005L5.85117 249.044Z" fill="#FAD5CA"/>
<path d="M8.93321 257.944C7.54741 261.648 8.00934 265.312 9.54912 266.021C11.0889 266.73 13.1676 264.248 14.5534 260.544C15.9392 256.841 15.7852 253.295 14.2454 252.546C12.7057 251.837 10.319 254.24 8.93321 257.944Z" fill="#FAD5CA"/>
<path d="M9.39553 266.376C10.6274 269.765 13.1295 273.232 14.5538 272.523C15.9781 271.814 15.3237 267.834 14.0534 264.485C12.8215 261.096 11.1663 258.338 9.70349 259.048C8.27919 259.757 8.12521 263.027 9.35704 266.416L9.39553 266.376Z" fill="#FAD5CA"/>
<path d="M5.58422 255.857C4.19842 259.561 4.3524 263.107 5.89217 263.855C7.43195 264.565 9.81861 262.161 11.2044 258.457C12.5902 254.754 12.4362 251.208 10.8965 250.459C9.35667 249.75 6.97002 252.153 5.58422 255.857Z" fill="#FAD5CA"/>
<path d="M5.62209 264.289C6.85391 267.678 9.35605 271.145 10.7803 270.436C12.2046 269.727 12.0507 265.156 10.7803 261.807C9.54852 258.418 7.35434 256.251 5.93005 256.961C4.50575 257.67 4.35178 260.94 5.5836 264.329L5.62209 264.289Z" fill="#FAD5CA"/>
<path d="M4.81453 250.419C3.46722 253.768 3.6212 256.999 5.16098 257.668C6.70075 258.338 9.08741 256.171 10.4347 252.822C11.782 249.473 11.1276 243.878 9.54934 243.208C8.00956 242.538 6.16183 247.069 4.77603 250.419H4.81453Z" fill="#FAD5CA"/>
<path d="M4.73733 260.309C5.96915 263.697 8.47129 267.165 9.89558 266.455C11.3199 265.746 11.1659 261.176 9.89558 257.827C8.66376 254.438 6.46958 252.271 5.04528 252.98C3.62099 253.689 3.46701 256.96 4.69883 260.348L4.73733 260.309Z" fill="#FAD5CA"/>
<path d="M5.6988 256.646C5.6988 256.646 4.92891 259.325 5.46784 262.516" stroke="#FAD5CA" stroke-width="0.24" stroke-miterlimit="10" stroke-linecap="round"/>
<path d="M24.3339 240.909L44.475 183.225L23.6018 176.346L10.6353 239.036L24.3339 240.909Z" fill="#FAD5CA"/>
<path d="M159.435 195.937C152.494 199.065 145.212 201.624 137.82 203.643C133.668 204.784 130.84 205.421 126.652 206.218C126.606 204.884 134.302 234.345 133.264 247.625C114.336 256.985 63.6935 255.331 41.6475 247.625C39.4235 232.955 46.9924 201.756 46.6969 202.622C46.6074 202.594 46.7863 202.65 46.6969 202.622C43.909 201.724 40.0442 200.479 35.9033 199.133C34.8729 198.797 33.8231 198.452 32.7694 198.108C23.3095 195.004 13.488 191.684 12.3682 190.871C15.6303 173.83 22.3219 151.122 38.8583 137.741C45.231 132.583 64.0774 127.931 72.3437 126.718C75.0459 130.054 87.8046 131.355 87.8046 131.355C87.8046 131.355 95.1485 132.048 102.439 126.718C108.64 128.64 130.499 135.803 138.847 143.416C152.626 155.988 156.168 179.505 159.435 195.937Z" fill="#4A73B0"/>
<path opacity="0.2" d="M39.7585 200.387C41.1752 200.869 47.3145 202.825 47.3145 202.825L45.9379 190.617C45.8066 187.725 45.6732 184.901 45.5255 182.544C44.9694 173.73 44.4215 164.6 45.7655 156.108C43.3791 165.338 43.5576 176.087 42.427 186.178C41.9119 190.776 41.1096 195.255 40.0446 199.483L39.7585 200.387Z" fill="#602826"/>
<path opacity="0.2" d="M133.264 204.772C131.847 205.254 125.236 206.555 125.236 206.555L126.424 194.471C126.556 191.58 126.689 188.756 126.837 186.399C127.393 177.584 127.941 168.454 126.597 159.963C128.983 169.192 128.805 179.941 129.935 190.032C130.45 194.631 131.253 199.11 132.318 203.338L133.264 204.772Z" fill="#602826"/>
<path d="M119.934 89.4113C120.392 95.4675 125.465 100.01 131.278 99.5176C137.092 99.0255 141.425 93.7263 140.967 87.6701C140.509 81.6139 135.436 77.0718 129.622 77.5638C123.809 78.0559 119.476 83.3551 119.934 89.4113Z" fill="#FAD5CA"/>
<path d="M54.226 89.4113C53.768 95.4675 48.6945 100.01 42.8812 99.5176C37.0679 99.0255 32.7344 93.7263 33.1924 87.6701C33.6504 81.6139 38.7238 77.0718 44.5371 77.5638C50.3504 78.0559 54.684 83.3551 54.226 89.4113Z" fill="#FAD5CA"/>
<path d="M34.7699 59.5378C35.3658 85.2659 59.2001 105.546 88.0117 104.751C116.823 103.994 139.711 82.5039 139.115 56.738C138.519 31.0477 117.139 5.77357 85.7334 6.60595C54.0126 7.47616 34.174 33.8097 34.7699 59.5378Z" fill="#372E2C"/>
<path d="M131.313 37L118.807 26.2368C118.807 26.2368 121.529 19.1996 120.824 15.474C120.44 13.4424 119.542 11.6668 118.861 10.5407C118.486 9.92088 118.8 9.09726 119.522 9.04012C121.273 8.90155 124.246 9.03122 126.875 10.919C131.791 14.448 131.716 23.3396 131.716 23.3396C131.716 23.3396 138.171 20.8563 140.592 25.8233C143.34 31.463 131.313 37 131.313 37Z" fill="#372E2C"/>
<path d="M42.5601 81.9564C43.0887 104.438 63.5298 120.02 88.3059 119.375C113.082 118.731 132.783 102.088 132.29 79.5679C131.761 57.0862 111.285 39.3813 86.5085 40.0258C61.7324 40.6703 42.0667 59.4367 42.5953 81.9564H42.5601Z" fill="#FAD5CA"/>
<path d="M86.4546 91.1953V95.5028C86.4546 95.7741 86.5076 96.0285 86.6135 96.2659C87.0019 97.1986 88.1318 97.6565 89.1381 97.3852L90.3563 96.8255" stroke="#B45C63" stroke-width="1.69511" stroke-linecap="round" stroke-linejoin="round"/>
<path d="M79.626 102.686C79.626 102.686 83.745 104.775 87.917 104.775C92.0891 104.775 96.2081 102.686 96.2081 102.686" stroke="#B45C63" stroke-width="1.69511" stroke-linecap="round" stroke-linejoin="round"/>
<path d="M107.913 85.3935C107.913 88.5707 106.426 91.1568 104.537 91.1938C102.647 91.2307 101.11 88.6816 101.085 85.5044C101.085 82.3271 102.571 79.741 104.461 79.7041C106.351 79.7041 107.888 82.2163 107.913 85.3935Z" fill="#1A1A1A"/>
<path d="M65.9707 85.3937C65.9707 88.571 67.4572 91.1572 69.3469 91.1942C71.2365 91.1942 72.7734 88.6819 72.7986 85.5046C72.7986 82.3272 71.3121 79.741 69.4225 79.7041C67.5328 79.7041 65.9959 82.2164 65.9707 85.3937Z" fill="#1A1A1A"/>
<path d="M51.5603 32.8496C47.6863 38.0199 47.414 62.3003 63.0043 62.3003C78.5947 62.3003 97.6065 45.4867 106.148 32.8496H45.5732H51.5603Z" fill="#372E2C"/>
<path d="M120.861 37.7588C124.267 43.4878 129.847 59.72 116.969 60.1974C102.803 60.1974 95.0757 43.41 95.0757 37.7588H120.861Z" fill="#372E2C"/>
<path d="M65.7778 71.5225L75.3829 71.3167M99.3954 70.8025L109 70.5967" stroke="black" stroke-width="1.69511" stroke-linecap="round"/>
</g>
<defs>
<clipPath id="clip0_174_82387">
<rect width="175" height="424" fill="white"/>
</clipPath>
</defs>
</svg>
