<svg width="264" height="652" viewBox="0 0 264 652" fill="none" xmlns="http://www.w3.org/2000/svg">
<g clip-path="url(#clip0_174_81901)">
<path d="M168.75 166.978C170.911 164.394 173.044 163.934 175.402 164.412C177.093 164.755 178.901 165.58 180.912 166.447C199.46 174.447 215.242 188.551 219.794 208.557C225.289 232.697 225.604 232.834 233.782 270.656L236.294 278.815C234.272 272.24 238.316 285.389 236.294 278.815C238.777 286.891 250.518 328.424 253.002 336.5C250.78 329.276 255.224 343.724 253.002 336.5C254.871 342.579 256.94 348.462 258.096 354.713C259.054 359.892 259.793 365.109 260.505 370.324C261.034 374.208 261.544 378.093 262.002 381.986C262.555 386.672 263.147 391.535 262.452 396.209C261.715 401.17 260.184 405.915 258.743 410.691C258.518 411.438 258.286 412.204 257.798 412.81C256.918 413.904 254.977 414.105 254.126 412.814C252.275 410.017 253.498 406.081 254.28 403.152C255.01 400.423 255.902 397.711 256.165 394.884C256.42 392.104 255.799 389.54 254.786 386.935C254.057 385.06 253.405 383.165 252.633 381.297C252.419 380.782 252.192 380.253 251.929 379.747C251.832 379.552 251.728 379.368 251.619 379.182C251.083 378.269 250.407 377.464 249.477 376.967C248.699 376.555 247.394 376.221 246.551 376.604C245.638 377.015 245.628 378.177 245.518 379.032C245.384 380.048 245.47 381.076 245.587 382.094C245.748 383.458 246.009 384.874 245.964 386.249C245.956 386.624 245.921 386.998 245.856 387.369C245.811 387.659 245.737 387.954 245.648 388.24C244.686 391.299 240.333 393.816 238.883 389.569C238.574 388.662 238.493 387.694 238.398 386.739C237.933 382.195 236.516 377.718 236.881 373.155C237.118 370.25 237.67 367.386 238.227 364.532C238.869 361.256 240.226 355.094 241.202 352C239.336 349.062 221.782 307.723 218.43 288.187C215.077 268.651 183.846 223.745 183.846 223.745C178.079 214.39 172.543 204.897 167.243 195.284C164.281 189.912 164.375 184.2 164.596 178.131C164.74 174.28 166.274 169.928 168.743 166.971L168.75 166.978Z" fill="#FFD7CF"/>
<path d="M233.996 336.465L211.115 277.587L238.017 270.324L249.2 323.5L233.996 336.465Z" fill="#FFD7CF"/>
<path d="M99.252 165.978C97.0909 163.394 94.9576 162.934 92.5996 163.412C90.9088 163.755 89.1013 164.58 87.0902 165.447C68.542 173.447 52.7601 187.551 48.2082 207.557C42.7129 231.697 42.3978 231.834 34.22 269.656L31.7081 277.815C33.7301 271.24 29.6861 284.389 31.7081 277.815C29.2246 285.891 17.4835 327.424 15 335.5C17.2223 328.276 12.7777 342.724 15 335.5C13.1307 341.579 11.062 347.462 9.90615 353.713C8.94783 358.892 8.20916 364.109 7.49743 369.324C6.96813 373.208 6.45777 377.093 6.00021 380.986C5.44678 385.672 4.85454 390.535 5.54948 395.209C6.2873 400.17 7.81792 404.915 9.25914 409.691C9.48406 410.438 9.71637 411.204 10.2038 411.81C11.0844 412.904 13.0246 413.105 13.8759 411.814C15.7266 409.017 14.5038 405.081 13.722 402.152C12.9924 399.423 12.1003 396.711 11.8369 393.884C11.5817 391.104 12.2033 388.54 13.216 385.935C13.9447 384.06 14.5972 382.165 15.3692 380.297C15.5833 379.782 15.8104 379.253 16.0732 378.747C16.1695 378.552 16.2741 378.368 16.3828 378.182C16.9185 377.269 17.5952 376.464 18.5246 375.967C19.3029 375.555 20.6083 375.221 21.4513 375.604C22.364 376.015 22.3744 377.177 22.484 378.032C22.6178 379.048 22.5322 380.076 22.4152 381.094C22.254 382.458 21.9934 383.874 22.0375 385.249C22.0456 385.624 22.0805 385.998 22.1463 386.369C22.1907 386.659 22.2649 386.954 22.3537 387.24C23.3163 390.299 27.6692 392.816 29.1187 388.569C29.4281 387.662 29.5089 386.694 29.6036 385.739C30.0686 381.195 31.4864 376.718 31.1214 372.155C30.8838 369.25 30.3319 366.386 29.775 363.532C29.1331 360.256 27.7759 354.094 26.8 351C28.6664 348.062 46.2203 306.723 49.5724 287.187C52.9245 267.651 84.156 222.745 84.156 222.745C89.9225 213.39 95.4594 203.897 100.759 194.284C103.721 188.912 103.627 183.2 103.406 177.131C103.262 173.28 101.728 168.928 99.2585 165.971L99.252 165.978Z" fill="#FFD7CF"/>
<path d="M209.744 139.643C203.557 130.693 177.095 124.353 162.45 121.2C157.788 125.637 148.383 131.883 132.334 131.883C114.286 131.883 105.066 125.43 101.365 121.886C88.6545 124.958 68.8576 130.222 59.2168 136.791C59.2168 136.791 77.2249 283.018 75.9114 288.325C75.2655 290.933 69.7901 302.621 76.1509 302.628H99.471C118.658 302.628 131.935 302.893 148.942 305.476C165.948 308.059 196.99 302.628 196.99 302.628C203.822 296.508 199.504 297.096 198.35 286.576C197.581 279.582 197.233 230.462 197.088 198.311L209.744 139.643Z" fill="#4A73B0"/>
<path d="M132.275 131.503L132.239 131.5H132.203C116.429 131.5 107.397 126.106 103.094 122.527C105.716 121.903 108.186 121.332 110.045 120.932C115.492 124.11 123.199 126.078 132.203 126.078C141.211 126.078 149.327 124.004 154.792 120.672C156.606 121.012 158.912 121.47 161.528 122.028C161.567 124.54 159.658 127.121 155.13 129.043C150.235 131.12 142.587 132.246 132.275 131.503Z" fill="#4A73B0" stroke="#4A73B0" stroke-width="2"/>
<path d="M87 596L89.3273 619H117V596H87Z" fill="#3F3F3F"/>
<path d="M117.734 614.826L118.068 635.754H40.0078V635.131C40.0078 630.301 42.7599 625.913 47.0551 623.836L85.3008 608.438C86.6639 607.789 88.4386 607.815 89.4931 608.931C94.4314 614.202 99.8583 622.771 114.956 613.475C116.062 612.8 117.477 613.553 117.734 614.826Z" fill="#B0784D"/>
<path d="M40.0001 641.26H118.035V635.755H40.0001V641.26Z" fill="#985936"/>
<path d="M187.068 596L184.741 619H157.068V596H187.068Z" fill="#3F3F3F"/>
<path d="M156.335 614.826L156 635.754H234.061V635.131C234.061 630.301 231.309 625.913 227.013 623.836L188.768 608.438C187.404 607.789 185.63 607.815 184.575 608.931C179.637 614.202 174.21 622.771 159.112 613.475C158.006 612.8 156.592 613.553 156.335 614.826Z" fill="#B0784D"/>
<path d="M234.068 641.26H156.034V635.755H234.068V641.26Z" fill="#985936"/>
<path d="M166.122 302.693V302.628H111.88V302.704L76.2017 302.628C76.2017 340.158 83.4405 595.679 83.4405 595.679L102.12 599.252L119.903 595.679C119.903 595.679 123.909 526.494 123.811 513.715C123.713 500.938 126.532 449.152 126.532 449.152L134.58 338.512H138.6L147.675 449.152C147.675 449.152 149.134 500.935 149.036 513.715C148.938 526.491 152.944 595.679 152.944 595.679L173.466 599.252L189.406 595.679C189.406 595.679 196.645 340.158 196.645 302.628L166.119 302.693H166.122Z" fill="#DFE3E8"/>
<path d="M170.821 59.5788C179.25 18.0615 161.061 0 131.028 0C118.546 0 113.724 8.48845 113.724 8.48845C113.724 8.48845 80.817 14.6553 93.9557 59.5824H170.825L170.821 59.5788Z" fill="#372E2C"/>
<path d="M148.945 92.0996H116.583L114.954 118.914L135.669 124.479L150.574 118.914L148.945 92.0996Z" fill="#FFD7CF"/>
<path d="M117 95.7417C117 95.7417 122.601 109.633 132.133 112.555C134.688 113.323 137.39 113.067 139.847 112.016C143.434 110.479 149.712 106.111 149.438 99.9C148.991 89.8077 151.7 93.7641 151.7 93.7641C151.7 93.7641 134.295 108.684 117 95.7161V95.7417Z" fill="#F4A292"/>
<path d="M148.089 20.9814C168.423 20.9814 165.019 53.8651 165.179 60.3657C165.386 68.8432 161.507 86.8359 150.814 95.1828C145.328 99.4633 139.09 102.452 132.831 102.55C126.282 102.652 119.711 99.6665 113.97 95.1828C103.274 86.8359 99.3986 68.8432 99.6054 60.3657C99.765 53.8651 96.3579 20.9814 116.695 20.9814H148.096H148.089Z" fill="#FFD7CF"/>
<path d="M132.167 85.9969C126.297 85.9969 122.364 82.8124 122.303 82.7636C121.903 82.4314 121.9 81.892 122.288 81.5538C122.677 81.2155 123.318 81.2094 123.721 81.5385C124.037 81.8006 131.598 87.8498 141.351 81.1911C141.786 80.8925 142.423 80.9504 142.776 81.3191C143.125 81.6879 143.06 82.2272 142.625 82.5259C138.799 85.1376 135.226 86 132.174 86L132.167 85.9969Z" fill="#B45C63"/>
<path d="M119.907 56.8329C119.907 58.7627 118.847 60.3298 117.537 60.3298C116.227 60.3298 115.168 58.7627 115.168 56.8329C115.168 54.903 116.227 53.3359 117.537 53.3359C118.847 53.3359 119.907 54.903 119.907 56.8329Z" fill="#1A1A1A"/>
<path d="M149.613 56.8329C149.613 58.7627 148.553 60.3298 147.243 60.3298C145.934 60.3298 144.874 58.7627 144.874 56.8329C144.874 54.903 145.934 53.3359 147.243 53.3359C148.553 53.3359 149.613 54.903 149.613 56.8329Z" fill="#1A1A1A"/>
<path d="M113 47.001H121.444M142.556 47.001H151" stroke="black" stroke-width="1.69511" stroke-linecap="round"/>
<path d="M160.937 80.7885C167.846 76.236 176.325 68.2336 173.88 59.2192C172.791 55.2107 167.871 53.1467 164.036 55.0185L160.937 80.7885Z" fill="#FFD7CF"/>
<path d="M103.84 80.7885C96.931 76.236 88.4512 68.2336 90.8968 59.2192C91.9854 55.2107 96.9056 53.1467 100.741 55.0185L103.84 80.7885Z" fill="#FFD7CF"/>
<path d="M130.617 65.252V70.4194C130.617 70.7449 130.678 71.0501 130.8 71.3349C131.245 72.4539 132.542 73.0032 133.696 72.6776L135.094 72.0063" stroke="#B45C63" stroke-width="1.69511" stroke-linecap="round" stroke-linejoin="round"/>
<path d="M94.8774 51.1807L101.692 62.934C101.692 62.934 98.5386 46.1022 102.123 32.459L97.1525 40.1095L94.8811 51.1844L94.8774 51.1807Z" fill="#372E2C"/>
<path d="M169.827 50.543L163.013 62.2963C163.013 62.2963 166.003 45.4645 162.421 31.8213L167.552 39.4718L169.823 50.5467L169.827 50.543Z" fill="#372E2C"/>
<path d="M119.906 20.9822H135.93C135.93 20.9822 130.61 14.079 125.549 15.6751C120.487 17.2712 119.906 20.9822 119.906 20.9822Z" fill="#372E2C"/>
<path d="M136.768 26.5098C139.678 30.9245 140.512 36.3948 143.005 41.0562C147.57 49.5846 158.03 54.5035 167.512 52.5809C167.018 47.1106 167.41 41.5931 166.967 36.1228C166.525 30.6488 165.142 25.0298 161.615 20.8218C157.127 15.4712 149.968 13.2584 143.125 11.8727C135.273 10.2838 126.524 9.5873 119.797 13.9367C112.486 18.6634 119.91 20.985 119.91 20.985C128.894 14.8799 134.119 22.4905 136.771 26.5134L136.768 26.5098Z" fill="#372E2C"/>
<path d="M119.906 20.9819C119.906 20.9819 95.9404 28.734 101.692 62.9308L97.1523 47.6915L103.84 19.1319L117.537 13.8066L119.906 20.9747V20.9819Z" fill="#372E2C"/>
<path d="M118.317 19.9186C115.777 17.1108 113.956 13.6864 113.06 10.0045L114.38 9.68164C115.226 13.1423 116.935 16.3636 119.326 19.0044L118.317 19.9186Z" fill="#483A37"/>
<path d="M154.595 119.621C152.087 119.157 150.574 118.914 150.574 118.914H114.954C114.954 118.914 113.168 119.248 110.222 119.875C115.494 123.057 123.379 125.081 132.207 125.081C141.035 125.081 149.33 122.948 154.598 119.621H154.595Z" fill="#FFD7CF"/>
<path d="M209.744 139.642C216.797 147.155 239.076 262.732 239.076 262.732L204.686 270.713L185.368 213.684L209.744 139.639V139.642Z" fill="#4A73B0"/>
<path d="M201.83 264.768C200.36 265.656 199.91 267.59 200.807 269.055L206.79 284.657C207.204 285.336 207.661 286.05 208.383 286.38C209.199 286.754 210.153 286.544 211.028 286.326C217.61 284.69 229.638 280.333 236.22 278.694C237.955 278.262 239.769 277.79 241.079 276.575C242.389 275.36 242.969 273.154 241.837 271.772C241.449 271.297 240.879 270.924 240.741 270.325C240.575 269.599 241.119 268.932 241.456 268.272C242.98 265.272 240.306 261.057 239.109 258.329C236.993 253.522 234.885 254.534 229.845 255.329C221.09 256.707 209.471 260.153 201.833 264.768H201.83Z" fill="#4E6494"/>
<path d="M32.3732 338.478L58.3276 277.587L31.4298 270.324L14.7207 336.501L32.3732 338.478Z" fill="#FFD7CF"/>
<path d="M59.2201 136.791C48.0553 146.861 30.3701 262.732 30.3701 262.732L64.7607 270.713L84.0787 213.684L59.2201 136.791Z" fill="#4A73B0"/>
<path d="M67.6164 264.768C69.0859 265.656 69.5358 267.59 68.6396 269.055L62.6563 284.657C62.2426 285.336 61.7854 286.05 61.0634 286.38C60.2433 286.754 59.2927 286.544 58.4182 286.326C51.8362 284.69 39.8078 280.333 33.2258 278.694C31.4914 278.262 29.6771 277.79 28.3672 276.575C27.0574 275.36 26.4768 273.154 27.6089 271.772C27.9971 271.297 28.5668 270.924 28.7047 270.325C28.8716 269.599 28.3273 268.932 27.9899 268.272C26.4659 265.272 29.1401 261.057 30.3375 258.329C32.4529 253.522 34.561 254.534 39.601 255.329C48.3565 256.707 59.9748 260.153 67.6127 264.768H67.6164Z" fill="#4E6494"/>
<path d="M69.7736 172.321L68.4141 172.377L71.498 246.87L72.8575 246.814L69.7736 172.321Z" fill="#4E6494"/>
<path d="M199.078 169.956L195.976 249.24L197.335 249.293L200.437 170.009L199.078 169.956Z" fill="#4E6494"/>
</g>
<defs>
<clipPath id="clip0_174_81901">
<rect width="264" height="652" fill="white"/>
</clipPath>
</defs>
</svg>
