<svg width="123" height="110" viewBox="0 0 123 110" fill="none" xmlns="http://www.w3.org/2000/svg">
<g filter="url(#filter0_i_993_64338)">
<path d="M71.8485 4.11362C72.1568 3.38123 72.2071 2.70097 71.9524 2.1213C70.9529 -0.154104 65.6336 -0.0178969 60.0715 2.42553C59.4018 2.71971 58.7592 3.03393 58.1485 3.36306C58.2584 2.97615 58.2579 2.60961 58.1326 2.27683C57.4514 0.467848 53.34 0.341644 48.9496 1.99495C46.9135 2.76167 45.175 3.77645 43.9639 4.82474C37.9085 5.28035 33.1512 7.65719 33.3371 10.1347C33.3541 10.3617 33.4121 10.5817 33.5079 10.7937C33.3225 10.8576 33.1363 10.9246 32.9496 10.9949C32.1917 11.2803 31.4751 11.6001 30.8116 11.9431C30.2823 11.0953 29.632 10.5775 28.8909 10.4956C27.1821 10.3068 25.4383 12.4851 24.3048 15.8447C23.8878 15.0455 23.345 14.5471 22.7062 14.4623C20.8005 14.2091 18.7583 17.7329 18.1285 22.3464C17.286 21.1178 16.3366 20.4458 15.4499 20.5996C13.9559 20.8587 13.0837 23.3853 13.1642 26.6939C11.8913 26.3991 10.8479 26.528 10.2091 27.1558C8.7613 28.579 9.84105 32.1256 12.6064 35.7385C9.27069 36.5429 7.02767 38.0315 7.04396 39.714C7.05323 40.6729 7.79494 41.5546 9.05141 42.2726C8.81484 42.7542 8.69314 43.3655 8.68076 44.0753C7.13023 43.1121 5.73312 42.825 4.79228 43.4272C2.69902 44.7669 3.65697 50.001 6.9319 55.1179C10.2068 60.2347 14.5586 63.2966 16.6519 61.9569C16.7249 61.9101 16.7942 61.8586 16.8599 61.8026L17.5004 62.5014L115.5 59.0014L113.079 46.4914C114.372 46.695 115.405 46.4917 115.998 45.8188C117.64 43.9536 115.276 39.1868 110.717 35.1718C110.63 35.096 110.544 35.0209 110.458 34.9467C112.704 34.2614 114.154 33.1655 114.235 31.8527C114.354 29.9224 111.48 28.0921 107.341 27.1982C107.519 27.0306 107.661 26.8396 107.765 26.6251C108.846 24.3873 105.289 20.4306 99.8187 17.7873C99.0858 17.4332 98.3557 17.1205 97.6383 16.8501C96.585 12.3855 94.5024 9.27455 92.4736 9.5014C91.548 9.6049 90.765 10.3884 90.1831 11.6454C88.4586 7.19328 85.8385 4.26781 83.8137 4.81721C83.3166 4.9521 82.8943 5.28589 82.5515 5.78253C79.7571 2.20364 76.6045 0.269714 74.8641 1.30969C73.9471 1.85768 73.5715 3.14216 73.6888 4.8429C73.06 4.37108 72.4359 4.11401 71.8485 4.11362Z" fill="#FAF0DE"/>
<path d="M71.8485 4.11362C72.1568 3.38123 72.2071 2.70097 71.9524 2.1213C70.9529 -0.154104 65.6336 -0.0178969 60.0715 2.42553C59.4018 2.71971 58.7592 3.03393 58.1485 3.36306C58.2584 2.97615 58.2579 2.60961 58.1326 2.27683C57.4514 0.467848 53.34 0.341644 48.9496 1.99495C46.9135 2.76167 45.175 3.77645 43.9639 4.82474C37.9085 5.28035 33.1512 7.65719 33.3371 10.1347C33.3541 10.3617 33.4121 10.5817 33.5079 10.7937C33.3225 10.8576 33.1363 10.9246 32.9496 10.9949C32.1917 11.2803 31.4751 11.6001 30.8116 11.9431C30.2823 11.0953 29.632 10.5775 28.8909 10.4956C27.1821 10.3068 25.4383 12.4851 24.3048 15.8447C23.8878 15.0455 23.345 14.5471 22.7062 14.4623C20.8005 14.2091 18.7583 17.7329 18.1285 22.3464C17.286 21.1178 16.3366 20.4458 15.4499 20.5996C13.9559 20.8587 13.0837 23.3853 13.1642 26.6939C11.8913 26.3991 10.8479 26.528 10.2091 27.1558C8.7613 28.579 9.84105 32.1256 12.6064 35.7385C9.27069 36.5429 7.02767 38.0315 7.04396 39.714C7.05323 40.6729 7.79494 41.5546 9.05141 42.2726C8.81484 42.7542 8.69314 43.3655 8.68076 44.0753C7.13023 43.1121 5.73312 42.825 4.79228 43.4272C2.69902 44.7669 3.65697 50.001 6.9319 55.1179C10.2068 60.2347 14.5586 63.2966 16.6519 61.9569C16.7249 61.9101 16.7942 61.8586 16.8599 61.8026L17.5004 62.5014L115.5 59.0014L113.079 46.4914C114.372 46.695 115.405 46.4917 115.998 45.8188C117.64 43.9536 115.276 39.1868 110.717 35.1718C110.63 35.096 110.544 35.0209 110.458 34.9467C112.704 34.2614 114.154 33.1655 114.235 31.8527C114.354 29.9224 111.48 28.0921 107.341 27.1982C107.519 27.0306 107.661 26.8396 107.765 26.6251C108.846 24.3873 105.289 20.4306 99.8187 17.7873C99.0858 17.4332 98.3557 17.1205 97.6383 16.8501C96.585 12.3855 94.5024 9.27455 92.4736 9.5014C91.548 9.6049 90.765 10.3884 90.1831 11.6454C88.4586 7.19328 85.8385 4.26781 83.8137 4.81721C83.3166 4.9521 82.8943 5.28589 82.5515 5.78253C79.7571 2.20364 76.6045 0.269714 74.8641 1.30969C73.9471 1.85768 73.5715 3.14216 73.6888 4.8429C73.06 4.37108 72.4359 4.11401 71.8485 4.11362Z" fill="url(#paint0_radial_993_64338)" fill-opacity="0.2"/>
</g>
<path d="M0 50C0 47.7909 1.79086 46 4 46H119C121.209 46 123 47.7909 123 50V55C123 81.5097 101.51 103 75 103H48C21.4903 103 0 81.5097 0 55V50Z" fill="url(#paint1_linear_993_64338)"/>
<path d="M38 102H85V104C85 107.314 82.3137 110 79 110H44C40.6863 110 38 107.314 38 104V102Z" fill="#E0592B"/>
<ellipse cx="31.4451" cy="36.4626" rx="4.53774" ry="4.62115" transform="rotate(40.711 31.4451 36.4626)" fill="url(#paint2_linear_993_64338)"/>
<ellipse cx="53.6403" cy="33.7288" rx="4.53774" ry="4.62115" transform="rotate(1.37572 53.6403 33.7288)" fill="url(#paint3_linear_993_64338)"/>
<ellipse cx="47.6403" cy="15.7288" rx="4.53774" ry="4.62115" transform="rotate(1.37572 47.6403 15.7288)" fill="url(#paint4_linear_993_64338)"/>
<ellipse cx="75.468" cy="18.4722" rx="4.53774" ry="4.62115" transform="rotate(42.3675 75.468 18.4722)" fill="url(#paint5_linear_993_64338)"/>
<ellipse cx="90.4643" cy="34.4714" rx="4.53774" ry="4.62115" transform="rotate(-55.7117 90.4643 34.4714)" fill="url(#paint6_linear_993_64338)"/>
<defs>
<filter id="filter0_i_993_64338" x="3.68359" y="0.5" width="112.836" height="62" filterUnits="userSpaceOnUse" color-interpolation-filters="sRGB">
<feFlood flood-opacity="0" result="BackgroundImageFix"/>
<feBlend mode="normal" in="SourceGraphic" in2="BackgroundImageFix" result="shape"/>
<feColorMatrix in="SourceAlpha" type="matrix" values="0 0 0 0 0 0 0 0 0 0 0 0 0 0 0 0 0 0 127 0" result="hardAlpha"/>
<feOffset/>
<feGaussianBlur stdDeviation="1"/>
<feComposite in2="hardAlpha" operator="arithmetic" k2="-1" k3="1"/>
<feColorMatrix type="matrix" values="0 0 0 0 0.895833 0 0 0 0 0.747861 0 0 0 0 0.48151 0 0 0 0.35 0"/>
<feBlend mode="normal" in2="shape" result="effect1_innerShadow_993_64338"/>
</filter>
<radialGradient id="paint0_radial_993_64338" cx="0" cy="0" r="1" gradientUnits="userSpaceOnUse" gradientTransform="translate(41 23.002) rotate(64.1919) scale(43.8757 79.8492)">
<stop stop-color="white"/>
<stop offset="1" stop-color="#F7F7F7"/>
</radialGradient>
<linearGradient id="paint1_linear_993_64338" x1="61.5" y1="46" x2="61.5" y2="103" gradientUnits="userSpaceOnUse">
<stop stop-color="#FF824D"/>
<stop offset="1" stop-color="#F46436"/>
</linearGradient>
<linearGradient id="paint2_linear_993_64338" x1="31.4451" y1="31.8414" x2="31.4451" y2="41.0837" gradientUnits="userSpaceOnUse">
<stop stop-color="#9DC236"/>
<stop offset="1" stop-color="#BFD77D"/>
</linearGradient>
<linearGradient id="paint3_linear_993_64338" x1="53.6403" y1="29.1076" x2="53.6403" y2="38.3499" gradientUnits="userSpaceOnUse">
<stop stop-color="#9DC236"/>
<stop offset="1" stop-color="#BFD77D"/>
</linearGradient>
<linearGradient id="paint4_linear_993_64338" x1="47.6403" y1="11.1076" x2="47.6403" y2="20.3499" gradientUnits="userSpaceOnUse">
<stop stop-color="#9DC236"/>
<stop offset="1" stop-color="#BFD77D"/>
</linearGradient>
<linearGradient id="paint5_linear_993_64338" x1="75.468" y1="13.851" x2="75.468" y2="23.0933" gradientUnits="userSpaceOnUse">
<stop stop-color="#9DC236"/>
<stop offset="1" stop-color="#BFD77D"/>
</linearGradient>
<linearGradient id="paint6_linear_993_64338" x1="90.4643" y1="29.8503" x2="90.4643" y2="39.0926" gradientUnits="userSpaceOnUse">
<stop stop-color="#9DC236"/>
<stop offset="1" stop-color="#BFD77D"/>
</linearGradient>
</defs>
</svg>
