<svg width="311" height="264" viewBox="0 0 311 264" fill="none" xmlns="http://www.w3.org/2000/svg">
<path d="M32.1328 0V240H310.996" stroke="#EEEEEE"/>
<path d="M27.6562 16H32.4062" stroke="#EEEEEE"/>
<path d="M27.6562 48H32.4062" stroke="#EEEEEE"/>
<path d="M27.6562 80H32.4062" stroke="#EEEEEE"/>
<path d="M27.6562 112H32.4062" stroke="#EEEEEE"/>
<path d="M27.6562 144H32.4062" stroke="#EEEEEE"/>
<path d="M27.6562 176H32.4062" stroke="#EEEEEE"/>
<path d="M27.6562 208H32.4062" stroke="#EEEEEE"/>
<path d="M90.9062 244.75L90.9062 240" stroke="#EEEEEE"/>
<path d="M142.906 244.75L142.906 240" stroke="#EEEEEE"/>
<path d="M194.906 244.75L194.906 240" stroke="#EEEEEE"/>
<path d="M246.906 244.75L246.906 240" stroke="#EEEEEE"/>
<path d="M298.906 244.75L298.906 240" stroke="#EEEEEE"/>
<path d="M62.3438 166L81.4496 123L101.561 183L124.689 123L142.79 203L184.018 113L206.141 176L224.241 71L242.341 221L260.944 105L284.575 203" stroke="#EEEEEE" stroke-width="2"/>
<ellipse cx="80.9548" cy="124.5" rx="4.52508" ry="4.5" fill="#6E809F"/>
<ellipse cx="124.189" cy="125.5" rx="4.52508" ry="4.5" fill="#6E809F"/>
<ellipse cx="184.525" cy="115.5" rx="4.52508" ry="4.5" fill="#6E809F"/>
<ellipse cx="224.744" cy="72.5" rx="4.52508" ry="4.5" fill="white" stroke="#EB5147" stroke-width="3"/>
<ellipse cx="261.955" cy="106.5" rx="4.52508" ry="4.5" fill="#6E809F"/>
<ellipse cx="285.08" cy="204.5" rx="4.52508" ry="4.5" fill="#6E809F"/>
<ellipse cx="205.642" cy="174.5" rx="4.52508" ry="4.5" fill="#6E809F"/>
<ellipse cx="143.299" cy="201.5" rx="4.52508" ry="4.5" fill="#6E809F"/>
<ellipse cx="101.064" cy="182.5" rx="4.52508" ry="4.5" fill="#6E809F"/>
<ellipse cx="61.8454" cy="165.5" rx="4.52508" ry="4.5" fill="#6E809F"/>
<rect width="8.02232" height="8.02232" transform="matrix(0.709069 0.705139 -0.709069 0.705139 244.016 215)" fill="#EB5147"/>
<path d="M7.86094 11.1016V21H6.6168V12.3867H6.56211L4.15586 13.9863V12.7422L6.6168 11.1016H7.86094ZM13.6082 21.1367C11.5232 21.1367 10.0877 19.9814 10.0945 18.375C10.0877 17.0967 10.9764 16.0371 12.1043 15.8594V15.8047C11.1199 15.5791 10.4705 14.6699 10.4773 13.5898C10.4705 12.0791 11.7967 10.9648 13.6082 10.9648C15.4129 10.9648 16.7391 12.0791 16.7527 13.5898C16.7391 14.6699 16.0828 15.5791 15.1121 15.8047V15.8594C16.2332 16.0371 17.1219 17.0967 17.1355 18.375C17.1219 19.9814 15.6727 21.1367 13.6082 21.1367ZM11.325 18.3066C11.3045 19.3457 12.1863 20.0498 13.6082 20.0566C15.0232 20.0498 15.9051 19.3457 15.9051 18.3066C15.9051 17.2129 14.9412 16.4062 13.6082 16.4062C12.282 16.4062 11.3045 17.2129 11.325 18.3066ZM11.6668 13.6855C11.6736 14.6836 12.4734 15.3604 13.6082 15.3672C14.7361 15.3604 15.5496 14.6836 15.5496 13.6855C15.5496 12.6943 14.7635 12.0244 13.6082 12.0312C12.4324 12.0244 11.6736 12.6943 11.6668 13.6855ZM21.8301 21.1367C19.6357 21.1367 18.3643 19.291 18.3711 16.0508C18.3643 12.8379 19.6494 10.9648 21.8301 10.9648C24.0039 10.9648 25.2891 12.8379 25.2891 16.0508C25.2891 19.291 24.0244 21.1367 21.8301 21.1367ZM19.5605 16.0508C19.5674 18.6143 20.3945 20.043 21.8301 20.043C23.2588 20.043 24.0928 18.6143 24.0859 16.0508C24.0928 13.4873 23.252 12.0381 21.8301 12.0312C20.4082 12.0381 19.5674 13.4873 19.5605 16.0508Z" fill="#888888"/>
<path d="M7.76523 43.1016V53H6.52109V44.3867H6.46641L4.06016 45.9863V44.7422L6.52109 43.1016H7.76523ZM13.6492 53.1367C11.9334 53.1162 10.0398 52.0977 10.0398 48.4336C10.0398 44.9268 11.4754 42.9648 13.7996 42.9648C15.5428 42.9648 16.7596 44.0381 17.0125 45.5898H15.7957C15.5701 44.7148 14.9002 44.0586 13.7996 44.0586C12.1727 44.0586 11.1951 45.4463 11.202 47.832H11.325C11.8924 47.0049 12.8016 46.5195 13.868 46.5195C15.6248 46.5195 17.0945 47.8867 17.0945 49.8008C17.0945 51.667 15.7342 53.1572 13.6492 53.1367ZM11.366 49.8281C11.3729 50.9902 12.323 52.0498 13.6492 52.0566C14.9275 52.0498 15.8982 51.0449 15.9051 49.8145C15.8982 48.5977 14.9686 47.6064 13.6766 47.5996C12.3777 47.6064 11.3797 48.6592 11.366 49.8281ZM21.8301 53.1367C19.6357 53.1367 18.3643 51.291 18.3711 48.0508C18.3643 44.8379 19.6494 42.9648 21.8301 42.9648C24.0039 42.9648 25.2891 44.8379 25.2891 48.0508C25.2891 51.291 24.0244 53.1367 21.8301 53.1367ZM19.5605 48.0508C19.5674 50.6143 20.3945 52.043 21.8301 52.043C23.2588 52.043 24.0928 50.6143 24.0859 48.0508C24.0928 45.4873 23.252 44.0381 21.8301 44.0312C20.4082 44.0381 19.5674 45.4873 19.5605 48.0508Z" fill="#888888"/>
<path d="M7.61484 75.1016V85H6.3707V76.3867H6.31602L3.90977 77.9863V76.7422L6.3707 75.1016H7.61484ZM9.80742 82.9766V81.9648L14.2645 75.1016H15.782V81.8965H17.1629V82.9766H15.782V85H14.6062V82.9766H9.80742ZM11.1336 81.8965H14.6062V76.6602H14.4832L11.1336 81.8145V81.8965ZM21.8301 85.1367C19.6357 85.1367 18.3643 83.291 18.3711 80.0508C18.3643 76.8379 19.6494 74.9648 21.8301 74.9648C24.0039 74.9648 25.2891 76.8379 25.2891 80.0508C25.2891 83.291 24.0244 85.1367 21.8301 85.1367ZM19.5605 80.0508C19.5674 82.6143 20.3945 84.043 21.8301 84.043C23.2588 84.043 24.0928 82.6143 24.0859 80.0508C24.0928 77.4873 23.252 76.0381 21.8301 76.0312C20.4082 76.0381 19.5674 77.4873 19.5605 80.0508Z" fill="#888888"/>
<path d="M8.13437 107.102V117H6.89023V108.387H6.83555L4.4293 109.986V108.742L6.89023 107.102H8.13437ZM10.573 117L10.5594 116.098L13.9363 112.543C15.1053 111.299 15.6658 110.629 15.6727 109.713C15.6658 108.694 14.8182 108.038 13.7039 108.031C12.5213 108.038 11.783 108.783 11.7762 109.891H10.6141C10.6004 108.141 11.9539 106.965 13.7449 106.965C15.5428 106.965 16.8143 108.175 16.8211 109.713C16.8143 110.82 16.3016 111.682 14.5516 113.486L12.282 115.824V115.906H16.9988V117H10.573ZM21.8301 117.137C19.6357 117.137 18.3643 115.291 18.3711 112.051C18.3643 108.838 19.6494 106.965 21.8301 106.965C24.0039 106.965 25.2891 108.838 25.2891 112.051C25.2891 115.291 24.0244 117.137 21.8301 117.137ZM19.5605 112.051C19.5674 114.614 20.3945 116.043 21.8301 116.043C23.2588 116.043 24.0928 114.614 24.0859 112.051C24.0928 109.487 23.252 108.038 21.8301 108.031C20.4082 108.038 19.5674 109.487 19.5605 112.051Z" fill="#888888"/>
<path d="M8.01133 139.102V149H6.76719V140.387H6.7125L4.30625 141.986V140.742L6.76719 139.102H8.01133ZM13.6902 149.137C11.4959 149.137 10.2244 147.291 10.2312 144.051C10.2244 140.838 11.5096 138.965 13.6902 138.965C15.8641 138.965 17.1492 140.838 17.1492 144.051C17.1492 147.291 15.8846 149.137 13.6902 149.137ZM11.4207 144.051C11.4275 146.614 12.2547 148.043 13.6902 148.043C15.1189 148.043 15.9529 146.614 15.9461 144.051C15.9529 141.487 15.1121 140.038 13.6902 140.031C12.2684 140.038 11.4275 141.487 11.4207 144.051ZM21.8301 149.137C19.6357 149.137 18.3643 147.291 18.3711 144.051C18.3643 140.838 19.6494 138.965 21.8301 138.965C24.0039 138.965 25.2891 140.838 25.2891 144.051C25.2891 147.291 24.0244 149.137 21.8301 149.137ZM19.5605 144.051C19.5674 146.614 20.3945 148.043 21.8301 148.043C23.2588 148.043 24.0928 146.614 24.0859 144.051C24.0928 141.487 23.252 140.038 21.8301 140.031C20.4082 140.038 19.5674 141.487 19.5605 144.051Z" fill="#888888"/>
<path d="M13.6082 181.137C11.5232 181.137 10.0877 179.981 10.0945 178.375C10.0877 177.097 10.9764 176.037 12.1043 175.859V175.805C11.1199 175.579 10.4705 174.67 10.4773 173.59C10.4705 172.079 11.7967 170.965 13.6082 170.965C15.4129 170.965 16.7391 172.079 16.7527 173.59C16.7391 174.67 16.0828 175.579 15.1121 175.805V175.859C16.2332 176.037 17.1219 177.097 17.1355 178.375C17.1219 179.981 15.6727 181.137 13.6082 181.137ZM11.325 178.307C11.3045 179.346 12.1863 180.05 13.6082 180.057C15.0232 180.05 15.9051 179.346 15.9051 178.307C15.9051 177.213 14.9412 176.406 13.6082 176.406C12.282 176.406 11.3045 177.213 11.325 178.307ZM11.6668 173.686C11.6736 174.684 12.4734 175.36 13.6082 175.367C14.7361 175.36 15.5496 174.684 15.5496 173.686C15.5496 172.694 14.7635 172.024 13.6082 172.031C12.4324 172.024 11.6736 172.694 11.6668 173.686ZM21.8301 181.137C19.6357 181.137 18.3643 179.291 18.3711 176.051C18.3643 172.838 19.6494 170.965 21.8301 170.965C24.0039 170.965 25.2891 172.838 25.2891 176.051C25.2891 179.291 24.0244 181.137 21.8301 181.137ZM19.5605 176.051C19.5674 178.614 20.3945 180.043 21.8301 180.043C23.2588 180.043 24.0928 178.614 24.0859 176.051C24.0928 173.487 23.252 172.038 21.8301 172.031C20.4082 172.038 19.5674 173.487 19.5605 176.051Z" fill="#888888"/>
<path d="M13.6492 213.137C11.9334 213.116 10.0398 212.098 10.0398 208.434C10.0398 204.927 11.4754 202.965 13.7996 202.965C15.5428 202.965 16.7596 204.038 17.0125 205.59H15.7957C15.5701 204.715 14.9002 204.059 13.7996 204.059C12.1727 204.059 11.1951 205.446 11.202 207.832H11.325C11.8924 207.005 12.8016 206.52 13.868 206.52C15.6248 206.52 17.0945 207.887 17.0945 209.801C17.0945 211.667 15.7342 213.157 13.6492 213.137ZM11.366 209.828C11.3729 210.99 12.323 212.05 13.6492 212.057C14.9275 212.05 15.8982 211.045 15.9051 209.814C15.8982 208.598 14.9686 207.606 13.6766 207.6C12.3777 207.606 11.3797 208.659 11.366 209.828ZM21.8301 213.137C19.6357 213.137 18.3643 211.291 18.3711 208.051C18.3643 204.838 19.6494 202.965 21.8301 202.965C24.0039 202.965 25.2891 204.838 25.2891 208.051C25.2891 211.291 24.0244 213.137 21.8301 213.137ZM19.5605 208.051C19.5674 210.614 20.3945 212.043 21.8301 212.043C23.2588 212.043 24.0928 210.614 24.0859 208.051C24.0928 205.487 23.252 204.038 21.8301 204.031C20.4082 204.038 19.5674 205.487 19.5605 208.051Z" fill="#888888"/>
<path d="M128.189 259.137C126.474 259.116 124.58 258.098 124.58 254.434C124.58 250.927 126.016 248.965 128.34 248.965C130.083 248.965 131.3 250.038 131.553 251.59H130.336C130.11 250.715 129.44 250.059 128.34 250.059C126.713 250.059 125.735 251.446 125.742 253.832H125.865C126.433 253.005 127.342 252.52 128.408 252.52C130.165 252.52 131.635 253.887 131.635 255.801C131.635 257.667 130.274 259.157 128.189 259.137ZM125.906 255.828C125.913 256.99 126.863 258.05 128.189 258.057C129.468 258.05 130.438 257.045 130.445 255.814C130.438 254.598 129.509 253.606 128.217 253.6C126.918 253.606 125.92 254.659 125.906 255.828ZM137.013 251.221C137.006 253.442 138.517 255.671 140.308 256.484L139.652 257.332C138.264 256.662 137.068 255.22 136.487 253.49C135.926 255.322 134.73 256.86 133.308 257.578L132.624 256.676C134.436 255.849 135.933 253.524 135.946 251.221V249.006H137.013V251.221ZM141.634 260.135V247.953H142.714V260.135H141.634Z" fill="#888888"/>
<path d="M174.964 249.102V259H173.72V250.387H173.665L171.259 251.986V250.742L173.72 249.102H174.964ZM177.402 259L177.389 258.098L180.766 254.543C181.935 253.299 182.495 252.629 182.502 251.713C182.495 250.694 181.647 250.038 180.533 250.031C179.351 250.038 178.612 250.783 178.605 251.891H177.443C177.43 250.141 178.783 248.965 180.574 248.965C182.372 248.965 183.644 250.175 183.65 251.713C183.644 252.82 183.131 253.682 181.381 255.486L179.111 257.824V257.906H183.828V259H177.402ZM189.302 251.221C189.295 253.442 190.806 255.671 192.597 256.484L191.941 257.332C190.553 256.662 189.357 255.22 188.776 253.49C188.215 255.322 187.019 256.86 185.597 257.578L184.913 256.676C186.725 255.849 188.222 253.524 188.236 251.221V249.006H189.302V251.221ZM193.923 260.135V247.953H195.003V260.135H193.923Z" fill="#888888"/>
<path d="M227.737 249.102V259H226.493V250.387H226.438L224.032 251.986V250.742L226.493 249.102H227.737ZM233.484 259.137C231.399 259.137 229.964 257.981 229.971 256.375C229.964 255.097 230.853 254.037 231.98 253.859V253.805C230.996 253.579 230.347 252.67 230.354 251.59C230.347 250.079 231.673 248.965 233.484 248.965C235.289 248.965 236.615 250.079 236.629 251.59C236.615 252.67 235.959 253.579 234.988 253.805V253.859C236.109 254.037 236.998 255.097 237.012 256.375C236.998 257.981 235.549 259.137 233.484 259.137ZM231.201 256.307C231.181 257.346 232.062 258.05 233.484 258.057C234.899 258.05 235.781 257.346 235.781 256.307C235.781 255.213 234.817 254.406 233.484 254.406C232.158 254.406 231.181 255.213 231.201 256.307ZM231.543 251.686C231.55 252.684 232.35 253.36 233.484 253.367C234.612 253.36 235.426 252.684 235.426 251.686C235.426 250.694 234.64 250.024 233.484 250.031C232.309 250.024 231.55 250.694 231.543 251.686ZM242.349 251.221C242.342 253.442 243.853 255.671 245.644 256.484L244.987 257.332C243.6 256.662 242.404 255.22 241.822 253.49C241.262 255.322 240.066 256.86 238.644 257.578L237.96 256.676C239.772 255.849 241.269 253.524 241.282 251.221V249.006H242.349V251.221ZM246.97 260.135V247.953H248.05V260.135H246.97Z" fill="#888888"/>
<path d="M271.655 259L271.641 258.098L275.018 254.543C276.187 253.299 276.748 252.629 276.755 251.713C276.748 250.694 275.9 250.038 274.786 250.031C273.603 250.038 272.865 250.783 272.858 251.891H271.696C271.682 250.141 273.036 248.965 274.827 248.965C276.625 248.965 277.896 250.175 277.903 251.713C277.896 252.82 277.384 253.682 275.634 255.486L273.364 257.824V257.906H278.081V259H271.655ZM279.207 256.977V255.965L283.664 249.102H285.182V255.896H286.562V256.977H285.182V259H284.006V256.977H279.207ZM280.533 255.896H284.006V250.66H283.883L280.533 255.814V255.896ZM291.872 251.221C291.865 253.442 293.376 255.671 295.167 256.484L294.511 257.332C293.123 256.662 291.927 255.22 291.346 253.49C290.785 255.322 289.589 256.86 288.167 257.578L287.484 256.676C289.295 255.849 290.792 253.524 290.806 251.221V249.006H291.872V251.221ZM296.493 260.135V247.953H297.573V260.135H296.493Z" fill="#888888"/>
<path d="M162.672 73.5371H160.526L160.12 76H159.028L159.435 73.5371H158.114L158.279 72.458H159.612L159.955 70.3506H158.647L158.812 69.2588H160.139L160.539 66.8086H161.631L161.231 69.2588H163.376L163.776 66.8086H164.855L164.456 69.2588H165.795L165.617 70.3506H164.278L163.935 72.458H165.262L165.071 73.5371H163.757L163.357 76H162.266L162.672 73.5371ZM162.85 72.458L163.192 70.3506H161.047L160.704 72.458H162.85ZM166.636 66.8086H172.4V68.0146H168.032V70.7949H172.095V71.9883H168.032V74.7939H172.45V76H166.636V66.8086ZM173.913 66.8086H177.278C177.913 66.8086 178.448 66.9123 178.884 67.1196C179.32 67.327 179.645 67.6126 179.861 67.9766C180.077 68.3405 180.185 68.7552 180.185 69.2207C180.185 69.7581 180.041 70.1877 179.753 70.5093C179.47 70.8267 179.097 71.0446 178.636 71.1631V71.252C178.954 71.2689 179.258 71.3704 179.55 71.5566C179.842 71.7428 180.079 72.0052 180.261 72.3438C180.447 72.6781 180.54 73.0716 180.54 73.5244C180.54 74.0068 180.428 74.4342 180.204 74.8066C179.98 75.179 179.635 75.471 179.169 75.6826C178.704 75.8942 178.124 76 177.43 76H173.913V66.8086ZM177.303 74.8066C177.934 74.8024 178.399 74.6797 178.7 74.4385C179.004 74.193 179.157 73.8672 179.157 73.4609C179.157 73.1647 179.083 72.896 178.934 72.6548C178.786 72.4136 178.575 72.2231 178.3 72.0835C178.029 71.9438 177.714 71.874 177.354 71.874H175.31V74.8066H177.303ZM177.163 70.7822C177.472 70.778 177.752 70.7166 178.001 70.5981C178.255 70.4797 178.454 70.3125 178.598 70.0967C178.742 69.8766 178.814 69.6227 178.814 69.335C178.814 68.9372 178.674 68.6156 178.395 68.3701C178.12 68.1247 177.718 68.002 177.189 68.002H175.31V70.7822H177.163ZM184.835 76.127C184.263 76.127 183.745 76.019 183.279 75.8032C182.814 75.5874 182.444 75.2869 182.169 74.9019C181.893 74.5168 181.745 74.083 181.724 73.6006H183.083C183.108 73.8587 183.201 74.0915 183.362 74.2988C183.523 74.502 183.732 74.6628 183.99 74.7812C184.248 74.8997 184.53 74.959 184.835 74.959C185.203 74.959 185.531 74.8765 185.818 74.7114C186.11 74.5464 186.339 74.32 186.504 74.0322C186.669 73.7402 186.752 73.4144 186.752 73.0547C186.752 72.6865 186.667 72.3564 186.498 72.0645C186.328 71.7682 186.094 71.5376 185.793 71.3726C185.493 71.2033 185.152 71.1165 184.771 71.1123C183.992 71.1123 183.455 71.3831 183.159 71.9248H181.838L182.435 66.8086H187.64V68.002H183.59L183.286 70.5791H183.375C183.569 70.3929 183.819 70.2448 184.124 70.1348C184.433 70.0205 184.758 69.9613 185.101 69.957C185.672 69.957 186.187 70.0903 186.644 70.3569C187.101 70.6193 187.458 70.9832 187.716 71.4487C187.979 71.91 188.11 72.4326 188.11 73.0166C188.11 73.6133 187.97 74.1486 187.691 74.6226C187.412 75.0923 187.022 75.4604 186.523 75.7271C186.028 75.9937 185.465 76.127 184.835 76.127ZM192.887 76H191.477V68.2051H191.427L189.23 69.6396V68.3066L191.515 66.8086H192.887V76ZM194.819 73.0801L198.882 66.8086H200.608V73.0293H201.865V74.21H200.608V76H199.288V74.21H194.819V73.0801ZM199.288 73.0293V68.4717H199.187L196.292 72.9531V73.0293H199.288ZM207.492 68.0781V68.002H202.757V66.8086H208.94V68.0527L204.852 76H203.392L207.492 68.0781ZM213.465 74.9082V73.5371L217.82 71.5503V71.4868L213.465 69.5V68.1162L219.432 71.0107V72.0264L213.465 74.9082Z" fill="#26282C"/>
<path d="M161.672 101.537H159.526L159.12 104H158.028L158.435 101.537H157.114L157.279 100.458H158.612L158.955 98.3506H157.647L157.812 97.2588H159.139L159.539 94.8086H160.631L160.231 97.2588H162.376L162.776 94.8086H163.855L163.456 97.2588H164.795L164.617 98.3506H163.278L162.935 100.458H164.262L164.071 101.537H162.757L162.357 104H161.266L161.672 101.537ZM161.85 100.458L162.192 98.3506H160.047L159.704 100.458H161.85ZM165.636 94.8086H171.4V96.0146H167.032V98.7949H171.095V99.9883H167.032V102.794H171.45V104H165.636V94.8086ZM172.913 94.8086H178.677V96.0146H174.31V98.7949H178.372V99.9883H174.31V102.794H178.728V104H172.913V94.8086ZM180.191 94.8086H185.955V96.0146H181.587V98.7949H185.65V99.9883H181.587V102.794H186.005V104H180.191V94.8086ZM187.469 94.8086H193.232V96.0146H188.865V98.7949H192.928V99.9883H188.865V102.794H193.283V104H187.469V94.8086ZM194.746 94.8086H200.51V96.0146H196.143V98.7949H200.205V99.9883H196.143V102.794H200.561V104H194.746V94.8086ZM202.024 94.8086H207.787V96.0146H203.42V98.7949H207.483V99.9883H203.42V102.794H207.838V104H202.024V94.8086ZM212.491 102.908V101.537L216.845 99.5503V99.4868L212.491 97.5V96.1162L218.458 99.0107V100.026L212.491 102.908Z" fill="#26282C"/>
<path d="M141.672 175.537H139.526L139.12 178H138.028L138.435 175.537H137.114L137.279 174.458H138.612L138.955 172.351H137.647L137.812 171.259H139.139L139.539 168.809H140.631L140.231 171.259H142.376L142.776 168.809H143.855L143.456 171.259H144.795L144.617 172.351H143.278L142.935 174.458H144.262L144.071 175.537H142.757L142.357 178H141.266L141.672 175.537ZM141.85 174.458L142.192 172.351H140.047L139.704 174.458H141.85ZM148.861 178.127C148.238 178.127 147.665 177.989 147.14 177.714C146.616 177.435 146.186 176.967 145.852 176.312C145.522 175.651 145.357 174.784 145.357 173.709C145.357 172.655 145.503 171.752 145.795 170.999C146.087 170.241 146.501 169.666 147.039 169.272C147.58 168.878 148.217 168.682 148.949 168.682C149.504 168.682 150.001 168.79 150.441 169.005C150.881 169.217 151.239 169.513 151.514 169.894C151.789 170.275 151.962 170.709 152.034 171.195H150.651C150.553 170.806 150.356 170.495 150.06 170.262C149.768 170.025 149.398 169.905 148.949 169.9C148.48 169.9 148.076 170.034 147.737 170.3C147.403 170.563 147.147 170.941 146.969 171.437C146.791 171.932 146.702 172.524 146.702 173.214H146.804C147.054 172.825 147.384 172.522 147.794 172.306C148.209 172.086 148.666 171.974 149.165 171.97C149.707 171.97 150.204 172.101 150.657 172.363C151.11 172.621 151.467 172.981 151.73 173.442C151.992 173.899 152.123 174.416 152.123 174.991C152.123 175.579 151.986 176.113 151.711 176.591C151.44 177.069 151.057 177.446 150.562 177.721C150.067 177.992 149.5 178.127 148.861 178.127ZM146.867 175.029C146.867 175.368 146.952 175.685 147.121 175.981C147.295 176.278 147.53 176.515 147.826 176.692C148.122 176.87 148.454 176.959 148.822 176.959C149.186 176.959 149.516 176.872 149.813 176.699C150.109 176.521 150.342 176.286 150.511 175.994C150.68 175.698 150.765 175.372 150.765 175.017C150.765 174.67 150.682 174.35 150.517 174.058C150.352 173.766 150.124 173.535 149.832 173.366C149.544 173.197 149.22 173.112 148.861 173.112C148.497 173.112 148.162 173.201 147.858 173.379C147.553 173.552 147.312 173.787 147.134 174.083C146.96 174.375 146.872 174.691 146.867 175.029ZM153.536 168.809H159.299V170.015H154.932V172.795H158.995V173.988H154.932V176.794H159.35V178H153.536V168.809ZM163.898 178.127C163.242 178.127 162.656 178.017 162.14 177.797C161.628 177.577 161.228 177.272 160.94 176.883C160.657 176.489 160.517 176.045 160.521 175.55C160.517 175.165 160.597 174.807 160.762 174.477C160.932 174.143 161.162 173.868 161.454 173.652C161.75 173.432 162.078 173.294 162.438 173.239V173.188C162.125 173.117 161.85 172.983 161.613 172.789C161.376 172.59 161.192 172.346 161.061 172.059C160.929 171.771 160.864 171.462 160.864 171.132C160.864 170.666 160.993 170.247 161.251 169.875C161.513 169.503 161.875 169.211 162.337 168.999C162.798 168.787 163.318 168.682 163.898 168.682C164.469 168.682 164.983 168.787 165.441 168.999C165.902 169.211 166.264 169.503 166.526 169.875C166.788 170.247 166.92 170.666 166.92 171.132C166.92 171.462 166.852 171.771 166.716 172.059C166.585 172.346 166.399 172.59 166.158 172.789C165.921 172.983 165.65 173.117 165.345 173.188V173.239C165.701 173.294 166.025 173.432 166.317 173.652C166.613 173.868 166.845 174.143 167.015 174.477C167.188 174.807 167.275 175.165 167.275 175.55C167.275 176.045 167.129 176.489 166.837 176.883C166.549 177.272 166.149 177.577 165.637 177.797C165.125 178.017 164.546 178.127 163.898 178.127ZM161.943 175.448C161.939 175.749 162.015 176.013 162.171 176.242C162.328 176.47 162.554 176.65 162.851 176.781C163.151 176.908 163.5 176.972 163.898 176.972C164.292 176.972 164.634 176.908 164.926 176.781C165.223 176.654 165.451 176.477 165.612 176.248C165.773 176.015 165.853 175.749 165.853 175.448C165.853 175.135 165.768 174.856 165.599 174.61C165.43 174.361 165.197 174.166 164.901 174.026C164.605 173.882 164.27 173.811 163.898 173.811C163.521 173.811 163.183 173.882 162.882 174.026C162.582 174.166 162.349 174.361 162.184 174.61C162.019 174.86 161.939 175.139 161.943 175.448ZM162.222 171.259C162.222 171.542 162.294 171.794 162.438 172.014C162.582 172.234 162.779 172.406 163.028 172.528C163.282 172.647 163.572 172.706 163.898 172.706C164.215 172.706 164.499 172.647 164.749 172.528C165.003 172.406 165.199 172.234 165.339 172.014C165.479 171.794 165.548 171.542 165.548 171.259C165.548 170.975 165.479 170.726 165.339 170.51C165.204 170.29 165.011 170.12 164.761 170.002C164.512 169.883 164.224 169.824 163.898 169.824C163.568 169.824 163.276 169.883 163.022 170.002C162.768 170.12 162.571 170.29 162.432 170.51C162.292 170.726 162.222 170.975 162.222 171.259ZM171.721 178.127C171.015 178.127 170.408 177.943 169.9 177.575C169.396 177.202 169.011 176.663 168.744 175.956C168.478 175.249 168.345 174.399 168.345 173.404C168.345 172.414 168.478 171.566 168.744 170.859C169.015 170.152 169.402 169.613 169.906 169.24C170.414 168.868 171.019 168.682 171.721 168.682C172.42 168.682 173.021 168.868 173.524 169.24C174.032 169.613 174.421 170.152 174.692 170.859C174.963 171.566 175.098 172.414 175.098 173.404C175.098 174.399 174.963 175.251 174.692 175.962C174.426 176.669 174.04 177.207 173.537 177.575C173.033 177.943 172.428 178.127 171.721 178.127ZM169.741 173.436C169.741 174.185 169.819 174.82 169.976 175.34C170.132 175.861 170.359 176.254 170.655 176.521C170.951 176.788 171.307 176.921 171.721 176.921C172.136 176.921 172.492 176.788 172.788 176.521C173.084 176.25 173.311 175.852 173.467 175.328C173.624 174.803 173.702 174.162 173.702 173.404C173.702 172.651 173.622 172.01 173.461 171.481C173.304 170.952 173.078 170.552 172.782 170.281C172.485 170.006 172.132 169.867 171.721 169.862C171.307 169.862 170.951 170.002 170.655 170.281C170.359 170.556 170.132 170.963 169.976 171.5C169.819 172.033 169.741 172.679 169.741 173.436ZM179.481 168.682C180.099 168.682 180.668 168.821 181.189 169.101C181.714 169.376 182.141 169.841 182.471 170.497C182.806 171.149 182.973 172.008 182.973 173.074C182.973 174.136 182.827 175.046 182.535 175.804C182.243 176.561 181.826 177.139 181.284 177.537C180.747 177.93 180.112 178.127 179.38 178.127C178.826 178.127 178.326 178.021 177.882 177.81C177.442 177.594 177.082 177.293 176.803 176.908C176.528 176.523 176.354 176.083 176.282 175.588H177.666C177.763 175.986 177.96 176.305 178.256 176.546C178.553 176.783 178.927 176.904 179.38 176.908C179.85 176.908 180.252 176.777 180.586 176.515C180.924 176.248 181.183 175.865 181.36 175.366C181.542 174.866 181.635 174.268 181.64 173.569H181.525C181.276 173.959 180.944 174.263 180.529 174.483C180.118 174.703 179.668 174.813 179.177 174.813C178.631 174.813 178.132 174.684 177.679 174.426C177.226 174.164 176.866 173.804 176.6 173.347C176.337 172.886 176.206 172.368 176.206 171.792C176.206 171.212 176.341 170.685 176.612 170.211C176.883 169.737 177.266 169.365 177.761 169.094C178.261 168.819 178.834 168.682 179.481 168.682ZM177.564 171.754C177.564 172.105 177.647 172.429 177.812 172.725C177.977 173.017 178.203 173.248 178.491 173.417C178.783 173.586 179.113 173.671 179.481 173.671C179.841 173.671 180.171 173.584 180.472 173.411C180.776 173.233 181.015 172.996 181.189 172.7C181.362 172.403 181.449 172.088 181.449 171.754C181.449 171.424 181.365 171.113 181.195 170.821C181.026 170.525 180.793 170.29 180.497 170.116C180.201 169.938 179.871 169.85 179.507 169.85C179.147 169.85 178.819 169.936 178.523 170.11C178.227 170.279 177.992 170.51 177.818 170.802C177.649 171.09 177.564 171.407 177.564 171.754ZM184.372 168.809H190.072V170.015H185.769V172.795H189.666V173.988H185.769V178H184.372V168.809ZM194.624 176.908V175.537L198.978 173.55V173.487L194.624 171.5V170.116L200.59 173.011V174.026L194.624 176.908Z" fill="#26282C"/>
</svg>
