<svg width="125" height="125" viewBox="0 0 125 125" fill="none" xmlns="http://www.w3.org/2000/svg">
<mask id="path-1-inside-1_2943_86825" fill="white">
<path d="M125 62.5C125 97.0178 97.0178 125 62.5 125C27.9822 125 0 97.0178 0 62.5C0 27.9822 27.9822 0 62.5 0C97.0178 0 125 27.9822 125 62.5ZM19.625 62.5C19.625 86.1792 38.8208 105.375 62.5 105.375C86.1792 105.375 105.375 86.1792 105.375 62.5C105.375 38.8208 86.1792 19.625 62.5 19.625C38.8208 19.625 19.625 38.8208 19.625 62.5Z"/>
</mask>
<path d="M125 62.5C125 97.0178 97.0178 125 62.5 125C27.9822 125 0 97.0178 0 62.5C0 27.9822 27.9822 0 62.5 0C97.0178 0 125 27.9822 125 62.5ZM19.625 62.5C19.625 86.1792 38.8208 105.375 62.5 105.375C86.1792 105.375 105.375 86.1792 105.375 62.5C105.375 38.8208 86.1792 19.625 62.5 19.625C38.8208 19.625 19.625 38.8208 19.625 62.5Z" stroke="#F8F8F8" stroke-width="28" mask="url(#path-1-inside-1_2943_86825)"/>
<path d="M65.8996 46.1478C65.9979 45.9144 66.0139 45.6976 65.9328 45.5128C65.6142 44.7876 63.9189 44.831 62.1463 45.6098C61.9329 45.7036 61.7281 45.8037 61.5334 45.9086C61.5685 45.7853 61.5683 45.6685 61.5284 45.5624C61.3113 44.9858 60.001 44.9456 58.6018 45.4726C57.9529 45.7169 57.3988 46.0404 57.0128 46.3745C55.083 46.5197 53.5668 47.2773 53.6261 48.0669C53.6315 48.1393 53.65 48.2094 53.6805 48.2769C53.6214 48.2973 53.5621 48.3187 53.5026 48.3411C53.2611 48.432 53.0327 48.534 52.8212 48.6433C52.6525 48.3731 52.4453 48.208 52.2091 48.1819C51.6645 48.1218 51.1088 48.816 50.7475 49.8868C50.6146 49.6321 50.4416 49.4732 50.238 49.4462C49.6307 49.3655 48.9798 50.4886 48.7791 51.9591C48.5106 51.5675 48.208 51.3533 47.9255 51.4023C47.4493 51.4849 47.1713 52.2902 47.197 53.3447C46.7913 53.2508 46.4588 53.2918 46.2552 53.4919C45.7938 53.9455 46.1379 55.0759 47.0192 56.2275C45.9561 56.4838 45.2413 56.9583 45.2465 57.4945C45.2494 57.8002 45.4858 58.0812 45.8863 58.31C45.8109 58.4635 45.7721 58.6584 45.7681 58.8846C45.274 58.5776 44.8287 58.4861 44.5289 58.678C43.8618 59.105 44.1671 60.7733 45.2108 62.4041C46.2545 64.035 47.6414 65.0109 48.3085 64.5839C48.3318 64.569 48.3539 64.5526 48.3748 64.5347L48.5789 64.7574L79.8114 63.6419L79.0398 59.6546C79.4518 59.7196 79.7811 59.6548 79.97 59.4403C80.4935 58.8458 79.7399 57.3265 78.2869 56.0468C78.2594 56.0227 78.2319 55.9987 78.2044 55.9751C78.9201 55.7567 79.3822 55.4074 79.4081 54.989C79.4462 54.3737 78.53 53.7904 77.2111 53.5054C77.2677 53.452 77.3132 53.3912 77.3462 53.3228C77.6908 52.6096 76.557 51.3484 74.8137 50.506C74.5801 50.3931 74.3474 50.2935 74.1188 50.2073C73.7831 48.7843 73.1194 47.7928 72.4728 47.8651C72.1778 47.898 71.9283 48.1478 71.7429 48.5484C71.1933 47.1294 70.3582 46.197 69.7129 46.3721C69.5545 46.4151 69.4199 46.5215 69.3107 46.6798C68.4201 45.5391 67.4153 44.9227 66.8607 45.2542C66.5685 45.4288 66.4487 45.8382 66.4861 46.3803C66.2857 46.2299 66.0868 46.148 65.8996 46.1478Z" fill="#F8F8F8"/>
<path fill-rule="evenodd" clip-rule="evenodd" d="M44.2766 58.9961C43.5725 58.9961 43.0017 59.5669 43.0017 60.2709V61.8652C43.0017 69.0854 48.0036 75.1374 54.7313 76.7449C54.8886 76.7825 55.0017 76.9221 55.0017 77.0838C55.0017 78.1399 55.8579 78.9961 56.914 78.9961H68.0683C69.1244 78.9961 69.9806 78.1399 69.9806 77.0838C69.9806 76.95 70.0753 76.8347 70.206 76.806C77.0675 75.2962 82.2017 69.1803 82.2017 61.8652V60.2709C82.2017 59.5669 81.6309 58.9961 80.9268 58.9961H44.2766Z" fill="url(#paint0_linear_2943_86825)"/>
<ellipse cx="1.44622" cy="1.47282" rx="1.44622" ry="1.47282" transform="matrix(0.757984 0.652273 -0.652214 0.758035 52.8878 54.3867)" fill="#D0D0D0"/>
<ellipse cx="1.44617" cy="1.47287" rx="1.44617" ry="1.47287" transform="matrix(0.999712 0.0240104 -0.0240066 0.999712 58.6859 54.082)" fill="#D0D0D0"/>
<ellipse cx="1.44617" cy="1.47287" rx="1.44617" ry="1.47287" transform="matrix(0.999712 0.0240104 -0.0240066 0.999712 56.7734 48.3398)" fill="#D0D0D0"/>
<ellipse cx="1.44623" cy="1.47282" rx="1.44623" ry="1.47282" transform="matrix(0.738812 0.673912 -0.673854 0.738865 66.9769 48.6602)" fill="#D0D0D0"/>
<ellipse cx="1.44625" cy="1.47279" rx="1.44625" ry="1.47279" transform="matrix(0.563328 -0.826234 0.826192 0.563388 69.8002 56.1758)" fill="#D0D0D0"/>
<path d="M91.6722 18.6257C94.6727 14.1129 100.829 12.8361 104.817 16.5054C108.427 19.8263 111.641 23.5683 114.388 27.6591C118.963 34.4731 122.152 42.1216 123.771 50.1679C125.391 58.2141 125.41 66.5006 123.827 74.5541C122.244 82.6076 119.09 90.2705 114.545 97.1052C110.001 103.94 104.155 109.813 97.3409 114.388C90.5269 118.963 82.8784 122.152 74.8321 123.771C66.7859 125.391 58.4994 125.41 50.4459 123.827C45.6109 122.876 40.9168 121.36 36.4581 119.316C31.5316 117.058 30.3272 110.887 33.3278 106.374C36.3284 101.862 42.404 100.759 47.4799 102.658C49.6691 103.477 51.9267 104.117 54.2309 104.57C59.7556 105.656 65.4401 105.643 70.9598 104.532C76.4796 103.421 81.7264 101.234 86.4009 98.0951C91.0753 94.9564 95.0857 90.9278 98.2032 86.2392C101.321 81.5506 103.484 76.2938 104.57 70.7691C105.656 65.2444 105.643 59.5599 104.532 54.0402C103.421 48.5204 101.234 43.2736 98.0951 38.5991C96.7861 36.6496 95.3222 34.8155 93.7202 33.1135C90.0058 29.1674 88.6716 23.1385 91.6722 18.6257Z" fill="#EEEEEE"/>
<circle cx="103" cy="22" r="13.3" fill="#3B4A65" stroke="white" stroke-width="1.4"/>
<path d="M103 17V27" stroke="white" stroke-width="1.4" stroke-linecap="round"/>
<path d="M98 22H108" stroke="white" stroke-width="1.4" stroke-linecap="round"/>
<defs>
<linearGradient id="paint0_linear_2943_86825" x1="62.6017" y1="58.9961" x2="62.6017" y2="78.9961" gradientUnits="userSpaceOnUse">
<stop stop-color="#DDDDDD"/>
<stop offset="1" stop-color="#EEEEEE"/>
</linearGradient>
</defs>
</svg>
