<svg width="60" height="60" viewBox="0 0 60 60" fill="none" xmlns="http://www.w3.org/2000/svg">
<circle cx="28" cy="32" r="28" fill="#F8F8F8"/>
<circle cx="28.4678" cy="38.9294" r="7.03094" fill="#CCCCCC"/>
<circle cx="26.3585" cy="37.5234" r="0.703094" fill="#AAAAAA"/>
<circle cx="30.5771" cy="37.5234" r="0.703094" fill="#AAAAAA"/>
<rect x="26.1241" y="39.6777" width="4.6873" height="1.12495" rx="0.562476" fill="#AAAAAA"/>
<circle cx="20.0305" cy="24.8688" r="7.03094" fill="#DDDDDD"/>
<path d="M22.1696 25.5641C22.4654 25.6602 22.6319 25.9819 22.4789 26.2527C22.2817 26.6015 22.0112 26.9062 21.6835 27.1443C21.203 27.4934 20.6243 27.6814 20.0304 27.6814C19.4365 27.6814 18.8578 27.4934 18.3773 27.1443C18.0496 26.9062 17.7791 26.6015 17.5819 26.2527C17.4289 25.9819 17.5954 25.6602 17.8911 25.5641C18.1869 25.468 18.4983 25.639 18.686 25.8869C18.7855 26.0183 18.9043 26.1352 19.0392 26.2333C19.3273 26.4426 19.6743 26.5553 20.0304 26.5553C20.3865 26.5553 20.7335 26.4426 21.0216 26.2333C21.1565 26.1352 21.2753 26.0183 21.3748 25.8869C21.5625 25.639 21.8739 25.468 22.1696 25.5641Z" fill="#AAAAAA"/>
<circle cx="17.9211" cy="23.4629" r="0.703094" fill="#AAAAAA"/>
<circle cx="22.1397" cy="23.4629" r="0.703094" fill="#AAAAAA"/>
<circle cx="35.9677" cy="24.8669" r="7.03094" fill="#BBBBBB"/>
<path d="M38.1069 27.4535C38.4026 27.3574 38.5691 27.0356 38.4161 26.7649C38.219 26.416 37.9484 26.1114 37.6207 25.8733C37.1402 25.5242 36.5616 25.3362 35.9677 25.3362C35.3737 25.3362 34.7951 25.5242 34.3146 25.8733C33.9869 26.1114 33.7163 26.416 33.5192 26.7649C33.3662 27.0356 33.5327 27.3574 33.8284 27.4535C34.1241 27.5496 34.4355 27.3786 34.6232 27.1306C34.7227 26.9993 34.8415 26.8824 34.9765 26.7843C35.2646 26.575 35.6115 26.4623 35.9677 26.4623C36.3238 26.4623 36.6707 26.575 36.9588 26.7843C37.0938 26.8824 37.2126 26.9993 37.3121 27.1306C37.4998 27.3786 37.8112 27.5496 38.1069 27.4535Z" fill="#999999"/>
<circle cx="33.8584" cy="23.4609" r="0.703094" fill="#999999"/>
<circle cx="38.077" cy="23.4609" r="0.703094" fill="#999999"/>
<circle cx="46" cy="14" r="13.3" fill="#3B4A65" stroke="white" stroke-width="1.4"/>
<path d="M46 9V19" stroke="white" stroke-width="1.4" stroke-linecap="round"/>
<path d="M41 14H51" stroke="white" stroke-width="1.4" stroke-linecap="round"/>
</svg>
