<svg width="125" height="125" viewBox="0 0 125 125" fill="none" xmlns="http://www.w3.org/2000/svg">
<mask id="path-1-inside-1_2943_86789" fill="white">
<path d="M125 62.5C125 97.0178 97.0178 125 62.5 125C27.9822 125 0 97.0178 0 62.5C0 27.9822 27.9822 0 62.5 0C97.0178 0 125 27.9822 125 62.5ZM19.625 62.5C19.625 86.1792 38.8208 105.375 62.5 105.375C86.1792 105.375 105.375 86.1792 105.375 62.5C105.375 38.8208 86.1792 19.625 62.5 19.625C38.8208 19.625 19.625 38.8208 19.625 62.5Z"/>
</mask>
<path d="M125 62.5C125 97.0178 97.0178 125 62.5 125C27.9822 125 0 97.0178 0 62.5C0 27.9822 27.9822 0 62.5 0C97.0178 0 125 27.9822 125 62.5ZM19.625 62.5C19.625 86.1792 38.8208 105.375 62.5 105.375C86.1792 105.375 105.375 86.1792 105.375 62.5C105.375 38.8208 86.1792 19.625 62.5 19.625C38.8208 19.625 19.625 38.8208 19.625 62.5Z" stroke="#F8F8F8" stroke-width="28" mask="url(#path-1-inside-1_2943_86789)"/>
<path d="M91.6722 18.6257C94.6727 14.1129 100.829 12.8361 104.817 16.5054C108.427 19.8263 111.641 23.5683 114.388 27.6591C118.963 34.4731 122.152 42.1216 123.771 50.1679C125.391 58.2141 125.41 66.5006 123.827 74.5541C122.244 82.6076 119.09 90.2705 114.545 97.1052C110.001 103.94 104.155 109.813 97.3409 114.388C90.5269 118.963 82.8784 122.152 74.8321 123.771C66.7859 125.391 58.4994 125.41 50.4459 123.827C45.6109 122.876 40.9168 121.36 36.4581 119.316C31.5316 117.058 30.3272 110.887 33.3278 106.374C36.3284 101.862 42.404 100.759 47.4799 102.658C49.6691 103.477 51.9267 104.117 54.2309 104.57C59.7556 105.656 65.4401 105.643 70.9598 104.532C76.4796 103.421 81.7264 101.234 86.4009 98.0951C91.0753 94.9564 95.0857 90.9278 98.2032 86.2392C101.321 81.5506 103.484 76.2938 104.57 70.7691C105.656 65.2444 105.643 59.5599 104.532 54.0402C103.421 48.5204 101.234 43.2736 98.0951 38.5991C96.7861 36.6496 95.3222 34.8155 93.7202 33.1135C90.0058 29.1674 88.6716 23.1385 91.6722 18.6257Z" fill="#EEEEEE"/>
<path d="M51.8225 48.7515C55.535 48.9571 58.1047 45.8548 59.0514 43.9188C59.5251 43.1002 60.7497 43.5777 61.0526 43.9188L65.5985 48.9002C65.716 49.029 65.8116 49.1754 65.9053 49.3224C66.5157 50.2806 67.896 51.3516 66.276 53.6987L52.1843 69.3851C52.1164 69.4606 52.0427 69.5308 51.962 69.5925C49.97 71.1185 47.2333 71.7195 44.7628 69.4986C41.5973 66.6529 47.4362 60.206 48.902 57.1509C49.0034 56.9394 49.0453 56.7074 49.0453 56.4728L49.0452 50.9029C49.0452 49.5587 50.4803 48.6772 51.8225 48.7515Z" fill="#DDDDDD"/>
<path d="M49.7642 46.292C53.955 47.2078 56.8628 43.7746 57.8748 41.7041C58.3384 40.9029 59.0471 41.3703 59.3435 41.7041L63.5066 46.3497C64.1816 47.103 63.8555 48.3553 64.1651 49.3183C64.2113 49.4617 64.2726 49.6135 64.3418 49.779C64.5966 50.3888 64.4525 51.0777 64.0061 51.565L51.0211 65.741C49.0629 67.7441 46.5863 69.0672 44.657 68.2448C38.7824 65.741 40.5774 61.0672 41.7197 58.2295L47.2773 47.2969C47.7265 46.4132 48.7957 46.0804 49.7642 46.292Z" fill="#CCCCCC"/>
<mask id="mask0_2943_86789" style="mask-type:alpha" maskUnits="userSpaceOnUse" x="58" y="44" width="9" height="13">
<path d="M60.2656 55.8234C57.7883 51.809 58.8723 47.6628 60.2934 45.0919C60.8069 44.1628 62.0514 44.0932 62.78 44.8652C70.2494 52.7788 65.8493 55.8308 61.8423 56.5326C61.221 56.6415 60.5968 56.3601 60.2656 55.8234Z" fill="#D9D9D9"/>
</mask>
<g mask="url(#mask0_2943_86789)">
<path d="M48.5288 45.2091C52.8512 46.1724 55.851 42.7369 56.8912 40.6697C57.365 39.8742 58.0894 40.3382 58.3924 40.6697L64.8973 47.6304C66.0983 48.8237 65.3977 50.1164 64.8973 50.6136L50.8866 65.5294C48.8851 67.5181 46.8836 68.4711 43.3809 67.0209C37.3763 64.535 39.211 59.8945 40.3786 57.0771L46.077 46.1884C46.5291 45.3245 47.5772 44.9971 48.5288 45.2091Z" fill="#AAAAAA"/>
</g>
<path fill-rule="evenodd" clip-rule="evenodd" d="M44.5242 51.4204C44.5956 50.9706 45.0181 50.6638 45.4679 50.7352L50.2249 51.4902C50.6747 51.5616 50.9814 51.9842 50.91 52.434C50.8387 52.8838 50.4161 53.1906 49.9663 53.1192L45.2094 52.3642C44.7596 52.2928 44.4528 51.8702 44.5242 51.4204Z" fill="white"/>
<path fill-rule="evenodd" clip-rule="evenodd" d="M42.3029 54.7876C42.3743 54.3377 42.7968 54.031 43.2466 54.1023L48.0035 54.8574C48.4534 54.9288 48.7601 55.3513 48.6887 55.8012C48.6173 56.251 48.1948 56.5578 47.745 56.4864L42.9881 55.7314C42.5383 55.66 42.2315 55.2374 42.3029 54.7876Z" fill="white"/>
<path fill-rule="evenodd" clip-rule="evenodd" d="M40.5424 58.3247C40.6138 57.8748 41.0363 57.5681 41.4861 57.6395L46.243 58.3945C46.6929 58.4659 46.9996 58.8885 46.9282 59.3383C46.8568 59.7881 46.4343 60.0949 45.9845 60.0235L41.2276 59.2685C40.7778 59.1971 40.471 58.7745 40.5424 58.3247Z" fill="white"/>
<path d="M76.6036 65.9432C79.0834 68.714 83.094 68.3376 85.1323 67.638C86.0461 67.3942 86.5744 68.5978 86.5474 69.0532L86.2397 75.7902C86.2317 75.9644 86.1958 76.1356 86.1581 76.3058C85.9123 77.4149 86.131 79.1483 83.3259 79.6624L62.2705 80.7892C62.1691 80.7947 62.0673 80.7921 61.9667 80.7788C59.4791 80.4491 57.119 78.9388 56.9424 75.6213C56.7161 71.3707 65.4031 70.9411 68.5997 69.8173C68.821 69.7395 69.0147 69.605 69.1806 69.4391L73.1187 65.5006C74.0692 64.5501 75.7071 64.9415 76.6036 65.9432Z" fill="#DDDDDD"/>
<path d="M76.8832 62.7485C79.199 66.3597 83.6827 65.9884 85.8623 65.24C86.7566 65.0013 86.9272 65.8329 86.9008 66.2786L86.5598 72.5073C86.5045 73.5174 85.3883 74.1724 84.9265 75.0724C84.8577 75.2064 84.7938 75.357 84.7257 75.5229C84.4747 76.1343 83.8857 76.5196 83.2255 76.5485L64.0206 77.39C61.2196 77.4216 58.5329 76.6059 57.7501 74.66C55.3665 68.7353 59.9404 66.6997 62.7545 65.5009L74.4143 61.7005C75.3568 61.3933 76.3481 61.9141 76.8832 62.7485Z" fill="#CCCCCC"/>
<mask id="mask1_2943_86789" style="mask-type:alpha" maskUnits="userSpaceOnUse" x="77" y="69" width="11" height="12">
<path d="M77.5703 76.9164C78.657 72.326 82.3551 70.1607 85.1778 69.3477C86.1978 69.0539 87.127 69.8847 87.0964 70.9457C86.7826 81.8238 81.5133 80.8702 78.1836 78.5329C77.6674 78.1705 77.425 77.5302 77.5703 76.9164Z" fill="#D9D9D9"/>
</mask>
<g mask="url(#mask1_2943_86789)">
<path d="M76.7757 61.1099C79.151 64.8477 83.7013 64.5399 85.8986 63.8137C86.796 63.5862 86.9801 64.4266 86.96 64.8753L86.6381 74.3973C86.6436 76.0903 85.2342 76.509 84.5289 76.5067L64.0755 77.1459C61.2541 77.1368 59.165 76.3953 57.7136 72.8929C55.2254 66.8889 59.8038 64.905 62.6215 63.7384L74.3498 60.0687C75.2803 59.7775 76.2528 60.287 76.7757 61.1099Z" fill="#AAAAAA"/>
</g>
<path fill-rule="evenodd" clip-rule="evenodd" d="M69.5539 62.6698C69.9224 62.4022 70.4381 62.4841 70.7057 62.8526L73.5355 66.7504C73.803 67.119 73.7212 67.6347 73.3526 67.9023C72.9841 68.1699 72.4684 68.0881 72.2008 67.7195L69.3711 63.8217C69.1035 63.4531 69.1853 62.9374 69.5539 62.6698Z" fill="white"/>
<path fill-rule="evenodd" clip-rule="evenodd" d="M65.6007 63.4764C65.9693 63.2088 66.485 63.2907 66.7526 63.6593L69.5823 67.5571C69.8499 67.9256 69.7681 68.4413 69.3995 68.709C69.031 68.9766 68.5153 68.8947 68.2477 68.5261L65.4179 64.6283C65.1504 64.2598 65.2322 63.744 65.6007 63.4764Z" fill="white"/>
<path fill-rule="evenodd" clip-rule="evenodd" d="M61.8559 64.7343C62.2244 64.4667 62.7401 64.5485 63.0077 64.9171L65.8375 68.8149C66.105 69.1834 66.0232 69.6992 65.6546 69.9668C65.2861 70.2344 64.7704 70.1525 64.5028 69.7839L61.6731 65.8861C61.4055 65.5176 61.4873 65.0019 61.8559 64.7343Z" fill="white"/>
<circle cx="103" cy="22" r="13.3" fill="#3B4A65" stroke="white" stroke-width="1.4"/>
<path d="M103 17V27" stroke="white" stroke-width="1.4" stroke-linecap="round"/>
<path d="M98 22H108" stroke="white" stroke-width="1.4" stroke-linecap="round"/>
</svg>
