<svg width="60" height="60" viewBox="0 0 60 60" fill="none" xmlns="http://www.w3.org/2000/svg">
<circle cx="28" cy="32" r="28" fill="#F8F8F8"/>
<rect x="16.0143" y="23.7773" width="18.214" height="23.0448" rx="2.13024" fill="#DDDDDD"/>
<path fill-rule="evenodd" clip-rule="evenodd" d="M26.808 31.4433C26.808 28.3335 29.2997 25.8125 32.3734 25.8125H36.0836C39.1573 25.8125 41.649 28.3335 41.649 31.4433V36.4485C41.649 39.5584 39.1573 42.0794 36.0836 42.0794H32.3734C29.2997 42.0794 26.808 39.5584 26.808 36.4485V31.4433ZM32.3734 29.5664C31.3488 29.5664 30.5182 30.4067 30.5182 31.4433V36.4485C30.5182 37.4852 31.3488 38.3255 32.3734 38.3255H36.0836C37.1082 38.3255 37.9387 37.4852 37.9387 36.4485V31.4433C37.9387 30.4067 37.1082 29.5664 36.0836 29.5664H32.3734Z" fill="#DDDDDD"/>
<rect x="16.0143" y="22.4219" width="18.214" height="22.367" rx="4.26047" fill="url(#paint0_linear_2943_86903)"/>
<rect opacity="0.5" x="19.6355" y="32.832" width="1.24125" height="8.10633" rx="0.620624" fill="#AAAAAA"/>
<rect opacity="0.5" x="24.5995" y="32.832" width="1.24125" height="8.10633" rx="0.620624" fill="#AAAAAA"/>
<rect opacity="0.5" x="29.5667" y="32.832" width="1.24125" height="8.10633" rx="0.620624" fill="#AAAAAA"/>
<path fill-rule="evenodd" clip-rule="evenodd" d="M27.704 17.956C28.0681 17.7454 28.4904 17.625 28.9406 17.625C29.9226 17.625 30.7715 18.1979 31.1741 19.0292C31.4449 18.9274 31.7381 18.8717 32.0443 18.8717C33.4154 18.8717 34.5268 19.9884 34.5268 21.3659C34.5268 21.4746 34.5199 21.5817 34.5065 21.6867C35.26 22.1149 35.7686 22.9274 35.7686 23.8593C35.7686 25.2368 34.6572 26.3536 33.2861 26.3536C32.6784 26.3536 32.1216 26.1341 31.6901 25.7698C31.2557 26.4941 30.4653 26.9785 29.5623 26.9785C28.7365 26.9785 28.0048 26.5734 27.5535 25.9501C27.2092 26.9122 26.293 27.6002 25.2168 27.6002C24.7642 27.6002 24.3398 27.4785 23.9744 27.2659V28.858C23.9744 29.8863 23.1408 30.7199 22.1126 30.7199C21.0843 30.7199 20.2507 29.8863 20.2507 28.858V26.9785C19.6646 26.9777 19.1261 26.7727 18.7018 26.4306C18.2766 26.7734 17.7367 26.9785 17.1491 26.9785C15.7781 26.9785 14.6666 25.8618 14.6666 24.4843C14.6666 23.554 15.1736 22.7426 15.925 22.3138C15.9141 22.2072 15.9084 22.099 15.9084 21.9895C15.9084 20.2676 17.2977 18.8717 19.0116 18.8717C19.1202 18.8717 19.2276 18.8773 19.3334 18.8882C19.7603 18.1338 20.5675 17.625 21.493 17.625C21.9438 17.625 22.3665 17.7457 22.7309 17.9567C23.3902 17.3619 24.262 17 25.2179 17C26.1734 17 27.0448 17.3616 27.704 17.956Z" fill="#EEEEEE"/>
<circle cx="46" cy="14" r="13.3" fill="#3B4A65" stroke="white" stroke-width="1.4"/>
<path d="M46 9V19" stroke="white" stroke-width="1.4" stroke-linecap="round"/>
<path d="M41 14H51" stroke="white" stroke-width="1.4" stroke-linecap="round"/>
<defs>
<linearGradient id="paint0_linear_2943_86903" x1="25.1213" y1="22.4219" x2="25.1213" y2="44.7888" gradientUnits="userSpaceOnUse">
<stop offset="0.203125" stop-color="#CCCCCC"/>
<stop offset="1" stop-color="#EEEEEE"/>
</linearGradient>
</defs>
</svg>
