<svg width="60" height="60" viewBox="0 0 60 60" fill="none" xmlns="http://www.w3.org/2000/svg">
<circle cx="28" cy="32" r="28" fill="#F8F8F8"/>
<rect x="14.663" y="17.834" width="26.6655" height="28.3322" rx="4.72202" fill="url(#paint0_linear_2943_86849)"/>
<path d="M17.3712 28.1917C17.3712 24.427 20.4232 21.375 24.188 21.375H31.8036C35.5684 21.375 38.6204 24.427 38.6204 28.1917V28.5912C38.6204 30.4736 37.0944 31.9996 35.212 31.9996H20.7796C18.8972 31.9996 17.3712 30.4736 17.3712 28.5912V28.1917Z" fill="white"/>
<path fill-rule="evenodd" clip-rule="evenodd" d="M27.995 24.8164C27.5604 24.8164 27.208 24.4641 27.208 24.0294L27.208 22.357L28.782 22.357L28.782 24.0294C28.782 24.4641 28.4297 24.8164 27.995 24.8164Z" fill="#AAAAAA"/>
<path fill-rule="evenodd" clip-rule="evenodd" d="M32.9137 25.5966C32.5373 25.3793 32.4084 24.898 32.6257 24.5216L33.9046 22.3065L35.2677 23.0935L33.9888 25.3086C33.7715 25.685 33.2902 25.814 32.9137 25.5966Z" fill="#AAAAAA"/>
<path fill-rule="evenodd" clip-rule="evenodd" d="M23.0754 25.5967C22.6989 25.8141 22.2176 25.6851 22.0003 25.3087L20.7214 23.0936L22.0845 22.3066L23.3634 24.5217C23.5808 24.8981 23.4518 25.3794 23.0754 25.5967Z" fill="#AAAAAA"/>
<path d="M27.9957 27.0391L26.225 30.5806H29.7665L27.9957 27.0391Z" fill="#AAAAAA"/>
<path d="M18.2233 28.1917C18.2233 24.8976 20.8938 22.2271 24.188 22.2271H31.8036C35.0978 22.2271 37.7683 24.8976 37.7683 28.1917V28.5912C37.7683 30.003 36.6238 31.1475 35.212 31.1475H20.7796C19.3678 31.1475 18.2233 30.003 18.2233 28.5912V28.1917Z" stroke="#CCCCCC" stroke-width="1.70419"/>
<circle cx="46" cy="14" r="13.3" fill="#3B4A65" stroke="white" stroke-width="1.4"/>
<path d="M46 9V19" stroke="white" stroke-width="1.4" stroke-linecap="round"/>
<path d="M41 14H51" stroke="white" stroke-width="1.4" stroke-linecap="round"/>
<defs>
<linearGradient id="paint0_linear_2943_86849" x1="27.9957" y1="17.834" x2="27.9957" y2="46.1662" gradientUnits="userSpaceOnUse">
<stop stop-color="#DDDDDD"/>
<stop offset="1" stop-color="#EEEEEE"/>
</linearGradient>
</defs>
</svg>
