<svg width="60" height="60" viewBox="0 0 60 60" fill="none" xmlns="http://www.w3.org/2000/svg">
<circle cx="28" cy="32" r="28" fill="#F8F8F8"/>
<path d="M13.6835 42.7708C13.4129 42.3019 13.5735 41.7024 14.0423 41.4318L20.8329 37.5109L23.2832 41.7554L16.4927 45.6762C16.0239 45.9469 15.4244 45.7863 15.1538 45.3175L13.6835 42.7708Z" fill="url(#paint0_linear_2943_86891)"/>
<rect width="18.623" height="4.90099" transform="matrix(0.866007 -0.500032 0.499968 0.866044 20.8315 37.5039)" fill="url(#paint1_linear_2943_86891)"/>
<path d="M36.9587 28.1992L39.5052 26.7289C39.974 26.4582 40.5734 26.6188 40.8441 27.0877L42.3143 29.6344C42.585 30.1032 42.4243 30.7027 41.9555 30.9734L39.4091 32.4437L36.9587 28.1992Z" fill="url(#paint2_linear_2943_86891)"/>
<path fill-rule="evenodd" clip-rule="evenodd" d="M25.0582 18.1037C25.0582 19.7727 26.1927 21.1767 27.7325 21.5865C28.0723 23.1404 29.4564 24.3036 31.1122 24.3036H35.8969C36.2045 24.9837 36.8889 25.4568 37.6839 25.4568H38.8368C39.3463 25.4568 39.7594 25.0438 39.7594 24.5343C39.7594 22.574 38.231 20.9707 36.3008 20.8512V20.844H36.0691H35.9601C35.9947 20.6564 36.0128 20.4631 36.0128 20.2655C36.0128 18.514 34.5931 17.0942 32.8418 17.0942C32.6018 17.0942 32.368 17.1208 32.1433 17.1714C31.7325 15.633 30.3294 14.5 28.6617 14.5C26.6715 14.5 25.0582 16.1135 25.0582 18.1037Z" fill="url(#paint3_linear_2943_86891)"/>
<circle cx="46" cy="14" r="13.3" fill="#3B4A65" stroke="white" stroke-width="1.4"/>
<path d="M46 9V19" stroke="white" stroke-width="1.4" stroke-linecap="round"/>
<path d="M41 14H51" stroke="white" stroke-width="1.4" stroke-linecap="round"/>
<defs>
<linearGradient id="paint0_linear_2943_86891" x1="17.0132" y1="39.7164" x2="19.4638" y2="43.9607" gradientUnits="userSpaceOnUse">
<stop stop-color="#BBBBBB"/>
<stop offset="1" stop-color="#AAAAAA"/>
</linearGradient>
<linearGradient id="paint1_linear_2943_86891" x1="9.31148" y1="0" x2="9.31148" y2="4.90099" gradientUnits="userSpaceOnUse">
<stop stop-color="#EEEEEE"/>
<stop offset="1" stop-color="#DDDDDD"/>
</linearGradient>
<linearGradient id="paint2_linear_2943_86891" x1="38.6564" y1="27.219" x2="41.107" y2="31.4633" gradientUnits="userSpaceOnUse">
<stop stop-color="#BBBBBB"/>
<stop offset="1" stop-color="#AAAAAA"/>
</linearGradient>
<linearGradient id="paint3_linear_2943_86891" x1="32.4088" y1="14.5" x2="32.4088" y2="25.4569" gradientUnits="userSpaceOnUse">
<stop stop-color="#F7F9FF"/>
<stop offset="1" stop-color="#EEF1F5"/>
</linearGradient>
</defs>
</svg>
