<svg width="125" height="125" viewBox="0 0 125 125" fill="none" xmlns="http://www.w3.org/2000/svg">
<mask id="path-1-inside-1_2943_86915" fill="white">
<path d="M125 62.5C125 97.0178 97.0178 125 62.5 125C27.9822 125 0 97.0178 0 62.5C0 27.9822 27.9822 0 62.5 0C97.0178 0 125 27.9822 125 62.5ZM19.625 62.5C19.625 86.1792 38.8208 105.375 62.5 105.375C86.1792 105.375 105.375 86.1792 105.375 62.5C105.375 38.8208 86.1792 19.625 62.5 19.625C38.8208 19.625 19.625 38.8208 19.625 62.5Z"/>
</mask>
<path d="M125 62.5C125 97.0178 97.0178 125 62.5 125C27.9822 125 0 97.0178 0 62.5C0 27.9822 27.9822 0 62.5 0C97.0178 0 125 27.9822 125 62.5ZM19.625 62.5C19.625 86.1792 38.8208 105.375 62.5 105.375C86.1792 105.375 105.375 86.1792 105.375 62.5C105.375 38.8208 86.1792 19.625 62.5 19.625C38.8208 19.625 19.625 38.8208 19.625 62.5Z" stroke="#F8F8F8" stroke-width="28" mask="url(#path-1-inside-1_2943_86915)"/>
<path d="M91.6722 18.6257C94.6727 14.1129 100.829 12.8361 104.817 16.5054C108.427 19.8263 111.641 23.5683 114.388 27.6591C118.963 34.4731 122.152 42.1216 123.771 50.1679C125.391 58.2141 125.41 66.5006 123.827 74.5541C122.244 82.6076 119.09 90.2705 114.545 97.1052C110.001 103.94 104.155 109.813 97.3409 114.388C90.5269 118.963 82.8784 122.152 74.8321 123.771C66.7859 125.391 58.4994 125.41 50.4459 123.827C45.6109 122.876 40.9168 121.36 36.4581 119.316C31.5316 117.058 30.3272 110.887 33.3278 106.374C36.3284 101.862 42.404 100.759 47.4799 102.658C49.6691 103.477 51.9267 104.117 54.2309 104.57C59.7556 105.656 65.4401 105.643 70.9598 104.532C76.4796 103.421 81.7264 101.234 86.4009 98.0951C91.0753 94.9564 95.0857 90.9278 98.2032 86.2392C101.321 81.5506 103.484 76.2938 104.57 70.7691C105.656 65.2444 105.643 59.5599 104.532 54.0402C103.421 48.5204 101.234 43.2736 98.0951 38.5991C96.7861 36.6496 95.3222 34.8155 93.7202 33.1135C90.0058 29.1674 88.6716 23.1385 91.6722 18.6257Z" fill="#EEEEEE"/>
<path fill-rule="evenodd" clip-rule="evenodd" d="M75.7062 42.1744H65.4635C64.3619 42.1744 63.5784 43.2189 63.9124 44.2423L65.827 50.1083H75.6177L77.2765 44.1787C77.5589 43.1693 76.7795 42.1744 75.7062 42.1744ZM79.3474 54.8686L81.9876 45.4312C83.1172 41.3936 79.9993 37.4141 75.7062 37.4141H65.4635C61.0569 37.4141 57.9231 41.5921 59.2592 45.6856L62.2564 54.8686H79.3474Z" fill="url(#paint0_linear_2943_86915)"/>
<path d="M86.5834 63.2832C86.5834 70.0055 80.9834 75.234 70.5834 75.234C60.1834 75.234 54.5834 70.0055 54.5834 63.2832C54.5834 55.0328 60.9834 47.5977 70.5834 47.5977C80.1834 47.5977 86.5834 55.0328 86.5834 63.2832Z" fill="url(#paint1_linear_2943_86915)"/>
<path d="M74.8329 58.2326C74.8484 58.0941 74.9656 57.9893 75.105 57.9893H76.129C76.2802 57.9893 76.4028 58.1119 76.4028 58.2631V64.1717C76.4028 64.7549 76.2728 65.2494 76.0127 65.6553C75.7566 66.0651 75.398 66.3744 74.937 66.5832C74.4759 66.796 73.9401 66.9024 73.3293 66.9024C73.0614 66.9024 72.7776 66.867 72.4782 66.796C72.1827 66.7251 71.8989 66.6148 71.6271 66.465C71.4238 66.3514 71.2454 66.2151 71.092 66.0562C71.0058 65.9668 71.005 65.8283 71.0794 65.7288L71.4998 65.166C71.6046 65.0258 71.8119 65.0198 71.9449 65.1336C72.0812 65.2501 72.2294 65.3471 72.3895 65.4248C72.6496 65.5548 72.9372 65.6198 73.2525 65.6198C73.5598 65.6198 73.8199 65.5627 74.0327 65.4484C74.2454 65.3381 74.409 65.1746 74.5232 64.9578C74.6375 64.7451 74.6946 64.487 74.6946 64.1836V59.4669L74.8329 58.2326ZM70.5573 61.2637V61.1396C70.5573 60.651 70.6164 60.2077 70.7346 59.8098C70.8567 59.4078 71.0281 59.0631 71.2488 58.7754C71.4734 58.4878 71.7453 58.2651 72.0644 58.1075C72.3836 57.9499 72.7442 57.8711 73.1461 57.8711C73.5716 57.8711 73.9282 57.9499 74.2159 58.1075C74.5035 58.2651 74.74 58.4897 74.9251 58.7813C75.1103 59.069 75.2542 59.4098 75.3566 59.8038C75.463 60.1939 75.5458 60.6215 75.6049 61.0864V61.3583C75.5458 61.8036 75.4571 62.2173 75.3389 62.5995C75.2207 62.9817 75.065 63.3167 74.872 63.6043C74.6789 63.888 74.4385 64.1087 74.1509 64.2663C73.8672 64.4239 73.5283 64.5027 73.1343 64.5027C72.7402 64.5027 72.3836 64.422 72.0644 64.2604C71.7492 64.0988 71.4793 63.8723 71.2547 63.5807C71.0301 63.2891 70.8567 62.9463 70.7346 62.5522C70.6164 62.1582 70.5573 61.7287 70.5573 61.2637ZM72.2595 61.1396V61.2637C72.2595 61.5278 72.2851 61.774 72.3363 62.0026C72.3876 62.2311 72.4664 62.434 72.5727 62.6114C72.6831 62.7847 72.819 62.9207 72.9806 63.0192C73.1461 63.1138 73.3411 63.161 73.5657 63.161C73.877 63.161 74.1312 63.096 74.3282 62.966C74.5252 62.832 74.673 62.6488 74.7715 62.4163C74.87 62.1838 74.9271 61.9159 74.9429 61.6125V60.8382C74.935 60.5899 74.9015 60.3673 74.8424 60.1703C74.7833 59.9693 74.7005 59.7979 74.5942 59.6561C74.4878 59.5142 74.3499 59.4039 74.1804 59.3251C74.011 59.2463 73.81 59.2069 73.5775 59.2069C73.3529 59.2069 73.1579 59.2581 72.9924 59.3606C72.8308 59.4591 72.6949 59.595 72.5846 59.7684C72.4782 59.9418 72.3974 60.1467 72.3422 60.3831C72.2871 60.6156 72.2595 60.8677 72.2595 61.1396Z" fill="white"/>
<path d="M66.1914 55.3047C66.3426 55.3047 66.4652 55.4273 66.4652 55.5785V64.1154C66.4652 64.2666 66.3426 64.3892 66.1914 64.3892H65.0367C64.8855 64.3892 64.7629 64.2666 64.7629 64.1154V55.5785C64.7629 55.4273 64.8855 55.3047 65.0367 55.3047H66.1914ZM69.8919 57.994C70.1273 57.994 70.253 58.2713 70.0978 58.4483L67.7182 61.162L66.4964 62.3984C66.3648 62.5315 66.1415 62.4964 66.0572 62.3294L65.6868 61.5956C65.6388 61.5006 65.6502 61.3864 65.7161 61.3028L66.7903 59.9386L68.3691 58.09C68.4212 58.0291 68.4972 57.994 68.5773 57.994H69.8919ZM68.8788 64.3892C68.7854 64.3892 68.6985 64.3416 68.6481 64.263L66.9646 61.6325C66.8916 61.5183 66.913 61.368 67.015 61.2788L67.7797 60.6101C67.9039 60.5016 68.0952 60.5266 68.1872 60.6635L70.4045 63.9627C70.5268 64.1446 70.3965 64.3892 70.1773 64.3892H68.8788Z" fill="white"/>
<rect x="37.667" y="77.0391" width="48" height="4" rx="2" fill="url(#paint2_linear_2943_86915)"/>
<rect x="45.667" y="69.0391" width="8" height="20" rx="2.17096" fill="url(#paint3_linear_2943_86915)"/>
<rect x="69.667" y="69.0391" width="8" height="20" rx="2.17096" fill="url(#paint4_linear_2943_86915)"/>
<path d="M40.3336 75.21C40.3336 74.011 41.3056 73.0391 42.5046 73.0391H45.667V85.0391H42.5046C41.3056 85.0391 40.3336 84.0671 40.3336 82.8681V75.21Z" fill="url(#paint5_linear_2943_86915)"/>
<path d="M77.667 73.0391H80.8294C82.0284 73.0391 83.0003 74.011 83.0003 75.21V82.8681C83.0003 84.0671 82.0284 85.0391 80.8294 85.0391H77.667V73.0391Z" fill="url(#paint6_linear_2943_86915)"/>
<circle cx="103" cy="22" r="13.3" fill="#3B4A65" stroke="white" stroke-width="1.4"/>
<path d="M103 17V27" stroke="white" stroke-width="1.4" stroke-linecap="round"/>
<path d="M98 22H108" stroke="white" stroke-width="1.4" stroke-linecap="round"/>
<defs>
<linearGradient id="paint0_linear_2943_86915" x1="70.5844" y1="37.4141" x2="70.5844" y2="54.8686" gradientUnits="userSpaceOnUse">
<stop stop-color="#DDDDDD"/>
<stop offset="1" stop-color="#AAAAAA"/>
</linearGradient>
<linearGradient id="paint1_linear_2943_86915" x1="62.5834" y1="48.3249" x2="79.3106" y2="75.234" gradientUnits="userSpaceOnUse">
<stop stop-color="#DDDDDD"/>
<stop offset="1" stop-color="#AAAAAA"/>
</linearGradient>
<linearGradient id="paint2_linear_2943_86915" x1="61.667" y1="77.0391" x2="61.667" y2="81.0391" gradientUnits="userSpaceOnUse">
<stop stop-color="#EEEEEE"/>
<stop offset="1" stop-color="#BBBBBB"/>
</linearGradient>
<linearGradient id="paint3_linear_2943_86915" x1="49.667" y1="69.0391" x2="49.667" y2="89.0391" gradientUnits="userSpaceOnUse">
<stop stop-color="#DDDDDD"/>
<stop offset="1" stop-color="#AAAAAA"/>
</linearGradient>
<linearGradient id="paint4_linear_2943_86915" x1="73.667" y1="69.0391" x2="73.667" y2="89.0391" gradientUnits="userSpaceOnUse">
<stop stop-color="#DDDDDD"/>
<stop offset="1" stop-color="#AAAAAA"/>
</linearGradient>
<linearGradient id="paint5_linear_2943_86915" x1="43.0003" y1="73.0391" x2="43.0003" y2="85.0391" gradientUnits="userSpaceOnUse">
<stop stop-color="#BBBBBB"/>
<stop offset="1" stop-color="#AAAAAA"/>
</linearGradient>
<linearGradient id="paint6_linear_2943_86915" x1="80.3337" y1="73.0391" x2="80.3337" y2="85.0391" gradientUnits="userSpaceOnUse">
<stop stop-color="#BBBBBB"/>
<stop offset="1" stop-color="#AAAAAA"/>
</linearGradient>
</defs>
</svg>
