<svg width="60" height="60" viewBox="0 0 60 60" fill="none" xmlns="http://www.w3.org/2000/svg">
<circle cx="28" cy="32" r="28" fill="#F8F8F8"/>
<path d="M14.6665 24.1719H41.332V40.6989C41.332 43.3068 39.2179 45.4209 36.61 45.4209H19.3885C16.7806 45.4209 14.6665 43.3068 14.6665 40.6989V24.1719Z" fill="url(#paint0_linear_2943_86861)"/>
<path d="M14.6665 24.1695C14.6665 21.9973 16.4274 20.2363 18.5997 20.2363H37.3988C39.5711 20.2363 41.332 21.9973 41.332 24.1695V27.3194H14.6665V24.1695Z" fill="url(#paint1_linear_2943_86861)"/>
<rect x="18.5564" y="21.0234" width="3.93501" height="3.93501" rx="1.96751" fill="#EEEEEE"/>
<rect x="33.5094" y="21.0234" width="3.93501" height="3.93501" rx="1.96751" fill="#EEEEEE"/>
<rect x="19.3409" y="18.6641" width="2.36101" height="5.11552" rx="1.1805" fill="url(#paint2_linear_2943_86861)"/>
<rect x="34.2939" y="18.6641" width="2.36101" height="5.11552" rx="1.1805" fill="url(#paint3_linear_2943_86861)"/>
<path d="M32.1656 37.6234C32.1656 40.487 30.3004 41.9982 27.9994 41.9982C25.6983 41.9982 23.8326 40.487 23.8326 37.6234C23.8326 34.7598 27.9994 30.332 27.9994 30.332C27.9994 30.332 32.1656 34.7598 32.1656 37.6234Z" fill="url(#paint4_linear_2943_86861)"/>
<circle cx="46" cy="14" r="13.3" fill="#3B4A65" stroke="white" stroke-width="1.4"/>
<path d="M46 9V19" stroke="white" stroke-width="1.4" stroke-linecap="round"/>
<path d="M41 14H51" stroke="white" stroke-width="1.4" stroke-linecap="round"/>
<defs>
<linearGradient id="paint0_linear_2943_86861" x1="27.9993" y1="24.1719" x2="27.9993" y2="45.4209" gradientUnits="userSpaceOnUse">
<stop stop-color="#DDDDDD"/>
<stop offset="1" stop-color="#EEEEEE"/>
</linearGradient>
<linearGradient id="paint1_linear_2943_86861" x1="27.9993" y1="20.2363" x2="27.9993" y2="27.3194" gradientUnits="userSpaceOnUse">
<stop stop-color="#BBBBBB"/>
<stop offset="1" stop-color="#CCCCCC"/>
</linearGradient>
<linearGradient id="paint2_linear_2943_86861" x1="20.5214" y1="18.6641" x2="20.5214" y2="23.7796" gradientUnits="userSpaceOnUse">
<stop stop-color="#AAAAAA"/>
<stop offset="1" stop-color="#BBBBBB"/>
</linearGradient>
<linearGradient id="paint3_linear_2943_86861" x1="35.4744" y1="18.6641" x2="35.4744" y2="23.7796" gradientUnits="userSpaceOnUse">
<stop stop-color="#AAAAAA"/>
<stop offset="1" stop-color="#BBBBBB"/>
</linearGradient>
<linearGradient id="paint4_linear_2943_86861" x1="27.9991" y1="30.332" x2="27.9991" y2="41.9982" gradientUnits="userSpaceOnUse">
<stop stop-color="#AAAAAA"/>
<stop offset="1" stop-color="#CCCCCC"/>
</linearGradient>
</defs>
</svg>
