<svg width="60" height="60" viewBox="0 0 60 60" fill="none" xmlns="http://www.w3.org/2000/svg">
<circle cx="28" cy="32" r="28" fill="#F8F8F8"/>
<path d="M32.999 35.7088C32.999 42.4028 28.5226 45.9356 23 45.9356C17.4774 45.9356 12.9999 42.4028 12.9999 35.7088C12.9999 29.0147 23 18.6641 23 18.6641C23 18.6641 32.999 29.0147 32.999 35.7088Z" fill="url(#paint0_linear_2943_86939)"/>
<rect x="27.9993" y="30.332" width="14.9993" height="14.9993" rx="7.49967" fill="white"/>
<path fill-rule="evenodd" clip-rule="evenodd" d="M35.4986 34.0813C35.2028 34.0813 34.963 33.8415 34.963 33.5456V31.4029C34.963 31.107 35.2028 30.8672 35.4986 30.8672C35.7945 30.8672 36.0343 31.107 36.0343 31.4029V33.5456C36.0343 33.8415 35.7945 34.0813 35.4986 34.0813ZM29.0704 37.2955C28.7745 37.2955 28.5347 37.5353 28.5347 37.8312C28.5347 38.127 28.7745 38.3669 29.0704 38.3669H31.2131C31.509 38.3669 31.7488 38.127 31.7488 37.8312C31.7488 37.5353 31.509 37.2955 31.2131 37.2955H29.0704ZM39.7842 37.2955C39.4883 37.2955 39.2485 37.5353 39.2485 37.8312C39.2485 38.127 39.4883 38.3669 39.7842 38.3669H41.9269C42.2228 38.3669 42.4626 38.127 42.4626 37.8312C42.4626 37.5353 42.2228 37.2955 41.9269 37.2955H39.7842ZM34.963 44.2595C34.963 44.5553 35.2028 44.7952 35.4986 44.7952C35.7945 44.7952 36.0343 44.5553 36.0343 44.2595V42.1167C36.0343 41.8208 35.7945 41.581 35.4986 41.581C35.2028 41.581 34.963 41.8208 34.963 42.1167V44.2595Z" fill="#CCCCCC"/>
<rect x="28.8326" y="31.1653" width="13.3328" height="13.3328" rx="6.66638" stroke="#AAAAAA" stroke-width="1.66659"/>
<path d="M34.8226 37.025L38.5714 34.7756L36.3221 38.5245C36.1794 38.7623 35.9225 38.9078 35.6452 38.9078L35.2287 38.9078C34.7927 38.9078 34.4393 38.5543 34.4393 38.1183L34.4393 37.7019C34.4393 37.4246 34.5848 37.1676 34.8226 37.025Z" fill="#AAAAAA"/>
<circle cx="46" cy="14" r="13.3" fill="#3B4A65" stroke="white" stroke-width="1.4"/>
<path d="M46 9V19" stroke="white" stroke-width="1.4" stroke-linecap="round"/>
<path d="M41 14H51" stroke="white" stroke-width="1.4" stroke-linecap="round"/>
<defs>
<linearGradient id="paint0_linear_2943_86939" x1="22.9994" y1="18.6641" x2="22.9994" y2="45.9356" gradientUnits="userSpaceOnUse">
<stop stop-color="#BBBBBB"/>
<stop offset="1" stop-color="#CCCCCC"/>
</linearGradient>
</defs>
</svg>
