<svg width="60" height="60" viewBox="0 0 60 60" fill="none" xmlns="http://www.w3.org/2000/svg">
<circle cx="28" cy="32" r="28" fill="#F8F8F8"/>
<path d="M18.833 20.8635C18.833 19.1914 20.1885 17.8359 21.8606 17.8359H33.9713C35.6434 17.8359 36.9989 19.1914 36.9989 20.8635V34.4873C36.9989 38.6675 33.6101 42.0563 29.4299 42.0563H26.402C22.2218 42.0563 18.833 38.6675 18.833 34.4873V20.8635Z" fill="url(#paint0_linear_2943_86951)"/>
<rect x="21.8651" y="20.8633" width="12.1106" height="13.6239" rx="1.5138" fill="white"/>
<path fill-rule="evenodd" clip-rule="evenodd" d="M24.5094 36C23.8823 36 23.374 36.5083 23.374 37.1353C23.374 37.7624 23.8823 38.2707 24.5094 38.2707H25.6461V46.5962C25.6461 47.4323 26.3238 48.11 27.1599 48.11H28.6737C29.5098 48.11 30.1875 47.4323 30.1875 46.5962V38.2707H31.3216C31.9487 38.2707 32.457 37.7624 32.457 37.1353C32.457 36.5083 31.9487 36 31.3216 36H24.5094Z" fill="#AAAAAA"/>
<path d="M25.6459 43.5703H30.1873V46.5978C30.1873 47.4339 29.5096 48.1116 28.6735 48.1116H27.1597C26.3236 48.1116 25.6459 47.4339 25.6459 46.5978V43.5703Z" fill="#CCCCCC" fill-opacity="0.8"/>
<path d="M30.5683 29.0013C30.5683 30.9521 29.3822 31.6504 27.9191 31.6504C26.456 31.6504 25.2699 30.9521 25.2699 29.0013C25.2699 27.0506 27.9191 23.7031 27.9191 23.7031C27.9191 23.7031 30.5683 27.0506 30.5683 29.0013Z" fill="#CCCCCC"/>
<circle cx="46" cy="14" r="13.3" fill="#3B4A65" stroke="white" stroke-width="1.4"/>
<path d="M46 9V19" stroke="white" stroke-width="1.4" stroke-linecap="round"/>
<path d="M41 14H51" stroke="white" stroke-width="1.4" stroke-linecap="round"/>
<defs>
<linearGradient id="paint0_linear_2943_86951" x1="27.9159" y1="17.8359" x2="27.9159" y2="42.0563" gradientUnits="userSpaceOnUse">
<stop stop-color="#BBBBBB"/>
<stop offset="1" stop-color="#CCCCCC"/>
</linearGradient>
</defs>
</svg>
