<svg width="124" height="56" viewBox="0 0 124 56" fill="none" xmlns="http://www.w3.org/2000/svg">
<rect opacity="0.2" width="124" height="56" fill="white"/>
<rect x="1" y="13" width="123" height="28" fill="#FEF7F5"/>
<rect x="18" y="39" width="5" height="14" rx="2.5" fill="#EEEEEE"/>
<circle cx="20.5" cy="30.5" r="3.5" fill="#3B4A65"/>
<path d="M59.8125 33.5C59.8125 32.1193 60.9318 31 62.3125 31C63.6932 31 64.8125 32.1193 64.8125 33.5V49.5C64.8125 50.8807 63.6932 52 62.3125 52C60.9318 52 59.8125 50.8807 59.8125 49.5V33.5Z" fill="#EEEEEE"/>
<circle cx="62.5" cy="16.5" r="3.5" fill="#EB5147"/>
<path d="M101.812 12.5C101.812 11.1193 102.932 10 104.312 10C105.693 10 106.812 11.1193 106.812 12.5V36.5C106.812 37.8807 105.693 39 104.312 39C102.932 39 101.812 37.8807 101.812 36.5V12.5Z" fill="#EEEEEE"/>
<circle cx="104.5" cy="3.5" r="3.5" fill="#EB5147"/>
</svg>
