<svg width="124" height="56" viewBox="0 0 124 56" fill="none" xmlns="http://www.w3.org/2000/svg">
<rect opacity="0.2" width="124" height="56" fill="white"/>
<rect y="7.54297" width="124" height="16.9963" fill="#FEF7F5"/>
<rect width="124" height="11.629" transform="matrix(1 0 0 -1 0 42.6289)" fill="#F1FAFF"/>
<rect x="74" y="21" width="3" height="23.2581" rx="1.5" fill="#EEEEEE"/>
<circle cx="75.5" cy="20.5" r="3.5" fill="#3B4A65"/>
<rect x="71" y="43.4062" width="7" height="7" transform="rotate(-45 71 43.4062)" fill="#0F61FF"/>
<rect x="101" y="4" width="3" height="42" rx="1.5" fill="#EEEEEE"/>
<circle cx="102.5" cy="3.5" r="3.5" fill="#EB5147"/>
<rect x="98" y="48.4062" width="7" height="7" transform="rotate(-45 98 48.4062)" fill="#EB5147"/>
<rect x="48" y="11" width="3" height="31" rx="1.5" fill="#EEEEEE"/>
<circle cx="49.5" cy="11.5" r="3.5" fill="#3B4A65"/>
<rect x="45" y="42.1133" width="7" height="7" transform="rotate(-45 45 42.1133)" fill="#0F61FF"/>
<rect x="20" y="12" width="3" height="24" rx="1.5" fill="#EEEEEE"/>
<circle cx="21.5" cy="12.5" r="3.5" fill="#3B4A65"/>
<rect x="17" y="34.7734" width="7" height="7" transform="rotate(-45 17 34.7734)" fill="#0F61FF"/>
</svg>
