<svg width="204" height="204" viewBox="0 0 204 204" fill="none" xmlns="http://www.w3.org/2000/svg">
<path d="M204 102C204 158.333 158.333 204 102 204C45.667 204 0 158.333 0 102C0 45.667 45.667 0 102 0C158.333 0 204 45.667 204 102ZM27.54 102C27.54 143.123 60.8769 176.46 102 176.46C143.123 176.46 176.46 143.123 176.46 102C176.46 60.8769 143.123 27.54 102 27.54C60.8769 27.54 27.54 60.8769 27.54 102Z" fill="#EEEEEE"/>
<path d="M102 13.77C102 6.16504 108.193 -0.0956029 115.729 0.927977C133.522 3.34478 150.449 10.4304 164.735 21.5743C182.659 35.5553 195.398 55.1229 200.932 77.1706C206.465 99.2184 204.475 122.483 195.278 143.27C187.947 159.84 176.372 174.079 161.828 184.611C155.669 189.072 147.254 186.477 143.663 179.774C140.072 173.07 142.701 164.814 148.63 160.051C157.863 152.635 165.248 143.078 170.093 132.127C176.807 116.952 178.26 99.9694 174.22 83.8746C170.181 67.7797 160.881 53.4954 147.797 43.2892C138.355 35.9241 127.333 30.9873 115.692 28.8096C108.217 27.4111 102 21.375 102 13.77Z" fill="#FFC633"/>
<circle cx="153" cy="174" r="14" fill="#FFB800"/>
<path d="M143.719 172.955C143.931 172.342 144.173 171.711 144.418 171.196C145.067 169.84 146.415 167.904 146.415 167.904C146.415 167.904 146.82 167.293 147.495 167.904C148.169 168.516 148.25 169.281 149.222 169.47C150.193 169.658 150.844 169.037 151.893 169.118C153.143 169.215 153.842 170.026 154.418 171.007M143.719 172.955C143.519 173.533 143.345 174.095 143.216 174.526C143.079 174.988 143.303 175.476 143.738 175.683L153.539 180.371H160.474C160.474 180.371 161.678 179.232 161.956 178.145M143.719 172.955L154.489 178.145H161.956M161.956 178.145C161.99 178.013 162.01 177.882 162.012 177.753C162.042 176.357 161.324 175.275 160.015 174.785C159.226 174.489 158.69 174.912 157.857 174.785C155.92 174.491 155.319 172.54 154.418 171.007M154.418 171.007L151.893 172.486M155.408 172.955L153.927 173.924" stroke="white" stroke-width="1.4" stroke-linecap="round"/>
</svg>
