<svg width="530" height="184" viewBox="0 0 530 184" fill="none" xmlns="http://www.w3.org/2000/svg">
<circle cx="80" cy="82" r="80" fill="#E9F5FA"/>
<circle cx="80" cy="82" r="67" fill="url(#paint0_linear_37_2)"/>
<path opacity="0.7" d="M61.0052 110.561V53.9987H83.1927C96.0443 53.9987 103.427 61.9284 103.427 73.0612C103.427 84.3503 95.9271 92.1237 82.8802 92.1237H72.724V110.561H61.0052ZM72.724 82.6706H81.0052C87.9583 82.6706 91.3568 78.7643 91.3177 73.0612C91.3568 67.4362 87.9583 63.6471 81.0052 63.6081H72.724V82.6706Z" fill="white"/>
<circle cx="450" cy="82" r="80" fill="#E9F5FA"/>
<circle cx="450" cy="82" r="67" fill="url(#paint1_linear_37_2)"/>
<path opacity="0.7" d="M431.005 110.561V53.9987H453.193C466.044 53.9987 473.427 61.9284 473.427 73.0612C473.427 84.3503 465.927 92.1237 452.88 92.1237H442.724V110.561H431.005ZM442.724 82.6706H451.005C457.958 82.6706 461.357 78.7643 461.318 73.0612C461.357 67.4362 457.958 63.6471 451.005 63.6081H442.724V82.6706Z" fill="white"/>
<g opacity="0.3" filter="url(#filter0_f_37_2)">
<ellipse cx="265" cy="158" rx="43" ry="5" fill="#CECE9C"/>
</g>
<g opacity="0.3" filter="url(#filter1_f_37_2)">
<ellipse cx="265" cy="158" rx="56" ry="6" fill="#E1E1C2"/>
</g>
<g opacity="0.5" filter="url(#filter2_f_37_2)">
<ellipse cx="265" cy="155.5" rx="20" ry="5.5" fill="#B8B898"/>
</g>
<circle cx="264" cy="80" r="80" fill="#FFEBA3"/>
<circle cx="264" cy="80" r="67" fill="url(#paint2_linear_37_2)"/>
<path d="M245 108.562V52H267.188C280.039 52 287.422 59.9297 287.422 71.0625C287.422 82.3516 279.922 90.125 266.875 90.125H256.719V108.562H245ZM256.719 80.6719H265C271.953 80.6719 275.352 76.7656 275.312 71.0625C275.352 65.4375 271.953 61.6484 265 61.6094H256.719V80.6719Z" fill="white"/>
<defs>
<filter id="filter0_f_37_2" x="210" y="141" width="110" height="34" filterUnits="userSpaceOnUse" color-interpolation-filters="sRGB">
<feFlood flood-opacity="0" result="BackgroundImageFix"/>
<feBlend mode="normal" in="SourceGraphic" in2="BackgroundImageFix" result="shape"/>
<feGaussianBlur stdDeviation="6" result="effect1_foregroundBlur_37_2"/>
</filter>
<filter id="filter1_f_37_2" x="189" y="132" width="152" height="52" filterUnits="userSpaceOnUse" color-interpolation-filters="sRGB">
<feFlood flood-opacity="0" result="BackgroundImageFix"/>
<feBlend mode="normal" in="SourceGraphic" in2="BackgroundImageFix" result="shape"/>
<feGaussianBlur stdDeviation="10" result="effect1_foregroundBlur_37_2"/>
</filter>
<filter id="filter2_f_37_2" x="241" y="146" width="48" height="19" filterUnits="userSpaceOnUse" color-interpolation-filters="sRGB">
<feFlood flood-opacity="0" result="BackgroundImageFix"/>
<feBlend mode="normal" in="SourceGraphic" in2="BackgroundImageFix" result="shape"/>
<feGaussianBlur stdDeviation="2" result="effect1_foregroundBlur_37_2"/>
</filter>
<linearGradient id="paint0_linear_37_2" x1="80" y1="15" x2="80" y2="149" gradientUnits="userSpaceOnUse">
<stop stop-color="#D8ECF4"/>
<stop offset="0.0001" stop-color="#D6EFF9"/>
<stop offset="1" stop-color="#E4F1F7"/>
</linearGradient>
<linearGradient id="paint1_linear_37_2" x1="450" y1="15" x2="450" y2="149" gradientUnits="userSpaceOnUse">
<stop stop-color="#D8ECF4"/>
<stop offset="0.0001" stop-color="#D6EFF9"/>
<stop offset="1" stop-color="#E4F1F7"/>
</linearGradient>
<linearGradient id="paint2_linear_37_2" x1="264" y1="13" x2="264" y2="147" gradientUnits="userSpaceOnUse">
<stop stop-color="#FFDA55"/>
<stop offset="0.0001" stop-color="#FFDA55"/>
<stop offset="1" stop-color="#FFDD65"/>
</linearGradient>
</defs>
</svg>
