<svg width="476" height="300" viewBox="0 0 476 300" fill="none" xmlns="http://www.w3.org/2000/svg">
<path d="M353.404 170.547C348.041 208.197 326.844 236.46 295.302 255.802C285.277 262.358 247.775 283.457 236.072 285.147C225.762 286.637 240.469 264.562 229.628 263.018C168.664 254.335 127.948 200.358 136.592 139.667C145.236 78.9754 199.403 38.5126 260.367 47.1957C321.332 55.8788 362.048 109.856 353.404 170.547Z" fill="url(#paint0_linear_36_97)"/>
<circle cx="244.001" cy="155.002" r="67" fill="#FFD118" stroke="#FFF9C6" stroke-width="12"/>
<path d="M226.665 181.064V129.451H246.911C258.638 129.451 265.375 136.687 265.375 146.845C265.375 157.147 258.531 164.24 246.626 164.24H237.358V181.064H226.665ZM237.358 155.614H244.915C251.259 155.614 254.36 152.05 254.325 146.845C254.36 141.713 251.259 138.255 244.915 138.219H237.358V155.614Z" fill="white"/>
<g filter="url(#filter0_f_36_97)">
<path d="M385.9 40.8342C393.648 56.9718 382.395 78.4727 360.765 88.8578C339.135 99.2429 315.319 94.5796 307.571 78.442C299.823 62.3044 292.548 51.6428 314.179 41.2577C325.736 35.7088 349.82 24.1627 364.767 23.7788C377.795 23.4441 382.292 33.3191 385.9 40.8342Z" fill="#EDB03E"/>
<path d="M379.078 31.8252C386.163 46.5809 376.628 67.2374 355.578 77.344C334.528 87.4507 312.446 81.9739 305.362 67.2182C298.277 52.4626 307.812 31.8061 328.862 21.6994C349.912 11.5927 371.993 17.0695 379.078 31.8252Z" fill="#FFD017" stroke="#FFF0BB" stroke-width="6"/>
<path d="M336.579 72.3274L322.024 44.2439L338.983 34.9308C348.806 29.5364 356.49 30.3746 359.354 35.9021C362.259 41.5072 358.527 48.5148 348.554 53.9912L340.792 58.2542L345.536 67.4085L336.579 72.3274ZM338.359 53.5607L344.689 50.0847C350.003 47.1661 351.596 43.8002 350.098 40.985C348.681 38.1757 345.108 37.7209 339.784 40.6201L333.454 44.0961L338.359 53.5607Z" fill="white"/>
</g>
<path d="M142.923 129.788C139.723 137.887 125.24 139.754 110.576 133.959C95.9113 128.163 86.6178 116.9 89.8182 108.802C93.0186 100.704 94.1122 94.462 108.777 100.257C116.612 103.354 132.933 109.812 140.175 115.877C146.487 121.163 144.413 126.017 142.923 129.788Z" fill="#EDB03E"/>
<path d="M142.953 121.559C141.938 124.126 138.866 126.288 133.485 126.982C128.224 127.66 121.45 126.789 114.498 124.042C107.546 121.294 102.008 117.3 98.6316 113.208C95.1787 109.023 94.4136 105.345 95.4282 102.778C96.4427 100.211 99.5156 98.0492 104.896 97.3556C110.158 96.6773 116.931 97.5479 123.883 100.295C130.835 103.043 136.373 107.038 139.75 111.129C143.202 115.314 143.968 118.992 142.953 121.559Z" fill="#FFD017" stroke="#FFF0BB" stroke-width="6"/>
<path d="M108.384 112.448L111.71 102.91L123.588 107.052C130.467 109.451 133.953 112.167 133.298 114.044C132.634 115.948 128.163 115.858 121.178 113.423L115.742 111.527L114.657 114.636L108.384 112.448ZM116.297 109.933L120.731 111.479C124.453 112.777 126.502 112.752 126.816 111.783C127.168 110.842 125.571 109.569 121.851 108.264L117.418 106.718L116.297 109.933Z" fill="white"/>
<path d="M421.625 177.556C417.256 183.471 404.38 181.372 392.866 172.867C381.352 164.363 375.56 152.673 379.929 146.758C384.298 140.843 386.48 135.938 397.994 144.443C404.146 148.987 416.959 158.459 422.01 165.317C426.413 171.295 423.66 174.801 421.625 177.556Z" fill="#EDB03E"/>
<path d="M423.282 170.732C422.017 172.444 419.064 173.517 414.21 172.725C409.515 171.96 403.814 169.52 398.331 165.471C392.849 161.422 388.841 156.689 386.729 152.427C384.546 148.02 384.702 144.882 385.967 143.171C387.231 141.459 390.185 140.386 395.038 141.177C399.733 141.943 405.435 144.382 410.917 148.432C416.399 152.481 420.407 157.213 422.52 161.476C424.703 165.882 424.546 169.02 423.282 170.732Z" fill="#FFD017" stroke="#FFF0BB" stroke-width="5.44681"/>
<path d="M395.234 154.462L399.997 147.384L409.432 153.814C414.897 157.538 417.369 160.67 416.431 162.063C415.481 163.476 411.637 162.275 406.089 158.494L401.77 155.551L400.218 157.858L395.234 154.462ZM402.566 154.368L406.088 156.768C409.044 158.783 410.818 159.279 411.282 158.554C411.772 157.861 410.646 156.402 407.693 154.382L404.171 151.982L402.566 154.368Z" fill="white"/>
<path d="M29.9061 244.827C34.9097 257.488 57.552 260.407 80.4791 251.347C103.406 242.286 117.936 224.677 112.932 212.016C107.929 199.355 106.219 189.596 83.292 198.657C71.0419 203.498 45.5248 213.595 34.2021 223.077C24.3334 231.341 27.5759 238.931 29.9061 244.827Z" fill="#EDB03E"/>
<path d="M29.8593 231.961C31.4455 235.975 36.2497 239.354 44.6621 240.439C52.8878 241.499 63.4773 240.138 74.3464 235.843C85.2155 231.547 93.8747 225.302 99.1532 218.904C104.552 212.362 105.748 206.611 104.162 202.598C102.575 198.584 97.7712 195.205 89.3588 194.12C81.1331 193.06 70.5436 194.421 59.6745 198.716C48.8054 203.012 40.1462 209.257 34.8677 215.655C29.4693 222.197 28.2731 227.947 29.8593 231.961Z" fill="#FFD017" stroke="#FFF0BB" stroke-width="9.38065"/>
<path d="M55.509 230.75L49.2688 216.242L67.3346 208.472C77.7988 203.971 84.6849 203.419 85.9131 206.274C87.1586 209.17 81.9094 213.79 71.2862 218.36L63.0167 221.917L65.0508 226.646L55.509 230.75ZM61.9738 219.492L68.7167 216.592C74.3781 214.157 76.7143 211.965 76.0533 210.515C75.4645 209.059 72.2794 209.277 66.6136 211.702L59.8708 214.603L61.9738 219.492Z" fill="white"/>
<circle cx="400" cy="79.0017" r="8" fill="#FFE353"/>
<circle cx="125.001" cy="91.0017" r="6" fill="#4885E2"/>
<circle cx="358.001" cy="232.002" r="11" fill="#39DB84"/>
<circle cx="197.001" cy="26.0017" r="5" fill="#39DB84"/>
<circle cx="120.001" cy="224.002" r="4" fill="#FA554C"/>
<circle cx="81.0005" cy="64.0017" r="3" fill="#FA554C"/>
<circle cx="410" cy="274.002" r="3" fill="#3F86F1"/>
<circle cx="372" cy="151.002" r="3" fill="#FFE353"/>
<circle cx="358.001" cy="105.002" r="3" fill="#FA554C"/>
<circle cx="307.001" cy="18.0017" r="3" fill="#4885E2"/>
<circle cx="161.001" cy="269.002" r="5" fill="#39DB84"/>
<defs>
<filter id="filter0_f_36_97" x="299.357" y="13.0628" width="89.4919" height="81.8269" filterUnits="userSpaceOnUse" color-interpolation-filters="sRGB">
<feFlood flood-opacity="0" result="BackgroundImageFix"/>
<feBlend mode="normal" in="SourceGraphic" in2="BackgroundImageFix" result="shape"/>
<feGaussianBlur stdDeviation="0.25" result="effect1_foregroundBlur_36_97"/>
</filter>
<linearGradient id="paint0_linear_36_97" x1="270.501" y1="69.0017" x2="226.632" y2="284.054" gradientUnits="userSpaceOnUse">
<stop stop-color="#FFDF34"/>
<stop offset="1" stop-color="#F9CE37"/>
</linearGradient>
</defs>
</svg>
