<svg width="241" height="240" viewBox="0 0 241 240" fill="none" xmlns="http://www.w3.org/2000/svg">
<path d="M240.5 120C240.5 186.274 186.774 240 120.5 240C54.2258 240 0.5 186.274 0.5 120C0.5 53.7258 54.2258 0 120.5 0C186.774 0 240.5 53.7258 240.5 120ZM38.18 120C38.18 165.464 75.0359 202.32 120.5 202.32C165.964 202.32 202.82 165.464 202.82 120C202.82 74.5359 165.964 37.68 120.5 37.68C75.0359 37.68 38.18 74.5359 38.18 120Z" fill="#D9D9D9"/>
<path d="M111.251 19.2637C110.299 8.90227 117.965 -0.423619 128.347 0.256841C141.661 1.12938 154.781 4.2192 167.154 9.44059C185.336 17.1129 201.345 29.1508 213.763 44.4879C226.181 59.8251 234.625 77.9881 238.346 97.368C242.068 116.748 240.953 136.747 235.1 155.593C229.247 174.439 218.836 191.551 204.79 205.412C190.744 219.274 173.496 229.457 154.574 235.061C135.652 240.664 115.64 241.515 96.3114 237.537C83.1571 234.83 70.5953 229.943 59.1299 223.12C50.1885 217.799 49.1552 205.771 55.8091 197.772C62.4631 189.772 74.2876 188.915 83.588 193.58C89.9995 196.797 96.828 199.174 103.907 200.63C117.166 203.359 130.894 202.776 143.875 198.932C156.855 195.088 168.687 188.102 178.323 178.593C187.958 169.084 195.1 157.345 199.116 144.417C203.131 131.488 203.896 117.769 201.343 104.474C198.789 91.1798 192.997 78.72 184.478 68.1987C175.959 57.6775 164.977 49.4195 152.505 44.1562C145.846 41.3465 138.873 39.4366 131.767 38.4548C121.46 37.0306 112.202 29.6252 111.251 19.2637Z" fill="#FFD633"/>
<circle cx="121.676" cy="18.8235" r="18.8235" fill="#FFBC00"/>
<path d="M129.761 17.6599C129.298 17.4564 128.797 17.3516 128.291 17.352H115.055C114.549 17.3515 114.048 17.4562 113.585 17.6595C112.93 17.946 112.372 18.4172 111.98 19.0155C111.588 19.6139 111.38 20.3133 111.379 21.0285V26.1755C111.379 26.3706 111.456 26.5576 111.594 26.6955C111.732 26.8334 111.919 26.9108 112.114 26.9108C112.309 26.9108 112.496 26.8334 112.634 26.6955C112.772 26.5576 112.849 26.3706 112.849 26.1755V25.8079C112.851 25.7108 112.89 25.6179 112.958 25.5493C113.027 25.4806 113.12 25.4414 113.217 25.4403H130.129C130.226 25.4414 130.319 25.4806 130.388 25.5493C130.456 25.6179 130.495 25.7108 130.497 25.8079V26.1755C130.497 26.3706 130.574 26.5576 130.712 26.6955C130.85 26.8334 131.037 26.9108 131.232 26.9108C131.427 26.9108 131.614 26.8334 131.752 26.6955C131.89 26.5576 131.967 26.3706 131.967 26.1755V21.0285C131.966 20.3134 131.757 19.614 131.366 19.0158C130.974 18.4176 130.416 17.9464 129.761 17.6599ZM127.188 10.7344H116.158C115.476 10.7344 114.821 11.0055 114.339 11.4881C113.856 11.9708 113.585 12.6254 113.585 13.3079V16.6167C113.585 16.6452 113.591 16.6733 113.604 16.6988C113.617 16.7243 113.635 16.7464 113.658 16.7635C113.681 16.7807 113.707 16.7922 113.735 16.7974C113.763 16.8025 113.792 16.8011 113.82 16.7932C114.221 16.6758 114.637 16.6164 115.055 16.6167H115.25C115.295 16.617 115.339 16.6005 115.373 16.5704C115.407 16.5403 115.428 16.4987 115.434 16.4536C115.474 16.0943 115.645 15.7624 115.914 15.5212C116.183 15.28 116.532 15.1465 116.894 15.1461H119.467C119.829 15.1462 120.178 15.2795 120.448 15.5207C120.717 15.7619 120.888 16.0941 120.929 16.4536C120.934 16.4987 120.955 16.5403 120.989 16.5704C121.023 16.6005 121.067 16.617 121.112 16.6167H122.236C122.282 16.617 122.326 16.6005 122.36 16.5704C122.394 16.5403 122.415 16.4987 122.42 16.4536C122.46 16.0945 122.631 15.7628 122.9 15.5217C123.169 15.2805 123.518 15.1468 123.879 15.1461H126.452C126.814 15.1462 127.163 15.2795 127.433 15.5207C127.702 15.7619 127.874 16.0941 127.914 16.4536C127.919 16.4987 127.941 16.5403 127.974 16.5704C128.008 16.6005 128.052 16.617 128.098 16.6167H128.291C128.709 16.6165 129.125 16.6761 129.526 16.7937C129.554 16.8016 129.583 16.803 129.611 16.7978C129.639 16.7927 129.665 16.781 129.688 16.7639C129.711 16.7467 129.729 16.7245 129.742 16.6989C129.755 16.6734 129.761 16.6453 129.761 16.6167V13.3079C129.761 12.6254 129.49 11.9708 129.007 11.4881C128.525 11.0055 127.87 10.7344 127.188 10.7344Z" fill="white"/>
<circle cx="68.7347" cy="207.058" r="18.8235" fill="#FFBC00"/>
<path d="M68.7352 195.586V198.233M68.7352 215.88V218.527M76.8463 198.945L74.9746 200.817M62.4959 213.296L60.6242 215.168M80.2058 207.057H77.5588M59.9117 207.057H57.2646M76.8463 215.168L74.9746 213.296M62.4959 200.817L60.6242 198.945" stroke="white" stroke-width="1.76471" stroke-miterlimit="10" stroke-linecap="round"/>
<path d="M68.735 211.472C71.1716 211.472 73.1468 209.497 73.1468 207.06C73.1468 204.624 71.1716 202.648 68.735 202.648C66.2985 202.648 64.3232 204.624 64.3232 207.06C64.3232 209.497 66.2985 211.472 68.735 211.472Z" fill="white" stroke="white" stroke-width="1.76471" stroke-miterlimit="10" stroke-linecap="round"/>
</svg>
