<svg width="24" height="24" viewBox="0 0 24 24" fill="none" xmlns="http://www.w3.org/2000/svg">
<rect x="5.64935" y="3.66406" width="8.90664" height="2.96882" rx="0.567183" fill="url(#paint0_linear_2850_13512)"/>
<rect x="7.13379" y="6.63281" width="5.93776" height="0.890645" fill="#F09B3E"/>
<rect x="4.75879" y="7.52344" width="10.688" height="12.7659" rx="1.70155" fill="url(#paint1_linear_2850_13512)"/>
<rect x="4.75879" y="10.4922" width="10.688" height="6.82827" fill="url(#paint2_linear_2850_13512)"/>
<path fill-rule="evenodd" clip-rule="evenodd" d="M9.49551 11.6797C9.33888 11.6797 9.21191 11.8067 9.21191 11.9633V12.8663H8.30801C8.15138 12.8663 8.02441 12.9932 8.02441 13.1499V14.364C8.02441 14.5206 8.15138 14.6476 8.30801 14.6476H9.21191V15.5524C9.21191 15.7091 9.33888 15.836 9.49551 15.836H10.7097C10.8663 15.836 10.9932 15.7091 10.9932 15.5524V14.6476H11.8973C12.0539 14.6476 12.1808 14.5206 12.1808 14.364V13.1499C12.1808 12.9932 12.0539 12.8663 11.8973 12.8663H10.9932V11.9633C10.9932 11.8067 10.8663 11.6797 10.7096 11.6797H9.49551Z" fill="url(#paint3_linear_2850_13512)"/>
<rect width="4.2426" height="8.48519" rx="2.1213" transform="matrix(0.707114 0.707099 -0.707114 0.707099 17.5 13)" fill="url(#paint4_linear_2850_13512)"/>
<path d="M16 14.5C16.8284 13.6716 18.1716 13.6716 19 14.5C19.8284 15.3284 19.8284 16.6715 19 17.4999L17.5 18.9999L14.5 15.9999L16 14.5Z" fill="url(#paint5_linear_2850_13512)"/>
<defs>
<linearGradient id="paint0_linear_2850_13512" x1="8.02446" y1="2.77342" x2="12.0323" y2="7.22673" gradientUnits="userSpaceOnUse">
<stop stop-color="#CFE8FF"/>
<stop offset="1" stop-color="#BEDEFB"/>
</linearGradient>
<linearGradient id="paint1_linear_2850_13512" x1="10.1028" y1="7.52344" x2="10.1028" y2="20.2893" gradientUnits="userSpaceOnUse">
<stop stop-color="#FFDD6B"/>
<stop offset="1" stop-color="#FBB52F"/>
</linearGradient>
<linearGradient id="paint2_linear_2850_13512" x1="4.4619" y1="9.30466" x2="15.8919" y2="18.2113" gradientUnits="userSpaceOnUse">
<stop stop-color="#FFFEF9"/>
<stop offset="1" stop-color="#F0EFEB"/>
</linearGradient>
<linearGradient id="paint3_linear_2850_13512" x1="8.3213" y1="11.3828" x2="11.8839" y2="16.133" gradientUnits="userSpaceOnUse">
<stop stop-color="#FB5872"/>
<stop offset="1" stop-color="#EE405D"/>
</linearGradient>
<linearGradient id="paint4_linear_2850_13512" x1="-0.555109" y1="4.55507" x2="4.88233" y2="4.49257" gradientUnits="userSpaceOnUse">
<stop stop-color="#FFF7F5"/>
<stop offset="1" stop-color="#EBE1DF"/>
</linearGradient>
<linearGradient id="paint5_linear_2850_13512" x1="15.6543" y1="14.4142" x2="19.1014" y2="17.8613" gradientUnits="userSpaceOnUse">
<stop stop-color="#F7655B"/>
<stop offset="1" stop-color="#E1453B"/>
</linearGradient>
</defs>
</svg>
