<svg width="40" height="40" viewBox="0 0 40 40" fill="none" xmlns="http://www.w3.org/2000/svg">
<rect width="40" height="40" rx="8" fill="#F8F8F8"/>
<rect x="9" y="9" width="22" height="22" rx="3.83333" fill="url(#paint0_linear_2204_68859)"/>
<rect x="13" y="15" width="3.5" height="8" rx="1" fill="white"/>
<rect x="18.5" y="17" width="3.5" height="8" rx="1" fill="white"/>
<rect x="24" y="14" width="3.5" height="6" rx="1" fill="white"/>
<path d="M31.2907 30.7049C31.6812 31.0954 32.3144 31.0954 32.7049 30.7049C33.0954 30.3144 33.0954 29.6812 32.7049 29.2907L31.2907 30.7049ZM28.4335 27.8477L31.2907 30.7049L32.7049 29.2907L29.8477 26.4335L28.4335 27.8477Z" fill="#3470A8"/>
<circle cx="26" cy="24" r="5" fill="url(#paint1_linear_2204_68859)" fill-opacity="0.5" stroke="#3470A8" stroke-width="2" stroke-miterlimit="10" stroke-linecap="round"/>
<defs>
<linearGradient id="paint0_linear_2204_68859" x1="20" y1="9" x2="20" y2="31" gradientUnits="userSpaceOnUse">
<stop stop-color="#68B7FF"/>
<stop offset="1" stop-color="#4FA7F8"/>
</linearGradient>
<linearGradient id="paint1_linear_2204_68859" x1="23" y1="20.5" x2="30" y2="27.5" gradientUnits="userSpaceOnUse">
<stop stop-color="#F8FCFF"/>
<stop offset="1" stop-color="#EDF7FF" stop-opacity="0"/>
</linearGradient>
</defs>
</svg>
