<svg width="81" height="81" viewBox="0 0 81 81" fill="none" xmlns="http://www.w3.org/2000/svg">
<g id="icon_80/&#236;&#178;&#173;&#236;&#163;&#188;">
<g id="Group 1261167585">
<path id="Vector 1501" d="M24.5696 37.5868C22.4013 43.5854 22.6057 48.4541 22.6057 49.8125H43.5543C43.5543 48.4541 43.5543 43.6997 41.5904 37.5868C39.8447 32.1531 38.3172 28.7568 37.6625 22.6439C37.0494 16.9191 37.0114 14.4282 37.009 9.6721C37.0088 9.11982 36.5612 8.67188 36.0089 8.67188H30.1531C29.6009 8.67188 29.153 9.12034 29.1563 9.67261C29.1827 14.0814 29.3456 17.0805 28.4972 22.6442C27.5862 28.6184 26.5338 32.1531 24.5696 37.5868Z" fill="url(#paint0_linear_3019_115080)"/>
<path id="Union" d="M28.8934 7.77429C28.8934 7.09209 29.4464 6.53906 30.1286 6.53906H36.1017C36.7839 6.53906 37.3369 7.09209 37.3369 7.77429V8.79458C37.3369 8.99373 37.2426 9.17086 37.0963 9.2838C37.2393 9.35887 37.3369 9.50882 37.3369 9.68155C37.3369 9.80753 37.285 9.92139 37.2014 10.0029C37.3974 10.2215 37.5165 10.5104 37.5165 10.827V11.8473C37.5165 12.1884 37.24 12.4649 36.8989 12.4649H29.3315C28.9904 12.4649 28.7139 12.1884 28.7139 11.8473V10.827C28.7139 10.5104 28.833 10.2216 29.0289 10.003C28.9453 9.92143 28.8934 9.80755 28.8934 9.68155C28.8934 9.50882 28.991 9.35887 29.134 9.2838C28.9876 9.17086 28.8934 8.99373 28.8934 8.79458V7.77429Z" fill="url(#paint1_linear_3019_115080)"/>
<rect id="Rectangle 34624711" x="22.6006" y="48.4609" width="20.9486" height="16.3009" fill="url(#paint2_linear_3019_115080)"/>
<path id="Rectangle 34624713" d="M22.6006 64.75H43.5492V70.542C43.5492 71.0943 43.1015 71.542 42.5492 71.542H23.6006C23.0483 71.542 22.6006 71.0943 22.6006 70.542V64.75Z" fill="url(#paint3_linear_3019_115080)"/>
</g>
<g id="&#236;&#178;&#173;&#236;&#163;&#188;&#236;&#158;&#148;">
<path id="Union_2" d="M34.7067 53.6094H60.5514L58.2075 60.64C57.0349 64.1573 53.7431 66.5298 50.0354 66.5298H44.8962C41.0503 66.5298 37.6702 63.9803 36.6135 60.2824L34.7067 53.6094Z" fill="#EAF4FE"/>
<path id="Rectangle 34624904" d="M43.63 65.2969H51.0143L53.1028 74.2463C53.1441 74.4234 53.101 74.6084 52.9528 74.7138C52.4682 75.0584 51.0292 75.7562 47.3221 75.7562C43.6151 75.7562 42.1761 75.0584 41.6915 74.7138C41.5433 74.6084 41.5002 74.4234 41.5415 74.2463L43.63 65.2969Z" fill="white"/>
<path id="Rectangle 34624905" opacity="0.5" d="M43.63 65.2969H51.0143L53.1028 74.2463C53.1441 74.4234 53.101 74.6084 52.9528 74.7138C52.4682 75.0584 51.0292 75.7562 47.3221 75.7562C43.6151 75.7562 42.1761 75.0584 41.6915 74.7138C41.5433 74.6084 41.5002 74.4234 41.5415 74.2463L43.63 65.2969Z" fill="url(#paint4_linear_3019_115080)"/>
<g id="Mask group">
<mask id="mask0_3019_115080" style="mask-type:alpha" maskUnits="userSpaceOnUse" x="35" y="54" width="26" height="13">
<path id="Rectangle 34624903" d="M35.0305 54.1562H60.2296L57.957 60.3393C56.7846 63.5289 53.8456 65.7329 50.4547 65.9574C48.8278 66.0651 47.4484 66.1541 47.3301 66.1541C47.2188 66.1541 45.9939 66.0755 44.4966 65.9767C40.9586 65.7431 37.9293 63.3575 36.8639 59.9757L35.0305 54.1562Z" fill="#D9D9D9"/>
</mask>
<g mask="url(#mask0_3019_115080)">
<path id="Vector 1596" d="M59.7977 56.2673C62.1105 55.7458 62.9919 56.3468 63.1435 56.7125L64.4178 60.6829L52.6375 67.9264C48.1808 66.2968 39.4926 62.5493 40.3936 60.596C41.5197 58.1543 47.392 56.1715 52.4639 57.1919C57.5359 58.2123 56.9068 56.9192 59.7977 56.2673Z" fill="#61C2F3"/>
<path id="Vector 1595" d="M57.1003 56.6477C60.4744 54.5221 62.578 56.4434 62.5353 57.4593L59.5862 74.6794C58.9034 75.78 55.9246 77.9811 49.4722 77.9811C43.0197 77.9811 39.4436 76.4572 38.4621 75.6953L36.5417 57.9173C36.371 57.621 36.5161 56.9522 38.4621 56.6475C40.8945 56.2665 44.094 58.42 47.8068 58.674C51.5195 58.928 54.2375 58.4511 57.1003 56.6477Z" fill="#75CCF8"/>
<path id="Vector 1594" d="M43.5085 58.0951C38.5612 54.7103 34.9993 56.0599 34.1347 56.2289C32.7157 56.9559 31.8118 75.6974 40.5233 77.3075C59.0792 80.7373 75.2137 63.0737 59.3488 60.0474C58.1067 59.8105 48.9875 61.8436 43.5085 58.0951Z" fill="#93DBFF"/>
</g>
</g>
<ellipse id="Ellipse 3426" cx="47.6284" cy="53.6036" rx="12.9224" ry="1.84577" fill="#DAEBFC"/>
</g>
</g>
<defs>
<linearGradient id="paint0_linear_3019_115080" x1="33.0774" y1="6.34318" x2="33.0774" y2="49.8125" gradientUnits="userSpaceOnUse">
<stop stop-color="#1DD05A"/>
<stop offset="1" stop-color="#42DA64"/>
</linearGradient>
<linearGradient id="paint1_linear_3019_115080" x1="33.3668" y1="6.5391" x2="33.3668" y2="12.4649" gradientUnits="userSpaceOnUse">
<stop stop-color="#6CBDF5"/>
<stop offset="1" stop-color="#4B9CD5"/>
</linearGradient>
<linearGradient id="paint2_linear_3019_115080" x1="22.6006" y1="56.4113" x2="43.5589" y2="56.4113" gradientUnits="userSpaceOnUse">
<stop stop-color="#EFF8FF"/>
<stop offset="1" stop-color="#C0DAED"/>
</linearGradient>
<linearGradient id="paint3_linear_3019_115080" x1="33.0749" y1="64.75" x2="33.0749" y2="71.542" gradientUnits="userSpaceOnUse">
<stop stop-color="#37D55B"/>
<stop offset="1" stop-color="#11A039"/>
</linearGradient>
<linearGradient id="paint4_linear_3019_115080" x1="47.3221" y1="65.2969" x2="47.3221" y2="75.7562" gradientUnits="userSpaceOnUse">
<stop stop-color="#EAF4FE"/>
<stop offset="1" stop-color="#C4DBF1"/>
</linearGradient>
</defs>
</svg>
