<svg width="100" height="100" viewBox="0 0 100 100" fill="none" xmlns="http://www.w3.org/2000/svg">
<g id="emotion icon/100/&#236;&#167;&#156;&#236;&#166;&#157;" clip-path="url(#clip0_2351_80211)">
<circle id="Ellipse 3140" cx="50" cy="50" r="50" fill="url(#paint0_linear_2351_80211)"/>
<path id="Vector 768" d="M20.0627 50.6415L39.9049 43.4195L20.0582 35.1945" stroke="#26282C" stroke-width="4" stroke-linecap="round" stroke-linejoin="round"/>
<path id="Vector 769" d="M80.3357 50.6415L60.4935 43.4195L80.3402 35.1945" stroke="#26282C" stroke-width="4" stroke-linecap="round" stroke-linejoin="round"/>
<path id="Union" d="M46.8078 80.8149L45.939 79.0134L46.8078 80.8149ZM53.1954 80.8149L52.3266 82.6163L53.1954 80.8149ZM45.939 79.0134C44.6293 79.645 43.1597 80 41.6016 80V84C43.7743 84 45.8367 83.5037 47.6766 82.6163L45.939 79.0134ZM41.6016 80C36.0787 80 31.6016 75.5228 31.6016 70H27.6016C27.6016 77.732 33.8696 84 41.6016 84V80ZM31.6016 70C31.6016 64.4772 36.0787 60 41.6016 60V56C33.8696 56 27.6016 62.268 27.6016 70H31.6016ZM41.6016 60C43.1597 60 44.6293 60.355 45.939 60.9866L47.6766 57.3837C45.8367 56.4963 43.7743 56 41.6016 56V60ZM54.0641 60.9866C55.3738 60.355 56.8434 60 58.4016 60V56C56.2289 56 54.1665 56.4963 52.3266 57.3837L54.0641 60.9866ZM58.4016 60C63.9244 60 68.4016 64.4772 68.4016 70H72.4016C72.4016 62.268 66.1335 56 58.4016 56V60ZM68.4016 70C68.4016 75.5228 63.9244 80 58.4016 80V84C66.1335 84 72.4016 77.732 72.4016 70H68.4016ZM58.4016 80C56.8434 80 55.3738 79.645 54.0641 79.0134L52.3266 82.6163C54.1665 83.5037 56.2289 84 58.4016 84V80ZM45.939 60.9866C48.4498 62.1975 51.5533 62.1975 54.0641 60.9866L52.3266 57.3837C50.9136 58.0651 49.0895 58.0651 47.6766 57.3837L45.939 60.9866ZM47.6766 82.6163C49.0895 81.9349 50.9136 81.9349 52.3266 82.6163L54.0641 79.0134C51.5533 77.8025 48.4498 77.8025 45.939 79.0134L47.6766 82.6163Z" fill="#26282C"/>
<path id="Line 100" d="M46 32L46 38" stroke="#26282C" stroke-width="4" stroke-linecap="round"/>
<path id="Line 101" d="M54 32L54 38" stroke="#26282C" stroke-width="4" stroke-linecap="round"/>
</g>
<defs>
<linearGradient id="paint0_linear_2351_80211" x1="50" y1="0" x2="50" y2="100" gradientUnits="userSpaceOnUse">
<stop stop-color="#EF6547"/>
<stop offset="1" stop-color="#F7A897"/>
</linearGradient>
<clipPath id="clip0_2351_80211">
<rect width="100" height="100" fill="white"/>
</clipPath>
</defs>
</svg>
