<svg width="32" height="32" viewBox="0 0 32 32" fill="none" xmlns="http://www.w3.org/2000/svg">
<rect width="32" height="32" rx="16" fill="white"/>
<path fill-rule="evenodd" clip-rule="evenodd" d="M22.4755 12.028C24.4605 12.2631 26 13.9518 26 16C26 18.2091 24.2091 20 22 20H13C10.7909 20 9 18.2091 9 16C9 13.7909 10.7909 12 13 12H13.5275C13.7762 9.75002 15.6837 8 18 8C20.3259 8 22.2396 9.76455 22.4755 12.028Z" fill="#D6D6D6"/>
<path fill-rule="evenodd" clip-rule="evenodd" d="M16.4986 18.3984H16.8C18.3464 18.3984 19.6 19.652 19.6 21.1984C19.6 22.7448 18.3464 23.9984 16.8 23.9984H8.8C7.2536 23.9984 6 22.7448 6 21.1984C6 19.652 7.2536 18.3984 8.8 18.3984H9.50145C9.55519 16.5124 11.101 15 13 15C14.899 15 16.4448 16.5124 16.4986 18.3984Z" fill="#ABABAB"/>
</svg>
