<svg width="60" height="60" viewBox="0 0 60 60" fill="none" xmlns="http://www.w3.org/2000/svg">
<path d="M52.0815 33.5905L46 37.5V23L49.661 20.8034C50.4479 20.3312 51.4552 20.4552 52.1042 21.1042L52.4142 21.4142C52.7893 21.7893 53 22.298 53 22.8284V31.9081C53 32.5886 52.654 33.2225 52.0815 33.5905Z" stroke="#72A0C0" stroke-width="2"/>
<path d="M7.91849 33.5905L14 37.5V23L10.339 20.8034C9.55207 20.3312 8.54475 20.4552 7.89582 21.1042L7.58579 21.4142C7.21071 21.7893 7 22.298 7 22.8284V31.9081C7 32.5886 7.34604 33.2225 7.91849 33.5905Z" stroke="#72A0C0" stroke-width="2"/>
<path d="M26.2532 16.5143C28.6568 15.5429 31.3436 15.5429 33.7472 16.5143L46.0701 21.4946C46.8259 21.8 47.3207 22.5337 47.3207 23.3489V37.5707C47.3207 39.0634 46.4896 40.4319 45.165 41.1201L39.2219 44.2083C33.441 47.2121 26.5594 47.2121 20.7785 44.2083L14.8354 41.1201C13.5108 40.4319 12.6797 39.0634 12.6797 37.5707V23.3489C12.6797 22.5337 13.1745 21.8 13.9303 21.4946L26.2532 16.5143Z" fill="url(#paint0_linear_4007_13840)"/>
<path d="M18 28C22.899 29.5439 24.8635 30 30 30C35.1365 30 37.101 29.5439 42 28" stroke="#8BBEE3" stroke-width="1.5" stroke-linecap="round"/>
<path d="M18 35C22.899 36.5439 24.8635 37.5 30 37.5C35.1365 37.5 37.101 36.5439 42 35" stroke="#8BBEE3" stroke-width="1.5" stroke-linecap="round"/>
<path fill-rule="evenodd" clip-rule="evenodd" d="M45.0407 16.199C45.0159 15.6357 44.6113 15.1405 44.0342 15.0247C43.4559 14.9087 42.8909 15.2109 42.6519 15.7229C42.6482 15.7229 42.6446 15.7229 42.6409 15.7229C41.7892 15.7229 40.9771 15.8929 40.2367 16.2008C39.8212 15.8174 39.1832 15.7524 38.692 16.0798C38.1993 16.4084 38.0137 17.0256 38.2102 17.5582C37.632 18.1363 37.166 18.8267 36.8477 19.5941C36.2791 19.6128 35.7771 20.0196 35.6604 20.6021C35.5436 21.1858 35.8516 21.756 36.371 21.9917C36.371 21.9939 36.371 21.9962 36.371 21.9985C36.371 22.8482 36.5398 23.6585 36.8455 24.3976C36.4642 24.8135 36.4001 25.4507 36.7267 25.9415C37.0536 26.4328 37.6667 26.619 38.1975 26.426C38.7752 27.0069 39.4659 27.4751 40.2337 27.7949C40.2557 28.3609 40.6611 28.8595 41.2405 28.9758C41.8201 29.092 42.3863 28.7881 42.6244 28.2741C42.6299 28.2741 42.6354 28.2741 42.6409 28.2741C43.4854 28.2741 44.291 28.1069 45.0263 27.8039C45.4419 28.1839 46.0772 28.2474 46.5667 27.921C47.0552 27.5953 47.2418 26.9861 47.0536 26.4566C47.6393 25.8758 48.1111 25.1803 48.4326 24.4064C48.9979 24.384 49.4956 23.9783 49.6117 23.3986C49.7278 22.8186 49.4243 22.2519 48.9107 22.0135C48.9107 22.0085 48.9108 22.0035 48.9108 21.9985C48.9108 21.155 48.7445 20.3503 48.443 19.6156C48.8943 19.2052 48.9904 18.5152 48.6421 17.9918C48.293 17.4673 47.6179 17.2905 47.0649 17.5515C46.4893 16.9778 45.8029 16.5153 45.0407 16.199Z" fill="url(#paint1_linear_4007_13840)"/>
<path opacity="0.8" fill-rule="evenodd" clip-rule="evenodd" d="M45.5628 19.9048C45.5628 21.2911 44.4399 22.415 43.0548 22.415C41.6697 22.415 40.5469 21.2911 40.5469 19.9048C40.5469 18.5184 41.6697 17.3945 43.0548 17.3945C44.4399 17.3945 45.5628 18.5184 45.5628 19.9048ZM40.547 21.9971C40.547 22.6903 39.9856 23.2523 39.293 23.2523C38.6005 23.2523 38.0391 22.6903 38.0391 21.9971C38.0391 21.304 38.6005 20.742 39.293 20.742C39.9856 20.742 40.547 21.304 40.547 21.9971ZM43.4649 26.5986C44.1575 26.5986 44.7189 26.0367 44.7189 25.3435C44.7189 24.6503 44.1575 24.0884 43.4649 24.0884C42.7724 24.0884 42.2109 24.6503 42.2109 25.3435C42.2109 26.0367 42.7724 26.5986 43.4649 26.5986Z" fill="url(#paint2_linear_4007_13840)"/>
<defs>
<linearGradient id="paint0_linear_4007_13840" x1="30.0002" y1="15" x2="30.0002" y2="49" gradientUnits="userSpaceOnUse">
<stop stop-color="#C6E6FD"/>
<stop offset="1" stop-color="#A9D2F0"/>
</linearGradient>
<linearGradient id="paint1_linear_4007_13840" x1="38.3675" y1="15.5974" x2="46.5488" y2="28.0474" gradientUnits="userSpaceOnUse">
<stop stop-color="#85B6EF"/>
<stop offset="1" stop-color="#6594CB"/>
</linearGradient>
<linearGradient id="paint2_linear_4007_13840" x1="40.4182" y1="17.0002" x2="43.8128" y2="26.6464" gradientUnits="userSpaceOnUse">
<stop stop-color="#437ACB"/>
<stop offset="1" stop-color="#1B4F8C"/>
</linearGradient>
</defs>
</svg>
