<svg width="32" height="33" viewBox="0 0 32 33" fill="none" xmlns="http://www.w3.org/2000/svg">
<circle cx="16" cy="16.2031" r="16" fill="#3F86F1"/>
<path d="M7.75 12.9531L12.75 7.95312M12.75 7.95312H9.25M12.75 7.95312V11.4531" stroke="white" stroke-width="1.4" stroke-linecap="round" stroke-linejoin="round"/>
<path d="M7 25.2031V22.4866C7 22.2105 7.22386 21.9866 7.5 21.9866H11.4091C11.6852 21.9866 11.9091 21.7628 11.9091 21.4866V17.5588C11.9091 17.2827 12.1329 17.0588 12.4091 17.0588H16.3182C16.5943 17.0588 16.8182 16.8349 16.8182 16.5588V12.631C16.8182 12.3548 17.042 12.131 17.3182 12.131H21.2273C21.5034 12.131 21.7273 11.9071 21.7273 11.631V7.70315C21.7273 7.427 21.9511 7.20313 22.2273 7.20315L25 7.20327" stroke="white" stroke-width="1.4" stroke-linecap="round"/>
</svg>
