<svg width="61" height="60" viewBox="0 0 61 60" fill="none" xmlns="http://www.w3.org/2000/svg">
<path d="M60.5 30C60.5 46.5685 47.0685 60 30.5 60C13.9315 60 0.5 46.5685 0.5 30C0.5 13.4315 13.9315 0 30.5 0C47.0685 0 60.5 13.4315 60.5 30ZM6.5 30C6.5 43.2548 17.2452 54 30.5 54C43.7548 54 54.5 43.2548 54.5 30C54.5 16.7452 43.7548 6 30.5 6C17.2452 6 6.5 16.7452 6.5 30Z" fill="#EEEEEE"/>
<path d="M30.5 3C30.5 1.34315 29.1535 -0.0155382 27.505 0.149874C23.8091 0.520698 20.2053 1.57563 16.8803 3.2698C12.662 5.41914 9.01225 8.5363 6.22949 12.3664C3.44673 16.1966 1.60996 20.6309 0.86935 25.307C0.285577 28.9928 0.395927 32.7462 1.18532 36.3757C1.53744 37.9947 3.24571 38.8555 4.82147 38.3435V38.3435C6.39724 37.8315 7.23962 36.1401 6.92808 34.5128C6.40737 31.7928 6.35991 28.9957 6.79548 26.2456C7.38797 22.5048 8.85738 18.9573 11.0836 15.8932C13.3098 12.829 16.2296 10.3353 19.6042 8.61584C22.0851 7.35176 24.7601 6.53253 27.5078 6.18726C29.1517 5.98068 30.5 4.65685 30.5 3V3Z" fill="#FFC633"/>
</svg>
