<svg width="101" height="100" viewBox="0 0 101 100" fill="none" xmlns="http://www.w3.org/2000/svg">
<path d="M15.5 45.57C15.5 44.3458 16.0606 43.189 17.0214 42.4305L48.0214 17.9568C49.4747 16.8095 51.5253 16.8095 52.9786 17.9568L83.9786 42.4305C84.9394 43.189 85.5 44.3458 85.5 45.57V82C85.5 84.2091 83.7091 86 81.5 86H19.5C17.2909 86 15.5 84.2091 15.5 82V45.57Z" fill="#FFCD1E"/>
<rect x="22.8713" y="16" width="55.2632" height="51.5789" rx="6" fill="url(#paint0_linear_2361_96577)"/>
<path fill-rule="evenodd" clip-rule="evenodd" d="M30.2347 39.234C30.2347 39.6258 30.5523 39.9434 30.944 39.9434C31.3358 39.9434 31.6534 39.6258 31.6534 39.234V36.2021L34.2766 37.7166C34.6159 37.9125 35.0497 37.7963 35.2456 37.457C35.4415 37.1177 35.3252 36.6839 34.986 36.488L32.3571 34.9702L34.9887 33.4509C35.328 33.255 35.4442 32.8212 35.2483 32.4819C35.0525 32.1426 34.6186 32.0264 34.2794 32.2222L31.6534 33.7384V30.7218C31.6534 30.3301 31.3358 30.0125 30.944 30.0125C30.5523 30.0125 30.2347 30.3301 30.2347 30.7218V33.7448L27.6142 32.2319C27.2749 32.036 26.8411 32.1523 26.6452 32.4915C26.4493 32.8308 26.5656 33.2646 26.9048 33.4605L29.5197 34.9702L26.9076 36.4783C26.5683 36.6742 26.4521 37.108 26.6479 37.4473C26.8438 37.7866 27.2777 37.9028 27.6169 37.707L30.2347 36.1956V39.234Z" fill="#877878"/>
<path fill-rule="evenodd" clip-rule="evenodd" d="M43.2894 39.234C43.2894 39.6258 43.607 39.9434 43.9987 39.9434C44.3905 39.9434 44.7081 39.6258 44.7081 39.234V36.2021L47.3313 37.7166C47.6706 37.9125 48.1044 37.7963 48.3003 37.457C48.4962 37.1177 48.3799 36.6839 48.0406 36.488L45.4118 34.9702L48.0434 33.4509C48.3827 33.255 48.4989 32.8212 48.303 32.4819C48.1072 32.1426 47.6733 32.0264 47.334 32.2222L44.7081 33.7384V30.7218C44.7081 30.3301 44.3905 30.0125 43.9987 30.0125C43.607 30.0125 43.2894 30.3301 43.2894 30.7218V33.7448L40.6689 32.2319C40.3296 32.036 39.8958 32.1523 39.6999 32.4915C39.504 32.8308 39.6203 33.2646 39.9595 33.4605L42.5744 34.9702L39.9623 36.4783C39.623 36.6742 39.5068 37.108 39.7026 37.4473C39.8985 37.7866 40.3323 37.9028 40.6716 37.707L43.2894 36.1956V39.234Z" fill="#877878"/>
<path fill-rule="evenodd" clip-rule="evenodd" d="M56.4339 39.234C56.4339 39.6258 56.7515 39.9434 57.1432 39.9434C57.535 39.9434 57.8526 39.6258 57.8526 39.234V36.2066L60.468 37.7166C60.8073 37.9125 61.2411 37.7963 61.437 37.457C61.6329 37.1177 61.5166 36.6839 61.1774 36.488L58.5485 34.9702L61.1801 33.4509C61.5194 33.255 61.6356 32.8212 61.4397 32.4819C61.2439 32.1426 60.81 32.0264 60.4708 32.2222L57.8526 33.7338V30.7218C57.8526 30.3301 57.535 30.0125 57.1432 30.0125C56.7515 30.0125 56.4339 30.3301 56.4339 30.7218V33.7493L53.8056 32.2319C53.4663 32.036 53.0325 32.1523 52.8366 32.4915C52.6407 32.8308 52.757 33.2646 53.0962 33.4605L55.7111 34.9702L53.099 36.4783C52.7597 36.6742 52.6435 37.108 52.8394 37.4473C53.0352 37.7866 53.4691 37.9028 53.8083 37.707L56.4339 36.1911V39.234Z" fill="#877878"/>
<path fill-rule="evenodd" clip-rule="evenodd" d="M69.3362 39.234C69.3362 39.6258 69.6538 39.9434 70.0456 39.9434C70.4374 39.9434 70.7549 39.6258 70.7549 39.234V36.2021L73.3782 37.7166C73.7175 37.9125 74.1513 37.7963 74.3472 37.457C74.543 37.1177 74.4268 36.6839 74.0875 36.488L71.4587 34.9702L74.0903 33.4509C74.4295 33.255 74.5458 32.8212 74.3499 32.4819C74.154 32.1426 73.7202 32.0264 73.3809 32.2222L70.7549 33.7384V30.7218C70.7549 30.3301 70.4374 30.0125 70.0456 30.0125C69.6538 30.0125 69.3362 30.3301 69.3362 30.7218V33.7448L66.7158 32.2319C66.3765 32.036 65.9426 32.1523 65.7468 32.4915C65.5509 32.8308 65.6671 33.2646 66.0064 33.4605L68.6213 34.9702L66.0091 36.4783C65.6699 36.6742 65.5536 37.108 65.7495 37.4473C65.9454 37.7866 66.3792 37.9028 66.7185 37.707L69.3362 36.1956V39.234Z" fill="#877878"/>
<mask id="mask0_2361_96577" style="mask-type:alpha" maskUnits="userSpaceOnUse" x="15" y="17" width="71" height="69">
<path d="M15.5 45.57C15.5 44.3458 16.0606 43.189 17.0214 42.4305L48.0214 17.9568C49.4747 16.8095 51.5253 16.8095 52.9786 17.9568L83.9786 42.4305C84.9394 43.189 85.5 44.3458 85.5 45.57V82C85.5 84.2091 83.7091 86 81.5 86H19.5C17.2909 86 15.5 84.2091 15.5 82V45.57Z" fill="#D9D9D9"/>
</mask>
<g mask="url(#mask0_2361_96577)">
<path d="M50.5 71.2585L15.5 43.627V85.9954H85.5V43.627L50.5 71.2585Z" fill="#FFDB5E"/>
<path d="M46.7821 61.3004L15.5 85.9968H85.5L54.2179 61.3004C52.038 59.5795 48.962 59.5795 46.7821 61.3004Z" fill="#FFCD1E"/>
</g>
<defs>
<linearGradient id="paint0_linear_2361_96577" x1="50.5029" y1="16" x2="50.5029" y2="67.5789" gradientUnits="userSpaceOnUse">
<stop stop-color="#F8F8F8"/>
<stop offset="1" stop-color="#F5F3E9"/>
</linearGradient>
</defs>
</svg>
