<svg width="56" height="57" viewBox="0 0 56 57" fill="none" xmlns="http://www.w3.org/2000/svg">
<path d="M6.96484 9.80859C10.2599 10.06 17.6953 11.7098 21.0759 16.2982C22.6455 18.6529 24.5614 19.3978 28.0923 19.3978C31.6232 19.3978 33.9205 21.8057 33.9205 21.8057" stroke="#3F86F1" stroke-width="2" stroke-linecap="round"/>
<path d="M47.0625 6.16016C43.7674 6.41153 36.3321 8.06138 32.9514 12.6497C31.3819 15.0045 27.8787 15.3574 25.935 15.7493C23.9913 16.1413 22.5317 17.3202 22.5317 17.3202" stroke="#3F86F1" stroke-width="2" stroke-linecap="round"/>
<path d="M6.96484 22.8864L9.80837 18.9466C10.0878 18.5595 10.6642 18.5595 10.9436 18.9466L13.7871 22.8864" stroke="#3F86F1" stroke-width="2" stroke-linecap="round"/>
<path d="M6.96484 30.3474L9.80837 26.4075C10.0878 26.0204 10.6642 26.0204 10.9436 26.4075L13.7871 30.3474" stroke="#3F86F1" stroke-width="2" stroke-linecap="round"/>
<path d="M10.293 19.1055V36.9837" stroke="#3F86F1" stroke-width="2" stroke-linecap="round"/>
<path d="M42.2109 22.8864L45.0545 18.9466C45.3339 18.5595 45.9103 18.5595 46.1897 18.9466L49.0332 22.8864" stroke="#3F86F1" stroke-width="2" stroke-linecap="round"/>
<path d="M42.2109 30.3474L45.0545 26.4075C45.3339 26.0204 45.9103 26.0204 46.1897 26.4075L49.0332 30.3474" stroke="#3F86F1" stroke-width="2" stroke-linecap="round"/>
<path d="M45.5391 19.1055V36.9837" stroke="#3F86F1" stroke-width="2" stroke-linecap="round"/>
<path d="M7.09375 37H48.0766M20.3992 43.0066H26.9115M33.4238 43.0066H26.9115M26.9115 43.0066V47.7224M22.7571 47.7224H30.7852M15.8511 43.0066H12.0896M41.7861 43.0066H38.0247" stroke="#3F86F1" stroke-width="2" stroke-linecap="round"/>
</svg>
