<svg width="32" height="32" viewBox="0 0 32 32" fill="none" xmlns="http://www.w3.org/2000/svg">
<rect width="32" height="32" rx="8" fill="white"/>
<circle cx="17" cy="16.5" r="9" fill="#A26A16"/>
<circle cx="15" cy="15.5" r="9" fill="#FFD600"/>
<path d="M13.1543 12.4297H15.8105C16.3379 12.4297 16.7887 12.529 17.1631 12.7275C17.5374 12.9261 17.8206 13.2028 18.0127 13.5576C18.2048 13.9092 18.3008 14.3145 18.3008 14.7734C18.3008 15.2292 18.2031 15.6344 18.0078 15.9893C17.8158 16.3408 17.5309 16.6159 17.1533 16.8145C16.7757 17.0098 16.3216 17.1074 15.791 17.1074H14.4238V19.5H13.1543V12.4297ZM15.6152 16.0625C16.0775 16.0625 16.4242 15.9469 16.6553 15.7158C16.8864 15.4814 17.002 15.1673 17.002 14.7734C17.002 14.3763 16.8864 14.0638 16.6553 13.8359C16.4242 13.6081 16.0775 13.4941 15.6152 13.4941H14.4238V16.0625H15.6152Z" fill="#884405"/>
</svg>
