<svg width="60" height="60" viewBox="0 0 60 60" fill="none" xmlns="http://www.w3.org/2000/svg">
<circle cx="28" cy="32" r="28" fill="#F8F8F8"/>
<rect x="14.6628" y="17.834" width="26.6655" height="28.3322" rx="4.72202" fill="url(#paint0_linear_2965_9545)"/>
<path d="M17.3711 28.1917C17.3711 24.427 20.4231 21.375 24.1878 21.375H31.8035C35.5683 21.375 38.6202 24.427 38.6202 28.1917V28.5912C38.6202 30.4736 37.0943 31.9996 35.2119 31.9996H20.7795C18.8971 31.9996 17.3711 30.4736 17.3711 28.5912V28.1917Z" fill="white"/>
<path fill-rule="evenodd" clip-rule="evenodd" d="M27.995 24.8203C27.5604 24.8203 27.208 24.468 27.208 24.0333L27.208 22.3609L28.782 22.3609L28.782 24.0333C28.782 24.468 28.4297 24.8203 27.995 24.8203Z" fill="#AAAAAA"/>
<path fill-rule="evenodd" clip-rule="evenodd" d="M32.9137 25.6005C32.5373 25.3832 32.4084 24.9019 32.6257 24.5255L33.9046 22.3104L35.2677 23.0974L33.9888 25.3125C33.7715 25.6889 33.2902 25.8179 32.9137 25.6005Z" fill="#AAAAAA"/>
<path fill-rule="evenodd" clip-rule="evenodd" d="M23.0754 25.5987C22.6989 25.816 22.2176 25.687 22.0003 25.3106L20.7214 23.0955L22.0845 22.3085L23.3634 24.5236C23.5808 24.9 23.4518 25.3814 23.0754 25.5987Z" fill="#AAAAAA"/>
<path d="M27.9956 27.043L26.2249 30.5845H29.7664L27.9956 27.043Z" fill="#AAAAAA"/>
<path d="M18.2232 28.1917C18.2232 24.8976 20.8937 22.2271 24.1878 22.2271H31.8035C35.0977 22.2271 37.7682 24.8976 37.7682 28.1917V28.5912C37.7682 30.003 36.6237 31.1475 35.2119 31.1475H20.7795C19.3677 31.1475 18.2232 30.003 18.2232 28.5912V28.1917Z" stroke="#CCCCCC" stroke-width="1.70419"/>
<circle cx="46" cy="14" r="13.3" fill="#3B4A65" stroke="white" stroke-width="1.4"/>
<path d="M46 9V19" stroke="white" stroke-width="1.4" stroke-linecap="round"/>
<path d="M41 14H51" stroke="white" stroke-width="1.4" stroke-linecap="round"/>
<defs>
<linearGradient id="paint0_linear_2965_9545" x1="27.9956" y1="17.834" x2="27.9956" y2="46.1662" gradientUnits="userSpaceOnUse">
<stop stop-color="#DDDDDD"/>
<stop offset="1" stop-color="#EEEEEE"/>
</linearGradient>
</defs>
</svg>
