<svg width="40" height="41" viewBox="0 0 40 41" fill="none" xmlns="http://www.w3.org/2000/svg">
<rect y="0.96875" width="40" height="40" rx="8" fill="#F8F8F8"/>
<g clip-path="url(#clip0_2199_78713)">
<path d="M30.0036 15.8156C30.0036 17.1106 29.4983 18.3264 28.583 19.244L24.9361 22.8891C24.4121 23.4155 23.7717 23.8137 23.0777 24.0467C23.101 23.9884 23.1196 23.9302 23.1382 23.8696C23.2034 23.653 23.2523 23.4341 23.2849 23.2128C23.2942 23.1523 23.3036 23.0917 23.3082 23.0312C23.3175 22.9706 23.3222 22.9101 23.3268 22.8472C23.3362 22.7261 23.3408 22.6026 23.3408 22.4815C23.3408 22.393 23.3385 22.3045 23.3315 22.216C23.3338 22.2113 23.3315 22.209 23.3315 22.2043C23.3292 22.1391 23.3222 22.0739 23.3152 22.0087C23.3152 21.9854 23.3129 21.9644 23.3105 21.9411C23.3245 21.9318 23.3385 21.9202 23.3501 21.9109C23.3362 21.9225 23.3222 21.9318 23.3082 21.9388C23.3012 21.8643 23.2896 21.7921 23.2779 21.7199C23.25 21.5289 23.2081 21.3426 23.1568 21.1586C23.1662 21.1516 23.1755 21.1423 23.1825 21.1353L26.8271 17.4879C27.2882 17.0267 27.5187 16.4212 27.5187 15.8156C27.5187 15.21 27.2882 14.6045 26.8271 14.1433C25.9049 13.221 24.4051 13.221 23.4829 14.1433L19.8383 17.7907C19.8383 17.7907 19.8243 17.8047 19.815 17.814C19.6939 17.9351 19.5914 18.0702 19.4959 18.2216C19.454 18.2891 19.4167 18.3567 19.3841 18.4289C19.3655 18.4661 19.3469 18.5034 19.3329 18.543C19.3282 18.55 19.3236 18.5593 19.3236 18.5663C19.291 18.6431 19.263 18.7223 19.2397 18.8038C19.2141 18.8947 19.1932 18.9878 19.1792 19.081C19.1722 19.1206 19.1652 19.1602 19.1629 19.1998C19.1559 19.244 19.1536 19.2883 19.1513 19.3326C19.1466 19.3838 19.1466 19.4327 19.1466 19.4839C19.1466 19.5725 19.1513 19.6586 19.1629 19.7448C19.1839 19.9172 19.2234 20.0872 19.2817 20.2502C19.2887 20.2712 19.2956 20.2945 19.305 20.3154C19.3282 20.3737 19.3515 20.4342 19.3795 20.4901C19.3818 20.4948 19.3841 20.4971 19.3841 20.4994C19.4098 20.5507 19.4354 20.5996 19.4656 20.6485C19.4703 20.6601 19.4773 20.6718 19.4843 20.6834C19.5052 20.7184 19.5262 20.751 19.5518 20.7836C19.5704 20.8162 19.5937 20.8488 19.6193 20.8791C19.638 20.9094 19.6613 20.935 19.6822 20.9629C19.7311 21.0235 19.7824 21.0794 19.8383 21.1353C19.8942 21.1912 19.95 21.2424 20.0106 21.2913C20.0385 21.3123 20.0642 21.3356 20.0944 21.3542C20.1247 21.3798 20.1573 21.4031 20.1899 21.4218C20.2225 21.4474 20.2551 21.4683 20.2901 21.4893C20.3017 21.4963 20.3133 21.5033 20.325 21.5079C20.3739 21.5382 20.4228 21.5638 20.474 21.5895C20.4764 21.5895 20.4787 21.5918 20.4833 21.5941C20.5392 21.6221 20.5998 21.6454 20.658 21.6686C20.679 21.678 20.6999 21.6849 20.7209 21.6896C20.7791 21.855 20.8187 22.025 20.8397 22.1974C20.849 22.2835 20.856 22.3697 20.856 22.4559C20.856 22.5071 20.856 22.556 20.8513 22.6073C20.8513 22.6469 20.8466 22.6865 20.842 22.7261C20.835 22.8076 20.821 22.8891 20.8024 22.9706C20.7954 23.0102 20.7861 23.0498 20.7744 23.0894C20.7581 23.1523 20.7395 23.2152 20.7162 23.2781C20.6999 23.3293 20.679 23.3782 20.6557 23.4294C20.644 23.4574 20.6301 23.4853 20.6161 23.5133C20.5835 23.5832 20.5462 23.653 20.5043 23.7183C20.4112 23.8696 20.3064 24.0047 20.1876 24.1258C20.0851 24.0979 19.9826 24.0653 19.8802 24.028C19.8359 24.0117 19.794 23.9977 19.7498 23.9791C19.7032 23.9628 19.6566 23.9442 19.61 23.9232C19.5635 23.9046 19.5169 23.8836 19.468 23.8603C19.3818 23.8207 19.2956 23.7788 19.2118 23.7322C19.1606 23.7066 19.1093 23.6763 19.0604 23.6461C19.0162 23.6204 18.9719 23.5948 18.93 23.5669C18.7996 23.4853 18.6715 23.3968 18.5504 23.3013C18.5085 23.2711 18.4689 23.2385 18.4293 23.2035C18.3082 23.1057 18.1941 23.0009 18.0823 22.8891C18.0171 22.8239 17.9566 22.7587 17.8983 22.6911C17.8704 22.6632 17.8448 22.6352 17.8215 22.6049C17.7679 22.5444 17.719 22.4838 17.6701 22.4209C17.6119 22.3464 17.5583 22.2719 17.5071 22.1974C17.4535 22.1205 17.4046 22.0436 17.3557 21.9644C17.3348 21.9272 17.3138 21.8922 17.2905 21.8526C17.2439 21.7711 17.1997 21.6873 17.1601 21.6034C17.1205 21.5242 17.0833 21.4427 17.0483 21.3612C17.0087 21.2704 16.9738 21.1795 16.9412 21.084C16.9365 21.0747 16.9319 21.0631 16.9295 21.0514C16.8969 20.9629 16.869 20.8744 16.8434 20.7836C16.7921 20.5996 16.7526 20.4133 16.7223 20.2223C16.7106 20.1477 16.7013 20.0755 16.6943 20.001H16.692C16.6897 19.9824 16.6897 19.9661 16.6874 19.9498C16.6827 19.8939 16.678 19.8356 16.6757 19.7797C16.671 19.7448 16.6687 19.7099 16.6687 19.6749C16.6641 19.6051 16.6641 19.5329 16.6641 19.463C16.6641 19.3395 16.6687 19.2184 16.678 19.095C16.6827 19.0344 16.6897 18.9715 16.6967 18.911C16.7013 18.8481 16.7106 18.7875 16.72 18.727C16.7526 18.5057 16.8015 18.2845 16.8643 18.0702C16.883 18.012 16.9016 17.9514 16.9226 17.8932C17.1578 17.1991 17.556 16.5609 18.0823 16.0369L21.7269 12.3895C22.6422 11.4742 23.8602 10.9688 25.1527 10.9688H25.155C26.4475 10.9688 27.6655 11.4742 28.5807 12.3895C29.4959 13.3072 30.0013 14.523 30.0013 15.8156H30.0036Z" fill="#65DE95"/>
<path d="M23.3302 22.2145C23.3302 22.2145 23.3302 22.2075 23.3302 22.2029C23.3279 22.1376 23.3209 22.0724 23.3139 22.0072C23.3139 21.9839 23.3116 21.9606 23.3069 21.9373C23.3 21.8628 23.2883 21.7906 23.2767 21.7184C23.2487 21.5274 23.2068 21.3411 23.1556 21.1571C23.1416 21.1082 23.1276 21.0593 23.1113 21.0104C23.102 20.9801 23.0927 20.9498 23.0834 20.9219C23.0694 20.8799 23.0554 20.838 23.0391 20.7961C22.939 20.5212 22.8132 20.2581 22.6619 20.0065C22.6153 19.925 22.5664 19.8458 22.5128 19.7689C22.4546 19.6828 22.394 19.5989 22.3312 19.5174C22.2823 19.4545 22.2333 19.394 22.1798 19.3334C22.1565 19.3031 22.1309 19.2752 22.1029 19.2472C22.047 19.1797 21.9842 19.1145 21.919 19.0493C21.7326 18.8629 21.5347 18.6952 21.3274 18.5438C21.2785 18.5112 21.2296 18.4763 21.1807 18.4437C21.0759 18.3715 20.9688 18.3063 20.8593 18.2457C20.8034 18.2154 20.7476 18.1852 20.6917 18.1572C20.6847 18.1525 20.6777 18.1479 20.6707 18.1456C20.5659 18.0943 20.4565 18.0454 20.3493 17.9988C20.2911 17.9755 20.2306 17.9522 20.1723 17.9313C20.1118 17.908 20.0536 17.887 19.993 17.8684C19.9348 17.8498 19.8742 17.8311 19.8137 17.8125C19.6926 17.9336 19.5901 18.0687 19.4946 18.2201C19.4527 18.2876 19.4155 18.3552 19.3829 18.4274C19.3642 18.4646 19.3479 18.5042 19.3316 18.5415C19.327 18.5485 19.3223 18.5578 19.3223 18.5648C19.2897 18.6417 19.2618 18.7208 19.2385 18.8024C19.2129 18.8932 19.1919 18.9864 19.1779 19.0795C19.1709 19.1191 19.1639 19.1587 19.1616 19.1983C19.1546 19.2426 19.1523 19.2868 19.15 19.3311C19.1453 19.3823 19.1453 19.4312 19.1453 19.4825C19.1639 19.4871 19.1849 19.4918 19.2035 19.4964C19.1849 19.4918 19.1663 19.4895 19.1453 19.4848C19.1453 19.571 19.15 19.6571 19.1616 19.7433C19.1826 19.9157 19.2222 20.0857 19.2804 20.2487C19.2827 20.2487 19.2874 20.2487 19.2897 20.2511C19.32 20.2604 19.3503 20.272 19.3805 20.2837C19.4318 20.3046 19.4807 20.3279 19.5296 20.3512C19.5808 20.3768 19.6297 20.4025 19.6786 20.4327C19.6903 20.4374 19.7019 20.4444 19.7136 20.4514C19.7648 20.4817 19.8137 20.5143 19.8603 20.5469C19.9092 20.5841 19.9558 20.6191 20 20.6587C20.0093 20.6657 20.0186 20.6726 20.0279 20.682C20.0745 20.7192 20.1188 20.7611 20.163 20.8054C20.198 20.8403 20.2329 20.8776 20.2655 20.9172C20.2841 20.9358 20.3027 20.9568 20.319 20.9777C20.34 21.0057 20.3633 21.0313 20.3819 21.0616C20.4075 21.0919 20.4308 21.1245 20.4495 21.1571C20.4751 21.1897 20.496 21.2223 20.517 21.2572C20.524 21.2689 20.531 21.2805 20.5356 21.2922C20.5659 21.3411 20.5915 21.39 20.6171 21.4412C20.6171 21.4412 20.6195 21.4459 20.6218 21.4506C20.6497 21.5065 20.673 21.567 20.6963 21.6252C20.7056 21.6462 20.7126 21.6672 20.7173 21.6881C20.7755 21.8535 20.8151 22.0235 20.8361 22.1959C20.8454 22.282 20.8524 22.3682 20.8524 22.4544C20.8524 22.5056 20.8524 22.5546 20.8477 22.6058C20.8477 22.6454 20.843 22.685 20.8384 22.7246C20.8314 22.8061 20.8174 22.8876 20.7988 22.9691C20.7918 23.0087 20.7825 23.0483 20.7708 23.0879C20.7545 23.1508 20.7359 23.2137 20.7126 23.2766C20.6963 23.3278 20.6754 23.3767 20.6521 23.428C20.6404 23.4559 20.6288 23.4839 20.6148 23.5118C20.5822 23.5817 20.5449 23.6516 20.503 23.7168C20.4099 23.8682 20.3051 24.0033 20.1863 24.1244C20.1793 24.1337 20.1723 24.1407 20.163 24.15L16.5184 27.795C15.5939 28.7174 14.0941 28.7174 13.1719 27.795C12.2497 26.8727 12.2497 25.3728 13.1719 24.4504L16.8188 20.8054C16.8188 20.8054 16.8328 20.7914 16.8421 20.7821C16.7909 20.5981 16.7513 20.4118 16.721 20.2208C16.7094 20.1463 16.7 20.0741 16.6931 19.9995C16.6581 20.0228 16.6232 20.0484 16.5906 20.0764C16.6232 20.0484 16.6558 20.0228 16.6907 19.9972C16.6884 19.9809 16.6884 19.9646 16.6861 19.9483C16.6814 19.8924 16.6768 19.8342 16.6744 19.7783C16.6698 19.7433 16.6674 19.7084 16.6674 19.6735C16.6628 19.6036 16.6628 19.5314 16.6628 19.4615C16.6628 19.3381 16.6674 19.2169 16.6768 19.0935C16.6814 19.0329 16.6861 18.9701 16.6954 18.9095C16.7 18.8466 16.7094 18.7861 16.7187 18.7255C16.7513 18.5042 16.8002 18.283 16.8631 18.0687C16.8817 18.0105 16.9003 17.9499 16.9213 17.8917C16.2273 18.1269 15.5892 18.5252 15.0652 19.0493L11.4183 22.6966C10.503 23.612 10 24.8278 10 26.1227C10 27.4177 10.503 28.6358 11.4183 29.5512C12.3638 30.4945 13.605 30.9673 14.844 30.9673C16.0829 30.9673 17.3265 30.4945 18.272 29.5488L21.9166 25.9038C22.4429 25.3798 22.8412 24.7416 23.0741 24.0452C23.0973 23.9869 23.116 23.9287 23.1346 23.8682C23.1998 23.6516 23.2487 23.4326 23.2813 23.2114C23.2906 23.1508 23.3 23.0902 23.3046 23.0297C23.3139 22.9691 23.3186 22.9086 23.3232 22.8457C23.3326 22.7246 23.3372 22.6011 23.3372 22.48C23.3372 22.3915 23.3349 22.303 23.3279 22.2145H23.3302ZM22.4686 23.6702C22.4755 23.6539 22.4802 23.6353 22.4849 23.6166C22.4802 23.6353 22.4755 23.6539 22.4709 23.6702H22.4686Z" fill="#54B5EC"/>
</g>
<defs>
<clipPath id="clip0_2199_78713">
<rect width="20" height="20" fill="white" transform="translate(10 10.9688)"/>
</clipPath>
</defs>
</svg>
