<svg width="40" height="41" viewBox="0 0 40 41" fill="none" xmlns="http://www.w3.org/2000/svg">
<rect y="0.5" width="40" height="40" rx="8" fill="white"/>
<rect x="10" y="24.5" width="5.33325" height="7.99994" rx="0.666659" fill="#FFD633"/>
<rect x="17.334" y="20.5" width="5.33325" height="11.9999" rx="0.666659" fill="#FFC633"/>
<rect x="24.667" y="15.168" width="5.33325" height="17.3332" rx="0.666659" fill="#FF862F"/>
<path fill-rule="evenodd" clip-rule="evenodd" d="M26.7007 8.95603C26.8172 8.60673 27.1947 8.41796 27.544 8.53439L29.544 9.20105C29.8933 9.31748 30.082 9.69503 29.9656 10.0443L29.299 12.0443C29.1825 12.3936 28.805 12.5824 28.4557 12.4659C28.1064 12.3495 27.9176 11.972 28.0341 11.6227L28.1415 11.3005L21.6692 15.076C21.4591 15.1986 21.1989 15.1969 20.9903 15.0718L17.9842 13.2681L10.986 17.0854C10.6628 17.2617 10.2578 17.1426 10.0815 16.8194C9.90522 16.4961 10.0243 16.0912 10.3476 15.9149L17.6808 11.9149C17.8883 11.8017 18.1403 11.8069 18.343 11.9285L21.3381 13.7256L27.7246 10L27.1224 9.79929C26.7731 9.68286 26.5843 9.30532 26.7007 8.95603Z" fill="#EB5147"/>
</svg>
