<svg width="56" height="56" viewBox="0 0 56 56" fill="none" xmlns="http://www.w3.org/2000/svg">
<path d="M22.8321 7.85156C22.1639 9.65227 19.2858 13.563 16.4344 14.4251M22.8321 7.85156C24.5401 7.85156 29.1661 7.85156 34.0069 7.85156M22.8321 7.85156C22.8069 10.4002 24.0639 16.5662 29.2935 20.8411M16.4344 14.4251C13.6686 15.2614 8.02777 30.9983 4.94308 39.5072C4.78639 39.9394 4.99398 40.4181 5.41628 40.5998L11.0945 43.0433C11.556 43.2419 12.0892 43.0082 12.256 42.5343L16.7646 29.7222L17.7606 33.7277M16.4344 14.4251C14.1798 19.9953 16.6554 29.5832 17.7606 33.7277M17.7606 33.7277L19.3355 38.7012M17.7606 33.7277C22.9162 30.5626 26.6775 25.6864 29.2935 20.8411M19.3355 38.7012L16.7789 47.0283C16.6077 47.5862 17.0249 48.1507 17.6085 48.1507H23.4799M19.3355 38.7012H28.2046M37.0738 38.7012L39.4168 47.0484C39.5722 47.6019 39.1562 48.1507 38.5814 48.1507H34.0069M37.0738 38.7012L39.7262 30.5092M37.0738 38.7012H28.2046M39.7262 30.5092L44.0712 42.0342C44.2394 42.4803 44.736 42.7071 45.1833 42.5422L50.5705 40.5563C50.9985 40.3986 51.2315 39.9365 51.1017 39.4992C48.681 31.3436 43.6957 16.2438 41.384 15.409M39.7262 30.5092C40.8591 25.7568 42.1134 18.0615 41.384 15.409M41.384 15.409C38.4 14.3313 35.7846 11.5278 34.0069 7.85156M34.0069 7.85156C33.4736 10.8713 31.9937 15.8397 29.2935 20.8411M28.2046 38.7012L34.0069 48.1507M28.2046 38.7012L23.4799 48.1507M34.0069 48.1507H23.4799" stroke="#3F86F1" stroke-width="2" stroke-linecap="round"/>
</svg>
