<svg width="60" height="60" viewBox="0 0 60 60" fill="none" xmlns="http://www.w3.org/2000/svg">
<rect width="60" height="60" rx="8" fill="#F8F8F8"/>
<rect x="42.334" y="18.9961" width="16.4999" height="32.9997" rx="8.24993" transform="rotate(45 42.334 18.9961)" fill="url(#paint0_linear_1066_75507)"/>
<path d="M36.5004 24.8297C39.7222 21.6079 44.9458 21.6079 48.1676 24.8297C51.3894 28.0515 51.3894 33.275 48.1676 36.4968L42.334 42.3304L30.6668 30.6633L36.5004 24.8297Z" fill="url(#paint1_linear_1066_75507)"/>
<ellipse cx="32.0624" cy="14.1914" rx="9.62492" ry="4.81246" fill="url(#paint2_linear_1066_75507)"/>
<mask id="mask0_1066_75507" style="mask-type:alpha" maskUnits="userSpaceOnUse" x="22" y="9" width="20" height="11">
<ellipse cx="32.0624" cy="14.1914" rx="9.62492" ry="4.81246" fill="#FF9522"/>
</mask>
<g mask="url(#mask0_1066_75507)">
<rect x="31.375" y="8.6875" width="1.37499" height="10.9999" fill="url(#paint3_linear_1066_75507)"/>
</g>
<circle cx="17.623" cy="27.246" r="8.24993" fill="url(#paint4_linear_1066_75507)"/>
<mask id="mask1_1066_75507" style="mask-type:alpha" maskUnits="userSpaceOnUse" x="9" y="18" width="17" height="18">
<circle cx="17.623" cy="27.246" r="8.24993" fill="#FF9522"/>
</mask>
<g mask="url(#mask1_1066_75507)">
<rect x="23.6992" y="20.5391" width="1.37499" height="18.5623" transform="rotate(45 23.6992 20.5391)" fill="url(#paint5_linear_1066_75507)"/>
</g>
<defs>
<linearGradient id="paint0_linear_1066_75507" x1="40.1751" y1="36.7112" x2="61.3219" y2="36.4681" gradientUnits="userSpaceOnUse">
<stop stop-color="#FFF7F5"/>
<stop offset="1" stop-color="#EBE1DF"/>
</linearGradient>
<linearGradient id="paint1_linear_1066_75507" x1="35.1559" y1="24.496" x2="48.5621" y2="37.9022" gradientUnits="userSpaceOnUse">
<stop stop-color="#F7655B"/>
<stop offset="1" stop-color="#E1453B"/>
</linearGradient>
<linearGradient id="paint2_linear_1066_75507" x1="28.2812" y1="8.00392" x2="36.1874" y2="19.6913" gradientUnits="userSpaceOnUse">
<stop stop-color="#FFAD55"/>
<stop offset="1" stop-color="#EF8422"/>
</linearGradient>
<linearGradient id="paint3_linear_1066_75507" x1="32.0625" y1="8.6875" x2="32.0625" y2="19.6874" gradientUnits="userSpaceOnUse">
<stop stop-color="#E88B30"/>
<stop offset="1" stop-color="#D7720F"/>
</linearGradient>
<linearGradient id="paint4_linear_1066_75507" x1="13.1543" y1="19.3398" x2="23.8104" y2="34.4647" gradientUnits="userSpaceOnUse">
<stop stop-color="#FFDA65"/>
<stop offset="1" stop-color="#FFC01D"/>
</linearGradient>
<linearGradient id="paint5_linear_1066_75507" x1="16.609" y1="28.3623" x2="31.6791" y2="28.3623" gradientUnits="userSpaceOnUse">
<stop stop-color="#FF9F37"/>
<stop offset="1" stop-color="#FC901A"/>
</linearGradient>
</defs>
</svg>
