<svg width="13" height="12" viewBox="0 0 13 12" fill="none" xmlns="http://www.w3.org/2000/svg">
<g id="ic">
<path id="Union" fill-rule="evenodd" clip-rule="evenodd" d="M7.43359 1C7.43359 0.585786 7.09781 0.25 6.68359 0.25C6.26938 0.25 5.93359 0.585786 5.93359 1V5.25H1.68359C1.26938 5.25 0.933594 5.58579 0.933594 6C0.933594 6.41421 1.26938 6.75 1.68359 6.75H5.93359V11C5.93359 11.4142 6.26938 11.75 6.68359 11.75C7.09781 11.75 7.43359 11.4142 7.43359 11V6.75H11.6836C12.0978 6.75 12.4336 6.41421 12.4336 6C12.4336 5.58579 12.0978 5.25 11.6836 5.25H7.43359V1Z" fill="#666666"/>
</g>
</svg>
