<svg width="32" height="32" viewBox="0 0 32 32" fill="none" xmlns="http://www.w3.org/2000/svg">
<circle cx="16" cy="16" r="15.5" fill="#FFC633" stroke="#FFB729"/>
<rect x="13" y="20" width="6" height="1.5" rx="0.75" fill="#26282C"/>
<circle cx="9.5" cy="13.5" r="5" fill="white"/>
<circle cx="10" cy="14.5" r="2.5" fill="#26282C"/>
<circle cx="22.5" cy="13.5" r="5" fill="white"/>
<circle cx="22" cy="14.5" r="2.5" fill="#26282C"/>
<path d="M12.1892 7.21373C11.8924 7.62227 11.5031 7.95477 11.0532 8.18403C10.6032 8.4133 10.1054 8.53281 9.60039 8.53281C9.0954 8.53281 8.59757 8.4133 8.14762 8.18403C7.69767 7.95477 7.30836 7.62227 7.01154 7.21372" stroke="#26282C" stroke-width="1.5" stroke-linecap="round"/>
<path d="M24.9881 7.71792C24.6912 7.30937 24.3019 6.97687 23.852 6.74761C23.402 6.51834 22.9042 6.39883 22.3992 6.39883C21.8942 6.39883 21.3964 6.51835 20.9464 6.74761C20.4965 6.97687 20.1072 7.30937 19.8104 7.71792" stroke="#26282C" stroke-width="1.5" stroke-linecap="round"/>
</svg>
