<svg width="60" height="60" viewBox="0 0 60 60" fill="none" xmlns="http://www.w3.org/2000/svg">
<path d="M15.6836 29.5099C15.6836 25.4384 18.1512 21.953 19.385 20.7192C26.171 19.9481 40.0206 18.5909 41.131 19.3312C42.519 20.2565 43.9071 22.1072 44.3697 23.9579C44.8324 25.8086 44.8324 27.1966 44.8324 31.8233C44.8324 36.45 46.6831 40.614 46.2205 43.39C45.7578 46.1661 43.9071 49.4048 38.8176 50.7928C33.7281 52.1808 25.3999 48.4794 21.2358 43.39C17.0716 38.3007 15.6836 34.5993 15.6836 29.5099Z" fill="url(#paint0_linear_4007_13794)"/>
<path fill-rule="evenodd" clip-rule="evenodd" d="M35.7814 21.1525C36.0524 20.8815 36.4919 20.8815 36.7629 21.1525C38.3151 22.7047 39.8428 24.8622 40.4233 28.5133L41.7445 29.394C42.0634 29.6066 42.1496 30.0375 41.9369 30.3564C41.7243 30.6754 41.2934 30.7615 40.9745 30.5489L40.621 30.3132C40.6519 30.7936 40.6681 31.2961 40.6682 31.8219C40.6682 32.2052 40.3575 32.516 39.9742 32.516C39.5909 32.516 39.2802 32.2053 39.2801 31.8221C39.2799 29.8756 39.0462 28.2927 38.6657 26.9833C38.1375 27.6995 37.4498 28.387 36.8171 29.0195L36.7629 29.0737C36.4919 29.3448 36.0524 29.3448 35.7814 29.0737C35.5104 28.8027 35.5104 28.3633 35.7814 28.0923C36.7346 27.1391 37.5635 26.2992 37.9648 25.4966C37.9914 25.4435 38.0238 25.3952 38.061 25.3523C37.4181 23.9553 36.5953 22.9479 35.7814 22.134C35.5104 21.8629 35.5104 21.4235 35.7814 21.1525Z" fill="#FFC1C7"/>
<path fill-rule="evenodd" clip-rule="evenodd" d="M23.3167 30.3977C23.2954 30.015 22.9679 29.722 22.5852 29.7433C22.2025 29.7645 21.9095 30.092 21.9308 30.4747C21.9746 31.264 22.1272 32.301 22.4304 33.4489C22.4238 33.4679 22.4181 33.4873 22.4131 33.5072C22.023 35.0675 21.9297 37.0446 21.9297 37.8395C21.9297 38.2228 22.2404 38.5335 22.6237 38.5335C23.007 38.5335 23.3177 38.2228 23.3177 37.8395C23.3177 37.4839 23.3385 36.8791 23.398 36.1919C23.4576 36.3245 23.5192 36.4572 23.583 36.5898C24.2821 38.0435 25.249 39.507 26.5586 40.7374V42.9283C26.5586 43.3115 26.8693 43.6223 27.2526 43.6223C27.6359 43.6223 27.9466 43.3115 27.9466 42.9283V41.8548C28.3559 42.1347 28.7911 42.3925 29.2536 42.6237C29.5964 42.7951 30.0133 42.6562 30.1847 42.3134C30.3561 41.9705 30.2171 41.5537 29.8743 41.3822C28.0832 40.4867 26.7382 39.1219 25.7451 37.6073H27.7084C28.0917 37.6073 28.4024 37.2965 28.4024 36.9132C28.4024 36.53 28.0917 36.2192 27.7084 36.2192H24.9474C24.9088 36.1424 24.8709 36.0653 24.8339 35.9882C23.8081 33.8553 23.3891 31.7013 23.3167 30.3977Z" fill="#FFC1C7"/>
<path fill-rule="evenodd" clip-rule="evenodd" d="M43.4207 16.6742C43.6108 18.1955 42.5317 19.5829 41.0103 19.7731C39.9305 19.9081 38.604 20.3595 37.2936 20.9561C36.7972 21.1821 36.3291 21.4169 35.9085 21.642L36.448 24.3395C36.7487 25.8429 35.7737 27.3054 34.2702 27.606C32.7668 27.9067 31.3043 26.9317 31.0036 25.4283L30.4442 22.6309C30.3574 22.6146 30.2682 22.5977 30.1766 22.5805C28.9044 22.3414 27.1859 22.0264 25.3944 21.7214C23.5976 21.4156 21.7521 21.1242 20.2179 20.9289C19.4493 20.8311 18.7854 20.7609 18.2588 20.7238C17.9959 20.7053 17.7858 20.6964 17.6257 20.6948C17.474 20.6933 17.4102 20.6991 17.4102 20.6988C17.4102 20.6988 17.4114 20.6986 17.4137 20.6984C15.8923 20.8885 14.5049 19.8094 14.3147 18.2881C14.1245 16.7668 15.2037 15.3793 16.725 15.1892C17.3224 15.1145 18.032 15.142 18.6488 15.1854C19.3198 15.2327 20.097 15.3167 20.9188 15.4213C22.5656 15.6309 24.4986 15.9371 26.3261 16.2481C28.1589 16.5601 29.9106 16.8812 31.2023 17.124C31.6018 17.1991 31.9578 17.2668 32.2593 17.3246C33.016 16.8788 33.9598 16.3735 34.993 15.9031C36.5281 15.2043 38.4404 14.4991 40.3217 14.2639C41.843 14.0738 43.2305 15.1529 43.4207 16.6742Z" fill="url(#paint1_linear_4007_13794)"/>
<path fill-rule="evenodd" clip-rule="evenodd" d="M29.1672 8.22656C30.1893 8.22656 31.0179 9.05514 31.0179 10.0772V11.9876C31.1581 12.0065 31.297 12.0287 31.4346 12.0541L32.0127 10.0307C32.2935 9.04795 33.3178 8.47888 34.3006 8.75967C35.2834 9.04047 35.8525 10.0648 35.5717 11.0476L34.8808 13.4657C36.3632 14.4436 37.4473 15.7064 38.0772 16.7296C38.7469 17.8177 38.4078 19.2426 37.3197 19.9123C36.2317 20.582 34.8067 20.2429 34.137 19.1549C33.7077 18.4575 32.8015 17.4726 31.626 16.9337C30.5645 16.447 29.2095 16.2754 27.4867 17.2031C23.772 19.2033 23.3823 22.7373 23.587 24.0679C23.7812 25.3307 22.915 26.5118 21.6522 26.7061C20.3894 26.9004 19.2082 26.0342 19.014 24.7714C18.636 22.315 19.2623 17.2511 23.9232 13.9737L22.8243 11.2265C22.4447 10.2775 22.9063 9.20045 23.8553 8.82085C24.8043 8.44125 25.8814 8.90284 26.261 9.85184L27.244 12.3094L27.3165 12.2877V10.0772C27.3165 9.05514 28.1451 8.22656 29.1672 8.22656Z" fill="url(#paint2_linear_4007_13794)"/>
<path d="M43.4192 16.6742C43.6094 18.1955 42.5303 19.5829 41.0089 19.7731C39.929 19.9081 38.6026 20.3595 37.2922 20.9561C36.7958 21.1821 36.3277 21.4169 35.907 21.642L32.2578 17.3246C33.0145 16.8788 33.9584 16.3735 34.9916 15.9031C36.5267 15.2043 38.439 14.4991 40.3202 14.2639C41.8416 14.0738 43.2291 15.1529 43.4192 16.6742Z" fill="url(#paint3_linear_4007_13794)"/>
<defs>
<linearGradient id="paint0_linear_4007_13794" x1="30.9892" y1="19.1172" x2="30.9892" y2="51.0869" gradientUnits="userSpaceOnUse">
<stop stop-color="#FD6871"/>
<stop offset="1" stop-color="#FF7989"/>
</linearGradient>
<linearGradient id="paint1_linear_4007_13794" x1="28.8677" y1="14.2422" x2="28.8677" y2="27.6605" gradientUnits="userSpaceOnUse">
<stop stop-color="#FFAFB8"/>
<stop offset="1" stop-color="#FF7E94"/>
</linearGradient>
<linearGradient id="paint2_linear_4007_13794" x1="22.6884" y1="8.68923" x2="29.1657" y2="22.5695" gradientUnits="userSpaceOnUse">
<stop stop-color="#F96D76"/>
<stop offset="1" stop-color="#E44A53"/>
</linearGradient>
<linearGradient id="paint3_linear_4007_13794" x1="37.8494" y1="14.2422" x2="37.8494" y2="21.642" gradientUnits="userSpaceOnUse">
<stop stop-color="#FFABB5"/>
<stop offset="1" stop-color="#FF96A6"/>
</linearGradient>
</defs>
</svg>
