<svg width="40" height="40" viewBox="0 0 40 40" fill="none" xmlns="http://www.w3.org/2000/svg">
<rect width="40" height="40" rx="8" fill="#F8F8F8"/>
<path d="M10 9.63217C10 8.90549 10.5891 8.31641 11.3158 8.31641H28.4207C29.1473 8.31641 29.7364 8.90549 29.7364 9.63217V30.6843C29.7364 31.411 29.1473 32.0001 28.4207 32.0001H11.3158C10.5891 32.0001 10 31.411 10 30.6843V9.63217Z" fill="#43668F"/>
<path d="M12.6309 7.65788C12.6309 7.29454 12.9254 7 13.2887 7H18.5518C18.9151 7 19.2097 7.29454 19.2097 7.65788V15.5524C19.2097 15.79 18.9198 15.906 18.756 15.7339L16.1108 12.9565C16.0071 12.8477 15.8334 12.8477 15.7297 12.9565L13.0846 15.7339C12.9207 15.906 12.6309 15.79 12.6309 15.5524V7.65788Z" fill="#FFCD4E"/>
<path d="M12.6313 26.0778C12.6313 25.7145 12.9259 25.4199 13.2892 25.4199H29.7362V30.0251H13.2892C12.9259 30.0251 12.6313 29.7305 12.6313 29.3672V26.0778Z" fill="white"/>
</svg>
