<svg width="72" height="72" viewBox="0 0 72 72" fill="none" xmlns="http://www.w3.org/2000/svg">
<path fill-rule="evenodd" clip-rule="evenodd" d="M71.8963 31.0143C71.965 30.6811 72 30.3444 72 30.0047C72 22.7145 55.8823 16.8047 36 16.8047C16.1178 16.8047 0 22.7145 0 30.0047C0 30.3444 0.0349927 30.6811 0.103729 31.0143C0.0356528 31.3665 0 31.7303 0 32.1024V36.0024C0 55.8846 16.1178 72.0024 36 72.0024C55.8823 72.0024 72 55.8846 72 36.0023V32.1023C72 31.7303 71.9644 31.3665 71.8963 31.0143Z" fill="#D0D0D0"/>
<circle cx="23.0625" cy="47.9688" r="9.5625" fill="white"/>
<circle cx="25.875" cy="46.2812" r="3.375" fill="#26282C"/>
<circle cx="48.9375" cy="47.9688" r="9.5625" fill="white"/>
<circle cx="46.125" cy="46.2812" r="3.375" fill="#26282C"/>
<circle cx="36" cy="60.75" r="4.5" fill="#8E8E8E"/>
<ellipse cx="35.9977" cy="27.6016" rx="26.4" ry="6" fill="#7E7E7E"/>
<path d="M31.1256 33.539C31.1256 32.2688 31.0068 29.5495 30.5771 28.0711L36.0007 21.2344L41.2646 28.0831C40.7477 29.6781 40.735 32.2677 40.735 33.539C40.735 33.539 37.8479 33.6068 36.0006 33.608C34.0972 33.6093 31.1256 33.539 31.1256 33.539Z" fill="white"/>
<path d="M45.9414 18.7174C43.784 21.9038 40.1354 23.998 35.9977 23.998C31.8599 23.998 28.2113 21.9038 26.054 18.7174C24.3116 20.4951 21.8834 21.598 19.1977 21.598C13.8957 21.598 9.59766 17.2999 9.59766 11.998C9.59766 6.69602 13.8957 3.65 19.1977 3.65C20.8302 3.65 22.3676 4.05752 23.7137 4.77639C25.052 5.49117 26.8501 5.33704 27.9785 4.32273C30.1038 2.41237 32.915 1.25 35.9977 1.25C39.0803 1.25 41.8915 2.41237 44.0168 4.32273C45.1452 5.33704 46.9433 5.49118 48.2817 4.77639C49.6277 4.05752 51.1651 3.65 52.7977 3.65C58.0996 3.65 62.3977 6.69602 62.3977 11.998C62.3977 17.2999 58.0996 21.598 52.7977 21.598C50.1119 21.598 47.6838 20.4951 45.9414 18.7174Z" fill="#D3D3D3"/>
<path d="M62.3977 12C62.3977 12.1766 62.1436 12.1894 62.0999 12.0183C61.0406 7.86847 57.2775 4.8 52.7977 4.8C51.1651 4.8 49.6277 5.20752 48.2817 5.92639C46.9433 6.64118 45.1452 6.48704 44.0168 5.47273C41.8915 3.56237 39.0803 2.4 35.9977 2.4C32.915 2.4 30.1038 3.56237 27.9785 5.47273C26.8501 6.48704 25.0521 6.64117 23.7137 5.92639C22.3676 5.20752 20.8302 4.8 19.1977 4.8C14.7179 4.8 10.9547 7.86847 9.89541 12.0183C9.85172 12.1894 9.59766 12.1766 9.59766 12C9.59766 6.69807 13.8957 2.4 19.1977 2.4C20.8302 2.4 22.3676 2.80752 23.7137 3.52639C25.052 4.24117 26.8501 4.08704 27.9785 3.07273C30.1038 1.16237 32.915 0 35.9977 0C39.0803 0 41.8915 1.16237 44.0168 3.07273C45.1452 4.08704 46.9433 4.24117 48.2817 3.52639C49.6277 2.80752 51.1651 2.4 52.7977 2.4C58.0996 2.4 62.3977 6.69807 62.3977 12Z" fill="#E6E6E6"/>
<path d="M38.0607 27.1662C36.8419 26.3922 35.1576 26.3922 33.9388 27.1662C32.4529 28.1097 30.6901 28.6561 28.7997 28.6561C23.4978 28.6561 19.1997 24.358 19.1997 19.0561C19.1997 13.7541 23.4978 10.7578 28.7997 10.7578C30.6901 10.7578 32.4529 11.3042 33.9388 12.2477C35.1576 13.0217 36.8419 13.0217 38.0607 12.2477C39.5465 11.3042 41.3093 10.7578 43.1997 10.7578C48.5017 10.7578 52.7997 13.7541 52.7997 19.0561C52.7997 24.358 48.5017 28.6561 43.1997 28.6561C41.3093 28.6561 39.5465 28.1097 38.0607 27.1662Z" fill="#CCCCCC"/>
<path d="M52.7997 19.0531C52.7997 19.2298 52.5457 19.2426 52.502 19.0714C51.4426 14.9216 47.6795 11.8531 43.1997 11.8531C41.3093 11.8531 39.5465 12.3995 38.0607 13.343C36.8419 14.117 35.1576 14.117 33.9388 13.343C32.4529 12.3995 30.6901 11.8531 28.7997 11.8531C24.3199 11.8531 20.5568 14.9216 19.4975 19.0714C19.4538 19.2426 19.1997 19.2298 19.1997 19.0531C19.1997 13.7512 23.4978 9.45312 28.7997 9.45312C30.6901 9.45312 32.4529 9.99953 33.9388 10.943C35.1576 11.717 36.8419 11.717 38.0607 10.943C39.5465 9.99953 41.3093 9.45312 43.1997 9.45312C48.5017 9.45312 52.7997 13.7512 52.7997 19.0531Z" fill="white"/>
<path d="M14.3988 6.0046C14.3988 7.99283 12.7871 9.60461 10.7988 9.60461C8.81061 9.60461 7.19883 7.99283 7.19883 6.0046C7.19883 4.01638 8.81061 2.4046 10.7988 2.4046C12.7871 2.4046 14.3988 4.01638 14.3988 6.0046Z" fill="#BEBEBE"/>
<path d="M55.6796 6.65578C57.5087 6.65578 58.9916 5.17294 58.9916 3.34378C58.9916 1.51461 57.5087 0.0317745 55.6796 0.0317745C53.8504 0.0317745 52.3676 1.51461 52.3676 3.34378C52.3676 5.17294 53.8504 6.65578 55.6796 6.65578Z" fill="#BEBEBE"/>
<path d="M9.59883 16.8046C9.59883 18.1301 8.52431 19.2046 7.19883 19.2046C5.87335 19.2046 4.79883 18.1301 4.79883 16.8046C4.79883 15.4791 5.87335 14.4046 7.19883 14.4046C8.52431 14.4046 9.59883 15.4791 9.59883 16.8046Z" fill="#BEBEBE"/>
<path d="M64.7989 19.2046C64.7989 20.5301 63.7243 21.6046 62.3989 21.6046C61.0734 21.6046 59.9989 20.5301 59.9989 19.2046C59.9989 17.8791 61.0734 16.8046 62.3989 16.8046C63.7243 16.8046 64.7989 17.8791 64.7989 19.2046Z" fill="#BEBEBE"/>
</svg>
