<svg width="64" height="64" viewBox="0 0 64 64" fill="none" xmlns="http://www.w3.org/2000/svg">
<path d="M10.6667 19.4814H53.3334V47.1851C53.3334 50.6625 50.5145 53.4814 47.0371 53.4814H16.963C13.4857 53.4814 10.6667 50.6625 10.6667 47.1851V19.4814Z" fill="url(#paint0_linear_2143_74654)"/>
<path d="M10.6667 19.4809C10.6667 16.0035 13.4857 13.1846 16.963 13.1846H47.0371C50.5145 13.1846 53.3334 16.0035 53.3334 19.4809V24.5179H10.6667V19.4809Z" fill="#FF7373"/>
<rect x="16.8906" y="14.4434" width="6.2963" height="6.2963" rx="3.14815" fill="white"/>
<rect x="40.8165" y="14.4434" width="6.2963" height="6.2963" rx="3.14815" fill="white"/>
<rect x="18.1459" y="10.666" width="3.77778" height="8.18519" rx="1.88889" fill="url(#paint1_linear_2143_74654)"/>
<rect x="42.0718" y="10.666" width="3.77778" height="8.18519" rx="1.88889" fill="url(#paint2_linear_2143_74654)"/>
<path d="M38.6667 40.9997C38.6667 45.5816 35.6823 47.9997 32.0004 47.9997C28.3185 47.9997 25.3334 45.5816 25.3334 40.9997C25.3334 36.4178 32.0004 29.333 32.0004 29.333C32.0004 29.333 38.6667 36.4178 38.6667 40.9997Z" fill="url(#paint3_linear_2143_74654)"/>
<defs>
<linearGradient id="paint0_linear_2143_74654" x1="32.0001" y1="19.4814" x2="32.0001" y2="53.4814" gradientUnits="userSpaceOnUse">
<stop stop-color="#FBFBFB"/>
<stop offset="1" stop-color="#EDEDED"/>
</linearGradient>
<linearGradient id="paint1_linear_2143_74654" x1="20.0348" y1="10.666" x2="20.0348" y2="18.8512" gradientUnits="userSpaceOnUse">
<stop stop-color="#7B7B7B"/>
<stop offset="1" stop-color="#505050"/>
</linearGradient>
<linearGradient id="paint2_linear_2143_74654" x1="43.9607" y1="10.666" x2="43.9607" y2="18.8512" gradientUnits="userSpaceOnUse">
<stop stop-color="#7B7B7B"/>
<stop offset="1" stop-color="#505050"/>
</linearGradient>
<linearGradient id="paint3_linear_2143_74654" x1="32" y1="29.333" x2="32" y2="47.9997" gradientUnits="userSpaceOnUse">
<stop stop-color="#FF8787"/>
<stop offset="1" stop-color="#F35050"/>
</linearGradient>
</defs>
</svg>
