<svg width="40" height="40" viewBox="0 0 40 40" fill="none" xmlns="http://www.w3.org/2000/svg">
<path d="M12.5001 15V8.75C12.5001 8.125 13.1947 7.5 13.8197 7.5C14.4447 7.5 26.4649 7.5 26.4649 7.5C26.8264 7.5 27.1523 7.64884 27.3696 7.88138L32.5314 12.6821C32.711 12.8534 32.8196 13.0839 32.8196 13.3368V28.125C32.8196 28.75 32.5697 29.4841 31.3197 29.4841H30.104" fill="url(#paint0_linear_1_36643)"/>
<path d="M27.3022 7.88086L32.464 12.6821L32.4302 12.6534C32.2462 12.4882 31.9978 12.3923 31.7229 12.3923H28.2215C27.8764 12.3923 27.5965 12.1125 27.5965 11.7673V8.60301C27.5965 8.3358 27.4945 8.0931 27.3238 7.90141L27.3022 7.88086Z" fill="#91B8D9"/>
<path fill-rule="evenodd" clip-rule="evenodd" d="M12.5 12.5H8.75V14.375V17.5V30.625C8.75 32.0057 9.86929 33.125 11.25 33.125H27.5C28.8807 33.125 30 32.0057 30 30.625V16.875C30 15.4943 28.8807 14.375 27.5 14.375H12.5V12.5Z" fill="url(#paint1_linear_1_36643)"/>
<path d="M12.5 14.375H10.4777C9.57057 14.375 8.77923 13.717 8.75084 12.8628C8.72135 11.9778 9.47332 11.25 10.4059 11.25H12.5V14.375Z" fill="#BA9024"/>
<path opacity="0.01" fill-rule="evenodd" clip-rule="evenodd" d="M26.6993 17.6406V30.3236H12.8906V17.6406H26.6993Z" fill="white"/>
<path fill-rule="evenodd" clip-rule="evenodd" d="M20 23.7441C18.6193 23.7441 17.5 22.6249 17.5 21.2441C17.5 19.8634 18.6193 18.7441 20 18.7441C21.3807 18.7441 22.5 19.8634 22.5 21.2441C22.5 22.6249 21.3807 23.7441 20 23.7441Z" fill="white"/>
<path d="M15 29.6816C15 29.8566 15.121 29.9941 15.275 29.9941H24.725C24.879 29.9941 25 29.8566 25 29.6816C25 27.0941 22.7558 24.9941 20 24.9941C17.2442 24.9941 15 27.0941 15 29.6816Z" fill="white"/>
<defs>
<linearGradient id="paint0_linear_1_36643" x1="22.6599" y1="7.5" x2="22.6599" y2="29.4841" gradientUnits="userSpaceOnUse">
<stop stop-color="#DEF0FF"/>
<stop offset="1" stop-color="#BFDDF9"/>
</linearGradient>
<linearGradient id="paint1_linear_1_36643" x1="11.875" y1="12.5" x2="25.625" y2="33.75" gradientUnits="userSpaceOnUse">
<stop stop-color="#FFDF37"/>
<stop offset="1" stop-color="#FFB11B"/>
</linearGradient>
</defs>
</svg>
