<svg width="40" height="41" viewBox="0 0 40 41" fill="none" xmlns="http://www.w3.org/2000/svg">
<rect y="0.710938" width="40" height="40" rx="8" fill="#F8F8F8"/>
<path fill-rule="evenodd" clip-rule="evenodd" d="M27.2272 20.5853C29.9523 20.019 32 17.6041 32 14.7109C32 11.3972 29.3137 8.71094 26 8.71094C22.6863 8.71094 20 11.3972 20 14.7109C20 17.6015 22.0441 20.0147 24.7656 20.5838V23.7109H23.5356C22.8558 23.7109 22.3047 24.262 22.3047 24.9419C22.3047 25.6217 22.8558 26.1728 23.5356 26.1728H24.7656V27.6383C24.7656 28.318 25.3167 28.869 25.9964 28.869C26.6761 28.869 27.2272 28.318 27.2272 27.6383V26.1728H28.4584C29.1382 26.1728 29.6893 25.6217 29.6893 24.9419C29.6893 24.262 29.1382 23.7109 28.4584 23.7109H27.2272V20.5853ZM26 17.7109C24.3431 17.7109 23 16.3678 23 14.7109C23 13.0541 24.3431 11.7109 26 11.7109C27.6569 11.7109 29 13.0541 29 14.7109C29 16.3678 27.6569 17.7109 26 17.7109Z" fill="url(#paint0_linear_2199_78608)"/>
<path fill-rule="evenodd" clip-rule="evenodd" d="M13.1161 12.0771C13.6043 11.5889 14.3957 11.5889 14.8839 12.0771L17.8839 15.0771C18.372 15.5652 18.372 16.3567 17.8839 16.8448C17.3957 17.333 16.6043 17.333 16.1161 16.8448L15.2272 15.9559V19.8365C17.9523 20.4029 20 22.8178 20 25.7109C20 29.0246 17.3137 31.7109 14 31.7109C10.6863 31.7109 8 29.0246 8 25.7109C8 22.8203 10.0441 20.4072 12.7656 19.838V15.9631L11.8839 16.8448C11.3957 17.333 10.6043 17.333 10.1161 16.8448C9.62796 16.3567 9.62796 15.5652 10.1161 15.0771L13.1161 12.0771ZM14 28.7109C12.3431 28.7109 11 27.3678 11 25.7109C11 24.0541 12.3431 22.7109 14 22.7109C15.6569 22.7109 17 24.0541 17 25.7109C17 27.3678 15.6569 28.7109 14 28.7109Z" fill="url(#paint1_linear_2199_78608)"/>
<defs>
<linearGradient id="paint0_linear_2199_78608" x1="26" y1="8.71094" x2="26" y2="20.7109" gradientUnits="userSpaceOnUse">
<stop stop-color="#FF9EA7"/>
<stop offset="1" stop-color="#F96A76"/>
</linearGradient>
<linearGradient id="paint1_linear_2199_78608" x1="14" y1="19.7109" x2="14" y2="31.7109" gradientUnits="userSpaceOnUse">
<stop stop-color="#76ABFC"/>
<stop offset="1" stop-color="#438BF8"/>
</linearGradient>
</defs>
</svg>
