<svg width="49" height="48" viewBox="0 0 49 48" fill="none" xmlns="http://www.w3.org/2000/svg">
<path d="M23.1059 39.0727C18.4837 37.4609 8.11328 30.6793 8.11328 19.184C8.11328 14.1054 12.0837 10 17.0022 10C19.9059 10 22.4836 11.4293 24.1133 13.6797C25.7133 11.4597 28.3207 10 31.2244 10C36.1429 10 40.1133 14.1054 40.1133 19.184C40.1133 30.6793 29.7429 37.4609 25.0911 39.0727C24.5577 39.2552 23.6392 39.2552 23.1059 39.0727Z" fill="url(#paint0_linear_2290_92024)"/>
<path d="M14.332 24.0019H18.6486L20.4914 21.3242L23.8713 27.5722L26.7331 24.0019H33.8876" stroke="url(#paint1_linear_2290_92024)" stroke-width="1.83333" stroke-linecap="round" stroke-linejoin="round"/>
<defs>
<linearGradient id="paint0_linear_2290_92024" x1="24.1133" y1="10" x2="24.1133" y2="39.2096" gradientUnits="userSpaceOnUse">
<stop stop-color="#F64B55"/>
<stop offset="1" stop-color="#FF7C84"/>
</linearGradient>
<linearGradient id="paint1_linear_2290_92024" x1="24.1098" y1="21.3242" x2="24.1098" y2="27.5722" gradientUnits="userSpaceOnUse">
<stop stop-color="white"/>
<stop offset="1" stop-color="white" stop-opacity="0.9"/>
</linearGradient>
</defs>
</svg>
