<svg width="24" height="24" viewBox="0 0 24 24" fill="none" xmlns="http://www.w3.org/2000/svg">
<rect x="3.99805" y="3.5" width="16" height="17.0001" rx="2.83333" fill="url(#paint0_linear_2838_127583)"/>
<path d="M5.62305 9.71523C5.62305 7.45626 7.4543 5.625 9.71327 5.625H14.2829C16.5418 5.625 18.3731 7.45626 18.3731 9.71523V9.95491C18.3731 11.0844 17.4575 12 16.328 12H7.66816C6.53868 12 5.62305 11.0844 5.62305 9.95491V9.71523Z" fill="white"/>
<path fill-rule="evenodd" clip-rule="evenodd" d="M11.9976 7.69141C11.7368 7.69141 11.5254 7.47998 11.5254 7.21918L11.5254 6.21571L12.4698 6.21571L12.4698 7.21918C12.4698 7.47998 12.2584 7.69141 11.9976 7.69141Z" fill="#276487"/>
<path fill-rule="evenodd" clip-rule="evenodd" d="M14.949 8.15799C14.7231 8.02759 14.6457 7.73878 14.7762 7.51292L15.5435 6.1838L16.3614 6.65603L15.5941 7.98514C15.4637 8.211 15.1749 8.28839 14.949 8.15799Z" fill="#276487"/>
<path fill-rule="evenodd" clip-rule="evenodd" d="M9.04568 8.15842C8.81982 8.28882 8.53101 8.21143 8.40061 7.98557L7.63324 6.65646L8.45116 6.18424L9.21852 7.51335C9.34892 7.73921 9.27154 8.02802 9.04568 8.15842Z" fill="#276487"/>
<path d="M11.9981 9.02344L10.9355 11.1484H13.0606L11.9981 9.02344Z" fill="#276487"/>
<path d="M6.13433 9.71523C6.13433 7.73863 7.73667 6.13628 9.71327 6.13628H14.2829C16.2595 6.13628 17.8618 7.73863 17.8618 9.71523V9.95491C17.8618 10.802 17.1751 11.4887 16.328 11.4887H7.66816C6.82105 11.4887 6.13433 10.802 6.13433 9.95491V9.71523Z" stroke="#51B4EC" stroke-width="1.02256"/>
<defs>
<linearGradient id="paint0_linear_2838_127583" x1="11.998" y1="3.5" x2="11.998" y2="20.5001" gradientUnits="userSpaceOnUse">
<stop stop-color="#C8EBFF"/>
<stop offset="1" stop-color="#A7DFFF"/>
</linearGradient>
</defs>
</svg>
