<svg width="48" height="48" viewBox="0 0 48 48" fill="none" xmlns="http://www.w3.org/2000/svg">
<rect x="7.99219" y="7" width="32" height="34.0001" rx="5.66667" fill="url(#paint0_linear_2290_92071)"/>
<path d="M11.2422 19.4305C11.2422 14.9125 14.9047 11.25 19.4226 11.25H28.5618C33.0798 11.25 36.7423 14.9125 36.7423 19.4305V19.9098C36.7423 22.1688 34.911 24 32.6521 24H15.3324C13.0734 24 11.2422 22.1688 11.2422 19.9098V19.4305Z" fill="white"/>
<path fill-rule="evenodd" clip-rule="evenodd" d="M23.9913 15.3828C23.4697 15.3828 23.0469 14.96 23.0469 14.4384L23.0469 12.4314L24.9358 12.4314L24.9358 14.4384C24.9358 14.96 24.5129 15.3828 23.9913 15.3828Z" fill="#276487"/>
<path fill-rule="evenodd" clip-rule="evenodd" d="M29.8941 16.3199C29.4424 16.0591 29.2876 15.4815 29.5484 15.0297L31.0831 12.3715L32.719 13.316L31.1842 15.9742C30.9234 16.4259 30.3458 16.5807 29.8941 16.3199Z" fill="#276487"/>
<path fill-rule="evenodd" clip-rule="evenodd" d="M18.0874 16.3168C17.6357 16.5776 17.0581 16.4229 16.7973 15.9711L15.2626 13.3129L16.8984 12.3685L18.4331 15.0267C18.6939 15.4784 18.5392 16.056 18.0874 16.3168Z" fill="#276487"/>
<path d="M23.9922 18.0508L21.8672 22.3008H26.1172L23.9922 18.0508Z" fill="#276487"/>
<path d="M12.2647 19.4305C12.2647 15.4773 15.4694 12.2726 19.4226 12.2726H28.5618C32.515 12.2726 35.7197 15.4773 35.7197 19.4305V19.9098C35.7197 21.604 34.3463 22.9775 32.6521 22.9775H15.3324C13.6382 22.9775 12.2647 21.604 12.2647 19.9098V19.4305Z" stroke="#51B4EC" stroke-width="2.04511"/>
<defs>
<linearGradient id="paint0_linear_2290_92071" x1="23.9922" y1="7" x2="23.9922" y2="41.0001" gradientUnits="userSpaceOnUse">
<stop stop-color="#C8EBFF"/>
<stop offset="1" stop-color="#A7DFFF"/>
</linearGradient>
</defs>
</svg>
