<svg width="61" height="60" viewBox="0 0 61 60" fill="none" xmlns="http://www.w3.org/2000/svg">
<path fill-rule="evenodd" clip-rule="evenodd" d="M30.1839 28.5716C34.1603 28.5716 37.3839 25.3097 37.3839 21.2858C37.3839 17.262 34.1603 14 30.1839 14C26.2074 14 22.9839 17.262 22.9839 21.2858C22.9839 25.3097 26.2074 28.5716 30.1839 28.5716ZM30.1836 30C23.5562 30 18.1836 35.3726 18.1836 42V44.3336C18.1836 45.8063 19.3775 47.0002 20.8503 47.0002H39.5169C40.9897 47.0002 42.1836 45.8063 42.1836 44.3336V42C42.1836 35.3726 36.811 30 30.1836 30Z" fill="url(#paint0_linear_1758_129164)"/>
<rect x="35.1836" y="37" width="16" height="16" rx="8" fill="#DFE8F6"/>
<path fill-rule="evenodd" clip-rule="evenodd" d="M44.097 48.0154C44.097 48.5203 43.6876 48.9297 43.1827 48.9297C42.6778 48.9297 42.2684 48.5203 42.2684 48.0154L42.2684 44.1401L41.2288 45.1798C40.8717 45.5368 40.2928 45.5368 39.9358 45.1798C39.5787 44.8227 39.5787 44.2438 39.9358 43.8868L42.5361 41.2864C42.7076 41.1149 42.9401 41.0186 43.1826 41.0186C43.4251 41.0186 43.6577 41.1149 43.8291 41.2864L46.4295 43.8868C46.7865 44.2438 46.7865 44.8227 46.4295 45.1798C46.0724 45.5368 45.4935 45.5368 45.1365 45.1798L44.097 44.1403L44.097 48.0154Z" fill="#3B4A65"/>
<rect x="35.6836" y="37.5" width="15" height="15" rx="7.5" fill="white" stroke="#3B4A65"/>
<path d="M43.3206 41.7969L43.3203 48.2969" stroke="#3B4A65" stroke-width="1.5" stroke-linecap="round"/>
<path d="M46.5703 45.0536L43.3357 41.7656L40.0703 45.0533" stroke="#3B4A65" stroke-width="1.5" stroke-linecap="round" stroke-linejoin="round"/>
<defs>
<linearGradient id="paint0_linear_1758_129164" x1="21.5" y1="13" x2="38.5" y2="49" gradientUnits="userSpaceOnUse">
<stop stop-color="#FF9EA4"/>
<stop offset="1" stop-color="#FF4B56"/>
</linearGradient>
</defs>
</svg>
