<svg width="16" height="16" viewBox="0 0 16 16" fill="none" xmlns="http://www.w3.org/2000/svg">
<circle cx="8" cy="8" r="8" fill="url(#paint0_linear_1014_7546)"/>
<path d="M8.57031 9.05915L9.18806 9.87277C9.399 9.65179 9.56138 9.37221 9.67522 9.03404C9.78906 8.69587 9.84598 8.3058 9.84598 7.86384C9.84598 7.32143 9.7606 6.85938 9.58984 6.47768C9.42243 6.09263 9.18638 5.80134 8.8817 5.60379C8.57701 5.4029 8.22545 5.30246 7.82701 5.30246C7.42857 5.30246 7.07701 5.4029 6.77232 5.60379C6.46763 5.80134 6.22991 6.09263 6.05915 6.47768C5.89174 6.85938 5.80804 7.32143 5.80804 7.86384C5.80804 8.40625 5.89174 8.86998 6.05915 9.25502C6.22991 9.63672 6.46763 9.92801 6.77232 10.1289C7.07701 10.3265 7.42857 10.4252 7.82701 10.4252C8.01116 10.4252 8.19196 10.4018 8.36942 10.3549L7.375 9.05915H8.57031ZM11.1618 7.86384C11.1618 8.51004 11.058 9.08594 10.8504 9.59152C10.6462 10.0938 10.3566 10.5089 9.98158 10.8371L10.9911 12.1328H9.7154L9.1077 11.3644C8.71596 11.5218 8.28906 11.6004 7.82701 11.6004C7.1875 11.6004 6.61496 11.4515 6.10937 11.1535C5.60714 10.8521 5.21205 10.4202 4.92411 9.8577C4.63616 9.29185 4.49219 8.62723 4.49219 7.86384C4.49219 7.0971 4.63616 6.43248 4.92411 5.86998C5.21205 5.30748 5.60714 4.87723 6.10937 4.57924C6.61496 4.2779 7.1875 4.12723 7.82701 4.12723C8.46652 4.12723 9.03739 4.2779 9.53962 4.57924C10.0452 4.87723 10.442 5.30748 10.7299 5.86998C11.0179 6.43248 11.1618 7.0971 11.1618 7.86384Z" fill="white"/>
<defs>
<linearGradient id="paint0_linear_1014_7546" x1="3.11111" y1="0.777778" x2="13.7778" y2="14.4444" gradientUnits="userSpaceOnUse">
<stop stop-color="#91ADF4"/>
<stop offset="0.747259" stop-color="#617DDE"/>
<stop offset="1" stop-color="#6B86E7"/>
</linearGradient>
</defs>
</svg>
