<svg width="16" height="16" viewBox="0 0 16 16" fill="none" xmlns="http://www.w3.org/2000/svg">
<g clip-path="url(#clip0_1_61215)">
<path d="M6.06681 2.59984C3.93348 2.59984 2.33348 3.88873 1.80014 4.53317C1.3557 4.95539 0.453476 6.25317 0.400143 8.06651C0.333476 10.3332 2.66681 11.0665 3.26681 11.2665C3.86681 11.4665 9.06681 11.6665 11.5335 11.3332C14.0001 10.9998 15.6001 9.99984 15.6001 9.33317C15.6001 8.66651 14.6668 8.46651 13.8668 7.99984C13.0668 7.53317 12.641 5.70711 11.4001 4.66651C9.68865 3.23116 8.73348 2.59984 6.06681 2.59984Z" fill="url(#paint0_linear_1_61215)"/>
<path d="M13.5333 4.71171L11.7333 6.04504L12.3333 6.91161C12.8888 6.51161 14.0266 5.69828 14.1333 5.64495C14.2666 5.57828 14.2666 5.57828 14.4666 5.57828C14.6666 5.57828 15.1999 5.91166 15.4666 5.71161C15.7333 5.51157 15.7333 5.11161 15.5333 4.77828C15.3733 4.51161 15.0222 4.44501 14.8666 4.44504C14.8666 4.26726 14.8399 3.87171 14.7333 3.71171C14.5999 3.51171 14.1999 3.24504 13.7999 3.51171C13.3999 3.77837 13.6666 4.31171 13.6666 4.44504C13.6666 4.55171 13.5777 4.66726 13.5333 4.71171Z" fill="url(#paint1_linear_1_61215)"/>
<path d="M6.79995 6.79996C5.94662 7.54663 6.13329 9.19996 6.33329 9.9333C7.13326 11.6 8.79998 11.5333 9.53332 11.4666C10.2667 11.3999 11.1333 10.7999 12.0666 8.66661C13 6.53328 13.2056 6.79434 13.4 6.59997C13.6666 6.3333 13.4667 5.93337 13.1333 5.46667C12.7449 4.92287 12.4444 5.02218 12.3333 5.06663C12.1111 5.2444 11.4933 5.50663 10.2667 5.66663C8.73332 5.86663 7.86662 5.86663 6.79995 6.79996Z" fill="url(#paint2_linear_1_61215)"/>
<g filter="url(#filter0_f_1_61215)">
<ellipse cx="4.20691" cy="4.98339" rx="0.638535" ry="1.65743" transform="rotate(63.313 4.20691 4.98339)" fill="#FFA06B"/>
</g>
<g filter="url(#filter1_f_1_61215)">
<ellipse cx="8.21382" cy="7.502" rx="0.495825" ry="0.947572" transform="rotate(63.313 8.21382 7.502)" fill="#FFDBB9"/>
</g>
<g opacity="0.5">
<ellipse cx="2.59991" cy="5.21844" rx="0.160396" ry="0.160396" fill="#B96121"/>
<ellipse cx="7.091" cy="7.785" rx="0.160396" ry="0.160396" fill="#CA6215"/>
<ellipse cx="6.7702" cy="3.72201" rx="0.160396" ry="0.160396" fill="#B96121"/>
<ellipse cx="5.27307" cy="3.82931" rx="0.160396" ry="0.160396" fill="#B96121"/>
<ellipse cx="2.92071" cy="6.39587" rx="0.160396" ry="0.160396" fill="#B96121"/>
<ellipse cx="7.41186" cy="8.9595" rx="0.160396" ry="0.160396" fill="#CA6215"/>
<ellipse cx="4.20367" cy="5.64619" rx="0.160396" ry="0.160396" fill="#B96121"/>
<ellipse cx="8.69476" cy="8.21275" rx="0.160396" ry="0.160396" fill="#CA6215"/>
<ellipse cx="3.77624" cy="4.25708" rx="0.160396" ry="0.160396" fill="#B96121"/>
<ellipse cx="8.26696" cy="6.82217" rx="0.160396" ry="0.160396" fill="#CA6215"/>
<ellipse cx="1.53051" cy="6.82217" rx="0.160396" ry="0.160396" fill="#B96121"/>
</g>
<rect y="11.2668" width="16" height="0.933333" rx="0.466667" fill="url(#paint3_linear_1_61215)"/>
<path d="M1.33325 12.2002H14.6666C14.272 12.9389 13.5026 13.4002 12.6651 13.4002H3.33476C2.49727 13.4002 1.72786 12.9389 1.33325 12.2002Z" fill="#CECCCB"/>
</g>
<defs>
<filter id="filter0_f_1_61215" x="-21.3018" y="-19.9545" width="51.0173" height="49.8758" filterUnits="userSpaceOnUse" color-interpolation-filters="sRGB">
<feFlood flood-opacity="0" result="BackgroundImageFix"/>
<feBlend mode="normal" in="SourceGraphic" in2="BackgroundImageFix" result="shape"/>
<feGaussianBlur stdDeviation="12" result="effect1_foregroundBlur_1_61215"/>
</filter>
<filter id="filter1_f_1_61215" x="-16.6618" y="-17.1123" width="49.7513" height="49.2286" filterUnits="userSpaceOnUse" color-interpolation-filters="sRGB">
<feFlood flood-opacity="0" result="BackgroundImageFix"/>
<feBlend mode="normal" in="SourceGraphic" in2="BackgroundImageFix" result="shape"/>
<feGaussianBlur stdDeviation="12" result="effect1_foregroundBlur_1_61215"/>
</filter>
<linearGradient id="paint0_linear_1_61215" x1="7.99944" y1="2.59984" x2="7.99944" y2="11.5115" gradientUnits="userSpaceOnUse">
<stop stop-color="#E68138"/>
<stop offset="1" stop-color="#C45D12"/>
</linearGradient>
<linearGradient id="paint1_linear_1_61215" x1="13.7046" y1="3.39951" x2="13.7046" y2="6.91161" gradientUnits="userSpaceOnUse">
<stop stop-color="#F8F0EA"/>
<stop offset="1" stop-color="#DFD3CA"/>
</linearGradient>
<linearGradient id="paint2_linear_1_61215" x1="9.84393" y1="5.02969" x2="9.84393" y2="11.4928" gradientUnits="userSpaceOnUse">
<stop stop-color="#F5893B"/>
<stop offset="1" stop-color="#D66E24"/>
</linearGradient>
<linearGradient id="paint3_linear_1_61215" x1="8" y1="11.2668" x2="8" y2="12.2001" gradientUnits="userSpaceOnUse">
<stop stop-color="#EAE9E9"/>
<stop offset="1" stop-color="#D7D5D5"/>
</linearGradient>
<clipPath id="clip0_1_61215">
<rect width="16" height="16" fill="white"/>
</clipPath>
</defs>
</svg>
