<svg width="52" height="52" viewBox="0 0 52 52" fill="none" xmlns="http://www.w3.org/2000/svg">
<circle cx="25.9333" cy="25.9333" r="19.9333" fill="#FFE3E8"/>
<path d="M35.4847 18.385C35.3437 17.9282 34.9064 17.5999 34.2858 17.5L32.9318 17.2716C32.8753 17.2574 32.7484 17.1717 32.7202 17.1146L31.9726 15.6015C31.4084 14.4453 30.1249 14.4453 29.5607 15.6015L28.8131 17.1146C28.7849 17.1717 28.658 17.2574 28.6016 17.2716L27.2475 17.5C26.6269 17.5999 26.2037 17.9282 26.0486 18.385C25.9075 18.8418 26.0768 19.3699 26.5141 19.8124L27.5578 20.883C27.6001 20.9258 27.6565 21.0971 27.6424 21.1542L27.3462 22.4674C27.1206 23.4381 27.4873 23.8806 27.7271 24.0661C27.9669 24.2374 28.4887 24.4658 29.3491 23.952L30.6186 23.1954C30.675 23.1526 30.8583 23.1526 30.9148 23.1954L32.1842 23.952C32.5791 24.1946 32.9036 24.266 33.1574 24.266C33.4536 24.266 33.6652 24.1518 33.7922 24.0661C34.0319 23.8948 34.3987 23.4523 34.173 22.4674L33.8768 21.1542C33.8627 21.0829 33.905 20.9258 33.9614 20.883L35.0193 19.8124C35.4565 19.3699 35.6258 18.8418 35.4847 18.385Z" fill="#FFB13C"/>
<path d="M38.9743 29.7256C38.8973 29.4765 38.6588 29.2974 38.3203 29.2429L37.5817 29.1183C37.551 29.1105 37.4817 29.0638 37.4663 29.0327L37.0586 28.2074C36.7508 27.5767 36.0507 27.5767 35.743 28.2074L35.3352 29.0327C35.3198 29.0638 35.2506 29.1105 35.2198 29.1183L34.4812 29.2429C34.1427 29.2974 33.9119 29.4765 33.8273 29.7256C33.7504 29.9748 33.8427 30.2629 34.0812 30.5042L34.6505 31.0882C34.6736 31.1115 34.7044 31.205 34.6967 31.2361L34.5351 31.9524C34.412 32.4818 34.612 32.7232 34.7428 32.8244C34.8736 32.9179 35.1583 33.0424 35.6276 32.7621L36.32 32.3495C36.3508 32.3261 36.4508 32.3261 36.4816 32.3495L37.174 32.7621C37.3894 32.8945 37.5664 32.9334 37.7048 32.9334C37.8664 32.9334 37.9818 32.8711 38.051 32.8244C38.1818 32.731 38.3819 32.4896 38.2588 31.9524L38.0972 31.2361C38.0895 31.1972 38.1126 31.1115 38.1434 31.0882L38.7204 30.5042C38.9589 30.2629 39.0512 29.9748 38.9743 29.7256Z" fill="#FFB13C"/>
<g filter="url(#filter0_d_8955_22707)">
<path d="M17.8286 24.3373C17.219 28.087 14.0461 30.2911 12.827 30.5073C12.827 31.3408 12.307 34.6669 12.952 34.8276C16.5525 35.7244 20.8764 30.4509 21.486 27.3246C22.0955 24.1984 18.831 18.1708 17.8286 24.3373Z" fill="white"/>
<path d="M11.6472 29.8031C11.5954 29.2183 12.0562 28.7148 12.6433 28.7148L26.9709 28.7148C28.2548 28.7148 29.2062 29.9074 28.9209 31.1593L26.6976 40.9148C26.4902 41.8248 25.681 42.4704 24.7476 42.4704H13.6852C13.1671 42.4704 12.7348 42.0748 12.6891 41.5587L11.6472 29.8031Z" fill="white"/>
<path d="M6.16286 29.8031C6.11103 29.2183 6.57182 28.7148 7.15895 28.7148H9.41808C9.93615 28.7148 10.3684 29.1105 10.4142 29.6266L11.456 41.3821C11.5079 41.967 11.0471 42.4704 10.46 42.4704H8.20083C7.68276 42.4704 7.25047 42.0748 7.20473 41.5587L6.16286 29.8031Z" fill="#F7A2A2"/>
</g>
<defs>
<filter id="filter0_d_8955_22707" x="3.16016" y="18.668" width="30.8125" height="28.8008" filterUnits="userSpaceOnUse" color-interpolation-filters="sRGB">
<feFlood flood-opacity="0" result="BackgroundImageFix"/>
<feColorMatrix in="SourceAlpha" type="matrix" values="0 0 0 0 0 0 0 0 0 0 0 0 0 0 0 0 0 0 127 0" result="hardAlpha"/>
<feOffset dx="1" dy="1"/>
<feGaussianBlur stdDeviation="2"/>
<feComposite in2="hardAlpha" operator="out"/>
<feColorMatrix type="matrix" values="0 0 0 0 0.45 0 0 0 0 0.189375 0 0 0 0 0.189375 0 0 0 0.1 0"/>
<feBlend mode="normal" in2="BackgroundImageFix" result="effect1_dropShadow_8955_22707"/>
<feBlend mode="normal" in="SourceGraphic" in2="effect1_dropShadow_8955_22707" result="shape"/>
</filter>
</defs>
</svg>
