<svg width="80" height="80" viewBox="0 0 80 80" fill="none" xmlns="http://www.w3.org/2000/svg">
<rect x="57.9414" y="24" width="24" height="48" rx="12" transform="rotate(45 57.9414 24)" fill="url(#paint0_linear_1066_77950)"/>
<path d="M49.4561 32.4853C54.1424 27.799 61.7404 27.799 66.4267 32.4853C71.113 37.1716 71.113 44.7696 66.4267 49.4558L57.9414 57.9411L40.9708 40.9706L49.4561 32.4853Z" fill="url(#paint1_linear_1066_77950)"/>
<ellipse cx="43" cy="17" rx="14" ry="7" fill="url(#paint2_linear_1066_77950)"/>
<mask id="mask0_1066_77950" style="mask-type:alpha" maskUnits="userSpaceOnUse" x="29" y="10" width="28" height="14">
<ellipse cx="43" cy="17" rx="14" ry="7" fill="#FF9522"/>
</mask>
<g mask="url(#mask0_1066_77950)">
<rect x="42" y="9" width="2" height="16" fill="url(#paint3_linear_1066_77950)"/>
</g>
<circle cx="22" cy="36" r="12" fill="url(#paint4_linear_1066_77950)"/>
<mask id="mask1_1066_77950" style="mask-type:alpha" maskUnits="userSpaceOnUse" x="10" y="24" width="24" height="24">
<circle cx="22" cy="36" r="12" fill="#FF9522"/>
</mask>
<g mask="url(#mask1_1066_77950)">
<rect x="30.8398" y="26.2461" width="2" height="27" transform="rotate(45 30.8398 26.2461)" fill="url(#paint5_linear_1066_77950)"/>
</g>
<defs>
<linearGradient id="paint0_linear_1066_77950" x1="54.8012" y1="49.7676" x2="85.5603" y2="49.4141" gradientUnits="userSpaceOnUse">
<stop stop-color="#FFF7F5"/>
<stop offset="1" stop-color="#EBE1DF"/>
</linearGradient>
<linearGradient id="paint1_linear_1066_77950" x1="47.5005" y1="32" x2="67.0005" y2="51.5" gradientUnits="userSpaceOnUse">
<stop stop-color="#F7655B"/>
<stop offset="1" stop-color="#E1453B"/>
</linearGradient>
<linearGradient id="paint2_linear_1066_77950" x1="37.5" y1="8" x2="49" y2="25" gradientUnits="userSpaceOnUse">
<stop stop-color="#FFAD55"/>
<stop offset="1" stop-color="#EF8422"/>
</linearGradient>
<linearGradient id="paint3_linear_1066_77950" x1="43" y1="9" x2="43" y2="25" gradientUnits="userSpaceOnUse">
<stop stop-color="#E88B30"/>
<stop offset="1" stop-color="#D7720F"/>
</linearGradient>
<linearGradient id="paint4_linear_1066_77950" x1="15.5" y1="24.5" x2="31" y2="46.5" gradientUnits="userSpaceOnUse">
<stop stop-color="#FFDA65"/>
<stop offset="1" stop-color="#FFC01D"/>
</linearGradient>
<linearGradient id="paint5_linear_1066_77950" x1="20.5267" y1="37.6254" x2="42.447" y2="37.6254" gradientUnits="userSpaceOnUse">
<stop stop-color="#FF9F37"/>
<stop offset="1" stop-color="#FC901A"/>
</linearGradient>
</defs>
</svg>
