<svg width="64" height="65" viewBox="0 0 64 65" fill="none" xmlns="http://www.w3.org/2000/svg">
<g id="icon/64/&#234;&#179;&#160;&#235;&#159;&#137;&#236;&#163;&#188; /on">
<g id="Group 1261167586">
<path id="Vector 1501" d="M22 24.1615V27.8281H41V24.1615C41 23.3541 40.5145 22.6258 39.7692 22.3153L36.8462 21.0974C35.7282 20.6315 35 19.5392 35 18.3281V9.82812H28V18.3295C28 19.5406 27.2718 20.6315 26.1538 21.0974L23.2308 22.3153C22.4855 22.6258 22 23.3541 22 24.1615Z" fill="url(#paint0_linear_1482_68770)"/>
<path id="Rectangle 34624710" d="M28 5.82813C28 5.27584 28.4477 4.82812 29 4.82812H34C34.5523 4.82812 35 5.27584 35 5.82812V10.8281H28V5.82813Z" fill="url(#paint1_linear_1482_68770)"/>
<g id="Mask group">
<mask id="mask0_1482_68770" style="mask-type:alpha" maskUnits="userSpaceOnUse" x="22" y="27" width="19" height="34">
<path id="Rectangle 34624715" d="M22 27.8281H41L40.0588 58.8887C40.026 59.9692 39.1407 60.8281 38.0597 60.8281H24.9403C23.8593 60.8281 22.974 59.9692 22.9412 58.8887L22 27.8281Z" fill="url(#paint2_linear_1482_68770)"/>
</mask>
<g mask="url(#mask0_1482_68770)">
<path id="Rectangle 34624714" d="M22 27.8281H41L40.0588 58.8887C40.026 59.9692 39.1407 60.8281 38.0597 60.8281H24.9403C23.8593 60.8281 22.974 59.9692 22.9412 58.8887L22 27.8281Z" fill="url(#paint3_linear_1482_68770)"/>
<path id="Rectangle 34624713" d="M22 50.8281H41V59.8281C41 60.3804 40.5523 60.8281 40 60.8281H23C22.4477 60.8281 22 60.3804 22 59.8281V50.8281Z" fill="url(#paint4_linear_1482_68770)"/>
</g>
</g>
</g>
<path id="Rectangle 34624711" d="M26.0215 28.3493C26.0097 27.5127 26.6846 26.8281 27.5213 26.8281H35.4787C36.3154 26.8281 36.9903 27.5127 36.9785 28.3493L36.5978 55.3493C36.5862 56.1694 35.9181 56.8281 35.0979 56.8281H27.9021C27.0819 56.8281 26.4138 56.1694 26.4022 55.3493L26.0215 28.3493Z" fill="url(#paint5_linear_1482_68770)"/>
</g>
<defs>
<linearGradient id="paint0_linear_1482_68770" x1="31.75" y1="9.82813" x2="31.75" y2="27.8281" gradientUnits="userSpaceOnUse">
<stop stop-color="#33AA38"/>
<stop offset="1" stop-color="#43DC52"/>
</linearGradient>
<linearGradient id="paint1_linear_1482_68770" x1="31.5" y1="4.82812" x2="31.5" y2="10.8281" gradientUnits="userSpaceOnUse">
<stop stop-color="#EE4E4E"/>
<stop offset="1" stop-color="#D53456"/>
</linearGradient>
<linearGradient id="paint2_linear_1482_68770" x1="31.5" y1="27.3281" x2="31.5" y2="60.8281" gradientUnits="userSpaceOnUse">
<stop stop-color="#3AD447"/>
<stop offset="1" stop-color="#178C38"/>
</linearGradient>
<linearGradient id="paint3_linear_1482_68770" x1="31.5" y1="27.3281" x2="31.5" y2="55.3281" gradientUnits="userSpaceOnUse">
<stop stop-color="#43DC52"/>
<stop offset="1" stop-color="#2EC859"/>
</linearGradient>
<linearGradient id="paint4_linear_1482_68770" x1="31.5" y1="50.8281" x2="31.5" y2="60.8281" gradientUnits="userSpaceOnUse">
<stop stop-color="#2ECB5A"/>
<stop offset="1" stop-color="#1F813A"/>
</linearGradient>
<linearGradient id="paint5_linear_1482_68770" x1="26" y1="36.8281" x2="37" y2="36.8281" gradientUnits="userSpaceOnUse">
<stop stop-color="#EE4E4E"/>
<stop offset="1" stop-color="#D53434"/>
</linearGradient>
</defs>
</svg>
