<svg width="32" height="32" viewBox="0 0 32 32" fill="none" xmlns="http://www.w3.org/2000/svg">
<rect width="32" height="32" rx="16" fill="white"/>
<rect x="9.5" y="9.01562" width="11.4138" height="13.4828" rx="1.5" fill="white" stroke="#8EB0C8"/>
<rect x="11.5874" y="8" width="7.2414" height="2.06897" rx="1" fill="#6F8BA6"/>
<path d="M11.7275 12.5444C11.7275 12.2934 11.931 12.0898 12.1821 12.0898H18.5457C18.7968 12.0898 19.0003 12.2934 19.0003 12.5444C19.0003 12.7954 18.7968 12.9989 18.5457 12.9989H12.1821C11.931 12.9989 11.7275 12.7954 11.7275 12.5444Z" fill="#DBE4EC"/>
<path d="M11.7275 14.8178C11.7275 14.5668 11.931 14.3633 12.1821 14.3633H16.273C16.524 14.3633 16.7276 14.5668 16.7276 14.8178C16.7276 15.0689 16.524 15.2724 16.273 15.2724H12.1821C11.931 15.2724 11.7275 15.0689 11.7275 14.8178Z" fill="#DBE4EC"/>
<path d="M11.7275 17.0913C11.7275 16.8402 11.931 16.6367 12.1821 16.6367H14.4548C14.7059 16.6367 14.9094 16.8402 14.9094 17.0913C14.9094 17.3423 14.7059 17.5458 14.4548 17.5458H12.1821C11.931 17.5458 11.7275 17.3423 11.7275 17.0913Z" fill="#DBE4EC"/>
<path d="M23.6466 22.8366C23.8418 23.0318 24.1584 23.0318 24.3537 22.8366C24.5489 22.6413 24.5489 22.3247 24.3537 22.1295L23.6466 22.8366ZM21.5776 20.7676L23.6466 22.8366L24.3537 22.1295L22.2847 20.0605L21.5776 20.7676Z" fill="#3C658B"/>
<circle cx="19.8618" cy="18.3456" r="3.10346" fill="#E7FCFF" fill-opacity="0.5" stroke="#3C658B" stroke-miterlimit="10" stroke-linecap="round"/>
</svg>
