<svg width="101" height="100" viewBox="0 0 101 100" fill="none" xmlns="http://www.w3.org/2000/svg">
<circle cx="50.5" cy="50" r="50" fill="#00C378"/>
<path d="M47.6259 7.96933C49.1978 6.3453 51.8022 6.34529 53.3741 7.96932L56.9993 11.7145C58.1007 12.8524 59.7697 13.2334 61.2558 12.6861L66.1469 10.8846C68.2679 10.1035 70.6143 11.2335 71.3259 13.3787L72.9671 18.3259C73.4657 19.829 74.8042 20.8964 76.3806 21.0481L81.5689 21.5472C83.8187 21.7637 85.4425 23.7998 85.1529 26.0414L84.485 31.2107C84.2821 32.7813 85.0249 34.3238 86.3794 35.1444L90.8373 37.8452C92.7704 39.0164 93.35 41.5554 92.1164 43.4494L89.2718 47.817C88.4075 49.144 88.4075 50.856 89.2718 52.183L92.1164 56.5506C93.3499 58.4446 92.7704 60.9836 90.8373 62.1548L86.3794 64.8556C85.0249 65.6762 84.2821 67.2187 84.485 68.7893L85.1529 73.9586C85.4425 76.2002 83.8187 78.2363 81.5689 78.4528L76.3806 78.9519C74.8042 79.1036 73.4657 80.171 72.9671 81.6741L71.3259 86.6213C70.6143 88.7665 68.2679 89.8965 66.1469 89.1154L61.2558 87.3139C59.7697 86.7666 58.1007 87.1476 56.9993 88.2855L53.3741 92.0307C51.8022 93.6547 49.1978 93.6547 47.6259 92.0307L44.0007 88.2855C42.8993 87.1476 41.2303 86.7666 39.7442 87.3139L34.8531 89.1154C32.7321 89.8965 30.3857 88.7665 29.6741 86.6213L28.0329 81.6741C27.5343 80.171 26.1958 79.1036 24.6194 78.9519L19.4311 78.4528C17.1813 78.2363 15.5575 76.2002 15.8471 73.9586L16.515 68.7893C16.7179 67.2187 15.9751 65.6762 14.6206 64.8556L10.1627 62.1548C8.22957 60.9836 7.65005 58.4446 8.88357 56.5506L11.7282 52.183C12.5925 50.856 12.5925 49.144 11.7282 47.817L8.88357 43.4494C7.65005 41.5554 8.22957 39.0164 10.1627 37.8452L14.6206 35.1444C15.9751 34.3238 16.7179 32.7813 16.515 31.2107L15.8471 26.0414C15.5575 23.7998 17.1813 21.7637 19.4311 21.5472L24.6194 21.0481C26.1958 20.8964 27.5343 19.829 28.0329 18.3259L29.6741 13.3787C30.3857 11.2335 32.7321 10.1035 34.8531 10.8846L39.7442 12.6861C41.2303 13.2334 42.8993 12.8524 44.0007 11.7145L47.6259 7.96933Z" fill="#02A667"/>
<path d="M48.4671 52.4844H45.4905V47.4453H42.1624V45.0312H45.4905V39.8281H48.4671V52.4844ZM30.3499 50.1406C31.4671 49.7656 32.4085 49.2305 33.1741 48.5352C33.9397 47.8398 34.5139 47.0586 34.8968 46.1914C35.2796 45.3242 35.4827 44.4297 35.5061 43.5078H31.2171V41.1172H42.7952V43.5078H38.553C38.5764 44.3672 38.7678 45.1953 39.1272 45.9922C39.4866 46.7812 40.0296 47.4922 40.7561 48.125C41.4905 48.7578 42.3889 49.25 43.4514 49.6016L41.9749 51.9453C40.8343 51.5781 39.8499 51.0312 39.0218 50.3047C38.2014 49.5703 37.553 48.7109 37.0764 47.7266C36.5921 48.8438 35.9163 49.8164 35.0491 50.6445C34.1819 51.4648 33.1311 52.0859 31.8968 52.5078L30.3499 50.1406ZM33.8421 57.0781C33.8421 56.2266 34.135 55.4922 34.721 54.875C35.3147 54.25 36.1624 53.7734 37.2639 53.4453C38.3655 53.1172 39.6702 52.9531 41.178 52.9531C42.6936 52.9531 44.0022 53.1172 45.1038 53.4453C46.2053 53.7734 47.053 54.2461 47.6468 54.8633C48.2405 55.4805 48.5374 56.2188 48.5374 57.0781C48.5374 57.9375 48.2405 58.6719 47.6468 59.2812C47.053 59.8984 46.2053 60.3672 45.1038 60.6875C44.0022 61.0156 42.6936 61.1797 41.178 61.1797C39.6702 61.1797 38.3655 61.0156 37.2639 60.6875C36.1624 60.3672 35.3147 59.8984 34.721 59.2812C34.135 58.6641 33.8421 57.9297 33.8421 57.0781ZM36.8186 57.0781C36.8186 57.6797 37.1897 58.1367 37.9319 58.4492C38.6741 58.7539 39.7561 58.9062 41.178 58.9062C42.6077 58.9062 43.6936 58.7539 44.4358 58.4492C45.178 58.1445 45.553 57.6875 45.5608 57.0781C45.553 56.4766 45.1819 56.0234 44.4475 55.7188C43.721 55.4062 42.6585 55.25 41.26 55.25C38.2991 55.25 36.8186 55.8594 36.8186 57.0781ZM67.9546 44.4453H70.8374V46.9062H67.9546V51.2422H64.9546V39.8281H67.9546V44.4453ZM51.853 41.1172H61.3686V43.5078H54.853V48.3359C56.8999 48.3203 58.521 48.2656 59.7163 48.1719C60.9116 48.0781 62.0796 47.9062 63.2202 47.6562L63.5249 50.0703C62.2436 50.3359 60.9038 50.5156 59.5053 50.6094C58.1069 50.6953 56.1577 50.7422 53.6577 50.75H51.853V41.1172ZM53.9389 52.2734H56.9389V54.2422H64.9546V52.2734H67.9546V60.8984H53.9389V52.2734ZM64.9546 58.5078V56.5859H56.9389V58.5078H64.9546Z" fill="white"/>
<path d="M78.5 11.85C78.4172 11.85 78.35 11.9172 78.35 12C78.35 12.0828 78.4172 12.15 78.5 12.15C81.1787 12.15 83.35 14.3216 83.35 17C83.35 17.0828 83.4172 17.15 83.5 17.15C83.5828 17.15 83.65 17.0828 83.65 17C83.65 14.3216 85.8213 12.15 88.5 12.15C88.5828 12.15 88.65 12.0828 88.65 12C88.65 11.9172 88.5828 11.85 88.5 11.85C85.8213 11.85 83.65 9.67839 83.65 7C83.65 6.91716 83.5828 6.85 83.5 6.85C83.4172 6.85 83.35 6.91716 83.35 7C83.35 9.67839 81.1787 11.85 78.5 11.85Z" fill="#FFD633" stroke="#FFD633" stroke-width="0.3" stroke-linejoin="round"/>
<path d="M91.5 23.9C91.4448 23.9 91.4 23.9448 91.4 24C91.4 24.0552 91.4448 24.1 91.5 24.1C93.1017 24.1 94.4 25.3985 94.4 27C94.4 27.0552 94.4448 27.1 94.5 27.1C94.5552 27.1 94.6 27.0552 94.6 27C94.6 25.3985 95.8983 24.1 97.5 24.1C97.5552 24.1 97.6 24.0552 97.6 24C97.6 23.9448 97.5552 23.9 97.5 23.9C95.8983 23.9 94.6 22.6015 94.6 21C94.6 20.9448 94.5552 20.9 94.5 20.9C94.4448 20.9 94.4 20.9448 94.4 21C94.4 22.6015 93.1017 23.9 91.5 23.9Z" fill="#FFD633" stroke="#FFD633" stroke-width="0.2" stroke-linejoin="round"/>
<path d="M68.5 34.3C68.3895 34.3 68.3 34.3895 68.3 34.5C68.3 34.6105 68.3895 34.7 68.5 34.7C73.6365 34.7 77.8 38.8641 77.8 44C77.8 44.1105 77.8895 44.2 78 44.2C78.1105 44.2 78.2 44.1105 78.2 44C78.2 38.8641 82.3635 34.7 87.5 34.7C87.6105 34.7 87.7 34.6105 87.7 34.5C87.7 34.3895 87.6105 34.3 87.5 34.3C82.3635 34.3 78.2 30.1359 78.2 25C78.2 24.8895 78.1105 24.8 78 24.8C77.8895 24.8 77.8 24.8895 77.8 25C77.8 30.1359 73.6365 34.3 68.5 34.3Z" fill="#FFD633" stroke="#FFD633" stroke-width="0.4" stroke-linejoin="round"/>
</svg>
