<svg width="41" height="41" viewBox="0 0 41 41" fill="none" xmlns="http://www.w3.org/2000/svg">
<rect x="0.9375" y="0.710938" width="40" height="40" rx="8" fill="#F8F8F8"/>
<ellipse opacity="0.5" cx="20.8471" cy="20.9449" rx="10.2339" ry="10.2339" fill="url(#paint0_linear_2199_78201)"/>
<ellipse opacity="0.5" cx="20.8499" cy="20.9437" rx="6.82258" ry="6.82263" fill="url(#paint1_linear_2199_78201)"/>
<path fill-rule="evenodd" clip-rule="evenodd" d="M7.9375 12.0533C7.9375 11.6895 8.23244 11.3945 8.59626 11.3945C8.96009 11.3945 9.25503 11.6895 9.25503 12.0533V15.6754C9.25503 15.8574 9.40255 16.0049 9.58453 16.0049C9.76651 16.0049 9.91403 15.8574 9.91403 15.6754V12.0533C9.91403 11.6895 10.209 11.3946 10.5728 11.3946C10.9366 11.3946 11.2316 11.6895 11.2316 12.0533V15.6758C11.2316 15.8576 11.3789 16.0049 11.5607 16.0049C11.7424 16.0049 11.8898 15.8576 11.8898 15.6758V12.0533C11.8898 11.6895 12.1847 11.3945 12.5486 11.3945C12.9124 11.3945 13.2073 11.6895 13.2073 12.0533V16.0048C13.2073 16.0049 13.2074 16.0049 13.2075 16.0049C13.2075 16.0049 13.2076 16.005 13.2076 16.0051V16.6637C13.2076 17.8442 12.4313 18.8435 11.3613 19.1787C11.3116 19.1943 11.2814 19.2448 11.2858 19.2968L12.0824 28.8569C12.1561 29.7404 11.4588 30.4981 10.5723 30.4981C9.68573 30.4981 8.98852 29.7404 9.06215 28.8569L9.85882 19.2968C9.86316 19.2447 9.83299 19.1941 9.78315 19.1785C8.71351 18.8431 7.9375 17.844 7.9375 16.6637V16.0059V16.0049V12.0533Z" fill="#FFBE3B"/>
<path fill-rule="evenodd" clip-rule="evenodd" d="M31.3462 19.2101C32.8287 18.8246 33.9392 17.2415 33.9392 15.3471C33.9392 13.1642 32.4645 11.3945 30.6454 11.3945C28.8263 11.3945 27.3516 13.1642 27.3516 15.3471C27.3516 17.2414 28.462 18.8245 29.9444 19.21C29.9385 19.2384 29.9343 19.2673 29.9318 19.2968L29.1351 28.8569C29.0615 29.7404 29.7587 30.4981 30.6453 30.4981C31.5318 30.4981 32.229 29.7404 32.1554 28.8569L31.3587 19.2968C31.3563 19.2673 31.3521 19.2384 31.3462 19.2101Z" fill="#FFBE3B"/>
<path d="M20.5695 24.8155C19.2884 24.3928 16.4141 22.6144 16.4141 19.5998C16.4141 18.268 17.5145 17.1914 18.8778 17.1914C19.6826 17.1914 20.3971 17.5662 20.8487 18.1564C21.2922 17.5742 22.0149 17.1914 22.8197 17.1914C24.183 17.1914 25.2834 18.268 25.2834 19.5998C25.2834 22.6144 22.4091 24.3928 21.1197 24.8155C20.9719 24.8633 20.7173 24.8633 20.5695 24.8155Z" fill="#FA6D6D"/>
<defs>
<linearGradient id="paint0_linear_2199_78201" x1="15.7302" y1="10.7109" x2="25.9642" y2="31.1788" gradientUnits="userSpaceOnUse">
<stop stop-color="#D7EAFF"/>
<stop offset="1" stop-color="#B6D9FF"/>
</linearGradient>
<linearGradient id="paint1_linear_2199_78201" x1="15.1644" y1="14.1211" x2="25.3984" y2="27.0082" gradientUnits="userSpaceOnUse">
<stop stop-color="#B9D9FF"/>
<stop offset="1" stop-color="#F7FAFF"/>
</linearGradient>
</defs>
</svg>
