<svg width="41" height="40" viewBox="0 0 41 40" fill="none" xmlns="http://www.w3.org/2000/svg">
<path fill-rule="evenodd" clip-rule="evenodd" d="M21.3529 8.90613C20.9701 8.71162 20.5239 8.8623 20.274 9.21144L14.5785 17.1678C14.5771 17.1698 14.5764 17.1721 14.5764 17.1745C14.5764 17.1806 14.5716 17.1856 14.5656 17.186C11.0379 17.4237 8.25 20.3605 8.25 23.9485V26.8568C8.25 30.446 11.0397 33.3836 14.5691 33.6195C14.5732 33.6198 14.5764 33.6232 14.5764 33.6273C14.5764 33.6316 14.5799 33.6351 14.5842 33.6351H26.3372C28.5395 33.6351 30.4495 32.1132 30.9413 29.9665L32.7194 22.2052C33.2933 19.7004 31.3902 17.312 28.8204 17.312H23.3846C22.6008 17.312 22.0958 16.4352 22.4233 15.7231C23.0403 14.3812 23.71 12.4578 23.3147 11.0434C23.0002 9.91828 22.0215 9.24589 21.3529 8.90613Z" fill="url(#paint0_linear_11130_106378)"/>
<path d="M6.10547 18.7055C6.10547 17.7636 6.86904 17 7.81095 17H11.4C12.3419 17 13.1055 17.7636 13.1055 18.7055V32.2945C13.1055 33.2364 12.3419 34 11.4 34H7.81095C6.86904 34 6.10547 33.2364 6.10547 32.2945V18.7055Z" fill="url(#paint1_linear_11130_106378)"/>
<path fill-rule="evenodd" clip-rule="evenodd" d="M21.1057 0.5C21.9341 0.5 22.6057 1.17157 22.6057 2V5C22.6057 5.82843 21.9341 6.5 21.1057 6.5C20.2773 6.5 19.6057 5.82843 19.6057 5V2C19.6057 1.17157 20.2773 0.5 21.1057 0.5ZM11.3557 3.96891C12.0732 3.55469 12.9905 3.80051 13.4048 4.51794L14.9048 7.11602C15.319 7.83346 15.0732 8.75084 14.3557 9.16506C13.6383 9.57927 12.7209 9.33346 12.3067 8.61602L10.8067 6.01794C10.3925 5.30051 10.6383 4.38312 11.3557 3.96891ZM31.4077 6.01758C31.8219 5.30014 31.5761 4.38275 30.8586 3.96854C30.1412 3.55433 29.2238 3.80014 28.8096 4.51758L27.3096 7.11565C26.8954 7.83309 27.1412 8.75048 27.8586 9.16469C28.5761 9.57891 29.4935 9.33309 29.9077 8.61565L31.4077 6.01758Z" fill="url(#paint2_linear_11130_106378)"/>
<defs>
<linearGradient id="paint0_linear_11130_106378" x1="20.5361" y1="8.82031" x2="20.5361" y2="33.6351" gradientUnits="userSpaceOnUse">
<stop offset="0.21875" stop-color="#FFE7D6"/>
<stop offset="1" stop-color="#FFD9BE"/>
<stop offset="1" stop-color="#F9CBA9"/>
</linearGradient>
<linearGradient id="paint1_linear_11130_106378" x1="9.60547" y1="17" x2="9.60547" y2="35" gradientUnits="userSpaceOnUse">
<stop stop-color="#85B9F5"/>
<stop offset="1" stop-color="#72AAEB"/>
</linearGradient>
<linearGradient id="paint2_linear_11130_106378" x1="21.1063" y1="2" x2="21.1063" y2="9.73222" gradientUnits="userSpaceOnUse">
<stop stop-color="#FFE141"/>
<stop offset="1" stop-color="#FEC600"/>
</linearGradient>
</defs>
</svg>
