<svg width="24" height="24" viewBox="0 0 24 24" fill="none" xmlns="http://www.w3.org/2000/svg">
<path fill-rule="evenodd" clip-rule="evenodd" d="M8.67957 16.9123C11.4209 18.5088 15.2261 17.9334 17.8407 15.3188C20.8911 12.2684 21.1659 7.59753 18.4544 4.88608C15.743 2.17463 11.0721 2.44938 8.02172 5.49977C5.39377 8.12771 4.82591 11.9584 6.45278 14.7028L3.91885 16.5929C3.43023 16.9574 3.37862 17.6705 3.80967 18.1016L5.25124 19.5432C5.67951 19.9714 6.38717 19.9237 6.75403 19.4418L8.67957 16.9123Z" fill="white"/>
<path d="M8.67957 16.9123L9.03185 16.3074L8.49729 15.9961L8.12259 16.4883L8.67957 16.9123ZM6.45278 14.7028L6.87133 15.2638L7.37599 14.8874L7.05493 14.3458L6.45278 14.7028ZM3.91885 16.5929L4.3374 17.154L4.3374 17.154L3.91885 16.5929ZM6.75403 19.4418L7.31101 19.8658L7.31101 19.8658L6.75403 19.4418ZM17.3458 14.8238C14.9246 17.245 11.4621 17.7227 9.03185 16.3074L8.3273 17.5172C11.3797 19.2949 15.5277 18.6218 18.3357 15.8138L17.3458 14.8238ZM17.9595 5.38105C20.3443 7.76594 20.1792 11.9904 17.3458 14.8238L18.3357 15.8138C21.603 12.5464 21.9874 7.42911 18.9494 4.3911L17.9595 5.38105ZM8.51669 5.99474C11.3501 3.16131 15.5746 2.99616 17.9595 5.38105L18.9494 4.3911C15.9114 1.35309 10.7941 1.73746 7.52674 5.00479L8.51669 5.99474ZM7.05493 14.3458C5.61311 11.9136 6.08294 8.42849 8.51669 5.99474L7.52674 5.00479C4.70461 7.82693 4.03871 12.0032 5.85063 15.0597L7.05493 14.3458ZM4.3374 17.154L6.87133 15.2638L6.03424 14.1417L3.50031 16.0318L4.3374 17.154ZM4.30464 17.6066C4.17533 17.4773 4.19081 17.2634 4.3374 17.154L3.50031 16.0318C2.66965 16.6515 2.58191 17.8638 3.31469 18.5966L4.30464 17.6066ZM5.74621 19.0482L4.30464 17.6066L3.31469 18.5966L4.75626 20.0381L5.74621 19.0482ZM6.19705 19.0178C6.08699 19.1623 5.87469 19.1767 5.74621 19.0482L4.75626 20.0381C5.48433 20.7662 6.68735 20.685 7.31101 19.8658L6.19705 19.0178ZM8.12259 16.4883L6.19705 19.0178L7.31101 19.8658L9.23655 17.3363L8.12259 16.4883Z" fill="#3F86F1"/>
<path d="M6.28906 8.29688L15.7024 17.7086" stroke="#3F86F1" stroke-width="1.4" stroke-linecap="round"/>
<circle cx="17.501" cy="16.5" r="3.5" fill="white" stroke="#3F86F1" stroke-width="1.4"/>
</svg>
