<svg width="60" height="60" viewBox="0 0 60 60" fill="none" xmlns="http://www.w3.org/2000/svg">
<g clip-path="url(#clip0_14257_115079)">
<circle cx="30" cy="30" r="30" fill="#4F56EE"/>
<path d="M18.6279 50.8187C19.0947 50.0227 17.5683 48.5921 16.5047 47.8186L9.99395 40.3061C8.8671 38.9288 6.08752 36.2243 3.98406 36.4246C3.71583 36.4502 3.51398 36.5411 3.36852 36.6847L3.35803 36.675L0.227882 40.1809L-4.02912 44.438L10.4948 58.3361L18.3411 51.0932C18.464 51.02 18.5536 50.9352 18.6141 50.8412L18.6332 50.8236L18.6279 50.8187Z" fill="#DD9F00"/>
<mask id="mask0_14257_115079" style="mask-type:alpha" maskUnits="userSpaceOnUse" x="4" y="8" width="42" height="43">
<path d="M7.7163 36.4531C7.49126 35.3728 7.43817 33.9499 7.86623 32.2911C8.86787 28.4097 9.3687 17.8922 9.3687 15.7636C9.3687 13.6351 11.7476 11.7569 13.8761 15.7636C15.5789 18.9689 16.0046 23.9439 16.0046 26.0307C16.0046 26.0307 23.8927 13.7603 25.6456 11.5066C27.3985 9.2528 29.2766 7.37468 30.9043 8.25113C32.997 9.37801 30.6536 14.5115 29.7773 16.2645C28.901 18.0174 23.8927 25.5299 23.8927 25.5299C23.8927 25.5299 35.2833 12.8838 36.1597 12.1326C37.0362 11.3813 39.4401 10.1293 40.5419 12.1326C41.9192 14.6368 32.5319 25.2795 28.901 28.4097C29.0542 28.3225 29.5644 27.9426 30.3138 27.3846C33.8657 24.7398 42.7909 18.0942 44.5485 19.6451C46.2513 21.1476 42.587 24.5282 40.5419 26.0307C41.8357 25.2377 44.6144 24.1526 45.0492 25.5299C45.8002 27.9089 43.2996 29.9122 39.2931 33.0424C38.8562 33.3837 38.3197 33.8098 37.7045 34.2984C33.0959 37.9586 24.0743 45.1234 19.51 46.3768C17.8029 47.9397 15.9852 49.7835 15 50.822C11.0352 47.5249 3.40593 40.7052 4.60791 39.8037C5.79414 38.914 7.15923 37.2194 7.7163 36.4531Z" fill="url(#paint0_linear_14257_115079)"/>
</mask>
<g mask="url(#mask0_14257_115079)">
<path d="M7.7163 36.4531C7.49126 35.3728 7.43817 33.9499 7.86623 32.2911C8.86787 28.4097 9.3687 17.8922 9.3687 15.7636C9.3687 13.6351 11.7476 11.7569 13.8761 15.7636C15.5789 18.9689 16.0046 23.9439 16.0046 26.0307C16.0046 26.0307 23.8927 13.7603 25.6456 11.5066C27.3985 9.2528 29.2766 7.37468 30.9043 8.25113C32.997 9.37801 30.6536 14.5115 29.7773 16.2645C28.901 18.0174 23.8927 25.5299 23.8927 25.5299C23.8927 25.5299 35.2833 12.8838 36.1597 12.1326C37.0362 11.3813 39.4401 10.1293 40.5419 12.1326C41.9192 14.6368 32.5319 25.2795 28.901 28.4097C29.0542 28.3225 29.5644 27.9426 30.3138 27.3846C33.8657 24.7398 42.7909 18.0942 44.5485 19.6451C46.2513 21.1476 42.587 24.5282 40.5419 26.0307C41.8357 25.2377 44.6144 24.1526 45.0492 25.5299C45.8002 27.9089 43.2996 29.9122 39.2931 33.0424C38.8562 33.3837 38.3197 33.8098 37.7045 34.2984C33.0959 37.9586 24.0743 45.1234 19.51 46.3768C17.8029 47.9397 16.0602 49.4079 15.075 50.4464C11.1185 48.5683 5.40911 41.3062 4.65788 39.8037C5.8441 38.914 7.15923 37.2194 7.7163 36.4531Z" fill="#FFCBBB"/>
</g>
<g filter="url(#filter0_d_14257_115079)">
<path d="M27.3089 56.347C27.8186 55.5777 26.3729 54.0656 25.3534 53.2349L19.2644 45.3767C18.2147 43.9397 15.5876 41.0869 13.4763 41.1715C13.2071 41.1823 13.0006 41.2621 12.8475 41.3975L12.8375 41.3873L9.51985 44.7162L5.03581 48.7334L18.7757 63.4071L27.0074 56.6053C27.1341 56.539 27.2282 56.4592 27.2939 56.3686L27.3138 56.3521L27.3089 56.347Z" fill="#FFCC00"/>
<mask id="mask1_14257_115079" style="mask-type:alpha" maskUnits="userSpaceOnUse" x="13" y="12" width="49" height="45">
<path d="M13.5005 43.4996C13.8 44.8955 18.9094 52.3237 23.0158 55.1826C26.0768 57.3136 26.0573 55.8986 25.5505 54.4996C25.5134 54.3972 55.5402 38.596 55.4998 38.4997C54.1982 36.7889 65.8263 26.9479 60.5003 20.4996C55.7771 14.7811 34.1141 12.2646 31.9993 12.4996C19.3207 13.9085 11.4117 14.3118 15.9118 42.5939C14.6679 42.0554 13.2532 42.3473 13.5005 43.4996Z" fill="#11122E"/>
</mask>
<g mask="url(#mask1_14257_115079)">
<mask id="mask2_14257_115079" style="mask-type:alpha" maskUnits="userSpaceOnUse" x="12" y="15" width="43" height="43">
<path d="M16.2044 42.4067C16.0389 41.3157 16.0639 39.892 16.5823 38.2592C17.7953 34.4385 18.8721 23.9643 18.9888 21.8389C19.1055 19.7136 21.5839 17.9687 23.4894 22.0861C25.0139 25.38 25.1662 30.3708 25.0518 32.4545C25.0518 32.4545 33.6008 20.6351 35.4747 18.4808C37.3485 16.3266 39.3268 14.5543 40.9039 15.5187C42.9317 16.7586 40.3103 21.7559 39.3392 23.4581C38.3681 25.1604 32.9554 32.3869 32.9554 32.3869C32.9554 32.3869 45.0223 20.3845 45.9386 19.6825C46.855 18.9804 49.324 17.862 50.3143 19.9228C51.5521 22.4987 41.5954 32.6107 37.7983 35.537C37.9561 35.4583 38.4863 35.107 39.2652 34.5909C42.9568 32.1449 52.2329 25.9987 53.9029 27.6437C55.5207 29.2373 51.6765 32.4119 49.5522 33.8C50.8875 33.0791 53.7215 32.148 54.0801 33.547C54.6995 35.9637 52.0928 37.8268 47.9207 40.7326C47.4658 41.0494 46.9067 41.4455 46.2656 41.8996C41.4632 45.3016 32.0624 51.9609 27.4362 52.9621C25.646 54.4291 23.7299 56.1705 22.6892 57.1534C18.9111 53.6438 11.6673 46.416 12.917 45.5818C14.1502 44.7585 15.6061 43.1413 16.2044 42.4067Z" fill="url(#paint1_linear_14257_115079)"/>
</mask>
<g mask="url(#mask2_14257_115079)">
<path d="M16.2044 42.4067C16.0389 41.3157 16.0639 39.892 16.5823 38.2592C17.7953 34.4385 18.8721 23.9643 18.9888 21.8389C19.1055 19.7136 21.5839 17.9687 23.4894 22.0861C25.0139 25.38 25.1662 30.3708 25.0518 32.4545C25.0518 32.4545 33.6008 20.6351 35.4747 18.4808C37.3485 16.3266 39.3268 14.5543 40.9039 15.5187C42.9317 16.7586 40.3103 21.7559 39.3392 23.4581C38.3681 25.1604 32.9554 32.3869 32.9554 32.3869C32.9554 32.3869 45.0223 20.3845 45.9386 19.6825C46.855 18.9804 49.324 17.862 50.3143 19.9228C51.5521 22.4987 41.5954 32.6107 37.7983 35.537C37.9561 35.4583 38.4863 35.107 39.2652 34.5909C42.9568 32.1449 52.2329 25.9987 53.9029 27.6437C55.5207 29.2373 51.6765 32.4119 49.5522 33.8C50.8875 33.0791 53.7215 32.148 54.0801 33.547C54.6995 35.9637 52.0928 37.8268 47.9207 40.7326C47.4658 41.0494 46.9067 41.4455 46.2656 41.8996C41.4632 45.3016 32.0624 51.9609 27.4362 52.9621C25.646 54.4291 21.0412 58.0153 20.0005 58.9982C16.1529 56.9059 10.8503 49.3417 10.1826 47.8002C11.4158 46.9769 15.6061 43.1413 16.2044 42.4067Z" fill="url(#paint2_linear_14257_115079)"/>
<path d="M52.0151 32.3047L39.9422 39.7925" stroke="#E2A97F" stroke-width="0.250417" stroke-linecap="round"/>
</g>
</g>
</g>
</g>
<defs>
<filter id="filter0_d_14257_115079" x="3.03564" y="14.25" width="51.2544" height="49.1562" filterUnits="userSpaceOnUse" color-interpolation-filters="sRGB">
<feFlood flood-opacity="0" result="BackgroundImageFix"/>
<feColorMatrix in="SourceAlpha" type="matrix" values="0 0 0 0 0 0 0 0 0 0 0 0 0 0 0 0 0 0 127 0" result="hardAlpha"/>
<feOffset dx="-2" dy="-1"/>
<feComposite in2="hardAlpha" operator="out"/>
<feColorMatrix type="matrix" values="0 0 0 0 0 0 0 0 0 0 0 0 0 0 0 0 0 0 0.06 0"/>
<feBlend mode="multiply" in2="BackgroundImageFix" result="effect1_dropShadow_14257_115079"/>
<feBlend mode="normal" in="SourceGraphic" in2="effect1_dropShadow_14257_115079" result="shape"/>
</filter>
<linearGradient id="paint0_linear_14257_115079" x1="24.8315" y1="8.03125" x2="24.8315" y2="50.822" gradientUnits="userSpaceOnUse">
<stop stop-color="#FFE7D6"/>
<stop offset="1" stop-color="#FFD9BE"/>
</linearGradient>
<linearGradient id="paint1_linear_14257_115079" x1="34.8524" y1="14.9661" x2="32.5059" y2="57.6925" gradientUnits="userSpaceOnUse">
<stop stop-color="#FFE7D6"/>
<stop offset="1" stop-color="#FFD9BE"/>
</linearGradient>
<linearGradient id="paint2_linear_14257_115079" x1="34.8524" y1="14.9661" x2="32.5059" y2="57.6925" gradientUnits="userSpaceOnUse">
<stop stop-color="#FFE7D6"/>
<stop offset="1" stop-color="#FFD9BE"/>
</linearGradient>
<clipPath id="clip0_14257_115079">
<rect width="60" height="60" rx="30" fill="white"/>
</clipPath>
</defs>
</svg>
