<svg width="61" height="60" viewBox="0 0 61 60" fill="none" xmlns="http://www.w3.org/2000/svg">
<circle cx="15.1836" cy="26" r="5" fill="#FFEDBD"/>
<circle cx="43.1836" cy="25" r="5" fill="#FFEDBD"/>
<path d="M7.18359 40C7.18359 35.5817 10.7653 32 15.1836 32C19.6019 32 23.1836 35.5817 23.1836 40V41.1667C23.1836 42.1792 22.3628 43 21.3503 43H9.01693C8.0044 43 7.18359 42.1792 7.18359 41.1667V40Z" fill="#FFEDBD"/>
<path d="M35.1836 39C35.1836 34.5817 38.7653 31 43.1836 31C47.6019 31 51.1836 34.5817 51.1836 39V40.1667C51.1836 41.1792 50.3628 42 49.3503 42H37.0169C36.0044 42 35.1836 41.1792 35.1836 40.1667V39Z" fill="#FFEDBD"/>
<ellipse cx="29.1844" cy="19.1886" rx="7.2" ry="7.18859" fill="url(#paint0_linear_1758_129181)"/>
<path d="M17.1836 40.2266C17.1836 33.5991 22.5562 28.2266 29.1836 28.2266C35.811 28.2266 41.1836 33.5991 41.1836 40.2266V42.3333C41.1836 43.806 39.9897 44.9999 38.5169 44.9999H19.8503C18.3775 44.9999 17.1836 43.806 17.1836 42.3333V40.2266Z" fill="url(#paint1_linear_1758_129181)"/>
<rect x="35.6836" y="37.5" width="15" height="15" rx="7.5" fill="white" stroke="#3B4A65"/>
<path d="M43.3206 41.7969L43.3203 48.2969" stroke="#3B4A65" stroke-width="1.5" stroke-linecap="round"/>
<path d="M46.5703 45.0536L43.3357 41.7656L40.0703 45.0533" stroke="#3B4A65" stroke-width="1.5" stroke-linecap="round" stroke-linejoin="round"/>
<defs>
<linearGradient id="paint0_linear_1758_129181" x1="29.1844" y1="12" x2="29.1844" y2="26.3772" gradientUnits="userSpaceOnUse">
<stop stop-color="#FFBE62"/>
<stop offset="1" stop-color="#FFA423"/>
</linearGradient>
<linearGradient id="paint1_linear_1758_129181" x1="29.1836" y1="28.2266" x2="29.1836" y2="44.9999" gradientUnits="userSpaceOnUse">
<stop stop-color="#FFBE62"/>
<stop offset="1" stop-color="#FFA423"/>
</linearGradient>
</defs>
</svg>
