<svg width="60" height="60" viewBox="0 0 60 60" fill="none" xmlns="http://www.w3.org/2000/svg">
<path fill-rule="evenodd" clip-rule="evenodd" d="M40.2353 35.2663C40.4695 35.2874 40.7065 35.2982 40.9462 35.2982C45.257 35.2982 48.7517 31.803 48.7517 27.4914C48.7517 23.1798 45.257 19.6846 40.9462 19.6846C40.6929 19.6846 40.4425 19.6966 40.1954 19.7202C39.8521 15.7258 36.5015 12.5908 32.4188 12.5908C30.5947 12.5908 28.9166 13.2167 27.5877 14.2654C25.9793 11.5617 23.0284 9.75 19.6544 9.75C14.5597 9.75 10.4297 13.8807 10.4297 18.9762C10.4297 19.7424 10.5231 20.4868 10.699 21.1985C7.32543 21.7469 4.75 24.6743 4.75 28.2034C4.75 32.123 7.92696 35.3005 11.8459 35.3005C11.8998 35.3005 11.9535 35.2999 12.0071 35.2987H40.2353V35.2663Z" fill="url(#paint0_linear_3692_85201)"/>
<path fill-rule="evenodd" clip-rule="evenodd" d="M50.6195 49.8045C50.8078 49.8215 50.9985 49.8301 51.1912 49.8301C54.6687 49.8301 57.4878 47.0109 57.4878 43.5332C57.4878 40.0556 54.6687 37.2363 51.1912 37.2363C50.9895 37.2363 50.7901 37.2458 50.5934 37.2643C50.3165 34.0425 47.6136 31.5138 44.3201 31.5138C42.8474 31.5138 41.4928 32.0194 40.4204 32.8665C39.1231 30.6847 36.7421 29.2227 34.0196 29.2227C29.9098 29.2227 26.5781 32.5545 26.5781 36.6645C26.5781 37.2825 26.6535 37.883 26.7955 38.4571C24.0738 38.8993 21.9961 41.2606 21.9961 44.1073C21.9961 47.2688 24.5589 49.8317 27.7203 49.8317C27.751 49.8317 27.7817 49.8315 27.8123 49.831H50.6195V49.8045Z" fill="url(#paint1_linear_3692_85201)"/>
<defs>
<linearGradient id="paint0_linear_3692_85201" x1="26.0411" y1="9.75" x2="26.0411" y2="35.3005" gradientUnits="userSpaceOnUse">
<stop stop-color="#B8CBD9"/>
<stop offset="1" stop-color="#CFE2EF"/>
</linearGradient>
<linearGradient id="paint1_linear_3692_85201" x1="39.1695" y1="29.2227" x2="39.1695" y2="49.8317" gradientUnits="userSpaceOnUse">
<stop stop-color="#B8CBD9"/>
<stop offset="1" stop-color="#CFE2EF"/>
</linearGradient>
</defs>
</svg>
