<svg width="100" height="100" viewBox="0 0 100 100" fill="none" xmlns="http://www.w3.org/2000/svg">
<g id="emotion icon/100/&#234;&#177;&#177;&#236;&#160;&#149;" clip-path="url(#clip0_2351_80228)">
<circle id="Ellipse 3140" cx="50" cy="50" r="50" fill="url(#paint0_linear_2351_80228)"/>
<path id="Ellipse 3148" d="M25.0353 33.934C28.1953 33.0873 30.5937 30.8179 31.7274 27.9998" stroke="#26282C" stroke-width="4" stroke-linecap="round"/>
<path id="Ellipse 3154" d="M25.0353 33.934C28.1953 33.0873 30.5937 30.8179 31.7274 27.9998" stroke="#26282C" stroke-width="4" stroke-linecap="round"/>
<path id="Ellipse 3153" d="M74.7264 33.934C71.5664 33.0873 69.168 30.8179 68.0343 27.9998" stroke="#26282C" stroke-width="4" stroke-linecap="round"/>
<path id="Ellipse 3155" d="M74.7264 33.934C71.5664 33.0873 69.168 30.8179 68.0343 27.9998" stroke="#26282C" stroke-width="4" stroke-linecap="round"/>
<path id="Ellipse 3149" d="M57.5317 75.3863C55.5777 71.3086 50.6881 69.5869 46.6104 71.5408C44.8668 72.3763 43.554 73.7486 42.7751 75.3646" stroke="#26282C" stroke-width="4" stroke-linecap="round"/>
<g id="Group 1261167757">
<circle id="Ellipse 3151" cx="30" cy="50" r="10" fill="#26282C"/>
<circle id="Ellipse 3152" cx="70" cy="50" r="10" fill="#26282C"/>
</g>
</g>
<defs>
<linearGradient id="paint0_linear_2351_80228" x1="50" y1="0" x2="50" y2="100" gradientUnits="userSpaceOnUse">
<stop stop-color="#DCC967"/>
<stop offset="1" stop-color="#EADD94"/>
</linearGradient>
<clipPath id="clip0_2351_80228">
<rect width="100" height="100" fill="white"/>
</clipPath>
</defs>
</svg>
