<svg width="100" height="100" viewBox="0 0 100 100" fill="none" xmlns="http://www.w3.org/2000/svg">
<g clip-path="url(#clip0_2351_80259)">
<circle cx="50" cy="50" r="50" fill="#B6D6D8"/>
<circle cx="31.5" cy="47" r="10" stroke="#26282C" stroke-width="4"/>
<ellipse cx="12.5" cy="58.5" rx="3" ry="4.5" fill="white"/>
<circle cx="68.5" cy="47" r="10" stroke="#26282C" stroke-width="4"/>
<ellipse cx="89.5" cy="37.5" rx="3" ry="4.5" fill="white"/>
<ellipse cx="74.5" cy="73.5" rx="3" ry="4.5" fill="white"/>
<path d="M25.5 23L37.0911 26.1058" stroke="#26282C" stroke-width="4" stroke-linecap="round"/>
<path d="M62.5 26.1094L74.0911 23.0035" stroke="#26282C" stroke-width="4" stroke-linecap="round"/>
<path d="M44.5 68C44.5 65.2386 46.7386 63 49.5 63V63C52.2614 63 54.5 65.2386 54.5 68V71.4706C54.5 73.4198 52.9198 75 50.9706 75H48.0294C46.0802 75 44.5 73.4198 44.5 71.4706V68Z" stroke="#26282C" stroke-width="4"/>
</g>
<defs>
<clipPath id="clip0_2351_80259">
<rect width="100" height="100" fill="white"/>
</clipPath>
</defs>
</svg>
