<svg width="48" height="48" viewBox="0 0 48 48" fill="none" xmlns="http://www.w3.org/2000/svg">
<path fill-rule="evenodd" clip-rule="evenodd" d="M33.5257 8.38275H25.8437C25.0174 8.38275 24.4298 9.16613 24.6804 9.93367L26.1163 14.3332H33.4593L34.7034 9.88596C34.9152 9.1289 34.3306 8.38275 33.5257 8.38275ZM36.2566 17.9034L38.2368 10.8254C39.0839 7.79712 36.7455 4.8125 33.5257 4.8125H25.8437C22.5387 4.8125 20.1883 7.94603 21.1904 11.0162L23.4383 17.9034H36.2566Z" fill="url(#paint0_linear_2290_92140)"/>
<path d="M41.6836 24.2133C41.6836 29.2551 37.4836 33.1765 29.6836 33.1765C21.8836 33.1765 17.6836 29.2551 17.6836 24.2133C17.6836 18.0256 22.4836 12.4492 29.6836 12.4492C36.8836 12.4492 41.6836 18.0256 41.6836 24.2133Z" fill="url(#paint1_linear_2290_92140)"/>
<path d="M32.8708 20.4274C32.8824 20.3235 32.9703 20.2449 33.0749 20.2449H33.8429C33.9563 20.2449 34.0482 20.3368 34.0482 20.4503V24.8817C34.0482 25.3191 33.9507 25.69 33.7556 25.9944C33.5635 26.3017 33.2946 26.5337 32.9489 26.6904C32.6031 26.8499 32.2012 26.9297 31.7431 26.9297C31.5421 26.9297 31.3294 26.9031 31.1048 26.8499C30.8831 26.7968 30.6703 26.714 30.4664 26.6017C30.3139 26.5165 30.1802 26.4143 30.0651 26.2951C30.0004 26.228 29.9999 26.1242 30.0557 26.0495L30.371 25.6274C30.4496 25.5223 30.605 25.5178 30.7048 25.6031C30.807 25.6905 30.9182 25.7633 31.0383 25.8215C31.2333 25.919 31.449 25.9678 31.6855 25.9678C31.916 25.9678 32.111 25.9249 32.2706 25.8392C32.4302 25.7565 32.5528 25.6339 32.6385 25.4713C32.7243 25.3117 32.7671 25.1182 32.7671 24.8906V21.3531L32.8708 20.4274ZM29.6641 22.7007V22.6077C29.6641 22.2412 29.7084 21.9087 29.797 21.6102C29.8887 21.3088 30.0172 21.0502 30.1827 20.8345C30.3512 20.6188 30.5551 20.4518 30.7945 20.3336C31.0338 20.2154 31.3042 20.1562 31.6057 20.1562C31.9248 20.1562 32.1923 20.2154 32.408 20.3336C32.6238 20.4518 32.8011 20.6202 32.94 20.8389C33.0789 21.0547 33.1868 21.3103 33.2636 21.6058C33.3434 21.8984 33.4054 22.219 33.4498 22.5678V22.7717C33.4054 23.1056 33.3389 23.4159 33.2503 23.7026C33.1616 23.9892 33.0449 24.2404 32.9001 24.4562C32.7553 24.669 32.575 24.8345 32.3593 24.9527C32.1465 25.0709 31.8923 25.13 31.5968 25.13C31.3013 25.13 31.0338 25.0694 30.7945 24.9482C30.558 24.8271 30.3556 24.6571 30.1871 24.4384C30.0187 24.2198 29.8887 23.9626 29.797 23.6671C29.7084 23.3716 29.6641 23.0495 29.6641 22.7007ZM30.9407 22.6077V22.7007C30.9407 22.8987 30.96 23.0834 30.9984 23.2549C31.0368 23.4263 31.0959 23.5785 31.1757 23.7114C31.2584 23.8415 31.3604 23.9434 31.4816 24.0173C31.6057 24.0882 31.752 24.1237 31.9204 24.1237C32.1539 24.1237 32.3445 24.0749 32.4923 23.9774C32.64 23.8769 32.7508 23.7395 32.8247 23.5652C32.8986 23.3908 32.9415 23.1898 32.9533 22.9623V22.3816C32.9474 22.1954 32.9223 22.0284 32.8779 21.8807C32.8336 21.7299 32.7715 21.6014 32.6917 21.495C32.6119 21.3886 32.5085 21.3059 32.3814 21.2467C32.2544 21.1876 32.1036 21.1581 31.9293 21.1581C31.7608 21.1581 31.6145 21.1965 31.4904 21.2733C31.3693 21.3472 31.2673 21.4492 31.1846 21.5792C31.1048 21.7092 31.0442 21.8629 31.0028 22.0402C30.9614 22.2146 30.9407 22.4037 30.9407 22.6077Z" fill="white"/>
<path d="M26.3897 18.2305C26.5031 18.2305 26.595 18.3224 26.595 18.4358V24.8385C26.595 24.9519 26.5031 25.0439 26.3897 25.0439H25.5237C25.4103 25.0439 25.3184 24.9519 25.3184 24.8385V18.4358C25.3184 18.3224 25.4103 18.2305 25.5237 18.2305H26.3897ZM29.1651 20.2474C29.3416 20.2474 29.4359 20.4554 29.3195 20.5882L27.5348 22.6235L26.6184 23.5508C26.5198 23.6506 26.3523 23.6243 26.289 23.499L26.0112 22.9486C25.9753 22.8774 25.9838 22.7917 26.0332 22.729L26.8388 21.7059L28.023 20.3194C28.062 20.2737 28.1191 20.2474 28.1792 20.2474H29.1651ZM28.4052 25.0439C28.3352 25.0439 28.27 25.0082 28.2323 24.9492L26.9696 22.9763C26.9148 22.8907 26.9309 22.7779 27.0074 22.711L27.5809 22.2096C27.6741 22.1281 27.8175 22.1469 27.8865 22.2496L29.5496 24.724C29.6412 24.8604 29.5435 25.0439 29.3791 25.0439H28.4052Z" fill="white"/>
<rect x="4.99609" y="34.5312" width="36" height="3" rx="1.5" fill="url(#paint2_linear_2290_92140)"/>
<rect x="10.9961" y="28.5312" width="6" height="15" rx="1.62822" fill="url(#paint3_linear_2290_92140)"/>
<rect x="28.9961" y="28.5312" width="6" height="15" rx="1.62822" fill="url(#paint4_linear_2290_92140)"/>
<path d="M6.99609 33.1595C6.99609 32.2602 7.72507 31.5312 8.62432 31.5312H10.9961V40.5312H8.62432C7.72507 40.5312 6.99609 39.8023 6.99609 38.903V33.1595Z" fill="url(#paint5_linear_2290_92140)"/>
<path d="M34.9961 31.5312H37.3679C38.2671 31.5312 38.9961 32.2602 38.9961 33.1595V38.903C38.9961 39.8023 38.2671 40.5312 37.3679 40.5312H34.9961V31.5312Z" fill="url(#paint6_linear_2290_92140)"/>
<defs>
<linearGradient id="paint0_linear_2290_92140" x1="29.6843" y1="4.8125" x2="29.6843" y2="17.9034" gradientUnits="userSpaceOnUse">
<stop stop-color="#99B3F8"/>
<stop offset="1" stop-color="#4878D5"/>
</linearGradient>
<linearGradient id="paint1_linear_2290_92140" x1="23.6836" y1="12.9947" x2="36.229" y2="33.1765" gradientUnits="userSpaceOnUse">
<stop stop-color="#A2C1FF"/>
<stop offset="1" stop-color="#4D76DD"/>
</linearGradient>
<linearGradient id="paint2_linear_2290_92140" x1="22.9961" y1="34.5312" x2="22.9961" y2="37.5312" gradientUnits="userSpaceOnUse">
<stop stop-color="#E9E8EF"/>
<stop offset="1" stop-color="#D6D5DA"/>
</linearGradient>
<linearGradient id="paint3_linear_2290_92140" x1="13.9961" y1="28.5312" x2="13.9961" y2="43.5312" gradientUnits="userSpaceOnUse">
<stop stop-color="#9C9C9C"/>
<stop offset="1" stop-color="#575757"/>
</linearGradient>
<linearGradient id="paint4_linear_2290_92140" x1="31.9961" y1="28.5312" x2="31.9961" y2="43.5312" gradientUnits="userSpaceOnUse">
<stop stop-color="#9C9C9C"/>
<stop offset="1" stop-color="#575757"/>
</linearGradient>
<linearGradient id="paint5_linear_2290_92140" x1="8.99609" y1="31.5312" x2="8.99609" y2="40.5312" gradientUnits="userSpaceOnUse">
<stop stop-color="#727272"/>
<stop offset="1" stop-color="#444444"/>
</linearGradient>
<linearGradient id="paint6_linear_2290_92140" x1="36.9961" y1="31.5312" x2="36.9961" y2="40.5312" gradientUnits="userSpaceOnUse">
<stop stop-color="#727272"/>
<stop offset="1" stop-color="#444444"/>
</linearGradient>
</defs>
</svg>
