<svg width="48" height="48" viewBox="0 0 48 48" fill="none" xmlns="http://www.w3.org/2000/svg">
<rect x="11.2988" y="7.33398" width="17.8133" height="5.93763" rx="1.13437" fill="url(#paint0_linear_2170_4515)"/>
<rect x="14.2676" y="13.2715" width="11.8755" height="1.78129" fill="#F09B3E"/>
<rect x="9.51758" y="15.0537" width="21.3759" height="25.5318" rx="3.4031" fill="url(#paint1_linear_2170_4515)"/>
<rect x="9.51758" y="20.9902" width="21.3759" height="13.6565" fill="url(#paint2_linear_2170_4515)"/>
<path fill-rule="evenodd" clip-rule="evenodd" d="M18.991 23.3652C18.6778 23.3652 18.4238 23.6192 18.4238 23.9324V25.7384H16.616C16.3028 25.7384 16.0488 25.9924 16.0488 26.3056V28.7338C16.0488 29.0471 16.3028 29.301 16.616 29.301H18.4238V31.1107C18.4238 31.424 18.6778 31.6779 18.991 31.6779H21.4193C21.7325 31.6779 21.9865 31.424 21.9865 31.1107V29.301H23.7945C24.1078 29.301 24.3617 29.0471 24.3617 28.7338V26.3056C24.3617 25.9924 24.1078 25.7384 23.7945 25.7384H21.9865V23.9324C21.9865 23.6192 21.7325 23.3652 21.4193 23.3652H18.991Z" fill="url(#paint3_linear_2170_4515)"/>
<rect width="8.48519" height="16.9704" rx="4.2426" transform="matrix(0.707114 0.707099 -0.707114 0.707099 35 26)" fill="url(#paint4_linear_2170_4515)"/>
<path d="M32 28.9999C33.6569 27.3431 36.3431 27.3431 38 28.9999C39.6569 30.6568 39.6569 33.343 38 34.9998L35 37.9997L29 31.9999L32 28.9999Z" fill="url(#paint5_linear_2170_4515)"/>
<defs>
<linearGradient id="paint0_linear_2170_4515" x1="16.049" y1="5.5527" x2="24.0648" y2="14.4593" gradientUnits="userSpaceOnUse">
<stop stop-color="#CFE8FF"/>
<stop offset="1" stop-color="#BEDEFB"/>
</linearGradient>
<linearGradient id="paint1_linear_2170_4515" x1="20.2055" y1="15.0537" x2="20.2055" y2="40.5855" gradientUnits="userSpaceOnUse">
<stop stop-color="#FFDD6B"/>
<stop offset="1" stop-color="#FBB52F"/>
</linearGradient>
<linearGradient id="paint2_linear_2170_4515" x1="8.9238" y1="18.6152" x2="31.7838" y2="36.4285" gradientUnits="userSpaceOnUse">
<stop stop-color="#FFFEF9"/>
<stop offset="1" stop-color="#F0EFEB"/>
</linearGradient>
<linearGradient id="paint3_linear_2170_4515" x1="16.6426" y1="22.7715" x2="23.7677" y2="32.2718" gradientUnits="userSpaceOnUse">
<stop stop-color="#FB5872"/>
<stop offset="1" stop-color="#EE405D"/>
</linearGradient>
<linearGradient id="paint4_linear_2170_4515" x1="-1.11022" y1="9.11013" x2="9.76467" y2="8.98513" gradientUnits="userSpaceOnUse">
<stop stop-color="#FFF7F5"/>
<stop offset="1" stop-color="#EBE1DF"/>
</linearGradient>
<linearGradient id="paint5_linear_2170_4515" x1="31.3086" y1="28.8284" x2="38.2027" y2="35.7227" gradientUnits="userSpaceOnUse">
<stop stop-color="#F7655B"/>
<stop offset="1" stop-color="#E1453B"/>
</linearGradient>
</defs>
</svg>
