<svg width="20" height="20" viewBox="0 0 20 20" fill="none" xmlns="http://www.w3.org/2000/svg">
<g id="Icon Button / Basic 20/16">
<path id="Union" fill-rule="evenodd" clip-rule="evenodd" d="M6.49976 2.02344C5.53326 2.02344 4.74976 2.80694 4.74976 3.77344V4.83709H2.76123C2.34702 4.83709 2.01123 5.17287 2.01123 5.58709C2.01123 6.0013 2.34702 6.33709 2.76123 6.33709H3.3645L3.87315 16.3272C3.92053 17.2579 4.68897 17.9882 5.62088 17.9882H14.379C15.3109 17.9882 16.0793 17.2579 16.1267 16.3272L16.6354 6.33709H17.2384C17.6526 6.33709 17.9884 6.0013 17.9884 5.58709C17.9884 5.17287 17.6526 4.83709 17.2384 4.83709H15.2498V3.77344C15.2498 2.80694 14.4663 2.02344 13.4998 2.02344H6.49976ZM13.7498 4.83709V3.77344C13.7498 3.63537 13.6378 3.52344 13.4998 3.52344H6.49976C6.36168 3.52344 6.24976 3.63537 6.24976 3.77344V4.83709H13.7498ZM4.8675 6.35782L5.37121 16.2509C5.37798 16.3839 5.48775 16.4882 5.62088 16.4882H14.379C14.5121 16.4882 14.6219 16.3839 14.6287 16.2509L15.1324 6.35782H4.8675ZM8.45338 14.6508C8.03937 14.6639 7.69317 14.3388 7.68013 13.9248L7.51211 8.59272C7.49907 8.17872 7.82411 7.83252 8.23812 7.81948C8.65213 7.80643 8.99832 8.13147 9.01137 8.54548L9.17938 13.8776C9.19243 14.2916 8.86738 14.6378 8.45338 14.6508ZM12.489 8.61757C12.5098 8.20388 12.1913 7.85163 11.7776 7.83081C11.3639 7.80999 11.0117 8.12847 10.9909 8.54216L10.7231 13.8602C10.7023 14.2739 11.0208 14.6262 11.4345 14.647C11.8482 14.6678 12.2004 14.3493 12.2213 13.9357L12.489 8.61757Z" fill="#444444"/>
</g>
</svg>
