<svg width="24" height="24" viewBox="0 0 24 24" fill="none" xmlns="http://www.w3.org/2000/svg">
<circle cx="12.0727" cy="11.9985" r="8.81103" fill="white"/>
<path d="M8.35315 3.67199C8.13523 3.16452 8.36622 2.56488 8.8928 2.39834C10.8637 1.77501 12.9876 1.77107 14.9734 2.40088C17.2782 3.13187 19.2431 4.66781 20.5089 6.72801C21.7747 8.78821 22.2569 11.2351 21.8674 13.6215C21.4779 16.0079 20.2427 18.1745 18.3875 19.7253C16.5324 21.2761 14.1811 22.1076 11.7635 22.0678C9.3458 22.028 7.02318 21.1196 5.22004 19.5086C3.41691 17.8976 2.25366 15.6916 1.94289 13.2937C1.67514 11.2277 2.05558 9.13813 3.01847 7.30896C3.27574 6.82026 3.90683 6.69924 4.36762 7.00368C4.82842 7.30812 4.95469 7.93023 4.70965 8.42517C4.00657 9.84524 3.73458 11.4487 3.94014 13.0348C4.18876 14.9532 5.11935 16.718 6.56186 18.0068C8.00437 19.2956 9.86246 20.0223 11.7966 20.0541C13.7307 20.086 15.6117 19.4208 17.0958 18.1801C18.58 16.9395 19.5681 15.2062 19.8797 13.2971C20.1913 11.388 19.8055 9.43045 18.7929 7.7823C17.7803 6.13414 16.2084 4.90539 14.3645 4.32059C12.84 3.83707 11.2137 3.82047 9.69149 4.26063C9.16094 4.41404 8.57107 4.17947 8.35315 3.67199Z" fill="#FFCD4E"/>
<path d="M5.6361 9.39454L4.34429 6.5056L1.45495 7.79843" stroke="#FFCD4E" stroke-width="1.5" stroke-linecap="round" stroke-linejoin="round"/>
<path d="M13.125 11.375H17.1875C17.6362 11.375 18 11.7388 18 12.1875C18 12.6362 17.6362 13 17.1875 13H13.125V11.375Z" fill="#686552"/>
<path d="M12.3125 6.5C12.7612 6.5 13.125 6.86377 13.125 7.3125L13.125 13L11.5 13L11.5 7.3125C11.5 6.86377 11.8638 6.5 12.3125 6.5Z" fill="#686552"/>
</svg>
