<svg width="19" height="19" viewBox="0 0 19 19" fill="none" xmlns="http://www.w3.org/2000/svg">
<path d="M4.03891 8.90715C4.18036 8.49864 4.34114 8.07781 4.50505 7.73506C4.9375 6.83076 5.83623 5.54047 5.83623 5.54047C5.83623 5.54047 6.10618 5.13301 6.55578 5.54047C7.00539 5.94792 7.05947 6.45807 7.70707 6.58382C8.35468 6.70958 8.78861 6.2955 9.48798 6.34973C10.321 6.41433 10.7869 6.95458 11.171 7.60859M4.03891 8.90715C3.90542 9.29267 3.78914 9.66721 3.70368 9.95482C3.61222 10.2626 3.76168 10.5877 4.05134 10.7263L10.5853 13.8511H15.2085C15.2085 13.8511 16.0108 13.0917 16.1961 12.3669M4.03891 8.90715L11.2187 12.3669H16.1961M16.1961 12.3669C16.2186 12.279 16.232 12.1916 16.2338 12.1061C16.2534 11.175 15.7748 10.454 14.9026 10.1273C14.3763 9.93022 14.0192 10.2117 13.4635 10.1273C12.1722 9.93123 11.7715 8.63091 11.171 7.60859M11.171 7.60859L9.48798 8.59483M11.8312 8.90715L10.8436 9.55342" stroke="white" stroke-width="0.933295" stroke-linecap="round"/>
</svg>
