<svg width="16" height="16" viewBox="0 0 16 16" fill="none" xmlns="http://www.w3.org/2000/svg">
<path d="M12.9784 2.2605C11.6039 0.865096 9.69243 0 7.57895 0C3.39321 0 0 3.39321 0 7.57895C0 9.68976 0.862911 11.599 2.25521 12.9732C2.28271 13.0011 2.31041 13.0288 2.33833 13.0563C2.36102 13.0793 2.38384 13.1021 2.40682 13.1248C2.43189 13.1502 2.45715 13.1755 2.48258 13.2006C2.51007 13.2285 2.53778 13.2562 2.56569 13.2837C2.58975 13.3081 2.61397 13.3322 2.63836 13.3563C2.66724 13.3856 2.69635 13.4148 2.7257 13.4437C2.74838 13.4666 2.77122 13.4894 2.79419 13.5121C2.81928 13.5376 2.84455 13.5629 2.86999 13.588C2.89747 13.6159 2.92518 13.6436 2.95309 13.6711C2.97576 13.694 2.99858 13.7168 3.02154 13.7395C4.39613 15.1349 6.30756 16 8.42105 16C12.6068 16 16 12.6068 16 8.42105C16 6.31024 15.1371 4.40096 13.7448 3.02676C13.7173 2.99885 13.6896 2.97115 13.6617 2.94367C13.639 2.92072 13.6162 2.89791 13.5932 2.87525C13.5681 2.84979 13.5429 2.8245 13.5174 2.79939C13.4899 2.77147 13.4622 2.74376 13.4343 2.71627C13.4102 2.69192 13.386 2.66773 13.3616 2.6437C13.3328 2.61435 13.3036 2.58522 13.2743 2.55634C13.2516 2.53338 13.2288 2.51056 13.2058 2.48789C13.1807 2.46243 13.1555 2.43715 13.1301 2.41205C13.1026 2.38414 13.0749 2.35645 13.0469 2.32897C13.0243 2.306 13.0014 2.28318 12.9784 2.2605Z" fill="url(#paint0_linear_2691_48722)"/>
<g filter="url(#filter0_i_2691_48722)">
<path d="M7.57895 15.1579C11.7647 15.1579 15.1579 11.7647 15.1579 7.57895C15.1579 3.39321 11.7647 0 7.57895 0C3.39321 0 0 3.39321 0 7.57895C0 11.7647 3.39321 15.1579 7.57895 15.1579Z" fill="url(#paint1_linear_2691_48722)"/>
</g>
<g filter="url(#filter1_i_2691_48722)">
<path d="M6.04695 11.6219C5.86977 11.6219 5.72614 11.4783 5.72614 11.3011V4.87941C5.72614 4.66116 5.86598 4.46657 6.07523 4.40456C6.36949 4.31736 6.66539 4.24166 6.96293 4.17745C7.38478 4.0878 7.77148 4.04297 8.12302 4.04297C8.47456 4.04297 8.81013 4.10381 9.12971 4.22548C9.45569 4.34075 9.74012 4.51045 9.983 4.73458C10.2259 4.95872 10.4176 5.23408 10.5583 5.56068C10.7053 5.88087 10.7788 6.24589 10.7788 6.65574C10.7788 7.03356 10.7148 7.37937 10.587 7.69316C10.4656 8.00695 10.2898 8.27591 10.0597 8.50004C9.8296 8.72418 9.55156 8.90028 9.22559 9.02836C8.89961 9.15644 8.53528 9.22048 8.13261 9.22048C7.96003 9.22048 7.79065 9.20767 7.62447 9.18205C7.36475 9.14202 7.11633 9.33284 7.11633 9.59562V11.2809C7.11633 11.4692 6.96365 11.6219 6.77532 11.6219H6.04695ZM9.39816 6.60771C9.39816 6.13382 9.2927 5.7688 9.08177 5.51265C8.87085 5.25009 8.54487 5.11881 8.10384 5.11881C7.97601 5.11881 7.82261 5.13482 7.64364 5.16684C7.32282 5.21276 7.11633 5.51026 7.11633 5.83435V7.47589C7.11633 7.77203 7.30396 8.04577 7.5957 8.0966C7.74271 8.11581 7.9057 8.12542 8.08467 8.12542C8.55765 8.12542 8.89322 7.98774 9.09136 7.71237C9.29589 7.4306 9.39816 7.06238 9.39816 6.60771Z" fill="url(#paint2_linear_2691_48722)"/>
</g>
<defs>
<filter id="filter0_i_2691_48722" x="0" y="0" width="15.1579" height="15.1562" filterUnits="userSpaceOnUse" color-interpolation-filters="sRGB">
<feFlood flood-opacity="0" result="BackgroundImageFix"/>
<feBlend mode="normal" in="SourceGraphic" in2="BackgroundImageFix" result="shape"/>
<feColorMatrix in="SourceAlpha" type="matrix" values="0 0 0 0 0 0 0 0 0 0 0 0 0 0 0 0 0 0 127 0" result="hardAlpha"/>
<feOffset/>
<feGaussianBlur stdDeviation="0.842105"/>
<feComposite in2="hardAlpha" operator="arithmetic" k2="-1" k3="1"/>
<feColorMatrix type="matrix" values="0 0 0 0 1 0 0 0 0 0.975688 0 0 0 0 0.584261 0 0 0 1 0"/>
<feBlend mode="normal" in2="shape" result="effect1_innerShadow_2691_48722"/>
</filter>
<filter id="filter1_i_2691_48722" x="5.72614" y="4.04297" width="5.05261" height="7.57812" filterUnits="userSpaceOnUse" color-interpolation-filters="sRGB">
<feFlood flood-opacity="0" result="BackgroundImageFix"/>
<feBlend mode="normal" in="SourceGraphic" in2="BackgroundImageFix" result="shape"/>
<feColorMatrix in="SourceAlpha" type="matrix" values="0 0 0 0 0 0 0 0 0 0 0 0 0 0 0 0 0 0 127 0" result="hardAlpha"/>
<feOffset/>
<feGaussianBlur stdDeviation="0.421053"/>
<feComposite in2="hardAlpha" operator="arithmetic" k2="-1" k3="1"/>
<feColorMatrix type="matrix" values="0 0 0 0 0.716504 0 0 0 0 0.405187 0 0 0 0 0.0968633 0 0 0 0.2 0"/>
<feBlend mode="normal" in2="shape" result="effect1_innerShadow_2691_48722"/>
</filter>
<linearGradient id="paint0_linear_2691_48722" x1="13.4737" y1="3.36842" x2="7.57895" y2="16" gradientUnits="userSpaceOnUse">
<stop offset="0.0364583" stop-color="#D28824"/>
<stop offset="0.356313" stop-color="#EFB82A"/>
<stop offset="1" stop-color="#D28824"/>
</linearGradient>
<linearGradient id="paint1_linear_2691_48722" x1="5.05263" y1="0.421053" x2="10.9474" y2="14.3158" gradientUnits="userSpaceOnUse">
<stop stop-color="#FFCB63"/>
<stop offset="1" stop-color="#FFCB63"/>
</linearGradient>
<linearGradient id="paint2_linear_2691_48722" x1="8.25245" y1="4.04297" x2="8.25245" y2="11.6219" gradientUnits="userSpaceOnUse">
<stop stop-color="#DA7313"/>
<stop offset="1" stop-color="#C34E0D"/>
</linearGradient>
</defs>
</svg>
