<svg width="48" height="48" viewBox="0 0 48 48" fill="none" xmlns="http://www.w3.org/2000/svg">
<path d="M7.99609 14.6133H39.9961V35.3911C39.9961 37.9991 37.8819 40.1133 35.2739 40.1133H12.7183C10.1103 40.1133 7.99609 37.9991 7.99609 35.3911V14.6133Z" fill="url(#paint0_linear_2290_92158)"/>
<path d="M7.99609 14.6128C7.99609 12.0048 10.1103 9.89062 12.7183 9.89062H35.2739C37.8819 9.89062 39.9961 12.0048 39.9961 14.6128V18.3906H7.99609V14.6128Z" fill="#FF7373"/>
<rect x="12.6641" y="10.832" width="4.72222" height="4.72222" rx="2.36111" fill="white"/>
<rect x="30.6094" y="10.832" width="4.72222" height="4.72222" rx="2.36111" fill="white"/>
<rect x="13.6055" y="8" width="2.83333" height="6.13889" rx="1.41667" fill="url(#paint1_linear_2290_92158)"/>
<rect x="31.5508" y="8" width="2.83333" height="6.13889" rx="1.41667" fill="url(#paint2_linear_2290_92158)"/>
<path d="M28.9961 30.75C28.9961 34.1864 26.7578 36 23.9964 36C21.2349 36 18.9961 34.1864 18.9961 30.75C18.9961 27.3136 23.9964 22 23.9964 22C23.9964 22 28.9961 27.3136 28.9961 30.75Z" fill="url(#paint3_linear_2290_92158)"/>
<defs>
<linearGradient id="paint0_linear_2290_92158" x1="23.9961" y1="14.6133" x2="23.9961" y2="40.1133" gradientUnits="userSpaceOnUse">
<stop stop-color="#FBFBFB"/>
<stop offset="1" stop-color="#EDEDED"/>
</linearGradient>
<linearGradient id="paint1_linear_2290_92158" x1="15.0221" y1="8" x2="15.0221" y2="14.1389" gradientUnits="userSpaceOnUse">
<stop stop-color="#7B7B7B"/>
<stop offset="1" stop-color="#505050"/>
</linearGradient>
<linearGradient id="paint2_linear_2290_92158" x1="32.9674" y1="8" x2="32.9674" y2="14.1389" gradientUnits="userSpaceOnUse">
<stop stop-color="#7B7B7B"/>
<stop offset="1" stop-color="#505050"/>
</linearGradient>
<linearGradient id="paint3_linear_2290_92158" x1="23.9961" y1="22" x2="23.9961" y2="36" gradientUnits="userSpaceOnUse">
<stop stop-color="#FF8787"/>
<stop offset="1" stop-color="#F35050"/>
</linearGradient>
</defs>
</svg>
