<svg width="56" height="57" viewBox="0 0 56 57" fill="none" xmlns="http://www.w3.org/2000/svg">
<rect x="9.85156" y="21.2734" width="30.3333" height="25.6667" rx="1.16667" fill="white" stroke="#3F86F1" stroke-width="2" stroke-linecap="round"/>
<rect x="3.625" y="28" width="42" height="25.6667" rx="1.16667" fill="white" stroke="#3F86F1" stroke-width="2" stroke-linecap="round"/>
<rect x="12.9727" y="37.0977" width="23.3333" height="7" rx="1.16667" fill="white" stroke="#3F86F1" stroke-width="2" stroke-linecap="round"/>
<circle cx="14.5182" cy="40.8346" r="4.66667" fill="white" stroke="#3F86F1" stroke-width="2" stroke-linecap="round"/>
<circle cx="35.2174" cy="40.8346" r="4.66667" fill="white" stroke="#3F86F1" stroke-width="2" stroke-linecap="round"/>
<path d="M22.547 13.7313C22.9736 14.9473 22.3336 16.2789 21.1176 16.7054C19.9016 17.132 18.57 16.492 18.1435 15.276C17.7169 14.06 18.3569 12.7284 19.5729 12.3019C19.9688 12.163 20.3769 12.1372 20.7621 12.2074C21.56 12.353 22.2594 12.9112 22.547 13.7313Z" fill="#3F86F1"/>
<path d="M27.8393 11.8748C28.2659 13.0908 27.6259 14.4224 26.4099 14.849C25.1939 15.2755 23.8623 14.6356 23.4357 13.4195C23.0092 12.2035 23.6492 10.872 24.8652 10.4454C25.3966 10.259 25.9502 10.2762 26.4406 10.4563C27.0723 10.6883 27.5992 11.1903 27.8393 11.8748Z" fill="#3F86F1"/>
<path d="M26.7418 12.2599L24.958 7.17453C24.7447 6.56652 24.0789 6.24653 23.4709 6.45981L20.3704 7.54741C19.7624 7.76069 19.4424 8.42648 19.6557 9.03449L21.3644 13.9054" stroke="#3F86F1" stroke-width="2"/>
<path d="M46.4988 10.2489C46.6766 11.5252 45.7862 12.7041 44.5098 12.882C43.2335 13.0598 42.0546 12.1694 41.8768 10.893C41.6989 9.6167 42.5894 8.43783 43.8657 8.25996C44.2812 8.20205 44.6864 8.25737 45.0501 8.40237C45.8035 8.70277 46.3788 9.38807 46.4988 10.2489Z" fill="#3F86F1"/>
<path d="M52.0535 9.47473C52.2314 10.7511 51.3409 11.9299 50.0646 12.1078C48.7883 12.2857 47.6094 11.3952 47.4315 10.1189C47.2537 8.84255 48.1441 7.66369 49.4205 7.48581C49.9783 7.40807 50.5175 7.53439 50.9626 7.80781C51.536 8.15999 51.9534 8.75622 52.0535 9.47473Z" fill="#3F86F1"/>
<path d="M50.9037 9.63151L50.1599 4.29396C50.0709 3.65579 49.4815 3.21056 48.8433 3.2995L45.5891 3.75303C44.9509 3.84196 44.5057 4.4314 44.5946 5.06956L45.3071 10.182" stroke="#3F86F1" stroke-width="2"/>
<path d="M36.4259 11.4399C36.6019 12.7165 35.7097 13.894 34.4331 14.07C33.1565 14.2459 31.9789 13.3537 31.803 12.0771C31.627 10.8005 32.5193 9.62298 33.7959 9.44702C34.3318 9.37314 34.8504 9.48757 35.2846 9.73968C35.8847 10.088 36.3239 10.6993 36.4259 11.4399Z" fill="#3F86F1"/>
<path d="M34.5666 6.67722L33.8951 5.93619L33.5039 6.29072L33.576 6.81376L34.5666 6.67722ZM37.3071 5.54339C37.7164 5.17254 37.7476 4.54015 37.3767 4.13089C37.0059 3.72162 36.3735 3.69048 35.9642 4.06132L37.3071 5.54339ZM36.2547 11.6005L35.5572 6.54067L33.576 6.81376L34.2734 11.8736L36.2547 11.6005ZM35.2381 7.41825L37.3071 5.54339L35.9642 4.06132L33.8951 5.93619L35.2381 7.41825Z" fill="#3F86F1"/>
</svg>
