<svg width="101" height="100" viewBox="0 0 101 100" fill="none" xmlns="http://www.w3.org/2000/svg">
<rect width="100" height="100" transform="translate(0.078125)" fill="white"/>
<path d="M46.0781 17C46.0781 14.7909 47.869 13 50.0781 13C52.2873 13 54.0781 14.7909 54.0781 17V87H46.0781V17Z" fill="url(#paint0_linear_2361_96729)"/>
<path d="M38.0781 23C38.0781 20.7909 39.869 19 42.0781 19H76.2046C77.3917 19 78.5175 19.5273 79.2775 20.4393L85.9442 28.4393C87.1803 29.9226 87.1803 32.0774 85.9442 33.5607L79.2775 41.5607C78.5175 42.4727 77.3917 43 76.2046 43H42.0781C39.869 43 38.0781 41.2091 38.0781 39V23Z" fill="url(#paint1_linear_2361_96729)"/>
<path d="M20.8787 48.4393C21.6387 47.5273 22.7645 47 23.9516 47H58.0781C60.2873 47 62.0781 48.7909 62.0781 51V67C62.0781 69.2091 60.2873 71 58.0781 71H23.9516C22.7645 71 21.6387 70.4727 20.8787 69.5607L14.2121 61.5607C12.9759 60.0774 12.9759 57.9226 14.2121 56.4393L20.8787 48.4393Z" fill="url(#paint2_linear_2361_96729)"/>
<path d="M68.0781 31C68.0781 34.866 64.9441 38 61.0781 38C57.2121 38 54.0781 34.866 54.0781 31C54.0781 27.134 57.2121 24 61.0781 24C64.9441 24 68.0781 27.134 68.0781 31ZM57.5781 31C57.5781 32.933 59.1451 34.5 61.0781 34.5C63.0111 34.5 64.5781 32.933 64.5781 31C64.5781 29.067 63.0111 27.5 61.0781 27.5C59.1451 27.5 57.5781 29.067 57.5781 31Z" fill="white"/>
<path d="M33.0781 58.725L37.3531 63L46.8531 53.5" stroke="white" stroke-width="3.5" stroke-linecap="round" stroke-linejoin="round"/>
<defs>
<linearGradient id="paint0_linear_2361_96729" x1="50.0781" y1="13" x2="50.0781" y2="87" gradientUnits="userSpaceOnUse">
<stop stop-color="#E9E8EF"/>
<stop offset="1" stop-color="#D6D5DA"/>
</linearGradient>
<linearGradient id="paint1_linear_2361_96729" x1="63.0781" y1="19" x2="63.0781" y2="43" gradientUnits="userSpaceOnUse">
<stop stop-color="#FF824D"/>
<stop offset="1" stop-color="#F46436"/>
</linearGradient>
<linearGradient id="paint2_linear_2361_96729" x1="37.0781" y1="47" x2="37.0781" y2="71" gradientUnits="userSpaceOnUse">
<stop stop-color="#FF824D"/>
<stop offset="1" stop-color="#F46436"/>
</linearGradient>
</defs>
</svg>
