<svg width="100" height="100" viewBox="0 0 100 100" fill="none" xmlns="http://www.w3.org/2000/svg">
<g clip-path="url(#clip0_2351_80292)">
<circle cx="50" cy="50" r="50" fill="#DCB9F8"/>
<ellipse opacity="0.5" cx="22" cy="64" rx="9" ry="6" fill="#C18CEC"/>
<ellipse opacity="0.5" cx="78" cy="64" rx="9" ry="6" fill="#C18CEC"/>
<path d="M63.1593 64.6785C59.8684 71.5463 51.6331 74.446 44.7653 71.1551C41.8287 69.748 39.6176 67.4368 38.3057 64.7151" stroke="#26282C" stroke-width="4" stroke-linecap="round"/>
<circle cx="30" cy="46" r="12" fill="#26282C"/>
<ellipse cx="35.5351" cy="51.5355" rx="2" ry="3" transform="rotate(45 35.5351 51.5355)" fill="white"/>
<circle cx="28" cy="44" r="7" fill="white"/>
<circle cx="70" cy="46" r="12" fill="#26282C"/>
<ellipse cx="75.5351" cy="51.5355" rx="2" ry="3" transform="rotate(45 75.5351 51.5355)" fill="white"/>
<circle cx="68" cy="44" r="7" fill="white"/>
<path d="M28 25L39.2763 29.1042" stroke="#26282C" stroke-width="4" stroke-linecap="round"/>
<path d="M62 29.1016L73.2763 24.9973" stroke="#26282C" stroke-width="4" stroke-linecap="round"/>
</g>
<defs>
<clipPath id="clip0_2351_80292">
<rect width="100" height="100" fill="white"/>
</clipPath>
</defs>
</svg>
