<svg width="32" height="33" viewBox="0 0 32 33" fill="none" xmlns="http://www.w3.org/2000/svg">
<circle cx="16" cy="16.2031" r="16" fill="#3F86F1"/>
<path d="M11.0444 10.3837C12.2664 10.0142 13.4999 8.33814 13.7863 7.56641H18.5755C19.3374 9.14192 20.4583 10.3434 21.7371 10.8053C22.7278 11.1631 24.8644 17.6344 25.9018 21.1297C25.9575 21.3171 25.8576 21.5151 25.6742 21.5827L23.3654 22.4338C23.1737 22.5045 22.9609 22.4073 22.8888 22.2161L21.0266 17.2768L19.8899 20.7877L20.894 24.3651C20.9606 24.6023 20.7824 24.8375 20.536 24.8375H18.5755H14.0639H11.5476C11.2975 24.8375 11.1187 24.5955 11.1921 24.3564L12.2878 20.7877L11.6128 18.6562C11.4938 18.2098 11.3377 17.6162 11.1859 16.9395L9.25369 22.4304C9.18221 22.6335 8.95369 22.7337 8.75589 22.6486L6.32238 21.6014C6.14139 21.5235 6.05243 21.3183 6.11958 21.1331C7.44159 17.4864 9.85909 10.742 11.0444 10.3837Z" fill="white"/>
<path d="M13.7863 7.56641C13.4999 8.33814 12.2664 10.0142 11.0444 10.3837M13.7863 7.56641C14.5183 7.56641 16.5009 7.56641 18.5755 7.56641M13.7863 7.56641C13.7755 8.65867 14.3142 11.3012 16.5555 13.1333M11.0444 10.3837C9.85909 10.742 7.44159 17.4864 6.11958 21.1331C6.05243 21.3183 6.14139 21.5235 6.32238 21.6014L8.75589 22.6486C8.95369 22.7337 9.18221 22.6335 9.25369 22.4304L11.1859 16.9395L11.6128 18.6562M11.0444 10.3837C10.0782 12.7709 11.1391 16.88 11.6128 18.6562M11.6128 18.6562L12.2878 20.7877M11.6128 18.6562C13.8223 17.2997 15.4343 15.2099 16.5555 13.1333M12.2878 20.7877L11.1921 24.3564C11.1187 24.5955 11.2975 24.8375 11.5476 24.8375H14.0639M12.2878 20.7877H16.0888M19.8899 20.7877L20.894 24.3651C20.9606 24.6023 20.7824 24.8375 20.536 24.8375H18.5755M19.8899 20.7877L21.0266 17.2768M19.8899 20.7877H16.0888M21.0266 17.2768L22.8888 22.2161C22.9609 22.4073 23.1737 22.5045 23.3654 22.4338L25.6742 21.5827C25.8576 21.5151 25.9575 21.3171 25.9018 21.1297C24.8644 17.6344 22.7278 11.1631 21.7371 10.8053M21.0266 17.2768C21.5121 15.2401 22.0497 11.9421 21.7371 10.8053M21.7371 10.8053C20.4583 10.3434 19.3374 9.14192 18.5755 7.56641M18.5755 7.56641C18.3469 8.86058 17.7127 10.9899 16.5555 13.1333M16.0888 20.7877L18.5755 24.8375M16.0888 20.7877L14.0639 24.8375M18.5755 24.8375H14.0639" stroke="#3F86F1" stroke-width="1.4" stroke-linecap="round"/>
</svg>
