<svg width="56" height="56" viewBox="0 0 56 56" fill="none" xmlns="http://www.w3.org/2000/svg">
<circle cx="15.0039" cy="42.0703" r="5" stroke="#3F86F1" stroke-width="1.6"/>
<path d="M19.0234 30.6406C25.1315 32.0502 34.4688 33.88 34.4688 33.88M33.2789 16.861C34.383 23.63 35.7892 32.6419 35.7892 32.6419" stroke="#3F86F1" stroke-width="2"/>
<path d="M29.0041 9.24609C34.6968 14.9388 35.1717 23.3208 30.508 27.9844C25.8444 32.648 17.4624 32.1732 11.7697 26.4805C6.07705 20.7878 5.60217 12.4058 10.2658 7.74217C14.9294 3.07855 23.3115 3.55342 29.0041 9.24609Z" fill="white" stroke="#3F86F1" stroke-width="2"/>
<rect x="34.133" y="34.4062" width="3.10448" height="6.50746" transform="rotate(-45 34.133 34.4062)" fill="white" stroke="#3F86F1" stroke-width="2"/>
<path d="M38.3439 39.8203L41.7422 36.422L48.8555 43.5353C49.7939 44.4737 49.7939 45.9952 48.8555 46.9336C47.9171 47.872 46.3956 47.872 45.4572 46.9336L38.3439 39.8203Z" fill="white" stroke="#3F86F1" stroke-width="2"/>
<path d="M7.71094 20.9141L23.1396 5.48536" stroke="#3F86F1" stroke-width="2"/>
<path d="M17.3359 30.5391L32.7646 15.1104" stroke="#3F86F1" stroke-width="2"/>
<path d="M11.9648 26.2852L28.508 9.74202" stroke="#3F86F1" stroke-width="2"/>
<path d="M27.3047 30.1953L8.05449 10.9451" stroke="#3F86F1" stroke-width="2"/>
<path d="M32.7188 24.7812L13.4686 5.53106" stroke="#3F86F1" stroke-width="2"/>
</svg>
