<svg width="41" height="41" viewBox="0 0 41 41" fill="none" xmlns="http://www.w3.org/2000/svg">
<rect x="0.9375" y="0.710938" width="40" height="40" rx="8" fill="#F8F8F8"/>
<path d="M20.5092 8.0403C19.8909 10.5748 21.8884 13.1514 22.8279 13.9806C23.7673 14.8098 23.2531 14.3106 26.4991 17.1488C29.7452 19.9871 30.0415 24.0077 29.7839 25.6632C29.5907 27.5113 28.3154 31.5243 24.7602 32.7916C21.2049 34.0589 17.9975 33.7157 16.8382 33.3856C15.55 33.1876 12.5486 31.9996 10.8483 28.8314C9.14793 25.6632 10.011 22.0991 10.655 20.713C11.1059 19.921 12.1622 18.5745 12.7805 19.5249C13.3988 20.4754 14.1974 20.053 14.5194 19.7229C14.8415 19.3269 15.6015 17.7428 16.0652 14.5747C16.5289 11.4065 17.8042 9.03037 18.3838 8.23831C19.3499 7.11625 21.1275 5.50577 20.5092 8.0403Z" fill="url(#paint0_linear_2199_78188)"/>
<path d="M19.5098 18.8012C19.8382 20.2773 18.7773 21.7779 18.2784 22.2608C17.7795 22.7438 18.0526 22.453 16.3286 24.106C14.6046 25.759 14.4473 28.1006 14.5841 29.0648C14.6867 30.1411 15.6084 32.3471 17.4966 33.0852C19.3848 33.8232 20.8438 33.7545 21.4595 33.5623C22.1436 33.447 23.7377 32.755 24.6407 30.9099C25.5437 29.0648 25.0854 26.989 24.7433 26.1818C24.5039 25.7205 23.9429 24.9363 23.6145 25.4898C23.2861 26.0434 22.862 25.7974 22.691 25.6052C22.5199 25.3745 22.1163 24.452 21.87 22.6068C21.6237 20.7617 20.9464 19.3778 20.6386 18.9165C20.1255 18.2631 19.1814 17.3251 19.5098 18.8012Z" fill="url(#paint1_linear_2199_78188)"/>
<rect x="18.8867" y="26.7305" width="15" height="8" rx="4" fill="url(#paint2_linear_2199_78188)"/>
<path d="M22.1846 32.2305V28.6953H22.8096V30.6436H22.8535L23.8057 29.5791H24.5332L23.5054 30.7217L24.5967 32.2305H23.8545L23.0391 31.0928L22.8096 31.3369V32.2305H22.1846ZM25.7492 32.2842C24.9582 32.2842 24.4797 31.7178 24.4797 30.917C24.4797 30.104 24.9729 29.5449 25.7492 29.5449C26.3913 29.5449 26.843 29.9209 26.8869 30.4922H26.2912C26.2424 30.2383 26.0568 30.0454 25.7541 30.043C25.3684 30.0454 25.1096 30.3677 25.1096 30.9023C25.1096 31.4492 25.3635 31.7739 25.7541 31.7764C26.03 31.7739 26.2351 31.6128 26.2912 31.3271H26.8869C26.8405 31.8862 26.4157 32.2842 25.7492 32.2842ZM27.0336 31.4834C27.0336 30.8877 27.5292 30.7144 28.0199 30.6826C28.2055 30.668 28.5839 30.6509 28.7011 30.646L28.6986 30.4336C28.6986 30.1699 28.5302 30.0186 28.2201 30.0186C27.9418 30.0186 27.7709 30.1455 27.7221 30.3359H27.1215C27.1654 29.8843 27.5707 29.5449 28.2348 29.5449C28.7377 29.5449 29.3187 29.7524 29.3187 30.458V32.2305H28.723V31.8643H28.7035C28.5863 32.0889 28.3397 32.2842 27.9223 32.2842C27.4169 32.2842 27.0336 32.0083 27.0336 31.4834ZM27.6342 31.4785C27.6342 31.708 27.8222 31.8252 28.0834 31.8252C28.4618 31.8252 28.7035 31.5762 28.7035 31.2783L28.7011 31.061C28.5888 31.0659 28.2421 31.0879 28.1176 31.0977C27.8222 31.1221 27.6342 31.2466 27.6342 31.4785ZM30.3297 28.6953V32.2305H29.7047V28.6953H30.3297Z" fill="#F9E2E5"/>
<defs>
<linearGradient id="paint0_linear_2199_78188" x1="19.8555" y1="6.69141" x2="19.8555" y2="33.6914" gradientUnits="userSpaceOnUse">
<stop stop-color="#FF7C84"/>
<stop offset="1" stop-color="#FA4954"/>
</linearGradient>
<linearGradient id="paint1_linear_2199_78188" x1="19.857" y1="18.0156" x2="19.857" y2="33.6904" gradientUnits="userSpaceOnUse">
<stop stop-color="#FFE55F"/>
<stop offset="1" stop-color="#FFC224"/>
</linearGradient>
<linearGradient id="paint2_linear_2199_78188" x1="26.3867" y1="26.7305" x2="26.3867" y2="34.7305" gradientUnits="userSpaceOnUse">
<stop stop-color="#A95963"/>
<stop offset="1" stop-color="#7E323B"/>
</linearGradient>
</defs>
</svg>
