<svg width="23" height="24" viewBox="0 0 23 24" fill="none" xmlns="http://www.w3.org/2000/svg">
<rect x="0.153564" y="0.921265" width="22.1577" height="22.1586" fill="#FEFEFF"/>
<rect x="7.65667" y="2.58105" width="12.5243" height="17.2922" rx="5.07769" fill="url(#paint0_linear_1_36780)" stroke="#65727E" stroke-width="0.982779"/>
<mask id="mask0_1_36780" style="mask-type:alpha" maskUnits="userSpaceOnUse" x="7" y="2" width="14" height="19">
<rect x="7.65667" y="2.58105" width="12.5243" height="17.2922" rx="5.07769" fill="url(#paint1_linear_1_36780)" stroke="#65727E" stroke-width="0.982779"/>
</mask>
<g mask="url(#mask0_1_36780)">
<g opacity="0.7">
<path d="M16.6843 17.4042C16.6843 20.1498 14.4646 20.0763 11.7264 20.0763C8.98827 20.0763 6.76855 20.1498 6.76855 17.4042C6.76855 14.6586 8.98827 12.4328 11.7264 12.4328C14.4646 12.4328 16.6843 14.6586 16.6843 17.4042Z" fill="#FFBA52"/>
<ellipse cx="11.7278" cy="10.3706" rx="3.51311" ry="3.51326" fill="url(#paint2_linear_1_36780)"/>
</g>
</g>
<rect x="7.65667" y="2.58105" width="12.5243" height="17.2922" rx="5.07769" stroke="#FDD368" stroke-width="0.982779"/>
<path d="M7.16528 8.84346C7.16528 5.11344 10.1889 2.08966 13.9188 2.08966C17.6487 2.08966 20.6723 5.11344 20.6723 8.84346V13.6108C20.6723 17.3409 17.6487 20.3646 13.9188 20.3646C10.1889 20.3646 7.16528 17.3409 7.16528 13.6108V8.84346Z" fill="url(#paint3_linear_1_36780)"/>
<path d="M11.9176 18.9909C11.9176 21.7366 9.69787 21.6631 6.95971 21.6631C4.22155 21.6631 2.00183 21.7366 2.00183 18.9909C2.00183 16.2453 4.22155 14.0195 6.95971 14.0195C9.69787 14.0195 11.9176 16.2453 11.9176 18.9909Z" fill="#FFBA52"/>
<ellipse cx="6.56438" cy="11.9573" rx="3.51311" ry="3.51326" fill="url(#paint4_linear_1_36780)"/>
<defs>
<linearGradient id="paint0_linear_1_36780" x1="10.3434" y1="2.88423" x2="17.892" y2="19.1726" gradientUnits="userSpaceOnUse">
<stop stop-color="white"/>
<stop offset="1" stop-color="#D7EBF9"/>
</linearGradient>
<linearGradient id="paint1_linear_1_36780" x1="10.3434" y1="2.88423" x2="17.892" y2="19.1726" gradientUnits="userSpaceOnUse">
<stop stop-color="#F3FAFF"/>
<stop offset="1" stop-color="#B8DDF8"/>
</linearGradient>
<linearGradient id="paint2_linear_1_36780" x1="11.7278" y1="6.85736" x2="11.7278" y2="13.8839" gradientUnits="userSpaceOnUse">
<stop stop-color="#FFEFE0"/>
<stop offset="1" stop-color="#FAD8B8"/>
</linearGradient>
<linearGradient id="paint3_linear_1_36780" x1="14.7133" y1="11.2272" x2="7.95971" y2="14.4052" gradientUnits="userSpaceOnUse">
<stop stop-color="white" stop-opacity="0"/>
<stop offset="1" stop-color="#A26824" stop-opacity="0.16"/>
</linearGradient>
<linearGradient id="paint4_linear_1_36780" x1="6.56438" y1="8.44409" x2="6.56438" y2="15.4706" gradientUnits="userSpaceOnUse">
<stop stop-color="#FFEFE0"/>
<stop offset="1" stop-color="#FAD8B8"/>
</linearGradient>
</defs>
</svg>
