<svg width="100" height="100" viewBox="0 0 100 100" fill="none" xmlns="http://www.w3.org/2000/svg">
<g id="emotion icon/100/&#236;&#138;&#172;&#237;&#148;&#148;" clip-path="url(#clip0_2351_80252)">
<circle id="Ellipse 3140" cx="50" cy="50" r="50" fill="url(#paint0_linear_2351_80252)"/>
<path id="Rectangle 17267" d="M35 69C35 60.7157 41.7157 54 50 54V54C58.2843 54 65 60.7157 65 69V71.1429C65 71.6162 64.6162 72 64.1429 72H35.8571C35.3838 72 35 71.6162 35 71.1429V69Z" stroke="#26282C" stroke-width="4"/>
<path id="Line 95" d="M21.1719 46.4297L37.9916 36.7188" stroke="#26282C" stroke-width="4" stroke-linecap="round"/>
<path id="Line 92" d="M62.3438 36.7188L79.1635 46.4296" stroke="#26282C" stroke-width="4" stroke-linecap="round"/>
<path id="Ellipse 3154" d="M80 61.5C80 63.9853 77.9853 66 75.5 66C73.0147 66 71 63.9853 71 61.5C71 59.0147 75.5 50 75.5 50C75.5 50 80 59.0147 80 61.5Z" fill="white"/>
<path id="Ellipse 3155" d="M29 61.5C29 63.9853 26.9853 66 24.5 66C22.0147 66 20 63.9853 20 61.5C20 59.0147 24.5 50 24.5 50C24.5 50 29 59.0147 29 61.5Z" fill="white"/>
</g>
<defs>
<linearGradient id="paint0_linear_2351_80252" x1="50" y1="0" x2="50" y2="100" gradientUnits="userSpaceOnUse">
<stop stop-color="#5A7DD7"/>
<stop offset="1" stop-color="#9CB4F2"/>
</linearGradient>
<clipPath id="clip0_2351_80252">
<rect width="100" height="100" fill="white"/>
</clipPath>
</defs>
</svg>
