<svg width="28" height="35" viewBox="0 0 28 35" fill="none" xmlns="http://www.w3.org/2000/svg">
<g id="Group 1261167596">
<path id="Ellipse 3189" d="M28 14C28 23.3333 14 35 14 35C14 35 0 23.3333 0 14C0 6.26801 6.26801 0 14 0C21.732 0 28 6.26801 28 14Z" fill="#3F86F1"/>
<path id="Union" fill-rule="evenodd" clip-rule="evenodd" d="M12 8C11.7239 8 11.5 8.22386 11.5 8.5V12H8C7.72386 12 7.5 12.2239 7.5 12.5V16.5C7.5 16.7761 7.72386 17 8 17H11.5V20.5C11.5 20.7761 11.7239 21 12 21H16C16.2761 21 16.5 20.7761 16.5 20.5V17H20C20.2761 17 20.5 16.7761 20.5 16.5V12.5C20.5 12.2239 20.2761 12 20 12H16.5V8.5C16.5 8.22386 16.2761 8 16 8H12Z" fill="white"/>
</g>
</svg>
