<svg width="32" height="32" viewBox="0 0 32 32" fill="none" xmlns="http://www.w3.org/2000/svg">
<rect width="32" height="32" rx="16" fill="#FFD633"/>
<path d="M19.9922 11.3579H20.1255V11.2246V9.2897C20.1255 7.02965 18.2415 5.1987 15.9311 5.1987C13.6206 5.1987 11.7366 7.02965 11.7366 9.2897V11.2246V11.3579H11.8699H12.8891H13.0224V11.2246V9.2897C13.0224 7.7318 14.3252 6.45866 15.9311 6.45866C17.5369 6.45866 18.8397 7.7318 18.8397 9.2897V11.2246V11.3579H18.973H19.9922Z" fill="#5F504D" stroke="#5F504D" stroke-width="0.266667"/>
<path d="M16.3137 10.6758L9.13301 11.8915V20.5312C9.13301 21.5348 9.84177 23.2058 11.3886 24.0543C12.9355 24.8975 16.3137 26.0305 16.3137 26.0305L17.5191 25.2752L16.3137 10.6758Z" fill="white"/>
<path d="M16.344 26.3143L16.2301 26.2729C16.0905 26.2264 12.8105 25.1244 11.2585 24.2812C9.70646 23.4327 8.86836 21.7203 8.86836 20.5356V11.6735L16.5406 10.375L17.7822 25.409L16.344 26.3143ZM9.39088 12.1081V20.5304C9.39088 21.3582 9.96513 22.9826 11.512 23.8259C12.8622 24.5605 15.6766 25.5383 16.2819 25.7453L17.2493 25.14L16.0801 10.9803L9.39088 12.1081Z" fill="#221E1F"/>
<path d="M15.9318 25.8714C22.8021 23.8693 22.7556 21.0446 22.7556 21.0446V11.7945L15.9318 10.6719V25.8714Z" fill="#FEBE0E"/>
<path d="M23.1289 11.4917V14.1372H22.3765V12.2166V12.1035L22.2648 12.0851L15.948 11.0452L15.9263 11.0417L15.9047 11.0452L9.59826 12.0851L9.48662 12.1035V12.2166V21.0477C9.48662 21.1619 9.65092 23.6398 15.899 25.4799L15.9369 25.491L15.9748 25.4798C22.1698 23.6348 22.3868 21.1523 22.3868 21.0425V17.4768H23.1393V21.0425V21.0425C23.1393 21.0788 23.1393 21.8493 22.2617 22.8691C21.3816 23.8917 19.6112 25.1742 16.0498 26.212C16.0497 26.212 16.0496 26.2121 16.0494 26.2121L15.9186 26.2495L15.8237 26.2224C15.8237 26.2223 15.8236 26.2223 15.8235 26.2223C12.2283 25.1818 10.4584 23.8955 9.58707 22.8697C8.73068 21.8615 8.73386 21.095 8.73411 21.0343C8.73412 21.0335 8.73412 21.0327 8.73412 21.0322V11.4917L15.9301 10.3034L15.9897 10.3145L15.9897 10.3146L15.9926 10.315L23.1289 11.4917Z" fill="#5F504D" stroke="#5F504D" stroke-width="0.266667"/>
<path d="M12.0574 20.7811H12.1907V20.6477V17.6328L14.7061 20.7317L14.7462 20.7811H14.8097H15.9375H16.2179L16.0409 20.5635L13.4633 17.397C14.2227 16.5307 14.9791 15.5714 15.6574 14.6369L15.811 14.4253H15.5495H14.4786H14.4092L14.3694 14.4821C13.735 15.3876 12.9397 16.2945 12.1907 17.1379V14.5586V14.4253H12.0574H11.1262H10.9928V14.5586V20.6477V20.7811H11.1262H12.0574Z" fill="#5F504D" stroke="#5F504D" stroke-width="0.266667"/>
<path d="M16.7087 20.5317V20.6446L16.8201 20.6632C17.4171 20.7627 18.2108 20.8202 18.6165 20.8202C19.4978 20.8202 20.1435 20.6239 20.5708 20.2674C21.0019 19.9077 21.1917 19.4009 21.1917 18.8245C21.1917 18.1007 20.8101 17.5355 20.2561 17.2775C20.6322 17.0143 20.8968 16.5578 20.8968 16.0256C20.8968 15.4666 20.65 15.0261 20.2402 14.7297C19.8347 14.4364 19.277 14.2885 18.6527 14.2885C18.0653 14.2885 17.3958 14.4655 16.7934 14.7012L16.7087 14.7344V14.8254V20.5317ZM19.9627 18.8038V18.9355C19.9364 19.2594 19.8115 19.473 19.6312 19.6119C19.4214 19.7736 19.1163 19.85 18.7458 19.85C18.4614 19.85 18.1737 19.8344 17.9065 19.8036V17.861H18.7251C19.048 17.861 19.3623 17.9385 19.5916 18.0946C19.8157 18.2472 19.9627 18.4764 19.9627 18.8038ZM19.6627 16.0567C19.6627 16.3191 19.5443 16.5282 19.3506 16.6755C19.1542 16.8248 18.8775 16.9115 18.5699 16.9115H17.9065V15.3676C18.0994 15.3096 18.3797 15.2484 18.6682 15.2484C18.9348 15.2484 19.1869 15.3237 19.369 15.4614C19.5476 15.5964 19.6627 15.7935 19.6627 16.0567Z" fill="#5F504D" stroke="#5F504D" stroke-width="0.266667"/>
</svg>
