<svg width="60" height="60" viewBox="0 0 60 60" fill="none" xmlns="http://www.w3.org/2000/svg">
<path d="M28.1753 10.4943C28.7392 9.43238 30.2608 9.43238 30.8247 10.4943L32.5315 13.7077C32.7483 14.116 33.1412 14.4014 33.5964 14.4815L37.1801 15.1117C38.3643 15.3199 38.8344 16.767 37.9988 17.6315L35.47 20.2477C35.1488 20.5801 34.9987 21.042 35.0632 21.4997L35.5713 25.1026C35.7392 26.2932 34.5082 27.1875 33.4278 26.66L30.1582 25.0634C29.7428 24.8606 29.2572 24.8606 28.8418 25.0634L25.5722 26.66C24.4918 27.1875 23.2608 26.2932 23.4287 25.1026L23.9368 21.4997C24.0013 21.042 23.8512 20.5801 23.53 20.2477L21.0012 17.6315C20.1656 16.767 20.6357 15.3199 21.8199 15.1117L25.4036 14.4815C25.8588 14.4014 26.2517 14.116 26.4685 13.7077L28.1753 10.4943Z" fill="url(#paint0_linear_1758_129079)"/>
<path d="M14.5982 39C12.6192 39 11 40.35 11 42V51H23V39H14.5982Z" fill="#A98050"/>
<path d="M26.898 29C24.7541 29 23 30.65 23 32.6667V51H36V32.6667C36 30.65 34.2654 29 32.102 29H26.898Z" fill="url(#paint1_linear_1758_129079)"/>
<path d="M36 43V51H48V46.2C48 44.44 46.3808 43 44.4018 43H36Z" fill="#9F7647"/>
<defs>
<linearGradient id="paint0_linear_1758_129079" x1="29.4999" y1="10.0625" x2="29.5" y2="29.1538" gradientUnits="userSpaceOnUse">
<stop offset="0.130208" stop-color="#FFE24D"/>
<stop offset="1" stop-color="#FFCB46"/>
</linearGradient>
<linearGradient id="paint1_linear_1758_129079" x1="29.4999" y1="31.0625" x2="29.4999" y2="53.4062" gradientUnits="userSpaceOnUse">
<stop stop-color="#FFDF38"/>
<stop offset="1" stop-color="#FFBF1B"/>
</linearGradient>
</defs>
</svg>
