<svg width="64" height="65" viewBox="0 0 64 65" fill="none" xmlns="http://www.w3.org/2000/svg">
<g id="icon/64/&#236;&#178;&#173;&#236;&#163;&#188; /on">
<g id="Group 1261167585">
<path id="Vector 1501" d="M24.4411 31.6617C22.5788 36.8136 22.7544 40.9951 22.7544 42.1618H40.7461C40.7461 40.9951 40.7461 36.9118 39.0594 31.6617C37.5601 26.9951 36.2482 24.0782 35.6859 18.8282C35.1642 13.9564 35.1274 10.0893 35.1248 5.82863C35.1244 5.27635 34.6768 4.82835 34.1246 4.82835H29.3777C28.8254 4.82835 28.3776 5.27583 28.381 5.8281C28.4056 9.82061 28.5362 14.0949 27.8143 18.8284C27.0319 23.9593 26.128 26.9951 24.4411 31.6617Z" fill="url(#paint0_linear_1482_68789)"/>
<path id="Rectangle 34624710" d="M28.375 5.82813C28.375 5.27584 28.8227 4.82812 29.375 4.82812H34.1219C34.6742 4.82812 35.1219 5.27584 35.1219 5.82812V10.6615H28.375V5.82813Z" fill="url(#paint1_linear_1482_68789)"/>
<rect id="Rectangle 34624711" x="22.75" y="41" width="17.9917" height="14" fill="url(#paint2_linear_1482_68789)"/>
<path id="Rectangle 34624713" d="M22.75 54.9922H40.7417V59.8255C40.7417 60.3778 40.294 60.8255 39.7417 60.8255H23.75C23.1977 60.8255 22.75 60.3778 22.75 59.8255V54.9922Z" fill="url(#paint3_linear_1482_68789)"/>
</g>
</g>
<defs>
<linearGradient id="paint0_linear_1482_68789" x1="31.748" y1="4.82812" x2="31.748" y2="42.1618" gradientUnits="userSpaceOnUse">
<stop stop-color="#1DD05A"/>
<stop offset="1" stop-color="#42DA64"/>
</linearGradient>
<linearGradient id="paint1_linear_1482_68789" x1="31.7484" y1="4.82812" x2="31.7484" y2="10.6615" gradientUnits="userSpaceOnUse">
<stop stop-color="#6CBDF5"/>
<stop offset="1" stop-color="#4B9CD5"/>
</linearGradient>
<linearGradient id="paint2_linear_1482_68789" x1="22.75" y1="47.8281" x2="40.75" y2="47.8281" gradientUnits="userSpaceOnUse">
<stop stop-color="#EFF8FF"/>
<stop offset="1" stop-color="#C0DAED"/>
</linearGradient>
<linearGradient id="paint3_linear_1482_68789" x1="31.7459" y1="54.9922" x2="31.7459" y2="60.8255" gradientUnits="userSpaceOnUse">
<stop stop-color="#37D55B"/>
<stop offset="1" stop-color="#11A039"/>
</linearGradient>
</defs>
</svg>
