<svg width="32" height="33" viewBox="0 0 32 33" fill="none" xmlns="http://www.w3.org/2000/svg">
<circle cx="16" cy="16.2031" r="16" fill="#3F86F1"/>
<path d="M18.2137 7.56641C18.5001 8.33814 19.7336 10.0142 20.9556 10.3837C22.1409 10.742 24.5584 17.4864 25.8804 21.1331C25.9476 21.3183 25.8586 21.5235 25.6776 21.6014L23.2441 22.6486C23.0463 22.7337 22.8178 22.6335 22.7463 22.4304L20.8141 16.9395C20.6623 17.6162 20.5062 18.2098 20.3872 18.6562L19.7122 20.7877L20.8079 24.3564C20.8813 24.5955 20.7025 24.8375 20.4524 24.8375H11.464C11.2176 24.8375 11.0394 24.6023 11.106 24.3651L12.1101 20.7877L10.9734 17.2768L9.11122 22.2161C9.03914 22.4073 8.82632 22.5045 8.63462 22.4338L6.32583 21.5827C6.14238 21.5151 6.04252 21.3171 6.09816 21.1297C7.13561 17.6344 9.27218 11.1631 10.2629 10.8053C11.5417 10.3434 12.6626 9.14192 13.4245 7.56641H18.2137Z" fill="white"/>
<path d="M18.2137 7.56641C18.5001 8.33814 19.7336 10.0142 20.9556 10.3837M18.2137 7.56641C17.4817 7.56641 15.4991 7.56641 13.4245 7.56641M18.2137 7.56641C18.2245 8.65867 17.6858 11.3012 15.4445 13.1333M20.9556 10.3837C22.1409 10.742 24.5584 17.4864 25.8804 21.1331C25.9476 21.3183 25.8586 21.5235 25.6776 21.6014L23.2441 22.6486C23.0463 22.7337 22.8178 22.6335 22.7463 22.4304L20.8141 16.9395L20.3872 18.6562M20.9556 10.3837C21.9218 12.7709 20.8609 16.88 20.3872 18.6562M20.3872 18.6562L19.7122 20.7877M20.3872 18.6562C18.1777 17.2997 16.5657 15.2099 15.4445 13.1333M19.7122 20.7877L20.8079 24.3564C20.8813 24.5955 20.7025 24.8375 20.4524 24.8375H11.464C11.2176 24.8375 11.0394 24.6023 11.106 24.3651L12.1101 20.7877M19.7122 20.7877H15.9112M12.1101 20.7877L10.9734 17.2768M12.1101 20.7877H15.9112M10.9734 17.2768L9.11122 22.2161C9.03914 22.4073 8.82632 22.5045 8.63462 22.4338L6.32583 21.5827C6.14238 21.5151 6.04252 21.3171 6.09816 21.1297C7.13561 17.6344 9.27218 11.1631 10.2629 10.8053M10.9734 17.2768C10.4879 15.2401 9.95027 11.9421 10.2629 10.8053M10.2629 10.8053C11.5417 10.3434 12.6626 9.14192 13.4245 7.56641M13.4245 7.56641C13.6531 8.86058 14.2873 10.9899 15.4445 13.1333M15.9112 20.7877L14.9044 22.8059M15.9112 20.7877L17.1186 22.8059" stroke="#3F86F1" stroke-width="1.4" stroke-linecap="round"/>
</svg>
