<svg width="24" height="24" viewBox="0 0 24 24" fill="none" xmlns="http://www.w3.org/2000/svg">
<rect x="4.80859" y="7.07031" width="10.9289" height="13.8275" rx="1.2782" fill="#FEEDBA"/>
<path fill-rule="evenodd" clip-rule="evenodd" d="M11.2852 11.6677C11.2852 9.80174 12.7802 8.28906 14.6245 8.28906H16.8508C18.6951 8.28906 20.1902 9.80174 20.1902 11.6677V14.671C20.1902 16.5369 18.6951 18.0496 16.8508 18.0496H14.6245C12.7802 18.0496 11.2852 16.5369 11.2852 14.671V11.6677ZM14.6245 10.5415C14.0098 10.5415 13.5114 11.0457 13.5114 11.6677V14.671C13.5114 15.293 14.0098 15.7972 14.6245 15.7972H16.8508C17.4655 15.7972 17.9639 15.293 17.9639 14.671V11.6677C17.9639 11.0457 17.4655 10.5415 16.8508 10.5415H14.6245Z" fill="#FEEDBA"/>
<rect x="4.80859" y="6.25781" width="10.9289" height="13.4208" rx="2.55639" fill="url(#paint0_linear_2850_14607)"/>
<rect opacity="0.5" x="6.98145" y="12.5" width="0.744781" height="4.86401" rx="0.372391" fill="#E68F0D"/>
<rect opacity="0.5" x="9.95996" y="12.5" width="0.744781" height="4.86401" rx="0.372391" fill="#E68F0D"/>
<rect opacity="0.5" x="12.9404" y="12.5" width="0.744781" height="4.86401" rx="0.372391" fill="#E68F0D"/>
<path fill-rule="evenodd" clip-rule="evenodd" d="M11.8223 3.57315C12.0409 3.44664 12.2944 3.37427 12.5648 3.37427C13.1541 3.37427 13.6635 3.71812 13.905 4.21705C14.0675 4.15596 14.2434 4.12256 14.4271 4.12256C15.2497 4.12256 15.9166 4.79262 15.9166 5.61918C15.9166 5.68444 15.9125 5.74873 15.9044 5.81179C16.3566 6.0687 16.6618 6.55626 16.6618 7.11545C16.6618 7.94201 15.9949 8.61207 15.1723 8.61207C14.8075 8.61207 14.4734 8.48037 14.2145 8.26172C13.9538 8.69627 13.4796 8.98689 12.9378 8.98689C12.4425 8.98689 12.0036 8.74395 11.7328 8.37019C11.5263 8.9478 10.9764 9.36091 10.3304 9.36091C10.0588 9.36091 9.80419 9.28787 9.58493 9.16027V10.1149C9.58493 10.7319 9.08475 11.2321 8.46776 11.2321C7.85076 11.2321 7.35059 10.7319 7.35059 10.1149V8.98664C6.99896 8.98612 6.6759 8.86319 6.42135 8.65798C6.16622 8.86377 5.8422 8.98689 5.48956 8.98689C4.6669 8.98689 4 8.31683 4 7.49027C4 6.93205 4.30417 6.44522 4.75507 6.18795C4.74849 6.12398 4.74512 6.05905 4.74512 5.99333C4.74512 4.96013 5.57874 4.12256 6.60707 4.12256C6.67228 4.12256 6.73671 4.12593 6.8002 4.1325C7.05635 3.67983 7.54069 3.37451 8.09601 3.37451C8.36663 3.37451 8.62039 3.44702 8.8391 3.57375C9.23468 3.21701 9.75763 3 10.331 3C10.9041 3 11.4268 3.21677 11.8223 3.57315Z" fill="url(#paint1_linear_2850_14607)"/>
<defs>
<linearGradient id="paint0_linear_2850_14607" x1="10.273" y1="6.25781" x2="10.273" y2="19.6786" gradientUnits="userSpaceOnUse">
<stop offset="0.203125" stop-color="#FFCE3C"/>
<stop offset="1" stop-color="#FABC46"/>
</linearGradient>
<linearGradient id="paint1_linear_2850_14607" x1="10.3309" y1="3" x2="10.3309" y2="11.232" gradientUnits="userSpaceOnUse">
<stop stop-color="white"/>
<stop offset="1" stop-color="#F7F4ED"/>
</linearGradient>
</defs>
</svg>
