<svg width="32" height="33" viewBox="0 0 32 33" fill="none" xmlns="http://www.w3.org/2000/svg">
<circle cx="16" cy="16.2031" r="16" fill="#3F86F1"/>
<circle cx="16" cy="16.2031" r="9" fill="white"/>
<path d="M20.065 8.17128C18.844 7.55208 17.4627 7.20312 16 7.20312C15.7454 7.20312 15.4933 7.2137 15.244 7.23443M20.065 8.17128C22.9932 9.6562 25 12.6953 25 16.2031C25 17.3575 24.7827 18.461 24.3867 19.4752M20.065 8.17128C18.3158 8.69629 14.3166 10.7842 12.3138 14.9357M15.244 7.23443C10.6272 7.61839 7 11.4872 7 16.2031C7 16.6833 7.03761 17.1548 7.11005 17.6147M15.244 7.23443C13.4206 8.44442 9.96821 11.5814 9.62792 14.2551M20.9435 23.7251C19.5247 24.6594 17.8258 25.2031 16 25.2031C13.1608 25.2031 10.6287 23.8884 8.97919 21.8346M20.9435 23.7251C20.9353 21.6859 20.3212 16.9682 17.9302 14.4114M20.9435 23.7251C22.4901 22.7066 23.704 21.2238 24.3867 19.4752M24.3867 19.4752C24.1579 17.8333 23.2062 14.0935 21.2299 12.2692M7.11005 17.6147C8.00449 18.3263 11.096 19.5768 16.3063 18.8858M7.11005 17.6147C7.35911 19.1958 8.01989 20.6402 8.97919 21.8346M8.97919 21.8346C10.352 22.4073 13.8326 23.0251 16.8418 21.8346" stroke="#3F86F1" stroke-width="1.4"/>
<path d="M7.27148 13.6611L15.98 15.71M15.98 15.71L17.3305 25.2104M15.98 15.71L23.4777 10.8203" stroke="#3F86F1" stroke-width="1.4"/>
</svg>
