<svg width="32" height="33" viewBox="0 0 32 33" fill="none" xmlns="http://www.w3.org/2000/svg">
<circle cx="16" cy="16.2031" r="16" fill="#3F86F1"/>
<path d="M13.0161 25.1053L13.0161 20.7665L10.2271 16.1522C9.9255 15.6532 10.0925 15.0038 10.5975 14.7123C11.0943 14.4254 11.7297 14.5947 12.0179 15.0908L13.0656 16.6497C13.1941 16.8409 13.4926 16.7499 13.4926 16.5195V10.8508C13.4926 10.2709 13.9627 9.80078 14.5426 9.80078C15.1225 9.80078 15.5926 10.2709 15.5926 10.8508L15.5926 16.2032M21.2409 19.5527C21.6233 19.3958 21.8926 19.0198 21.8926 18.5809V16.5975C21.8926 16.0176 21.4225 15.5475 20.8426 15.5475C20.2627 15.5475 19.7926 16.0176 19.7926 16.5975V18.5809C19.7926 19.1608 20.2627 19.6309 20.8426 19.6309C20.9835 19.6309 21.118 19.6031 21.2409 19.5527ZM21.2409 19.5527V25.1053M16.6426 17.285C16.0627 17.285 15.5926 16.8149 15.5926 16.235V14.2517C15.5926 13.6718 16.0627 13.2017 16.6426 13.2017C17.2225 13.2017 17.6926 13.6718 17.6926 14.2517V16.235C17.6926 16.8149 17.2225 17.285 16.6426 17.285ZM18.7426 18.4574C18.1627 18.4574 17.6926 17.9873 17.6926 17.4074V15.424C17.6926 14.8441 18.1627 14.374 18.7426 14.374C19.3225 14.374 19.7926 14.8441 19.7926 15.424V17.4074C19.7926 17.9873 19.3225 18.4574 18.7426 18.4574Z" stroke="white" stroke-width="1.4" stroke-linecap="round"/>
<path d="M7.80096 23.7051C7.80096 24.5335 7.12939 25.2051 6.30096 25.2051C5.47254 25.2051 4.80096 24.5335 4.80096 23.7051C4.80096 22.8767 5.47254 22.2051 6.30096 22.2051C6.64878 22.2051 6.96895 22.3235 7.22338 22.5221C7.57493 22.7967 7.80096 23.2245 7.80096 23.7051Z" fill="white"/>
<path d="M6.99945 20.7503L6.60465 20.1722L6.29945 20.3807V20.7503H6.99945ZM8.5471 20.5409C8.86635 20.3229 8.94839 19.8873 8.73035 19.5681C8.51231 19.2488 8.07675 19.1668 7.75751 19.3848L8.5471 20.5409ZM7.69945 23.3041V20.7503H6.29945V23.3041H7.69945ZM7.39425 21.3283L8.5471 20.5409L7.75751 19.3848L6.60465 20.1722L7.39425 21.3283Z" fill="white"/>
<path d="M25.801 10.7012C25.801 11.5296 25.1294 12.2012 24.301 12.2012C23.4725 12.2012 22.801 11.5296 22.801 10.7012C22.801 9.87274 23.4725 9.20117 24.301 9.20117C24.6488 9.20117 24.969 9.31956 25.2234 9.51823C25.5749 9.79275 25.801 10.2206 25.801 10.7012Z" fill="white"/>
<path d="M21.801 10.7012C21.801 11.5296 21.1294 12.2012 20.301 12.2012C19.4725 12.2012 18.801 11.5296 18.801 10.7012C18.801 9.87274 19.4725 9.20117 20.301 9.20117C20.6488 9.20117 20.969 9.31956 21.2234 9.51823C21.5749 9.79275 21.801 10.2206 21.801 10.7012Z" fill="white"/>
<path d="M25.0002 10.2012V6.78451C25.0002 6.46234 24.739 6.20117 24.4168 6.20117H21.5835C21.2614 6.20117 21.0002 6.46234 21.0002 6.78451V10.0625" stroke="white" stroke-width="1.4"/>
</svg>
