<svg width="32" height="33" viewBox="0 0 32 33" fill="none" xmlns="http://www.w3.org/2000/svg">
<rect width="32" height="32" rx="8" fill="white"/>
<path d="M29.1789 13.0894C29.1789 20.6629 19.3194 29.8796 16.7144 32.1826C16.3527 32.5024 15.8261 32.5024 15.4645 32.1826C12.8594 29.8796 3 20.6629 3 13.0894C3 5.86034 8.86034 0 16.0894 0C23.3185 0 29.1789 5.86034 29.1789 13.0894Z" fill="#00C378"/>
<path fill-rule="evenodd" clip-rule="evenodd" d="M21.0162 8.60606C19.5155 7.10527 17.0822 7.10527 15.5814 8.60606L11.1383 13.0492C9.6375 14.55 9.6375 16.9832 11.1383 18.484C12.6391 19.9848 15.0723 19.9848 16.5731 18.484L21.0162 14.0409C22.517 12.5401 22.517 10.1068 21.0162 8.60606ZM16.5731 9.59773C17.5262 8.64463 19.0715 8.64463 20.0246 9.59773C20.9777 10.5508 20.9777 12.0961 20.0246 13.0492L17.8042 15.2696L14.3527 11.8181L16.5731 9.59773Z" fill="white"/>
</svg>
