<svg width="24" height="24" viewBox="0 0 24 24" fill="none" xmlns="http://www.w3.org/2000/svg">
<rect width="24" height="24" fill="white"/>
<path fill-rule="evenodd" clip-rule="evenodd" d="M16.1318 16.1528C18.4189 13.8657 18.4189 10.1577 16.1318 7.87063C13.8448 5.58358 10.1367 5.58358 7.84966 7.87063C5.5626 10.1577 5.5626 13.8657 7.84966 16.1528C10.1367 18.4399 13.8448 18.4399 16.1318 16.1528ZM17.2361 17.2571C20.1331 14.3602 20.1331 9.66328 17.2361 6.76635C14.3392 3.86941 9.64231 3.86941 6.74537 6.76635C3.84843 9.66329 3.84843 14.3602 6.74537 17.2571C9.64231 20.154 14.3392 20.154 17.2361 17.2571Z" fill="#3F86F1"/>
<path fill-rule="evenodd" clip-rule="evenodd" d="M4.39917 4.41919C4.78034 4.03802 5.39835 4.03802 5.77953 4.41919L7.71203 6.3517C8.09321 6.73288 8.09321 7.35089 7.71203 7.73206C7.33086 8.11324 6.71285 8.11324 6.33167 7.73206L4.39917 5.79956C4.01799 5.41838 4.01799 4.80037 4.39917 4.41919Z" fill="#3F86F1"/>
<path fill-rule="evenodd" clip-rule="evenodd" d="M16.2703 16.2903C16.6514 15.9091 17.2694 15.9091 17.6506 16.2903L19.5831 18.2228C19.9643 18.604 19.9643 19.222 19.5831 19.6032C19.2019 19.9843 18.5839 19.9843 18.2028 19.6032L16.2703 17.6706C15.8891 17.2895 15.8891 16.6715 16.2703 16.2903Z" fill="#3F86F1"/>
<path fill-rule="evenodd" clip-rule="evenodd" d="M4.39966 19.6028C4.01849 19.2216 4.01849 18.6036 4.39966 18.2224L6.33217 16.2899C6.71335 15.9087 7.33135 15.9087 7.71253 16.2899C8.09371 16.6711 8.09371 17.2891 7.71253 17.6703L5.78002 19.6028C5.39885 19.984 4.78084 19.984 4.39966 19.6028Z" fill="#3F86F1"/>
<path fill-rule="evenodd" clip-rule="evenodd" d="M16.2708 7.73169C15.8896 7.35052 15.8896 6.73251 16.2708 6.35133L18.2033 4.41883C18.5844 4.03765 19.2024 4.03765 19.5836 4.41883C19.9648 4.8 19.9648 5.41801 19.5836 5.79919L17.6511 7.73169C17.2699 8.11287 16.6519 8.11287 16.2708 7.73169Z" fill="#3F86F1"/>
<path d="M5.81081 3.9183C6.32036 4.4251 6.32036 5.24678 5.81081 5.75358C5.30127 6.26037 4.47513 6.26037 3.96558 5.75358C3.45604 5.24678 3.45604 4.4251 3.96558 3.9183C4.47513 3.4115 5.30127 3.4115 5.81081 3.9183Z" fill="#CCDAFF"/>
<path d="M20.2092 3.9183C20.7188 4.4251 20.7188 5.24678 20.2092 5.75358C19.6997 6.26037 18.8736 6.26037 18.364 5.75358C17.8545 5.24678 17.8545 4.4251 18.364 3.9183C18.8736 3.4115 19.6997 3.4115 20.2092 3.9183Z" fill="#CCDAFF"/>
<path d="M20.2092 18.2464C20.7188 18.7532 20.7188 19.5749 20.2092 20.0817C19.6997 20.5885 18.8736 20.5885 18.364 20.0817C17.8545 19.5749 17.8545 18.7532 18.364 18.2464C18.8736 17.7396 19.6997 17.7396 20.2092 18.2464Z" fill="#CCDAFF"/>
<path d="M5.81081 18.2464C6.32036 18.7532 6.32036 19.5749 5.81081 20.0817C5.30127 20.5885 4.47513 20.5885 3.96558 20.0817C3.45604 19.5749 3.45604 18.7532 3.96558 18.2464C4.47513 17.7396 5.30127 17.7396 5.81081 18.2464Z" fill="#CCDAFF"/>
<path d="M5.31591 10.8877C5.85497 10.8877 6.29197 11.3247 6.29197 11.8638C6.29197 12.4028 5.85497 12.8398 5.31591 12.8398C4.77684 12.8398 4.33984 12.4028 4.33984 11.8638C4.33984 11.3247 4.77684 10.8877 5.31591 10.8877Z" fill="#CCDAFF"/>
<path d="M11.9526 4.376C12.4917 4.376 12.9287 4.813 12.9287 5.35206C12.9287 5.89113 12.4917 6.32812 11.9526 6.32812C11.4136 6.32812 10.9766 5.89113 10.9766 5.35206C10.9766 4.813 11.4136 4.376 11.9526 4.376Z" fill="#CCDAFF"/>
<path d="M18.73 10.8877C19.269 10.8877 19.706 11.3247 19.706 11.8638C19.706 12.4028 19.269 12.8398 18.73 12.8398C18.1909 12.8398 17.7539 12.4028 17.7539 11.8638C17.7539 11.3247 18.1909 10.8877 18.73 10.8877Z" fill="#CCDAFF"/>
<path d="M11.9526 17.7901C12.4917 17.7901 12.9287 18.2271 12.9287 18.7661C12.9287 19.3052 12.4917 19.7422 11.9526 19.7422C11.4136 19.7422 10.9766 19.3052 10.9766 18.7661C10.9766 18.2271 11.4136 17.7901 11.9526 17.7901Z" fill="#CCDAFF"/>
<circle cx="12" cy="12" r="3" fill="#CCDAFF"/>
<circle cx="12" cy="12" r="2" fill="#3F86F1"/>
</svg>
