<svg width="60" height="60" viewBox="0 0 60 60" fill="none" xmlns="http://www.w3.org/2000/svg">
<g clip-path="url(#clip0_5689_105767)">
<path d="M35.7956 31.4301C38.1578 34.1753 42.1132 33.8244 44.1042 33.1612C44.9795 32.9345 45.4856 34.0536 45.4598 34.4771L45.1641 40.76C45.1571 40.9095 45.1254 41.0565 45.0911 41.2024C44.8488 42.2329 45.0767 43.8609 42.3737 44.3417L22.192 45.39C22.1024 45.3946 22.0124 45.3924 21.9233 45.3811C19.5362 45.0775 17.2686 43.6736 17.0991 40.5842C16.8818 36.6216 25.2475 36.2304 28.2902 35.1794C28.4857 35.1118 28.6577 34.9962 28.8044 34.8538L32.7459 31.0279C33.5865 30.2119 35.0336 30.5444 35.7956 31.4301Z" fill="#C5CDF8"/>
<path d="M36.1354 28.5076C38.3326 31.9802 42.6967 31.6351 44.8067 30.9319C45.6634 30.7099 45.8269 31.4832 45.8016 31.8976L45.3791 39.3893C45.3322 40.1969 45.0749 40.8057 43.5119 41.3357C43.3753 41.382 43.2311 41.4063 43.0866 41.4124L23.8831 42.2291C21.1998 42.2585 18.6261 41.5 17.8761 39.6907C15.5927 34.1818 19.9744 32.2891 22.6702 31.1745L33.9644 27.6014C34.7979 27.3377 35.6767 27.7825 36.1354 28.5076Z" fill="url(#paint0_linear_5689_105767)"/>
<g opacity="0.5">
<mask id="mask0_5689_105767" style="mask-type:alpha" maskUnits="userSpaceOnUse" x="36" y="34" width="10" height="11">
<path d="M36.8462 41.8607C37.8829 37.47 41.5555 35.4438 44.2904 34.7148C45.1956 34.4736 46.0155 35.1881 45.9926 36.0991C45.7329 46.4266 40.5905 45.465 37.39 43.2518C36.9357 42.9376 36.7216 42.3884 36.8462 41.8607Z" fill="#D9D9D9"/>
</mask>
<g mask="url(#mask0_5689_105767)">
<path d="M36.0328 26.9838C38.2883 30.5711 42.7141 30.2859 44.8402 29.6039C45.6999 29.3924 45.8763 30.1738 45.857 30.5909L45.4081 39.1896C45.4133 40.7638 43.7078 41.4357 43.0321 41.4336L23.9344 42.0004C21.2315 41.9919 19.2303 41.3024 17.8398 38.0459C15.4562 32.4632 19.8422 30.6186 22.5414 29.5339L33.8989 26.0846C34.7218 25.8347 35.5836 26.2694 36.0328 26.9838Z" fill="#4D51BD"/>
</g>
</g>
<path fill-rule="evenodd" clip-rule="evenodd" d="M29.1808 28.5453C29.5339 28.2965 30.0279 28.3726 30.2842 28.7153L32.995 32.3395C33.2514 32.6822 33.173 33.1617 32.8199 33.4106C32.4669 33.6594 31.9729 33.5833 31.7165 33.2406L29.0057 29.6163C28.7493 29.2736 28.8278 28.7941 29.1808 28.5453Z" fill="white"/>
<path fill-rule="evenodd" clip-rule="evenodd" d="M25.3957 29.2953C25.7487 29.0465 26.2427 29.1226 26.499 29.4653L29.2099 33.0895C29.4662 33.4322 29.3878 33.9117 29.0348 34.1606C28.6817 34.4094 28.1877 34.3333 27.9314 33.9906L25.2205 30.3663C24.9642 30.0236 25.0426 29.5441 25.3957 29.2953Z" fill="white"/>
<path fill-rule="evenodd" clip-rule="evenodd" d="M21.8078 30.4593C22.1608 30.2105 22.6548 30.2866 22.9112 30.6293L25.622 34.2536C25.8783 34.5963 25.7999 35.0758 25.4469 35.3246C25.0938 35.5734 24.5998 35.4973 24.3435 35.1546L21.6326 31.5304C21.3763 31.1877 21.4547 30.7082 21.8078 30.4593Z" fill="white"/>
</g>
<path d="M20.2254 19.6868C23.9545 20.0557 26.5369 16.9684 27.4734 15.0597C27.9305 14.2724 29.1124 14.7317 29.4047 15.0597L33.8079 19.8683C33.9107 19.9805 33.9944 20.1082 34.0754 20.237C34.6577 21.1636 36.0203 22.1922 34.4457 24.4658L20.8366 39.5629C20.7774 39.6286 20.713 39.6896 20.6428 39.7435C18.7193 41.2174 16.0725 41.8018 13.6836 39.6617C10.6193 36.9164 16.2987 30.686 17.6913 27.7589C17.7794 27.5737 17.8166 27.37 17.8166 27.1649L17.8166 21.5122C17.8166 20.3416 19.0604 19.5716 20.2254 19.6868Z" fill="#C5CDF8"/>
<path d="M18.3426 17.2997C22.4762 18.309 25.346 14.9439 26.336 12.9255C26.7834 12.1549 27.4673 12.6044 27.7534 12.9255L32.9504 18.705C34.1309 20.0072 33.8382 20.2521 33.0289 21.5267C32.9765 21.6091 32.9172 21.6871 32.8511 21.759L19.7216 36.0435C17.8318 37.97 15.4417 39.2425 13.5797 38.4517C7.91023 36.0435 9.64256 31.5484 10.745 28.8191L16.184 18.1565C16.5758 17.3884 17.505 17.0952 18.3426 17.2997Z" fill="url(#paint1_linear_5689_105767)"/>
<g opacity="0.5">
<mask id="mask1_5689_105767" style="mask-type:alpha" maskUnits="userSpaceOnUse" x="27" y="15" width="8" height="13">
<path d="M28.6957 26.5813C26.1867 22.6103 27.3395 18.493 28.764 16.0184C29.2245 15.2185 30.3057 15.1609 30.9441 15.8274C38.3912 23.6016 33.9868 26.5526 30.0723 27.1997C29.531 27.2892 28.9888 27.0451 28.6957 26.5813Z" fill="#D9D9D9"/>
</mask>
<g mask="url(#mask1_5689_105767)">
<path d="M17.1544 16.2502C21.4134 17.3007 24.3709 13.9365 25.3879 11.9225C25.8451 11.1574 26.5442 11.6037 26.8366 11.9225L33.1144 18.6171C34.2734 19.7647 33.5973 21.008 33.1144 21.4862L19.5929 35.8318C17.6613 37.7445 15.7297 38.6611 12.3493 37.2664C6.55436 34.8754 8.32502 30.4123 9.45181 27.7026L15.0268 17.0864C15.421 16.3356 16.3311 16.047 17.1544 16.2502Z" fill="#4D51BD"/>
</g>
</g>
<path fill-rule="evenodd" clip-rule="evenodd" d="M13.4526 22.2778C13.5215 21.8451 13.9292 21.55 14.3633 21.6187L18.9541 22.3449C19.3882 22.4136 19.6843 22.82 19.6154 23.2526C19.5465 23.6853 19.1387 23.9803 18.7046 23.9117L14.1138 23.1855C13.6797 23.1168 13.3837 22.7104 13.4526 22.2778Z" fill="white"/>
<path fill-rule="evenodd" clip-rule="evenodd" d="M11.308 25.5121C11.3769 25.0795 11.7847 24.7844 12.2188 24.8531L16.8096 25.5793C17.2437 25.6479 17.5398 26.0543 17.4709 26.487C17.402 26.9196 16.9942 27.2147 16.5601 27.146L11.9693 26.4198C11.5352 26.3512 11.2391 25.9448 11.308 25.5121Z" fill="white"/>
<path fill-rule="evenodd" clip-rule="evenodd" d="M9.60881 28.9106C9.6777 28.4779 10.0855 28.1829 10.5196 28.2515L15.1104 28.9777C15.5445 29.0464 15.8405 29.4528 15.7716 29.8854C15.7027 30.3181 15.295 30.6131 14.8609 30.5445L10.2701 29.8183C9.83596 29.7496 9.53991 29.3432 9.60881 28.9106Z" fill="white"/>
<defs>
<linearGradient id="paint0_linear_5689_105767" x1="29.7788" y1="28.7328" x2="43.3276" y2="40.6224" gradientUnits="userSpaceOnUse">
<stop stop-color="#7F83EF"/>
<stop offset="1" stop-color="#4D51BD"/>
</linearGradient>
<linearGradient id="paint1_linear_5689_105767" x1="14.0627" y1="21.9864" x2="32.5833" y2="20.4839" gradientUnits="userSpaceOnUse">
<stop stop-color="#7F83EF"/>
<stop offset="1" stop-color="#4D51BD"/>
</linearGradient>
<clipPath id="clip0_5689_105767">
<rect width="34.0741" height="25.6061" fill="white" transform="translate(15.4258 19.3906)"/>
</clipPath>
</defs>
</svg>
