<svg width="40" height="40" viewBox="0 0 40 40" fill="none" xmlns="http://www.w3.org/2000/svg">
<rect width="40" height="40" rx="8" fill="#F8F8F8"/>
<path d="M10.6668 22.334C9.3835 22.334 8.3335 23.384 8.3335 24.6673V31.6673H16.1152V22.334H10.6668Z" fill="#AE9679"/>
<path d="M18.4368 17.666C17.1535 17.666 16.1035 18.716 16.1035 19.9993V31.666H23.8852V19.9993C23.8852 18.716 22.8469 17.666 21.5519 17.666H18.4368Z" fill="#FFCF53"/>
<path d="M23.8853 25.834V31.6673H31.6669V28.1673C31.6669 26.884 30.6169 25.834 29.3336 25.834H23.8853Z" fill="#AE9679"/>
<path d="M23.8965 10.4916C23.7798 10.1182 23.4181 9.84992 22.9048 9.76825L21.7848 9.58158C21.7381 9.56991 21.6331 9.49989 21.6098 9.45323L20.9915 8.21656C20.5248 7.27156 19.4631 7.27156 18.9965 8.21656L18.3781 9.45323C18.3548 9.49989 18.2498 9.56991 18.2031 9.58158L17.0831 9.76825C16.5698 9.84992 16.2198 10.1182 16.0915 10.4916C15.9748 10.8649 16.1148 11.2966 16.4765 11.6582L17.3398 12.5332C17.3748 12.5682 17.4215 12.7082 17.4098 12.7549L17.1648 13.8282C16.9781 14.6216 17.2815 14.9832 17.4798 15.1349C17.6781 15.2749 18.1098 15.4616 18.8215 15.0416L19.8715 14.4232C19.9181 14.3882 20.0698 14.3882 20.1165 14.4232L21.1665 15.0416C21.4931 15.2399 21.7615 15.2982 21.9715 15.2982C22.2165 15.2982 22.3915 15.2049 22.4965 15.1349C22.6948 14.9949 22.9981 14.6332 22.8115 13.8282L22.5665 12.7549C22.5548 12.6966 22.5898 12.5682 22.6365 12.5332L23.5115 11.6582C23.8731 11.2966 24.0131 10.8649 23.8965 10.4916Z" fill="#FFCF53"/>
</svg>
