<svg width="14" height="14" viewBox="0 0 14 14" fill="none" xmlns="http://www.w3.org/2000/svg">
<path d="M0 2.88281H14V11.9413C14 13.0784 13.0782 14.0002 11.9411 14.0002H2.05892C0.921809 14.0002 0 13.0784 0 11.9413V2.88281Z" fill="url(#paint0_linear_3286_46205)"/>
<path d="M0 2.88314C0 1.74603 0.921809 0.824219 2.05892 0.824219H11.9411C13.0782 0.824219 14 1.74603 14 2.88314V4.53001H0V2.88314Z" fill="#FF7373"/>
<rect x="2.0459" y="1.23438" width="2.05906" height="2.05877" rx="1.02939" fill="white"/>
<rect x="9.90356" y="1.23438" width="2.05906" height="2.05877" rx="1.02939" fill="white"/>
<rect x="2.4574" width="1.23544" height="2.67641" rx="0.617718" fill="url(#paint1_linear_3286_46205)"/>
<rect x="10.3123" width="1.23544" height="2.67641" rx="0.617718" fill="url(#paint2_linear_3286_46205)"/>
<defs>
<linearGradient id="paint0_linear_3286_46205" x1="7" y1="2.88281" x2="7" y2="14.0002" gradientUnits="userSpaceOnUse">
<stop stop-color="#FBFBFB"/>
<stop offset="1" stop-color="#EDEDED"/>
</linearGradient>
<linearGradient id="paint1_linear_3286_46205" x1="3.07512" y1="0" x2="3.07512" y2="2.67641" gradientUnits="userSpaceOnUse">
<stop stop-color="#7B7B7B"/>
<stop offset="1" stop-color="#505050"/>
</linearGradient>
<linearGradient id="paint2_linear_3286_46205" x1="10.93" y1="0" x2="10.93" y2="2.67641" gradientUnits="userSpaceOnUse">
<stop stop-color="#7B7B7B"/>
<stop offset="1" stop-color="#505050"/>
</linearGradient>
</defs>
</svg>
