<svg width="24" height="24" viewBox="0 0 24 24" fill="none" xmlns="http://www.w3.org/2000/svg">
<path d="M8.09578 7.22653C8.37835 7.22655 8.60742 7.45563 8.60742 7.7382L8.60742 10.707L6.85804 10.7068L6.85804 7.73808C6.85804 7.45551 7.08711 7.22645 7.36968 7.22647L8.09578 7.22653Z" fill="url(#paint0_linear_2850_11982)"/>
<path d="M9.77742 7.25778C10.06 7.2578 10.2891 7.48688 10.2891 7.76945L10.2891 10.7382L8.53968 10.7381L8.53968 7.76933C8.53968 7.48676 8.76875 7.2577 9.05132 7.25772L9.77742 7.25778Z" fill="url(#paint1_linear_2850_11982)"/>
<path d="M11.5274 7.25778C11.81 7.2578 12.0391 7.48688 12.0391 7.76945L12.0391 10.7382L10.2897 10.7381L10.2897 7.76933C10.2897 7.48676 10.5187 7.2577 10.8013 7.25772L11.5274 7.25778Z" fill="url(#paint2_linear_2850_11982)"/>
<path d="M13.2774 2.74996C13.56 2.74998 13.7891 2.97907 13.7891 3.26164L13.7891 6.98894L12.0397 6.98882L12.0397 3.26152C12.0397 2.97895 12.2687 2.74989 12.5513 2.74991L13.2774 2.74996Z" fill="url(#paint3_linear_2850_11982)"/>
<rect width="5.7281" height="1.74938" transform="matrix(-4.39421e-08 1 -1 -7.08913e-05 13.7881 6.5625)" fill="url(#paint4_linear_2850_11982)"/>
<path d="M15.0264 7.25778C15.309 7.2578 15.5381 7.48688 15.5381 7.76945L15.5381 10.7382L13.7887 10.7381L13.7887 7.76933C13.7887 7.48676 14.0178 7.2577 14.3003 7.25772L15.0264 7.25778Z" fill="url(#paint5_linear_2850_11982)"/>
<path d="M16.7764 7.25778C17.059 7.2578 17.2881 7.48688 17.2881 7.76945L17.2881 10.7382L15.5387 10.7381L15.5387 7.76933C15.5387 7.48676 15.7678 7.2577 16.0503 7.25772L16.7764 7.25778Z" fill="url(#paint6_linear_2850_11982)"/>
<mask id="mask0_2850_11982" style="mask-type:alpha" maskUnits="userSpaceOnUse" x="6" y="8" width="12" height="15">
<path d="M7.69679 8.6875H7.13585C6.78468 8.6875 6.5 8.97218 6.5 9.32334V21.6163C6.5 21.9674 6.78468 22.2521 7.13584 22.2521H16.9436C17.2947 22.2521 17.5794 21.9674 17.5794 21.6163V9.32335C17.5794 8.97218 17.2947 8.6875 16.9436 8.6875H16.5227C16.2319 8.6875 15.9781 8.88482 15.9065 9.16669L15.7069 9.95166C15.6353 10.2335 15.3815 10.4308 15.0907 10.4308H9.18101C8.90403 10.4308 8.65891 10.2515 8.57502 9.98756L8.30277 9.13079C8.21889 8.86681 7.97377 8.6875 7.69679 8.6875Z" fill="url(#paint7_linear_2850_11982)"/>
</mask>
<g mask="url(#mask0_2850_11982)">
<path d="M8.16191 8.6875H6.5V22.2521H17.5794V8.6875H16.0283L15.5851 10.4308H8.71588L8.16191 8.6875Z" fill="url(#paint8_linear_2850_11982)"/>
<path d="M5.91504 16.8085V8.6875H18.1607V16.8085L12.0379 13.5881L5.91504 16.8085Z" fill="url(#paint9_linear_2850_11982)"/>
</g>
<ellipse cx="12.0847" cy="17.0784" rx="1.58277" ry="1.69558" fill="#F4C449"/>
<rect x="8.52344" y="19.6953" width="6.72679" height="0.847789" rx="0.423894" fill="#E1D9D4"/>
<defs>
<linearGradient id="paint0_linear_2850_11982" x1="8.60742" y1="8.96676" x2="6.85804" y2="8.96676" gradientUnits="userSpaceOnUse">
<stop stop-color="#F5B24C"/>
<stop offset="1" stop-color="#D88F22"/>
</linearGradient>
<linearGradient id="paint1_linear_2850_11982" x1="10.2891" y1="8.99801" x2="8.53968" y2="8.99801" gradientUnits="userSpaceOnUse">
<stop stop-color="#F5B24C"/>
<stop offset="1" stop-color="#D88F22"/>
</linearGradient>
<linearGradient id="paint2_linear_2850_11982" x1="12.0391" y1="8.99801" x2="10.2897" y2="8.99801" gradientUnits="userSpaceOnUse">
<stop stop-color="#F5B24C"/>
<stop offset="1" stop-color="#D88F22"/>
</linearGradient>
<linearGradient id="paint3_linear_2850_11982" x1="13.7891" y1="4.86947" x2="12.0397" y2="4.86947" gradientUnits="userSpaceOnUse">
<stop stop-color="#F5B24C"/>
<stop offset="1" stop-color="#D88F22"/>
</linearGradient>
<linearGradient id="paint4_linear_2850_11982" x1="2.86405" y1="0" x2="2.86405" y2="1.74938" gradientUnits="userSpaceOnUse">
<stop stop-color="#FFF8F3"/>
<stop offset="1" stop-color="#EEE5DF"/>
</linearGradient>
<linearGradient id="paint5_linear_2850_11982" x1="15.5381" y1="8.99801" x2="13.7887" y2="8.99801" gradientUnits="userSpaceOnUse">
<stop stop-color="#F5B24C"/>
<stop offset="1" stop-color="#D88F22"/>
</linearGradient>
<linearGradient id="paint6_linear_2850_11982" x1="17.2881" y1="8.99801" x2="15.5387" y2="8.99801" gradientUnits="userSpaceOnUse">
<stop stop-color="#F5B24C"/>
<stop offset="1" stop-color="#D88F22"/>
</linearGradient>
<linearGradient id="paint7_linear_2850_11982" x1="12.0397" y1="8.6875" x2="12.0397" y2="22.2521" gradientUnits="userSpaceOnUse">
<stop stop-color="#FFF8F3"/>
<stop offset="1" stop-color="#EEE5DF"/>
</linearGradient>
<linearGradient id="paint8_linear_2850_11982" x1="12.0397" y1="8.6875" x2="12.0397" y2="22.2521" gradientUnits="userSpaceOnUse">
<stop stop-color="#FFF8F3"/>
<stop offset="1" stop-color="#EEE5DF"/>
</linearGradient>
<linearGradient id="paint9_linear_2850_11982" x1="12.0379" y1="8.6875" x2="12.0379" y2="16.8085" gradientUnits="userSpaceOnUse">
<stop stop-color="#FF7E7E"/>
<stop offset="1" stop-color="#F14F4F"/>
</linearGradient>
</defs>
</svg>
