<svg width="64" height="65" viewBox="0 0 64 65" fill="none" xmlns="http://www.w3.org/2000/svg">
<g id="icon/64/&#236;&#150;&#145;&#236;&#163;&#188; /on">
<g id="&#236;&#150;&#145;&#236;&#163;&#188;">
<path id="Vector 1501" d="M23.9789 25.4115C21.4818 28.2109 21.7592 30.6615 21.7592 31.8281H41.7409C41.7409 30.6615 42.0179 28.2115 39.5202 25.4115C37.3 22.9225 35.6354 22.4948 35.6353 21.3281C35.6353 20.1615 36.1904 15.4948 35.0803 10.8281H28.4197C27.3096 15.4948 27.8647 20.1615 27.8647 21.3281C27.8647 22.4948 26.199 22.9226 23.9789 25.4115Z" fill="url(#paint0_linear_1482_68796)"/>
<path id="Rectangle 34624710" d="M27.8633 5.82812C27.8633 5.27584 28.311 4.82812 28.8633 4.82812H34.6339C35.1862 4.82812 35.6339 5.27584 35.6339 5.82812V10.5481C35.6339 11.1004 35.1862 11.5481 34.6339 11.5481H28.8633C28.311 11.5481 27.8633 11.1004 27.8633 10.5481V5.82812Z" fill="url(#paint1_linear_1482_68796)"/>
<rect id="Rectangle 34624711" x="21.7578" y="31.7109" width="19.9817" height="24.64" fill="url(#paint2_linear_1482_68796)"/>
<path id="Rectangle 34624713" d="M21.7578 56.3516H41.7395V59.8316C41.7395 60.3838 41.2918 60.8316 40.7395 60.8316H22.7578C22.2055 60.8316 21.7578 60.3838 21.7578 59.8316V56.3516Z" fill="url(#paint3_linear_1482_68796)"/>
<path id="Union" fill-rule="evenodd" clip-rule="evenodd" d="M31.7399 37.3103C34.8054 37.3103 37.2904 36.8089 37.2904 36.1903C37.2904 35.5718 34.8054 35.0703 31.7399 35.0703C28.6745 35.0703 26.1895 35.5718 26.1895 36.1903C26.1895 36.8089 28.6745 37.3103 31.7399 37.3103ZM37.2904 44.0319C37.2904 45.8876 34.8054 47.3919 31.7399 47.3919C28.6745 47.3919 26.1895 45.8876 26.1895 44.0319C26.1895 42.1762 28.6745 40.6719 31.7399 40.6719C34.8054 40.6719 37.2904 42.1762 37.2904 44.0319ZM37.2904 51.87C37.2904 52.4886 34.8054 52.99 31.7399 52.99C28.6745 52.99 26.1895 52.4886 26.1895 51.87C26.1895 51.2514 28.6745 50.75 31.7399 50.75C34.8054 50.75 37.2904 51.2514 37.2904 51.87Z" fill="url(#paint4_linear_1482_68796)"/>
</g>
</g>
<defs>
<linearGradient id="paint0_linear_1482_68796" x1="31.75" y1="10.8281" x2="31.75" y2="31.8281" gradientUnits="userSpaceOnUse">
<stop stop-color="#DC700D"/>
<stop offset="1" stop-color="#FBAF1B"/>
</linearGradient>
<linearGradient id="paint1_linear_1482_68796" x1="31.7486" y1="4.82812" x2="31.7486" y2="11.5481" gradientUnits="userSpaceOnUse">
<stop stop-color="#5B5D75"/>
<stop offset="1" stop-color="#37394F"/>
</linearGradient>
<linearGradient id="paint2_linear_1482_68796" x1="21.75" y1="42.3301" x2="41.75" y2="42.3301" gradientUnits="userSpaceOnUse">
<stop stop-color="#9698AC"/>
<stop offset="1" stop-color="#2F324A"/>
</linearGradient>
<linearGradient id="paint3_linear_1482_68796" x1="31.7487" y1="56.3516" x2="31.7487" y2="60.8316" gradientUnits="userSpaceOnUse">
<stop stop-color="#EEAA28"/>
<stop offset="1" stop-color="#99480E"/>
</linearGradient>
<linearGradient id="paint4_linear_1482_68796" x1="25.75" y1="36.8301" x2="37.75" y2="36.8301" gradientUnits="userSpaceOnUse">
<stop stop-color="#A7AABA"/>
<stop offset="1" stop-color="#595C82"/>
</linearGradient>
</defs>
</svg>
