<svg width="81" height="80" viewBox="0 0 81 80" fill="none" xmlns="http://www.w3.org/2000/svg">
<circle cx="40.5" cy="40" r="40" fill="#FFF9EA"/>
<path fill-rule="evenodd" clip-rule="evenodd" d="M64.5 28C71.4036 28 77 22.4036 77 15.5C77 8.59644 71.4036 3 64.5 3C57.5964 3 52 8.59644 52 15.5C52 18.334 52.9431 20.9477 54.5326 23.0444C54.515 23.099 54.5017 23.1562 54.4931 23.216L54.015 26.5693C53.9064 27.3314 54.6635 27.9254 55.3778 27.6384L58.4117 26.4197C60.2133 27.4263 62.2896 28 64.5 28Z" fill="#3B4A65"/>
<path d="M63.7712 9.96548C63.8496 9.23654 64.5285 8.72617 65.2505 8.85348L66.3235 9.0427C67.0455 9.17001 67.509 9.88183 67.3333 10.5936L65.6905 17.2494C65.5308 17.8964 64.8971 18.3089 64.2409 18.1932L64.0781 18.1645C63.4218 18.0488 62.9674 17.4443 63.0387 16.7818L63.7712 9.96548Z" fill="white"/>
<rect width="2.53314" height="2.53328" rx="1.26657" transform="matrix(0.984806 0.173658 -0.173638 0.98481 62.7215 19.04)" fill="white"/>
<path d="M37.0714 50.2857C37.0714 49.3389 37.8389 48.5714 38.7857 48.5714H42.2143C43.1611 48.5714 43.9286 49.3389 43.9286 50.2857V53.7143H37.0714V50.2857Z" fill="#F7A500"/>
<path d="M21.2143 29.7143C21.2143 28.5308 22.1737 27.5714 23.3571 27.5714H33.6429C34.8263 27.5714 35.7857 28.5308 35.7857 29.7143V34.8572C35.7857 38.8809 32.5238 42.1429 28.5 42.1429C24.4762 42.1429 21.2143 38.8809 21.2143 34.8571V29.7143Z" stroke="url(#paint0_linear_196_164)" stroke-width="2.57143"/>
<path d="M45.2143 29.7143C45.2143 28.5308 46.1737 27.5714 47.3571 27.5714H57.6429C58.8263 27.5714 59.7857 28.5308 59.7857 29.7143V34.8572C59.7857 38.8809 56.5238 42.1429 52.5 42.1429C48.4762 42.1429 45.2143 38.8809 45.2143 34.8571V29.7143Z" stroke="url(#paint1_linear_196_164)" stroke-width="2.57143"/>
<path d="M30.2143 58.8572C30.2143 56.0168 32.5168 53.7143 35.3571 53.7143H45.6429C48.4832 53.7143 50.7857 56.0168 50.7857 58.8572H30.2143Z" fill="#FED200"/>
<path d="M26.7857 59.8857C26.7857 58.3709 28.0137 57.1429 29.5286 57.1429H51.4714C52.9863 57.1429 54.2143 58.3709 54.2143 59.8857C54.2143 60.2644 53.9073 60.5714 53.5286 60.5714H27.4714C27.0927 60.5714 26.7857 60.2644 26.7857 59.8857Z" fill="#F7A500"/>
<path d="M26.7857 22.8571C26.7857 20.9636 28.3207 19.4286 30.2143 19.4286H50.7857C52.6793 19.4286 54.2143 20.9636 54.2143 22.8571V38.2857C54.2143 44.9131 48.8417 50.2857 42.2143 50.2857H38.7857C32.1583 50.2857 26.7857 44.9131 26.7857 38.2857V22.8571Z" fill="url(#paint2_linear_196_164)"/>
<path d="M44.8665 35.4471C44.6698 35.6726 44.5321 36.1236 44.5518 36.4311L44.6698 38.4403C44.7484 39.6703 43.9027 40.3059 42.8012 39.8548L41.0114 39.1168C40.736 39.0143 40.264 39.0143 39.9886 39.1168L38.1988 39.8548C37.0973 40.3059 36.2516 39.6703 36.3302 38.4403L36.4482 36.4311C36.4679 36.1236 36.3302 35.6726 36.1335 35.4471L34.9141 33.889C34.147 32.9459 34.4814 31.9004 35.6222 31.5928L37.4907 31.1008C37.7857 31.0188 38.1398 30.7318 38.2971 30.4653L39.3395 28.7842C39.9886 27.7386 41.0114 27.7386 41.6605 28.7842L42.7029 30.4653C42.8602 30.7318 43.2143 31.0188 43.5093 31.1008L45.3778 31.5928C46.5186 31.9004 46.853 32.9459 46.0859 33.889L44.8665 35.4471Z" fill="white"/>
<defs>
<linearGradient id="paint0_linear_196_164" x1="28.5" y1="26.2857" x2="28.5" y2="43.4286" gradientUnits="userSpaceOnUse">
<stop stop-color="#FEC600"/>
<stop offset="1" stop-color="#FEB700"/>
</linearGradient>
<linearGradient id="paint1_linear_196_164" x1="52.5" y1="26.2857" x2="52.5" y2="43.4286" gradientUnits="userSpaceOnUse">
<stop stop-color="#FEC600"/>
<stop offset="1" stop-color="#FEB700"/>
</linearGradient>
<linearGradient id="paint2_linear_196_164" x1="40.5" y1="19.4286" x2="40.5" y2="50.2857" gradientUnits="userSpaceOnUse">
<stop stop-color="#FFE141"/>
<stop offset="1" stop-color="#FEC600"/>
</linearGradient>
</defs>
</svg>
