<svg width="41" height="40" viewBox="0 0 41 40" fill="none" xmlns="http://www.w3.org/2000/svg">
<mask id="mask0_11130_106396" style="mask-type:alpha" maskUnits="userSpaceOnUse" x="3" y="3" width="35" height="34">
<rect x="3.10547" y="3" width="34" height="34" rx="1.88889" fill="#D9D9D9"/>
</mask>
<g mask="url(#mask0_11130_106396)">
<path d="M17.687 6.90602L3.78512 18.4909C3.35447 18.8498 3.10547 19.3814 3.10547 19.942V39.8351H37.1055V19.942C37.1055 19.3814 36.8565 18.8498 36.4258 18.4909L22.5239 6.90602C21.123 5.73854 19.088 5.73854 17.687 6.90602Z" fill="url(#paint0_linear_11130_106396)"/>
<path d="M17.687 6.90602L3.78512 18.4909C3.35447 18.8498 3.10547 19.3814 3.10547 19.942V39.8351H37.1055V19.942C37.1055 19.3814 36.8565 18.8498 36.4258 18.4909L22.5239 6.90602C21.123 5.73854 19.088 5.73854 17.687 6.90602Z" fill="#ECF2F5"/>
<g opacity="0.5">
<path d="M21.0872 27.7966C18.3655 27.6101 11.8478 25.5723 10.3538 19.691C9.69373 17.0926 11.3181 14.444 13.9913 13.7649C15.5695 13.364 17.1562 13.7394 18.3344 14.6657C18.9155 13.309 20.1429 12.2022 21.7211 11.8013C24.3943 11.1222 27.0858 12.6745 27.7458 15.2729C29.2399 21.1542 24.485 26.0556 22.1662 27.5225C21.9 27.6895 21.4008 27.8163 21.0872 27.7966Z" fill="url(#paint1_linear_11130_106396)"/>
<path d="M21.0872 27.7966C18.3655 27.6101 11.8478 25.5723 10.3538 19.691C9.69373 17.0926 11.3181 14.444 13.9913 13.7649C15.5695 13.364 17.1562 13.7394 18.3344 14.6657C18.9155 13.309 20.1429 12.2022 21.7211 11.8013C24.3943 11.1222 27.0858 12.6745 27.7458 15.2729C29.2399 21.1542 24.485 26.0556 22.1662 27.5225C21.9 27.6895 21.4008 27.8163 21.0872 27.7966Z" fill="url(#paint2_linear_11130_106396)"/>
</g>
<path fill-rule="evenodd" clip-rule="evenodd" d="M36.9234 19.1328L22.9375 25.1934L37.1042 37.4711L37.1042 19.9392C37.1042 19.9386 37.1042 19.938 37.1042 19.9373C37.1039 19.6557 37.0408 19.3815 36.9234 19.1328Z" fill="url(#paint3_linear_11130_106396)"/>
<path fill-rule="evenodd" clip-rule="evenodd" d="M3.28756 19.1328L17.2734 25.1934L3.10677 37.4711L3.10677 19.9392C3.10677 19.9386 3.10677 19.938 3.10677 19.9373C3.10705 19.6557 3.17016 19.3815 3.28756 19.1328Z" fill="url(#paint4_linear_11130_106396)"/>
<path d="M37.1055 37.0017H3.10547L17.5956 24.1216C19.027 22.8493 21.1839 22.8493 22.6153 24.1216L37.1055 37.0017Z" fill="url(#paint5_linear_11130_106396)"/>
</g>
<defs>
<linearGradient id="paint0_linear_11130_106396" x1="20.1055" y1="11.974" x2="20.1055" y2="35.1128" gradientUnits="userSpaceOnUse">
<stop stop-color="#E5E5E5"/>
<stop offset="1" stop-color="#AAB2B7"/>
</linearGradient>
<linearGradient id="paint1_linear_11130_106396" x1="17.8562" y1="12.7831" x2="21.6525" y2="27.7275" gradientUnits="userSpaceOnUse">
<stop stop-color="#FFA2AD"/>
<stop offset="1" stop-color="#FA4242"/>
</linearGradient>
<linearGradient id="paint2_linear_11130_106396" x1="17.8562" y1="12.7831" x2="21.6525" y2="27.7275" gradientUnits="userSpaceOnUse">
<stop stop-color="#FAD3D1"/>
<stop offset="0.541667" stop-color="#F15064"/>
</linearGradient>
<linearGradient id="paint3_linear_11130_106396" x1="30.0208" y1="19.1328" x2="30.0208" y2="37.4711" gradientUnits="userSpaceOnUse">
<stop stop-color="#E1E8F4"/>
<stop offset="1" stop-color="#D1DBE2"/>
</linearGradient>
<linearGradient id="paint4_linear_11130_106396" x1="10.1901" y1="19.1328" x2="10.1901" y2="37.4711" gradientUnits="userSpaceOnUse">
<stop stop-color="#E1E8F4"/>
<stop offset="1" stop-color="#D1DBE2"/>
</linearGradient>
<linearGradient id="paint5_linear_11130_106396" x1="12.1721" y1="37.0017" x2="20.3726" y2="23.5312" gradientUnits="userSpaceOnUse">
<stop stop-color="#DEE5EA"/>
<stop offset="1" stop-color="#F2F7FA"/>
</linearGradient>
</defs>
</svg>
