<svg width="32" height="32" viewBox="0 0 32 32" fill="none" xmlns="http://www.w3.org/2000/svg">
<rect width="32" height="32" rx="16" fill="white"/>
<path d="M11.0933 13.7402C10.641 10.1773 14.0229 8.86929 16.5113 8.55343C20.244 8.07963 24.292 9.17397 24.2121 10.246C24.1707 10.802 23.6148 10.7596 22.42 11.7887C21.2252 12.8177 21.3773 13.9472 20.4619 15.5561C19.3988 17.4249 16.7369 17.4042 15.2924 17.407C13.8479 17.4097 11.2365 14.8684 11.0933 13.7402Z" fill="#EB4A34"/>
<path d="M12.2443 8.96875C8.53774 8.96875 6.94922 13.8639 6.94922 16.3115C6.94922 19.9828 8.00823 24.7031 9.06724 24.7031C10.6558 24.7031 10.1263 22.6052 11.7148 21.0318C13.0648 19.6946 14.3623 20.5073 16.4803 18.9339C18.8108 17.2026 18.2453 14.5632 18.0688 13.1646C17.8923 11.766 16.4803 8.96875 12.2443 8.96875Z" fill="#FF6A56"/>
<rect x="16.4" y="16.4" width="9.2" height="9.2" rx="4.6" fill="white" stroke="#516F94" stroke-width="0.8"/>
<path d="M21 19V22" stroke="#516F94" stroke-linecap="round"/>
<path d="M23 21L21 23L19 21" stroke="#516F94" stroke-linecap="round"/>
</svg>
