<svg width="32" height="32" viewBox="0 0 32 32" fill="none" xmlns="http://www.w3.org/2000/svg">
<rect width="32" height="32" rx="16" fill="white"/>
<path opacity="0.8" fill-rule="evenodd" clip-rule="evenodd" d="M18.4218 8.45807C18.3924 7.77314 17.9004 7.17075 17.1981 7.03001C16.4952 6.88914 15.8083 7.25626 15.5178 7.8781C15.512 7.87809 15.5062 7.87808 15.5003 7.87808C14.4685 7.87808 13.4845 8.08313 12.587 8.4547C12.0819 7.99232 11.3089 7.91483 10.7134 8.31146C10.1174 8.70846 9.89114 9.45258 10.1243 10.0972C9.41674 10.8014 8.84677 11.6435 8.45815 12.5799C7.77319 12.6093 7.17076 13.1013 7.03002 13.8035C6.88906 14.5068 7.25665 15.1939 7.87912 15.4842C7.87911 15.4891 7.8791 15.494 7.8791 15.4989C7.8791 16.5311 8.08432 17.5154 8.45619 18.4131C7.99334 18.9182 7.91564 19.6915 8.31244 20.2872C8.70972 20.8836 9.45458 21.1097 10.0996 20.8759C10.8032 21.5825 11.6446 22.1518 12.5801 22.5402C12.6085 23.226 13.1008 23.8296 13.8038 23.9704C14.5077 24.1115 15.1956 23.7432 15.4854 23.1197C15.4903 23.1197 15.4953 23.1197 15.5003 23.1197C16.5315 23.1197 17.5148 22.9149 18.4118 22.5439C18.9169 23.0084 19.6915 23.0869 20.2881 22.6896C20.8851 22.2919 21.1111 21.5461 20.8762 20.9008C21.5829 20.1975 22.1524 19.3565 22.541 18.4214C23.2266 18.3928 23.8298 17.9005 23.9706 17.1978C24.1116 16.4946 23.744 15.8074 23.1215 15.5171C23.1215 15.5111 23.1215 15.505 23.1215 15.4989C23.1215 14.4782 22.9209 13.5043 22.5568 12.6146C23.1149 12.1175 23.2363 11.2726 22.81 10.6327C22.3835 9.99239 21.5564 9.77888 20.8823 10.1031C20.1828 9.40549 19.3485 8.84297 18.4218 8.45807Z" fill="url(#paint0_linear_2516_73585)"/>
<ellipse opacity="0.8" cx="16.0055" cy="12.9585" rx="3.04849" ry="3.04833" fill="url(#paint1_linear_2516_73585)"/>
<ellipse opacity="0.8" cx="11.4344" cy="15.5007" rx="1.52424" ry="1.52416" fill="url(#paint2_linear_2516_73585)"/>
<ellipse opacity="0.8" cx="16.5164" cy="19.5632" rx="1.52424" ry="1.52416" fill="url(#paint3_linear_2516_73585)"/>
<rect x="16.4" y="16.4" width="9.2" height="9.2" rx="4.6" fill="white" stroke="#516F94" stroke-width="0.8"/>
<path d="M21 19V22" stroke="#516F94" stroke-linecap="round"/>
<path d="M23 21L21 23L19 21" stroke="#516F94" stroke-linecap="round"/>
<defs>
<linearGradient id="paint0_linear_2516_73585" x1="10.3171" y1="7.72541" x2="20.2515" y2="22.8431" gradientUnits="userSpaceOnUse">
<stop stop-color="#D8CBF4"/>
<stop offset="1" stop-color="#BEB5D0"/>
</linearGradient>
<linearGradient id="paint1_linear_2516_73585" x1="14.3797" y1="10.4817" x2="17.915" y2="15.8409" gradientUnits="userSpaceOnUse">
<stop stop-color="#A486E6"/>
<stop offset="1" stop-color="#A486E6"/>
</linearGradient>
<linearGradient id="paint2_linear_2516_73585" x1="10.6215" y1="14.2623" x2="12.3892" y2="16.9419" gradientUnits="userSpaceOnUse">
<stop stop-color="#A486E6"/>
<stop offset="1" stop-color="#A486E6"/>
</linearGradient>
<linearGradient id="paint3_linear_2516_73585" x1="15.7035" y1="18.3248" x2="17.4712" y2="21.0044" gradientUnits="userSpaceOnUse">
<stop stop-color="#A486E6"/>
<stop offset="1" stop-color="#A486E6"/>
</linearGradient>
</defs>
</svg>
