<svg width="14" height="12" viewBox="0 0 14 12" fill="none" xmlns="http://www.w3.org/2000/svg">
<g id="Group 1261167624">
<circle id="Ellipse 5386" cx="7.00016" cy="6.00065" r="2.16667" stroke="#444444" stroke-width="1.5"/>
<path id="Ellipse 5387" d="M13.1409 5.95856C13.15 5.97569 13.1524 5.98948 13.1524 6C13.1524 6.01052 13.15 6.02431 13.1409 6.04144C12.8345 6.61486 12.1503 7.74979 11.1 8.73279C10.0532 9.71258 8.68998 10.5 7 10.5C5.31002 10.5 3.9468 9.71258 2.89999 8.73279C1.84975 7.74979 1.16546 6.61486 0.859142 6.04144L0.197616 6.39483L0.859142 6.04144C0.849988 6.02431 0.847624 6.01052 0.847624 6C0.847624 5.98948 0.849988 5.97569 0.859142 5.95856C1.16546 5.38514 1.84975 4.25021 2.89999 3.26721C3.9468 2.28742 5.31002 1.5 7 1.5C8.68998 1.5 10.0532 2.28742 11.1 3.26721C12.1503 4.25021 12.8345 5.38514 13.1409 5.95856Z" stroke="#444444" stroke-width="1.5"/>
</g>
</svg>
