<svg width="61" height="60" viewBox="0 0 61 60" fill="none" xmlns="http://www.w3.org/2000/svg">
<path d="M60.5 30C60.5 46.5685 47.0685 60 30.5 60C13.9315 60 0.5 46.5685 0.5 30C0.5 13.4315 13.9315 0 30.5 0C47.0685 0 60.5 13.4315 60.5 30ZM6.5 30C6.5 43.2548 17.2452 54 30.5 54C43.7548 54 54.5 43.2548 54.5 30C54.5 16.7452 43.7548 6 30.5 6C17.2452 6 6.5 16.7452 6.5 30Z" fill="#EEEEEE"/>
<path d="M30.5 3C30.5 1.34315 29.1535 -0.0155382 27.505 0.149874C23.8091 0.520698 20.2053 1.57563 16.8803 3.2698C13.5553 4.96398 10.5835 7.25948 8.11119 10.0315C7.00836 11.268 7.31612 13.1559 8.65654 14.1298V14.1298C9.99697 15.1037 11.8605 14.791 12.9939 13.5824C14.8883 11.5625 17.1233 9.87992 19.6042 8.61584C22.0851 7.35176 24.7601 6.53253 27.5078 6.18726C29.1517 5.98068 30.5 4.65685 30.5 3V3Z" fill="#00C378"/>
</svg>
