<svg width="20" height="20" viewBox="0 0 20 20" fill="none" xmlns="http://www.w3.org/2000/svg">
<g id="icon/20/call">
<g id="Union">
<mask id="path-1-inside-1_3043_114145" fill="white">
<path fill-rule="evenodd" clip-rule="evenodd" d="M7.803 8.33911C8.18638 9.2038 8.77315 10.0661 9.54592 10.8388C10.3187 11.6116 11.1809 12.1984 12.0456 12.5818L12.7279 11.8995C13.509 11.1184 14.7753 11.1184 15.5563 11.8995L16.9705 13.3137C17.7516 14.0947 17.7516 15.3611 16.9705 16.1421L16.2634 16.8492C14.3108 18.8019 9.87866 17.5355 6.36394 14.0208C2.84923 10.5061 1.5829 6.07393 3.53552 4.12131L4.24262 3.4142C5.02367 2.63315 6.29 2.63316 7.07105 3.4142L8.48526 4.82842C9.26631 5.60947 9.26631 6.8758 8.48526 7.65684L7.803 8.33911Z"/>
</mask>
<path d="M7.803 8.33911L6.74234 7.27845L6.01458 8.00621L6.43173 8.94709L7.803 8.33911ZM12.0456 12.5818L11.4377 13.953L12.3785 14.3702L13.1063 13.6424L12.0456 12.5818ZM12.7279 11.8995L13.7886 12.9601L12.7279 11.8995ZM15.5563 11.8995L14.4957 12.9601L15.5563 11.8995ZM16.9705 13.3137L18.0312 12.253L16.9705 13.3137ZM8.48526 7.65684L9.54592 8.7175L8.48526 7.65684ZM6.43173 8.94709C6.89368 9.98899 7.58873 11.0029 8.48526 11.8995L10.6066 9.77816C9.95758 9.12916 9.47907 8.41862 9.17426 7.73113L6.43173 8.94709ZM8.48526 11.8995C9.3818 12.796 10.3958 13.4911 11.4377 13.953L12.6536 11.2105C11.9661 10.9057 11.2556 10.4272 10.6066 9.77816L8.48526 11.8995ZM13.1063 13.6424L13.7886 12.9601L11.6672 10.8388L10.985 11.5211L13.1063 13.6424ZM13.7886 12.9601C13.9838 12.7649 14.3004 12.7649 14.4957 12.9601L16.617 10.8388C15.2502 9.47199 13.0341 9.47199 11.6672 10.8388L13.7886 12.9601ZM14.4957 12.9601L15.9099 14.3744L18.0312 12.253L16.617 10.8388L14.4957 12.9601ZM15.9099 14.3744C16.1051 14.5696 16.1051 14.8862 15.9099 15.0815L18.0312 17.2028C19.398 15.836 19.398 13.6199 18.0312 12.253L15.9099 14.3744ZM15.9099 15.0815L15.2028 15.7886L17.3241 17.9099L18.0312 17.2028L15.9099 15.0815ZM15.2028 15.7886C14.7866 16.2048 13.8706 16.4884 12.3116 16.043C10.8084 15.6135 9.03641 14.572 7.4246 12.9601L5.30328 15.0815C7.20619 16.9844 9.40761 18.3333 11.4874 18.9276C13.5113 19.5058 15.7877 19.4463 17.3241 17.9099L15.2028 15.7886ZM7.4246 12.9601C5.8128 11.3483 4.77123 9.57632 4.34176 8.07319C3.89633 6.51417 4.17997 5.59818 4.59618 5.18197L2.47486 3.06065C0.938441 4.59707 0.878938 6.87346 1.45719 8.89735C2.05142 10.9771 3.40037 13.1786 5.30328 15.0815L7.4246 12.9601ZM4.59618 5.18197L5.30328 4.47486L3.18196 2.35354L2.47486 3.06065L4.59618 5.18197ZM5.30328 4.47486C5.49855 4.2796 5.81513 4.2796 6.01039 4.47486L8.13171 2.35354C6.76488 0.986709 4.5488 0.986708 3.18196 2.35354L5.30328 4.47486ZM6.01039 4.47486L7.4246 5.88908L9.54592 3.76776L8.13171 2.35354L6.01039 4.47486ZM7.4246 5.88908C7.61987 6.08434 7.61987 6.40092 7.4246 6.59618L9.54592 8.7175C10.9128 7.35067 10.9128 5.13459 9.54592 3.76776L7.4246 5.88908ZM7.4246 6.59618L6.74234 7.27845L8.86366 9.39977L9.54592 8.7175L7.4246 6.59618Z" fill="#444444" mask="url(#path-1-inside-1_3043_114145)"/>
</g>
<path id="Vector 36" d="M11 5.5C12 5.64583 14.1 6.55 14.5 9" stroke="#444444" stroke-width="1.5" stroke-linecap="round"/>
<path id="Vector 37" d="M11 2.5C12.8571 2.77083 16.7571 4.45 17.5 9" stroke="#444444" stroke-width="1.5" stroke-linecap="round"/>
</g>
</svg>
