<svg width="101" height="100" viewBox="0 0 101 100" fill="none" xmlns="http://www.w3.org/2000/svg">
<path fill-rule="evenodd" clip-rule="evenodd" d="M50.0781 15C51.2779 15 52.2506 15.9726 52.2506 17.1724V21.5172C52.2506 22.717 51.2779 23.6897 50.0781 23.6897C48.8783 23.6897 47.9057 22.717 47.9057 21.5172V17.1724C47.9057 15.9726 48.8783 15 50.0781 15ZM33.9207 18.2437C34.9597 17.6438 36.2884 17.9998 36.8882 19.0388L39.0607 22.8016C39.6606 23.8406 39.3046 25.1693 38.2655 25.7691C37.2265 26.369 35.8978 26.013 35.2979 24.974L33.1255 21.2113C32.5256 20.1722 32.8816 18.8436 33.9207 18.2437ZM24.502 25.9251C23.5829 25.1538 22.2126 25.2737 21.4414 26.1928C20.6702 27.1119 20.7901 28.4822 21.7092 29.2534L25.0375 32.0462C25.9566 32.8174 27.3269 32.6975 28.0981 31.7784C28.8693 30.8593 28.7494 29.4891 27.8303 28.7179L24.502 25.9251ZM66.2356 18.2437C65.1966 17.6438 63.8679 17.9998 63.268 19.0388L61.0956 22.8016C60.4957 23.8406 60.8517 25.1693 61.8908 25.7691C62.9298 26.369 64.2585 26.013 64.8584 24.974L67.0308 21.2113C67.6307 20.1722 67.2747 18.8436 66.2356 18.2437ZM75.6547 25.9251C76.5738 25.1539 77.944 25.2738 78.7152 26.1929C79.4864 27.112 79.3666 28.4822 78.4475 29.2534L75.1191 32.0462C74.2 32.8174 72.8298 32.6976 72.0586 31.7785C71.2874 30.8594 71.4072 29.4891 72.3263 28.7179L75.6547 25.9251Z" fill="#FFDA60"/>
<rect x="23.0781" y="46" width="54" height="40" rx="3" fill="url(#paint0_linear_2361_96658)"/>
<rect x="19.0781" y="45" width="62" height="16" rx="3" fill="url(#paint1_linear_2361_96658)"/>
<rect x="42.5781" y="45" width="16" height="41" rx="2" fill="url(#paint2_linear_2361_96658)"/>
<path fill-rule="evenodd" clip-rule="evenodd" d="M37.3396 42.5H45.6818C45.0907 41.7386 44.4073 40.9901 43.6478 40.3104C41.7059 38.5727 39.5158 37.5 37.3396 37.5C35.6964 37.5 34.5786 38.7423 34.5786 39.9959C34.5786 41.2575 35.7005 42.5 37.3396 42.5ZM37.3396 32.5C41.1655 32.5 44.4932 34.3572 46.9821 36.5845C48.1574 37.6363 49.2013 38.8185 50.0785 40.0301C50.9557 38.8185 51.9995 37.6363 53.1749 36.5845C55.6637 34.3572 58.9914 32.5 62.8174 32.5C66.975 32.5 70.5783 35.7402 70.5783 39.9959C70.5783 44.2519 66.979 47.5 62.8174 47.5H53.7195H50.128H50.0289H46.4374H37.3396C33.1779 47.5 29.5786 44.2519 29.5786 39.9959C29.5786 35.7402 33.182 32.5 37.3396 32.5ZM62.8174 42.5H54.4751C55.0663 41.7386 55.7497 40.9901 56.5092 40.3104C58.451 38.5727 60.6411 37.5 62.8174 37.5C64.4605 37.5 65.5783 38.7423 65.5783 39.9959C65.5783 41.2575 64.4565 42.5 62.8174 42.5Z" fill="url(#paint3_linear_2361_96658)"/>
<defs>
<linearGradient id="paint0_linear_2361_96658" x1="39.2781" y1="56.9321" x2="59.4623" y2="88.1685" gradientUnits="userSpaceOnUse">
<stop stop-color="#FF6B78"/>
<stop offset="1" stop-color="#F44545"/>
</linearGradient>
<linearGradient id="paint1_linear_2361_96658" x1="37.6781" y1="49.3728" x2="41.473" y2="66.2301" gradientUnits="userSpaceOnUse">
<stop stop-color="#FF6B78"/>
<stop offset="1" stop-color="#F44545"/>
</linearGradient>
<linearGradient id="paint2_linear_2361_96658" x1="45.3474" y1="48.1538" x2="67.3206" y2="58.6888" gradientUnits="userSpaceOnUse">
<stop stop-color="#FFC8CD"/>
<stop offset="1" stop-color="#FF848F"/>
</linearGradient>
<linearGradient id="paint3_linear_2361_96658" x1="43.5781" y1="37.5" x2="59.0781" y2="48" gradientUnits="userSpaceOnUse">
<stop stop-color="#FFC9CE"/>
<stop offset="1" stop-color="#FF9CA5"/>
</linearGradient>
</defs>
</svg>
