<svg width="61" height="60" viewBox="0 0 61 60" fill="none" xmlns="http://www.w3.org/2000/svg">
<path d="M60.5 30C60.5 46.5685 47.0685 60 30.5 60C13.9315 60 0.5 46.5685 0.5 30C0.5 13.4315 13.9315 0 30.5 0C47.0685 0 60.5 13.4315 60.5 30ZM6.5 30C6.5 43.2548 17.2452 54 30.5 54C43.7548 54 54.5 43.2548 54.5 30C54.5 16.7452 43.7548 6 30.5 6C17.2452 6 6.5 16.7452 6.5 30Z" fill="#EEEEEE"/>
<path d="M30.5 3C30.5 1.34315 29.1535 -0.0155383 27.5049 0.149874C23.7307 0.528571 20.053 1.62066 16.6708 3.3776C12.3988 5.59671 8.72357 8.81129 5.95551 12.7498C3.18745 16.6884 1.40785 21.2352 0.767008 26.0064C0.126165 30.7775 0.642902 35.6328 2.27358 40.1621C3.90425 44.6915 6.60097 48.7619 10.136 52.0297C13.671 55.2974 17.9405 57.6664 22.5838 58.9367C27.2272 60.207 32.108 60.3412 36.8141 59.328C40.5401 58.5258 44.0699 57.0231 47.2195 54.909C48.5951 53.9857 48.7666 52.0805 47.7104 50.8039V50.8039C46.6543 49.5272 44.7716 49.3666 43.3733 50.2554C40.9829 51.7745 38.3356 52.863 35.5513 53.4624C31.7864 54.273 27.8817 54.1656 24.167 53.1494C20.4524 52.1332 17.0368 50.2379 14.2088 47.6237C11.3808 45.0096 9.2234 41.7532 7.91886 38.1297C6.61432 34.5062 6.20093 30.622 6.71361 26.8051C7.22628 22.9882 8.64996 19.3507 10.8644 16.1999C13.0789 13.049 16.019 10.4774 19.4366 8.70208C21.964 7.3892 24.6976 6.54038 27.5078 6.18726C29.1517 5.98068 30.5 4.65685 30.5 3V3Z" fill="#EB5147"/>
</svg>
