<svg width="60" height="60" viewBox="0 0 60 60" fill="none" xmlns="http://www.w3.org/2000/svg">
<circle cx="28" cy="32" r="28" fill="#F8F8F8"/>
<circle opacity="0.5" cx="27.9357" cy="32.0001" r="11.6662" fill="#DBDBDB"/>
<circle opacity="0.5" cx="27.9355" cy="32.0009" r="8.33297" fill="#DDDDDD"/>
<path fill-rule="evenodd" clip-rule="evenodd" d="M12.9995 21.1386C12.9995 20.6942 13.3597 20.334 13.8041 20.334C14.2485 20.334 14.6087 20.6942 14.6087 21.1386V25.9652H15.4148V21.1386C15.4148 20.6942 15.775 20.334 16.2194 20.334C16.6637 20.334 17.024 20.6942 17.024 21.1386V25.9652H17.8268V21.1386C17.8268 20.6942 18.187 20.334 18.6314 20.334C19.0757 20.334 19.436 20.6942 19.436 21.1386V25.9652H19.4363V26.7699C19.4363 28.2512 18.4356 29.4988 17.0732 29.8734C17.0812 29.9102 17.0869 29.9479 17.0901 29.9863L18.0631 41.6628C18.153 42.7419 17.3015 43.6674 16.2186 43.6674C15.1358 43.6674 14.2843 42.7419 14.3742 41.6628L15.3472 29.9863C15.3504 29.948 15.3561 29.9104 15.364 29.8737C14.001 29.4996 12.9995 28.2517 12.9995 26.7699V25.9662V25.9652V21.1386Z" fill="url(#paint0_linear_2965_9527)"/>
<path fill-rule="evenodd" clip-rule="evenodd" d="M40.0505 29.8785C41.736 29.4057 42.9982 27.4734 42.9982 25.1616C42.9982 22.4954 41.3193 20.334 39.2484 20.334C37.1774 20.334 35.4985 22.4954 35.4985 25.1616C35.4985 27.4734 36.7607 29.4057 38.4463 29.8785C38.4437 29.8962 38.4417 29.9141 38.4403 29.9322L37.5186 41.7981C37.4403 42.8062 38.2372 43.6674 39.2484 43.6674C40.2595 43.6674 41.0564 42.8062 40.9781 41.7981L40.0564 29.9322C40.055 29.9141 40.053 29.8962 40.0505 29.8785Z" fill="url(#paint1_linear_2965_9527)"/>
<path d="M27.5944 36.7298C26.0297 36.2135 22.519 34.0414 22.519 30.3596C22.519 28.7329 23.8631 27.418 25.5282 27.418C26.5112 27.418 27.3838 27.8758 27.9355 28.5965C28.4771 27.8855 29.3598 27.418 30.3428 27.418C32.0078 27.418 33.3519 28.7329 33.3519 30.3596C33.3519 34.0414 29.8413 36.2135 28.2665 36.7298C28.0859 36.7882 27.775 36.7882 27.5944 36.7298Z" fill="#CCCCCC"/>
<circle cx="46" cy="14" r="13.3" fill="#3B4A65" stroke="white" stroke-width="1.4"/>
<path d="M46 9V19" stroke="white" stroke-width="1.4" stroke-linecap="round"/>
<path d="M41 14H51" stroke="white" stroke-width="1.4" stroke-linecap="round"/>
<defs>
<linearGradient id="paint0_linear_2965_9527" x1="16.2179" y1="20.334" x2="16.2179" y2="43.6674" gradientUnits="userSpaceOnUse">
<stop stop-color="#CCCCCC"/>
<stop offset="1" stop-color="#DDDDDD"/>
</linearGradient>
<linearGradient id="paint1_linear_2965_9527" x1="39.2484" y1="20.334" x2="39.2484" y2="43.6674" gradientUnits="userSpaceOnUse">
<stop stop-color="#CCCCCC"/>
<stop offset="1" stop-color="#DDDDDD"/>
</linearGradient>
</defs>
</svg>
