<svg width="101" height="100" viewBox="0 0 101 100" fill="none" xmlns="http://www.w3.org/2000/svg">
<g clip-path="url(#clip0_2361_96701)">
<path fill-rule="evenodd" clip-rule="evenodd" d="M40.422 85.5722C40.422 85.5655 40.4167 85.5599 40.41 85.5595C34.7115 85.1783 30.2073 80.4352 30.2073 74.64V65.2174C30.2073 60.0001 34.4368 55.7706 39.6541 55.7706C40.1328 55.7706 40.5786 55.5268 40.8369 55.1237L49.5992 41.4503C50.0118 40.8065 50.8056 40.5164 51.4819 40.8731C52.5554 41.4395 54.0418 42.5115 54.5313 44.2629C55.2242 46.742 53.8907 50.8503 52.8393 53.49C52.3718 54.6637 53.2214 55.9991 54.4847 55.9991H65.7933C69.5892 55.9991 72.4312 59.4797 71.6721 63.199L67.8746 81.806C67.4257 84.0052 65.4912 85.5849 63.2466 85.5849H40.4346C40.4276 85.5849 40.422 85.5792 40.422 85.5722Z" fill="url(#paint0_linear_2361_96701)"/>
<rect x="28.3608" y="54.998" width="9.44681" height="31.1025" rx="1.70548" fill="url(#paint1_linear_2361_96701)"/>
<path d="M48.6347 13.9719C49.2925 12.8424 50.9244 12.8424 51.5822 13.9719L53.8724 17.9042C54.1133 18.318 54.5172 18.6114 54.9851 18.7128L59.4326 19.6759C60.71 19.9526 61.2142 21.5043 60.3434 22.479L57.3113 25.8728C56.9923 26.2299 56.8381 26.7045 56.8863 27.1809L57.3447 31.7088C57.4763 33.0092 56.1562 33.9683 54.9601 33.4412L50.7962 31.6062C50.358 31.413 49.8589 31.413 49.4207 31.6062L45.2568 33.4412C44.0607 33.9683 42.7406 33.0092 42.8722 31.7088L43.3306 27.1809C43.3789 26.7045 43.2246 26.2299 42.9056 25.8728L39.8735 22.479C39.0027 21.5043 39.5069 19.9526 40.7843 19.6759L45.2318 18.7128C45.6997 18.6114 46.1036 18.318 46.3445 17.9042L48.6347 13.9719Z" fill="url(#paint2_linear_2361_96701)"/>
<path d="M24.7416 21.4908C25.4045 20.3894 27.0014 20.3894 27.6642 21.4908L29.4817 24.5112C29.7199 24.9069 30.1083 25.1891 30.5582 25.2933L33.9923 26.0887C35.2447 26.3788 35.7381 27.8974 34.8955 28.8682L32.5846 31.5305C32.2819 31.8792 32.1335 32.3358 32.1734 32.7959L32.4782 36.308C32.5894 37.5888 31.2975 38.5273 30.1138 38.0258L26.8682 36.6508C26.443 36.4706 25.9628 36.4706 25.5376 36.6508L22.292 38.0258C21.1084 38.5273 19.8165 37.5888 19.9276 36.308L20.2324 32.7959C20.2723 32.3358 20.124 31.8792 19.8212 31.5305L17.5103 28.8682C16.6677 27.8974 17.1612 26.3788 18.4135 26.0887L21.8476 25.2933C22.2975 25.1891 22.686 24.9069 22.9241 24.5112L24.7416 21.4908Z" fill="url(#paint3_linear_2361_96701)"/>
<path d="M72.5556 21.4908C73.2184 20.3894 74.8153 20.3894 75.4782 21.4908L77.2957 24.5112C77.5338 24.9069 77.9223 25.1891 78.3722 25.2933L81.8063 26.0887C83.0586 26.3788 83.5521 27.8974 82.7094 28.8682L80.3985 31.5305C80.0958 31.8792 79.9475 32.3358 79.9874 32.7959L80.2922 36.308C80.4033 37.5888 79.1114 38.5273 77.9278 38.0258L74.6822 36.6508C74.257 36.4706 73.7768 36.4706 73.3515 36.6508L70.106 38.0258C68.9223 38.5273 67.6304 37.5888 67.7416 36.308L68.0463 32.7959C68.0863 32.3358 67.9379 31.8792 67.6352 31.5305L65.3243 28.8682C64.4817 27.8974 64.9751 26.3788 66.2274 26.0887L69.6616 25.2933C70.1115 25.1891 70.4999 24.9069 70.738 24.5112L72.5556 21.4908Z" fill="url(#paint4_linear_2361_96701)"/>
</g>
<defs>
<linearGradient id="paint0_linear_2361_96701" x1="51.0013" y1="40.7188" x2="51.0013" y2="85.5849" gradientUnits="userSpaceOnUse">
<stop stop-color="#FFE7D6"/>
<stop offset="1" stop-color="#FFD9BE"/>
</linearGradient>
<linearGradient id="paint1_linear_2361_96701" x1="33.0842" y1="54.998" x2="33.0842" y2="86.1006" gradientUnits="userSpaceOnUse">
<stop stop-color="#85B9F5"/>
<stop offset="1" stop-color="#70ABF1"/>
</linearGradient>
<linearGradient id="paint2_linear_2361_96701" x1="50.1085" y1="11.4414" x2="50.1085" y2="37.0693" gradientUnits="userSpaceOnUse">
<stop stop-color="#FFE141"/>
<stop offset="1" stop-color="#FEC600"/>
</linearGradient>
<linearGradient id="paint3_linear_2361_96701" x1="26.2029" y1="19.0625" x2="26.2029" y2="41.2501" gradientUnits="userSpaceOnUse">
<stop stop-color="#FFE141"/>
<stop offset="1" stop-color="#FEC600"/>
</linearGradient>
<linearGradient id="paint4_linear_2361_96701" x1="74.0169" y1="19.0625" x2="74.0169" y2="41.2501" gradientUnits="userSpaceOnUse">
<stop stop-color="#FFE141"/>
<stop offset="1" stop-color="#FEC600"/>
</linearGradient>
<clipPath id="clip0_2361_96701">
<rect width="70" height="74" fill="white" transform="translate(15.0781 13)"/>
</clipPath>
</defs>
</svg>
