<svg width="60" height="60" viewBox="0 0 60 60" fill="none" xmlns="http://www.w3.org/2000/svg">
<path d="M22 42.2564L31 20H37.5L31.9487 37.0897H39.5L24.5897 55.7692L30.1538 42.2564H22Z" fill="url(#paint0_linear_3272_10421)"/>
<path d="M45.5 50.25C45.9882 50.9822 47 51.5 47 51.5C47 51.5 45.9753 52.0343 45.5 52.75C45.0009 53.5015 44.5 55.25 44.5 55.25C44.5 55.25 43.9882 53.4822 43.5 52.75C43.0118 52.0178 42 51.5 42 51.5C42 51.5 43.1111 50.9822 43.5993 50.25C44.0874 49.5178 44.5 47.75 44.5 47.75C44.5 47.75 45.0118 49.5178 45.5 50.25Z" fill="url(#paint1_linear_3272_10421)"/>
<path d="M14.5 39.25C14.9882 39.9822 16 40.5 16 40.5C16 40.5 14.9753 41.0343 14.5 41.75C14.0009 42.5015 13.5 44.25 13.5 44.25C13.5 44.25 12.9882 42.4822 12.5 41.75C12.0118 41.0178 11 40.5 11 40.5C11 40.5 12.1111 39.9822 12.5993 39.25C13.0874 38.5178 13.5 36.75 13.5 36.75C13.5 36.75 14.0118 38.5178 14.5 39.25Z" fill="url(#paint2_linear_3272_10421)"/>
<path fill-rule="evenodd" clip-rule="evenodd" d="M46.1297 34.3839C46.4001 34.408 46.674 34.4204 46.9507 34.4204C51.948 34.4204 55.9991 30.3948 55.9991 25.4289C55.9991 20.4631 51.948 16.4375 46.9507 16.4375C46.6617 16.4375 46.3758 16.451 46.0937 16.4773C45.6923 11.8803 41.8098 8.27344 37.0796 8.27344C34.963 8.27344 33.0162 8.99561 31.475 10.2055C29.6111 7.08876 26.1888 5 22.2755 5C16.3697 5 11.582 9.75753 11.582 15.6262C11.582 16.5083 11.6902 17.3652 11.894 18.1847C7.98435 18.8172 5 22.1883 5 26.2522C5 30.7665 8.68281 34.4262 13.2258 34.4262C13.3126 34.4262 13.3991 34.4248 13.4852 34.4222H46.1297V34.3839Z" fill="url(#paint3_linear_3272_10421)"/>
<defs>
<linearGradient id="paint0_linear_3272_10421" x1="24.9167" y1="21.7885" x2="47.0036" y2="37.2673" gradientUnits="userSpaceOnUse">
<stop stop-color="#FFE661"/>
<stop offset="1" stop-color="#F9C91F"/>
</linearGradient>
<linearGradient id="paint1_linear_3272_10421" x1="42.8333" y1="48.125" x2="47.755" y2="52.825" gradientUnits="userSpaceOnUse">
<stop stop-color="#FFE661"/>
<stop offset="1" stop-color="#F9C91F"/>
</linearGradient>
<linearGradient id="paint2_linear_3272_10421" x1="11.8333" y1="37.125" x2="16.755" y2="41.825" gradientUnits="userSpaceOnUse">
<stop stop-color="#FFE661"/>
<stop offset="1" stop-color="#F9C91F"/>
</linearGradient>
<linearGradient id="paint3_linear_3272_10421" x1="29.677" y1="5" x2="29.677" y2="34.4262" gradientUnits="userSpaceOnUse">
<stop stop-color="#9ACDF1"/>
<stop offset="1" stop-color="#CCEAFF"/>
</linearGradient>
</defs>
</svg>
