<svg width="24" height="24" viewBox="0 0 24 24" fill="none" xmlns="http://www.w3.org/2000/svg">
<path d="M3.41026 18.4625C3.24786 18.1812 3.34424 17.8215 3.62554 17.659L7.70005 15.3064L9.17032 17.8532L5.0958 20.2058C4.81451 20.3683 4.45483 20.2719 4.29243 19.9906L3.41026 18.4625Z" fill="url(#paint0_linear_2838_127595)"/>
<rect width="11.1743" height="2.94072" transform="matrix(0.866007 -0.500032 0.499968 0.866044 7.69922 15.3047)" fill="url(#paint1_linear_2838_127595)"/>
<path d="M17.376 9.71875L18.9039 8.83652C19.1852 8.6741 19.5449 8.77048 19.7073 9.05178L20.5895 10.5799C20.7519 10.8612 20.6555 11.2209 20.3742 11.3833L18.8462 12.2655L17.376 9.71875Z" fill="url(#paint2_linear_2838_127595)"/>
<path fill-rule="evenodd" clip-rule="evenodd" d="M10.2354 3.66234C10.2354 4.66375 10.916 5.50616 11.8399 5.75209C12.0438 6.68448 12.8743 7.38249 13.8678 7.38249H16.7388C16.9234 7.79053 17.334 8.07444 17.811 8.07444H18.5028C18.8085 8.07444 19.0564 7.8266 19.0564 7.52088C19.0564 6.34468 18.1393 5.38268 16.9812 5.31093V5.30664H16.8421H16.7766C16.7974 5.19408 16.8082 5.07806 16.8082 4.9595C16.8082 3.90858 15.9563 3.05664 14.9055 3.05664C14.7616 3.05664 14.6214 3.07262 14.4866 3.10291C14.2401 2.17985 13.3982 1.5 12.3975 1.5C11.2034 1.5 10.2354 2.46811 10.2354 3.66234Z" fill="url(#paint3_linear_2838_127595)"/>
<defs>
<linearGradient id="paint0_linear_2838_127595" x1="5.40813" y1="16.6298" x2="6.87858" y2="19.1765" gradientUnits="userSpaceOnUse">
<stop stop-color="#F5B24C"/>
<stop offset="1" stop-color="#D88F22"/>
</linearGradient>
<linearGradient id="paint1_linear_2838_127595" x1="5.58713" y1="0" x2="5.58713" y2="2.94072" gradientUnits="userSpaceOnUse">
<stop stop-color="#FFF8F3"/>
<stop offset="1" stop-color="#EEE5DF"/>
</linearGradient>
<linearGradient id="paint2_linear_2838_127595" x1="18.3946" y1="9.13059" x2="19.8651" y2="11.6773" gradientUnits="userSpaceOnUse">
<stop stop-color="#FF8181"/>
<stop offset="1" stop-color="#F85353"/>
</linearGradient>
<linearGradient id="paint3_linear_2838_127595" x1="14.6459" y1="1.5" x2="14.6459" y2="8.07444" gradientUnits="userSpaceOnUse">
<stop stop-color="#F7F9FF"/>
<stop offset="1" stop-color="#EEF1F5"/>
</linearGradient>
</defs>
</svg>
