<svg width="77" height="77" viewBox="0 0 77 77" fill="none" xmlns="http://www.w3.org/2000/svg">
<rect x="21.9375" y="21.7109" width="40" height="40" rx="8" fill="#F8F8F8"/>
<path d="M32.6658 32.629C32.7613 33.2165 33.6341 36.3045 34.2739 36.1921C34.9137 36.0796 35.2729 32.6801 34.9879 32.048C34.7028 31.4159 34.1009 31.0519 33.4814 31.2479C32.8623 31.4437 32.5703 32.0415 32.6658 32.629Z" fill="#93DE64"/>
<path d="M29.3832 35.1627C29.8182 35.559 32.3921 37.4141 32.8185 36.9338C33.2449 36.4535 31.4337 33.6 30.8244 33.2856C30.2152 32.9713 29.5252 33.0593 29.1659 33.5918C28.8068 34.124 28.9481 34.7664 29.3832 35.1627Z" fill="#93DE64"/>
<path d="M30.2053 32.6837C30.5308 33.29 32.6474 36.337 33.3045 35.9732C33.9615 35.6095 33.0744 31.7582 32.5249 31.1745C31.9754 30.5908 31.1803 30.4194 30.5769 30.8669C29.9739 31.314 29.8798 32.0774 30.2053 32.6837Z" fill="#77D241"/>
<path d="M36.6841 33.7642C33.7445 31.927 30.4811 33.8902 29.8405 36.6154C29.1288 39.6447 36.1139 49.3803 38.9658 48.0225C41.8177 46.6647 39.6236 35.6015 36.6841 33.7642Z" fill="url(#paint0_linear_2199_78219)"/>
<mask id="mask0_2199_78219" style="mask-type:alpha" maskUnits="userSpaceOnUse" x="29" y="33" width="11" height="19">
<path d="M36.7002 33.8916C34.4895 32.5104 30.1683 34.6852 29.6093 36.4404C29.0987 38.6136 37.1676 51.7533 38.7493 51.4955C40.3309 51.2377 38.9109 35.2727 36.7002 33.8916Z" fill="#FFA24B"/>
</mask>
<g mask="url(#mask0_2199_78219)">
<path d="M30.5156 39.6797L32.4053 39.0005" stroke="#F4851F" stroke-width="1.14067" stroke-linecap="round"/>
<path d="M37.2109 39.3711L39.1006 38.6919" stroke="#EE790D" stroke-width="1.14067" stroke-linecap="round"/>
<path d="M35.1367 42.3711L37.0264 41.6919" stroke="#EE790D" stroke-width="0.570334" stroke-linecap="round"/>
<path d="M34.7148 46.875L36.6045 46.1958" stroke="#EE790D" stroke-width="0.570334" stroke-linecap="round"/>
</g>
<path d="M43.7252 34.6932C42.8954 35.4546 41.4214 35.3366 41.4214 35.3366C41.4214 35.3366 41.2927 33.984 42.1225 33.2225C42.9523 32.461 44.4263 32.5791 44.4263 32.5791C44.4263 32.5791 44.555 33.9317 43.7252 34.6932Z" fill="url(#paint1_linear_2199_78219)"/>
<path d="M39.645 34.8555C38.5118 34.8555 37.7932 35.1434 36.8828 35.7004C35.6079 36.4803 34.6871 37.7802 34.6163 39.5351C34.5454 41.29 35.7495 43.5648 36.5286 44.5397C37.3077 45.5147 38.4409 46.6196 39.645 46.6196C40.6083 46.6196 41.8407 46.1863 42.3364 45.9696C42.3364 45.9696 43.8946 46.6196 44.6029 46.6196C45.3112 46.6196 46.3028 46.4896 47.7193 44.9297C49.1359 43.3698 49.6317 41.29 49.8441 39.9901C50.0566 38.6902 49.3483 37.0003 48.2859 36.1554C47.2235 35.3104 46.3736 34.8555 45.0987 34.8555C43.8238 34.8555 43.6822 35.1804 42.4781 35.1804C41.274 35.1804 41.0616 34.8555 39.645 34.8555Z" fill="url(#paint2_linear_2199_78219)"/>
<g filter="url(#filter0_f_2199_78219)">
<ellipse cx="1.33789" cy="1.68293" rx="1.33789" ry="1.68293" transform="matrix(0.67727 0.735734 -0.790347 0.612659 39.1367 36.2539)" fill="#FF7F57"/>
</g>
<circle cx="50.4732" cy="40.1552" r="3.76691" transform="rotate(29.1209 50.4732 40.1552)" fill="#FDF1C8"/>
<path d="M53.6853 34.7573C51.5541 33.5701 48.1717 36.6685 47.0603 38.5407L53.6418 42.2071C55.8297 37.881 54.7746 35.3093 53.6853 34.7573Z" fill="#FDF1C8"/>
<circle cx="50.1058" cy="40.8129" r="2.15122" transform="rotate(29.1209 50.1058 40.8129)" fill="#FFC82F"/>
<path d="M53.4833 40.8125H33.4256H33.117H31.2824C30.2291 40.8125 29.3461 41.6312 29.4179 42.6821C29.7541 47.5967 32.6059 54.8125 42.3828 54.8125C52.1597 54.8125 55.0116 47.5967 55.3477 42.6821C55.4196 41.6312 54.5366 40.8125 53.4833 40.8125Z" fill="url(#paint3_linear_2199_78219)"/>
<defs>
<filter id="filter0_f_2199_78219" x="0.486984" y="0.229172" width="76.4518" height="76.0807" filterUnits="userSpaceOnUse" color-interpolation-filters="sRGB">
<feFlood flood-opacity="0" result="BackgroundImageFix"/>
<feBlend mode="normal" in="SourceGraphic" in2="BackgroundImageFix" result="shape"/>
<feGaussianBlur stdDeviation="18.3073" result="effect1_foregroundBlur_2199_78219"/>
</filter>
<linearGradient id="paint0_linear_2199_78219" x1="32.7417" y1="33.3322" x2="38.1322" y2="48.3288" gradientUnits="userSpaceOnUse">
<stop stop-color="#FFB155"/>
<stop offset="1" stop-color="#FF6610"/>
</linearGradient>
<linearGradient id="paint1_linear_2199_78219" x1="44.4263" y1="32.5791" x2="41.679" y2="35.573" gradientUnits="userSpaceOnUse">
<stop stop-color="#A8EA88"/>
<stop offset="1" stop-color="#67CA57"/>
</linearGradient>
<linearGradient id="paint2_linear_2199_78219" x1="42.2476" y1="34.8555" x2="42.2476" y2="46.6196" gradientUnits="userSpaceOnUse">
<stop stop-color="#FF5252"/>
<stop offset="1" stop-color="#EF453A"/>
</linearGradient>
<linearGradient id="paint3_linear_2199_78219" x1="42.3828" y1="40.8125" x2="42.3828" y2="54.8125" gradientUnits="userSpaceOnUse">
<stop stop-color="#E5EBF2"/>
<stop offset="1" stop-color="#D4DBE2"/>
</linearGradient>
</defs>
</svg>
