<svg width="48" height="48" viewBox="0 0 48 48" fill="none" xmlns="http://www.w3.org/2000/svg">
<rect x="5" y="5.41309" width="31.931" height="37.5862" rx="2" fill="white" stroke="#8EB0C8" stroke-width="2"/>
<path d="M11.0688 5C11.0688 3.89543 11.9643 3 13.0688 3H28.8619C29.9665 3 30.8619 3.89543 30.8619 5V6.65517C30.8619 7.75974 29.9665 8.65517 28.8619 8.65517H13.0688C11.9643 8.65517 11.0688 7.75974 11.0688 6.65517V5Z" fill="#6F8BA6"/>
<path d="M11.4546 15.4241C11.4546 14.7379 12.0108 14.1816 12.697 14.1816H30.091C30.7771 14.1816 31.3334 14.7379 31.3334 15.4241C31.3334 16.1102 30.7771 16.6665 30.091 16.6665H12.697C12.0108 16.6665 11.4546 16.1102 11.4546 15.4241Z" fill="#DBE4EC"/>
<path d="M11.4546 21.636C11.4546 20.9498 12.0108 20.3936 12.697 20.3936H23.8788C24.565 20.3936 25.1213 20.9498 25.1213 21.636C25.1213 22.3222 24.565 22.8784 23.8788 22.8784H12.697C12.0108 22.8784 11.4546 22.3222 11.4546 21.636Z" fill="#DBE4EC"/>
<path d="M11.4546 27.8489C11.4546 27.1627 12.0108 26.6064 12.697 26.6064H18.9091C19.5953 26.6064 20.1516 27.1627 20.1516 27.8489C20.1516 28.535 19.5953 29.0913 18.9091 29.0913H12.697C12.0108 29.0913 11.4546 28.535 11.4546 27.8489Z" fill="#DBE4EC"/>
<path d="M44.2928 43.2929C44.6833 43.6835 45.3165 43.6835 45.707 43.2929C46.0975 42.9024 46.0975 42.2693 45.707 41.8787L44.2928 43.2929ZM38.6376 37.6378L44.2928 43.2929L45.707 41.8787L40.0518 36.2236L38.6376 37.6378Z" fill="#3C658B"/>
<circle cx="33.6893" cy="31.2757" r="8.48276" fill="#E7FCFF" fill-opacity="0.5" stroke="#3C658B" stroke-width="2" stroke-miterlimit="10" stroke-linecap="round"/>
</svg>
