<svg width="28" height="28" viewBox="0 0 28 28" fill="none" xmlns="http://www.w3.org/2000/svg">
<circle cx="14.3281" cy="18.8438" r="4.92188" fill="#33D07B"/>
<circle cx="12.8516" cy="17.8594" r="0.492188" fill="#0F8143"/>
<circle cx="15.8047" cy="17.8594" r="0.492188" fill="#0F8143"/>
<rect x="12.6875" y="19.375" width="3.28125" height="0.7875" rx="0.39375" fill="#0F8143"/>
<circle cx="8.42188" cy="9" r="4.92188" fill="#FFE03C"/>
<path d="M9.91941 9.48658C10.1264 9.55385 10.243 9.77908 10.1359 9.96859C9.99787 10.2128 9.80847 10.4261 9.57908 10.5928C9.24272 10.8371 8.83763 10.9688 8.42187 10.9688C8.00612 10.9688 7.60103 10.8371 7.26467 10.5928C7.03528 10.4261 6.84588 10.2128 6.70787 9.96859C6.60077 9.77908 6.71731 9.55385 6.92434 9.48658C7.13137 9.41931 7.34935 9.53902 7.48075 9.71257C7.55038 9.80454 7.63354 9.88637 7.72802 9.95501C7.9297 10.1015 8.17259 10.1805 8.42188 10.1805C8.67116 10.1805 8.91405 10.1015 9.11573 9.95501C9.21021 9.88637 9.29337 9.80454 9.363 9.71257C9.4944 9.53902 9.71238 9.41931 9.91941 9.48658Z" fill="#B08515"/>
<circle cx="6.94531" cy="8.01562" r="0.492188" fill="#B08515"/>
<circle cx="9.89844" cy="8.01562" r="0.492188" fill="#B08515"/>
<circle cx="19.5781" cy="9" r="4.92188" fill="#FF7373"/>
<path d="M21.0757 10.8103C21.2827 10.743 21.3992 10.5178 21.2921 10.3283C21.1541 10.0841 20.9647 9.87079 20.7353 9.70412C20.399 9.45975 19.9939 9.32812 19.5781 9.32812C19.1624 9.32812 18.7573 9.45975 18.4209 9.70412C18.1915 9.87079 18.0021 10.0841 17.8641 10.3283C17.757 10.5178 17.8736 10.743 18.0806 10.8103C18.2876 10.8776 18.5056 10.7579 18.637 10.5843C18.7066 10.4923 18.7898 10.4105 18.8843 10.3419C19.0859 10.1953 19.3288 10.1164 19.5781 10.1164C19.8274 10.1164 20.0703 10.1953 20.272 10.3419C20.3665 10.4105 20.4496 10.4923 20.5193 10.5843C20.6507 10.7579 20.8686 10.8776 21.0757 10.8103Z" fill="#BC2A2A"/>
<circle cx="18.1016" cy="8.01562" r="0.492188" fill="#BC2A2A"/>
<circle cx="21.0547" cy="8.01562" r="0.492188" fill="#BC2A2A"/>
</svg>
