<svg width="24" height="24" viewBox="0 0 24 24" fill="none" xmlns="http://www.w3.org/2000/svg">
<path d="M4 7.30469H20V17.6936C20 18.9976 18.9429 20.0547 17.6389 20.0547H6.36111C5.05711 20.0547 4 18.9976 4 17.6936V7.30469Z" fill="url(#paint0_linear_2838_127050)"/>
<path d="M4 7.30642C4 6.00242 5.05711 4.94531 6.36111 4.94531H17.6389C18.9429 4.94531 20 6.00242 20 7.30642V9.19531H4V7.30642Z" fill="#FF7373"/>
<rect x="6.33398" y="5.41406" width="2.36111" height="2.36111" rx="1.18056" fill="white"/>
<rect x="15.3062" y="5.41406" width="2.36111" height="2.36111" rx="1.18056" fill="white"/>
<rect x="6.80469" y="4" width="1.41667" height="3.06944" rx="0.708333" fill="url(#paint1_linear_2838_127050)"/>
<rect x="15.7769" y="4" width="1.41667" height="3.06944" rx="0.708333" fill="url(#paint2_linear_2838_127050)"/>
<path d="M14.5 15.375C14.5 17.0932 13.3808 18 12.0001 18C10.6194 18 9.5 17.0932 9.5 15.375C9.5 13.6568 12.0001 11 12.0001 11C12.0001 11 14.5 13.6568 14.5 15.375Z" fill="url(#paint3_linear_2838_127050)"/>
<defs>
<linearGradient id="paint0_linear_2838_127050" x1="12" y1="7.30469" x2="12" y2="20.0547" gradientUnits="userSpaceOnUse">
<stop stop-color="#FBFBFB"/>
<stop offset="1" stop-color="#EDEDED"/>
</linearGradient>
<linearGradient id="paint1_linear_2838_127050" x1="7.51302" y1="4" x2="7.51302" y2="7.06944" gradientUnits="userSpaceOnUse">
<stop stop-color="#7B7B7B"/>
<stop offset="1" stop-color="#505050"/>
</linearGradient>
<linearGradient id="paint2_linear_2838_127050" x1="16.4852" y1="4" x2="16.4852" y2="7.06944" gradientUnits="userSpaceOnUse">
<stop stop-color="#7B7B7B"/>
<stop offset="1" stop-color="#505050"/>
</linearGradient>
<linearGradient id="paint3_linear_2838_127050" x1="12" y1="11" x2="12" y2="18" gradientUnits="userSpaceOnUse">
<stop stop-color="#FF8787"/>
<stop offset="1" stop-color="#F35050"/>
</linearGradient>
</defs>
</svg>
