<svg width="32" height="33" viewBox="0 0 32 33" fill="none" xmlns="http://www.w3.org/2000/svg">
<circle cx="16" cy="16.2031" r="16" fill="#3F86F1"/>
<path d="M18.4249 11.0679L25.5265 22.5185C25.733 22.8516 25.4935 23.2821 25.1016 23.2821H10.8984C10.5065 23.2821 10.267 22.8516 10.4735 22.5185L17.5751 11.0679C17.7706 10.7527 18.2294 10.7527 18.4249 11.0679Z" fill="white"/>
<path d="M16.0809 24.2812H6.91907C6.52282 24.2812 6.28402 23.8423 6.49929 23.5096L11.0802 16.43C11.2772 16.1255 11.7228 16.1255 11.9198 16.43L16.5007 23.5096C16.716 23.8423 16.4772 24.2812 16.0809 24.2812Z" fill="white" stroke="#3F86F1" stroke-width="1.4" stroke-linecap="round"/>
<path d="M18.049 10.7815L18.049 9.20947M18.049 9.20947V5.62137C18.049 5.39574 18.2887 5.25087 18.4885 5.35576L21.4325 6.90163C21.6465 7.01402 21.6465 7.32045 21.4325 7.43285L18.049 9.20947Z" stroke="white" stroke-width="1.4" stroke-linecap="round"/>
</svg>
