<svg width="21" height="20" viewBox="0 0 21 20" fill="none" xmlns="http://www.w3.org/2000/svg">
<path d="M2 7.625C2 7.27982 2.27982 7 2.625 7H7.375C7.72018 7 8 7.27982 8 7.625V12.375C8 12.7202 7.72018 13 7.375 13H2.625C2.27982 13 2 12.7202 2 12.375V7.625Z" fill="#7FC2E6"/>
<path d="M4.9248 7.69646C4.9248 7.24021 5.16412 6.8174 5.55529 6.58256L11.5407 2.98918C11.9736 2.72924 12.5246 3.04111 12.5246 3.54613V16.4596C12.5246 16.9646 11.9736 17.2764 11.5407 17.0165L5.55529 13.4231C5.16412 13.1883 4.9248 12.7655 4.9248 12.3092V7.69646Z" fill="#91D5FA"/>
<rect x="19" y="9.45312" width="1.16991" height="3.50973" rx="0.584954" transform="rotate(90 19 9.45312)" fill="#7F83E6"/>
<rect x="16.8533" y="4.77344" width="1.25657" height="2.92477" rx="0.628284" transform="rotate(60 16.8533 4.77344)" fill="#7F83E6"/>
<rect x="17.4817" y="14.1328" width="1.25657" height="2.92477" rx="0.628284" transform="rotate(120 17.4817 14.1328)" fill="#7F83E6"/>
</svg>
