<svg width="64" height="64" viewBox="0 0 64 64" fill="none" xmlns="http://www.w3.org/2000/svg">
<g id="icon/64/&#234;&#179;&#160;&#235;&#159;&#137;&#236;&#163;&#188;&#236;&#158;&#148; /on">
<g id="&#234;&#179;&#160;&#235;&#159;&#137;&#236;&#163;&#188;&#236;&#158;&#148;">
<path id="Vector 2724" d="M21.7861 31.9984C20.4914 27.2512 21.1862 19.3984 21.1862 19.3984H42.7862C42.7862 19.3984 43.481 27.2512 42.1863 31.9984C40.6303 37.7039 33.7863 44.5984 33.7863 44.5984L34 53.998C34 53.998 34.8713 55.637 36.1863 55.9984C38.4831 56.6296 41.5863 57.657 41.5863 58.7984C41.5863 59.3984 35.9903 59.9984 31.9863 59.9984C27.9824 59.9984 22.3863 59.3984 22.3863 58.7984C22.3863 57.5984 25.4895 56.6296 27.7863 55.9984C29.1014 55.637 30 53.998 30 53.998L30.1863 44.5984C30.1863 44.5984 23.3422 37.7039 21.7861 31.9984Z" fill="#DFEAF5"/>
<path id="Ellipse 3425" d="M37 58C37 57.7239 34.792 57.5 32 57.5C29.208 57.5 27 57.7239 27 58C27 58.2761 29.208 58.5 32 58.5C34.792 58.5 37 58.2761 37 58Z" fill="#89B9D2" fill-opacity="0.3"/>
<g id="Mask group">
<mask id="mask0_1482_69000" style="mask-type:alpha" maskUnits="userSpaceOnUse" x="21" y="19" width="22" height="25">
<path id="Vector 2723" d="M21.9788 31.6446C21.3393 29.3558 21.1888 26.3042 21.2006 23.8116C21.2065 22.5679 21.2528 21.4685 21.2975 20.68C21.3199 20.2858 21.3419 19.9695 21.3583 19.7519C21.3627 19.6935 21.3667 19.6422 21.3702 19.5984H42.6022C42.6057 19.6422 42.6097 19.6935 42.6141 19.7519C42.6304 19.9695 42.6524 20.2858 42.6748 20.68C42.7196 21.4685 42.7658 22.5679 42.7718 23.8116C42.7836 26.3042 42.6332 29.3558 41.9937 31.6446C41.3928 33.7955 39.9557 36.1376 38.4177 38.1992C36.8826 40.2572 35.2598 42.0188 34.3042 43.0073C33.8068 43.5217 33.1176 43.7984 32.3955 43.7984H31.9863H31.5661C30.8431 43.7984 30.153 43.521 29.6555 43.0054C28.701 42.0163 27.0813 40.2548 25.549 38.1973C24.014 36.1362 22.5795 33.7948 21.9788 31.6446Z" fill="white" stroke="white" stroke-width="0.4"/>
</mask>
<g mask="url(#mask0_1482_69000)">
<g id="Group 1321316811">
<path id="Vector 1596" d="M41.1974 24.4924C42.8295 24.0334 43.4394 24.509 43.5404 24.8042L44.3756 28.0148L35.9934 34.0844C32.8879 32.8258 26.8426 29.9081 27.5047 28.3056C28.3324 26.3024 32.4863 24.6011 36.033 25.3549C39.5796 26.1086 39.1573 25.0662 41.1974 24.4924Z" fill="#2896DD"/>
<path id="Vector 1595" d="M40.6133 25.9365C43.2466 23.8725 43.8341 25.0765 43.7987 25.9365L41.3565 41.2018C40.7902 42.1335 38.3198 43.9969 32.9683 43.9969C27.6168 43.9969 24.6508 42.7069 23.8368 42.0618L22.2441 27.0116C22.1025 26.7607 22.2229 26.1945 23.8368 25.9365C25.8542 25.614 28.7211 28.1941 31.8003 28.4091C34.8796 28.6241 37.3217 28.5166 40.6133 25.9365Z" fill="#34AAF6"/>
</g>
<path id="Vector 1594" d="M27.3275 27.3518C23.6295 23.7224 21.5268 24.1849 20.6929 24.2561C19.2789 24.7899 15.5617 42.2898 23.6295 44.6452C40.8144 49.6624 57.6731 36.9593 42.9898 32.5825C41.8402 32.2399 31.958 31.8965 27.3275 27.3518Z" fill="#71D0FF"/>
</g>
</g>
<path id="Vector 2725" d="M21.9791 31.9458C21.3393 29.5999 21.1888 26.4727 21.2006 23.9192C21.2065 22.645 21.2528 21.5185 21.2975 20.7107C21.3199 20.3068 21.3419 19.9827 21.3583 19.7598C21.3628 19.6981 21.3669 19.6442 21.3705 19.5984H42.6018C42.6054 19.6442 42.6095 19.6981 42.614 19.7598C42.6304 19.9827 42.6524 20.3068 42.6748 20.7107C42.7196 21.5185 42.7658 22.645 42.7718 23.9192C42.7836 26.4727 42.6332 29.5999 41.9934 31.9458C41.397 34.1325 40.0063 36.5107 38.5178 38.6093C37.0318 40.7045 35.4594 42.5056 34.5142 43.5366C33.9303 44.1735 33.5956 45.009 33.6154 45.8789L33.7623 52.3423C33.7875 53.4487 34.0184 54.6508 34.8813 55.4495C35.2222 55.7651 35.645 56.0571 36.1333 56.1913C37.2797 56.5063 38.6174 56.9177 39.6655 57.3895C40.1906 57.6258 40.6321 57.8725 40.9391 58.1231C41.2351 58.3646 41.3706 58.5802 41.385 58.7653C41.363 58.7836 41.322 58.8096 41.2546 58.8405C41.1116 58.9061 40.8923 58.9752 40.6028 59.0446C40.0268 59.1825 39.2111 59.3127 38.2643 59.4248C36.3722 59.6489 33.9801 59.7984 31.9863 59.7984C29.9926 59.7984 27.6004 59.6489 25.7084 59.4248C24.7615 59.3127 23.9458 59.1825 23.3699 59.0446C23.0803 58.9752 22.8611 58.9061 22.718 58.8405C22.6505 58.8095 22.6095 58.7835 22.5875 58.7651C22.6012 58.564 22.7395 58.3408 23.0343 58.0978C23.3406 57.8452 23.7812 57.6006 24.3061 57.368C25.354 56.9035 26.6911 56.5068 27.8393 56.1913C28.3106 56.0618 28.7237 55.7852 29.0618 55.4829C29.9677 54.6726 30.2114 53.4274 30.234 52.283L30.3611 45.8733C30.3783 45.0066 30.0436 44.1746 29.4618 43.5402C28.5174 42.5104 26.9444 40.7091 25.4573 38.6129C23.9678 36.5135 22.5758 34.1338 21.9791 31.9458ZM41.3989 58.7519C41.3991 58.7517 41.3988 58.7522 41.3979 58.7532L41.3989 58.7519ZM22.5737 58.7519C22.5737 58.7519 22.574 58.7522 22.5745 58.753L22.5737 58.7519Z" fill="url(#paint0_linear_1482_69000)" fill-opacity="0.4" stroke="white" stroke-width="0.4"/>
<path id="Ellipse 5493" d="M42.6865 19.4C42.6865 19.5331 42.6263 19.6718 42.4935 19.8159C42.3603 19.9606 42.159 20.105 41.8913 20.2457C41.3561 20.5269 40.5751 20.7831 39.6016 20.9994C37.6562 21.4317 34.9638 21.7 31.9865 21.7C29.0092 21.7 26.3169 21.4317 24.3715 20.9994C23.398 20.7831 22.6169 20.5269 22.0818 20.2457C21.8141 20.105 21.6127 19.9606 21.4795 19.8159C21.3468 19.6718 21.2865 19.5331 21.2865 19.4C21.2865 19.2669 21.3468 19.1282 21.4795 18.9841C21.6127 18.8394 21.8141 18.695 22.0818 18.5543C22.6169 18.2731 23.398 18.0169 24.3715 17.8006C26.3169 17.3683 29.0092 17.1 31.9865 17.1C34.9638 17.1 37.6562 17.3683 39.6016 17.8006C40.5751 18.0169 41.3561 18.2731 41.8913 18.5543C42.159 18.695 42.3603 18.8394 42.4935 18.9841C42.6263 19.1282 42.6865 19.2669 42.6865 19.4Z" fill="url(#paint1_linear_1482_69000)" stroke="white" stroke-width="0.2"/>
</g>
</g>
<defs>
<linearGradient id="paint0_linear_1482_69000" x1="40.8578" y1="42.813" x2="23.1149" y2="42.813" gradientUnits="userSpaceOnUse">
<stop stop-color="white" stop-opacity="0.5"/>
<stop offset="0.478261" stop-color="white"/>
<stop offset="1" stop-color="white" stop-opacity="0.5"/>
</linearGradient>
<linearGradient id="paint1_linear_1482_69000" x1="31.9865" y1="17" x2="31.9865" y2="21.8" gradientUnits="userSpaceOnUse">
<stop stop-color="#DFEAF5"/>
<stop offset="1" stop-color="#DCF3FF"/>
</linearGradient>
</defs>
</svg>
