<svg width="41" height="41" viewBox="0 0 41 41" fill="none" xmlns="http://www.w3.org/2000/svg">
<rect x="0.125" y="0.710938" width="40" height="40" rx="8" fill="#F8F8F8"/>
<rect x="11.457" y="7.71094" width="13.3333" height="4.44424" rx="0.849069" fill="url(#paint0_linear_2199_78257)"/>
<rect x="13.6797" y="12.1562" width="8.88889" height="1.33327" fill="#F09B3E"/>
<rect x="10.125" y="13.4883" width="16" height="19.1102" rx="2.54721" fill="url(#paint1_linear_2199_78257)"/>
<rect x="10.125" y="17.9336" width="16" height="10.2218" fill="url(#paint2_linear_2199_78257)"/>
<path fill-rule="evenodd" clip-rule="evenodd" d="M17.2177 19.7109C16.9833 19.7109 16.7932 19.901 16.7932 20.1355V21.4877H15.4402C15.2057 21.4877 15.0156 21.6778 15.0156 21.9122V23.7297C15.0156 23.9642 15.2057 24.1542 15.4402 24.1542H16.7932V25.5083C16.7932 25.7428 16.9833 25.9329 17.2177 25.9329H19.0353C19.2698 25.9329 19.4599 25.7428 19.4599 25.5083V24.1542H20.8133C21.0478 24.1542 21.2378 23.9642 21.2378 23.7297V21.9122C21.2378 21.6778 21.0478 21.4877 20.8133 21.4877H19.4599V20.1355C19.4599 19.901 19.2698 19.7109 19.0353 19.7109H17.2177Z" fill="url(#paint3_linear_2199_78257)"/>
<circle cx="26.125" cy="28.7109" r="4.4" fill="white" stroke="#F5627B" stroke-width="1.2"/>
<path d="M26.125 26.7109V28.7109L27.625 29.7109" stroke="#F1566F" stroke-width="1.2" stroke-linecap="round"/>
<defs>
<linearGradient id="paint0_linear_2199_78257" x1="15.0126" y1="6.37766" x2="21.0123" y2="13.0443" gradientUnits="userSpaceOnUse">
<stop stop-color="#CFE8FF"/>
<stop offset="1" stop-color="#BEDEFB"/>
</linearGradient>
<linearGradient id="paint1_linear_2199_78257" x1="18.125" y1="13.4883" x2="18.125" y2="32.5985" gradientUnits="userSpaceOnUse">
<stop stop-color="#FFDD6B"/>
<stop offset="1" stop-color="#FBB52F"/>
</linearGradient>
<linearGradient id="paint2_linear_2199_78257" x1="9.68056" y1="16.1559" x2="26.7911" y2="29.4894" gradientUnits="userSpaceOnUse">
<stop stop-color="#FFFEF9"/>
<stop offset="1" stop-color="#F0EFEB"/>
</linearGradient>
<linearGradient id="paint3_linear_2199_78257" x1="15.4601" y1="19.2665" x2="20.7931" y2="26.3775" gradientUnits="userSpaceOnUse">
<stop stop-color="#FB5872"/>
<stop offset="1" stop-color="#EE405D"/>
</linearGradient>
</defs>
</svg>
