<svg width="24" height="24" viewBox="0 0 24 24" fill="none" xmlns="http://www.w3.org/2000/svg">
<path d="M7.80846 6.65634C9.20068 6.73343 10.1643 5.57006 10.5193 4.84405C10.697 4.53709 11.1562 4.71615 11.2698 4.84405L12.9745 6.71208C13.0186 6.76038 13.0544 6.81528 13.0895 6.87043C13.3184 7.22972 13.836 7.63136 13.2285 8.51153L7.94414 14.3939C7.91869 14.4222 7.89104 14.4485 7.86081 14.4717C7.11378 15.044 6.08752 15.2693 5.16108 14.4365C3.97403 13.3694 6.16363 10.9518 6.71328 9.8061C6.75133 9.72679 6.76702 9.63978 6.76702 9.55182L6.76701 7.4631C6.76701 6.95902 7.30515 6.62847 7.80846 6.65634Z" fill="#C5CDF8"/>
<path d="M7.03661 5.73403C8.60816 6.07743 9.6986 4.78998 10.0781 4.01356C10.2519 3.7131 10.5177 3.88836 10.6289 4.01356L12.19 5.75566C12.4432 6.03814 12.3208 6.50776 12.437 6.86887C12.4543 6.92266 12.4773 6.97956 12.5032 7.04165C12.5988 7.27033 12.5447 7.52864 12.3773 7.7114L7.50797 13.0274C6.77364 13.7785 5.84492 14.2747 5.12141 13.9663C2.91843 13.0274 3.59156 11.2747 4.01992 10.2106L6.10402 6.11084C6.27248 5.77947 6.67345 5.65467 7.03661 5.73403Z" fill="#6267DE"/>
<mask id="mask0_1269_5166" style="mask-type:alpha" maskUnits="userSpaceOnUse" x="10" y="5" width="4" height="5">
<path d="M10.9746 9.30828C10.0457 7.80289 10.4522 6.24808 10.9851 5.28397C11.1776 4.93558 11.6443 4.90946 11.9176 5.19894C14.7186 8.16658 13.0685 9.31104 11.5659 9.57425C11.3329 9.61506 11.0988 9.50957 10.9746 9.30828Z" fill="#D9D9D9"/>
</mask>
<g mask="url(#mask0_1269_5166)">
<path d="M6.57335 5.32818C8.19423 5.6894 9.31916 4.40111 9.70925 3.6259C9.88692 3.32758 10.1586 3.5016 10.2722 3.6259L12.7115 6.23616C13.1619 6.68363 12.8992 7.1684 12.7115 7.35484L7.45753 12.9483C6.70696 13.6941 5.95638 14.0514 4.64288 13.5076C2.39116 12.5754 3.07918 10.8352 3.51702 9.77866L5.65393 5.6954C5.82346 5.37146 6.21648 5.24865 6.57335 5.32818Z" fill="#4D51BD"/>
</g>
<path fill-rule="evenodd" clip-rule="evenodd" d="M5.07163 7.6574C5.0984 7.48871 5.25685 7.37367 5.42553 7.40044L7.20937 7.68359C7.37805 7.71036 7.49308 7.86882 7.46631 8.03751C7.43954 8.2062 7.2811 8.32124 7.11242 8.29447L5.32858 8.01132C5.1599 7.98455 5.04486 7.82609 5.07163 7.6574Z" fill="white"/>
<path fill-rule="evenodd" clip-rule="evenodd" d="M4.23862 8.91986C4.2654 8.75116 4.42384 8.63612 4.59252 8.66289L6.37636 8.94604C6.54504 8.97281 6.66008 9.13127 6.6333 9.29996C6.60653 9.46865 6.44809 9.5837 6.27941 9.55692L4.49557 9.27378C4.32689 9.247 4.21185 9.08855 4.23862 8.91986Z" fill="white"/>
<path fill-rule="evenodd" clip-rule="evenodd" d="M3.57847 10.246C3.60524 10.0773 3.76368 9.96229 3.93236 9.98906L5.7162 10.2722C5.88488 10.299 5.99992 10.4574 5.97315 10.6261C5.94638 10.7948 5.78793 10.9099 5.61925 10.8831L3.83541 10.5999C3.66673 10.5732 3.5517 10.4147 3.57847 10.246Z" fill="white"/>
<path d="M17.1013 13.1039C18.0312 14.143 19.5352 14.0018 20.2996 13.7395C20.6422 13.6481 20.8403 14.0994 20.8302 14.2702L20.7148 16.7966C20.7118 16.8619 20.6984 16.9261 20.6842 16.9899C20.592 17.4058 20.6741 18.0559 19.6222 18.2486L11.7264 18.6712C11.6883 18.6732 11.6502 18.6723 11.6124 18.6673C10.6796 18.5437 9.79457 17.9773 9.72834 16.7332C9.64348 15.1392 12.9011 14.9782 14.0998 14.5567C14.1828 14.5275 14.2554 14.4771 14.3176 14.4149L15.7945 12.938C16.1509 12.5815 16.7651 12.7283 17.1013 13.1039Z" fill="#C5CDF8"/>
<path d="M17.2062 11.9059C18.0746 13.2601 19.756 13.1209 20.5733 12.8403C20.9087 12.7507 20.9727 13.0626 20.9628 13.2297L20.8349 15.5655C20.8142 15.9443 20.3956 16.1899 20.2224 16.5274C20.1966 16.5777 20.1727 16.6341 20.1471 16.6963C20.053 16.9256 19.8321 17.0701 19.5845 17.0809L12.3827 17.3965C11.3323 17.4084 10.3248 17.1024 10.0312 16.3728C9.13739 14.151 10.8526 13.3876 11.9079 12.9381L16.2803 11.5129C16.6338 11.3977 17.0055 11.593 17.2062 11.9059Z" fill="#6267DE"/>
<mask id="mask1_1269_5166" style="mask-type:alpha" maskUnits="userSpaceOnUse" x="17" y="14" width="5" height="5">
<path d="M17.4639 17.2187C17.8714 15.4972 19.2582 14.6853 20.3167 14.3804C20.6992 14.2702 21.0476 14.5818 21.0362 14.9797C20.9185 19.0589 18.9425 18.7013 17.6939 17.8248C17.5003 17.6889 17.4094 17.4488 17.4639 17.2187Z" fill="#D9D9D9"/>
</mask>
<g mask="url(#mask1_1269_5166)">
<path d="M17.1659 11.2912C18.0567 12.6929 19.763 12.5774 20.587 12.3051C20.9236 12.2198 20.9926 12.535 20.9851 12.7032L20.8643 16.274C20.8664 16.9089 20.3379 17.0659 20.0734 17.065L12.4034 17.3047C11.3453 17.3013 10.5619 17.0232 10.0176 15.7098C9.08456 13.4583 10.8015 12.7144 11.8581 12.2769L16.2562 10.9007C16.6051 10.7916 16.9699 10.9826 17.1659 11.2912Z" fill="#4D51BD"/>
</g>
<path fill-rule="evenodd" clip-rule="evenodd" d="M14.4576 11.8767C14.5958 11.7763 14.7892 11.807 14.8896 11.9452L15.9507 13.4069C16.0511 13.5451 16.0204 13.7385 15.8822 13.8389C15.744 13.9392 15.5506 13.9085 15.4503 13.7703L14.3891 12.3086C14.2887 12.1704 14.3194 11.977 14.4576 11.8767Z" fill="white"/>
<path fill-rule="evenodd" clip-rule="evenodd" d="M12.9752 12.1792C13.1134 12.0788 13.3068 12.1095 13.4071 12.2477L14.4683 13.7094C14.5687 13.8476 14.538 14.041 14.3998 14.1413C14.2616 14.2417 14.0682 14.211 13.9678 14.0728L12.9067 12.6111C12.8063 12.4729 12.837 12.2795 12.9752 12.1792Z" fill="white"/>
<path fill-rule="evenodd" clip-rule="evenodd" d="M11.5709 12.6506C11.7091 12.5502 11.9025 12.5809 12.0028 12.7191L13.064 14.1808C13.1644 14.319 13.1337 14.5124 12.9955 14.6128C12.8573 14.7131 12.6639 14.6824 12.5635 14.5442L11.5024 13.0825C11.402 12.9443 11.4327 12.7509 11.5709 12.6506Z" fill="white"/>
</svg>
