<svg width="52" height="52" viewBox="0 0 52 52" fill="none" xmlns="http://www.w3.org/2000/svg">
<g clip-path="url(#clip0_9787_110032)">
<g filter="url(#filter0_d_9787_110032)">
<path d="M12.4199 3.44204C12.5246 2.67367 13.226 2.13475 13.9867 2.23833C14.7474 2.34191 15.2793 3.04876 15.1746 3.81713L9.30198 46.9461C9.19735 47.7145 8.49588 48.2534 7.73519 48.1498C6.97449 48.0463 6.44265 47.3394 6.54727 46.571L12.4199 3.44204Z" fill="#DBDBDB"/>
<path d="M10.7148 15.9648L21.7337 17.4652L20.2181 28.5953L9.19932 27.0949L10.7148 15.9648Z" fill="white"/>
<path d="M11.8516 7.61455C12.0608 6.07781 13.4638 4.99997 14.9852 5.20713L23.2493 6.33241L21.7338 17.4625L10.7149 15.9621L11.8516 7.61455Z" fill="#D8D8D8"/>
<path d="M21.7344 17.4688L32.7532 18.9691L31.2377 30.0992L20.2188 28.5988L21.7344 17.4688Z" fill="#D8D8D8"/>
<path d="M32.7539 18.9688L43.7727 20.4691L42.4466 30.2079C42.342 30.9763 41.6405 31.5152 40.8798 31.4116L31.2384 30.0988L32.7539 18.9688Z" fill="white"/>
<path d="M23.25 6.33203L34.2688 7.83241L32.7533 18.9625L21.7345 17.4621L23.25 6.33203Z" fill="white"/>
<path d="M34.2695 7.83594L43.911 9.14877C44.6717 9.25235 45.2035 9.9592 45.0989 10.7276L43.7728 20.4664L32.754 18.966L34.2695 7.83594Z" fill="#D8D8D8"/>
</g>
<circle cx="39.5" cy="39.5" r="12.5" fill="url(#paint0_linear_9787_110032)"/>
<path d="M34.1406 39.9475L37.7121 43.9654L44.8549 35.9297" stroke="url(#paint1_linear_9787_110032)" stroke-width="2" stroke-linecap="round" stroke-linejoin="round"/>
</g>
<defs>
<filter id="filter0_d_9787_110032" x="2.53516" y="-1.77344" width="46.5781" height="53.9375" filterUnits="userSpaceOnUse" color-interpolation-filters="sRGB">
<feFlood flood-opacity="0" result="BackgroundImageFix"/>
<feColorMatrix in="SourceAlpha" type="matrix" values="0 0 0 0 0 0 0 0 0 0 0 0 0 0 0 0 0 0 127 0" result="hardAlpha"/>
<feOffset/>
<feGaussianBlur stdDeviation="2"/>
<feComposite in2="hardAlpha" operator="out"/>
<feColorMatrix type="matrix" values="0 0 0 0 0.606667 0 0 0 0 0.668527 0 0 0 0 0.758333 0 0 0 0.4 0"/>
<feBlend mode="normal" in2="BackgroundImageFix" result="effect1_dropShadow_9787_110032"/>
<feBlend mode="normal" in="SourceGraphic" in2="effect1_dropShadow_9787_110032" result="shape"/>
</filter>
<linearGradient id="paint0_linear_9787_110032" x1="31.8611" y1="28.2153" x2="48.5278" y2="49.5695" gradientUnits="userSpaceOnUse">
<stop stop-color="#D2D2D2"/>
<stop offset="0.747259" stop-color="#A0A0A0"/>
<stop offset="1" stop-color="#A9A9A9"/>
</linearGradient>
<linearGradient id="paint1_linear_9787_110032" x1="33.7835" y1="35.7288" x2="42.1392" y2="42.9792" gradientUnits="userSpaceOnUse">
<stop stop-color="white" stop-opacity="0.9"/>
<stop offset="1" stop-color="white"/>
</linearGradient>
<clipPath id="clip0_9787_110032">
<rect width="52" height="52" fill="white"/>
</clipPath>
</defs>
</svg>
