<svg width="32" height="32" viewBox="0 0 32 32" fill="none" xmlns="http://www.w3.org/2000/svg">
<rect width="32" height="32" rx="16" fill="#FA2828"/>
<path fill-rule="evenodd" clip-rule="evenodd" d="M6.07039 16.0751C6.64811 16.0751 6.9857 15.7195 6.9857 15.256V15.2405C6.9857 14.7072 6.62551 14.4214 6.04814 14.4214H5.15544V16.0751H6.07039ZM4 13.9421C4 13.6098 4.25496 13.347 4.57772 13.347H6.14561C7.39851 13.347 8.15596 14.1124 8.15596 15.2172V15.2327C8.15596 16.485 7.21099 17.134 6.03296 17.134H5.15544V18.2543C5.15544 18.5866 4.90012 18.8494 4.57772 18.8494C4.25496 18.8494 4 18.5866 4 18.2543V13.9421ZM11.2204 16.5389L10.4926 14.7537L9.76517 16.5386H11.2201L11.2204 16.5389ZM7.97163 18.0381L9.80225 13.7798C9.93008 13.4863 10.1624 13.3085 10.4778 13.3085H10.5449C10.8602 13.3085 11.0852 13.4863 11.2126 13.7798L13.0436 18.0381C13.081 18.1227 13.1036 18.2003 13.1036 18.2776C13.1036 18.5944 12.8635 18.8494 12.5563 18.8494C12.2858 18.8494 12.1061 18.6871 12.0008 18.4399L11.6484 17.5898H9.33753L8.97028 18.4787C8.87246 18.7104 8.67718 18.8494 8.43741 18.8494C8.13725 18.8494 7.90489 18.6021 7.90489 18.2931C7.90489 18.2081 7.93491 18.1231 7.97199 18.0381H7.97163ZM14.3255 16.7164L12.6297 14.3442C12.5381 14.2213 12.4881 14.0724 12.4871 13.9191C12.4869 13.8435 12.5018 13.7686 12.5309 13.6988C12.5599 13.629 12.6025 13.5656 12.6563 13.5124C12.71 13.4591 12.7738 13.4171 12.8439 13.3886C12.914 13.3602 12.9891 13.3459 13.0648 13.3466C13.3275 13.3466 13.4924 13.4937 13.6351 13.71L14.9102 15.6035L16.208 13.6944C16.3507 13.4786 16.5233 13.3396 16.7635 13.3396C17.1159 13.3396 17.326 13.5943 17.326 13.9191C17.326 14.0814 17.2511 14.2281 17.1759 14.3364L15.4805 16.6934V18.2543C15.4805 18.5866 15.2256 18.8494 14.9028 18.8494C14.5801 18.8494 14.3251 18.5866 14.3251 18.2543L14.3255 16.7164ZM17.361 16.1139V16.098C17.361 14.5601 18.4864 13.3008 20.0995 13.3008C20.8869 13.3008 21.4195 13.517 21.8545 13.8496C21.9746 13.9421 22.0798 14.1121 22.0798 14.3209C22.0809 14.3965 22.0669 14.4715 22.0388 14.5417C22.0106 14.6118 21.9688 14.6757 21.9158 14.7296C21.8627 14.7835 21.7995 14.8264 21.7298 14.8557C21.66 14.885 21.5852 14.9002 21.5095 14.9005C21.352 14.9005 21.2471 14.8387 21.1645 14.7844C20.8421 14.5375 20.5042 14.3982 20.0917 14.3982C19.2064 14.3982 18.569 15.1555 18.569 16.0828V16.0984C18.569 17.0257 19.1916 17.7986 20.0917 17.7986C20.5794 17.7986 20.9021 17.6437 21.2323 17.3735C21.322 17.2959 21.4421 17.242 21.5773 17.242C21.8697 17.242 22.1176 17.4892 22.1176 17.7908C22.1176 17.976 22.0272 18.1231 21.9223 18.2159C21.4498 18.6406 20.8947 18.896 20.0543 18.896C18.509 18.896 17.361 17.667 17.361 16.1139ZM22.4185 16.1139V16.098C22.4185 14.5601 23.5965 13.3008 25.2166 13.3008C26.8375 13.3008 28 14.5449 28 16.0828V16.0984C28 17.6363 26.8223 18.8956 25.2018 18.8956C23.5813 18.8956 22.4185 17.6515 22.4185 16.1139ZM26.7923 16.1139V16.098C26.7923 15.1703 26.132 14.3978 25.2018 14.3978C24.2717 14.3978 23.6265 15.1551 23.6265 16.0825V16.098C23.6265 17.0254 24.2869 17.7982 25.2166 17.7982C26.1471 17.7982 26.7923 17.0412 26.7923 16.1139Z" fill="white"/>
</svg>
