<svg width="24" height="24" viewBox="0 0 24 24" fill="none" xmlns="http://www.w3.org/2000/svg">
<circle cx="12" cy="12" r="11.625" fill="#FFC633" stroke="#FFB729" stroke-width="0.75"/>
<rect x="9.75" y="15" width="4.5" height="1.125" rx="0.5625" fill="#26282C"/>
<circle cx="7.125" cy="10.1172" r="3.75" fill="white"/>
<circle cx="7.5" cy="10.8672" r="1.875" fill="#26282C"/>
<circle cx="16.875" cy="10.1172" r="3.75" fill="white"/>
<circle cx="16.5" cy="10.8672" r="1.875" fill="#26282C"/>
<path d="M9.14157 5.40443C8.91895 5.71085 8.62697 5.96022 8.2895 6.13217C7.95204 6.30411 7.57867 6.39375 7.19993 6.39375C6.82118 6.39375 6.44781 6.30411 6.11035 6.13217C5.77288 5.96022 5.48091 5.71085 5.25829 5.40443" stroke="#26282C" stroke-width="1.125" stroke-linecap="round"/>
<path d="M18.7416 5.78307C18.519 5.47665 18.227 5.22728 17.8895 5.05533C17.5521 4.88339 17.1787 4.79375 16.8 4.79375C16.4212 4.79375 16.0478 4.88339 15.7104 5.05533C15.3729 5.22728 15.0809 5.47665 14.8583 5.78307" stroke="#26282C" stroke-width="1.125" stroke-linecap="round"/>
</svg>
