<svg width="81" height="80" viewBox="0 0 81 80" fill="none" xmlns="http://www.w3.org/2000/svg">
<path d="M11.8675 61.5416C11.3262 60.6039 11.6474 59.4049 12.5851 58.8635L26.1668 51.0214L31.0677 59.5107L17.486 67.3528C16.5483 67.8942 15.3494 67.5729 14.8081 66.6352L11.8675 61.5416Z" fill="url(#paint0_linear_2797_115929)"/>
<rect width="37.2476" height="9.8024" transform="matrix(0.866007 -0.500032 0.499968 0.866044 26.164 51.0156)" fill="url(#paint1_linear_2797_115929)"/>
<path d="M58.4199 32.3984L63.513 29.4577C64.4506 28.9163 65.6496 29.2375 66.1909 30.1752L69.1315 35.2689C69.6728 36.2066 69.3515 37.4056 68.4139 37.947L63.3208 40.8877L58.4199 32.3984Z" fill="url(#paint2_linear_2797_115929)"/>
<path fill-rule="evenodd" clip-rule="evenodd" d="M34.6178 12.2078C34.6178 15.5463 36.8874 18.3547 39.9677 19.174C40.6498 22.2785 43.4166 24.6018 46.726 24.6018H56.2958C56.9111 25.9619 58.28 26.9083 59.8699 26.9083H62.1759C63.195 26.9083 64.0211 26.0822 64.0211 25.0631C64.0211 21.1424 60.9642 17.9358 57.1037 17.6966V17.6823H56.6403H56.4243C56.4919 17.3112 56.5272 16.9288 56.5272 16.5382C56.5272 13.0351 53.6876 10.1953 50.1849 10.1953C49.7057 10.1953 49.239 10.2484 48.7902 10.3491C47.9706 7.26919 45.1628 5 41.825 5C37.8445 5 34.6178 8.22704 34.6178 12.2078Z" fill="url(#paint3_linear_2797_115929)"/>
<defs>
<linearGradient id="paint0_linear_2797_115929" x1="18.5271" y1="55.4326" x2="23.4286" y2="63.9215" gradientUnits="userSpaceOnUse">
<stop stop-color="#F5B24C"/>
<stop offset="1" stop-color="#D88F22"/>
</linearGradient>
<linearGradient id="paint1_linear_2797_115929" x1="18.6238" y1="0" x2="18.6238" y2="9.8024" gradientUnits="userSpaceOnUse">
<stop stop-color="#FFF8F3"/>
<stop offset="1" stop-color="#EEE5DF"/>
</linearGradient>
<linearGradient id="paint2_linear_2797_115929" x1="61.8153" y1="30.4379" x2="66.7168" y2="38.9269" gradientUnits="userSpaceOnUse">
<stop stop-color="#FF8181"/>
<stop offset="1" stop-color="#F85353"/>
</linearGradient>
<linearGradient id="paint3_linear_2797_115929" x1="49.3194" y1="5" x2="49.3194" y2="26.9083" gradientUnits="userSpaceOnUse">
<stop stop-color="#F7F9FF"/>
<stop offset="1" stop-color="#EEF1F5"/>
</linearGradient>
</defs>
</svg>
