<svg width="81" height="81" viewBox="0 0 81 81" fill="none" xmlns="http://www.w3.org/2000/svg">
<g id="icon_80/&#235;&#167;&#137;&#234;&#177;&#184;&#235;&#166;&#172;">
<g id="&#235;&#167;&#137;&#234;&#177;&#184;&#235;&#166;&#172;">
<path id="Vector 1501" d="M21.6781 28.7926C18.922 32.4253 18.9214 39.0876 18.9214 40.6016H40.9749C40.9749 39.0876 40.9749 32.4261 38.2182 28.7926C34.7724 24.2506 34.0832 21.9797 34.0832 20.4657L34.0832 13.3226C34.0832 12.6815 33.5635 12.1641 32.9225 12.1641H26.9738C26.3328 12.1641 25.8131 12.6862 25.8131 13.3273V20.4657C25.8131 21.9797 25.1239 24.2506 21.6781 28.7926Z" fill="url(#paint0_linear_3019_115119)"/>
<path id="Rectangle 34624710" d="M25.8131 6.94196C25.8131 6.30092 26.3328 5.78125 26.9738 5.78125H32.9225C33.5635 5.78125 34.0832 6.30092 34.0832 6.94196V11.0045C34.0832 11.6455 33.5635 12.1652 32.9225 12.1652H26.9738C26.3328 12.1652 25.8131 11.6455 25.8131 11.0045V6.94196Z" fill="url(#paint1_linear_3019_115119)"/>
<rect id="Rectangle 34624711" x="18.9214" y="40.6016" width="22.0536" height="23.2143" fill="url(#paint2_linear_3019_115119)"/>
<path id="Rectangle 34624713" d="M18.9214 63.8203H40.975V69.6239C40.975 70.2649 40.4553 70.7846 39.8142 70.7846H20.0821C19.4411 70.7846 18.9214 70.2649 18.9214 69.6239V63.8203Z" fill="url(#paint3_linear_3019_115119)"/>
</g>
<g id="&#235;&#167;&#137;&#234;&#177;&#184;&#235;&#166;&#172;&#236;&#158;&#148;">
<path id="Rectangle 34624903" d="M30.813 60.2969H61.7625L58.9556 68.7168C57.5514 72.9291 53.6093 75.7704 49.169 75.7704H43.0156C38.4098 75.7704 34.3619 72.7172 33.0965 68.2886L30.813 60.2969Z" fill="url(#paint4_linear_3019_115119)"/>
<g id="Mask group">
<mask id="mask0_3019_115119" style="mask-type:alpha" maskUnits="userSpaceOnUse" x="30" y="57" width="33" height="7">
<ellipse id="Ellipse 3431" cx="46.6028" cy="60.3445" rx="15.1063" ry="2.57892" fill="#F0C47D" stroke="#C28738" stroke-width="1.25267"/>
</mask>
<g mask="url(#mask0_3019_115119)">
<ellipse id="Ellipse 5528" cx="46.6028" cy="60.3445" rx="15.1063" ry="2.57892" fill="#F0D07D"/>
<path id="Ellipse 5527" d="M58.6037 62.6307C58.6037 64.0709 54.1498 65.2384 48.6557 65.2384C43.1615 65.2384 38.7076 64.0709 38.7076 62.6307C38.7076 61.1905 45.3397 61.0663 48.6557 60.0229C54.0819 57.937 58.6037 61.1905 58.6037 62.6307Z" fill="url(#paint5_linear_3019_115119)"/>
<path id="Ellipse 5531" d="M57.1303 62.1297C57.1303 63.0357 51.6867 63.7701 44.9716 63.7701C38.2565 63.7701 32.8129 63.0357 32.8129 62.1297C32.8129 61.2238 40.1818 59.2352 44.9716 60.4893C51.2352 62.1297 57.1303 61.2238 57.1303 62.1297Z" fill="url(#paint6_linear_3019_115119)"/>
</g>
</g>
<ellipse id="Ellipse 3433" cx="46.2877" cy="60.3445" rx="14.8431" ry="2.57892" stroke="#CCA84D" stroke-width="1.89486"/>
</g>
</g>
<defs>
<linearGradient id="paint0_linear_3019_115119" x1="29.9482" y1="12.7444" x2="29.9482" y2="40.6016" gradientUnits="userSpaceOnUse">
<stop stop-color="#F2F2F2"/>
<stop offset="1" stop-color="#E0E0E0"/>
</linearGradient>
<linearGradient id="paint1_linear_3019_115119" x1="29.9482" y1="5.78125" x2="29.9482" y2="12.1652" gradientUnits="userSpaceOnUse">
<stop stop-color="#666361"/>
<stop offset="1" stop-color="#44413E"/>
</linearGradient>
<linearGradient id="paint2_linear_3019_115119" x1="19.5017" y1="52.2087" x2="41.5553" y2="52.2087" gradientUnits="userSpaceOnUse">
<stop stop-color="#F3ECDE"/>
<stop offset="1" stop-color="#D1CCC1"/>
</linearGradient>
<linearGradient id="paint3_linear_3019_115119" x1="29.9482" y1="63.8203" x2="29.9482" y2="70.7846" gradientUnits="userSpaceOnUse">
<stop stop-color="#EBEBEB"/>
<stop offset="1" stop-color="#E0E0E0"/>
</linearGradient>
<linearGradient id="paint4_linear_3019_115119" x1="36.8134" y1="60.2969" x2="53.2354" y2="76.7191" gradientUnits="userSpaceOnUse">
<stop stop-color="#F0D07D"/>
<stop offset="1" stop-color="#E8BF56"/>
</linearGradient>
<linearGradient id="paint5_linear_3019_115119" x1="49.0241" y1="58.3613" x2="49.0241" y2="63.601" gradientUnits="userSpaceOnUse">
<stop stop-color="#F4E0CE"/>
<stop offset="1" stop-color="#E1C7AF"/>
</linearGradient>
<linearGradient id="paint6_linear_3019_115119" x1="38.708" y1="61.0702" x2="47.5507" y2="61.0702" gradientUnits="userSpaceOnUse">
<stop stop-color="#F4E0CE"/>
<stop offset="1" stop-color="#FFF4EB"/>
</linearGradient>
</defs>
</svg>
