<svg width="81" height="81" viewBox="0 0 81 81" fill="none" xmlns="http://www.w3.org/2000/svg">
<g id="icon_80/&#236;&#153;&#128;&#236;&#157;&#184;">
<g id="&#236;&#153;&#128;&#236;&#157;&#184;">
<path id="Union" fill-rule="evenodd" clip-rule="evenodd" d="M20.7188 39.4453C20.7188 38.0814 20.7216 35.2213 23.4754 31.9545C26.9213 27.8667 27.6105 25.8229 27.6105 24.4603V9.26748C27.6105 8.62644 28.1301 8.10938 28.7712 8.10938H34.7198C35.3609 8.10938 35.8805 8.62181 35.8805 9.26286L35.8805 24.4603C35.8806 25.8229 36.5698 27.8667 40.0156 31.9545C42.77 35.222 42.7723 38.0814 42.7723 39.4453H42.7723V69.6239C42.7723 70.2649 42.2527 70.7846 41.6116 70.7846H21.8795C21.2384 70.7846 20.7188 70.2649 20.7188 69.6239V39.4487C20.7188 39.4475 20.7188 39.4464 20.7188 39.4453Z" fill="url(#paint0_linear_3019_115135)"/>
<path id="Rectangle 34624710" d="M27.611 6.94978C27.611 6.30873 28.1306 5.78906 28.7717 5.78906H34.7203C35.3614 5.78906 35.8811 6.30873 35.8811 6.94978V23.1998H27.611V6.94978Z" fill="url(#paint1_linear_3019_115135)"/>
<path id="Rectangle 34624715" d="M27.103 10.4342C27.103 9.79311 27.6227 9.27344 28.2637 9.27344H35.228C35.8691 9.27344 36.3887 9.79311 36.3887 10.4342V11.5949C36.3887 12.2359 35.8691 12.7556 35.228 12.7556H28.2637C27.6227 12.7556 27.103 12.2359 27.103 11.5949V10.4342Z" fill="url(#paint2_linear_3019_115135)"/>
<path id="Rectangle 34624711" d="M31.1655 46.4107C31.1655 45.7697 31.6852 45.25 32.3262 45.25H42.7727V59.1786H32.3262C31.6852 59.1786 31.1655 58.6589 31.1655 58.0179V46.4107Z" fill="url(#paint3_linear_3019_115135)"/>
</g>
<g id="&#236;&#153;&#128;&#236;&#157;&#184;&#236;&#158;&#148;">
<path id="Vector 1605" d="M45.0853 60.1207C33.0042 57.9888 36.1704 46.0612 38.9646 41.0938H58.1251C64.0861 55.038 56.2622 59.5885 51.7383 60.1207C50.6737 60.246 49.0771 60.8126 49.0771 63.5802C49.0771 66.3477 49.2545 66.6703 49.3432 69.1096C49.4763 72.7021 52.9358 72.5691 55.0647 73.2344C56.7679 73.7666 56.9719 74.4319 56.7945 74.698C56.0405 75.0084 52.5835 75.7624 48.5449 75.7624C44.5062 75.7624 42.372 75.4946 40.2431 74.6963C40.1366 73.9512 41.271 73.4118 42.025 73.2344C44.7938 72.9411 47.5336 71.6643 47.7465 69.1096C47.9594 66.555 47.7465 65.9752 47.7465 63.5802C47.7465 61.1852 47.3472 60.5199 45.0853 60.1207Z" fill="url(#paint4_linear_3019_115135)"/>
<g id="Group 1261167420">
<mask id="mask0_3019_115135" style="mask-type:alpha" maskUnits="userSpaceOnUse" x="36" y="41" width="25" height="20">
<path id="Vector 1607" d="M45.0855 60.1207C33.0045 57.9888 36.1707 46.0612 38.9649 41.0938H58.1253C64.0863 55.038 56.2625 59.5885 51.7385 60.1207C49.2479 60.4931 47.9358 60.6237 45.0855 60.1207Z" fill="#E4F2FF"/>
</mask>
<g mask="url(#mask0_3019_115135)">
<path id="Vector 1596" d="M60.5487 48.4732C62.2519 47.7435 66.656 49.1146 66.7663 49.4373L62.2143 50.9678L53.053 57.6013C49.659 56.2258 39.0428 54.4033 39.7664 52.6519C40.671 50.4627 46.5132 48.7521 50.6948 48.4733C55.5163 48.1519 58.2986 49.4373 60.5487 48.4732Z" fill="#5C0A37"/>
<path id="Vector 1595" d="M58.2835 49.0022C61.2493 46.7061 61.9111 48.0455 61.8712 49.0022L59.1206 65.9839C58.4827 67.0203 55.7002 69.0932 49.6728 69.0932C43.6454 69.0932 40.3048 67.6581 39.388 66.9406L37.5941 50.1981C37.4347 49.919 37.5702 49.2892 39.388 49.0022C41.6602 48.6434 44.8892 51.5136 48.3574 51.7527C51.8255 51.9919 54.5761 51.8723 58.2835 49.0022Z" fill="#6F1747"/>
<path id="Vector 1594" d="M44.4126 50.7891C40.3465 46.723 37.0372 47.3916 36.1204 47.4713C34.5657 48.0693 31.4756 67.5238 40.3465 70.1625C59.242 75.7832 77.7786 61.5521 61.6338 56.6489C60.3698 56.2651 49.504 55.8803 44.4126 50.7891Z" fill="#9A0B58"/>
</g>
</g>
<path id="Ellipse 3423" d="M58.1521 41.2292C58.1521 42.0376 53.9098 42.6929 48.5453 42.6929C43.1808 42.6929 38.9385 42.0376 38.9385 41.2292C38.9385 40.4209 43.1808 39.7656 48.5453 39.7656C53.9098 39.7656 58.1521 40.4209 58.1521 41.2292Z" fill="#DAEBFC"/>
</g>
</g>
<defs>
<linearGradient id="paint0_linear_3019_115135" x1="31.7455" y1="8.10937" x2="31.7455" y2="70.7846" gradientUnits="userSpaceOnUse">
<stop stop-color="#AA2B46"/>
<stop offset="1" stop-color="#511824"/>
</linearGradient>
<linearGradient id="paint1_linear_3019_115135" x1="31.746" y1="5.78906" x2="31.746" y2="23.1998" gradientUnits="userSpaceOnUse">
<stop stop-color="#EE4E6F"/>
<stop offset="1" stop-color="#D53456"/>
</linearGradient>
<linearGradient id="paint2_linear_3019_115135" x1="31.7459" y1="9.27344" x2="31.7459" y2="12.7556" gradientUnits="userSpaceOnUse">
<stop stop-color="#FC6B8A"/>
<stop offset="1" stop-color="#ED5171"/>
</linearGradient>
<linearGradient id="paint3_linear_3019_115135" x1="30.5852" y1="52.2143" x2="42.7727" y2="52.2143" gradientUnits="userSpaceOnUse">
<stop stop-color="#E0BEC5"/>
<stop offset="1" stop-color="#986B74"/>
</linearGradient>
<linearGradient id="paint4_linear_3019_115135" x1="48.3346" y1="41.0938" x2="48.3346" y2="75.7624" gradientUnits="userSpaceOnUse">
<stop stop-color="#EAF4FE"/>
<stop offset="1" stop-color="#DCE9F6"/>
</linearGradient>
</defs>
</svg>
