<svg width="40" height="41" viewBox="0 0 40 41" fill="none" xmlns="http://www.w3.org/2000/svg">
<rect y="0.710938" width="40" height="40" rx="8" fill="#F8F8F8"/>
<path d="M8.93359 12.7109C8.93359 11.0541 10.2767 9.71094 11.9336 9.71094H25.9336C27.5904 9.71094 28.9336 11.0541 28.9336 12.7109V28.7109C28.9336 30.3678 27.5904 31.7109 25.9336 31.7109H11.9336C10.2767 31.7109 8.93359 30.3678 8.93359 28.7109V12.7109Z" fill="#FF7474"/>
<path fill-rule="evenodd" clip-rule="evenodd" d="M31.4765 18.6562C31.867 19.0467 31.867 19.6799 31.4765 20.0704L25.0482 26.4986C24.9196 26.6273 24.7583 26.7184 24.5817 26.7622L22.1313 27.3695C21.7658 27.4601 21.4351 27.1294 21.5257 26.7639L22.1331 24.3135C22.1768 24.1369 22.2679 23.9756 22.3966 23.847L28.8248 17.4187C29.2154 17.0282 29.8485 17.0282 30.2391 17.4187L31.4765 18.6562Z" fill="#AA2424"/>
<path d="M15.7482 21.6781C14.5926 21.2919 12 19.6667 12 16.9119C12 15.6948 12.9926 14.7109 14.2222 14.7109C14.9482 14.7109 15.5926 15.0535 16 15.5928C16.4 15.0607 17.0518 14.7109 17.7778 14.7109C19.0074 14.7109 20 15.6948 20 16.9119C20 19.6667 17.4074 21.2919 16.2444 21.6781C16.1111 21.7219 15.8815 21.7219 15.7482 21.6781Z" fill="white"/>
<rect x="12" y="24.7109" width="8" height="2.5" rx="1" fill="white"/>
</svg>
