<svg width="32" height="32" viewBox="0 0 32 32" fill="none" xmlns="http://www.w3.org/2000/svg">
<circle cx="16" cy="16" r="16" fill="#FFD633"/>
<path d="M25.5992 11.7336C25.5992 11.3134 25.5164 10.8972 25.3556 10.509C25.1948 10.1208 24.9591 9.768 24.662 9.47085C24.3648 9.1737 24.012 8.93799 23.6238 8.77718C23.2356 8.61636 22.8194 8.53359 22.3992 8.53359C21.979 8.53359 21.5629 8.61636 21.1746 8.77718C20.7864 8.93799 20.4336 9.1737 20.1365 9.47085C19.8393 9.768 19.6036 10.1208 19.4428 10.509C19.282 10.8972 19.1992 11.3134 19.1992 11.7336" stroke="#26282C" stroke-width="1.5" stroke-linecap="round"/>
<path d="M20.5 17C20.5 17.6566 20.3836 18.3068 20.1575 18.9134C19.9313 19.52 19.5998 20.0712 19.182 20.5355C18.7641 20.9998 18.268 21.3681 17.7221 21.6194C17.1761 21.8707 16.5909 22 16 22C15.4091 22 14.8239 21.8707 14.2779 21.6194C13.732 21.3681 13.2359 20.9998 12.818 20.5355C12.4002 20.0712 12.0687 19.52 11.8425 18.9134C11.6164 18.3068 11.5 17.6566 11.5 17" stroke="#26282C" stroke-width="1.5" stroke-linecap="round"/>
<path d="M12.7984 11.7336C12.7984 10.8849 12.4613 10.071 11.8612 9.47085C11.2611 8.87074 10.4471 8.53359 9.59844 8.53359C8.74975 8.53359 7.93581 8.87074 7.3357 9.47085C6.73558 10.071 6.39844 10.8849 6.39844 11.7336" stroke="#26282C" stroke-width="1.5" stroke-linecap="round"/>
<path d="M9 2.53763C9 4.77419 5.92 7.09677 4.88 7.87097C4.64 8.04301 4.36 8.04301 4.16 7.87097C3.04 7.13978 0 4.77419 0 2.53763C0 1.11828 1.04 0 2.36 0C3.32 0 4.12 0.60215 4.52 1.46237C4.88 0.60215 5.72 0 6.68 0C7.92 0 9 1.16129 9 2.53763Z" fill="#F56455"/>
<path d="M32 21.8548C32 24.371 28.5778 26.9839 27.4222 27.8548C27.1556 28.0484 26.8444 28.0484 26.6222 27.8548C25.3778 27.0323 22 24.371 22 21.8548C22 20.2581 23.1556 19 24.6222 19C25.6889 19 26.5778 19.6774 27.0222 20.6452C27.4222 19.6774 28.3556 19 29.4222 19C30.8 19 32 20.3065 32 21.8548Z" fill="#F56455"/>
<path d="M8.75 24.9032C8.75 26.5806 6.44 28.3226 5.66 28.9032C5.48 29.0323 5.27 29.0323 5.12 28.9032C4.28 28.3548 2 26.5806 2 24.9032C2 23.8387 2.78 23 3.77 23C4.49 23 5.09 23.4516 5.39 24.0968C5.66 23.4516 6.29 23 7.01 23C7.94 23 8.75 23.871 8.75 24.9032Z" fill="#F56455"/>
</svg>
