<svg width="60" height="60" viewBox="0 0 60 60" fill="none" xmlns="http://www.w3.org/2000/svg">
<circle cx="28" cy="32" r="28" fill="#F8F8F8"/>
<path d="M14.6665 24.1758H41.332V40.7028C41.332 43.3107 39.2179 45.4249 36.61 45.4249H19.3885C16.7806 45.4249 14.6665 43.3107 14.6665 40.7028V24.1758Z" fill="url(#paint0_linear_2965_9554)"/>
<path d="M14.6665 24.1734C14.6665 22.0012 16.4274 20.2402 18.5997 20.2402H37.3988C39.5711 20.2402 41.332 22.0012 41.332 24.1734V27.3233H14.6665V24.1734Z" fill="url(#paint1_linear_2965_9554)"/>
<rect x="18.5562" y="21.0273" width="3.93501" height="3.93501" rx="1.96751" fill="#EEEEEE"/>
<rect x="33.5093" y="21.0273" width="3.93501" height="3.93501" rx="1.96751" fill="#EEEEEE"/>
<rect x="19.3406" y="18.666" width="2.36101" height="5.11552" rx="1.1805" fill="url(#paint2_linear_2965_9554)"/>
<rect x="34.2937" y="18.666" width="2.36101" height="5.11552" rx="1.1805" fill="url(#paint3_linear_2965_9554)"/>
<path d="M32.1657 37.6234C32.1657 40.487 30.3006 41.9982 27.9995 41.9982C25.6984 41.9982 23.8328 40.487 23.8328 37.6234C23.8328 34.7598 27.9995 30.332 27.9995 30.332C27.9995 30.332 32.1657 34.7598 32.1657 37.6234Z" fill="url(#paint4_linear_2965_9554)"/>
<circle cx="46" cy="14" r="13.3" fill="#3B4A65" stroke="white" stroke-width="1.4"/>
<path d="M46 9V19" stroke="white" stroke-width="1.4" stroke-linecap="round"/>
<path d="M41 14H51" stroke="white" stroke-width="1.4" stroke-linecap="round"/>
<defs>
<linearGradient id="paint0_linear_2965_9554" x1="27.9993" y1="24.1758" x2="27.9993" y2="45.4249" gradientUnits="userSpaceOnUse">
<stop stop-color="#DDDDDD"/>
<stop offset="1" stop-color="#EEEEEE"/>
</linearGradient>
<linearGradient id="paint1_linear_2965_9554" x1="27.9993" y1="20.2402" x2="27.9993" y2="27.3233" gradientUnits="userSpaceOnUse">
<stop stop-color="#BBBBBB"/>
<stop offset="1" stop-color="#CCCCCC"/>
</linearGradient>
<linearGradient id="paint2_linear_2965_9554" x1="20.5211" y1="18.666" x2="20.5211" y2="23.7815" gradientUnits="userSpaceOnUse">
<stop stop-color="#AAAAAA"/>
<stop offset="1" stop-color="#BBBBBB"/>
</linearGradient>
<linearGradient id="paint3_linear_2965_9554" x1="35.4742" y1="18.666" x2="35.4742" y2="23.7815" gradientUnits="userSpaceOnUse">
<stop stop-color="#AAAAAA"/>
<stop offset="1" stop-color="#BBBBBB"/>
</linearGradient>
<linearGradient id="paint4_linear_2965_9554" x1="27.9992" y1="30.332" x2="27.9992" y2="41.9982" gradientUnits="userSpaceOnUse">
<stop stop-color="#AAAAAA"/>
<stop offset="1" stop-color="#CCCCCC"/>
</linearGradient>
</defs>
</svg>
