<svg width="40" height="40" viewBox="0 0 40 40" fill="none" xmlns="http://www.w3.org/2000/svg">
<rect width="40" height="40" rx="8" fill="#F8F8F8"/>
<path d="M18.738 29.5565L17.157 28.2035C16.8568 27.9529 16.2864 27.7424 15.8862 27.7424L14.1851 27.7424C13.1245 27.7424 12.2539 26.8705 12.2539 25.8081L12.2539 24.1042C12.2539 23.7033 12.0438 23.1421 11.7936 22.8414L10.4428 21.2578C9.85241 20.5563 9.85241 19.4237 10.4428 18.7422L11.7936 17.1586C12.0438 16.8579 12.2539 16.2967 12.2539 15.8958L12.2539 14.1919C12.2539 13.1295 13.1245 12.2576 14.1851 12.2576L15.8862 12.2576C16.2864 12.2576 16.8468 12.0471 17.147 11.7965L18.728 10.4435C19.4284 9.85217 20.5591 9.85217 21.2395 10.4435L22.8205 11.7965C23.1207 12.0471 23.6911 12.2576 24.0813 12.2576L25.8324 12.2576C26.8931 12.2576 27.7636 13.1295 27.7636 14.1919L27.7636 15.9058C27.7636 16.2967 27.9637 16.868 28.2139 17.1586L29.5647 18.7522C30.1451 19.4437 30.1451 20.5663 29.5647 21.2578L28.2139 22.8514C27.9637 23.1521 27.7636 23.7134 27.7636 24.1042L27.7636 25.798C27.7636 26.8604 26.8931 27.7324 25.8324 27.7324L24.1013 27.7324C23.7011 27.7324 23.1407 27.9429 22.8405 28.1934L21.2495 29.5565C20.5491 30.1478 19.4184 30.1478 18.738 29.5565Z" fill="url(#paint0_linear_1_38214)"/>
<path d="M21.166 16.0834C21.166 16.6792 20.6893 17.1667 20.0827 17.1667C19.4868 17.1667 18.9993 16.6792 18.9993 16.0834C18.9993 15.4876 19.476 15.0001 20.0827 15.0001C20.6785 15.0001 21.166 15.4876 21.166 16.0834Z" fill="#E4F2FE"/>
<path d="M20.8501 19.2254L20.8501 24.4688C20.8501 24.9129 20.4818 25.2812 20.0376 25.2812C19.5934 25.2812 19.2251 24.9129 19.2251 24.4687L19.2251 19.2362C19.2251 18.7812 19.5826 18.4129 20.0376 18.4129C20.4818 18.4129 20.8501 18.7812 20.8501 19.2254Z" fill="#E4F2FE"/>
<defs>
<linearGradient id="paint0_linear_1_38214" x1="14.9203" y1="11.196" x2="24.1811" y2="30.1498" gradientUnits="userSpaceOnUse">
<stop stop-color="#69B7FF"/>
<stop offset="1" stop-color="#45A1F7"/>
</linearGradient>
</defs>
</svg>
