<svg width="36" height="41" viewBox="0 0 36 41" fill="none" xmlns="http://www.w3.org/2000/svg">
<mask id="mask0_105_42479" style="mask-type:alpha" maskUnits="userSpaceOnUse" x="11" y="11" width="14" height="30">
<path d="M11 11.1055L11 40.8074L18.0728 37.966L25 40.8074L25 11.1055L18 12.9619L11 11.1055Z" fill="url(#paint0_linear_105_42479)"/>
</mask>
<g mask="url(#mask0_105_42479)">
<path d="M11 11.1055L11 40.8074L18 38.951L25 40.8074L25 11.1055L18 12.9619L11 11.1055Z" fill="url(#paint1_linear_105_42479)"/>
<path d="M13.0754 42.7502L13.0754 9.62087" stroke="white"/>
<path d="M22.7797 42.7503L22.7797 9.62091" stroke="white"/>
</g>
<path d="M15.7955 2.97997C16.8917 1.4982 19.1083 1.4982 20.2045 2.97997C20.964 4.00663 22.3317 4.37309 23.5027 3.86373C25.1929 3.12856 27.1126 4.23689 27.321 6.06822C27.4654 7.33708 28.4666 8.33828 29.7355 8.48269C31.5668 8.69112 32.6751 10.6108 31.94 12.301C31.4306 13.4721 31.7971 14.8397 32.8237 15.5992C34.3055 16.6954 34.3055 18.912 32.8237 20.0082C31.7971 20.7677 31.4306 22.1354 31.94 23.3064C32.6751 24.9966 31.5668 26.9163 29.7355 27.1247C28.4666 27.2691 27.4654 28.2703 27.321 29.5392C27.1126 31.3705 25.1929 32.4789 23.5027 31.7437C22.3317 31.2343 20.964 31.6008 20.2045 32.6275C19.1083 34.1092 16.8917 34.1092 15.7955 32.6275C15.036 31.6008 13.6683 31.2343 12.4973 31.7437C10.8071 32.4789 8.88741 31.3705 8.67898 29.5392C8.53457 28.2703 7.53337 27.2691 6.26451 27.1247C4.43317 26.9163 3.32485 24.9966 4.06001 23.3064C4.56938 22.1354 4.20292 20.7677 3.17626 20.0082C1.69449 18.912 1.69449 16.6954 3.17626 15.5992C4.20292 14.8397 4.56938 13.4721 4.06001 12.301C3.32485 10.6108 4.43317 8.69112 6.26451 8.48269C7.53337 8.33828 8.53457 7.33708 8.67898 6.06822C8.88741 4.23689 10.8071 3.12856 12.4973 3.86373C13.6683 4.37309 15.036 4.00663 15.7955 2.97997Z" fill="url(#paint2_linear_105_42479)"/>
<path d="M18 30.1654C24.8273 30.1654 30.3618 24.6308 30.3618 17.8036C30.3618 10.9764 24.8273 5.44179 18 5.44179C11.1728 5.44179 5.63824 10.9764 5.63824 17.8036C5.63824 24.6308 11.1728 30.1654 18 30.1654Z" fill="url(#paint3_linear_105_42479)"/>
<path d="M18.0001 6.70886C24.1276 6.70886 29.0948 11.6761 29.0948 17.8036C29.0948 23.931 24.1276 28.8983 18.0001 28.8983C11.8727 28.8983 6.9054 23.931 6.9054 17.8036C6.9054 11.6761 11.8727 6.70886 18.0001 6.70886Z" fill="url(#paint4_linear_105_42479)"/>
<path d="M27.1003 17.8036C27.1003 12.7778 23.0261 8.70359 18.0003 8.70359C12.9745 8.70359 8.90031 12.7778 8.90031 17.8036C8.90031 22.8294 12.9745 26.9036 18.0003 26.9036C23.0261 26.9036 27.1003 22.8294 27.1003 17.8036Z" fill="url(#paint5_linear_105_42479)" stroke="white" stroke-width="0.8"/>
<path d="M13.564 16.4066L18.298 21.0285L30.3175 9.05536" stroke="white" stroke-width="3" stroke-linecap="round" stroke-linejoin="round"/>
<defs>
<linearGradient id="paint0_linear_105_42479" x1="25" y1="25.9564" x2="11" y2="25.9564" gradientUnits="userSpaceOnUse">
<stop stop-color="#4085EF"/>
<stop offset="1" stop-color="#4B6CC0"/>
</linearGradient>
<linearGradient id="paint1_linear_105_42479" x1="25" y1="25.9564" x2="11" y2="25.9564" gradientUnits="userSpaceOnUse">
<stop stop-color="#4085EF"/>
<stop offset="1" stop-color="#4B6CC0"/>
</linearGradient>
<linearGradient id="paint2_linear_105_42479" x1="18" y1="0" x2="18" y2="35.6074" gradientUnits="userSpaceOnUse">
<stop stop-color="#FFE141"/>
<stop offset="1" stop-color="#FEC600"/>
</linearGradient>
<linearGradient id="paint3_linear_105_42479" x1="7.01178" y1="10.9359" x2="28.9883" y2="24.3279" gradientUnits="userSpaceOnUse">
<stop stop-color="#F7A500"/>
<stop offset="1" stop-color="#F4BB47"/>
</linearGradient>
<linearGradient id="paint4_linear_105_42479" x1="8.13814" y1="23.9673" x2="27.8621" y2="11.948" gradientUnits="userSpaceOnUse">
<stop stop-color="#F7A500"/>
<stop offset="1" stop-color="#FFC95B"/>
</linearGradient>
<linearGradient id="paint5_linear_105_42479" x1="9.55586" y1="23.0814" x2="26.4447" y2="12.7897" gradientUnits="userSpaceOnUse">
<stop stop-color="#F7A500"/>
<stop offset="1" stop-color="#FFC95B"/>
</linearGradient>
</defs>
</svg>
