<svg width="64" height="64" viewBox="0 0 64 64" fill="none" xmlns="http://www.w3.org/2000/svg">
<g id="icon/64/&#236;&#153;&#128;&#236;&#157;&#184;&#236;&#158;&#148; /on">
<g id="&#236;&#153;&#128;&#236;&#157;&#184;&#236;&#158;&#148;">
<path id="Vector 1605" d="M26.9455 35.6685C8.15274 32.352 13.0779 13.7976 17.4245 6.07031H47.2297C56.5024 27.7618 44.332 34.8406 37.2947 35.6685C35.6386 35.8633 33.1551 36.7448 33.1551 41.05C33.1551 45.3552 33.431 45.8569 33.569 49.6515C33.776 55.24 39.1575 55.033 42.4692 56.0679C45.1185 56.8958 45.4359 57.9307 45.1599 58.3447C43.987 58.8276 38.6095 60.0005 32.3271 60.0005C26.0447 60.0005 22.7248 59.584 19.4132 58.3421C19.2476 57.183 21.0122 56.3439 22.1851 56.0679C26.4922 55.6118 30.7541 53.6255 31.0853 49.6515C31.4164 45.6775 31.0853 44.7756 31.0853 41.05C31.0853 37.3243 30.4641 36.2894 26.9455 35.6685Z" fill="#DFEAF5"/>
<g id="Group 1261167420">
<mask id="mask0_1482_68978" style="mask-type:alpha" maskUnits="userSpaceOnUse" x="13" y="6" width="38" height="31">
<path id="Vector 1607" d="M26.9455 35.6685C8.15274 32.352 13.0779 13.7976 17.4245 6.07031H47.2297C56.5024 27.7618 44.332 34.8406 37.2947 35.6685C33.4203 36.2477 31.3794 36.4509 26.9455 35.6685Z" fill="#E4F2FF"/>
</mask>
<g mask="url(#mask0_1482_68978)">
<path id="Vector 1596" d="M48.0158 15.892C50.7906 15.1116 51.8276 15.9203 51.9993 16.4222L53.4192 21.8806L39.1683 32.1997C33.8887 30.06 23.6109 25.0994 24.7366 22.3749C26.1437 18.9693 33.2059 16.0768 39.2357 17.3583C45.2654 18.6398 44.5474 16.8676 48.0158 15.892Z" fill="black"/>
<path id="Vector 1595" d="M47.4772 18.3706C52.0908 14.7988 53.1202 16.8824 53.0582 18.3706L48.7794 44.7872C47.7872 46.3994 43.4589 49.624 34.0829 49.624C24.7069 49.624 19.5104 47.3916 18.0842 46.2754L15.2937 20.2309C15.0457 19.7969 15.2565 18.8171 18.0842 18.3706C21.6188 17.8125 26.6416 22.2773 32.0366 22.6494C37.4315 23.0214 41.7102 22.8354 47.4772 18.3706Z" fill="#4B062B"/>
<path id="Vector 1594" d="M25.8989 21.162C19.5738 14.837 15.9773 15.6431 14.551 15.7671C12.1326 16.6973 5.7746 47.1944 19.5738 51.2992C48.9668 60.0427 77.8017 37.9049 52.6875 30.2776C50.7214 29.6805 33.8188 29.082 25.8989 21.162Z" fill="#9A0B58"/>
</g>
</g>
<path id="Vector 1606" d="M33.3691 49.6588L33.3692 49.6589C33.4221 51.0897 33.8075 52.1656 34.4211 52.986C35.0335 53.8047 35.8617 54.3536 36.7751 54.7507C37.6868 55.1471 38.6927 55.3962 39.6677 55.61C39.8808 55.6567 40.0921 55.7017 40.3006 55.7461C41.0531 55.9063 41.7699 56.0589 42.4095 56.2588C43.7189 56.668 44.4218 57.1198 44.7635 57.496C45.0608 57.8234 45.0658 58.0626 45.018 58.1858C44.4021 58.4214 42.8207 58.8156 40.6289 59.1561C38.361 59.5084 35.4564 59.8005 32.3271 59.8005C26.1284 59.8005 22.847 59.3966 19.6083 58.2017C19.6048 57.7834 19.9088 57.3877 20.4136 57.0398C20.9508 56.6696 21.6542 56.3994 22.2215 56.2648C24.3515 55.9786 26.5203 55.3622 28.2049 54.3069C29.8959 53.2474 31.1123 51.7353 31.2846 49.6681C31.4961 47.1292 31.4381 45.8252 31.3684 44.256C31.3287 43.3645 31.2853 42.3875 31.2853 41.05C31.2853 39.1923 31.1347 37.9373 30.4955 37.0758C29.8502 36.2061 28.7434 35.7827 26.9803 35.4715C22.3157 34.6483 19.1435 32.8838 17.0665 30.5968C14.989 28.3094 13.991 25.4818 13.7069 22.5044C13.1426 16.5926 15.397 10.1259 17.5418 6.27031H47.0975C51.6619 17.0137 50.9151 24.097 48.2071 28.59C45.4845 33.1074 40.7472 35.0609 37.2713 35.4698C36.4233 35.5696 35.3389 35.8475 34.4664 36.6725C33.5889 37.5023 32.9551 38.8573 32.9551 41.05C32.9551 43.208 33.0243 44.4148 33.1109 45.5573C33.1267 45.7659 33.143 45.9721 33.1596 46.1814C33.2338 47.1162 33.3129 48.1126 33.3691 49.6588Z" fill="url(#paint0_linear_1482_68978)" fill-opacity="0.4" stroke="white" stroke-width="0.4"/>
<path id="Ellipse 3423" d="M47.1718 6.27678C47.1718 6.38693 47.0993 6.51447 46.9117 6.65576C46.7264 6.79535 46.4466 6.93428 46.0761 7.06903C45.3361 7.33811 44.258 7.58222 42.9139 7.78786C40.2275 8.19889 36.4968 8.45356 32.3278 8.45356C28.1587 8.45356 24.4281 8.19889 21.7416 7.78786C20.3976 7.58222 19.3194 7.33811 18.5795 7.06903C18.2089 6.93428 17.9291 6.79535 17.7438 6.65576C17.5563 6.51447 17.4838 6.38693 17.4838 6.27678C17.4838 6.16663 17.5563 6.03909 17.7438 5.8978C17.9291 5.75821 18.2089 5.61929 18.5795 5.48453C19.3194 5.21546 20.3976 4.97134 21.7416 4.7657C24.4281 4.35467 28.1587 4.1 32.3278 4.1C36.4968 4.1 40.2275 4.35467 42.9139 4.7657C44.258 4.97134 45.3361 5.21546 46.0761 5.48453C46.4466 5.61929 46.7264 5.75822 46.9117 5.8978C47.0993 6.03909 47.1718 6.16663 47.1718 6.27678Z" fill="url(#paint1_linear_1482_68978)" stroke="white" stroke-width="0.2"/>
<path id="Ellipse 3424" d="M42.808 57.8164C42.808 58.2673 38.1213 58.6328 32.195 58.6328C26.2687 58.6328 21.582 58.2673 21.582 57.8164C21.582 57.3655 26.2687 57 32.195 57C38.1213 57 42.808 57.3655 42.808 57.8164Z" fill="#89B9D2" fill-opacity="0.3"/>
</g>
</g>
<defs>
<linearGradient id="paint0_linear_1482_68978" x1="47.2631" y1="36.5716" x2="16.737" y2="36.5716" gradientUnits="userSpaceOnUse">
<stop stop-color="white" stop-opacity="0.5"/>
<stop offset="0.478261" stop-color="white"/>
<stop offset="1" stop-color="white" stop-opacity="0.5"/>
</linearGradient>
<linearGradient id="paint1_linear_1482_68978" x1="32.3278" y1="4" x2="32.3278" y2="8.55356" gradientUnits="userSpaceOnUse">
<stop stop-color="#DFEAF5"/>
<stop offset="1" stop-color="#DCF3FF"/>
</linearGradient>
</defs>
</svg>
