<svg width="56" height="56" viewBox="0 0 56 56" fill="none" xmlns="http://www.w3.org/2000/svg">
<circle cx="28" cy="28" r="21" fill="white" stroke="#3F86F1" stroke-width="2"/>
<path d="M21 26.7273L28.28 21L35 26.7273L32.76 35H23.8L21 26.7273Z" fill="white" stroke="#3F86F1" stroke-width="2" stroke-linecap="round"/>
<path d="M28 22.168V12.8346L21 8.16797" stroke="#3F86F1" stroke-width="1.86667"/>
<path d="M36.1667 8.16797L28 12.8346" stroke="#3F86F1" stroke-width="1.86667"/>
<path d="M16.7337 41.601L23.3333 35.0013M16.7337 41.601L10.5 39.668M16.7337 41.601L21 47.8346" stroke="#3F86F1" stroke-width="2"/>
<path d="M39.2663 41.601L32.6667 35.0013M39.2663 41.601L36.1667 47.8346M39.2663 41.601L45.5 39.668" stroke="#3F86F1" stroke-width="2"/>
<path d="M20.682 26.6819L11.6667 24.2663L7 26.832" stroke="#3F86F1" stroke-width="1.86667"/>
<path d="M10.5 16.332L11.6667 24.4987" stroke="#3F86F1" stroke-width="1.86667"/>
<path d="M35 26.6836L44.0153 24.2679M44.0153 24.2679L49 26.6836M44.0153 24.2679L45.5 16.334" stroke="#3F86F1" stroke-width="1.86667"/>
</svg>
