<svg width="60" height="60" viewBox="0 0 60 60" fill="none" xmlns="http://www.w3.org/2000/svg">
<circle cx="28" cy="32" r="28" fill="#F8F8F8"/>
<path fill-rule="evenodd" clip-rule="evenodd" d="M35.9402 18.9848H29.5388C28.8503 18.9848 28.3607 19.6376 28.5694 20.2772L29.766 23.9433H35.8849L36.9216 20.2375C37.0981 19.6066 36.611 18.9848 35.9402 18.9848ZM38.2159 26.9184L39.8659 21.0203C40.5719 18.4968 38.6233 16.0098 35.9402 16.0098H29.5388C26.7848 16.0098 24.8262 18.6209 25.6613 21.1793L27.5345 26.9184H38.2159Z" fill="url(#paint0_linear_2965_9536)"/>
<path d="M42.7381 32.1761C42.7381 36.3774 39.2383 39.645 32.7386 39.645C26.2389 39.645 22.739 36.3774 22.739 32.1761C22.739 27.0198 26.7388 22.373 32.7386 22.373C38.7383 22.373 42.7381 27.0198 42.7381 32.1761Z" fill="url(#paint1_linear_2965_9536)"/>
<path d="M35.3943 29.0228C35.404 28.9362 35.4772 28.8708 35.5644 28.8708H36.2044C36.2989 28.8708 36.3755 28.9474 36.3755 29.0419V32.7346C36.3755 33.0991 36.2942 33.4081 36.1317 33.6618C35.9716 33.9179 35.7475 34.1112 35.4594 34.2417C35.1712 34.3747 34.8363 34.4412 34.4546 34.4412C34.2872 34.4412 34.1099 34.419 33.9227 34.3747C33.738 34.3304 33.5607 34.2614 33.3908 34.1679C33.2637 34.0969 33.1523 34.0117 33.0564 33.9123C33.0025 33.8564 33.002 33.7699 33.0485 33.7077L33.3112 33.356C33.3767 33.2683 33.5063 33.2646 33.5894 33.3357C33.6746 33.4085 33.7672 33.4692 33.8673 33.5177C34.0298 33.599 34.2096 33.6396 34.4066 33.6396C34.5987 33.6396 34.7612 33.6039 34.8942 33.5325C35.0272 33.4635 35.1294 33.3613 35.2008 33.2259C35.2722 33.0929 35.3079 32.9316 35.3079 32.742V29.7942L35.3943 29.0228ZM32.7222 30.9172V30.8396C32.7222 30.5343 32.7591 30.2572 32.833 30.0085C32.9093 29.7573 33.0165 29.5418 33.1544 29.362C33.2947 29.1823 33.4646 29.0431 33.6641 28.9446C33.8636 28.8461 34.0889 28.7969 34.3401 28.7969C34.6061 28.7969 34.8289 28.8461 35.0087 28.9446C35.1885 29.0431 35.3362 29.1835 35.452 29.3657C35.5677 29.5455 35.6576 29.7585 35.7216 30.0048C35.7881 30.2486 35.8398 30.5158 35.8768 30.8064V30.9763C35.8398 31.2546 35.7844 31.5131 35.7106 31.752C35.6367 31.9909 35.5394 32.2002 35.4187 32.38C35.2981 32.5573 35.1479 32.6952 34.9681 32.7937C34.7908 32.8922 34.579 32.9415 34.3327 32.9415C34.0865 32.9415 33.8636 32.891 33.6641 32.79C33.4671 32.689 33.2984 32.5474 33.1581 32.3652C33.0177 32.183 32.9093 31.9687 32.833 31.7225C32.7591 31.4762 32.7222 31.2078 32.7222 30.9172ZM33.786 30.8396V30.9172C33.786 31.0822 33.802 31.2361 33.834 31.3789C33.8661 31.5218 33.9153 31.6486 33.9818 31.7594C34.0508 31.8678 34.1357 31.9527 34.2367 32.0143C34.3401 32.0734 34.462 32.1029 34.6024 32.1029C34.7969 32.1029 34.9558 32.0623 35.0789 31.981C35.202 31.8973 35.2944 31.7828 35.3559 31.6375C35.4175 31.4922 35.4532 31.3248 35.4631 31.1351V30.6512C35.4581 30.4961 35.4372 30.3569 35.4003 30.2338C35.3633 30.1082 35.3116 30.0011 35.2451 29.9124C35.1786 29.8238 35.0924 29.7548 34.9865 29.7056C34.8807 29.6563 34.7551 29.6317 34.6098 29.6317C34.4694 29.6317 34.3475 29.6637 34.2441 29.7277C34.1431 29.7893 34.0581 29.8743 33.9892 29.9826C33.9227 30.091 33.8722 30.219 33.8377 30.3668C33.8033 30.5121 33.786 30.6697 33.786 30.8396Z" fill="white"/>
<path d="M29.9936 27.1914C30.0881 27.1914 30.1647 27.268 30.1647 27.3625V32.6979C30.1647 32.7924 30.0881 32.869 29.9936 32.869H29.2719C29.1774 32.869 29.1008 32.7924 29.1008 32.6979V27.3625C29.1008 27.268 29.1774 27.1914 29.2719 27.1914H29.9936ZM32.3063 28.8721C32.4534 28.8721 32.532 29.0455 32.435 29.1561L30.9478 30.8521L30.1842 31.6248C30.102 31.708 29.9624 31.686 29.9097 31.5816L29.6782 31.123C29.6482 31.0637 29.6554 30.9923 29.6965 30.9401L30.3678 30.0875L31.3546 28.9321C31.3871 28.8941 31.4347 28.8721 31.4847 28.8721H32.3063ZM31.6731 32.869C31.6148 32.869 31.5604 32.8393 31.529 32.7901L30.4768 31.1461C30.4312 31.0748 30.4446 30.9808 30.5083 30.925L30.9862 30.5072C31.0638 30.4393 31.1834 30.455 31.2409 30.5405L32.6267 32.6024C32.7031 32.7161 32.6216 32.869 32.4847 32.869H31.6731Z" fill="white"/>
<rect x="12.1665" y="40.7734" width="29.9987" height="2.49989" rx="1.24995" fill="url(#paint2_linear_2965_9536)"/>
<rect x="17.1663" y="35.7734" width="4.99978" height="12.4995" rx="1.35679" fill="url(#paint3_linear_2965_9536)"/>
<rect x="32.1655" y="35.7734" width="4.99978" height="12.4995" rx="1.35679" fill="url(#paint4_linear_2965_9536)"/>
<path d="M13.833 39.6302C13.833 38.8809 14.4405 38.2734 15.1898 38.2734H17.1662V45.7731H15.1898C14.4405 45.7731 13.833 45.1657 13.833 44.4163V39.6302Z" fill="url(#paint5_linear_2965_9536)"/>
<path d="M37.1653 38.2734H39.1417C39.891 38.2734 40.4985 38.8809 40.4985 39.6302V44.4163C40.4985 45.1657 39.891 45.7731 39.1417 45.7731H37.1653V38.2734Z" fill="url(#paint6_linear_2965_9536)"/>
<circle cx="46" cy="14" r="13.3" fill="#3B4A65" stroke="white" stroke-width="1.4"/>
<path d="M46 9V19" stroke="white" stroke-width="1.4" stroke-linecap="round"/>
<path d="M41 14H51" stroke="white" stroke-width="1.4" stroke-linecap="round"/>
<defs>
<linearGradient id="paint0_linear_2965_9536" x1="32.7392" y1="16.0098" x2="32.7392" y2="26.9184" gradientUnits="userSpaceOnUse">
<stop stop-color="#DDDDDD"/>
<stop offset="1" stop-color="#AAAAAA"/>
</linearGradient>
<linearGradient id="paint1_linear_2965_9536" x1="27.7388" y1="22.8276" x2="38.1929" y2="39.645" gradientUnits="userSpaceOnUse">
<stop stop-color="#DDDDDD"/>
<stop offset="1" stop-color="#AAAAAA"/>
</linearGradient>
<linearGradient id="paint2_linear_2965_9536" x1="27.1658" y1="40.7734" x2="27.1658" y2="43.2733" gradientUnits="userSpaceOnUse">
<stop stop-color="#EEEEEE"/>
<stop offset="1" stop-color="#BBBBBB"/>
</linearGradient>
<linearGradient id="paint3_linear_2965_9536" x1="19.6662" y1="35.7734" x2="19.6662" y2="48.2729" gradientUnits="userSpaceOnUse">
<stop stop-color="#DDDDDD"/>
<stop offset="1" stop-color="#AAAAAA"/>
</linearGradient>
<linearGradient id="paint4_linear_2965_9536" x1="34.6654" y1="35.7734" x2="34.6654" y2="48.2729" gradientUnits="userSpaceOnUse">
<stop stop-color="#DDDDDD"/>
<stop offset="1" stop-color="#AAAAAA"/>
</linearGradient>
<linearGradient id="paint5_linear_2965_9536" x1="15.4996" y1="38.2734" x2="15.4996" y2="45.7731" gradientUnits="userSpaceOnUse">
<stop stop-color="#BBBBBB"/>
<stop offset="1" stop-color="#AAAAAA"/>
</linearGradient>
<linearGradient id="paint6_linear_2965_9536" x1="38.8319" y1="38.2734" x2="38.8319" y2="45.7731" gradientUnits="userSpaceOnUse">
<stop stop-color="#BBBBBB"/>
<stop offset="1" stop-color="#AAAAAA"/>
</linearGradient>
</defs>
</svg>
