<svg width="24" height="24" viewBox="0 0 24 24" fill="none" xmlns="http://www.w3.org/2000/svg">
<rect x="4.5" y="15" width="4" height="6" rx="0.5" fill="#FFD633"/>
<rect x="10" y="12" width="4" height="9" rx="0.5" fill="#FFC633"/>
<rect x="15.5" y="8" width="4" height="13" rx="0.5" fill="#FF862F"/>
<path fill-rule="evenodd" clip-rule="evenodd" d="M17.0258 3.34202C17.1131 3.08005 17.3962 2.93847 17.6582 3.02579L19.1582 3.52579C19.4202 3.61312 19.5618 3.89628 19.4744 4.15825L18.9744 5.65825C18.8871 5.92022 18.604 6.0618 18.342 5.97448C18.08 5.88715 17.9384 5.60399 18.0258 5.34202L18.1063 5.10036L13.252 7.93202C13.0944 8.02395 12.8993 8.02275 12.7428 7.92888L10.4883 6.57613L5.23952 9.43908C4.9971 9.57131 4.69338 9.48199 4.56115 9.23956C4.42892 8.99714 4.51824 8.69342 4.76067 8.56119L10.2607 5.56119C10.4163 5.47628 10.6053 5.48017 10.7573 5.57139L13.0037 6.91919L17.7937 4.12504L17.342 3.97448C17.08 3.88715 16.9384 3.60399 17.0258 3.34202Z" fill="#EB5147"/>
</svg>
