<svg width="32" height="33" viewBox="0 0 32 33" fill="none" xmlns="http://www.w3.org/2000/svg">
<circle cx="16" cy="16.2031" r="16" fill="#3F86F1"/>
<path d="M17.2124 23.6345L5.77752 18.1659C5.27058 17.9234 5.00902 17.3544 5.16908 16.8158C5.31864 16.3125 5.52214 15.657 5.75576 14.9823C6.00331 14.2674 6.28469 13.5309 6.57154 12.9311C7.32835 11.3485 8.90119 9.09036 8.90119 9.09036C8.90119 9.09036 9.37363 8.37728 10.1605 9.09036C10.9473 9.80344 11.042 10.6962 12.1753 10.9163C13.3087 11.1364 14.0681 10.4117 15.292 10.5066C16.7499 10.6197 17.5652 11.5652 18.2375 12.7097C19.2883 14.4989 19.9896 16.7745 22.2495 17.1177C23.2219 17.2654 23.847 16.7727 24.7681 17.1177C26.2944 17.6894 27.132 18.9512 27.0977 20.5807C27.0946 20.7303 27.0711 20.8833 27.0318 21.0372C26.7074 22.3056 25.3033 23.6345 25.3033 23.6345H17.2124Z" fill="white"/>
<path d="M5.75576 14.9823C6.00331 14.2674 6.28469 13.5309 6.57154 12.9311C7.32835 11.3485 8.90119 9.09036 8.90119 9.09036C8.90119 9.09036 9.37363 8.37728 10.1605 9.09036C10.9473 9.80344 11.042 10.6962 12.1753 10.9163C13.3087 11.1364 14.0681 10.4117 15.292 10.5066C16.7499 10.6197 17.5652 11.5652 18.2375 12.7097M5.75576 14.9823C5.52214 15.657 5.31864 16.3125 5.16908 16.8158C5.00902 17.3544 5.27058 17.9234 5.77752 18.1659L17.2124 23.6345H25.3033C25.3033 23.6345 26.7074 22.3056 27.0318 21.0372M5.75576 14.9823L18.321 21.0372H27.0318M27.0318 21.0372C27.0711 20.8833 27.0946 20.7303 27.0977 20.5807C27.132 18.9512 26.2944 17.6894 24.7681 17.1177C23.847 16.7727 23.2219 17.2654 22.2495 17.1177C19.9896 16.7745 19.2883 14.4989 18.2375 12.7097M18.2375 12.7097L15.292 14.4357M19.3928 14.9823L17.6644 16.1133" stroke="#3F86F1" stroke-width="1.63333" stroke-linecap="round"/>
</svg>
