<svg width="32" height="32" viewBox="0 0 32 32" fill="none" xmlns="http://www.w3.org/2000/svg">
<rect width="32" height="32" rx="16" fill="white"/>
<path d="M8.93175 20.6613C8.98854 18.2194 11.6056 17.7035 12.907 17.7508C13.3092 17.8455 15.1075 17.9779 19.0827 17.7508C23.058 17.5238 23.3419 21.8207 22.987 23.9975H8.93175C8.90808 23.9029 8.87496 23.1032 8.93175 20.6613Z" fill="#F0F3F9"/>
<path d="M17.5205 17.9648L14.3262 18.1068L15.178 23.9987H16.5977L17.5205 17.9648Z" fill="#4A73B0"/>
<path d="M14.3835 18.1048C14.2726 17.3286 14.2247 16.8934 14.1138 16.1172H17.5211L17.4501 18.1006C17.2135 18.3386 16.4989 18.8147 15.8174 18.8147C15.136 18.8147 14.5492 18.3428 14.3835 18.1048Z" fill="#F4A292"/>
<path d="M13.8464 17.1133H14.2562L14.966 22.5082L14.3982 21.9403H13.4044L13.1914 19.8817H11.7007L12.9754 17.622C13.1527 17.3077 13.4856 17.1133 13.8464 17.1133Z" fill="#D7DFF0"/>
<path d="M17.9304 17.1133H17.5207L16.825 22.5082L17.3787 21.9403H18.3725L18.5855 19.8817H20.0762L18.8014 17.622C18.6241 17.3077 18.2913 17.1133 17.9304 17.1133Z" fill="#D7DFF0"/>
<circle cx="12.25" cy="12.75" r="1.25" fill="#FAD5CA"/>
<circle cx="19.75" cy="12.75" r="1.25" fill="#FAD5CA"/>
<path d="M12.2681 12.7116C12.2681 12.2573 12.6467 11.1026 12.836 10.582C15.1075 10.1277 17.947 10.724 19.0827 11.0789C19.1774 11.3865 19.3951 12.0727 19.5087 12.3567C19.6506 12.7116 19.8636 13.9893 19.0117 15.3381C18.1599 16.6868 15.7464 17.1837 14.0427 16.3319C12.3391 15.48 12.2681 13.2795 12.2681 12.7116Z" fill="#FAD5CA"/>
<path d="M12.5894 11.5123L12.2684 13.2092C12.221 13.2092 11.9986 12.8116 11.4875 11.2215C10.8486 9.23393 13.2622 6.67843 16.3146 6.89139C19.367 7.10435 20.5737 9.44689 20.5028 10.7956C20.446 11.8746 19.9112 12.9489 19.6509 13.3511L19.3171 11.8727C19.2202 11.4437 18.8557 11.1284 18.4172 11.0945C17.2982 11.0081 15.1485 10.8368 13.7049 10.6893C13.1769 10.6354 12.6881 10.9907 12.5894 11.5123Z" fill="#372E2C"/>
<path d="M11.6919 10C11.2442 10.3511 11.2127 12 13.0143 12C14.8159 12 17.0129 10.8582 18 10H11H11.6919Z" fill="#372E2C"/>
<path d="M19.4424 10C19.8971 10.5106 20.6421 11.9574 18.9228 12C17.0316 12 16 10.5037 16 10H19.4424Z" fill="#372E2C"/>
</svg>
