<svg width="60" height="60" viewBox="0 0 60 60" fill="none" xmlns="http://www.w3.org/2000/svg">
<path d="M26.7308 39.7256L29.8363 33.1289L40.5831 38.2333C39.0208 41.7359 35.7411 49.0277 35.1202 50.174C34.4993 51.3203 33.4286 51.6268 32.9709 51.6368H21.5974L9.51132 46.5085C8.99951 46.2913 8.7631 45.6984 8.98509 45.1887L13.4333 34.9742C13.6544 34.4666 14.2459 34.2352 14.7527 34.4581L26.7308 39.7256Z" fill="url(#paint0_linear_4007_13815)"/>
<path d="M26.7311 39.7256L29.8365 33.1289L40.5833 38.2333C39.0211 41.7359 35.7414 49.0277 35.1205 50.174C34.4996 51.3203 33.4289 51.6268 32.9712 51.6368H21.5977C22.4809 50.8274 24.527 48.5461 25.6454 45.896C26.7638 43.2458 26.8352 40.6782 26.7311 39.7256Z" fill="url(#paint1_linear_4007_13815)"/>
<path d="M8.98509 45.1892L13.4333 34.9748C13.6544 34.4672 14.2459 34.2358 14.7527 34.4587L20.5636 37.0141L15.3256 48.9761L9.51132 46.5091C8.99951 46.2919 8.7631 45.699 8.98509 45.1892Z" fill="url(#paint2_linear_4007_13815)"/>
<rect x="40.7734" y="7.875" width="12.172" height="18.2537" rx="1" transform="rotate(25.1784 40.7734 7.875)" fill="url(#paint3_linear_4007_13815)"/>
<path d="M40.348 8.77999C40.583 8.28018 41.1786 8.06547 41.6784 8.30044L50.884 12.628C51.3838 12.863 51.5985 13.4586 51.3636 13.9584L51.3376 14.0136L40.3221 8.83515L40.348 8.77999Z" fill="#686B6B"/>
<path d="M41.0036 38.6549L28.613 32.8317C27.595 32.3533 27.7552 31.3131 27.9626 30.8527C30.8429 24.6651 36.7339 12.0429 37.2556 11.0554C37.9077 9.82097 39.0024 10.2404 40.1437 10.9158C41.2849 11.5912 41.0036 13.0818 41.0036 14.5957C41.0036 16.1096 41.0036 17.5996 42.3796 20.7206C43.7555 23.8415 46.8048 25.3096 47.6433 25.7288C48.314 26.0642 48.0936 27.095 47.8995 27.5684C46.3623 30.8524 43.1947 37.6067 42.8221 38.352C42.4494 39.0973 41.4545 38.8645 41.0036 38.6549Z" fill="url(#paint4_linear_4007_13815)"/>
<defs>
<linearGradient id="paint0_linear_4007_13815" x1="24.5825" y1="33.1289" x2="24.5825" y2="51.6368" gradientUnits="userSpaceOnUse">
<stop stop-color="#F1F8FF"/>
<stop offset="1" stop-color="#DEE9F3"/>
</linearGradient>
<linearGradient id="paint1_linear_4007_13815" x1="31.0905" y1="33.1289" x2="31.0905" y2="51.6368" gradientUnits="userSpaceOnUse">
<stop stop-color="#E6EEF5"/>
<stop offset="1" stop-color="#C6D4E1"/>
</linearGradient>
<linearGradient id="paint2_linear_4007_13815" x1="14.5728" y1="34.0547" x2="14.5728" y2="48.9761" gradientUnits="userSpaceOnUse">
<stop stop-color="#A8B7DE"/>
<stop offset="1" stop-color="#8496C9"/>
</linearGradient>
<linearGradient id="paint3_linear_4007_13815" x1="46.8595" y1="7.875" x2="46.8595" y2="26.1287" gradientUnits="userSpaceOnUse">
<stop stop-color="#F6F6F6"/>
<stop offset="1" stop-color="#EAEAEA"/>
</linearGradient>
<linearGradient id="paint4_linear_4007_13815" x1="37.9522" y1="10.2656" x2="37.9522" y2="38.8621" gradientUnits="userSpaceOnUse">
<stop stop-color="#D3D9E4"/>
<stop offset="1" stop-color="#9CAAC4"/>
</linearGradient>
</defs>
</svg>
