<svg width="60" height="60" viewBox="0 0 60 60" fill="none" xmlns="http://www.w3.org/2000/svg">
<path d="M43 36C43.7911 36 44.5645 36.2346 45.2223 36.6741C45.8801 37.1136 46.3928 37.7384 46.6955 38.4693C46.9983 39.2002 47.0775 40.0044 46.9231 40.7804C46.7688 41.5563 46.3878 42.269 45.8284 42.8284C45.269 43.3878 44.5563 43.7688 43.7804 43.9231C43.0044 44.0775 42.2002 43.9983 41.4693 43.6955C40.7384 43.3928 40.1136 42.8801 39.6741 42.2223C39.2346 41.5645 39 40.7911 39 40" stroke="#EDC472" stroke-width="3"/>
<path d="M43 36H20" stroke="#EDC472" stroke-width="3"/>
<path d="M47.5 31C48.5878 31 49.6512 30.6774 50.5556 30.0731C51.4601 29.4687 52.1651 28.6098 52.5813 27.6048C52.9976 26.5998 53.1065 25.4939 52.8943 24.427C52.6821 23.3601 52.1583 22.3801 51.3891 21.6109C50.6199 20.8417 49.6399 20.3179 48.573 20.1057C47.5061 19.8935 46.4002 20.0024 45.3952 20.4187C44.3902 20.8349 43.5313 21.5399 42.9269 22.4444C42.3226 23.3488 42 24.4122 42 25.5" stroke="#FAD17F" stroke-width="3"/>
<path d="M48 31H5" stroke="#FAD17F" stroke-width="3"/>
<path d="M33 25C33.7911 25 34.5645 24.7654 35.2223 24.3259C35.8801 23.8864 36.3928 23.2616 36.6955 22.5307C36.9983 21.7998 37.0775 20.9956 36.9231 20.2196C36.7688 19.4437 36.3878 18.731 35.8284 18.1716C35.269 17.6122 34.5563 17.2312 33.7804 17.0769C33.0044 16.9225 32.2002 17.0017 31.4693 17.3045C30.7384 17.6072 30.1136 18.1199 29.6741 18.7777C29.2346 19.4355 29 20.2089 29 21" stroke="#FFDE91" stroke-width="3"/>
<path d="M33 25H14" stroke="#FFDE91" stroke-width="3"/>
<rect x="11" y="10" width="3" height="3" fill="#FFDE91"/>
<rect x="19" y="15" width="3" height="3" fill="#FAD17F"/>
<rect x="28" y="7" width="3" height="3" fill="#EDC472"/>
<rect x="40" y="12" width="3" height="3" fill="#FAD17F"/>
<rect x="50" y="8" width="3" height="3" fill="#FFDE91"/>
<rect x="50" y="43" width="3" height="3" fill="#FFDE91"/>
<rect x="42" y="50" width="3" height="3" fill="#FAD17F"/>
<rect x="30" y="47" width="3" height="3" fill="#FFDE91"/>
<rect x="22" y="42" width="3" height="3" fill="#EDC472"/>
<rect x="11" y="48" width="3" height="3" fill="#FFDE91"/>
<rect x="7" y="37" width="3" height="3" fill="#FAD17F"/>
</svg>
