<svg width="40" height="41" viewBox="0 0 40 41" fill="none" xmlns="http://www.w3.org/2000/svg">
<rect y="0.710938" width="40" height="40" rx="8" fill="#F8F8F8"/>
<rect x="16" y="8.71094" width="8" height="2.5" rx="1.25" fill="#52728E"/>
<rect x="18.75" y="11.2109" width="2.5" height="3" fill="#37526B"/>
<path d="M29 22.7109C29 27.6815 24.9706 31.7109 20 31.7109C15.0294 31.7109 11 27.6815 11 22.7109C11 17.7404 15.0294 13.7109 20 13.7109C24.9706 13.7109 29 17.7404 29 22.7109Z" fill="url(#paint0_linear_2199_78409)" stroke="#3B5A77" stroke-width="2"/>
<path d="M16.0509 26.6573C15.7775 26.9307 15.7753 27.3774 16.0774 27.6187C16.6989 28.1152 17.4107 28.4905 18.1759 28.7226C19.1651 29.0227 20.213 29.0742 21.2268 28.8725C22.2407 28.6709 23.1891 28.2223 23.9882 27.5665C24.7872 26.9107 25.4122 26.068 25.8078 25.113C26.2034 24.158 26.3573 23.1202 26.256 22.0915C26.1547 21.0628 25.8012 20.0749 25.2269 19.2154C24.6526 18.356 23.8753 17.6514 22.9636 17.1641C22.2584 16.7871 21.4896 16.5492 20.6991 16.4608C20.3149 16.4178 20.0006 16.7353 20.0006 17.1219L20.0006 22.4176C20.0006 22.6033 19.9268 22.7813 19.7955 22.9126L16.0509 26.6573Z" fill="url(#paint1_linear_2199_78409)"/>
<defs>
<linearGradient id="paint0_linear_2199_78409" x1="20" y1="12.7109" x2="20" y2="32.7109" gradientUnits="userSpaceOnUse">
<stop stop-color="#F4F5F7"/>
<stop offset="1" stop-color="#E7EAED"/>
</linearGradient>
<linearGradient id="paint1_linear_2199_78409" x1="20" y1="16.209" x2="20" y2="29.209" gradientUnits="userSpaceOnUse">
<stop stop-color="#FF8188"/>
<stop offset="1" stop-color="#F4616A"/>
</linearGradient>
</defs>
</svg>
