<svg width="56" height="57" viewBox="0 0 56 57" fill="none" xmlns="http://www.w3.org/2000/svg">
<rect x="44.3281" y="32.9922" width="4.66667" height="16.3333" rx="2.33333" stroke="#3F86F1" stroke-width="2"/>
<rect x="42" y="32.9922" width="9.33333" height="4.66667" rx="2.33333" fill="white" stroke="#3F86F1" stroke-width="2"/>
<rect x="7" y="32.9922" width="4.66667" height="16.3333" rx="2.33333" stroke="#3F86F1" stroke-width="2"/>
<rect x="4.66406" y="32.9922" width="9.33333" height="4.66667" rx="2.33333" fill="white" stroke="#3F86F1" stroke-width="2"/>
<path d="M20.9948 20.1576V13.1576C20.9948 9.93589 18.3831 7.32422 15.1615 7.32422V7.32422C11.9398 7.32422 9.32812 9.93589 9.32812 13.1575V32.9909" stroke="#3F86F1" stroke-width="2"/>
<path d="M46.6667 32.9909V13.1576C46.6667 9.93589 44.055 7.32422 40.8333 7.32422V7.32422C37.6117 7.32422 35 9.93589 35 13.1575V20.1576" stroke="#3F86F1" stroke-width="2"/>
<path d="M35 18.9896V37.6563C35 41.5222 31.866 44.6562 28 44.6562V44.6562C24.134 44.6562 21 41.5222 21 37.6563V18.9896" stroke="#3F86F1" stroke-width="2"/>
</svg>
