<svg width="33" height="32" viewBox="0 0 33 32" fill="none" xmlns="http://www.w3.org/2000/svg">
<mask id="mask0_4449_20312" style="mask-type:alpha" maskUnits="userSpaceOnUse" x="0" y="0" width="33" height="32">
<circle cx="16.5" cy="16" r="16" fill="#D9D9D9"/>
</mask>
<g mask="url(#mask0_4449_20312)">
<circle cx="16.4998" cy="15.9969" r="15.2" fill="#D1D7DF"/>
</g>
<path fill-rule="evenodd" clip-rule="evenodd" d="M14.4373 0.33664C15.1127 0.248538 15.8013 0.203125 16.5002 0.203125C17.1991 0.203125 17.8876 0.248538 18.5631 0.33664C18.8917 0.379501 19.1233 0.68062 19.0804 1.00921C19.0376 1.33779 18.7364 1.56942 18.4078 1.52656C17.7838 1.44515 17.147 1.40312 16.5002 1.40312C15.8534 1.40312 15.2166 1.44515 14.5925 1.52656C14.264 1.56942 13.9628 1.33779 13.92 1.00921C13.8771 0.68062 14.1087 0.379501 14.4373 0.33664ZM11.2361 1.72668C11.363 2.03277 11.2177 2.38381 10.9117 2.51074C9.72503 3.00282 8.61711 3.64702 7.61227 4.41921C7.34952 4.62112 6.97284 4.5718 6.77093 4.30905C6.56901 4.0463 6.61833 3.66962 6.88108 3.4677C7.96812 2.63236 9.16716 1.93507 10.452 1.40227C10.7581 1.27534 11.1091 1.42058 11.2361 1.72668ZM21.7643 1.72668C21.8913 1.42058 22.2423 1.27534 22.5484 1.40227C23.8332 1.93507 25.0323 2.63236 26.1193 3.4677C26.3821 3.66962 26.4314 4.0463 26.2295 4.30905C26.0276 4.5718 25.6509 4.62112 25.3881 4.41921C24.3833 3.64702 23.2754 3.00282 22.0887 2.51074C21.7826 2.38381 21.6374 2.03277 21.7643 1.72668ZM4.80612 6.27385C5.06887 6.47577 5.11819 6.85245 4.91628 7.1152C4.1441 8.12004 3.49989 9.22796 3.00781 10.4146C2.88088 10.7207 2.52984 10.8659 2.22375 10.739C1.91765 10.6121 1.77241 10.261 1.89934 9.95492C2.43214 8.67009 3.12943 7.47105 3.96477 6.38401C4.16669 6.12126 4.54337 6.07194 4.80612 6.27385ZM28.1943 6.27385C28.457 6.07194 28.8337 6.12126 29.0356 6.38401C29.871 7.47105 30.5682 8.67009 31.101 9.95492C31.228 10.261 31.0827 10.6121 30.7766 10.739C30.4705 10.8659 30.1195 10.7207 29.9926 10.4146C29.5005 9.22796 28.8563 8.12004 28.0841 7.1152C27.8822 6.85245 27.9315 6.47577 28.1943 6.27385ZM1.50628 13.4229C1.83486 13.4658 2.06649 13.7669 2.02363 14.0955C1.94222 14.7196 1.9002 15.3563 1.9002 16.0031C1.9002 16.65 1.94222 17.2867 2.02363 17.9108C2.06649 18.2394 1.83486 18.5405 1.50628 18.5833C1.17769 18.6262 0.876572 18.3946 0.83371 18.066C0.745608 17.3906 0.700195 16.702 0.700195 16.0031C0.700195 15.3042 0.745608 14.6157 0.83371 13.9403C0.876572 13.6117 1.17769 13.38 1.50628 13.4229ZM31.4941 13.4229C31.8227 13.38 32.1238 13.6117 32.1667 13.9403C32.2548 14.6157 32.3002 15.3042 32.3002 16.0031C32.3002 16.702 32.2548 17.3906 32.1667 18.066C32.1238 18.3946 31.8227 18.6262 31.4941 18.5833C31.1655 18.5405 30.9339 18.2394 30.9768 17.9108C31.0582 17.2867 31.1002 16.65 31.1002 16.0031C31.1002 15.3563 31.0582 14.7196 30.9768 14.0955C30.9339 13.7669 31.1655 13.4658 31.4941 13.4229ZM2.22375 21.2673C2.52984 21.1403 2.88088 21.2856 3.00781 21.5917C3.49989 22.7783 4.1441 23.8862 4.91628 24.891C5.11819 25.1538 5.06887 25.5305 4.80612 25.7324C4.54337 25.9343 4.16669 25.885 3.96477 25.6222C3.12943 24.5352 2.43214 23.3362 1.89934 22.0513C1.77241 21.7452 1.91765 21.3942 2.22375 21.2673ZM30.7766 21.2673C31.0827 21.3942 31.228 21.7452 31.101 22.0513C30.5682 23.3362 29.871 24.5352 29.0356 25.6222C28.8337 25.885 28.457 25.9343 28.1943 25.7324C27.9315 25.5305 27.8822 25.1538 28.0841 24.891C28.8563 23.8862 29.5005 22.7783 29.9926 21.5917C30.1195 21.2856 30.4705 21.1403 30.7766 21.2673ZM6.77093 27.6972C6.97284 27.4344 7.34952 27.3851 7.61227 27.587C8.61711 28.3592 9.72503 29.0034 10.9117 29.4955C11.2177 29.6224 11.363 29.9735 11.2361 30.2796C11.1091 30.5857 10.7581 30.7309 10.452 30.604C9.16716 30.0712 7.96812 29.3739 6.88108 28.5385C6.61833 28.3366 6.56901 27.9599 6.77093 27.6972ZM26.2295 27.6972C26.4314 27.9599 26.3821 28.3366 26.1193 28.5385C25.0323 29.3739 23.8332 30.0712 22.5484 30.604C22.2423 30.7309 21.8913 30.5857 21.7643 30.2796C21.6374 29.9735 21.7826 29.6224 22.0887 29.4955C23.2754 29.0034 24.3833 28.3592 25.3881 27.587C25.6509 27.3851 26.0276 27.4344 26.2295 27.6972ZM13.92 30.997C13.9628 30.6685 14.264 30.4368 14.5925 30.4797C15.2166 30.5611 15.8534 30.6031 16.5002 30.6031C17.147 30.6031 17.7838 30.5611 18.4078 30.4797C18.7364 30.4368 19.0376 30.6685 19.0804 30.997C19.1233 31.3256 18.8916 31.6267 18.5631 31.6696C17.8876 31.7577 17.1991 31.8031 16.5002 31.8031C15.8013 31.8031 15.1127 31.7577 14.4373 31.6696C14.1087 31.6267 13.8771 31.3256 13.92 30.997Z" fill="#B7C1CE"/>
<rect x="12.5" y="20" width="8" height="1" rx="0.5" fill="#26282C"/>
<circle cx="10.5" cy="13.5" r="4.5" fill="white"/>
<circle cx="10.9492" cy="14.3984" r="2.25" fill="#26282C"/>
<circle cx="22.5" cy="13.5" r="4.5" fill="white"/>
<circle cx="22.0508" cy="14.3984" r="2.25" fill="#26282C"/>
</svg>
