<svg width="32" height="33" viewBox="0 0 32 33" fill="none" xmlns="http://www.w3.org/2000/svg">
<circle cx="16" cy="16.2031" r="16" fill="#3F86F1"/>
<path d="M24.2911 8.00789C23.1349 6.85166 20.8568 6.56705 19.4467 7.97717C18.4237 9.00014 18.1134 10.4548 18.5323 11.6886L20.5923 13.7486C21.6694 14.1143 22.915 13.9242 23.8946 13.1893C24.037 13.0825 24.1739 12.9641 24.3037 12.8342C25.7139 11.4241 25.3211 9.03792 24.2911 8.00789Z" fill="white" stroke="white" stroke-width="1.4"/>
<path d="M9.2383 17.6765L9.21435 19.2941C9.20598 19.859 9.66691 20.3186 10.2318 20.3087L11.8422 20.2805M9.2383 17.6765L7.46282 17.5536C6.91124 17.5155 6.49533 17.0369 6.53437 16.4854L6.6344 15.0726L12.1035 12.8051M9.2383 17.6765L18.5257 11.4906M11.8422 20.2805L11.9344 22.0737C11.9636 22.6419 12.4603 23.0713 13.0268 23.0179L14.4461 22.8844M11.8422 20.2805L19.4788 12.4436M14.4461 22.8844L14.6544 24.7867C14.7196 25.3818 15.2894 25.7867 15.8727 25.6524L17.1886 25.3497L19.4149 20.1165M14.4461 22.8844L20.7127 13.6775M20.7127 13.6775L21.7239 14.6888L19.4149 20.1165M20.7127 13.6775L19.4788 12.4436M19.4788 12.4436L18.5257 11.4906M18.5257 11.4906L17.5726 10.5375L12.1035 12.8051M12.1035 12.8051L19.4149 20.1165" stroke="white" stroke-width="1.4"/>
<path d="M18.5 7.70312L24.5 14.2031" stroke="#3F86F1" stroke-width="1.4" stroke-linecap="round"/>
</svg>
