<svg width="81" height="80" viewBox="0 0 81 80" fill="none" xmlns="http://www.w3.org/2000/svg">
<circle cx="40.5" cy="40" r="40" fill="#FFF9EA"/>
<path fill-rule="evenodd" clip-rule="evenodd" d="M64.5 28C71.4036 28 77 22.4036 77 15.5C77 8.59644 71.4036 3 64.5 3C57.5964 3 52 8.59644 52 15.5C52 18.334 52.9431 20.9477 54.5326 23.0444C54.515 23.099 54.5017 23.1562 54.4931 23.216L54.015 26.5693C53.9064 27.3314 54.6635 27.9254 55.3778 27.6384L58.4117 26.4197C60.2133 27.4263 62.2896 28 64.5 28Z" fill="#3B4A65"/>
<path d="M63.7712 9.96548C63.8496 9.23654 64.5285 8.72617 65.2505 8.85348L66.3235 9.0427C67.0455 9.17001 67.509 9.88183 67.3333 10.5936L65.6905 17.2494C65.5308 17.8964 64.8971 18.3089 64.2409 18.1932L64.0781 18.1645C63.4218 18.0488 62.9674 17.4443 63.0387 16.7818L63.7712 9.96548Z" fill="white"/>
<rect width="2.53314" height="2.53328" rx="1.26657" transform="matrix(0.984806 0.173658 -0.173638 0.98481 62.7217 19.04)" fill="white"/>
<circle opacity="0.5" cx="40.9238" cy="40" r="14" fill="url(#paint0_linear_2140_3332)"/>
<circle opacity="0.5" cx="40.9238" cy="40" r="10" fill="url(#paint1_linear_2140_3332)"/>
<path fill-rule="evenodd" clip-rule="evenodd" d="M23 26.9656C23 26.4323 23.4323 26 23.9656 26C24.4988 26 24.9311 26.4323 24.9311 26.9656V32.2742C24.9311 32.5413 25.1477 32.7578 25.4148 32.7578C25.6819 32.7578 25.8984 32.5413 25.8984 32.2742V26.9656C25.8984 26.4323 26.3307 26 26.864 26C27.3973 26 27.8296 26.4323 27.8296 26.9656V32.2761C27.8296 32.5421 28.0452 32.7578 28.3113 32.7578C28.5773 32.7578 28.793 32.5421 28.793 32.2761V26.9656C28.793 26.4323 29.2253 26 29.7585 26C30.2918 26 30.7241 26.4323 30.7241 26.9656V32.7576C30.7241 32.7577 30.7242 32.7578 30.7243 32.7578C30.7244 32.7578 30.7245 32.7579 30.7245 32.758V33.7234C30.7245 35.4532 29.5873 36.9175 28.0196 37.4092C27.9467 37.4321 27.9025 37.5062 27.9089 37.5823L29.0766 51.5947C29.1845 52.8897 28.1626 54.0003 26.8631 54.0003C25.5637 54.0003 24.5418 52.8897 24.6497 51.5947L25.8174 37.5823C25.8237 37.5064 25.7797 37.4326 25.707 37.4099C24.1383 36.9188 23 35.454 23 33.7234V32.759V32.7578V26.9656Z" fill="url(#paint2_linear_2140_3332)"/>
<path fill-rule="evenodd" clip-rule="evenodd" d="M55.4628 37.4539C57.4855 36.8863 59 34.5675 59 31.7934C59 28.5938 56.9853 26 54.5 26C52.0147 26 50 28.5938 50 31.7934C50 34.5677 51.5147 36.8865 53.5374 37.4539C53.5344 37.4749 53.5321 37.496 53.5304 37.5174L52.4244 51.757C52.3304 52.9668 53.2867 54.0003 54.5001 54.0003C55.7135 54.0003 56.6699 52.9668 56.5759 51.757L55.4698 37.5174C55.4682 37.496 55.4658 37.4748 55.4628 37.4539Z" fill="url(#paint3_linear_2140_3332)"/>
<path d="M40.5146 45.6747C38.6368 45.0552 34.4238 42.4485 34.4238 38.0301C34.4238 36.078 36.0368 34.5 38.0349 34.5C39.2146 34.5 40.2618 35.0494 40.9238 35.9144C41.5738 35.0611 42.6331 34.5 43.8127 34.5C45.8109 34.5 47.4238 36.078 47.4238 38.0301C47.4238 42.4485 43.2109 45.0552 41.3211 45.6747C41.1044 45.7448 40.7312 45.7448 40.5146 45.6747Z" fill="url(#paint4_linear_2140_3332)"/>
<defs>
<linearGradient id="paint0_linear_2140_3332" x1="33.9238" y1="26" x2="47.9238" y2="54" gradientUnits="userSpaceOnUse">
<stop stop-color="#D7EAFF"/>
<stop offset="1" stop-color="#B6D9FF"/>
</linearGradient>
<linearGradient id="paint1_linear_2140_3332" x1="32.5905" y1="30" x2="47.5905" y2="48.8889" gradientUnits="userSpaceOnUse">
<stop stop-color="#B9D9FF"/>
<stop offset="1" stop-color="#F7FAFF"/>
</linearGradient>
<linearGradient id="paint2_linear_2140_3332" x1="26.8623" y1="26" x2="26.8623" y2="54.0003" gradientUnits="userSpaceOnUse">
<stop stop-color="#FFD467"/>
<stop offset="1" stop-color="#FFBB36"/>
</linearGradient>
<linearGradient id="paint3_linear_2140_3332" x1="51.53" y1="25.7745" x2="57.3672" y2="53.5236" gradientUnits="userSpaceOnUse">
<stop stop-color="#FFD467"/>
<stop offset="1" stop-color="#FFBB36"/>
</linearGradient>
<linearGradient id="paint4_linear_2140_3332" x1="40.9238" y1="34.5" x2="40.9238" y2="45.7273" gradientUnits="userSpaceOnUse">
<stop stop-color="#FF7E7E"/>
<stop offset="1" stop-color="#F14F4F"/>
</linearGradient>
</defs>
</svg>
