<svg width="40" height="40" viewBox="0 0 40 40" fill="none" xmlns="http://www.w3.org/2000/svg">
<rect width="40" height="40" rx="8" fill="#F8F8F8"/>
<rect x="14.1992" y="7.92188" width="7.6" height="2.37509" rx="1.18755" fill="#52728E"/>
<rect x="16.8125" y="10.2969" width="2.375" height="2.85011" fill="#37526B"/>
<path d="M26.55 21.2191C26.55 25.9414 22.722 29.7695 18 29.7695C13.278 29.7695 9.45002 25.9414 9.45002 21.2191C9.45002 16.4969 13.278 12.6688 18 12.6688C22.722 12.6688 26.55 16.4969 26.55 21.2191Z" fill="url(#paint0_linear_2204_68875)" stroke="#3B5A77" stroke-width="1.90004"/>
<path d="M14.2465 24.9701C13.9869 25.2298 13.9848 25.6542 14.2717 25.8835C14.8621 26.3551 15.5384 26.7118 16.2654 26.9323C17.2051 27.2174 18.2006 27.2663 19.1637 27.0747C20.1269 26.8831 21.0279 26.4569 21.787 25.8339C22.5461 25.2109 23.1399 24.4103 23.5157 23.503C23.8915 22.5957 24.0377 21.6098 23.9414 20.6324C23.8452 19.6551 23.5094 18.7166 22.9638 17.9001C22.4183 17.0835 21.6797 16.4142 20.8137 15.9512C20.1437 15.5931 19.4134 15.3671 18.6624 15.2831C18.2974 15.2423 17.9988 15.5438 17.9988 15.9111L17.9988 20.9423C17.9988 21.1187 17.9287 21.2878 17.804 21.4125L14.2465 24.9701Z" fill="url(#paint1_linear_2204_68875)"/>
<path d="M27.1277 19.4948C26.8185 20.762 27.8173 22.0503 28.287 22.465C28.7567 22.8796 28.4996 22.6299 30.1226 24.0491C31.7457 25.4682 31.8938 27.4786 31.765 28.3063C31.6684 29.2304 31.0307 31.2369 29.2531 31.8706C27.4755 32.5042 25.8718 32.3326 25.2921 32.1676C24.648 32.0686 23.1473 31.4745 22.2972 29.8904C21.447 28.3063 21.8785 26.5242 22.2006 25.8312C22.426 25.4352 22.9541 24.7619 23.2633 25.2372C23.5724 25.7124 23.9717 25.5012 24.1328 25.3362C24.2938 25.1381 24.6738 24.3461 24.9056 22.762C25.1375 21.1779 25.7751 19.9898 26.065 19.5938C26.548 19.0327 27.4368 18.2275 27.1277 19.4948Z" fill="url(#paint2_linear_2204_68875)"/>
<path d="M26.624 24.8733C26.7882 25.6113 26.2578 26.3616 26.0083 26.6031C25.7589 26.8446 25.8954 26.6992 25.0334 27.5257C24.1714 28.3522 24.0928 29.523 24.1612 30.0051C24.2125 30.5433 24.6733 31.6463 25.6174 32.0153C26.5615 32.3844 27.291 32.35 27.5989 32.2539C27.941 32.1962 28.738 31.8503 29.1895 30.9277C29.641 30.0051 29.4118 28.9672 29.2408 28.5636C29.1211 28.3329 28.8406 27.9408 28.6764 28.2176C28.5122 28.4944 28.3001 28.3714 28.2146 28.2753C28.1291 28.16 27.9273 27.6987 27.8041 26.7761C27.681 25.8535 27.3424 25.1616 27.1884 24.9309C26.9319 24.6042 26.4599 24.1352 26.624 24.8733Z" fill="url(#paint3_linear_2204_68875)"/>
<defs>
<linearGradient id="paint0_linear_2204_68875" x1="18" y1="11.7187" x2="18" y2="30.7195" gradientUnits="userSpaceOnUse">
<stop stop-color="#F4F5F7"/>
<stop offset="1" stop-color="#E7EAED"/>
</linearGradient>
<linearGradient id="paint1_linear_2204_68875" x1="17.9988" y1="15.2461" x2="17.9988" y2="27.1894" gradientUnits="userSpaceOnUse">
<stop stop-color="#70B0FA"/>
<stop offset="1" stop-color="#569FF5"/>
</linearGradient>
<linearGradient id="paint2_linear_2204_68875" x1="26.8008" y1="18.8203" x2="26.8008" y2="32.3205" gradientUnits="userSpaceOnUse">
<stop stop-color="#FF7C84"/>
<stop offset="1" stop-color="#FA4954"/>
</linearGradient>
<linearGradient id="paint3_linear_2204_68875" x1="26.7976" y1="24.4805" x2="26.7976" y2="32.318" gradientUnits="userSpaceOnUse">
<stop stop-color="#FFE55F"/>
<stop offset="1" stop-color="#FFC224"/>
</linearGradient>
</defs>
</svg>
