<svg width="24" height="24" viewBox="0 0 24 24" fill="none" xmlns="http://www.w3.org/2000/svg">
<rect x="5.64941" y="3.67188" width="8.90664" height="2.96882" rx="0.567183" fill="url(#paint0_linear_2838_127601)"/>
<rect x="7.13379" y="6.64062" width="5.93776" height="0.890645" fill="#F09B3E"/>
<rect x="4.75879" y="7.53125" width="10.688" height="12.7659" rx="1.70155" fill="url(#paint1_linear_2838_127601)"/>
<rect x="4.75879" y="10.5" width="10.688" height="6.82827" fill="url(#paint2_linear_2838_127601)"/>
<path fill-rule="evenodd" clip-rule="evenodd" d="M9.49551 11.6875C9.33888 11.6875 9.21191 11.8145 9.21191 11.9711V12.875H8.30801C8.15138 12.875 8.02441 13.002 8.02441 13.1586V14.3727C8.02441 14.5293 8.15138 14.6563 8.30801 14.6563H9.21191V15.5602C9.21191 15.7169 9.33888 15.8438 9.49551 15.8438H10.7097C10.8663 15.8438 10.9932 15.7169 10.9932 15.5602V14.6563H11.8973C12.0539 14.6563 12.1808 14.5293 12.1808 14.3727V13.1586C12.1808 13.002 12.0539 12.875 11.8973 12.875H10.9932V11.9711C10.9932 11.8145 10.8663 11.6875 10.7096 11.6875H9.49551Z" fill="url(#paint3_linear_2838_127601)"/>
<rect width="4.2426" height="8.48519" rx="2.1213" transform="matrix(0.707114 0.707099 -0.707114 0.707099 17.5 13.0039)" fill="url(#paint4_linear_2838_127601)"/>
<path d="M16 14.5039C16.8284 13.6755 18.1716 13.6755 19 14.5039C19.8284 15.3323 19.8284 16.6754 19 17.5038L17.5 19.0038L14.5 16.0038L16 14.5039Z" fill="url(#paint5_linear_2838_127601)"/>
<defs>
<linearGradient id="paint0_linear_2838_127601" x1="8.02452" y1="2.78123" x2="12.0324" y2="7.23454" gradientUnits="userSpaceOnUse">
<stop stop-color="#CFE8FF"/>
<stop offset="1" stop-color="#BEDEFB"/>
</linearGradient>
<linearGradient id="paint1_linear_2838_127601" x1="10.1028" y1="7.53125" x2="10.1028" y2="20.2972" gradientUnits="userSpaceOnUse">
<stop stop-color="#FFDD6B"/>
<stop offset="1" stop-color="#FBB52F"/>
</linearGradient>
<linearGradient id="paint2_linear_2838_127601" x1="4.4619" y1="9.31247" x2="15.8919" y2="18.2192" gradientUnits="userSpaceOnUse">
<stop stop-color="#FFFEF9"/>
<stop offset="1" stop-color="#F0EFEB"/>
</linearGradient>
<linearGradient id="paint3_linear_2838_127601" x1="8.3213" y1="11.3906" x2="11.8839" y2="16.1408" gradientUnits="userSpaceOnUse">
<stop stop-color="#FB5872"/>
<stop offset="1" stop-color="#EE405D"/>
</linearGradient>
<linearGradient id="paint4_linear_2838_127601" x1="-0.555109" y1="4.55507" x2="4.88233" y2="4.49257" gradientUnits="userSpaceOnUse">
<stop stop-color="#FFF7F5"/>
<stop offset="1" stop-color="#EBE1DF"/>
</linearGradient>
<linearGradient id="paint5_linear_2838_127601" x1="15.6543" y1="14.4181" x2="19.1014" y2="17.8652" gradientUnits="userSpaceOnUse">
<stop stop-color="#F7655B"/>
<stop offset="1" stop-color="#E1453B"/>
</linearGradient>
</defs>
</svg>
