<svg width="24" height="24" viewBox="0 0 24 24" fill="none" xmlns="http://www.w3.org/2000/svg">
<path d="M6 4C6 2.89543 6.89543 2 8 2H16C17.1046 2 18 2.89543 18 4V13C18 15.7614 15.7614 18 13 18H11C8.23858 18 6 15.7614 6 13V4Z" fill="#4185FF"/>
<rect x="8" y="4" width="8" height="9" rx="1" fill="white"/>
<rect x="9" y="14" width="6" height="1.5" rx="0.75" fill="#003E83"/>
<path d="M10.5 15H13.5V21C13.5 21.5523 13.0523 22 12.5 22H11.5C10.9477 22 10.5 21.5523 10.5 21V15Z" fill="#003E83"/>
<path d="M10.5 19H13.5V21C13.5 21.5523 13.0523 22 12.5 22H11.5C10.9477 22 10.5 21.5523 10.5 21V19Z" fill="#FFCC00"/>
<path d="M13.5 9C13.5 10.1046 12.8284 10.5 12 10.5C11.1716 10.5 10.5 10.1046 10.5 9C10.5 7.89543 12 6 12 6C12 6 13.5 7.89543 13.5 9Z" fill="#EF4A6C"/>
</svg>
