<svg width="61" height="60" viewBox="0 0 61 60" fill="none" xmlns="http://www.w3.org/2000/svg">
<circle cx="30.5" cy="30" r="30" fill="#E7E7E7"/>
<g style="mix-blend-mode:luminosity">
<rect width="13.377" height="36.1179" rx="4.58649" transform="matrix(0.707117 -0.707096 0.707117 0.707096 13 21.457)" fill="#D9915D"/>
<circle cx="39.7866" cy="35.1679" r="0.5" transform="rotate(44.0518 39.7866 35.1679)" fill="#808080"/>
<circle cx="41.5117" cy="36.8359" r="0.5" transform="rotate(44.0518 41.5117 36.8359)" fill="#808080"/>
<circle cx="43.2363" cy="38.5039" r="0.5" transform="rotate(44.0518 43.2363 38.5039)" fill="#808080"/>
<circle cx="38.0483" cy="36.9648" r="0.5" transform="rotate(44.0518 38.0483 36.9648)" fill="#808080"/>
<circle cx="39.7734" cy="38.6328" r="0.5" transform="rotate(44.0518 39.7734 38.6328)" fill="#808080"/>
<circle cx="41.498" cy="40.3008" r="0.5" transform="rotate(44.0518 41.498 40.3008)" fill="#808080"/>
<circle cx="36.31" cy="38.7617" r="0.5" transform="rotate(44.0518 36.31 38.7617)" fill="#808080"/>
<circle cx="38.0351" cy="40.4297" r="0.5" transform="rotate(44.0518 38.0351 40.4297)" fill="#808080"/>
<circle cx="39.7597" cy="42.0976" r="0.5" transform="rotate(44.0518 39.7597 42.0976)" fill="#808080"/>
<circle cx="21.7866" cy="17.1679" r="0.5" transform="rotate(44.0518 21.7866 17.1679)" fill="#808080"/>
<circle cx="23.5117" cy="18.8359" r="0.5" transform="rotate(44.0518 23.5117 18.8359)" fill="#808080"/>
<circle cx="25.2363" cy="20.5039" r="0.5" transform="rotate(44.0518 25.2363 20.5039)" fill="#808080"/>
<circle cx="20.0483" cy="18.9648" r="0.5" transform="rotate(44.0518 20.0483 18.9648)" fill="#808080"/>
<circle cx="21.7734" cy="20.6328" r="0.5" transform="rotate(44.0518 21.7734 20.6328)" fill="#808080"/>
<circle cx="23.498" cy="22.3008" r="0.5" transform="rotate(44.0518 23.498 22.3008)" fill="#808080"/>
<circle cx="18.31" cy="20.7617" r="0.5" transform="rotate(44.0518 18.31 20.7617)" fill="#808080"/>
<circle cx="20.0351" cy="22.4297" r="0.5" transform="rotate(44.0518 20.0351 22.4297)" fill="#808080"/>
<circle cx="21.7597" cy="24.0976" r="0.5" transform="rotate(44.0518 21.7597 24.0976)" fill="#808080"/>
<rect width="13.377" height="36.1179" rx="4.58649" transform="matrix(0.707117 0.707096 -0.707117 0.707096 38.543 12.0039)" fill="#EBB98A"/>
<circle cx="36.3081" cy="20.6211" r="0.5" transform="rotate(-45.9482 36.3081 20.6211)" fill="#949494"/>
<circle cx="37.977" cy="18.8945" r="0.5" transform="rotate(-45.9482 37.977 18.8945)" fill="#949494"/>
<circle cx="39.6455" cy="17.1719" r="0.5" transform="rotate(-45.9482 39.6455 17.1719)" fill="#949494"/>
<circle cx="38.105" cy="22.3594" r="0.5" transform="rotate(-45.9482 38.105 22.3594)" fill="#949494"/>
<circle cx="39.7739" cy="20.6328" r="0.5" transform="rotate(-45.9482 39.7739 20.6328)" fill="#949494"/>
<circle cx="41.4424" cy="18.9102" r="0.5" transform="rotate(-45.9482 41.4424 18.9102)" fill="#949494"/>
<circle cx="39.9018" cy="24.0977" r="0.5" transform="rotate(-45.9482 39.9018 24.0977)" fill="#949494"/>
<circle cx="41.5708" cy="22.3711" r="0.5" transform="rotate(-45.9482 41.5708 22.3711)" fill="#949494"/>
<circle cx="43.2392" cy="20.6485" r="0.5" transform="rotate(-45.9482 43.2392 20.6485)" fill="#949494"/>
<circle cx="18.3081" cy="38.6211" r="0.5" transform="rotate(-45.9482 18.3081 38.6211)" fill="#949494"/>
<circle cx="19.977" cy="36.8946" r="0.5" transform="rotate(-45.9482 19.977 36.8946)" fill="#949494"/>
<circle cx="21.6455" cy="35.1719" r="0.5" transform="rotate(-45.9482 21.6455 35.1719)" fill="#949494"/>
<circle cx="20.105" cy="40.3594" r="0.5" transform="rotate(-45.9482 20.105 40.3594)" fill="#949494"/>
<circle cx="21.7739" cy="38.6328" r="0.5" transform="rotate(-45.9482 21.7739 38.6328)" fill="#949494"/>
<circle cx="23.4424" cy="36.9102" r="0.5" transform="rotate(-45.9482 23.4424 36.9102)" fill="#949494"/>
<circle cx="21.9018" cy="42.0977" r="0.5" transform="rotate(-45.9482 21.9018 42.0977)" fill="#949494"/>
<circle cx="23.5708" cy="40.3711" r="0.5" transform="rotate(-45.9482 23.5708 40.3711)" fill="#949494"/>
<circle cx="25.2392" cy="38.6485" r="0.5" transform="rotate(-45.9482 25.2392 38.6485)" fill="#949494"/>
<rect width="6.68849" height="12.0393" rx="0.917297" transform="matrix(0.707117 0.707096 -0.707117 0.707096 32.3906 22.8828)" fill="#FFFBF7"/>
</g>
</svg>
