<svg width="40" height="40" viewBox="0 0 40 40" fill="none" xmlns="http://www.w3.org/2000/svg">
<rect width="40" height="40" rx="8" fill="#F8F8F8"/>
<path d="M19.537 30.8969C16.014 29.683 8.10986 24.5752 8.10986 15.9172C8.10986 12.0921 11.136 9 14.8849 9C17.098 9 19.0627 10.0765 20.3048 11.7715C21.5243 10.0994 23.5116 9 25.7248 9C29.4736 9 32.4998 12.0921 32.4998 15.9172C32.4998 24.5752 24.5957 29.683 21.0501 30.8969C20.6436 31.0344 19.9435 31.0344 19.537 30.8969Z" fill="#FFB2CA"/>
<mask id="mask0_7579_95624" style="mask-type:alpha" maskUnits="userSpaceOnUse" x="8" y="9" width="25" height="22">
<path d="M19.5368 30.8969C16.0138 29.683 8.10962 24.5752 8.10962 15.9172C8.10962 12.0921 11.1358 9 14.8846 9C17.0978 9 19.0625 10.0765 20.3046 11.7715C21.5241 10.0994 23.5114 9 25.7246 9C29.4734 9 32.4995 12.0921 32.4995 15.9172C32.4995 24.5752 24.5954 29.683 21.0498 30.8969C20.6433 31.0344 19.9433 31.0344 19.5368 30.8969Z" fill="#FE719C"/>
</mask>
<g mask="url(#mask0_7579_95624)">
<path d="M17.2558 16.334L14.2071 21.2229H8.10962V32.2229H32.4995V22.4451H27.6216L24.5728 18.1673L20.9143 22.4451L17.2558 16.334Z" fill="#FE719C"/>
</g>
<path fill-rule="evenodd" clip-rule="evenodd" d="M14.2072 21.8338H7.5V21.2227H14.2072V21.8338Z" fill="#FE719C"/>
<path fill-rule="evenodd" clip-rule="evenodd" d="M32.5001 23.0564H27.6221V22.4453H32.5001V23.0564Z" fill="#FE719C"/>
</svg>
