<svg width="100" height="100" viewBox="0 0 100 100" fill="none" xmlns="http://www.w3.org/2000/svg">
<g clip-path="url(#clip0_2351_80238)">
<circle cx="50" cy="50" r="50" fill="url(#paint0_linear_2351_80238)"/>
<path d="M25.0353 55.934C28.1953 55.0873 30.5937 52.8179 31.7274 49.9998" stroke="#26282C" stroke-width="4" stroke-linecap="round"/>
<path d="M74.7264 55.934C71.5664 55.0873 69.168 52.8179 68.0343 49.9998" stroke="#26282C" stroke-width="4" stroke-linecap="round"/>
<path d="M57.5317 81.3863C55.5777 77.3086 50.6881 75.5869 46.6104 77.5408C44.8668 78.3763 43.554 79.7486 42.7751 81.3646" stroke="#26282C" stroke-width="4" stroke-linecap="round"/>
<ellipse cx="32.5734" cy="65.4496" rx="3" ry="6" transform="rotate(60 32.5734 65.4496)" fill="#26282C" stroke="#26282C" stroke-width="4"/>
<ellipse cx="67.5712" cy="65.4488" rx="3" ry="6" transform="rotate(-60 67.5712 65.4488)" fill="#26282C" stroke="#26282C" stroke-width="4"/>
<path d="M63 10L63 40" stroke="#26282C" stroke-width="4" stroke-linecap="round"/>
<path d="M55 13L55 25" stroke="#26282C" stroke-width="4" stroke-linecap="round"/>
<path d="M71 16L71 38" stroke="#26282C" stroke-width="4" stroke-linecap="round"/>
<path d="M79 26L79 37" stroke="#26282C" stroke-width="4" stroke-linecap="round"/>
<path d="M87 36L87 46" stroke="#26282C" stroke-width="4" stroke-linecap="round"/>
</g>
<defs>
<linearGradient id="paint0_linear_2351_80238" x1="50" y1="0" x2="50" y2="100" gradientUnits="userSpaceOnUse">
<stop stop-color="#A261B8"/>
<stop offset="1" stop-color="#CB9CDB"/>
</linearGradient>
<clipPath id="clip0_2351_80238">
<rect width="100" height="100" fill="white"/>
</clipPath>
</defs>
</svg>
