<svg width="56" height="56" viewBox="0 0 56 56" fill="none" xmlns="http://www.w3.org/2000/svg">
<path d="M22.0464 49.8005L22.0464 41.1229L16.4685 31.8942C15.8653 30.8962 16.1994 29.5975 17.2092 29.0144C18.203 28.4407 19.4736 28.7793 20.0501 29.7715L22.1455 32.8892C22.4026 33.2717 22.9995 33.0897 22.9995 32.6289V21.2914C22.9995 20.1316 23.9397 19.1914 25.0995 19.1914C26.2593 19.1914 27.1995 20.1316 27.1995 21.2914L27.1995 31.9963M38.496 38.6952C39.2608 38.3814 39.7994 37.6294 39.7994 36.7516V32.7849C39.7994 31.6251 38.8592 30.6849 37.6994 30.6849C36.5396 30.6849 35.5994 31.6251 35.5994 32.7849V36.7516C35.5994 37.9114 36.5396 38.8516 37.6994 38.8516C37.9814 38.8516 38.2504 38.796 38.496 38.6952ZM38.496 38.6952V49.8005M29.2995 34.1598C28.1397 34.1598 27.1995 33.2196 27.1995 32.0598V28.0932C27.1995 26.9334 28.1397 25.9932 29.2995 25.9932C30.4593 25.9932 31.3995 26.9334 31.3995 28.0932V32.0598C31.3995 33.2196 30.4593 34.1598 29.2995 34.1598ZM33.4994 36.5046C32.3396 36.5046 31.3994 35.5644 31.3994 34.4046V30.4379C31.3994 29.2781 32.3396 28.3379 33.4994 28.3379C34.6592 28.3379 35.5994 29.2781 35.5994 30.4379V34.4046C35.5994 35.5644 34.6592 36.5046 33.4994 36.5046Z" stroke="#3F86F1" stroke-width="2" stroke-linecap="round"/>
<path d="M20.3379 5.25391L5.15625 42.8379" stroke="#3F86F1" stroke-width="2" stroke-linecap="round"/>
<path d="M34.3144 5.25391L49.4961 42.8379" stroke="#3F86F1" stroke-width="2" stroke-linecap="round"/>
<path d="M10.1979 48.4115C10.1979 49.1478 9.60096 49.7448 8.86458 49.7448C8.1282 49.7448 7.53125 49.1478 7.53125 48.4115C7.53125 47.6751 8.1282 47.0781 8.86458 47.0781C9.1748 47.0781 9.45776 47.1828 9.68399 47.3595C9.99862 47.6052 10.1979 47.9848 10.1979 48.4115Z" fill="#3F86F1" stroke="#3F86F1" stroke-width="2"/>
<path d="M10.0078 43.442L9.44381 42.6162L9.00781 42.914V43.442H10.0078ZM12.8775 42.693C13.3336 42.3815 13.4508 41.7593 13.1393 41.3032C12.8278 40.8471 12.2056 40.7299 11.7495 41.0414L12.8775 42.693ZM11.0078 48.5497V43.442H9.00781V48.5497H11.0078ZM10.5718 44.2677L12.8775 42.693L11.7495 41.0414L9.44381 42.6162L10.5718 44.2677Z" fill="#3F86F1"/>
<path d="M45.237 15.2904C45.237 16.579 44.1923 17.6237 42.9036 17.6237C41.615 17.6237 40.5703 16.579 40.5703 15.2904C40.5703 14.0017 41.615 12.957 42.9036 12.957C43.3232 12.957 43.7169 13.0678 44.057 13.2616C44.7618 13.6631 45.237 14.4212 45.237 15.2904Z" fill="#3F86F1"/>
<path d="M50.8454 15.2904C50.8454 16.579 49.8008 17.6237 48.5121 17.6237C47.2234 17.6237 46.1788 16.579 46.1788 15.2904C46.1788 14.0017 47.2234 12.957 48.5121 12.957C49.0753 12.957 49.5919 13.1566 49.9951 13.4888C50.5144 13.9168 50.8454 14.5649 50.8454 15.2904Z" fill="#3F86F1"/>
<path d="M49.6854 15.2902V9.90104C49.6854 9.25671 49.1631 8.73438 48.5188 8.73438H45.2331C44.5887 8.73438 44.0664 9.25671 44.0664 9.90104V15.0629" stroke="#3F86F1" stroke-width="2"/>
</svg>
