<svg width="48" height="48" viewBox="0 0 48 48" fill="none" xmlns="http://www.w3.org/2000/svg">
<path d="M24 -5.01377e-06C10.7452 -5.676e-06 5.699e-06 10.7452 3.67136e-06 24C1.64372e-06 37.2548 10.7452 48 24 48C37.2548 48 48 37.2548 48 24C48 10.7452 37.2548 -4.35154e-06 24 -5.01377e-06Z" fill="#DDE1E4"/>
<path d="M24.1 30.2039C25.1488 30.2039 26 31.0551 26 32.1039C26 33.1527 25.1488 34.0039 24.1 34.0039C23.0512 34.0039 22.2 33.1527 22.2 32.1039C22.2 31.0551 23.0512 30.2039 24.1 30.2039Z" fill="white"/>
<path d="M24 13.8016L24 26.6016" stroke="white" stroke-width="3" stroke-miterlimit="10" stroke-linecap="round"/>
</svg>
