<svg width="80" height="80" viewBox="0 0 80 80" fill="none" xmlns="http://www.w3.org/2000/svg">
<circle cx="40" cy="40" r="40" fill="#F3F7FF"/>
<rect x="27.1211" y="18.168" width="22.2666" height="7.42204" rx="1.41796" fill="url(#paint0_linear_2839_117332)"/>
<rect x="30.832" y="25.5898" width="14.8444" height="2.22661" fill="#F09B3E"/>
<rect x="24.8945" y="27.8164" width="26.7199" height="31.9148" rx="4.25387" fill="url(#paint1_linear_2839_117332)"/>
<rect x="24.8945" y="35.2383" width="26.7199" height="17.0707" fill="url(#paint2_linear_2839_117332)"/>
<path fill-rule="evenodd" clip-rule="evenodd" d="M36.7363 38.207C36.3448 38.207 36.0273 38.5245 36.0273 38.916V41.1758H33.7676C33.376 41.1758 33.0586 41.4932 33.0586 41.8848V44.92C33.0586 45.3116 33.376 45.629 33.7676 45.629H36.0273V47.8889C36.0273 48.2805 36.3448 48.5979 36.7363 48.5979H39.7717C40.1632 48.5979 40.4807 48.2805 40.4807 47.8889V45.629H42.7407C43.1323 45.629 43.4497 45.3116 43.4497 44.92V41.8848C43.4497 41.4932 43.1322 41.1758 42.7407 41.1758H40.4807V38.916C40.4807 38.5245 40.1632 38.207 39.7717 38.207H36.7363Z" fill="url(#paint3_linear_2839_117332)"/>
<rect width="10.6065" height="21.213" rx="5.30324" transform="matrix(0.707114 0.707099 -0.707114 0.707099 56.7461 41.5)" fill="url(#paint4_linear_2839_117332)"/>
<path d="M52.9961 45.2499C55.0672 43.1789 58.425 43.1789 60.4961 45.2499C62.5672 47.3209 62.5672 50.6787 60.4961 52.7498L56.7461 56.4997L49.2461 48.9998L52.9961 45.2499Z" fill="url(#paint5_linear_2839_117332)"/>
<defs>
<linearGradient id="paint0_linear_2839_117332" x1="33.0589" y1="15.9414" x2="43.0786" y2="27.0746" gradientUnits="userSpaceOnUse">
<stop stop-color="#CFE8FF"/>
<stop offset="1" stop-color="#BEDEFB"/>
</linearGradient>
<linearGradient id="paint1_linear_2839_117332" x1="38.2545" y1="27.8164" x2="38.2545" y2="59.7312" gradientUnits="userSpaceOnUse">
<stop stop-color="#FFDD6B"/>
<stop offset="1" stop-color="#FBB52F"/>
</linearGradient>
<linearGradient id="paint2_linear_2839_117332" x1="24.1523" y1="32.2695" x2="52.7273" y2="54.5362" gradientUnits="userSpaceOnUse">
<stop stop-color="#FFFEF9"/>
<stop offset="1" stop-color="#F0EFEB"/>
</linearGradient>
<linearGradient id="paint3_linear_2839_117332" x1="33.8008" y1="37.4648" x2="42.7072" y2="49.3403" gradientUnits="userSpaceOnUse">
<stop stop-color="#FB5872"/>
<stop offset="1" stop-color="#EE405D"/>
</linearGradient>
<linearGradient id="paint4_linear_2839_117332" x1="-1.38777" y1="11.3877" x2="12.2058" y2="11.2314" gradientUnits="userSpaceOnUse">
<stop stop-color="#FFF7F5"/>
<stop offset="1" stop-color="#EBE1DF"/>
</linearGradient>
<linearGradient id="paint5_linear_2839_117332" x1="52.1318" y1="45.0355" x2="60.7495" y2="53.6533" gradientUnits="userSpaceOnUse">
<stop stop-color="#F7655B"/>
<stop offset="1" stop-color="#E1453B"/>
</linearGradient>
</defs>
</svg>
