<svg width="56" height="57" viewBox="0 0 56 57" fill="none" xmlns="http://www.w3.org/2000/svg">
<circle cx="28" cy="28.3203" r="21" fill="white" stroke="#3F86F1" stroke-width="2"/>
<path d="M6.26528 25.7429C6.12904 26.2781 6.45248 26.8224 6.9877 26.9587C7.52291 27.0949 8.06723 26.7715 8.20347 26.2363L6.26528 25.7429ZM48.8844 25.9896C49.8513 25.7347 49.8512 25.734 49.851 25.7333C49.8509 25.733 49.8507 25.7323 49.8505 25.7317C49.8502 25.7305 49.8498 25.7291 49.8494 25.7275C49.8486 25.7243 49.8475 25.7203 49.8462 25.7156C49.8436 25.7062 49.8401 25.6936 49.8357 25.6781C49.8268 25.6471 49.8142 25.6042 49.7975 25.5502C49.7641 25.4421 49.7143 25.2894 49.6454 25.0986C49.5076 24.717 49.2931 24.1816 48.98 23.5437C48.3542 22.269 47.3305 20.5768 45.7319 18.8859C42.5116 15.4799 37.0288 12.1562 28.001 12.1562V14.1562C36.4732 14.1562 41.4321 17.2493 44.2786 20.2599C45.7132 21.7774 46.6292 23.2935 47.1846 24.425C47.4621 24.9903 47.6486 25.4575 47.7642 25.7777C47.822 25.9378 47.862 26.0608 47.8867 26.1408C47.8991 26.1807 47.9076 26.2099 47.9126 26.2274C47.9151 26.2362 47.9167 26.2421 47.9175 26.245C47.9179 26.2464 47.9181 26.2471 47.9181 26.247C47.9181 26.247 47.918 26.2468 47.9179 26.2463C47.9178 26.2461 47.9177 26.2457 47.9177 26.2456C47.9176 26.2451 47.9174 26.2445 48.8844 25.9896ZM28.001 12.1562C18.973 12.1562 13.5175 15.4802 10.3253 18.8894C8.74084 20.5815 7.73191 22.2748 7.11735 23.5503C6.80981 24.1886 6.60002 24.7243 6.46564 25.1062C6.39841 25.2972 6.34996 25.4499 6.31751 25.5581C6.30128 25.6122 6.28904 25.6552 6.28045 25.6862C6.27616 25.7018 6.27278 25.7143 6.27026 25.7238C6.26901 25.7285 6.26796 25.7325 6.26714 25.7357C6.26672 25.7373 6.26636 25.7387 6.26605 25.7399C6.2659 25.7405 6.2657 25.7412 6.26563 25.7415C6.26544 25.7422 6.26528 25.7429 7.23438 25.9896C8.20347 26.2363 8.20333 26.2368 8.2032 26.2373C8.20317 26.2374 8.20305 26.2379 8.203 26.2381C8.20289 26.2385 8.20283 26.2388 8.20282 26.2388C8.2028 26.2389 8.20298 26.2382 8.20336 26.2368C8.20412 26.2339 8.20568 26.2281 8.20811 26.2193C8.21295 26.2018 8.22119 26.1727 8.23316 26.1328C8.25711 26.053 8.29592 25.93 8.3522 25.7701C8.46483 25.4501 8.64696 24.9833 8.91911 24.4184C9.46392 23.2877 10.3654 21.7727 11.7852 20.2564C14.6013 17.2489 19.5291 14.1562 28.001 14.1562V12.1562Z" fill="#3F86F1"/>
<path d="M41.0621 11.9415C41.0621 11.9415 37.3359 10.8224 37.3359 16.6551C37.3359 23.3397 44.3723 33.1523 46.9249 36.4921" stroke="#3F86F1" stroke-width="2"/>
<path d="M14.7681 12.1446C14.7681 12.1446 19.8359 10.8211 19.8359 16.6538C19.8359 24.8195 9.33594 37.6531 9.33594 37.6531" stroke="#3F86F1" stroke-width="2"/>
<path d="M28 7.21852V49.3222" stroke="#3F86F1" stroke-width="2"/>
</svg>
