<svg width="81" height="80" viewBox="0 0 81 80" fill="none" xmlns="http://www.w3.org/2000/svg">
<path opacity="0.01" fill-rule="evenodd" clip-rule="evenodd" d="M53.8987 35.2812V60.6471H26.2812V35.2812H53.8987Z" fill="white"/>
<g clip-path="url(#clip0_2797_115504)">
<path d="M40.75 12C58.2669 12 72.6669 25.1649 74.3381 45.5027C74.519 47.7044 72.7091 49.5 70.5 49.5H11C8.79086 49.5 6.98101 47.7044 7.16192 45.5027C8.83305 25.1649 23.2331 12 40.75 12Z" fill="url(#paint0_linear_2797_115504)"/>
<mask id="path-3-outside-1_2797_115504" maskUnits="userSpaceOnUse" x="21" y="55.5" width="40" height="12" fill="black">
<rect fill="white" x="21" y="55.5" width="40" height="12"/>
<path d="M27.1594 61.235C28.1734 61.534 28.9274 62.418 28.9274 63.64C28.9274 65.395 27.7834 66.695 25.2744 66.695C24.0524 66.695 22.9864 66.552 21.9984 66.37V56.75C23.0124 56.529 24.2604 56.269 25.2744 56.269C27.2374 56.269 28.4594 57.361 28.4594 58.999C28.4594 60.052 27.8094 60.897 27.1594 61.235ZM27.4194 63.64C27.4194 62.47 26.6004 61.859 25.1054 61.859H23.5064V65.304C24.0914 65.382 24.6244 65.395 25.1444 65.395C26.6264 65.395 27.4194 64.758 27.4194 63.64ZM25.1184 60.585C26.3144 60.585 26.9514 59.961 26.9514 59.012C26.9514 58.102 26.3794 57.569 25.1444 57.569C24.5594 57.569 24.0134 57.686 23.5064 57.803V60.585H25.1184ZM40.1496 61.482C40.1496 65.044 38.1996 66.695 35.6906 66.695C33.1816 66.695 31.2316 65.044 31.2316 61.482C31.2316 57.92 33.1816 56.269 35.6906 56.269C38.1996 56.269 40.1496 57.92 40.1496 61.482ZM35.6906 65.395C37.3676 65.395 38.6416 64.212 38.6416 61.482C38.6416 58.752 37.3676 57.569 35.6906 57.569C34.0136 57.569 32.7396 58.752 32.7396 61.482C32.7396 64.212 34.0136 65.395 35.6906 65.395ZM49.2603 61.482C49.2603 58.934 48.2593 57.569 46.3093 57.569C45.7243 57.569 44.8533 57.686 44.3463 57.803V65.304C44.8533 65.382 45.7113 65.395 46.3093 65.395C48.2723 65.395 49.2603 64.03 49.2603 61.482ZM50.7683 61.482C50.7683 64.849 49.1693 66.695 46.4393 66.695C44.9573 66.695 43.8393 66.552 42.8383 66.37V56.763C43.8523 56.555 45.2693 56.269 46.4393 56.269C49.1693 56.269 50.7683 58.115 50.7683 61.482ZM56.7238 66.5H55.2158V62.34L52.1608 56.464H53.7338L55.9698 60.897L58.2058 56.464H59.7788L56.7238 62.34V66.5Z"/>
</mask>
<path d="M27.1594 61.235C28.1734 61.534 28.9274 62.418 28.9274 63.64C28.9274 65.395 27.7834 66.695 25.2744 66.695C24.0524 66.695 22.9864 66.552 21.9984 66.37V56.75C23.0124 56.529 24.2604 56.269 25.2744 56.269C27.2374 56.269 28.4594 57.361 28.4594 58.999C28.4594 60.052 27.8094 60.897 27.1594 61.235ZM27.4194 63.64C27.4194 62.47 26.6004 61.859 25.1054 61.859H23.5064V65.304C24.0914 65.382 24.6244 65.395 25.1444 65.395C26.6264 65.395 27.4194 64.758 27.4194 63.64ZM25.1184 60.585C26.3144 60.585 26.9514 59.961 26.9514 59.012C26.9514 58.102 26.3794 57.569 25.1444 57.569C24.5594 57.569 24.0134 57.686 23.5064 57.803V60.585H25.1184ZM40.1496 61.482C40.1496 65.044 38.1996 66.695 35.6906 66.695C33.1816 66.695 31.2316 65.044 31.2316 61.482C31.2316 57.92 33.1816 56.269 35.6906 56.269C38.1996 56.269 40.1496 57.92 40.1496 61.482ZM35.6906 65.395C37.3676 65.395 38.6416 64.212 38.6416 61.482C38.6416 58.752 37.3676 57.569 35.6906 57.569C34.0136 57.569 32.7396 58.752 32.7396 61.482C32.7396 64.212 34.0136 65.395 35.6906 65.395ZM49.2603 61.482C49.2603 58.934 48.2593 57.569 46.3093 57.569C45.7243 57.569 44.8533 57.686 44.3463 57.803V65.304C44.8533 65.382 45.7113 65.395 46.3093 65.395C48.2723 65.395 49.2603 64.03 49.2603 61.482ZM50.7683 61.482C50.7683 64.849 49.1693 66.695 46.4393 66.695C44.9573 66.695 43.8393 66.552 42.8383 66.37V56.763C43.8523 56.555 45.2693 56.269 46.4393 56.269C49.1693 56.269 50.7683 58.115 50.7683 61.482ZM56.7238 66.5H55.2158V62.34L52.1608 56.464H53.7338L55.9698 60.897L58.2058 56.464H59.7788L56.7238 62.34V66.5Z" fill="#3E6490"/>
<path d="M27.1594 61.235L27.0672 61.0576L26.6269 61.2865L27.1029 61.4268L27.1594 61.235ZM21.9984 66.37H21.7984V66.5365L21.9622 66.5667L21.9984 66.37ZM21.9984 56.75L21.9558 56.5546L21.7984 56.5889V56.75H21.9984ZM23.5064 61.859V61.659H23.3064V61.859H23.5064ZM23.5064 65.304H23.3064V65.4791L23.48 65.5022L23.5064 65.304ZM23.5064 57.803L23.4615 57.6081L23.3064 57.6439V57.803H23.5064ZM23.5064 60.585H23.3064V60.785H23.5064V60.585ZM27.1029 61.4268C28.0357 61.7019 28.7274 62.5107 28.7274 63.64H29.1274C29.1274 62.3253 28.3111 61.3661 27.216 61.0432L27.1029 61.4268ZM28.7274 63.64C28.7274 64.4729 28.4573 65.1783 27.9074 65.6775C27.3553 66.1787 26.496 66.495 25.2744 66.495V66.895C26.5619 66.895 27.5291 66.5613 28.1762 65.9737C28.8256 65.3842 29.1274 64.5621 29.1274 63.64H28.7274ZM25.2744 66.495C24.0686 66.495 23.0154 66.354 22.0347 66.1733L21.9622 66.5667C22.9575 66.75 24.0363 66.895 25.2744 66.895V66.495ZM22.1984 66.37V56.75H21.7984V66.37H22.1984ZM22.041 56.9454C23.0591 56.7235 24.2857 56.469 25.2744 56.469V56.069C24.2351 56.069 22.9657 56.3345 21.9558 56.5546L22.041 56.9454ZM25.2744 56.469C26.22 56.469 26.9658 56.7318 27.472 57.1708C27.9755 57.6075 28.2594 58.233 28.2594 58.999H28.6594C28.6594 58.127 28.3324 57.3875 27.7341 56.8687C27.1386 56.3522 26.2919 56.069 25.2744 56.069V56.469ZM28.2594 58.999C28.2594 59.9717 27.6562 60.7513 27.0672 61.0576L27.2517 61.4124C27.9627 61.0427 28.6594 60.1323 28.6594 58.999H28.2594ZM27.6194 63.64C27.6194 63.0035 27.3937 62.4948 26.9444 62.1518C26.5042 61.8156 25.8755 61.659 25.1054 61.659V62.059C25.8303 62.059 26.3587 62.2079 26.7017 62.4697C27.0357 62.7247 27.2194 63.1065 27.2194 63.64H27.6194ZM25.1054 61.659H23.5064V62.059H25.1054V61.659ZM23.3064 61.859V65.304H23.7064V61.859H23.3064ZM23.48 65.5022C24.078 65.582 24.6212 65.595 25.1444 65.595V65.195C24.6277 65.195 24.1049 65.182 23.5329 65.1058L23.48 65.5022ZM25.1444 65.595C25.9101 65.595 26.529 65.431 26.9607 65.0945C27.4 64.7519 27.6194 64.2509 27.6194 63.64H27.2194C27.2194 64.1471 27.0424 64.5236 26.7147 64.779C26.3794 65.0405 25.8608 65.195 25.1444 65.195V65.595ZM25.1184 60.785C25.7495 60.785 26.2606 60.6202 26.6164 60.3038C26.9749 59.9849 27.1514 59.5333 27.1514 59.012H26.7514C26.7514 59.4397 26.6094 59.7746 26.3505 60.0049C26.0887 60.2378 25.6833 60.385 25.1184 60.385V60.785ZM27.1514 59.012C27.1514 58.513 26.9927 58.0893 26.6389 57.7954C26.2916 57.5069 25.7864 57.369 25.1444 57.369V57.769C25.7375 57.769 26.1358 57.8976 26.3833 58.1031C26.6242 58.3032 26.7514 58.601 26.7514 59.012H27.1514ZM25.1444 57.369C24.5345 57.369 23.9688 57.491 23.4615 57.6081L23.5514 57.9979C24.0581 57.8809 24.5844 57.769 25.1444 57.769V57.369ZM23.3064 57.803V60.585H23.7064V57.803H23.3064ZM23.5064 60.785H25.1184V60.385H23.5064V60.785ZM39.9496 61.482C39.9496 63.2273 39.4723 64.4764 38.7148 65.2878C37.9582 66.098 36.9004 66.495 35.6906 66.495V66.895C36.9898 66.895 38.1615 66.4665 39.0072 65.5607C39.8519 64.6561 40.3496 63.2987 40.3496 61.482H39.9496ZM35.6906 66.495C34.4808 66.495 33.423 66.098 32.6664 65.2878C31.9089 64.4764 31.4316 63.2273 31.4316 61.482H31.0316C31.0316 63.2987 31.5293 64.6561 32.374 65.5607C33.2197 66.4665 34.3914 66.895 35.6906 66.895V66.495ZM31.4316 61.482C31.4316 59.7367 31.9089 58.4876 32.6664 57.6762C33.423 56.866 34.4808 56.469 35.6906 56.469V56.069C34.3914 56.069 33.2197 56.4975 32.374 57.4033C31.5293 58.3079 31.0316 59.6653 31.0316 61.482H31.4316ZM35.6906 56.469C36.9004 56.469 37.9582 56.866 38.7148 57.6762C39.4723 58.4876 39.9496 59.7367 39.9496 61.482H40.3496C40.3496 59.6653 39.8519 58.3079 39.0072 57.4033C38.1615 56.4975 36.9898 56.069 35.6906 56.069V56.469ZM35.6906 65.595C36.5791 65.595 37.3771 65.2796 37.9489 64.5899C38.5167 63.905 38.8416 62.8752 38.8416 61.482H38.4416C38.4416 62.8188 38.1295 63.7455 37.641 64.3346C37.1566 64.9189 36.4791 65.195 35.6906 65.195V65.595ZM38.8416 61.482C38.8416 60.0888 38.5167 59.059 37.9489 58.3741C37.3771 57.6844 36.5791 57.369 35.6906 57.369V57.769C36.4791 57.769 37.1566 58.0451 37.641 58.6294C38.1295 59.2185 38.4416 60.1452 38.4416 61.482H38.8416ZM35.6906 57.369C34.8021 57.369 34.0041 57.6844 33.4323 58.3741C32.8645 59.059 32.5396 60.0888 32.5396 61.482H32.9396C32.9396 60.1452 33.2517 59.2185 33.7402 58.6294C34.2246 58.0451 34.9021 57.769 35.6906 57.769V57.369ZM32.5396 61.482C32.5396 62.8752 32.8645 63.905 33.4323 64.5899C34.0041 65.2796 34.8021 65.595 35.6906 65.595V65.195C34.9021 65.195 34.2246 64.9189 33.7402 64.3346C33.2517 63.7455 32.9396 62.8188 32.9396 61.482H32.5396ZM44.3463 57.803L44.3013 57.6081L44.1463 57.6439V57.803H44.3463ZM44.3463 65.304H44.1463V65.4756L44.3159 65.5017L44.3463 65.304ZM42.8383 66.37H42.6383V66.5369L42.8025 66.5668L42.8383 66.37ZM42.8383 56.763L42.7981 56.5671L42.6383 56.5999V56.763H42.8383ZM49.4603 61.482C49.4603 60.1869 49.2067 59.1587 48.6761 58.4501C48.1381 57.7316 47.3361 57.369 46.3093 57.369V57.769C47.2325 57.769 47.906 58.0889 48.3559 58.6899C48.8133 59.3008 49.0603 60.2291 49.0603 61.482H49.4603ZM46.3093 57.369C45.7066 57.369 44.8204 57.4883 44.3013 57.6081L44.3913 57.9979C44.8862 57.8837 45.7419 57.769 46.3093 57.769V57.369ZM44.1463 57.803V65.304H44.5463V57.803H44.1463ZM44.3159 65.5017C44.8407 65.5824 45.7144 65.595 46.3093 65.595V65.195C45.7082 65.195 44.8659 65.1816 44.3767 65.1063L44.3159 65.5017ZM46.3093 65.595C47.3422 65.595 48.1446 65.2326 48.6812 64.5136C49.2102 63.8048 49.4603 62.7766 49.4603 61.482H49.0603C49.0603 62.7354 48.8164 63.6637 48.3606 64.2744C47.9125 64.8749 47.2393 65.195 46.3093 65.195V65.595ZM50.5683 61.482C50.5683 63.1368 50.1751 64.3881 49.4744 65.2225C48.778 66.0518 47.7562 66.495 46.4393 66.495V66.895C47.8523 66.895 48.9951 66.4152 49.7807 65.4797C50.562 64.5494 50.9683 63.1942 50.9683 61.482H50.5683ZM46.4393 66.495C44.9715 66.495 43.8657 66.3535 42.8741 66.1732L42.8025 66.5668C43.8128 66.7505 44.943 66.895 46.4393 66.895V66.495ZM43.0383 66.37V56.763H42.6383V66.37H43.0383ZM42.8785 56.9589C43.8968 56.75 45.2933 56.469 46.4393 56.469V56.069C45.2453 56.069 43.8078 56.36 42.7981 56.5671L42.8785 56.9589ZM46.4393 56.469C47.7562 56.469 48.778 56.9122 49.4744 57.7415C50.1751 58.5759 50.5683 59.8272 50.5683 61.482H50.9683C50.9683 59.7698 50.562 58.4146 49.7807 57.4843C48.9951 56.5488 47.8523 56.069 46.4393 56.069V56.469ZM56.7238 66.5V66.7H56.9238V66.5H56.7238ZM55.2158 66.5H55.0158V66.7H55.2158V66.5ZM55.2158 62.34H55.4158V62.2911L55.3933 62.2477L55.2158 62.34ZM52.1608 56.464V56.264H51.8314L51.9834 56.5563L52.1608 56.464ZM53.7338 56.464L53.9124 56.3739L53.8569 56.264H53.7338V56.464ZM55.9698 60.897L55.7913 60.9871L55.9698 61.3411L56.1484 60.9871L55.9698 60.897ZM58.2058 56.464V56.264H58.0827L58.0273 56.3739L58.2058 56.464ZM59.7788 56.464L59.9563 56.5563L60.1082 56.264H59.7788V56.464ZM56.7238 62.34L56.5464 62.2477L56.5238 62.2911V62.34H56.7238ZM56.7238 66.3H55.2158V66.7H56.7238V66.3ZM55.4158 66.5V62.34H55.0158V66.5H55.4158ZM55.3933 62.2477L52.3383 56.3717L51.9834 56.5563L55.0384 62.4323L55.3933 62.2477ZM52.1608 56.664H53.7338V56.264H52.1608V56.664ZM53.5553 56.5541L55.7913 60.9871L56.1484 60.8069L53.9124 56.3739L53.5553 56.5541ZM56.1484 60.9871L58.3844 56.5541L58.0273 56.3739L55.7913 60.8069L56.1484 60.9871ZM58.2058 56.664H59.7788V56.264H58.2058V56.664ZM59.6014 56.3717L56.5464 62.2477L56.9013 62.4323L59.9563 56.5563L59.6014 56.3717ZM56.5238 62.34V66.5H56.9238V62.34H56.5238Z" fill="#3E6490" mask="url(#path-3-outside-1_2797_115504)"/>
<path d="M39.9999 22.5L39.9999 18" stroke="white" stroke-width="3" stroke-linecap="round"/>
<path d="M52.6136 26.8281L54.8636 22.931" stroke="white" stroke-width="3" stroke-linecap="round"/>
<path d="M26.2862 22.9297L28.5362 26.8268" stroke="white" stroke-width="3" stroke-linecap="round"/>
<path d="M60.1019 34.75L63.999 32.5" stroke="white" stroke-width="3" stroke-linecap="round"/>
<path d="M17.4999 32.5L21.397 34.75" stroke="white" stroke-width="3" stroke-linecap="round"/>
<path d="M18.0537 43.2109H13.5537" stroke="white" stroke-width="3" stroke-linecap="round"/>
<path d="M67.9463 43.2109H63.4463" stroke="white" stroke-width="3" stroke-linecap="round"/>
<path d="M38.1717 40.7805L47.813 32.3565C48.4314 31.8162 49.3435 32.5196 48.9781 33.255L43.3192 44.6429C42.894 45.4987 42.0864 46.1007 41.1448 46.2639L40.7052 46.34C39.0325 46.6299 37.4528 45.4752 37.2211 43.7934L37.1737 43.449C37.0358 42.4482 37.4109 41.4452 38.1717 40.7805Z" fill="#FB646D"/>
</g>
<defs>
<linearGradient id="paint0_linear_2797_115504" x1="47.5" y1="14.5" x2="48" y2="50" gradientUnits="userSpaceOnUse">
<stop stop-color="#C4E4FB"/>
<stop offset="1" stop-color="#8DC7F2"/>
</linearGradient>
<clipPath id="clip0_2797_115504">
<rect width="80" height="80" fill="white" transform="translate(0.5)"/>
</clipPath>
</defs>
</svg>
