<svg width="56" height="57" viewBox="0 0 56 57" fill="none" xmlns="http://www.w3.org/2000/svg">
<path d="M27.9948 22.6406V13.1615C27.9948 9.9398 25.3831 7.32812 22.1615 7.32812V7.32812C18.9398 7.32812 16.3281 9.9398 16.3281 13.1615V40.7416" stroke="#3F86F1" stroke-width="2"/>
<path d="M46.6667 22.6406V13.1615C46.6667 9.9398 44.055 7.32812 40.8333 7.32812V7.32812C37.6117 7.32812 35 9.9398 35 13.1615L35 37.6615" stroke="#3F86F1" stroke-width="2"/>
<path d="M51.3307 23.6602H4.66406" stroke="#3F86F1" stroke-width="2"/>
<path d="M16.3281 29.4961H34.9948" stroke="#3F86F1" stroke-width="2"/>
<path d="M16.3281 29.4961H34.9948" stroke="#3F86F1" stroke-width="2"/>
<path d="M16.3281 35.3281H34.9948" stroke="#3F86F1" stroke-width="2"/>
<path d="M5.82812 45.8306C5.82812 45.8306 9.93415 50.4972 13.4115 50.4972C16.8888 50.4972 17.5198 45.7042 20.9948 45.8306C24.2781 45.95 24.7093 50.4972 27.9948 50.4972C31.2803 50.4972 31.7093 45.8306 34.9948 45.8306C38.2803 45.8306 38.7093 50.4972 41.9948 50.4972C45.2803 50.4972 48.9948 45.8306 48.9948 45.8306" stroke="#3F86F1" stroke-width="2"/>
<path d="M5.82812 37.6626C5.82812 37.6626 9.93415 42.3293 13.4115 42.3293C16.8888 42.3293 17.5198 37.5362 20.9948 37.6626C24.2781 37.782 24.7093 42.3293 27.9948 42.3293C31.2803 42.3293 31.7093 37.6626 34.9948 37.6626C38.2803 37.6626 38.7093 42.3293 41.9948 42.3293C45.2803 42.3293 48.9948 37.6626 48.9948 37.6626" stroke="#3F86F1" stroke-width="2"/>
</svg>
