<svg width="60" height="60" viewBox="0 0 60 60" fill="none" xmlns="http://www.w3.org/2000/svg">
<circle cx="28" cy="32" r="28" fill="#F8F8F8"/>
<rect x="16.0142" y="23.7773" width="18.214" height="23.0448" rx="2.13024" fill="#DDDDDD"/>
<path fill-rule="evenodd" clip-rule="evenodd" d="M26.8081 31.4433C26.8081 28.3335 29.2998 25.8125 32.3735 25.8125H36.0837C39.1574 25.8125 41.6491 28.3335 41.6491 31.4433V36.4485C41.6491 39.5584 39.1574 42.0794 36.0837 42.0794H32.3735C29.2998 42.0794 26.8081 39.5584 26.8081 36.4485V31.4433ZM32.3735 29.5664C31.3489 29.5664 30.5184 30.4067 30.5184 31.4433V36.4485C30.5184 37.4852 31.3489 38.3255 32.3735 38.3255H36.0837C37.1083 38.3255 37.9389 37.4852 37.9389 36.4485V31.4433C37.9389 30.4067 37.1083 29.5664 36.0837 29.5664H32.3735Z" fill="#DDDDDD"/>
<rect x="16.0142" y="22.4219" width="18.214" height="22.367" rx="4.26047" fill="url(#paint0_linear_4951_95278)"/>
<rect opacity="0.5" x="19.6353" y="32.832" width="1.24125" height="8.10633" rx="0.620624" fill="#AAAAAA"/>
<rect opacity="0.5" x="24.5991" y="32.832" width="1.24125" height="8.10633" rx="0.620624" fill="#AAAAAA"/>
<rect opacity="0.5" x="29.5664" y="32.832" width="1.24125" height="8.10633" rx="0.620624" fill="#AAAAAA"/>
<path fill-rule="evenodd" clip-rule="evenodd" d="M27.7039 17.956C28.068 17.7454 28.4902 17.625 28.9405 17.625C29.9225 17.625 30.7714 18.1979 31.174 19.0292C31.4448 18.9274 31.738 18.8717 32.0442 18.8717C33.4152 18.8717 34.5267 19.9884 34.5267 21.3659C34.5267 21.4746 34.5198 21.5817 34.5063 21.6867C35.2599 22.1149 35.7685 22.9274 35.7685 23.8593C35.7685 25.2368 34.657 26.3536 33.286 26.3536C32.6783 26.3536 32.1215 26.1341 31.69 25.7698C31.2556 26.4941 30.4652 26.9785 29.5622 26.9785C28.7364 26.9785 28.0047 26.5734 27.5534 25.9501C27.2091 26.9122 26.2928 27.6002 25.2167 27.6002C24.764 27.6002 24.3397 27.4785 23.9743 27.2659V28.858C23.9743 29.8863 23.1407 30.7199 22.1124 30.7199C21.0842 30.7199 20.2506 29.8863 20.2506 28.858V26.9785C19.6644 26.9777 19.1259 26.7727 18.7017 26.4306C18.2765 26.7734 17.7366 26.9785 17.149 26.9785C15.778 26.9785 14.6665 25.8618 14.6665 24.4843C14.6665 23.554 15.1734 22.7426 15.9249 22.3138C15.9139 22.2072 15.9083 22.099 15.9083 21.9895C15.9083 20.2676 17.2976 18.8717 19.0114 18.8717C19.1201 18.8717 19.2275 18.8773 19.3333 18.8882C19.7602 18.1338 20.5674 17.625 21.4929 17.625C21.9437 17.625 22.3664 17.7457 22.7308 17.9567C23.3901 17.3619 24.2619 17 25.2177 17C26.1732 17 27.0447 17.3616 27.7039 17.956Z" fill="#EEEEEE"/>
<circle cx="46" cy="14" r="13.3" fill="#3B4A65" stroke="white" stroke-width="1.4"/>
<path d="M46 9V19" stroke="white" stroke-width="1.4" stroke-linecap="round"/>
<path d="M41 14H51" stroke="white" stroke-width="1.4" stroke-linecap="round"/>
<defs>
<linearGradient id="paint0_linear_4951_95278" x1="25.1211" y1="22.4219" x2="25.1211" y2="44.7888" gradientUnits="userSpaceOnUse">
<stop offset="0.203125" stop-color="#CCCCCC"/>
<stop offset="1" stop-color="#EEEEEE"/>
</linearGradient>
</defs>
</svg>
