<svg width="56" height="57" viewBox="0 0 56 57" fill="none" xmlns="http://www.w3.org/2000/svg">
<path d="M34.1486 11.0232L45.4188 22.2934M45.4188 22.2934C45.7511 22.044 46.0704 21.7678 46.3734 21.4648C49.6637 18.1745 48.7473 12.6067 46.3439 10.2033C43.6461 7.50543 38.3305 6.84134 35.0403 10.1316C33.5418 11.6301 32.6988 13.5255 32.5205 15.4411M45.4188 22.2934C44.0688 23.3061 42.5024 23.8754 40.9283 23.996" stroke="#3F86F1" stroke-width="2"/>
<path d="M12.2227 31.7648L12.1668 35.539C12.1473 36.8571 13.2228 37.9296 14.5408 37.9065L18.2985 37.8406M12.2227 31.7648L8.07991 31.478C6.7929 31.3889 5.82243 30.2724 5.91354 28.9855L6.14692 25.689L18.9082 20.398M12.2227 31.7648L33.8933 17.3308M18.2985 37.8406L18.5135 42.0248C18.5817 43.3506 19.7407 44.3525 21.0624 44.2281L24.3743 43.9164M18.2985 37.8406L36.1172 19.5547M24.3743 43.9164L24.8603 48.3553C25.0123 49.7437 26.3419 50.6884 27.703 50.3752L30.7735 49.6687L35.9681 37.4579M24.3743 43.9164L38.9962 22.4337M38.9962 22.4337L41.3558 24.7933L35.9681 37.4579M38.9962 22.4337L36.1172 19.5547M36.1172 19.5547L33.8933 17.3308M33.8933 17.3308L31.6695 15.107L18.9082 20.398M18.9082 20.398L35.9681 37.4579" stroke="#3F86F1" stroke-width="2"/>
</svg>
