<svg width="60" height="60" viewBox="0 0 60 60" fill="none" xmlns="http://www.w3.org/2000/svg">
<circle cx="28" cy="32" r="28" fill="#F8F8F8"/>
<path d="M27.1598 44.5582C23.3081 43.2151 14.6665 37.564 14.6665 27.9851C14.6665 23.7531 17.975 20.332 22.0736 20.332C24.4932 20.332 26.6413 21.523 27.9993 23.3983C29.3325 21.5484 31.5053 20.332 33.9249 20.332C38.0235 20.332 41.332 23.7531 41.332 27.9851C41.332 37.564 32.6904 43.2151 28.814 44.5582C28.3696 44.7103 27.6042 44.7103 27.1598 44.5582Z" fill="url(#paint0_linear_4951_95242)"/>
<path d="M19.8486 32.0009H23.4456L24.9812 29.7695L27.7977 34.9759L30.1824 32.0009H36.1442" stroke="url(#paint1_linear_4951_95242)" stroke-width="1.52771" stroke-linecap="round" stroke-linejoin="round"/>
<circle cx="46" cy="14" r="13.3" fill="#3B4A65" stroke="white" stroke-width="1.4"/>
<path d="M46 9V19" stroke="white" stroke-width="1.4" stroke-linecap="round"/>
<path d="M41 14H51" stroke="white" stroke-width="1.4" stroke-linecap="round"/>
<defs>
<linearGradient id="paint0_linear_4951_95242" x1="27.9993" y1="20.332" x2="27.9993" y2="44.6723" gradientUnits="userSpaceOnUse">
<stop stop-color="#BBBBBB" stop-opacity="0.8"/>
<stop offset="1" stop-color="#DDDDDD"/>
</linearGradient>
<linearGradient id="paint1_linear_4951_95242" x1="27.9964" y1="29.7695" x2="27.9964" y2="34.9759" gradientUnits="userSpaceOnUse">
<stop stop-color="white"/>
<stop offset="1" stop-color="white" stop-opacity="0.9"/>
</linearGradient>
</defs>
</svg>
