<svg width="81" height="81" viewBox="0 0 81 81" fill="none" xmlns="http://www.w3.org/2000/svg">
<rect x="23" y="41.2656" width="22" height="23.2858" fill="url(#paint0_linear_3019_115062)"/>
<path d="M23 64.5547H45V70.5404C45 71.0927 44.5523 71.5404 44 71.5404H24C23.4477 71.5404 23 71.0927 23 70.5404V64.5547Z" fill="url(#paint1_linear_3019_115062)"/>
<path d="M25.75 30.4586C23.0006 33.7381 23 36.609 23 37.9758V41.4687H45L45 37.9758C45 36.609 45 33.7389 42.25 30.4586C38.8125 26.3582 38.4868 24.789 38.125 22.9413C37.9267 21.9286 37.6666 17.0986 37.472 12.9402C37.7013 12.9123 37.8789 12.716 37.8789 12.4779V12.245C37.8789 11.9888 37.6731 11.7808 37.4186 11.7793C37.3908 11.1658 37.3648 10.5782 37.3411 10.0329C37.2674 8.3361 36.3581 8.66523 35.2723 9.05828C34.7678 9.2409 34.2252 9.43731 33.7105 9.45075C33.1635 9.46504 32.6485 9.26861 32.2026 9.09855C31.3335 8.76711 30.7271 8.53584 30.6586 10.1597C30.6369 10.6732 30.6134 11.222 30.5882 11.793C30.3864 11.8433 30.2368 12.0266 30.2368 12.245V12.4779C30.2368 12.6778 30.3621 12.8483 30.5381 12.9144C30.3425 17.2166 30.0768 22.2356 29.875 22.9413C29.8407 23.0612 29.8067 23.1891 29.7704 23.3259C29.4234 24.6321 28.8617 26.7468 25.75 30.4586Z" fill="url(#paint2_linear_3019_115062)"/>
<path d="M30.2373 6.74605C30.2373 6.63173 30.3381 6.53906 30.4625 6.53906L37.5606 6.57139C37.6849 6.57139 37.7857 6.66406 37.7857 6.77838V7.50282C37.7857 7.52247 37.7827 7.54147 37.7772 7.55948C37.769 7.58595 37.7638 7.61418 37.7536 7.63991L37.566 8.11021C37.5624 8.11921 37.5575 8.12771 37.5513 8.13546L37.1669 8.62146C37.1343 8.66265 37.1391 8.71951 37.1783 8.75552L37.4869 9.03919C37.5285 9.07743 37.531 9.13866 37.4927 9.17972L37.3021 9.38417C37.2594 9.43 37.2682 9.49958 37.3213 9.53514L37.7181 9.80116C37.7465 9.82021 37.7636 9.85038 37.7643 9.88271L37.7786 10.538C37.7791 10.5613 37.7857 10.5843 37.7857 10.6076V11.1251C37.7857 11.1822 37.7353 11.2285 37.6731 11.2285L30.3499 11.1962C30.2877 11.1962 30.2373 11.1499 30.2373 11.0927V9.84969C30.2373 9.81775 30.2533 9.7876 30.2808 9.76799L30.6586 9.49784C30.7062 9.46376 30.7162 9.40117 30.6811 9.356L30.5142 9.14128C30.4839 9.10222 30.4867 9.0491 30.5211 9.01297L30.7871 8.73352C30.8261 8.69252 30.8239 8.63072 30.782 8.59219L30.447 8.2842C30.3967 8.23802 30.405 8.16114 30.4641 8.12491L30.6713 7.99793C30.7481 7.95087 30.7341 7.84355 30.6473 7.81456L30.4596 7.75179C30.3461 7.71383 30.2648 7.62376 30.2431 7.51731C30.2393 7.50227 30.2373 7.4866 30.2373 7.47049V6.74605Z" fill="url(#paint3_linear_3019_115062)"/>
<path d="M41.1617 73.1619L39.7166 52.6953H59.2815L58.0085 73.1619C56.5204 74.5185 54.143 75.1732 52.6211 75.5417C51.2583 75.8717 48.0851 75.7772 46.6545 75.5417C45.2239 75.3062 42.4688 74.5493 41.1617 73.1619Z" fill="url(#paint4_linear_3019_115062)"/>
<path d="M40.9654 70.5991L39.7166 52.6953H59.2815L58.1715 70.5991C56.6833 71.7858 54.143 72.3585 52.6211 72.6809C51.2583 72.9696 48.0851 72.8869 46.6545 72.6809C45.2239 72.4749 42.2725 71.8127 40.9654 70.5991Z" fill="#EAF4FE"/>
<mask id="mask0_3019_115062" style="mask-type:alpha" maskUnits="userSpaceOnUse" x="39" y="52" width="21" height="21">
<path d="M40.9656 70.5991L39.7168 52.6953H59.2818L58.1717 70.5991C56.6835 71.7858 54.1432 72.3585 52.6214 72.6809C51.2585 72.9696 48.0853 72.8869 46.6547 72.6809C45.2241 72.4749 42.2727 71.8127 40.9656 70.5991Z" fill="#EAF4FE"/>
</mask>
<g mask="url(#mask0_3019_115062)">
<path d="M58.8892 58.5567C60.5954 58.0767 61.2331 58.5741 61.3387 58.8828L62.2117 62.2399L53.4489 68.5865C50.2024 67.2705 43.8826 64.2195 44.5748 62.5439C45.44 60.4494 49.7826 58.6704 53.4903 59.4585C57.198 60.2467 56.7565 59.1567 58.8892 58.5567Z" fill="#39ACE5"/>
<path d="M58.5579 60.0801C61.3948 57.8834 62.0278 59.1648 61.9896 60.0801L59.3586 76.3272C58.7485 77.3188 56.087 79.302 50.3217 79.302C44.5564 79.302 41.3611 77.929 40.4841 77.2425L38.7682 61.2243C38.6157 60.9573 38.7454 60.3547 40.4841 60.0801C42.6575 59.7369 45.7461 62.4829 49.0634 62.7117C52.3808 62.9405 55.0118 62.8261 58.5579 60.0801Z" fill="#4BC3FF"/>
<path d="M45.2889 61.8009C41.3996 57.9108 39.1882 58.4066 38.3112 58.4829C36.8241 59.0549 32.9145 77.8117 41.3996 80.3363C59.4735 85.7138 77.204 72.0983 61.7613 67.4073C60.5523 67.04 50.1589 66.672 45.2889 61.8009Z" fill="#71D0FF"/>
</g>
<ellipse cx="49.5006" cy="52.5621" rx="9.78249" ry="1.80425" fill="#DAEBFC"/>
<defs>
<linearGradient id="paint0_linear_3019_115062" x1="23.5789" y1="52.9085" x2="45.5789" y2="52.9085" gradientUnits="userSpaceOnUse">
<stop stop-color="#DCF7C7"/>
<stop offset="1" stop-color="#AED78D"/>
</linearGradient>
<linearGradient id="paint1_linear_3019_115062" x1="34" y1="64.5547" x2="34" y2="71.5404" gradientUnits="userSpaceOnUse">
<stop stop-color="#2ECB5A"/>
<stop offset="1" stop-color="#178C38"/>
</linearGradient>
<linearGradient id="paint2_linear_3019_115062" x1="34" y1="6.54" x2="34" y2="41.4686" gradientUnits="userSpaceOnUse">
<stop stop-color="#1ABB20"/>
<stop offset="1" stop-color="#45DC54"/>
</linearGradient>
<linearGradient id="paint3_linear_3019_115062" x1="34.2845" y1="6.53906" x2="34.2845" y2="11.1962" gradientUnits="userSpaceOnUse">
<stop stop-color="#1CA041"/>
<stop offset="1" stop-color="#168335"/>
</linearGradient>
<linearGradient id="paint4_linear_3019_115062" x1="49.499" y1="52.6953" x2="49.499" y2="75.7552" gradientUnits="userSpaceOnUse">
<stop stop-color="#EAF4FE"/>
<stop offset="1" stop-color="#E2EDF7"/>
</linearGradient>
</defs>
</svg>
