<svg width="32" height="32" viewBox="0 0 32 32" fill="none" xmlns="http://www.w3.org/2000/svg">
<rect width="32" height="32" rx="16" fill="white"/>
<rect x="8" y="8" width="15" height="15" rx="2" fill="#C0E8FF"/>
<path d="M9.875 13.625C9.875 11.5539 11.5539 9.875 13.625 9.875H17.375C19.4461 9.875 21.125 11.5539 21.125 13.625C21.125 14.6605 20.2855 15.5 19.25 15.5H11.75C10.7145 15.5 9.875 14.6605 9.875 13.625Z" fill="white"/>
<path fill-rule="evenodd" clip-rule="evenodd" d="M15.4987 11.6992C15.2686 11.6992 15.082 11.5127 15.082 11.2826L15.082 10.3971L15.9154 10.3971L15.9154 11.2826C15.9154 11.5127 15.7288 11.6992 15.4987 11.6992Z" fill="#276487"/>
<path fill-rule="evenodd" clip-rule="evenodd" d="M18.103 12.1107C17.9037 11.9956 17.8355 11.7408 17.9505 11.5415L18.6276 10.3688L19.3493 10.7854L18.6722 11.9582C18.5571 12.1575 18.3023 12.2257 18.103 12.1107Z" fill="#276487"/>
<path fill-rule="evenodd" clip-rule="evenodd" d="M12.896 12.112C12.6967 12.227 12.4419 12.1588 12.3268 11.9595L11.6497 10.7867L12.3714 10.3701L13.0485 11.5428C13.1636 11.7421 13.0953 11.9969 12.896 12.112Z" fill="#276487"/>
<path d="M10.375 13.625C10.375 11.8301 11.8301 10.375 13.625 10.375H17.375C19.1699 10.375 20.625 11.8301 20.625 13.625C20.625 14.3844 20.0094 15 19.25 15H11.75C10.9906 15 10.375 14.3844 10.375 13.625Z" stroke="#51B4EC"/>
<path d="M15.5 12.6875L14.5625 14.5625H16.4375L15.5 12.6875Z" fill="#276487"/>
<rect x="16.4" y="16.4" width="9.2" height="9.2" rx="4.6" fill="white" stroke="#516F94" stroke-width="0.8"/>
<path d="M21 19V22" stroke="#516F94" stroke-linecap="round"/>
<path d="M23 21L21 23L19 21" stroke="#516F94" stroke-linecap="round"/>
</svg>
