<svg width="81" height="81" viewBox="0 0 81 81" fill="none" xmlns="http://www.w3.org/2000/svg">
<g id="icon_80/&#234;&#179;&#160;&#235;&#159;&#137;&#236;&#163;&#188;">
<g id="&#234;&#179;&#160;&#235;&#159;&#137;&#236;&#163;&#188;">
<path id="Vector 1501" d="M24.0444 28.2463V32.5022H46.098V28.2463C46.098 27.3091 45.5345 26.4639 44.6694 26.1034L41.2766 24.6897C39.979 24.1491 39.1337 22.8812 39.1337 21.4754V11.6094H31.0087V21.4771C31.0087 22.8828 30.1635 24.1491 28.8659 24.6897L25.473 26.1034C24.6079 26.4639 24.0444 27.3091 24.0444 28.2463Z" fill="url(#paint0_linear_3019_115172)"/>
<path id="Rectangle 34624710" d="M31.0087 6.9654C31.0087 6.32436 31.5283 5.80469 32.1694 5.80469H37.973C38.614 5.80469 39.1337 6.32436 39.1337 6.9654V12.769H31.0087V6.9654Z" fill="url(#paint1_linear_3019_115172)"/>
<g id="Mask group">
<mask id="mask0_3019_115172" style="mask-type:alpha" maskUnits="userSpaceOnUse" x="24" y="32" width="23" height="39">
<path id="Rectangle 34624715" d="M24.0439 32.5H46.0975L45.005 68.5525C44.967 69.8066 43.9394 70.8036 42.6847 70.8036H27.4568C26.2021 70.8036 25.1744 69.8066 25.1364 68.5525L24.0439 32.5Z" fill="url(#paint2_linear_3019_115172)"/>
</mask>
<g mask="url(#mask0_3019_115172)">
<path id="Rectangle 34624714" d="M24.0439 32.5H46.0975L45.005 68.5525C44.967 69.8066 43.9394 70.8036 42.6847 70.8036H27.4568C26.2021 70.8036 25.1744 69.8066 25.1364 68.5525L24.0439 32.5Z" fill="url(#paint3_linear_3019_115172)"/>
<path id="Rectangle 34624713" d="M24.0439 59.1953H46.0975V69.6417C46.0975 70.2828 45.5778 70.8025 44.9368 70.8025H25.2047C24.5636 70.8025 24.0439 70.2828 24.0439 69.6417V59.1953Z" fill="url(#paint4_linear_3019_115172)"/>
</g>
</g>
<path id="Rectangle 34624711" d="M28.7122 33.1094C28.6985 32.1383 29.4819 31.3438 30.4531 31.3438H39.6893C40.6605 31.3438 41.4439 32.1383 41.4302 33.1094L40.9882 64.4487C40.9748 65.4006 40.1993 66.1652 39.2474 66.1652H30.895C29.943 66.1652 29.1675 65.4006 29.1541 64.4487L28.7122 33.1094Z" fill="url(#paint5_linear_3019_115172)"/>
</g>
<g id="&#234;&#179;&#160;&#235;&#159;&#137;&#236;&#163;&#188;&#236;&#158;&#148;">
<path id="Vector 2724" d="M42.0096 55.9895C41.0963 52.6408 41.5864 47.1016 41.5864 47.1016H56.8231C56.8231 47.1016 57.3133 52.6408 56.4 55.9895C55.3024 60.014 50.4746 64.8774 50.4746 64.8774L50.6253 71.5078C50.6253 71.5078 51.2399 72.6639 52.1676 72.9188C53.7878 73.3641 55.9768 74.0887 55.9768 74.8939C55.9768 75.3171 52.0293 75.7404 49.2049 75.7404C46.3805 75.7404 42.433 75.3171 42.433 74.8939C42.433 74.0474 44.622 73.3641 46.2422 72.9188C47.1698 72.6639 47.8037 71.5078 47.8037 71.5078L47.9352 64.8774C47.9352 64.8774 43.1073 60.014 42.0096 55.9895Z" fill="url(#paint6_linear_3019_115172)"/>
<g id="Mask group_2">
<mask id="mask1_3019_115172" style="mask-type:alpha" maskUnits="userSpaceOnUse" x="41" y="47" width="16" height="18">
<path id="Vector 2723" d="M42.1457 55.7477C41.6947 54.1332 41.5885 51.9806 41.5968 50.2223C41.601 49.3451 41.6336 48.5695 41.6652 48.0133C41.681 47.7353 41.6965 47.5122 41.708 47.3587C41.7112 47.3175 41.714 47.2813 41.7164 47.2505H56.6936C56.6961 47.2813 56.6989 47.3175 56.702 47.3587C56.7135 47.5122 56.7291 47.7353 56.7448 48.0134C56.7764 48.5695 56.809 49.3451 56.8132 50.2224C56.8216 51.9806 56.7155 54.1332 56.2644 55.7477C55.8405 57.2649 54.8267 58.917 53.7419 60.3713C52.659 61.8229 51.5143 63.0656 50.8402 63.7628C50.4893 64.1257 50.0031 64.3209 49.4938 64.3209H49.2051H48.9086C48.3987 64.3209 47.9119 64.1252 47.561 63.7615C46.8876 63.0638 45.7451 61.8212 44.6642 60.3699C43.5814 58.916 42.5695 57.2645 42.1457 55.7477Z" fill="white" stroke="white" stroke-width="0.282159"/>
</mask>
<g mask="url(#mask1_3019_115172)">
<g id="Group 1321316811">
<path id="Vector 1596" d="M57.3265 51.0861C58.7465 50.798 58.4851 50.8739 58.5803 51.0854L59.3854 53.3788L52.1768 57.4878C49.4263 56.5255 44.0613 54.3209 44.6051 53.2007C45.285 51.8005 48.887 50.6898 52.0127 51.3045C55.1385 51.9193 55.5514 51.4461 57.3265 51.0861Z" fill="#2896DD"/>
<path id="Vector 1595" d="M55.2895 51.718C57.147 50.262 57.5614 51.1113 57.5365 51.718L55.8138 62.4859C55.4143 63.1431 53.6716 64.4575 49.8966 64.4575C46.1217 64.4575 44.0295 63.5476 43.4552 63.0926L42.3317 52.4763C42.2319 52.2993 42.3168 51.9 43.4552 51.718C44.8783 51.4905 46.9007 53.3104 49.0728 53.4621C51.2449 53.6137 52.9676 53.5379 55.2895 51.718Z" fill="#34AAF6"/>
</g>
<path id="Vector 1594" d="M45.9187 52.716C43.3101 50.1558 41.8268 50.4821 41.2386 50.5323C40.2412 50.9088 37.619 63.2531 43.3101 64.9146C55.4324 68.4536 67.3246 59.493 56.9669 56.4057C56.156 56.164 49.185 55.9218 45.9187 52.716Z" fill="#71D0FF"/>
</g>
</g>
<path id="Vector 2725" d="M42.1457 55.9524C41.6944 54.2975 41.5883 52.0917 41.5966 50.2904C41.6008 49.3917 41.6334 48.597 41.665 48.0272C41.6807 47.7423 41.6963 47.5137 41.7078 47.3565C41.711 47.3129 41.7139 47.2749 41.7164 47.2426H56.6931C56.6956 47.2749 56.6985 47.313 56.7017 47.3565C56.7133 47.5137 56.7288 47.7423 56.7446 48.0272C56.7762 48.5971 56.8088 49.3917 56.813 50.2904C56.8213 52.0917 56.7152 54.2975 56.2639 55.9524C55.8432 57.4948 54.8622 59.1724 53.8123 60.6527C52.764 62.1306 51.6548 63.4011 50.988 64.1284C50.5762 64.5776 50.3401 65.167 50.354 65.7806L50.4577 70.3398C50.4754 71.1202 50.6383 71.9682 51.247 72.5316C51.4875 72.7542 51.7858 72.9602 52.1302 73.0549C52.9389 73.2771 53.8825 73.5673 54.6218 73.9C54.9922 74.0667 55.3036 74.2408 55.5202 74.4175C55.729 74.5879 55.8246 74.7399 55.8348 74.8705C55.8192 74.8834 55.7903 74.9018 55.7428 74.9236C55.6419 74.9699 55.4872 75.0186 55.283 75.0675C54.8767 75.1648 54.3013 75.2566 53.6334 75.3358C52.2987 75.4939 50.6113 75.5993 49.2049 75.5993C47.7985 75.5993 46.111 75.4939 44.7764 75.3358C44.1085 75.2566 43.5331 75.1648 43.1268 75.0675C42.9225 75.0186 42.7679 74.9699 42.667 74.9236C42.6193 74.9017 42.5904 74.8834 42.5749 74.8704C42.5846 74.7286 42.6821 74.5711 42.8901 74.3997C43.1062 74.2215 43.417 74.049 43.7872 73.8849C44.5264 73.5573 45.4696 73.2774 46.2796 73.0549C46.612 72.9635 46.9034 72.7684 47.1419 72.5552C47.7809 71.9836 47.9528 71.1052 47.9688 70.298L48.0584 65.7767C48.0706 65.1653 47.8344 64.5784 47.424 64.1309C46.7579 63.4045 45.6483 62.1338 44.5993 60.6553C43.5486 59.1743 42.5667 57.4957 42.1457 55.9524ZM55.8446 74.8611C55.8446 74.8611 55.8444 74.8613 55.844 74.8618L55.8446 74.8611ZM42.5652 74.8611C42.5652 74.8611 42.5654 74.8613 42.5658 74.8618L42.5652 74.8611Z" stroke="white" stroke-width="0.282159"/>
<ellipse id="Ellipse 5493" cx="49.1998" cy="47.2393" rx="7.65293" ry="1.70022" fill="#DAEBFC"/>
</g>
</g>
<defs>
<linearGradient id="paint0_linear_3019_115172" x1="35.3614" y1="11.6094" x2="35.3614" y2="32.5022" gradientUnits="userSpaceOnUse">
<stop stop-color="#33AA38"/>
<stop offset="1" stop-color="#43DC52"/>
</linearGradient>
<linearGradient id="paint1_linear_3019_115172" x1="35.0712" y1="5.80469" x2="35.0712" y2="12.769" gradientUnits="userSpaceOnUse">
<stop stop-color="#EE4E4E"/>
<stop offset="1" stop-color="#D53456"/>
</linearGradient>
<linearGradient id="paint2_linear_3019_115172" x1="35.0707" y1="31.9196" x2="35.0707" y2="70.8036" gradientUnits="userSpaceOnUse">
<stop stop-color="#3AD447"/>
<stop offset="1" stop-color="#178C38"/>
</linearGradient>
<linearGradient id="paint3_linear_3019_115172" x1="35.0707" y1="31.9196" x2="35.0707" y2="64.4196" gradientUnits="userSpaceOnUse">
<stop stop-color="#43DC52"/>
<stop offset="1" stop-color="#2EC859"/>
</linearGradient>
<linearGradient id="paint4_linear_3019_115172" x1="35.0707" y1="59.1953" x2="35.0707" y2="70.8025" gradientUnits="userSpaceOnUse">
<stop stop-color="#2ECB5A"/>
<stop offset="1" stop-color="#1F813A"/>
</linearGradient>
<linearGradient id="paint5_linear_3019_115172" x1="28.6873" y1="42.9509" x2="41.4551" y2="42.9509" gradientUnits="userSpaceOnUse">
<stop stop-color="#EE4E4E"/>
<stop offset="1" stop-color="#D53434"/>
</linearGradient>
<linearGradient id="paint6_linear_3019_115172" x1="49.2048" y1="47.1016" x2="49.2048" y2="75.7404" gradientUnits="userSpaceOnUse">
<stop stop-color="#EAF4FE"/>
<stop offset="1" stop-color="#DBE9F7"/>
</linearGradient>
</defs>
</svg>
