<svg width="81" height="81" viewBox="0 0 81 81" fill="none" xmlns="http://www.w3.org/2000/svg">
<g id="icon_80/&#236;&#131;&#180;&#237;&#142;&#152;&#236;&#157;&#184;">
<g id="&#236;&#131;&#180;&#237;&#142;&#152;&#236;&#157;&#184;">
<path id="Union" fill-rule="evenodd" clip-rule="evenodd" d="M25.0908 47.5859C25.0908 45.8688 25.0932 42.2666 27.8475 38.1522C31.2934 33.0046 31.9825 26.0908 31.9825 24.375V9.28536C31.9825 8.64432 32.5022 8.125 33.1432 8.125H39.0919C39.733 8.125 40.2526 8.63748 40.2526 9.27852L40.2526 24.375C40.2527 26.0908 40.9419 33.0047 44.3877 38.1522C47.1426 42.2676 47.1444 45.8688 47.1444 47.5859C47.1444 47.5871 47.1444 47.5882 47.1444 47.5893V69.6395C47.1444 70.2806 46.6247 70.8002 45.9837 70.8002H26.2515C25.6105 70.8002 25.0908 70.2806 25.0908 69.6395V47.5893C25.0908 47.5882 25.0908 47.5871 25.0908 47.5859Z" fill="url(#paint0_linear_3019_115153)"/>
<path id="Rectangle 34624710" d="M31.983 6.9654C31.983 6.32436 32.5027 5.80469 33.1437 5.80469H39.0924C39.7335 5.80469 40.2531 6.32436 40.2531 6.9654V24.3761L36.1181 26.6975L31.983 24.3761V6.9654Z" fill="url(#paint1_linear_3019_115153)"/>
<path id="Rectangle 34624715" d="M31.4751 10.4498C31.4751 9.80873 31.9948 9.28906 32.6358 9.28906H39.6001C40.2411 9.28906 40.7608 9.80873 40.7608 10.4498V11.6105C40.7608 12.2515 40.2411 12.7712 39.6001 12.7712H32.6358C31.9948 12.7712 31.4751 12.2515 31.4751 11.6105V10.4498Z" fill="url(#paint2_linear_3019_115153)"/>
<path id="Rectangle 34624711" d="M25.0913 49.9141H47.1449V66.1641H25.0913V49.9141Z" fill="url(#paint3_linear_3019_115153)"/>
</g>
<g id="&#236;&#131;&#180;&#237;&#142;&#152;&#236;&#157;&#184;&#236;&#158;&#148;">
<path id="Ellipse 3425" d="M52.6304 74.6767C52.6304 74.4809 51.3779 74.3221 49.7942 74.3221C48.2104 74.3221 46.958 74.4809 46.958 74.6767C46.958 74.8725 48.2104 75.0312 49.7942 75.0312C51.3779 75.0312 52.6304 74.8725 52.6304 74.6767Z" fill="#89B9D2" fill-opacity="0.3"/>
<path id="Vector 2726" d="M43.6581 54.8205C42.8931 52.0152 44.8317 38.1562 44.8317 38.1562H54.7583C54.7583 38.1562 56.4769 52.0152 55.7119 54.8205C54.7925 58.192 50.8586 61.5571 50.8586 61.5571L50.6493 66.5209L50.8586 73.2575C50.8586 73.2575 51.4997 73.753 52.2767 73.9666C53.6338 74.3396 55.4674 74.3558 55.4674 75.0303C55.4674 75.3848 52.1609 75.7394 49.7951 75.7394C47.4292 75.7394 44.1227 75.3848 44.1227 75.0303C44.1227 74.3212 45.9563 74.3396 47.3134 73.9666C48.0904 73.753 48.7315 73.2575 48.7315 73.2575C48.7315 73.2575 48.9415 68.3229 48.9476 66.5209C48.954 64.5806 48.7315 61.5571 48.7315 61.5571C48.7315 61.5571 44.5775 58.192 43.6581 54.8205Z" fill="url(#paint4_linear_3019_115153)"/>
<g id="Mask group">
<mask id="mask0_3019_115153" style="mask-type:alpha" maskUnits="userSpaceOnUse" x="43" y="38" width="13" height="24">
<path id="Vector 2723" d="M43.6575 54.4737C42.8925 51.7352 44.8291 38.1641 44.8291 38.1641H54.6476C54.6476 38.1641 56.4761 51.7352 55.7111 54.4737C54.9988 57.0237 52.4108 59.6662 51.2813 60.7272C50.9418 61.046 50.492 61.2103 50.0263 61.2103H49.7944H49.527C49.0782 61.2103 48.6429 61.057 48.3077 60.7586C47.1401 59.7193 44.377 57.0493 43.6575 54.4737Z" fill="white"/>
</mask>
<g mask="url(#mask0_3019_115153)">
<path id="Vector 1596" d="M58.2627 44.8643C59.7904 44.6076 60.3923 45.0172 60.5022 45.2541L61.4484 47.8139L53.7794 52.0315C50.7708 50.8546 44.8917 48.1984 45.4439 46.988C46.1341 45.4751 49.997 44.4055 53.4004 45.2156C56.8038 46.0257 56.353 45.1852 58.2627 44.8643Z" fill="#E8D966"/>
<path id="Vector 1595" d="M54.8922 46.1417C56.4481 44.5409 56.7953 45.4747 56.7744 46.1417L55.3313 57.9814C54.9967 58.704 53.537 60.1492 50.375 60.1492C47.2129 60.1492 45.4605 59.1487 44.9795 58.6484L44.0384 46.9755C43.9547 46.781 44.0258 46.3418 44.9795 46.1417C46.1715 45.8916 47.8654 47.8927 49.6849 48.0594C51.5043 48.2262 52.9473 48.1428 54.8922 46.1417Z" fill="#F5E986"/>
<path id="Vector 1594" d="M47.0425 47.0308C44.8575 44.1712 43.6151 44.5356 43.1224 44.5917C42.2869 45.0122 40.0905 58.8005 44.8575 60.6564C55.0116 64.6095 64.9728 54.6006 56.2969 51.1521C55.6177 50.8822 49.7786 50.6116 47.0425 47.0308Z" fill="#FCF5B7"/>
</g>
</g>
<ellipse id="Ellipse 5493" cx="49.7875" cy="38.1604" rx="4.9633" ry="1.41823" fill="#DAEBFC"/>
</g>
</g>
<defs>
<linearGradient id="paint0_linear_3019_115153" x1="36.1176" y1="8.125" x2="36.1176" y2="70.8002" gradientUnits="userSpaceOnUse">
<stop stop-color="#B2D232"/>
<stop offset="1" stop-color="#5E7115"/>
</linearGradient>
<linearGradient id="paint1_linear_3019_115153" x1="36.1181" y1="5.80469" x2="36.1181" y2="26.6975" gradientUnits="userSpaceOnUse">
<stop stop-color="#D7AC3F"/>
<stop offset="1" stop-color="#9F7A1B"/>
</linearGradient>
<linearGradient id="paint2_linear_3019_115153" x1="36.118" y1="9.28906" x2="36.118" y2="12.7712" gradientUnits="userSpaceOnUse">
<stop stop-color="#E6BA46"/>
<stop offset="1" stop-color="#D2A735"/>
</linearGradient>
<linearGradient id="paint3_linear_3019_115153" x1="25.0913" y1="57.4587" x2="47.1449" y2="57.4587" gradientUnits="userSpaceOnUse">
<stop stop-color="#FFEEC2"/>
<stop offset="1" stop-color="#C9B06F"/>
</linearGradient>
<linearGradient id="paint4_linear_3019_115153" x1="49.6938" y1="38.1562" x2="49.6938" y2="75.7394" gradientUnits="userSpaceOnUse">
<stop stop-color="#EAF4FE"/>
<stop offset="1" stop-color="#DAEAFA"/>
</linearGradient>
</defs>
</svg>
