<svg width="48" height="49" viewBox="0 0 48 49" fill="none" xmlns="http://www.w3.org/2000/svg">
<g filter="url(#filter0_f_993_64996)">
<ellipse cx="23.1032" cy="38.5271" rx="14.3415" ry="2.488" fill="#F2F2F2"/>
</g>
<g filter="url(#filter1_i_993_64996)">
<path d="M26.2788 8.55773C26.3691 8.34335 26.3838 8.14424 26.3093 7.97456C26.0167 7.30854 24.4598 7.34841 22.8319 8.06361C22.6359 8.14972 22.4478 8.24169 22.2691 8.33803C22.3012 8.22478 22.3011 8.11749 22.2644 8.02009C22.065 7.49059 20.8617 7.45365 19.5767 7.93758C18.9808 8.162 18.472 8.45904 18.1175 8.76588C16.3452 8.89924 14.9528 9.59495 15.0072 10.3201C15.0122 10.3866 15.0291 10.451 15.0572 10.513C15.0029 10.5317 14.9484 10.5514 14.8938 10.5719C14.672 10.6555 14.4622 10.7491 14.268 10.8495C14.1131 10.6013 13.9228 10.4497 13.7059 10.4258C13.2057 10.3705 12.6954 11.0081 12.3636 11.9915C12.2416 11.7576 12.0827 11.6117 11.8957 11.5868C11.3379 11.5127 10.7402 12.5442 10.5559 13.8946C10.3093 13.5349 10.0315 13.3383 9.77193 13.3833C9.33464 13.4591 9.07937 14.1987 9.10292 15.1671C8.73038 15.0808 8.42498 15.1186 8.23804 15.3023C7.81428 15.7189 8.13031 16.757 8.93968 17.8145C7.96337 18.05 7.30688 18.4857 7.31165 18.9782C7.31436 19.2588 7.53144 19.5169 7.89919 19.7271C7.82995 19.868 7.79433 20.047 7.79071 20.2547C7.3369 19.9728 6.92799 19.8888 6.65262 20.065C6.03996 20.4572 6.32033 21.9892 7.27885 23.487C8.23737 24.9847 9.51106 25.8809 10.1237 25.4888C10.1451 25.4751 10.1654 25.46 10.1846 25.4436L10.3721 25.6482L39.055 24.6237L38.3463 20.9619C38.7247 21.0215 39.0272 20.962 39.2006 20.7651C39.6813 20.2191 38.9893 18.8239 37.6549 17.6486C37.6297 17.6264 37.6044 17.6045 37.5791 17.5828C38.2364 17.3822 38.6608 17.0614 38.6846 16.6771C38.7196 16.1121 37.8782 15.5764 36.6669 15.3147C36.7189 15.2657 36.7607 15.2098 36.791 15.147C37.1075 14.492 36.0662 13.3338 34.4652 12.5601C34.2507 12.4564 34.037 12.3649 33.8271 12.2858C33.5188 10.9789 32.9093 10.0684 32.3154 10.1348C32.0445 10.1651 31.8154 10.3944 31.6451 10.7623C31.1403 9.45916 30.3735 8.60286 29.7808 8.76367C29.6353 8.80316 29.5118 8.90086 29.4114 9.04623C28.5936 7.99867 27.6708 7.43259 27.1615 7.737C26.8931 7.8974 26.7831 8.27338 26.8174 8.77119C26.6334 8.63309 26.4508 8.55784 26.2788 8.55773Z" fill="#FAF0DE"/>
<path d="M26.2788 8.55773C26.3691 8.34335 26.3838 8.14424 26.3093 7.97456C26.0167 7.30854 24.4598 7.34841 22.8319 8.06361C22.6359 8.14972 22.4478 8.24169 22.2691 8.33803C22.3012 8.22478 22.3011 8.11749 22.2644 8.02009C22.065 7.49059 20.8617 7.45365 19.5767 7.93758C18.9808 8.162 18.472 8.45904 18.1175 8.76588C16.3452 8.89924 14.9528 9.59495 15.0072 10.3201C15.0122 10.3866 15.0291 10.451 15.0572 10.513C15.0029 10.5317 14.9484 10.5514 14.8938 10.5719C14.672 10.6555 14.4622 10.7491 14.268 10.8495C14.1131 10.6013 13.9228 10.4497 13.7059 10.4258C13.2057 10.3705 12.6954 11.0081 12.3636 11.9915C12.2416 11.7576 12.0827 11.6117 11.8957 11.5868C11.3379 11.5127 10.7402 12.5442 10.5559 13.8946C10.3093 13.5349 10.0315 13.3383 9.77193 13.3833C9.33464 13.4591 9.07937 14.1987 9.10292 15.1671C8.73038 15.0808 8.42498 15.1186 8.23804 15.3023C7.81428 15.7189 8.13031 16.757 8.93968 17.8145C7.96337 18.05 7.30688 18.4857 7.31165 18.9782C7.31436 19.2588 7.53144 19.5169 7.89919 19.7271C7.82995 19.868 7.79433 20.047 7.79071 20.2547C7.3369 19.9728 6.92799 19.8888 6.65262 20.065C6.03996 20.4572 6.32033 21.9892 7.27885 23.487C8.23737 24.9847 9.51106 25.8809 10.1237 25.4888C10.1451 25.4751 10.1654 25.46 10.1846 25.4436L10.3721 25.6482L39.055 24.6237L38.3463 20.9619C38.7247 21.0215 39.0272 20.962 39.2006 20.7651C39.6813 20.2191 38.9893 18.8239 37.6549 17.6486C37.6297 17.6264 37.6044 17.6045 37.5791 17.5828C38.2364 17.3822 38.6608 17.0614 38.6846 16.6771C38.7196 16.1121 37.8782 15.5764 36.6669 15.3147C36.7189 15.2657 36.7607 15.2098 36.791 15.147C37.1075 14.492 36.0662 13.3338 34.4652 12.5601C34.2507 12.4564 34.037 12.3649 33.8271 12.2858C33.5188 10.9789 32.9093 10.0684 32.3154 10.1348C32.0445 10.1651 31.8154 10.3944 31.6451 10.7623C31.1403 9.45916 30.3735 8.60286 29.7808 8.76367C29.6353 8.80316 29.5118 8.90086 29.4114 9.04623C28.5936 7.99867 27.6708 7.43259 27.1615 7.737C26.8931 7.8974 26.7831 8.27338 26.8174 8.77119C26.6334 8.63309 26.4508 8.55784 26.2788 8.55773Z" fill="url(#paint0_radial_993_64996)" fill-opacity="0.2"/>
</g>
<path d="M5.25 21.9755C5.25 21.3289 5.77418 20.8047 6.42078 20.8047H40.0792C40.7258 20.8047 41.25 21.3289 41.25 21.9755V23.4396C41.25 31.1988 34.9599 37.4889 27.2007 37.4889H19.2993C11.5401 37.4889 5.25 31.1988 5.25 23.4396V21.9755Z" fill="url(#paint1_linear_993_64996)"/>
<path d="M16.3711 37.2031H30.1272V37.7886C30.1272 38.7585 29.3409 39.5448 28.371 39.5448H18.1273C17.1574 39.5448 16.3711 38.7585 16.3711 37.7886V37.2031Z" fill="#E0592B"/>
<ellipse cx="1.32816" cy="1.35259" rx="1.32816" ry="1.35259" transform="matrix(0.757984 0.652273 -0.652214 0.758035 14.3301 16.1094)" fill="url(#paint2_linear_993_64996)"/>
<ellipse cx="1.32812" cy="1.35264" rx="1.32812" ry="1.35264" transform="matrix(0.999712 0.0240104 -0.0240066 0.999712 19.6543 15.8281)" fill="url(#paint3_linear_993_64996)"/>
<ellipse cx="1.32812" cy="1.35264" rx="1.32812" ry="1.35264" transform="matrix(0.999712 0.0240104 -0.0240066 0.999712 17.8984 10.5625)" fill="url(#paint4_linear_993_64996)"/>
<ellipse cx="1.32817" cy="1.35259" rx="1.32817" ry="1.35259" transform="matrix(0.738812 0.673912 -0.673854 0.738865 27.2695 10.8516)" fill="url(#paint5_linear_993_64996)"/>
<ellipse cx="1.32819" cy="1.35257" rx="1.32819" ry="1.35257" transform="matrix(0.563328 -0.826234 0.826192 0.563388 29.8613 17.7656)" fill="url(#paint6_linear_993_64996)"/>
<defs>
<filter id="filter0_f_993_64996" x="1.73705" y="29.0144" width="42.7329" height="19.0259" filterUnits="userSpaceOnUse" color-interpolation-filters="sRGB">
<feFlood flood-opacity="0" result="BackgroundImageFix"/>
<feBlend mode="normal" in="SourceGraphic" in2="BackgroundImageFix" result="shape"/>
<feGaussianBlur stdDeviation="3.51233" result="effect1_foregroundBlur_993_64996"/>
</filter>
<filter id="filter1_i_993_64996" x="6.32812" y="7.5" width="33.0254" height="18.1484" filterUnits="userSpaceOnUse" color-interpolation-filters="sRGB">
<feFlood flood-opacity="0" result="BackgroundImageFix"/>
<feBlend mode="normal" in="SourceGraphic" in2="BackgroundImageFix" result="shape"/>
<feColorMatrix in="SourceAlpha" type="matrix" values="0 0 0 0 0 0 0 0 0 0 0 0 0 0 0 0 0 0 127 0" result="hardAlpha"/>
<feOffset/>
<feGaussianBlur stdDeviation="0.292694"/>
<feComposite in2="hardAlpha" operator="arithmetic" k2="-1" k3="1"/>
<feColorMatrix type="matrix" values="0 0 0 0 0.895833 0 0 0 0 0.747861 0 0 0 0 0.48151 0 0 0 0.35 0"/>
<feBlend mode="normal" in2="shape" result="effect1_innerShadow_993_64996"/>
</filter>
<radialGradient id="paint0_radial_993_64996" cx="0" cy="0" r="1" gradientUnits="userSpaceOnUse" gradientTransform="translate(17.25 14.0865) rotate(64.1937) scale(12.8425 23.3708)">
<stop stop-color="white"/>
<stop offset="1" stop-color="#F7F7F7"/>
</radialGradient>
<linearGradient id="paint1_linear_993_64996" x1="23.25" y1="20.8047" x2="23.25" y2="37.4889" gradientUnits="userSpaceOnUse">
<stop stop-color="#FF824D"/>
<stop offset="1" stop-color="#F46436"/>
</linearGradient>
<linearGradient id="paint2_linear_993_64996" x1="1.32816" y1="0" x2="1.32816" y2="2.70519" gradientUnits="userSpaceOnUse">
<stop stop-color="#9DC236"/>
<stop offset="1" stop-color="#BFD77D"/>
</linearGradient>
<linearGradient id="paint3_linear_993_64996" x1="1.32812" y1="0" x2="1.32812" y2="2.70528" gradientUnits="userSpaceOnUse">
<stop stop-color="#9DC236"/>
<stop offset="1" stop-color="#BFD77D"/>
</linearGradient>
<linearGradient id="paint4_linear_993_64996" x1="1.32812" y1="0" x2="1.32812" y2="2.70528" gradientUnits="userSpaceOnUse">
<stop stop-color="#9DC236"/>
<stop offset="1" stop-color="#BFD77D"/>
</linearGradient>
<linearGradient id="paint5_linear_993_64996" x1="1.32817" y1="0" x2="1.32817" y2="2.70518" gradientUnits="userSpaceOnUse">
<stop stop-color="#9DC236"/>
<stop offset="1" stop-color="#BFD77D"/>
</linearGradient>
<linearGradient id="paint6_linear_993_64996" x1="1.32819" y1="0" x2="1.32819" y2="2.70513" gradientUnits="userSpaceOnUse">
<stop stop-color="#9DC236"/>
<stop offset="1" stop-color="#BFD77D"/>
</linearGradient>
</defs>
</svg>
