<svg width="48" height="48" viewBox="0 0 48 48" fill="none" xmlns="http://www.w3.org/2000/svg">
<circle opacity="0.5" cx="23.9199" cy="24" r="14" fill="url(#paint0_linear_2290_92042)"/>
<circle opacity="0.5" cx="23.9199" cy="24" r="10" fill="url(#paint1_linear_2290_92042)"/>
<path fill-rule="evenodd" clip-rule="evenodd" d="M5.99609 10.9656C5.99609 10.4323 6.42839 10 6.96166 10C7.49493 10 7.92722 10.4323 7.92722 10.9656V16.2742C7.92722 16.5413 8.14376 16.7578 8.41088 16.7578C8.67799 16.7578 8.89453 16.5413 8.89453 16.2742V10.9656C8.89453 10.4323 9.32683 10 9.8601 10C10.3934 10 10.8257 10.4323 10.8257 10.9656V16.2761C10.8257 16.5421 11.0413 16.7578 11.3074 16.7578C11.5734 16.7578 11.7891 16.5421 11.7891 16.2761V10.9656C11.7891 10.4323 12.2214 10 12.7546 10C13.2879 10 13.7202 10.4323 13.7202 10.9656V16.7576C13.7202 16.7577 13.7203 16.7578 13.7204 16.7578C13.7205 16.7578 13.7206 16.7579 13.7206 16.758V17.7234C13.7206 19.4532 12.5834 20.9175 11.0157 21.4092C10.9428 21.4321 10.8986 21.5062 10.905 21.5823L12.0727 35.5947C12.1806 36.8897 11.1587 38.0003 9.85922 38.0003C8.55978 38.0003 7.53786 36.8897 7.64578 35.5947L8.81347 21.5823C8.8198 21.5064 8.77577 21.4326 8.70307 21.4099C7.13435 20.9188 5.99609 19.454 5.99609 17.7234V16.759V16.7578V10.9656Z" fill="url(#paint2_linear_2290_92042)"/>
<path fill-rule="evenodd" clip-rule="evenodd" d="M38.4589 21.4539C40.4816 20.8863 41.9961 18.5675 41.9961 15.7934C41.9961 12.5938 39.9814 10 37.4961 10C35.0108 10 32.9961 12.5938 32.9961 15.7934C32.9961 18.5677 34.5108 20.8865 36.5335 21.4539C36.5305 21.4749 36.5282 21.496 36.5265 21.5174L35.4205 35.757C35.3265 36.9668 36.2828 38.0003 37.4962 38.0003C38.7096 38.0003 39.666 36.9668 39.572 35.757L38.4659 21.5174C38.4643 21.496 38.4619 21.4748 38.4589 21.4539Z" fill="url(#paint3_linear_2290_92042)"/>
<path d="M23.5107 29.6747C21.6329 29.0552 17.4199 26.4485 17.4199 22.0301C17.4199 20.078 19.0329 18.5 21.031 18.5C22.2107 18.5 23.2579 19.0494 23.9199 19.9144C24.5699 19.0611 25.6292 18.5 26.8088 18.5C28.807 18.5 30.4199 20.078 30.4199 22.0301C30.4199 26.4485 26.207 29.0552 24.3171 29.6747C24.1005 29.7448 23.7273 29.7448 23.5107 29.6747Z" fill="url(#paint4_linear_2290_92042)"/>
<defs>
<linearGradient id="paint0_linear_2290_92042" x1="16.9199" y1="10" x2="30.9199" y2="38" gradientUnits="userSpaceOnUse">
<stop stop-color="#D7EAFF"/>
<stop offset="1" stop-color="#B6D9FF"/>
</linearGradient>
<linearGradient id="paint1_linear_2290_92042" x1="15.5866" y1="14" x2="30.5866" y2="32.8889" gradientUnits="userSpaceOnUse">
<stop stop-color="#B9D9FF"/>
<stop offset="1" stop-color="#F7FAFF"/>
</linearGradient>
<linearGradient id="paint2_linear_2290_92042" x1="9.85839" y1="10" x2="9.85839" y2="38.0003" gradientUnits="userSpaceOnUse">
<stop stop-color="#FFD467"/>
<stop offset="1" stop-color="#FFBB36"/>
</linearGradient>
<linearGradient id="paint3_linear_2290_92042" x1="34.5261" y1="9.77452" x2="40.3633" y2="37.5236" gradientUnits="userSpaceOnUse">
<stop stop-color="#FFD467"/>
<stop offset="1" stop-color="#FFBB36"/>
</linearGradient>
<linearGradient id="paint4_linear_2290_92042" x1="23.9199" y1="18.5" x2="23.9199" y2="29.7273" gradientUnits="userSpaceOnUse">
<stop stop-color="#FF7E7E"/>
<stop offset="1" stop-color="#F14F4F"/>
</linearGradient>
</defs>
</svg>
