<svg width="40" height="40" viewBox="0 0 40 40" fill="none" xmlns="http://www.w3.org/2000/svg">
<rect width="40" height="40" rx="8" fill="#F8F8F8"/>
<rect x="6.5" y="28.5244" width="27" height="4.5002" rx="2.2501" fill="#E0E6EC"/>
<path d="M33.4985 15.476C33.4985 21.4762 24.4985 28.9766 24.4985 28.9766C24.4985 28.9766 15.4985 21.4762 15.4985 15.476C15.4985 10.5052 19.528 6.47559 24.4985 6.47559C29.4691 6.47559 33.4985 10.5052 33.4985 15.476Z" fill="#FF5C71"/>
<path d="M29.9355 15.4729C29.9355 18.4761 27.5011 20.9107 24.498 20.9107C21.495 20.9107 19.0606 18.4761 19.0606 15.4729C19.0606 12.4697 21.495 10.0352 24.498 10.0352C27.5011 10.0352 29.9355 12.4697 29.9355 15.4729Z" fill="white" stroke="white" stroke-width="1.12502"/>
<path d="M24.499 12.4775V15.4777L26.899 16.9777" stroke="#3B4A65" stroke-width="1.12502" stroke-linecap="round"/>
<path d="M15.4988 23.5748C15.4988 25.9749 11.8988 28.975 11.8988 28.975C11.8988 28.975 8.29883 25.9749 8.29883 23.5748C8.29883 21.5865 9.9106 19.9746 11.8988 19.9746C13.8871 19.9746 15.4988 21.5865 15.4988 23.5748Z" fill="#FF5C71"/>
<path d="M13.4741 23.5755C13.4741 24.4454 12.769 25.1505 11.8991 25.1505C11.0293 25.1505 10.3241 24.4454 10.3241 23.5755C10.3241 22.7056 11.0293 22.0004 11.8991 22.0004C12.769 22.0004 13.4741 22.7056 13.4741 23.5755Z" fill="white" stroke="white" stroke-width="0.45001"/>
<ellipse cx="24.4999" cy="30.7739" rx="1.35" ry="1.35006" fill="#AAB3BC"/>
<ellipse cx="11.8993" cy="30.7739" rx="1.35" ry="1.35006" fill="#AAB3BC"/>
</svg>
