<svg width="60" height="60" viewBox="0 0 60 60" fill="none" xmlns="http://www.w3.org/2000/svg">
<circle cx="28" cy="32" r="28" fill="#F8F8F8"/>
<path d="M13.6834 42.7708C13.4128 42.3019 13.5734 41.7024 14.0422 41.4318L20.8328 37.5109L23.2831 41.7554L16.4925 45.6762C16.0237 45.9469 15.4243 45.7863 15.1536 45.3175L13.6834 42.7708Z" fill="url(#paint0_linear_4951_95287)"/>
<rect width="18.623" height="4.90099" transform="matrix(0.866007 -0.500032 0.499968 0.866044 20.8315 37.5039)" fill="url(#paint1_linear_4951_95287)"/>
<path d="M36.9585 28.1992L39.5049 26.7289C39.9737 26.4582 40.5732 26.6188 40.8438 27.0877L42.3141 29.6344C42.5847 30.1032 42.4241 30.7027 41.9553 30.9734L39.4088 32.4437L36.9585 28.1992Z" fill="url(#paint2_linear_4951_95287)"/>
<path fill-rule="evenodd" clip-rule="evenodd" d="M25.0581 18.1037C25.0581 19.7727 26.1926 21.1767 27.7323 21.5865C28.0721 23.1404 29.4563 24.3036 31.1121 24.3036H35.8968C36.2044 24.9837 36.8888 25.4568 37.6838 25.4568H38.8367C39.3462 25.4568 39.7593 25.0438 39.7593 24.5343C39.7593 22.574 38.2308 20.9707 36.3007 20.8512V20.844H36.069H35.96C35.9946 20.6564 36.0127 20.4631 36.0127 20.2655C36.0127 18.514 34.5929 17.0942 32.8416 17.0942C32.6017 17.0942 32.3679 17.1208 32.1432 17.1714C31.7324 15.633 30.3293 14.5 28.6615 14.5C26.6714 14.5 25.0581 16.1135 25.0581 18.1037Z" fill="url(#paint3_linear_4951_95287)"/>
<circle cx="46" cy="14" r="13.3" fill="#3B4A65" stroke="white" stroke-width="1.4"/>
<path d="M46 9V19" stroke="white" stroke-width="1.4" stroke-linecap="round"/>
<path d="M41 14H51" stroke="white" stroke-width="1.4" stroke-linecap="round"/>
<defs>
<linearGradient id="paint0_linear_4951_95287" x1="17.0131" y1="39.7164" x2="19.4637" y2="43.9607" gradientUnits="userSpaceOnUse">
<stop stop-color="#BBBBBB"/>
<stop offset="1" stop-color="#AAAAAA"/>
</linearGradient>
<linearGradient id="paint1_linear_4951_95287" x1="9.31148" y1="0" x2="9.31148" y2="4.90099" gradientUnits="userSpaceOnUse">
<stop stop-color="#EEEEEE"/>
<stop offset="1" stop-color="#DDDDDD"/>
</linearGradient>
<linearGradient id="paint2_linear_4951_95287" x1="38.6561" y1="27.219" x2="41.1068" y2="31.4633" gradientUnits="userSpaceOnUse">
<stop stop-color="#BBBBBB"/>
<stop offset="1" stop-color="#AAAAAA"/>
</linearGradient>
<linearGradient id="paint3_linear_4951_95287" x1="32.4086" y1="14.5" x2="32.4086" y2="25.4569" gradientUnits="userSpaceOnUse">
<stop stop-color="#F7F9FF"/>
<stop offset="1" stop-color="#EEF1F5"/>
</linearGradient>
</defs>
</svg>
