<svg width="18" height="18" viewBox="0 0 18 18" fill="none" xmlns="http://www.w3.org/2000/svg">
<path d="M7.78707 14.1931C3.42834 13.268 4.05168 8.92786 5.63809 6.3684C5.74518 6.22274 5.91483 5.92659 5.91483 6.18846C5.91483 6.53528 6.14519 6.69272 6.35705 6.69272C6.56891 6.69272 7.37656 6.3661 7.50897 5.77515C8.31462 3.33363 9.09643 2.72736 9.52014 2.87144C9.85144 2.98408 10.7263 3.41965 11.9974 6.65371C13.2686 9.88777 12.5271 12.0407 11.9974 12.7102C11.4589 13.3712 9.79973 14.6202 7.78707 14.1931Z" stroke="white" stroke-width="1.07143"/>
<path d="M8.5877 12.1745C6.16714 12.088 6.66974 9.79899 7.2236 8.66531L7.22426 8.66396C7.38167 8.34176 7.6136 7.86703 7.89164 8.51932C8.17007 9.17253 8.42306 9.05104 8.51474 8.90865C8.57836 8.82754 8.74377 8.55282 8.89646 8.10286C9.21867 6.98589 9.49361 7.12519 9.80417 7.82219C10.1201 8.53117 10.3784 9.76034 10.3784 10.601C10.3953 11.149 10.0607 12.2308 8.5877 12.1745Z" fill="white"/>
</svg>
