<svg width="21" height="20" viewBox="0 0 21 20" fill="none" xmlns="http://www.w3.org/2000/svg">
<path d="M2 7.62488C2 7.2797 2.27982 6.99988 2.625 6.99988H7.375C7.72018 6.99988 8 7.2797 8 7.62488V12.3749C8 12.7201 7.72018 12.9999 7.375 12.9999H2.625C2.27982 12.9999 2 12.7201 2 12.3749V7.62488Z" fill="#FFCC48"/>
<path d="M4.9248 7.69341C4.9248 7.23716 5.16412 6.81435 5.55529 6.57951L11.5407 2.98613C11.9736 2.72619 12.5246 3.03806 12.5246 3.54307V16.4565C12.5246 16.9615 11.9736 17.2734 11.5407 17.0135L5.55529 13.4201C5.16412 13.1852 4.9248 12.7624 4.9248 12.3062V7.69341Z" fill="#FFCC48"/>
<rect x="19" y="9.45203" width="1.16991" height="3.50973" rx="0.584954" transform="rotate(90 19 9.45203)" fill="#FC814D"/>
<rect x="16.8533" y="4.77032" width="1.25657" height="2.92477" rx="0.628284" transform="rotate(60 16.8533 4.77032)" fill="#FC814D"/>
<rect x="17.4817" y="14.1327" width="1.25657" height="2.92477" rx="0.628284" transform="rotate(120 17.4817 14.1327)" fill="#FC814D"/>
</svg>
