<svg width="32" height="32" viewBox="0 0 32 32" fill="none" xmlns="http://www.w3.org/2000/svg">
<rect width="32" height="32" rx="16" fill="white"/>
<rect x="8" y="13" width="16" height="11" fill="#E6E6E6"/>
<rect x="8" y="18" width="16" height="3" fill="#5C97F0"/>
<path d="M13 17C13 16.4477 13.4477 16 14 16H18C18.5523 16 19 16.4477 19 17V24H13V17Z" fill="#A7B9D4"/>
<rect x="7" y="10.0508" width="18.001" height="3.60019" rx="1" fill="#F5F5F5"/>
<circle cx="16.0002" cy="9.37518" r="3.37518" fill="#3F86F1"/>
<path fill-rule="evenodd" clip-rule="evenodd" d="M15.6252 7.57812C15.4595 7.57812 15.3252 7.71244 15.3252 7.87812V8.70314H14.5002C14.3345 8.70314 14.2002 8.83745 14.2002 9.00314V9.75321C14.2002 9.9189 14.3345 10.0532 14.5002 10.0532H15.3252V10.8783C15.3252 11.044 15.4595 11.1783 15.6252 11.1783H16.3753C16.541 11.1783 16.6753 11.044 16.6753 10.8783V10.0532H17.5004C17.6661 10.0532 17.8004 9.9189 17.8004 9.75321V9.00314C17.8004 8.83745 17.6661 8.70314 17.5004 8.70314H16.6753V7.87813C16.6753 7.71244 16.541 7.57812 16.3753 7.57812H15.6252Z" fill="white"/>
</svg>
