<svg width="32" height="33" viewBox="0 0 32 33" fill="none" xmlns="http://www.w3.org/2000/svg">
<circle cx="16" cy="16.2031" r="16" fill="#3F86F1"/>
<path d="M13 12.7031V9.70313C13 8.32241 11.8807 7.20312 10.5 7.20312V7.20312C9.11929 7.20312 8 8.32241 8 9.70313V18.2031" stroke="white" stroke-width="1.4"/>
<rect x="7" y="18.2031" width="2" height="7" rx="1" fill="white"/>
<rect x="5.5" y="18.6016" width="5" height="2" rx="1" fill="white"/>
<rect x="5" y="17.2031" width="6" height="1.4" rx="0.7" fill="#3F86F1"/>
<rect x="5" y="20.6016" width="6" height="1.4" rx="0.7" fill="#3F86F1"/>
<path d="M24 18.2031V9.70313C24 8.32241 22.8807 7.20312 21.5 7.20312V7.20312C20.1193 7.20312 19 8.32241 19 9.70312V12.7031" stroke="white" stroke-width="1.4"/>
<rect x="23" y="18.2031" width="2" height="7" rx="1" fill="white"/>
<rect x="21.5" y="18.6016" width="5" height="2" rx="1" fill="white"/>
<rect x="21" y="17.2031" width="6" height="1.4" rx="0.7" fill="#3F86F1"/>
<rect x="21" y="20.6016" width="6" height="1.4" rx="0.7" fill="#3F86F1"/>
<path d="M19 12.2031V20.2031C19 21.86 17.6569 23.2031 16 23.2031V23.2031C14.3431 23.2031 13 21.86 13 20.2031V12.2031" stroke="white" stroke-width="1.4"/>
</svg>
