<svg width="48" height="48" viewBox="0 0 48 48" fill="none" xmlns="http://www.w3.org/2000/svg">
<path d="M25.3363 43.6643C10.5501 40.5156 12.6647 25.7437 18.0463 17.0324C18.4095 16.5366 18.985 15.5286 18.985 16.4199C18.985 17.6004 19.7665 18.1362 20.4852 18.1362C21.2039 18.1362 23.9437 17.0246 24.3929 15.0132C27.1259 6.70326 29.778 4.63978 31.2154 5.13014C32.3392 5.51355 35.3069 6.99604 39.6191 18.0035C43.9312 29.0109 41.4158 36.3384 39.6191 38.6172C37.7924 40.8671 32.1638 45.1182 25.3363 43.6643Z" fill="#FF632C"/>
<path d="M28.0618 38.521C18.2575 38.1704 20.2932 28.899 22.5366 24.3072L22.5393 24.3017C23.1769 22.9967 24.1163 21.0738 25.2425 23.7159C26.3702 26.3616 27.3949 25.8696 27.7663 25.2928C28.024 24.9643 28.694 23.8516 29.3124 22.029C30.6175 17.5049 31.7311 18.0691 32.989 20.8922C34.2685 23.7639 35.315 28.7425 35.315 32.1477C35.3832 34.3671 34.028 38.7489 28.0618 38.521Z" fill="#FFC800"/>
</svg>
