<svg width="32" height="33" viewBox="0 0 32 33" fill="none" xmlns="http://www.w3.org/2000/svg">
<circle cx="16" cy="16.2031" r="16" fill="#3F86F1"/>
<path d="M16 13.7656V9.70313C16 8.32241 14.8807 7.20312 13.5 7.20312V7.20312C12.1193 7.20312 11 8.32241 11 9.70313V22.2031" stroke="white" stroke-width="1.4"/>
<path d="M24 13.7656V9.70313C24 8.32241 22.8807 7.20312 21.5 7.20312V7.20312C20.1193 7.20312 19 8.32241 19 9.70313L19 20.2031" stroke="white" stroke-width="1.4"/>
<path d="M26 14.2031H6" stroke="white" stroke-width="1.4"/>
<path d="M11 16.7031H19" stroke="white" stroke-width="1.4"/>
<path d="M11 16.7031H19" stroke="white" stroke-width="1.4"/>
<path d="M11 19.2031H19" stroke="white" stroke-width="1.4"/>
<path d="M6.5 23.7042C6.5 23.7042 8.25973 25.7042 9.75 25.7042C11.2403 25.7042 11.5107 23.65 13 23.7042C14.4071 23.7553 14.5919 25.7042 16 25.7042C17.4081 25.7042 17.5919 23.7042 19 23.7042C20.4081 23.7042 20.5919 25.7042 22 25.7042C23.4081 25.7042 25 23.7042 25 23.7042" stroke="white" stroke-width="1.4"/>
<path d="M6.5 20.2042C6.5 20.2042 8.25973 22.2042 9.75 22.2042C11.2403 22.2042 11.5107 20.15 13 20.2042C14.4071 20.2553 14.5919 22.2042 16 22.2042C17.4081 22.2042 17.5919 20.2042 19 20.2042C20.4081 20.2042 20.5919 22.2042 22 22.2042C23.4081 22.2042 25 20.2042 25 20.2042" stroke="white" stroke-width="1.4"/>
</svg>
