<svg width="40" height="40" viewBox="0 0 40 40" fill="none" xmlns="http://www.w3.org/2000/svg">
<rect width="40" height="40" rx="8" fill="#F8F8F8"/>
<path d="M10 16.4445C10 15.3399 10.8954 14.4445 12 14.4445H28C29.1046 14.4445 30 15.3399 30 16.4445V19C30 19.5523 29.5523 20 29 20H11C10.4477 20 10 19.5523 10 19V16.4445Z" fill="#FF7971"/>
<path d="M11.1111 20H28.8889V28C28.8889 29.1046 27.9934 30 26.8889 30H13.1111C12.0065 30 11.1111 29.1046 11.1111 28V20Z" fill="#F8564B"/>
<path fill-rule="evenodd" clip-rule="evenodd" d="M21.1162 14.4443H24.3915C25.6491 14.4443 26.6726 13.4464 26.6726 12.2203C26.6726 10.9961 25.6491 10 24.3915 10C22.6269 10 21.0554 11.1974 20.0029 12.5419C18.9504 11.1974 17.3789 10 15.6143 10C14.3567 10 13.3332 10.9961 13.3332 12.2203C13.3332 13.4464 14.3567 14.4443 15.6143 14.4443H18.8896H21.1162ZM21.1118 14.4444H18.8896V30H21.1118V14.4444ZM24.2558 13.3333H21.1119C21.5216 12.4133 22.7687 11.1111 24.2558 11.1111C24.9745 11.1111 25.5593 11.6091 25.5593 12.2213C25.5593 12.8343 24.9745 13.3333 24.2558 13.3333ZM15.7479 13.3333H18.8918C18.4821 12.4133 17.235 11.1111 15.7479 11.1111C15.0293 11.1111 14.4444 11.6091 14.4444 12.2213C14.4444 12.8343 15.0293 13.3333 15.7479 13.3333Z" fill="#FFDA57"/>
</svg>
