<svg width="32" height="32" viewBox="0 0 32 32" fill="none" xmlns="http://www.w3.org/2000/svg">
<mask id="mask0_4449_19517" style="mask-type:alpha" maskUnits="userSpaceOnUse" x="0" y="0" width="32" height="32">
<circle cx="16" cy="16" r="16" fill="#D9D9D9"/>
</mask>
<g mask="url(#mask0_4449_19517)">
<circle cx="16" cy="15.9969" r="15.2" fill="#D1D7DF"/>
</g>
<path fill-rule="evenodd" clip-rule="evenodd" d="M13.9371 0.33664C14.6125 0.248538 15.3011 0.203125 16 0.203125C16.6988 0.203125 17.3874 0.248538 18.0628 0.33664C18.3914 0.379501 18.623 0.68062 18.5802 1.00921C18.5373 1.33779 18.2362 1.56942 17.9076 1.52656C17.2835 1.44515 16.6468 1.40312 16 1.40312C15.3531 1.40312 14.7164 1.44515 14.0923 1.52656C13.7637 1.56942 13.4626 1.33779 13.4197 1.00921C13.3769 0.68062 13.6085 0.379501 13.9371 0.33664ZM10.7358 1.72668C10.8627 2.03277 10.7175 2.38381 10.4114 2.51074C9.22479 3.00282 8.11687 3.64702 7.11203 4.41921C6.84928 4.62112 6.47259 4.5718 6.27068 4.30905C6.06877 4.0463 6.11809 3.66962 6.38084 3.4677C7.46787 2.63236 8.66691 1.93507 9.95174 1.40227C10.2578 1.27534 10.6089 1.42058 10.7358 1.72668ZM21.2641 1.72668C21.391 1.42058 21.7421 1.27534 22.0482 1.40227C23.333 1.93507 24.532 2.63236 25.6191 3.4677C25.8818 3.66962 25.9311 4.0463 25.7292 4.30905C25.5273 4.5718 25.1506 4.62112 24.8879 4.41921C23.883 3.64702 22.7751 3.00282 21.5885 2.51074C21.2824 2.38381 21.1372 2.03277 21.2641 1.72668ZM4.30588 6.27385C4.56863 6.47577 4.61794 6.85245 4.41603 7.1152C3.64385 8.12004 2.99964 9.22796 2.50757 10.4146C2.38064 10.7207 2.0296 10.8659 1.7235 10.739C1.41741 10.6121 1.27217 10.261 1.3991 9.95492C1.9319 8.67009 2.62918 7.47105 3.46453 6.38401C3.66644 6.12126 4.04313 6.07194 4.30588 6.27385ZM27.694 6.27385C27.9568 6.07194 28.3335 6.12126 28.5354 6.38401C29.3707 7.47105 30.068 8.67009 30.6008 9.95492C30.7277 10.261 30.5825 10.6121 30.2764 10.739C29.9703 10.8659 29.6193 10.7207 29.4923 10.4146C29.0003 9.22796 28.356 8.12004 27.5839 7.1152C27.382 6.85245 27.4313 6.47577 27.694 6.27385ZM1.00603 13.4229C1.33462 13.4658 1.56625 13.7669 1.52339 14.0955C1.44198 14.7196 1.39995 15.3563 1.39995 16.0031C1.39995 16.65 1.44198 17.2867 1.52339 17.9108C1.56625 18.2394 1.33462 18.5405 1.00603 18.5833C0.677446 18.6262 0.376328 18.3946 0.333466 18.066C0.245364 17.3906 0.199951 16.702 0.199951 16.0031C0.199951 15.3042 0.245364 14.6157 0.333466 13.9403C0.376328 13.6117 0.677446 13.38 1.00603 13.4229ZM30.9939 13.4229C31.3225 13.38 31.6236 13.6117 31.6664 13.9403C31.7545 14.6157 31.7999 15.3042 31.7999 16.0031C31.7999 16.702 31.7545 17.3906 31.6664 18.066C31.6236 18.3946 31.3225 18.6262 30.9939 18.5833C30.6653 18.5405 30.4337 18.2394 30.4765 17.9108C30.5579 17.2867 30.5999 16.65 30.5999 16.0031C30.5999 15.3563 30.5579 14.7196 30.4765 14.0955C30.4337 13.7669 30.6653 13.4658 30.9939 13.4229ZM1.7235 21.2673C2.0296 21.1403 2.38064 21.2856 2.50757 21.5917C2.99964 22.7783 3.64385 23.8862 4.41603 24.891C4.61794 25.1538 4.56863 25.5305 4.30588 25.7324C4.04313 25.9343 3.66644 25.885 3.46453 25.6222C2.62918 24.5352 1.9319 23.3362 1.3991 22.0513C1.27217 21.7452 1.41741 21.3942 1.7235 21.2673ZM30.2764 21.2673C30.5825 21.3942 30.7277 21.7452 30.6008 22.0513C30.068 23.3362 29.3707 24.5352 28.5354 25.6222C28.3335 25.885 27.9568 25.9343 27.694 25.7324C27.4313 25.5305 27.382 25.1538 27.5839 24.891C28.356 23.8862 29.0003 22.7783 29.4923 21.5917C29.6193 21.2856 29.9703 21.1403 30.2764 21.2673ZM6.27068 27.6972C6.47259 27.4344 6.84928 27.3851 7.11203 27.587C8.11687 28.3592 9.22479 29.0034 10.4114 29.4955C10.7175 29.6224 10.8627 29.9735 10.7358 30.2796C10.6089 30.5857 10.2578 30.7309 9.95174 30.604C8.66691 30.0712 7.46787 29.3739 6.38084 28.5385C6.11809 28.3366 6.06877 27.9599 6.27068 27.6972ZM25.7292 27.6972C25.9311 27.9599 25.8818 28.3366 25.6191 28.5385C24.532 29.3739 23.333 30.0712 22.0482 30.604C21.7421 30.7309 21.391 30.5857 21.2641 30.2796C21.1372 29.9735 21.2824 29.6224 21.5885 29.4955C22.7751 29.0034 23.883 28.3592 24.8879 27.587C25.1506 27.3851 25.5273 27.4344 25.7292 27.6972ZM13.4197 30.997C13.4626 30.6685 13.7637 30.4368 14.0923 30.4797C14.7164 30.5611 15.3531 30.6031 16 30.6031C16.6468 30.6031 17.2835 30.5611 17.9076 30.4797C18.2362 30.4368 18.5373 30.6685 18.5802 30.997C18.623 31.3256 18.3914 31.6267 18.0628 31.6696C17.3874 31.7577 16.6988 31.8031 16 31.8031C15.3011 31.8031 14.6125 31.7577 13.9371 31.6696C13.6085 31.6267 13.3769 31.3256 13.4197 30.997Z" fill="white"/>
<rect x="12" y="20" width="8" height="1" rx="0.5" fill="#26282C"/>
<circle cx="10" cy="13.5" r="4.5" fill="white"/>
<circle cx="10.4492" cy="14.3984" r="2.25" fill="#26282C"/>
<circle cx="22" cy="13.5" r="4.5" fill="white"/>
<circle cx="21.5508" cy="14.3984" r="2.25" fill="#26282C"/>
</svg>
