<svg width="56" height="56" viewBox="0 0 56 56" fill="none" xmlns="http://www.w3.org/2000/svg">
<path fill-rule="evenodd" clip-rule="evenodd" d="M26.6012 8.5C23.4219 8.49938 20.687 10.1741 19.112 12.9802C17.8696 15.1935 16.1406 18.0195 13.7226 21.3063C8.57788 28.2993 7.97823 34.557 8.25406 36.6282C8.25986 36.6717 8.26279 36.7156 8.26281 36.7596C8.26317 37.3676 8.366 38.0948 8.57255 38.7674C8.7743 39.4243 9.04849 39.9433 9.34394 40.2596C21.1819 49.3478 32.5193 47.2434 40.8573 43.8186C41.3682 43.6088 41.9525 43.8528 42.1623 44.3637C42.3721 44.8746 42.1281 45.4588 41.6172 45.6687C32.9106 49.2448 20.7101 51.5441 8.06605 41.7998C8.03179 41.7734 7.99929 41.7449 7.96874 41.7142C7.33723 41.0816 6.92084 40.2017 6.66067 39.3545C6.4033 38.5165 6.27055 37.6184 6.26314 36.8264C5.93196 34.133 6.74522 27.4154 12.1116 20.1211C14.4738 16.9101 16.1592 14.1547 17.3679 12.0012C19.2779 8.59837 22.6608 6.49923 26.6016 6.5L30.8266 6.50083C31.8408 6.50103 32.7805 7.03325 33.3023 7.90294L35.2174 11.095C35.9544 12.3234 35.6795 13.9064 34.5715 14.8143L32.7242 16.3281C31.1486 17.6193 28.9193 17.7569 27.1905 16.6992C26.3393 16.1784 25.3937 16.4232 25.049 17.0088C24.5252 17.8985 24.0852 19.0751 24.0852 20.7137C24.0852 21.5411 24.1239 22.4411 24.1641 23.3749C24.1685 23.4763 24.1729 23.5781 24.1772 23.6802C24.2212 24.7103 24.2618 25.773 24.2412 26.7533C24.2363 26.9859 24.2279 27.2176 24.2149 27.4467C25.3406 26.7415 26.6912 26.3235 28.7014 26.3235C30.7211 26.3235 32.5457 26.7439 33.9332 27.2491C34.6275 27.5019 35.2251 27.7805 35.6933 28.0484C35.7342 28.0718 35.7752 28.0957 35.8161 28.1201C37.5227 26.0237 41.5127 22.3236 48.5131 23.0248C49.0627 23.0798 49.4635 23.5699 49.4085 24.1195C49.3535 24.669 48.8633 25.0699 48.3138 25.0148C41.314 24.3138 37.8481 28.637 36.8264 30.0988C36.6427 30.3618 36.3439 30.5206 36.0232 30.5258C35.7024 30.5311 35.3986 30.3821 35.2063 30.1254C35.2092 30.1292 35.2067 30.127 35.1978 30.1194C35.1617 30.0885 35.0202 29.9675 34.7001 29.7843C34.3433 29.5802 33.8509 29.3476 33.2489 29.1284C32.044 28.6897 30.4516 28.3235 28.7014 28.3235C26.9772 28.3235 26.0019 28.6773 25.2337 29.1688C24.8289 29.4277 24.4558 29.7415 24.0366 30.1217C23.9195 30.2279 23.7961 30.3419 23.667 30.4611C23.5406 30.5779 23.4087 30.6997 23.2719 30.8242C23.0532 31.1047 22.7785 31.3477 22.4317 31.5213C21.9791 31.748 21.4284 31.6007 21.1495 31.1783C20.8705 30.7558 20.9512 30.1916 21.3374 29.8643C21.4874 29.7371 21.629 29.6128 21.7662 29.4895C21.8392 29.369 21.9169 29.1938 21.9888 28.9392C22.1456 28.3839 22.2223 27.6292 22.2416 26.7113C22.2607 25.8032 22.2232 24.8005 22.1791 23.7653C22.1747 23.663 22.1703 23.5603 22.1658 23.4573C22.1259 22.5318 22.0852 21.5871 22.0852 20.7137C22.0852 18.6805 22.6409 17.157 23.3255 15.9942C24.3922 14.1823 26.7123 14.062 28.2343 14.9932C29.2461 15.6122 30.5471 15.5264 31.4566 14.7812L33.3038 13.2674C33.6445 12.9883 33.729 12.5016 33.5024 12.1239L31.5873 8.93189C31.4269 8.66451 31.138 8.50089 30.8262 8.50083L26.6012 8.5Z" fill="#3F86F1"/>
<path fill-rule="evenodd" clip-rule="evenodd" d="M39.4257 41.3586C39.8921 41.063 40.51 41.2014 40.8057 41.6679L42.4333 44.2356C44.1356 46.6074 46.5321 47.4563 47.4 47.5804C47.9467 47.6586 48.3265 48.1653 48.2483 48.712C48.17 49.2587 47.6634 49.6385 47.1167 49.5603C45.7882 49.3702 42.8561 48.273 40.7896 45.3753C40.779 45.3605 40.7689 45.3454 40.7591 45.3301L39.1165 42.7386C38.8208 42.2722 38.9592 41.6543 39.4257 41.3586Z" fill="#3F86F1"/>
<path d="M24.5566 35.5586C23.1232 36.3861 22.5626 38.1761 23.3739 39.5813C24.2187 41.0446 25.6055 41.7748 26.9251 42.1008C28.2387 42.4253 29.533 42.3627 30.2863 42.1982L30.3131 42.1924C30.4331 42.1665 30.5767 42.1354 30.7042 42.0609C30.8264 41.9893 30.922 41.8838 30.9978 41.8001L31.0214 41.7741C31.5445 41.2016 32.2479 40.1109 32.6247 38.8103C33.0032 37.5038 33.0642 35.9377 32.2194 34.4744C31.408 33.0691 29.5776 32.6597 28.1442 33.4872C27.4562 33.8844 26.9684 34.5069 26.7397 35.1969C26.0233 35.0479 25.246 35.1605 24.5566 35.5586Z" fill="#3F86F1"/>
</svg>
