<svg width="56" height="59" viewBox="0 0 56 59" fill="none" xmlns="http://www.w3.org/2000/svg">
<path d="M33.6581 21.0088L50.2284 47.7268C50.7104 48.504 50.1515 49.5084 49.2369 49.5084H16.0964C15.1819 49.5084 14.6229 48.504 15.1049 47.7268L31.6752 21.0088C32.1315 20.2731 33.2019 20.2731 33.6581 21.0088Z" stroke="#3F86F1" stroke-width="2" stroke-linecap="round"/>
<path d="M28.1862 51.8411H6.80856C5.88398 51.8411 5.32678 50.8169 5.82906 50.0407L16.5179 33.5216C16.9776 32.8111 18.0172 32.8111 18.4769 33.5216L29.1657 50.0407C29.668 50.8169 29.1108 51.8411 28.1862 51.8411Z" fill="white" stroke="#3F86F1" stroke-width="2" stroke-linecap="round"/>
<path d="M32.7813 20.339L32.7812 16.6711M32.7812 16.6711V8.29882C32.7812 7.77236 33.3406 7.43432 33.8067 7.67907L40.676 11.2861C41.1754 11.5483 41.1754 12.2634 40.676 12.5256L32.7812 16.6711Z" stroke="#3F86F1" stroke-width="2" stroke-linecap="round"/>
</svg>
