<svg width="48" height="48" viewBox="0 0 48 48" fill="none" xmlns="http://www.w3.org/2000/svg">
<circle cx="24.5625" cy="32.3125" r="8.4375" fill="#33D07B"/>
<circle cx="22.0312" cy="30.625" r="0.84375" fill="#0F8143"/>
<circle cx="27.0938" cy="30.625" r="0.84375" fill="#0F8143"/>
<rect x="21.75" y="33.2119" width="5.625" height="1.35" rx="0.675" fill="#0F8143"/>
<circle cx="14.4375" cy="15.4375" r="8.4375" fill="#FFE03C"/>
<path d="M17.0047 16.2716C17.3596 16.387 17.5594 16.7731 17.3758 17.0979C17.1392 17.5166 16.8145 17.8822 16.4213 18.1679C15.8447 18.5869 15.1502 18.8125 14.4375 18.8125C13.7248 18.8125 13.0303 18.5869 12.4537 18.1679C12.0605 17.8822 11.7358 17.5166 11.4992 17.0979C11.3156 16.7731 11.5154 16.387 11.8703 16.2716C12.2252 16.1563 12.5989 16.3615 12.8241 16.659C12.9435 16.8167 13.0861 16.957 13.248 17.0747C13.5938 17.3258 14.0101 17.4611 14.4375 17.4611C14.8649 17.4611 15.2812 17.3258 15.627 17.0747C15.7889 16.957 15.9315 16.8167 16.0509 16.659C16.2761 16.3615 16.6498 16.1563 17.0047 16.2716Z" fill="#B08515"/>
<circle cx="11.9062" cy="13.75" r="0.84375" fill="#B08515"/>
<circle cx="16.9688" cy="13.75" r="0.84375" fill="#B08515"/>
<circle cx="33.5625" cy="15.4375" r="8.4375" fill="#FF7373"/>
<path d="M36.1297 18.5409C36.4846 18.4255 36.6844 18.0394 36.5008 17.7146C36.2642 17.2959 35.9395 16.9303 35.5463 16.6446C34.9697 16.2256 34.2752 16 33.5625 16C32.8498 16 32.1553 16.2256 31.5787 16.6446C31.1855 16.9303 30.8608 17.2959 30.6242 17.7146C30.4406 18.0394 30.6404 18.4255 30.9953 18.5409C31.3502 18.6562 31.7239 18.451 31.9491 18.1535C32.0685 17.9958 32.2111 17.8555 32.373 17.7378C32.7188 17.4867 33.1351 17.3514 33.5625 17.3514C33.9899 17.3514 34.4062 17.4867 34.752 17.7378C34.9139 17.8555 35.0565 17.9958 35.1759 18.1535C35.4011 18.451 35.7748 18.6562 36.1297 18.5409Z" fill="#BC2A2A"/>
<circle cx="31.0312" cy="13.75" r="0.84375" fill="#BC2A2A"/>
<circle cx="36.0938" cy="13.75" r="0.84375" fill="#BC2A2A"/>
</svg>
