<svg width="60" height="60" viewBox="0 0 60 60" fill="none" xmlns="http://www.w3.org/2000/svg">
<circle cx="28" cy="32" r="28" fill="#F8F8F8"/>
<circle cx="28.468" cy="38.9274" r="7.03094" fill="#CCCCCC"/>
<circle cx="26.3589" cy="37.5215" r="0.703094" fill="#AAAAAA"/>
<circle cx="30.5771" cy="37.5215" r="0.703094" fill="#AAAAAA"/>
<rect x="26.1245" y="39.6777" width="4.6873" height="1.12495" rx="0.562476" fill="#AAAAAA"/>
<circle cx="20.0305" cy="24.863" r="7.03094" fill="#DDDDDD"/>
<path d="M22.1699 25.5582C22.4656 25.6543 22.6321 25.9761 22.4791 26.2468C22.282 26.5957 22.0114 26.9003 21.6837 27.1384C21.2032 27.4875 20.6246 27.6755 20.0306 27.6755C19.4367 27.6755 18.8581 27.4875 18.3776 27.1384C18.0499 26.9003 17.7793 26.5957 17.5822 26.2468C17.4292 25.9761 17.5957 25.6543 17.8914 25.5582C18.1871 25.4621 18.4985 25.6332 18.6862 25.8811C18.7857 26.0125 18.9045 26.1293 19.0395 26.2274C19.3276 26.4367 19.6745 26.5495 20.0306 26.5495C20.3867 26.5495 20.7337 26.4367 21.0218 26.2274C21.1568 26.1293 21.2756 26.0125 21.375 25.8811C21.5628 25.6332 21.8741 25.4621 22.1699 25.5582Z" fill="#AAAAAA"/>
<circle cx="17.9214" cy="23.457" r="0.703094" fill="#AAAAAA"/>
<circle cx="22.1396" cy="23.457" r="0.703094" fill="#AAAAAA"/>
<circle cx="35.968" cy="24.863" r="7.03094" fill="#BBBBBB"/>
<path d="M38.1074 27.4496C38.4031 27.3535 38.5696 27.0317 38.4166 26.761C38.2195 26.4121 37.9489 26.1075 37.6212 25.8694C37.1407 25.5203 36.5621 25.3323 35.9681 25.3323C35.3742 25.3323 34.7956 25.5203 34.3151 25.8694C33.9874 26.1075 33.7168 26.4121 33.5197 26.761C33.3667 27.0317 33.5332 27.3535 33.8289 27.4496C34.1246 27.5457 34.436 27.3747 34.6237 27.1267C34.7232 26.9954 34.842 26.8785 34.977 26.7804C35.2651 26.5711 35.612 26.4584 35.9681 26.4584C36.3242 26.4584 36.6712 26.5711 36.9593 26.7804C37.0943 26.8785 37.2131 26.9954 37.3125 27.1267C37.5003 27.3747 37.8116 27.5457 38.1074 27.4496Z" fill="#999999"/>
<circle cx="33.8589" cy="23.457" r="0.703094" fill="#999999"/>
<circle cx="38.0771" cy="23.457" r="0.703094" fill="#999999"/>
<circle cx="46" cy="14" r="13.3" fill="#3B4A65" stroke="white" stroke-width="1.4"/>
<path d="M46 9V19" stroke="white" stroke-width="1.4" stroke-linecap="round"/>
<path d="M41 14H51" stroke="white" stroke-width="1.4" stroke-linecap="round"/>
</svg>
