<svg width="48" height="48" viewBox="0 0 48 48" fill="none" xmlns="http://www.w3.org/2000/svg">
<path d="M32.7422 27.0938C32.7422 35.378 27.2024 39.75 20.3679 39.75C13.5333 39.75 7.99219 35.378 7.99219 27.0938C7.99219 18.8095 20.3679 6 20.3679 6C20.3679 6 32.7422 18.8095 32.7422 27.0938Z" fill="url(#paint0_linear_1592_16596)"/>
<rect x="21.4922" y="24" width="18" height="18" rx="9" fill="white"/>
<path fill-rule="evenodd" clip-rule="evenodd" d="M30.4919 28.5017C30.1369 28.5017 29.8491 28.2139 29.8491 27.8588V25.2874C29.8491 24.9323 30.1369 24.6445 30.4919 24.6445C30.8469 24.6445 31.1348 24.9323 31.1348 25.2874V27.8588C31.1348 28.2139 30.8469 28.5017 30.4919 28.5017ZM22.7776 32.3588C22.4226 32.3588 22.1348 32.6466 22.1348 33.0017C22.1348 33.3567 22.4226 33.6445 22.7776 33.6445H25.3491C25.7041 33.6445 25.9919 33.3567 25.9919 33.0017C25.9919 32.6466 25.7041 32.3588 25.3491 32.3588H22.7776ZM35.6348 32.3588C35.2797 32.3588 34.9919 32.6466 34.9919 33.0017C34.9919 33.3567 35.2797 33.6445 35.6348 33.6445H38.2062C38.5612 33.6445 38.8491 33.3567 38.8491 33.0017C38.8491 32.6466 38.5612 32.3588 38.2062 32.3588H35.6348ZM29.8491 40.716C29.8491 41.071 30.1369 41.3588 30.4919 41.3588C30.8469 41.3588 31.1348 41.071 31.1348 40.716V38.1445C31.1348 37.7895 30.8469 37.5017 30.4919 37.5017C30.1369 37.5017 29.8491 37.7895 29.8491 38.1445V40.716Z" fill="#DBE5ED"/>
<rect x="22.2501" y="24.7579" width="16.4842" height="16.4842" rx="8.24211" stroke="#516F94" stroke-width="1.51579"/>
<path d="M29.6804 32.0309L34.1793 29.3316L31.48 33.8304C31.3088 34.1158 31.0004 34.2904 30.6676 34.2904H30.1679C29.6446 34.2904 29.2205 33.8662 29.2205 33.343L29.2205 32.8433C29.2205 32.5105 29.3951 32.2021 29.6804 32.0309Z" fill="#445570"/>
<defs>
<linearGradient id="paint0_linear_1592_16596" x1="20.3672" y1="6" x2="20.3672" y2="39.75" gradientUnits="userSpaceOnUse">
<stop stop-color="#FF7E7E"/>
<stop offset="1" stop-color="#F14F4F"/>
</linearGradient>
</defs>
</svg>
