<svg width="49" height="48" viewBox="0 0 49 48" fill="none" xmlns="http://www.w3.org/2000/svg">
<path fill-rule="evenodd" clip-rule="evenodd" d="M10.7301 10.5469H38.416L35.6474 36.3039H35.6426C35.6426 36.3039 35.6426 36.304 35.6426 36.3041C35.6426 39.368 30.6845 41.8518 24.5683 41.8518C18.4521 41.8518 13.4939 39.368 13.4939 36.3041C13.4939 36.2902 13.494 36.2762 13.4942 36.2623L10.7301 10.5469Z" fill="url(#paint0_linear_2290_92212)"/>
<path d="M11.5448 10.5477C11.5448 11.0173 11.7789 11.5469 12.3777 12.1142C12.9782 12.6832 13.8909 13.2333 15.0864 13.7124C17.4729 14.6688 20.8259 15.2787 24.5711 15.2787C28.3163 15.2787 31.6692 14.6688 34.0558 13.7124C35.2513 13.2333 36.164 12.6832 36.7645 12.1142C37.3633 11.5469 37.5974 11.0173 37.5974 10.5477C37.5974 10.078 37.3633 9.54839 36.7645 8.98108C36.164 8.41207 35.2513 7.86203 34.0558 7.38292C31.6692 6.42651 28.3163 5.81666 24.5711 5.81666C20.8259 5.81666 17.4729 6.42651 15.0864 7.38292C13.8909 7.86203 12.9782 8.41207 12.3777 8.98108C11.7789 9.54839 11.5448 10.078 11.5448 10.5477Z" fill="url(#paint1_linear_2290_92212)" stroke="#E4F6FF" stroke-width="1.63332"/>
<g clip-path="url(#clip0_2290_92212)">
<mask id="mask0_2290_92212" style="mask-type:alpha" maskUnits="userSpaceOnUse" x="6" y="20" width="39" height="40">
<path d="M14.9871 20.6147C12.7744 21.2482 11.5645 23.4996 11.5645 23.4996V59.45H44.6499V22.2237C44.6499 22.2237 42.8587 20.5071 39.9084 21.1273C36.9581 21.7475 35.2491 22.3765 32.3284 22.7977C29.3781 23.2232 25.4888 22.4309 23.0873 21.4189C20.5585 20.3533 17.7232 19.8314 14.9871 20.6147Z" fill="#ADE3FF"/>
<path opacity="0.5" d="M35.7942 20.6147C38.0069 21.2482 39.2168 23.4996 39.2168 23.4996V59.45H6.13134V22.2237C6.13134 22.2237 7.92259 20.5071 10.8729 21.1273C13.8232 21.7475 15.5322 22.3765 18.4528 22.7977C21.4031 23.2232 25.2925 22.4309 27.6939 21.4189C30.2228 20.3533 33.0581 19.8314 35.7942 20.6147Z" fill="#70CEFF"/>
</mask>
<g mask="url(#mask0_2290_92212)">
<path fill-rule="evenodd" clip-rule="evenodd" d="M36.7908 11.2634C36.8129 11.1597 36.8242 11.0549 36.8242 10.9492C36.8242 8.61711 31.3348 6.72656 24.5633 6.72656C17.7919 6.72656 12.3026 8.61704 12.3024 10.9491H12.3022L12.3024 10.9505C12.3025 11.0548 12.3135 11.1582 12.3352 11.2606L14.9813 36.2562L14.981 36.2856C14.981 38.4057 19.2696 40.1243 24.5598 40.1243C29.8501 40.1243 34.1387 38.4057 34.1387 36.2856V36.285H34.142L36.7908 11.2634Z" fill="url(#paint2_linear_2290_92212)"/>
<ellipse opacity="0.5" cx="29.0263" cy="35.0361" rx="1.05367" ry="1.05567" fill="white"/>
<ellipse opacity="0.7" cx="27.0142" cy="32.8297" rx="0.574731" ry="0.575817" fill="white"/>
<ellipse cx="30.4632" cy="27.4542" rx="0.383154" ry="0.383878" fill="white"/>
</g>
</g>
<defs>
<linearGradient id="paint0_linear_2290_92212" x1="24.573" y1="10.5469" x2="24.573" y2="41.8517" gradientUnits="userSpaceOnUse">
<stop stop-color="#F0FAFF"/>
<stop offset="0.0001" stop-color="#EFFAFF"/>
<stop offset="1" stop-color="#D9F0FC"/>
</linearGradient>
<linearGradient id="paint1_linear_2290_92212" x1="24.5711" y1="5" x2="24.5711" y2="16.0953" gradientUnits="userSpaceOnUse">
<stop stop-color="#E4F6FF"/>
<stop offset="1" stop-color="#F9FDFF"/>
</linearGradient>
<linearGradient id="paint2_linear_2290_92212" x1="24.5628" y1="17.179" x2="24.5628" y2="40.212" gradientUnits="userSpaceOnUse">
<stop stop-color="#82D4FF"/>
<stop offset="1" stop-color="#49C0FE"/>
</linearGradient>
<clipPath id="clip0_2290_92212">
<rect width="29" height="33.0271" fill="white" transform="matrix(-1 0 0 1 39.1172 9.83594)"/>
</clipPath>
</defs>
</svg>
