<svg width="24" height="24" viewBox="0 0 24 24" fill="none" xmlns="http://www.w3.org/2000/svg">
<path d="M7.80846 6.65365C9.20068 6.73074 10.1643 5.56738 10.5193 4.84136C10.697 4.5344 11.1562 4.71346 11.2698 4.84136L12.9745 6.7094C13.0186 6.75769 13.0544 6.8126 13.0895 6.86774C13.3184 7.22703 13.836 7.62867 13.2285 8.50885L7.94414 14.3912C7.91869 14.4196 7.89104 14.4459 7.86081 14.469C7.11378 15.0413 6.08752 15.2666 5.16108 14.4338C3.97403 13.3667 6.16363 10.9491 6.71328 9.80341C6.75133 9.7241 6.76702 9.6371 6.76702 9.54913L6.76701 7.46041C6.76701 6.95633 7.30515 6.62578 7.80846 6.65365Z" fill="#C5CDF8"/>
<path d="M7.03661 5.73012C8.60816 6.07352 9.6986 4.78608 10.0781 4.00965C10.2519 3.70919 10.5177 3.88446 10.6289 4.00965L12.19 5.75175C12.4432 6.03424 12.3208 6.50386 12.437 6.86496C12.4543 6.91875 12.4773 6.97566 12.5032 7.03775C12.5988 7.26642 12.5447 7.52474 12.3773 7.70749L7.50797 13.0235C6.77364 13.7746 5.84492 14.2708 5.12141 13.9624C2.91843 13.0235 3.59156 11.2708 4.01992 10.2067L6.10402 6.10693C6.27248 5.77556 6.67345 5.65076 7.03661 5.73012Z" fill="#6267DE"/>
<mask id="mask0_2850_8511" style="mask-type:alpha" maskUnits="userSpaceOnUse" x="10" y="5" width="4" height="5">
<path d="M10.9746 9.30559C10.0457 7.80021 10.4522 6.24539 10.9851 5.28128C11.1776 4.93289 11.6443 4.90677 11.9176 5.19626C14.7186 8.16389 13.0685 9.30836 11.5659 9.57156C11.3329 9.61237 11.0988 9.50688 10.9746 9.30559Z" fill="#D9D9D9"/>
</mask>
<g mask="url(#mask0_2850_8511)">
<path d="M6.57335 5.32794C8.19423 5.68916 9.31916 4.40087 9.70925 3.62565C9.88692 3.32734 10.1586 3.50135 10.2722 3.62565L12.7115 6.23592C13.1619 6.68339 12.8992 7.16815 12.7115 7.3546L7.45753 12.948C6.70696 13.6938 5.95638 14.0512 4.64288 13.5074C2.39116 12.5751 3.07918 10.835 3.51702 9.77842L5.65393 5.69516C5.82346 5.37122 6.21648 5.24841 6.57335 5.32794Z" fill="#4D51BD"/>
</g>
<path fill-rule="evenodd" clip-rule="evenodd" d="M5.07163 7.65521C5.0984 7.48652 5.25685 7.37147 5.42553 7.39824L7.20937 7.68139C7.37805 7.70816 7.49308 7.86662 7.46631 8.03531C7.43954 8.204 7.2811 8.31905 7.11242 8.29227L5.32858 8.00913C5.1599 7.98235 5.04486 7.8239 5.07163 7.65521Z" fill="white"/>
<path fill-rule="evenodd" clip-rule="evenodd" d="M4.23862 8.91302C4.2654 8.74433 4.42384 8.62928 4.59252 8.65606L6.37636 8.9392C6.54504 8.96598 6.66008 9.12443 6.6333 9.29312C6.60653 9.46181 6.44809 9.57686 6.27941 9.55009L4.49557 9.26694C4.32689 9.24017 4.21185 9.08171 4.23862 8.91302Z" fill="white"/>
<path fill-rule="evenodd" clip-rule="evenodd" d="M3.57847 10.2411C3.60524 10.0725 3.76368 9.95741 3.93236 9.98418L5.7162 10.2673C5.88488 10.2941 5.99992 10.4526 5.97315 10.6212C5.94638 10.7899 5.78793 10.905 5.61925 10.8782L3.83541 10.5951C3.66673 10.5683 3.5517 10.4098 3.57847 10.2411Z" fill="white"/>
<path d="M17.1013 13.1051C18.0312 14.1442 19.5352 14.0031 20.2996 13.7407C20.6422 13.6493 20.8403 14.1006 20.8302 14.2714L20.7148 16.7978C20.7118 16.8631 20.6984 16.9273 20.6842 16.9911C20.592 17.4071 20.6741 18.0571 19.6222 18.2499L11.7264 18.6724C11.6883 18.6745 11.6502 18.6735 11.6124 18.6685C10.6796 18.5449 9.79457 17.9785 9.72834 16.7345C9.64348 15.1405 12.9011 14.9794 14.0998 14.5579C14.1828 14.5288 14.2554 14.4783 14.3176 14.4161L15.7945 12.9392C16.1509 12.5827 16.7651 12.7295 17.1013 13.1051Z" fill="#C5CDF8"/>
<path d="M17.2062 11.9052C18.0746 13.2594 19.756 13.1202 20.5733 12.8395C20.9087 12.75 20.9727 13.0619 20.9628 13.229L20.8349 15.5648C20.8142 15.9435 20.3956 16.1892 20.2224 16.5267C20.1966 16.5769 20.1727 16.6334 20.1471 16.6956C20.053 16.9249 19.8321 17.0694 19.5845 17.0802L12.3827 17.3958C11.3323 17.4076 10.3248 17.1017 10.0312 16.372C9.13739 14.1502 10.8526 13.3869 11.9079 12.9374L16.2803 11.5122C16.6338 11.397 17.0055 11.5923 17.2062 11.9052Z" fill="#6267DE"/>
<mask id="mask1_2850_8511" style="mask-type:alpha" maskUnits="userSpaceOnUse" x="17" y="14" width="5" height="5">
<path d="M17.4639 17.215C17.8714 15.4936 19.2582 14.6816 20.3167 14.3767C20.6992 14.2666 21.0476 14.5781 21.0362 14.976C20.9185 19.0553 18.9425 18.6977 17.6939 17.8212C17.5003 17.6853 17.4094 17.4452 17.4639 17.215Z" fill="#D9D9D9"/>
</mask>
<g mask="url(#mask1_2850_8511)">
<path d="M17.1659 11.2858C18.0567 12.6875 19.763 12.5721 20.587 12.2998C20.9236 12.2145 20.9926 12.5296 20.9851 12.6979L20.8643 16.2686C20.8664 16.9035 20.3379 17.0605 20.0734 17.0596L12.4034 17.2994C11.3453 17.2959 10.5619 17.0178 10.0176 15.7045C9.08456 13.453 10.8015 12.709 11.8581 12.2715L16.2562 10.8954C16.6051 10.7862 16.9699 10.9773 17.1659 11.2858Z" fill="#4D51BD"/>
</g>
<path fill-rule="evenodd" clip-rule="evenodd" d="M14.4576 11.8728C14.5958 11.7724 14.7892 11.8031 14.8896 11.9413L15.9507 13.403C16.0511 13.5412 16.0204 13.7346 15.8822 13.8349C15.744 13.9353 15.5506 13.9046 15.4503 13.7664L14.3891 12.3047C14.2887 12.1665 14.3194 11.9731 14.4576 11.8728Z" fill="white"/>
<path fill-rule="evenodd" clip-rule="evenodd" d="M12.9752 12.1774C13.1134 12.0771 13.3068 12.1078 13.4071 12.246L14.4683 13.7077C14.5687 13.8459 14.538 14.0393 14.3998 14.1396C14.2616 14.24 14.0682 14.2093 13.9678 14.0711L12.9067 12.6094C12.8063 12.4712 12.837 12.2778 12.9752 12.1774Z" fill="white"/>
<path fill-rule="evenodd" clip-rule="evenodd" d="M11.5709 12.6462C11.7091 12.5458 11.9025 12.5765 12.0028 12.7148L13.064 14.1764C13.1644 14.3146 13.1337 14.508 12.9955 14.6084C12.8573 14.7087 12.6639 14.678 12.5635 14.5398L11.5024 13.0782C11.402 12.9399 11.4327 12.7465 11.5709 12.6462Z" fill="white"/>
</svg>
