<svg width="60" height="60" viewBox="0 0 60 60" fill="none" xmlns="http://www.w3.org/2000/svg">
<circle cx="37" cy="29.5" r="13" fill="url(#paint0_linear_3272_10370)"/>
<rect x="35.75" y="8" width="2.5" height="5.5" rx="1.25" fill="#FFCD1A"/>
<rect x="35.75" y="45.5" width="2.5" height="5.5" rx="1.25" fill="#FFCD1A"/>
<rect x="15.5" y="30.75" width="2.5" height="5.5" rx="1.25" transform="rotate(-90 15.5 30.75)" fill="#FFCD1A"/>
<rect x="53" y="30.75" width="2.5" height="5.5" rx="1.25" transform="rotate(-90 53 30.75)" fill="#FFCD1A"/>
<rect x="20.9141" y="15.1797" width="2.5" height="5.5" rx="1.25" transform="rotate(-45 20.9141 15.1797)" fill="#FFCD1A"/>
<rect x="47.4297" y="41.6953" width="2.5" height="5.5" rx="1.25" transform="rotate(-45 47.4297 41.6953)" fill="#FFCD1A"/>
<rect x="51.3203" y="13.4141" width="2.5" height="5.5" rx="1.25" transform="rotate(45 51.3203 13.4141)" fill="#FFCD1A"/>
<rect x="24.8047" y="39.9297" width="2.5" height="5.5" rx="1.25" transform="rotate(45 24.8047 39.9297)" fill="#FFCD1A"/>
<path fill-rule="evenodd" clip-rule="evenodd" d="M44.5246 51.4369C44.7979 51.4615 45.0746 51.4741 45.3542 51.4741C50.3996 51.4741 54.4897 47.384 54.4897 42.3386C54.4897 37.2932 50.3996 33.2031 45.3542 33.2031C45.063 33.2031 44.775 33.2167 44.4908 33.2434C44.0882 28.57 40.1671 24.9023 35.3894 24.9023C33.2516 24.9023 31.2852 25.6367 29.7289 26.8669C27.8471 23.7003 24.3919 21.5781 20.441 21.5781C14.4783 21.5781 9.64453 26.4119 9.64453 32.3746C9.64453 33.2713 9.75385 34.1425 9.9599 34.9756C6.01283 35.6184 3 39.0434 3 43.1722C3 47.7589 6.71827 51.4771 11.305 51.4771C11.3614 51.4771 11.4177 51.4766 11.4738 51.4755H44.5246V51.4369Z" fill="url(#paint1_linear_3272_10370)"/>
<defs>
<linearGradient id="paint0_linear_3272_10370" x1="28.3333" y1="17.8" x2="44.3667" y2="40.7667" gradientUnits="userSpaceOnUse">
<stop stop-color="#FFE661"/>
<stop offset="1" stop-color="#F9C91F"/>
</linearGradient>
<linearGradient id="paint1_linear_3272_10370" x1="27.9144" y1="21.5781" x2="27.9144" y2="51.4771" gradientUnits="userSpaceOnUse">
<stop stop-color="#9ACDF1"/>
<stop offset="1" stop-color="#CCEAFF"/>
</linearGradient>
</defs>
</svg>
