<svg width="40" height="40" viewBox="0 0 40 40" fill="none" xmlns="http://www.w3.org/2000/svg">
<rect width="40" height="40" rx="8" fill="#F8F8F8"/>
<path d="M11.574 18.0714C11.5336 16.9396 12.4401 16 13.5727 16H26.4273C27.5599 16 28.4664 16.9395 28.426 18.0714L28.0689 28.0714C28.0304 29.1475 27.1469 30 26.0702 30H13.9298C12.8531 30 11.9696 29.1475 11.9311 28.0714L11.574 18.0714Z" fill="url(#paint0_linear_1_38245)"/>
<path d="M23.5 17V14.5C23.5 12.567 21.933 11 20 11V11C18.067 11 16.5 12.567 16.5 14.5V17" stroke="url(#paint1_linear_1_38245)" stroke-width="2" stroke-linecap="round"/>
<circle cx="16.5" cy="20" r="1" fill="white"/>
<circle cx="23.5" cy="20" r="1" fill="white"/>
<defs>
<linearGradient id="paint0_linear_1_38245" x1="20" y1="16" x2="20" y2="30" gradientUnits="userSpaceOnUse">
<stop stop-color="#FFD952"/>
<stop offset="1" stop-color="#FFC42E"/>
</linearGradient>
<linearGradient id="paint1_linear_1_38245" x1="20" y1="11" x2="20" y2="17" gradientUnits="userSpaceOnUse">
<stop stop-color="#FF7269"/>
<stop offset="1" stop-color="#EF5F4C"/>
</linearGradient>
</defs>
</svg>
