<svg width="48" height="48" viewBox="0 0 48 48" fill="none" xmlns="http://www.w3.org/2000/svg">
<rect x="4" y="4" width="36" height="12" rx="2" fill="#FFCC00"/>
<path fill-rule="evenodd" clip-rule="evenodd" d="M13.2133 8.16569C13.2756 8.11302 13.3689 8.12085 13.4216 8.18319L14.7735 9.78303C14.8262 9.84537 14.8183 9.93861 14.756 9.99129C14.6936 10.044 14.6004 10.0361 14.5477 9.9738L13.1958 8.37395C13.1431 8.31161 13.151 8.21837 13.2133 8.16569Z" fill="#FF9E0D"/>
<path fill-rule="evenodd" clip-rule="evenodd" d="M13.2133 8.16569C13.2756 8.11302 13.3689 8.12085 13.4216 8.18319L14.7735 9.78303C14.8262 9.84537 14.8183 9.93861 14.756 9.99129C14.6936 10.044 14.6004 10.0361 14.5477 9.9738L13.1958 8.37395C13.1431 8.31161 13.151 8.21837 13.2133 8.16569Z" fill="url(#paint0_linear_7921_147658)" fill-opacity="0.2"/>
<path fill-rule="evenodd" clip-rule="evenodd" d="M13.2133 8.16569C13.2756 8.11302 13.3689 8.12085 13.4216 8.18319L14.7735 9.78303C14.8262 9.84537 14.8183 9.93861 14.756 9.99129C14.6936 10.044 14.6004 10.0361 14.5477 9.9738L13.1958 8.37395C13.1431 8.31161 13.151 8.21837 13.2133 8.16569Z" stroke="#FF9E0D" stroke-linecap="round"/>
<path fill-rule="evenodd" clip-rule="evenodd" d="M21.2787 8.08468C21.3454 8.13176 21.3613 8.22397 21.3142 8.29064L20.1331 9.96322C20.086 10.0299 19.9938 10.0458 19.9272 9.99869C19.8605 9.95162 19.8446 9.85941 19.8917 9.79274L21.0727 8.12016C21.1198 8.05349 21.212 8.03761 21.2787 8.08468Z" fill="#FF9E0D"/>
<path fill-rule="evenodd" clip-rule="evenodd" d="M21.2787 8.08468C21.3454 8.13176 21.3613 8.22397 21.3142 8.29064L20.1331 9.96322C20.086 10.0299 19.9938 10.0458 19.9272 9.99869C19.8605 9.95162 19.8446 9.85941 19.8917 9.79274L21.0727 8.12016C21.1198 8.05349 21.212 8.03761 21.2787 8.08468Z" fill="url(#paint1_linear_7921_147658)" fill-opacity="0.2"/>
<path fill-rule="evenodd" clip-rule="evenodd" d="M21.2787 8.08468C21.3454 8.13176 21.3613 8.22397 21.3142 8.29064L20.1331 9.96322C20.086 10.0299 19.9938 10.0458 19.9272 9.99869C19.8605 9.95162 19.8446 9.85941 19.8917 9.79274L21.0727 8.12016C21.1198 8.05349 21.212 8.03761 21.2787 8.08468Z" stroke="#FF9E0D" stroke-linecap="round"/>
<path fill-rule="evenodd" clip-rule="evenodd" d="M13.235 14.7989C13.2603 14.8765 13.2179 14.96 13.1403 14.9852L11.1892 15.6211C11.1116 15.6464 11.0281 15.604 11.0029 15.5264C10.9776 15.4488 11.02 15.3654 11.0976 15.3401L13.0487 14.7042C13.1263 14.6789 13.2097 14.7214 13.235 14.7989Z" fill="#FF9E0D"/>
<path fill-rule="evenodd" clip-rule="evenodd" d="M13.235 14.7989C13.2603 14.8765 13.2179 14.96 13.1403 14.9852L11.1892 15.6211C11.1116 15.6464 11.0281 15.604 11.0029 15.5264C10.9776 15.4488 11.02 15.3654 11.0976 15.3401L13.0487 14.7042C13.1263 14.6789 13.2097 14.7214 13.235 14.7989Z" fill="url(#paint2_linear_7921_147658)" fill-opacity="0.2"/>
<path fill-rule="evenodd" clip-rule="evenodd" d="M13.235 14.7989C13.2603 14.8765 13.2179 14.96 13.1403 14.9852L11.1892 15.6211C11.1116 15.6464 11.0281 15.604 11.0029 15.5264C10.9776 15.4488 11.02 15.3654 11.0976 15.3401L13.0487 14.7042C13.1263 14.6789 13.2097 14.7214 13.235 14.7989Z" stroke="#FF9E0D" stroke-linecap="round"/>
<path fill-rule="evenodd" clip-rule="evenodd" d="M23.4362 15.5284C23.4094 15.6055 23.3252 15.6463 23.2481 15.6195L21.4171 14.9837C21.34 14.9569 21.2992 14.8727 21.3259 14.7956C21.3527 14.7185 21.4369 14.6777 21.514 14.7045L23.345 15.3403C23.4221 15.3671 23.4629 15.4513 23.4362 15.5284Z" fill="#FF9E0D"/>
<path fill-rule="evenodd" clip-rule="evenodd" d="M23.4362 15.5284C23.4094 15.6055 23.3252 15.6463 23.2481 15.6195L21.4171 14.9837C21.34 14.9569 21.2992 14.8727 21.3259 14.7956C21.3527 14.7185 21.4369 14.6777 21.514 14.7045L23.345 15.3403C23.4221 15.3671 23.4629 15.4513 23.4362 15.5284Z" fill="url(#paint3_linear_7921_147658)" fill-opacity="0.2"/>
<path fill-rule="evenodd" clip-rule="evenodd" d="M23.4362 15.5284C23.4094 15.6055 23.3252 15.6463 23.2481 15.6195L21.4171 14.9837C21.34 14.9569 21.2992 14.8727 21.3259 14.7956C21.3527 14.7185 21.4369 14.6777 21.514 14.7045L23.345 15.3403C23.4221 15.3671 23.4629 15.4513 23.4362 15.5284Z" stroke="#FF9E0D" stroke-linecap="round"/>
<path fill-rule="evenodd" clip-rule="evenodd" d="M17.2614 17.7402C17.343 17.7402 17.4092 17.8064 17.4092 17.888L17.409 19.8647C17.4089 19.9463 17.3428 20.0124 17.2612 20.0124C17.1795 20.0124 17.1134 19.9462 17.1134 19.8646L17.1136 17.888C17.1136 17.8064 17.1798 17.7402 17.2614 17.7402Z" fill="#FF9E0D"/>
<path fill-rule="evenodd" clip-rule="evenodd" d="M17.2614 17.7402C17.343 17.7402 17.4092 17.8064 17.4092 17.888L17.409 19.8647C17.4089 19.9463 17.3428 20.0124 17.2612 20.0124C17.1795 20.0124 17.1134 19.9462 17.1134 19.8646L17.1136 17.888C17.1136 17.8064 17.1798 17.7402 17.2614 17.7402Z" fill="url(#paint4_linear_7921_147658)" fill-opacity="0.2"/>
<path fill-rule="evenodd" clip-rule="evenodd" d="M17.2614 17.7402C17.343 17.7402 17.4092 17.8064 17.4092 17.888L17.409 19.8647C17.4089 19.9463 17.3428 20.0124 17.2612 20.0124C17.1795 20.0124 17.1134 19.9462 17.1134 19.8646L17.1136 17.888C17.1136 17.8064 17.1798 17.7402 17.2614 17.7402Z" stroke="#FF9E0D" stroke-linecap="round"/>
<path d="M21.1003 31.1624C22.4605 30.1981 16.2053 17.7713 15.2729 13.2961C15.0218 12.0908 15.6468 11.1007 17.8709 11.4773C19.6852 11.7845 23.0253 19.3262 24.5959 23.9855C24.7033 23.1184 25.1764 22.3328 26.3805 21.9718C27.9043 21.5151 28.8367 21.8848 29.4053 22.5548C29.638 22.1117 30.126 21.7651 31.0152 21.6305C32.7417 21.3691 33.7324 21.8931 34.281 22.7813C34.6847 21.9289 36.005 22.1641 36.5746 22.5773C38.6112 24.0548 41.5917 33.0253 40.9999 36.5C40.4385 39.7964 40.0757 41.6299 35.4999 44.5C30.924 47.3701 24.8487 45.0802 22.9999 42.5C22.0872 41.2263 19.4525 37.3073 17.2765 35.1198C15.0445 32.876 12.1837 31.433 12.2786 30.8767C12.6057 28.9577 15.2525 28.4338 17.1005 29.4366C18.6857 30.2967 20.1526 31.8343 21.1003 31.1624Z" fill="#FFE0DA"/>
<path d="M25.5822 24.5137C26.0004 25.5511 26.958 28.5385 26.4998 28L25.2529 25.4897L24.6762 24.0612L24.6255 23.9353C24.6255 23.9353 25.3181 23.8584 25.5822 24.5137Z" fill="#D6B2AB"/>
<path d="M30 23C31.0581 23.9867 31.5001 27.0003 31.5001 27.0003L30.5353 24.9872L29.4189 22.5371C29.4189 22.5371 29.4833 22.5182 30 23Z" fill="#D6B2AB"/>
<path d="M34.864 23.394C35.3655 24.355 36.0001 26.5 36.0001 26.5L35.2116 25.1946L34.2854 22.8533C34.2854 22.8533 34.5472 22.7869 34.864 23.394Z" fill="#D6B2AB"/>
<defs>
<linearGradient id="paint0_linear_7921_147658" x1="13.9846" y1="9.07849" x2="13.9846" y2="9.07849" gradientUnits="userSpaceOnUse">
<stop stop-color="#FFD706"/>
<stop offset="1" stop-color="#FF7A00" stop-opacity="0"/>
</linearGradient>
<linearGradient id="paint1_linear_7921_147658" x1="20.6029" y1="9.04169" x2="20.6029" y2="9.04169" gradientUnits="userSpaceOnUse">
<stop stop-color="#FFD706"/>
<stop offset="1" stop-color="#FF7A00" stop-opacity="0"/>
</linearGradient>
<linearGradient id="paint2_linear_7921_147658" x1="12.1189" y1="15.1627" x2="12.1189" y2="15.1627" gradientUnits="userSpaceOnUse">
<stop stop-color="#FFD706"/>
<stop offset="1" stop-color="#FF7A00" stop-opacity="0"/>
</linearGradient>
<linearGradient id="paint3_linear_7921_147658" x1="22.3811" y1="15.162" x2="22.3811" y2="15.162" gradientUnits="userSpaceOnUse">
<stop stop-color="#FFD706"/>
<stop offset="1" stop-color="#FF7A00" stop-opacity="0"/>
</linearGradient>
<linearGradient id="paint4_linear_7921_147658" x1="17.2613" y1="18.8763" x2="17.2613" y2="18.8763" gradientUnits="userSpaceOnUse">
<stop stop-color="#FFD706"/>
<stop offset="1" stop-color="#FF7A00" stop-opacity="0"/>
</linearGradient>
</defs>
</svg>
