<svg width="24" height="24" viewBox="0 0 24 24" fill="none" xmlns="http://www.w3.org/2000/svg">
<path fill-rule="evenodd" clip-rule="evenodd" d="M5.30625 5.27344H19.1492L17.7649 18.1519H17.7625C17.7625 18.152 17.7625 18.1521 17.7625 18.1521C17.7625 19.6841 15.2835 20.926 12.2254 20.926C9.16725 20.926 6.68816 19.6841 6.68816 18.1521C6.68816 18.1451 6.68822 18.1381 6.68832 18.1311L5.30625 5.27344Z" fill="url(#paint0_linear_2850_11701)"/>
<path d="M5.71361 5.27383C5.71361 5.50865 5.83067 5.77346 6.13005 6.05712C6.43032 6.34162 6.88668 6.61665 7.48443 6.8562C8.67769 7.3344 10.3542 7.63933 12.2268 7.63933C14.0994 7.63933 15.7758 7.3344 16.9691 6.8562C17.5669 6.61665 18.0232 6.34162 18.3235 6.05712C18.6229 5.77346 18.7399 5.50865 18.7399 5.27383C18.7399 5.03901 18.6229 4.77419 18.3235 4.49054C18.0232 4.20604 17.5669 3.93101 16.9691 3.69146C15.7758 3.21326 14.0994 2.90833 12.2268 2.90833C10.3542 2.90833 8.67769 3.21326 7.48443 3.69146C6.88668 3.93101 6.43032 4.20604 6.13005 4.49054C5.83067 4.77419 5.71361 5.03901 5.71361 5.27383Z" fill="url(#paint1_linear_2850_11701)" stroke="#E4F6FF" stroke-width="0.816659"/>
<g clip-path="url(#clip0_2850_11701)">
<mask id="mask0_2850_11701" style="mask-type:alpha" maskUnits="userSpaceOnUse" x="3" y="10" width="20" height="20">
<path d="M7.43483 10.3054C6.32847 10.6221 5.72351 11.7478 5.72351 11.7478V29.723H22.2662V11.1099C22.2662 11.1099 21.3706 10.2516 19.8955 10.5617C18.4203 10.8718 17.5658 11.1863 16.1055 11.3969C14.6304 11.6096 12.6857 11.2135 11.4849 10.7075C10.2205 10.1747 8.80286 9.91377 7.43483 10.3054Z" fill="#ADE3FF"/>
<path opacity="0.5" d="M17.8384 10.3054C18.9447 10.6221 19.5497 11.7478 19.5497 11.7478V29.723H3.00695V11.1099C3.00695 11.1099 3.90258 10.2516 5.37773 10.5617C6.85288 10.8718 7.70738 11.1863 9.16769 11.3969C10.6428 11.6096 12.5875 11.2135 13.7882 10.7075C15.0527 10.1747 16.4703 9.91377 17.8384 10.3054Z" fill="#70CEFF"/>
</mask>
<g mask="url(#mask0_2850_11701)">
<path fill-rule="evenodd" clip-rule="evenodd" d="M18.3367 5.62776C18.3478 5.57591 18.3534 5.52353 18.3534 5.47071C18.3534 4.30465 15.6087 3.35938 12.2229 3.35938C8.83723 3.35938 6.09257 4.30462 6.09247 5.47064H6.0924L6.09247 5.47133C6.09252 5.52349 6.09805 5.5752 6.10889 5.62641L7.43191 18.1242L7.43177 18.1389C7.43177 19.1989 9.57607 20.0583 12.2212 20.0583C14.8663 20.0583 17.0106 19.1989 17.0106 18.1389V18.1386H17.0123L18.3367 5.62776Z" fill="url(#paint2_linear_2850_11701)"/>
<ellipse opacity="0.5" cx="14.4544" cy="17.5122" rx="0.526837" ry="0.527833" fill="white"/>
<ellipse opacity="0.7" cx="13.4484" cy="16.4129" rx="0.287365" ry="0.287909" fill="white"/>
<ellipse cx="15.1729" cy="13.7232" rx="0.191577" ry="0.191939" fill="white"/>
</g>
</g>
<defs>
<linearGradient id="paint0_linear_2850_11701" x1="12.2277" y1="5.27344" x2="12.2277" y2="20.9259" gradientUnits="userSpaceOnUse">
<stop stop-color="#F0FAFF"/>
<stop offset="0.0001" stop-color="#EFFAFF"/>
<stop offset="1" stop-color="#D9F0FC"/>
</linearGradient>
<linearGradient id="paint1_linear_2850_11701" x1="12.2268" y1="2.5" x2="12.2268" y2="8.04766" gradientUnits="userSpaceOnUse">
<stop stop-color="#E4F6FF"/>
<stop offset="1" stop-color="#F9FDFF"/>
</linearGradient>
<linearGradient id="paint2_linear_2850_11701" x1="12.2227" y1="8.5856" x2="12.2227" y2="20.1021" gradientUnits="userSpaceOnUse">
<stop stop-color="#82D4FF"/>
<stop offset="1" stop-color="#49C0FE"/>
</linearGradient>
<clipPath id="clip0_2850_11701">
<rect width="14.5" height="16.5136" fill="white" transform="matrix(-1 0 0 1 19.4999 4.91406)"/>
</clipPath>
</defs>
</svg>
