<svg width="24" height="24" viewBox="0 0 24 24" fill="none" xmlns="http://www.w3.org/2000/svg">
<path fill-rule="evenodd" clip-rule="evenodd" d="M16.7649 4.19137H12.9239C12.5108 4.19137 12.217 4.58306 12.3423 4.96683L13.0602 7.16658H16.7317L17.3538 4.94298C17.4597 4.56445 17.1674 4.19137 16.7649 4.19137ZM18.1304 8.9517L19.1205 5.41268C19.544 3.89856 18.3748 2.40625 16.7649 2.40625H12.9239C11.2714 2.40625 10.0962 3.97301 10.5973 5.50809L11.7212 8.9517H18.1304Z" fill="url(#paint0_linear_2850_15324)"/>
<path d="M20.8438 12.1086C20.8438 14.6295 18.7438 16.5902 14.8438 16.5902C10.9438 16.5902 8.84375 14.6295 8.84375 12.1086C8.84375 9.01475 11.2438 6.22656 14.8438 6.22656C18.4438 6.22656 20.8438 9.01475 20.8438 12.1086Z" fill="url(#paint1_linear_2850_15324)"/>
<path d="M16.4373 10.2137C16.4432 10.1617 16.4871 10.1225 16.5394 10.1225H16.9234C16.9801 10.1225 17.0261 10.1684 17.0261 10.2251V12.4409C17.0261 12.6596 16.9773 12.845 16.8798 12.9972C16.7837 13.1509 16.6493 13.2669 16.4764 13.3452C16.3035 13.425 16.1025 13.4649 15.8735 13.4649C15.773 13.4649 15.6666 13.4516 15.5543 13.425C15.4435 13.3984 15.3371 13.357 15.2352 13.3009C15.1589 13.2582 15.092 13.2071 15.0345 13.1475C15.0022 13.114 15.0019 13.0621 15.0298 13.0248L15.1874 12.8137C15.2267 12.7611 15.3045 12.7589 15.3544 12.8015C15.4055 12.8452 15.461 12.8816 15.5211 12.9108C15.6186 12.9595 15.7265 12.9839 15.8447 12.9839C15.9599 12.9839 16.0575 12.9625 16.1373 12.9196C16.2171 12.8782 16.2784 12.8169 16.3212 12.7357C16.3641 12.6559 16.3855 12.5591 16.3855 12.4453V10.6766L16.4373 10.2137ZM14.834 11.3504V11.3038C14.834 11.1206 14.8561 10.9544 14.9005 10.8051C14.9463 10.6544 15.0106 10.5251 15.0933 10.4172C15.1775 10.3094 15.2795 10.2259 15.3992 10.1668C15.5189 10.1077 15.6541 10.0781 15.8048 10.0781C15.9644 10.0781 16.0981 10.1077 16.206 10.1668C16.3138 10.2259 16.4025 10.3101 16.4719 10.4195C16.5414 10.5273 16.5953 10.6551 16.6337 10.8029C16.6736 10.9492 16.7047 11.1095 16.7268 11.2839V11.3858C16.7047 11.5528 16.6714 11.708 16.6271 11.8513C16.5828 11.9946 16.5244 12.1202 16.452 12.2281C16.3796 12.3345 16.2895 12.4172 16.1816 12.4763C16.0752 12.5354 15.9481 12.565 15.8004 12.565C15.6526 12.565 15.5189 12.5347 15.3992 12.4741C15.281 12.4135 15.1798 12.3286 15.0955 12.2192C15.0113 12.1099 14.9463 11.9813 14.9005 11.8336C14.8561 11.6858 14.834 11.5247 14.834 11.3504ZM15.4723 11.3038V11.3504C15.4723 11.4494 15.4819 11.5417 15.5011 11.6274C15.5203 11.7131 15.5499 11.7892 15.5898 11.8557C15.6312 11.9207 15.6821 11.9717 15.7427 12.0087C15.8048 12.0441 15.8779 12.0619 15.9622 12.0619C16.0789 12.0619 16.1742 12.0375 16.2481 11.9887C16.322 11.9385 16.3774 11.8698 16.4143 11.7826C16.4513 11.6954 16.4727 11.5949 16.4786 11.4811V11.1908C16.4756 11.0977 16.4631 11.0142 16.4409 10.9403C16.4188 10.865 16.3877 10.8007 16.3478 10.7475C16.3079 10.6943 16.2562 10.6529 16.1927 10.6234C16.1291 10.5938 16.0538 10.579 15.9666 10.579C15.8824 10.579 15.8092 10.5983 15.7472 10.6367C15.6866 10.6736 15.6356 10.7246 15.5942 10.7896C15.5543 10.8546 15.524 10.9315 15.5034 11.0201C15.4827 11.1073 15.4723 11.2019 15.4723 11.3038Z" fill="white"/>
<path d="M13.1968 9.11719C13.2535 9.11719 13.2995 9.16316 13.2995 9.21986V12.4212C13.2995 12.4779 13.2535 12.5239 13.1968 12.5239H12.7638C12.7071 12.5239 12.6611 12.4779 12.6611 12.4212V9.21986C12.6611 9.16316 12.7071 9.11719 12.7638 9.11719H13.1968ZM14.5845 10.1257C14.6728 10.1257 14.7199 10.2297 14.6617 10.296L13.7694 11.3137L13.3112 11.7773C13.2618 11.8273 13.1781 11.8141 13.1465 11.7514L13.0076 11.4763C12.9896 11.4406 12.9939 11.3978 13.0186 11.3665L13.4214 10.8549L14.0135 10.1617C14.033 10.1388 14.0615 10.1257 14.0915 10.1257H14.5845ZM14.2046 12.5239C14.1696 12.5239 14.137 12.506 14.1181 12.4766L13.4868 11.4901C13.4594 11.4473 13.4674 11.3909 13.5057 11.3575L13.7924 11.1067C13.839 11.066 13.9107 11.0754 13.9452 11.1267L14.7767 12.3639C14.8226 12.4321 14.7737 12.5239 14.6915 12.5239H14.2046Z" fill="white"/>
<rect x="2.5" y="17.2656" width="18" height="1.5" rx="0.75" fill="url(#paint2_linear_2850_15324)"/>
<rect x="5.5" y="14.2656" width="3" height="7.5" rx="0.814111" fill="url(#paint3_linear_2850_15324)"/>
<rect x="14.5" y="14.2656" width="3" height="7.5" rx="0.814111" fill="url(#paint4_linear_2850_15324)"/>
<path d="M3.5 16.5797C3.5 16.1301 3.86449 15.7656 4.31411 15.7656H5.5V20.2656H4.31411C3.86449 20.2656 3.5 19.9011 3.5 19.4515V16.5797Z" fill="url(#paint5_linear_2850_15324)"/>
<path d="M17.5 15.7656H18.6859C19.1355 15.7656 19.5 16.1301 19.5 16.5797V19.4515C19.5 19.9011 19.1355 20.2656 18.6859 20.2656H17.5V15.7656Z" fill="url(#paint6_linear_2850_15324)"/>
<defs>
<linearGradient id="paint0_linear_2850_15324" x1="14.8442" y1="2.40625" x2="14.8442" y2="8.9517" gradientUnits="userSpaceOnUse">
<stop stop-color="#99B3F8"/>
<stop offset="1" stop-color="#4878D5"/>
</linearGradient>
<linearGradient id="paint1_linear_2850_15324" x1="11.8438" y1="6.49929" x2="18.1165" y2="16.5902" gradientUnits="userSpaceOnUse">
<stop stop-color="#A2C1FF"/>
<stop offset="1" stop-color="#4D76DD"/>
</linearGradient>
<linearGradient id="paint2_linear_2850_15324" x1="11.5" y1="17.2656" x2="11.5" y2="18.7656" gradientUnits="userSpaceOnUse">
<stop stop-color="#E9E8EF"/>
<stop offset="1" stop-color="#D6D5DA"/>
</linearGradient>
<linearGradient id="paint3_linear_2850_15324" x1="7" y1="14.2656" x2="7" y2="21.7656" gradientUnits="userSpaceOnUse">
<stop stop-color="#9C9C9C"/>
<stop offset="1" stop-color="#575757"/>
</linearGradient>
<linearGradient id="paint4_linear_2850_15324" x1="16" y1="14.2656" x2="16" y2="21.7656" gradientUnits="userSpaceOnUse">
<stop stop-color="#9C9C9C"/>
<stop offset="1" stop-color="#575757"/>
</linearGradient>
<linearGradient id="paint5_linear_2850_15324" x1="4.5" y1="15.7656" x2="4.5" y2="20.2656" gradientUnits="userSpaceOnUse">
<stop stop-color="#727272"/>
<stop offset="1" stop-color="#444444"/>
</linearGradient>
<linearGradient id="paint6_linear_2850_15324" x1="18.5" y1="15.7656" x2="18.5" y2="20.2656" gradientUnits="userSpaceOnUse">
<stop stop-color="#727272"/>
<stop offset="1" stop-color="#444444"/>
</linearGradient>
</defs>
</svg>
