<svg width="32" height="33" viewBox="0 0 32 33" fill="none" xmlns="http://www.w3.org/2000/svg">
<circle cx="16" cy="16.2031" r="16" fill="#3F86F1"/>
<circle cx="16" cy="16.2031" r="9" fill="white" stroke="#3F86F1" stroke-width="1.4"/>
<path d="M13 15.6577L16.12 13.2031L19 15.6577L18.04 19.2031H14.2L13 15.6577Z" fill="white" stroke="#3F86F1" stroke-width="1.4" stroke-linecap="round"/>
<path d="M16 13.7031V9.70312L13 7.70312" stroke="#3F86F1" stroke-width="1.4"/>
<path d="M19.5 7.70312L16 9.70312" stroke="#3F86F1" stroke-width="1.4"/>
<path d="M11.1716 22.0316L14 19.2031M11.1716 22.0316L8.5 21.2031M11.1716 22.0316L13 24.7031" stroke="#3F86F1" stroke-width="1.4"/>
<path d="M20.8284 22.0316L18 19.2031M20.8284 22.0316L19.5 24.7031M20.8284 22.0316L23.5 21.2031" stroke="#3F86F1" stroke-width="1.4"/>
<path d="M12.8637 15.6388L9 14.6035L7 15.7031" stroke="#3F86F1" stroke-width="1.4"/>
<path d="M8.5 11.2031L9 14.7031" stroke="#3F86F1" stroke-width="1.4"/>
<path d="M19 15.6387L22.8637 14.6034M22.8637 14.6034L25 15.6387M22.8637 14.6034L23.5 11.2031" stroke="#3F86F1" stroke-width="1.4"/>
</svg>
