<svg width="60" height="60" viewBox="0 0 60 60" fill="none" xmlns="http://www.w3.org/2000/svg">
<path d="M12.8594 41.4414H47.1451V42.3937C47.1451 46.6016 43.7339 50.0127 39.5261 50.0127H20.4784C16.2705 50.0127 12.8594 46.6016 12.8594 42.3937V41.4414Z" fill="url(#paint0_linear_4007_13759)"/>
<rect x="10" y="35.7266" width="40" height="5.71422" rx="2.85711" fill="#634242"/>
<rect x="10" y="25.25" width="40" height="5.71422" rx="2.85711" fill="url(#paint1_linear_4007_13759)"/>
<path d="M47.1432 25.25H12.8575C10.5718 24.8691 10.4766 23.8215 10.4766 22.8691C10.4766 19.0596 17.3337 10.4883 29.5242 10.4883C44.7623 10.4883 49.5242 20.4882 49.5242 22.8691C49.5242 24.7738 47.9369 25.25 47.1432 25.25Z" fill="url(#paint2_linear_4007_13759)"/>
<path fill-rule="evenodd" clip-rule="evenodd" d="M47.1373 32.8672H12.8516V36.6767L12.8516 36.6767C12.8516 36.6767 13.2685 38.1052 14.2829 38.1052C14.7915 38.1052 15.0843 37.7462 15.3763 37.3881C15.6473 37.0558 15.9177 36.7243 16.3591 36.6814C17.3615 36.7311 17.963 37.1801 18.5645 37.6292C19.2023 38.1054 19.8401 38.5815 20.956 38.5815C22.0748 38.5815 22.719 38.1028 23.3614 37.6254C23.9964 37.1535 24.6296 36.6829 25.7178 36.6769C26.8204 36.6829 27.4542 37.156 28.0879 37.6292C28.7257 38.1054 29.3636 38.5815 30.4794 38.5815C31.5982 38.5815 32.2424 38.1028 32.8848 37.6254C33.4215 37.2266 33.957 36.8286 34.7669 36.7113C35.5864 36.829 36.1223 37.2291 36.6582 37.6292C37.296 38.1054 37.9339 38.5815 39.0497 38.5815C40.1685 38.5815 40.8127 38.1028 41.4552 37.6254C42.0646 37.1725 42.6725 36.7207 43.6826 36.6798C44.1364 36.7142 44.411 37.0509 44.6862 37.3883C44.9782 37.7464 45.271 38.1055 45.7796 38.1055C46.794 38.1055 47.2109 36.6769 47.2109 36.6769H43.8036L43.8327 36.6768H35.2624H34.2667H25.739H25.6964H16.4401L16.457 36.6767L16.457 36.6767L47.1373 36.6767V32.8672Z" fill="#718B47"/>
<rect x="12.8594" y="30.9648" width="34.2857" height="1.90474" fill="#EFE196"/>
<path fill-rule="evenodd" clip-rule="evenodd" d="M19.5219 30.9609H12.8516V32.8657H17.6172C17.6172 32.8657 17.6172 32.8657 17.6172 32.8657V41.437C17.6172 42.489 18.47 43.3417 19.5219 43.3417C20.5739 43.3417 21.4267 42.489 21.4267 41.437V32.8657C21.4267 32.8657 21.4267 32.8657 21.4267 32.8657H47.1373V30.9609H19.5219Z" fill="#EFE196"/>
<path d="M30 14.7734V15.7258" stroke="#409A95" stroke-width="0.952375" stroke-linecap="round"/>
<path d="M24.7656 14.7734L24.2894 15.7258" stroke="#409A95" stroke-width="0.952375" stroke-linecap="round"/>
<path d="M35.4766 15.7266L35.0004 14.7742" stroke="#409A95" stroke-width="0.952375" stroke-linecap="round"/>
<defs>
<linearGradient id="paint0_linear_4007_13759" x1="30.0022" y1="41.4414" x2="30.0022" y2="50.0127" gradientUnits="userSpaceOnUse">
<stop stop-color="#6E9D9A"/>
<stop offset="1" stop-color="#648583"/>
</linearGradient>
<linearGradient id="paint1_linear_4007_13759" x1="30" y1="25.25" x2="30" y2="30.9642" gradientUnits="userSpaceOnUse">
<stop stop-color="#9DD1E1"/>
<stop offset="1" stop-color="#81BFD3"/>
</linearGradient>
<linearGradient id="paint2_linear_4007_13759" x1="30.0004" y1="10.4883" x2="30.0004" y2="25.25" gradientUnits="userSpaceOnUse">
<stop stop-color="#8FC2BF"/>
<stop offset="1" stop-color="#6BA5A2"/>
</linearGradient>
</defs>
</svg>
