<svg width="48" height="48" viewBox="0 0 48 48" fill="none" xmlns="http://www.w3.org/2000/svg">
<g clip-path="url(#clip0_3286_46276)">
<g filter="url(#filter0_d_3286_46276)">
<mask id="mask0_3286_46276" style="mask-type:alpha" maskUnits="userSpaceOnUse" x="17" y="11" width="14" height="30">
<path d="M17 11.1067L17 40.8086L24.0728 37.9672L31 40.8086L31 11.1067L24 12.9631L17 11.1067Z" fill="url(#paint0_linear_3286_46276)"/>
</mask>
<g mask="url(#mask0_3286_46276)">
<path d="M17 11.1067L17 40.8086L24 38.9522L31 40.8086L31 11.1067L24 12.9631L17 11.1067Z" fill="url(#paint1_linear_3286_46276)"/>
<path d="M19.0762 42.75L19.0762 9.62064" stroke="white"/>
<path d="M28.7793 42.75L28.7793 9.62064" stroke="white"/>
</g>
<path d="M21.7945 2.97997C22.8907 1.4982 25.1073 1.4982 26.2035 2.97997V2.97997C26.963 4.00663 28.3307 4.37309 29.5017 3.86373V3.86373C31.1919 3.12856 33.1116 4.23689 33.32 6.06822V6.06822C33.4645 7.33708 34.4657 8.33828 35.7345 8.48269V8.48269C37.5658 8.69112 38.6742 10.6108 37.939 12.301V12.301C37.4296 13.4721 37.7961 14.8397 38.8228 15.5992V15.5992C40.3045 16.6954 40.3045 18.912 38.8228 20.0082V20.0082C37.7961 20.7677 37.4296 22.1354 37.939 23.3064V23.3064C38.6742 24.9966 37.5658 26.9163 35.7345 27.1247V27.1247C34.4657 27.2691 33.4645 28.2703 33.32 29.5392V29.5392C33.1116 31.3705 31.1919 32.4789 29.5017 31.7437V31.7437C28.3307 31.2343 26.963 31.6008 26.2035 32.6275V32.6275C25.1073 34.1092 22.8907 34.1092 21.7945 32.6275V32.6275C21.035 31.6008 19.6674 31.2343 18.4963 31.7437V31.7437C16.8061 32.4789 14.8864 31.3705 14.678 29.5392V29.5392C14.5336 28.2703 13.5324 27.2691 12.2635 27.1247V27.1247C10.4322 26.9163 9.32387 24.9966 10.059 23.3064V23.3064C10.5684 22.1354 10.2019 20.7677 9.17528 20.0082V20.0082C7.69351 18.912 7.69351 16.6954 9.17528 15.5992V15.5992C10.2019 14.8397 10.5684 13.4721 10.059 12.301V12.301C9.32387 10.6108 10.4322 8.69112 12.2635 8.48269V8.48269C13.5324 8.33828 14.5336 7.33708 14.678 6.06822V6.06822C14.8864 4.23689 16.8061 3.12856 18.4963 3.86373V3.86373C19.6674 4.37309 21.035 4.00663 21.7945 2.97997V2.97997Z" fill="url(#paint2_linear_3286_46276)"/>
<path d="M23.9985 30.165C30.8258 30.165 36.3603 24.6304 36.3603 17.8032C36.3603 10.976 30.8258 5.44141 23.9985 5.44141C17.1713 5.44141 11.6367 10.976 11.6367 17.8032C11.6367 24.6304 17.1713 30.165 23.9985 30.165Z" fill="url(#paint3_linear_3286_46276)"/>
<path d="M23.9991 6.709C30.1266 6.709 35.0939 11.6763 35.0939 17.8037C35.0939 23.9312 30.1266 28.8984 23.9991 28.8984C17.8717 28.8984 12.9044 23.9312 12.9044 17.8037C12.9044 11.6763 17.8717 6.709 23.9991 6.709Z" fill="url(#paint4_linear_3286_46276)"/>
<path d="M33.1 17.8047C33.1 12.7789 29.0258 8.70469 24 8.70469C18.9742 8.70469 14.9 12.7789 14.9 17.8047C14.9 22.8305 18.9742 26.9047 24 26.9047C29.0258 26.9047 33.1 22.8305 33.1 17.8047Z" fill="url(#paint5_linear_3286_46276)" stroke="white" stroke-width="0.8"/>
<path d="M19.5625 16.406L24.2965 21.0278L36.316 9.05469" stroke="white" stroke-width="3" stroke-linecap="round" stroke-linejoin="round"/>
</g>
</g>
<defs>
<filter id="filter0_d_3286_46276" x="0.0639648" y="-2.13281" width="47.8701" height="54.9414" filterUnits="userSpaceOnUse" color-interpolation-filters="sRGB">
<feFlood flood-opacity="0" result="BackgroundImageFix"/>
<feColorMatrix in="SourceAlpha" type="matrix" values="0 0 0 0 0 0 0 0 0 0 0 0 0 0 0 0 0 0 127 0" result="hardAlpha"/>
<feOffset dy="4"/>
<feGaussianBlur stdDeviation="4"/>
<feComposite in2="hardAlpha" operator="out"/>
<feColorMatrix type="matrix" values="0 0 0 0 0 0 0 0 0 0 0 0 0 0 0 0 0 0 0.2 0"/>
<feBlend mode="normal" in2="BackgroundImageFix" result="effect1_dropShadow_3286_46276"/>
<feBlend mode="normal" in="SourceGraphic" in2="effect1_dropShadow_3286_46276" result="shape"/>
</filter>
<linearGradient id="paint0_linear_3286_46276" x1="31" y1="25.9577" x2="17" y2="25.9577" gradientUnits="userSpaceOnUse">
<stop stop-color="#4085EF"/>
<stop offset="1" stop-color="#4B6CC0"/>
</linearGradient>
<linearGradient id="paint1_linear_3286_46276" x1="31" y1="25.9577" x2="17" y2="25.9577" gradientUnits="userSpaceOnUse">
<stop stop-color="#4085EF"/>
<stop offset="1" stop-color="#4B6CC0"/>
</linearGradient>
<linearGradient id="paint2_linear_3286_46276" x1="23.999" y1="0" x2="23.999" y2="35.6074" gradientUnits="userSpaceOnUse">
<stop stop-color="#FFE141"/>
<stop offset="1" stop-color="#FEC600"/>
</linearGradient>
<linearGradient id="paint3_linear_3286_46276" x1="13.0103" y1="10.9355" x2="34.9868" y2="24.3275" gradientUnits="userSpaceOnUse">
<stop stop-color="#F7A500"/>
<stop offset="1" stop-color="#F4BB47"/>
</linearGradient>
<linearGradient id="paint4_linear_3286_46276" x1="14.1372" y1="23.9675" x2="33.8611" y2="11.9482" gradientUnits="userSpaceOnUse">
<stop stop-color="#F7A500"/>
<stop offset="1" stop-color="#FFC95B"/>
</linearGradient>
<linearGradient id="paint5_linear_3286_46276" x1="15.5556" y1="23.0825" x2="32.4444" y2="12.7908" gradientUnits="userSpaceOnUse">
<stop stop-color="#F7A500"/>
<stop offset="1" stop-color="#FFC95B"/>
</linearGradient>
<clipPath id="clip0_3286_46276">
<rect width="48" height="48" fill="white"/>
</clipPath>
</defs>
</svg>
