<svg width="33" height="33" viewBox="0 0 33 33" fill="none" xmlns="http://www.w3.org/2000/svg">
<g filter="url(#filter0_f_1758_127666)">
<ellipse cx="15.9008" cy="25.6821" rx="9.56098" ry="1.65867" fill="#F2F2F2"/>
</g>
<g filter="url(#filter1_i_1758_127666)">
<path d="M18.0192 5.70515C18.0794 5.56224 18.0892 5.42949 18.0395 5.31638C17.8445 4.87236 16.8066 4.89894 15.7213 5.37574C15.5906 5.43315 15.4652 5.49446 15.346 5.55869C15.3675 5.48319 15.3674 5.41166 15.3429 5.34673C15.21 4.99373 14.4078 4.9691 13.5511 5.29172C13.1539 5.44134 12.8146 5.63936 12.5783 5.84392C11.3968 5.93282 10.4685 6.39663 10.5048 6.8801C10.5081 6.92439 10.5194 6.96732 10.5381 7.00868C10.5019 7.02114 10.4656 7.03424 10.4292 7.04796C10.2813 7.10364 10.1415 7.16604 10.012 7.23298C9.90874 7.06754 9.78185 6.9665 9.63725 6.95052C9.30383 6.91367 8.96358 7.33873 8.74239 7.99431C8.66104 7.83838 8.55512 7.74111 8.43049 7.72456C8.05863 7.67516 7.66015 8.36278 7.53726 9.26305C7.37288 9.0233 7.18763 8.89217 7.01462 8.92218C6.7231 8.97275 6.55291 9.46578 6.56861 10.1114C6.32026 10.0539 6.11665 10.079 5.99203 10.2015C5.70952 10.4793 5.92021 11.1713 6.45978 11.8763C5.80891 12.0333 5.37125 12.3238 5.37443 12.6521C5.37624 12.8392 5.52096 13.0113 5.76613 13.1514C5.71997 13.2454 5.69622 13.3647 5.69381 13.5032C5.39127 13.3152 5.11866 13.2592 4.93508 13.3767C4.52664 13.6381 4.71355 14.6595 5.35257 15.658C5.99158 16.6565 6.84071 17.254 7.24915 16.9925C7.2634 16.9834 7.27692 16.9734 7.28973 16.9624L7.41471 17.0988L26.5367 16.4158L26.0642 13.9746C26.3165 14.0144 26.5181 13.9747 26.6337 13.8434C26.9542 13.4794 26.4929 12.5492 25.6032 11.7658C25.5864 11.751 25.5696 11.7363 25.5527 11.7218C25.991 11.5881 26.2739 11.3742 26.2897 11.1181C26.3131 10.7414 25.7521 10.3842 24.9446 10.2098C24.9793 10.1771 25.0071 10.1398 25.0273 10.098C25.2383 9.66131 24.5441 8.88919 23.4768 8.3734C23.3338 8.30429 23.1914 8.24329 23.0514 8.19051C22.8459 7.3193 22.4395 6.71224 22.0436 6.75651C21.863 6.7767 21.7102 6.92959 21.5967 7.17489C21.2602 6.30611 20.749 5.73524 20.3539 5.84245C20.2569 5.86877 20.1745 5.93391 20.1076 6.03082C19.5624 5.33244 18.9472 4.95506 18.6076 5.158C18.4287 5.26493 18.3554 5.51558 18.3783 5.84746C18.2556 5.75539 18.1338 5.70523 18.0192 5.70515Z" fill="#FAF0DE"/>
<path d="M18.0192 5.70515C18.0794 5.56224 18.0892 5.42949 18.0395 5.31638C17.8445 4.87236 16.8066 4.89894 15.7213 5.37574C15.5906 5.43315 15.4652 5.49446 15.346 5.55869C15.3675 5.48319 15.3674 5.41166 15.3429 5.34673C15.21 4.99373 14.4078 4.9691 13.5511 5.29172C13.1539 5.44134 12.8146 5.63936 12.5783 5.84392C11.3968 5.93282 10.4685 6.39663 10.5048 6.8801C10.5081 6.92439 10.5194 6.96732 10.5381 7.00868C10.5019 7.02114 10.4656 7.03424 10.4292 7.04796C10.2813 7.10364 10.1415 7.16604 10.012 7.23298C9.90874 7.06754 9.78185 6.9665 9.63725 6.95052C9.30383 6.91367 8.96358 7.33873 8.74239 7.99431C8.66104 7.83838 8.55512 7.74111 8.43049 7.72456C8.05863 7.67516 7.66015 8.36278 7.53726 9.26305C7.37288 9.0233 7.18763 8.89217 7.01462 8.92218C6.7231 8.97275 6.55291 9.46578 6.56861 10.1114C6.32026 10.0539 6.11665 10.079 5.99203 10.2015C5.70952 10.4793 5.92021 11.1713 6.45978 11.8763C5.80891 12.0333 5.37125 12.3238 5.37443 12.6521C5.37624 12.8392 5.52096 13.0113 5.76613 13.1514C5.71997 13.2454 5.69622 13.3647 5.69381 13.5032C5.39127 13.3152 5.11866 13.2592 4.93508 13.3767C4.52664 13.6381 4.71355 14.6595 5.35257 15.658C5.99158 16.6565 6.84071 17.254 7.24915 16.9925C7.2634 16.9834 7.27692 16.9734 7.28973 16.9624L7.41471 17.0988L26.5367 16.4158L26.0642 13.9746C26.3165 14.0144 26.5181 13.9747 26.6337 13.8434C26.9542 13.4794 26.4929 12.5492 25.6032 11.7658C25.5864 11.751 25.5696 11.7363 25.5527 11.7218C25.991 11.5881 26.2739 11.3742 26.2897 11.1181C26.3131 10.7414 25.7521 10.3842 24.9446 10.2098C24.9793 10.1771 25.0071 10.1398 25.0273 10.098C25.2383 9.66131 24.5441 8.88919 23.4768 8.3734C23.3338 8.30429 23.1914 8.24329 23.0514 8.19051C22.8459 7.3193 22.4395 6.71224 22.0436 6.75651C21.863 6.7767 21.7102 6.92959 21.5967 7.17489C21.2602 6.30611 20.749 5.73524 20.3539 5.84245C20.2569 5.86877 20.1745 5.93391 20.1076 6.03082C19.5624 5.33244 18.9472 4.95506 18.6076 5.158C18.4287 5.26493 18.3554 5.51558 18.3783 5.84746C18.2556 5.75539 18.1338 5.70523 18.0192 5.70515Z" fill="url(#paint0_radial_1758_127666)" fill-opacity="0.2"/>
</g>
<path d="M4 14.6555C4 14.2244 4.34945 13.875 4.78052 13.875H27.2195C27.6506 13.875 28 14.2245 28 14.6555V15.6316C28 20.8044 23.8066 24.9978 18.6338 24.9978H13.3662C8.1934 24.9978 4 20.8044 4 15.6316V14.6555Z" fill="url(#paint1_linear_1758_127666)"/>
<path d="M11.4141 24.8047H20.5848V25.195C20.5848 25.8416 20.0606 26.3658 19.414 26.3658H12.5848C11.9382 26.3658 11.4141 25.8416 11.4141 25.195V24.8047Z" fill="#E0592B"/>
<ellipse cx="0.885443" cy="0.901729" rx="0.885443" ry="0.901729" transform="matrix(0.757984 0.652273 -0.652214 0.758035 10.0508 10.75)" fill="url(#paint2_linear_1758_127666)"/>
<ellipse cx="0.885413" cy="0.901759" rx="0.885413" ry="0.901759" transform="matrix(0.999712 0.0240104 -0.0240066 0.999712 13.6016 10.5625)" fill="url(#paint3_linear_1758_127666)"/>
<ellipse cx="0.885413" cy="0.901759" rx="0.885413" ry="0.901759" transform="matrix(0.999712 0.0240104 -0.0240066 0.999712 12.4297 7.04688)" fill="url(#paint4_linear_1758_127666)"/>
<ellipse cx="0.885445" cy="0.901727" rx="0.885445" ry="0.901727" transform="matrix(0.738812 0.673912 -0.673854 0.738865 18.6797 7.24219)" fill="url(#paint5_linear_1758_127666)"/>
<ellipse cx="0.88546" cy="0.901711" rx="0.88546" ry="0.901711" transform="matrix(0.563328 -0.826234 0.826192 0.563388 20.4062 11.8438)" fill="url(#paint6_linear_1758_127666)"/>
<defs>
<filter id="filter0_f_1758_127666" x="1.65673" y="19.3403" width="28.4873" height="12.6826" filterUnits="userSpaceOnUse" color-interpolation-filters="sRGB">
<feFlood flood-opacity="0" result="BackgroundImageFix"/>
<feBlend mode="normal" in="SourceGraphic" in2="BackgroundImageFix" result="shape"/>
<feGaussianBlur stdDeviation="2.34156" result="effect1_foregroundBlur_1758_127666"/>
</filter>
<filter id="filter1_i_1758_127666" x="4.71875" y="5" width="22.0156" height="12.0996" filterUnits="userSpaceOnUse" color-interpolation-filters="sRGB">
<feFlood flood-opacity="0" result="BackgroundImageFix"/>
<feBlend mode="normal" in="SourceGraphic" in2="BackgroundImageFix" result="shape"/>
<feColorMatrix in="SourceAlpha" type="matrix" values="0 0 0 0 0 0 0 0 0 0 0 0 0 0 0 0 0 0 127 0" result="hardAlpha"/>
<feOffset/>
<feGaussianBlur stdDeviation="0.19513"/>
<feComposite in2="hardAlpha" operator="arithmetic" k2="-1" k3="1"/>
<feColorMatrix type="matrix" values="0 0 0 0 0.895833 0 0 0 0 0.747861 0 0 0 0 0.48151 0 0 0 0.35 0"/>
<feBlend mode="normal" in2="shape" result="effect1_innerShadow_1758_127666"/>
</filter>
<radialGradient id="paint0_radial_1758_127666" cx="0" cy="0" r="1" gradientUnits="userSpaceOnUse" gradientTransform="translate(12 9.39097) rotate(64.1937) scale(8.56165 15.5806)">
<stop stop-color="white"/>
<stop offset="1" stop-color="#F7F7F7"/>
</radialGradient>
<linearGradient id="paint1_linear_1758_127666" x1="16" y1="13.875" x2="16" y2="24.9978" gradientUnits="userSpaceOnUse">
<stop stop-color="#FF824D"/>
<stop offset="1" stop-color="#F46436"/>
</linearGradient>
<linearGradient id="paint2_linear_1758_127666" x1="0.885443" y1="0" x2="0.885443" y2="1.80346" gradientUnits="userSpaceOnUse">
<stop stop-color="#9DC236"/>
<stop offset="1" stop-color="#BFD77D"/>
</linearGradient>
<linearGradient id="paint3_linear_1758_127666" x1="0.885413" y1="0" x2="0.885413" y2="1.80352" gradientUnits="userSpaceOnUse">
<stop stop-color="#9DC236"/>
<stop offset="1" stop-color="#BFD77D"/>
</linearGradient>
<linearGradient id="paint4_linear_1758_127666" x1="0.885413" y1="0" x2="0.885413" y2="1.80352" gradientUnits="userSpaceOnUse">
<stop stop-color="#9DC236"/>
<stop offset="1" stop-color="#BFD77D"/>
</linearGradient>
<linearGradient id="paint5_linear_1758_127666" x1="0.885445" y1="0" x2="0.885445" y2="1.80345" gradientUnits="userSpaceOnUse">
<stop stop-color="#9DC236"/>
<stop offset="1" stop-color="#BFD77D"/>
</linearGradient>
<linearGradient id="paint6_linear_1758_127666" x1="0.88546" y1="0" x2="0.88546" y2="1.80342" gradientUnits="userSpaceOnUse">
<stop stop-color="#9DC236"/>
<stop offset="1" stop-color="#BFD77D"/>
</linearGradient>
</defs>
</svg>
