<svg width="32" height="32" viewBox="0 0 32 32" fill="none" xmlns="http://www.w3.org/2000/svg">
<rect width="32" height="32" rx="16" fill="white"/>
<rect x="8.5" y="19" width="3.99969" height="5.99978" rx="0.499972" fill="#FFD633"/>
<rect x="14" y="16" width="3.99969" height="8.99968" rx="0.499972" fill="#FFC633"/>
<rect x="19.5" y="12" width="3.99969" height="12.9995" rx="0.499972" fill="#FF862F"/>
<path fill-rule="evenodd" clip-rule="evenodd" d="M21.0248 7.34201C21.1121 7.08005 21.3953 6.93847 21.6572 7.02579L23.1571 7.52578C23.419 7.6131 23.5606 7.89625 23.4733 8.15821L22.9733 9.65815C22.886 9.92012 22.6029 10.0617 22.3409 9.97437C22.079 9.88705 21.9374 9.6039 22.0247 9.34194L22.1053 9.10029L17.2514 11.9318C17.0938 12.0238 16.8986 12.0226 16.7422 11.9287L14.4878 10.576L9.23946 13.4389C8.99706 13.5711 8.69336 13.4818 8.56114 13.2393C8.42892 12.9969 8.51824 12.6932 8.76065 12.561L14.2602 9.5611C14.4159 9.4762 14.6048 9.48008 14.7569 9.5713L17.003 10.9191L21.7926 8.125L21.341 7.97444C21.079 7.88712 20.9375 7.60397 21.0248 7.34201Z" fill="#EB5147"/>
</svg>
