<svg width="52" height="48" viewBox="0 0 52 48" fill="none" xmlns="http://www.w3.org/2000/svg">
<g id="&#235;&#139;&#185;&#234;&#181;&#172;">
<circle id="Ellipse 5444" cx="25.9987" cy="5.65885" r="4.66667" fill="white" stroke="#3F86F1" stroke-width="2"/>
<g id="Group 1321316812">
<path id="Rectangle 34624910" d="M3.98523 11.1913C2.68899 10.0434 2.54296 8.07182 3.65593 6.74544C4.7689 5.41905 6.73584 5.22052 8.09142 6.29773L47.688 37.7632C49.6898 39.354 49.9854 42.2826 48.3419 44.2414C46.6983 46.2001 43.7628 46.4176 41.8485 44.7224L3.98523 11.1913Z" fill="white" stroke="#3F86F1" stroke-width="2"/>
<path id="Vector 2738" d="M40.1712 31.2917L34.1719 38.4414" stroke="#3F86F1" stroke-width="2"/>
</g>
<g id="Group 1321316814">
<path id="Rectangle 34624910_2" d="M48.0148 11.1913C49.311 10.0434 49.457 8.07182 48.3441 6.74544C47.2311 5.41905 45.2642 5.22052 43.9086 6.29773L4.31203 37.7632C2.31017 39.354 2.01457 42.2826 3.65815 44.2414C5.30173 46.2001 8.23723 46.4176 10.1515 44.7224L48.0148 11.1913Z" fill="white" stroke="#3F86F1" stroke-width="2"/>
<path id="Vector 2738_2" d="M11.8288 31.2917L17.8281 38.4414" stroke="#3F86F1" stroke-width="2"/>
</g>
</g>
</svg>
