<svg width="61" height="60" viewBox="0 0 61 60" fill="none" xmlns="http://www.w3.org/2000/svg">
<circle cx="31" cy="29.5" r="18.5" fill="url(#paint0_linear_1758_129145)"/>
<circle cx="30.9982" cy="29.4982" r="12.6857" fill="white"/>
<circle cx="30.9991" cy="29.4991" r="6.34286" fill="url(#paint1_linear_1758_129145)"/>
<rect x="42.3594" y="15.7891" width="3" height="18.8333" rx="1.5" transform="rotate(45 42.3594 15.7891)" fill="#3B4A65"/>
<path d="M43.4675 18.0325C43.5788 17.9212 43.736 17.8688 43.8918 17.8911L47.6041 18.4214C48.012 18.4796 48.1783 18.9786 47.8869 19.2699L43.114 24.0429C43.0027 24.1542 42.8455 24.2066 42.6897 24.1843L38.9774 23.654C38.5695 23.5957 38.4032 23.0968 38.6946 22.8054L43.4675 18.0325Z" fill="#FFCC00"/>
<path d="M40.9882 12.3712C41.2795 12.0798 41.7785 12.2461 41.8367 12.654L42.3671 16.3663C42.3893 16.5221 42.3369 16.6793 42.2256 16.7906L37.4527 21.5636C37.1613 21.8549 36.6624 21.6886 36.6041 21.2807L36.0738 17.5684C36.0516 17.4126 36.104 17.2554 36.2152 17.1441L40.9882 12.3712Z" fill="#FFCC00"/>
<defs>
<linearGradient id="paint0_linear_1758_129145" x1="20.5" y1="12.5" x2="42.5" y2="48" gradientUnits="userSpaceOnUse">
<stop stop-color="#FFBBBF"/>
<stop offset="1" stop-color="#F77078"/>
</linearGradient>
<linearGradient id="paint1_linear_1758_129145" x1="26.999" y1="23" x2="35.499" y2="34.5" gradientUnits="userSpaceOnUse">
<stop stop-color="#FF8B8B"/>
<stop offset="1" stop-color="#F46161"/>
</linearGradient>
</defs>
</svg>
