<svg width="60" height="60" viewBox="0 0 60 60" fill="none" xmlns="http://www.w3.org/2000/svg">
<circle cx="28" cy="32" r="28" fill="#F8F8F8"/>
<path d="M21.0134 23.088C23.3337 23.2164 24.9397 21.2776 25.5313 20.0676C25.8273 19.556 26.5927 19.8545 26.782 20.0676L29.6231 23.1809C29.6965 23.2614 29.7563 23.3529 29.8148 23.4448C30.1963 24.0436 31.0589 24.7129 30.0465 26.1798L21.2395 35.9834C21.1971 36.0306 21.151 36.0744 21.1006 36.113C19.8556 37.0667 18.1453 37.4423 16.6013 36.0543C14.6229 34.2759 18.2721 30.2467 19.1882 28.3373C19.2516 28.2052 19.2777 28.0602 19.2777 27.9136L19.2777 24.4325C19.2777 23.5924 20.1746 23.0415 21.0134 23.088Z" fill="#DDDDDD"/>
<path d="M19.7269 21.554C22.3461 22.1263 24.1634 19.9806 24.7959 18.6866C25.0856 18.1859 25.5285 18.478 25.7138 18.6866L28.3156 21.59C28.7375 22.0608 28.5336 22.8435 28.7272 23.4453C28.756 23.5349 28.7943 23.6298 28.8375 23.7333C28.9968 24.1144 28.9068 24.5449 28.6278 24.8494L20.5125 33.709C19.2887 34.9609 17.7409 35.7878 16.5351 35.2739C12.8636 33.709 13.9854 30.788 14.6993 29.0145L18.1727 22.182C18.4534 21.6297 19.1217 21.4217 19.7269 21.554Z" fill="#CCCCCC"/>
<mask id="mask0_4951_95251" style="mask-type:alpha" maskUnits="userSpaceOnUse" x="25" y="20" width="6" height="8">
<path d="M26.2905 27.5116C24.7423 25.0027 25.4198 22.4115 26.3079 20.8047C26.6288 20.2241 27.4066 20.1805 27.862 20.663C32.5301 25.6088 29.7802 27.5162 27.2759 27.9549C26.8876 28.0229 26.4975 27.8471 26.2905 27.5116Z" fill="#D9D9D9"/>
</mask>
<g mask="url(#mask0_4951_95251)">
<path d="M18.9553 20.8811C21.6567 21.4831 23.5315 19.336 24.1816 18.044C24.4777 17.5469 24.9304 17.8369 25.1198 18.044L29.1852 22.3943C29.9358 23.1401 29.4979 23.948 29.1852 24.2587L20.4289 33.5806C19.178 34.8236 17.9271 35.4191 15.738 34.5128C11.9853 32.9592 13.132 30.059 13.8617 28.2982L17.423 21.4931C17.7056 20.9532 18.3606 20.7485 18.9553 20.8811Z" fill="#AAAAAA"/>
</g>
<path fill-rule="evenodd" clip-rule="evenodd" d="M16.4522 24.7574C16.4969 24.4762 16.7609 24.2845 17.042 24.3291L20.015 24.801C20.2961 24.8456 20.4878 25.1097 20.4432 25.3908C20.3986 25.672 20.1345 25.8637 19.8534 25.8191L16.8805 25.3472C16.5993 25.3026 16.4076 25.0385 16.4522 24.7574Z" fill="white"/>
<path fill-rule="evenodd" clip-rule="evenodd" d="M15.064 26.8667C15.1087 26.5856 15.3727 26.3939 15.6538 26.4385L18.6268 26.9104C18.9079 26.955 19.0996 27.2191 19.055 27.5002C19.0104 27.7813 18.7463 27.9731 18.4652 27.9285L15.4923 27.4566C15.2112 27.4119 15.0194 27.1479 15.064 26.8667Z" fill="white"/>
<path fill-rule="evenodd" clip-rule="evenodd" d="M13.964 29.0738C14.0086 28.7926 14.2726 28.6009 14.5537 28.6455L17.5267 29.1174C17.8078 29.162 17.9995 29.4261 17.9549 29.7072C17.9103 29.9884 17.6462 30.1801 17.3651 30.1355L14.3922 29.6636C14.1111 29.619 13.9193 29.3549 13.964 29.0738Z" fill="white"/>
<path d="M36.5008 33.8338C38.0506 35.5656 40.5571 35.3303 41.831 34.8931C42.4021 34.7407 42.7323 35.4929 42.7154 35.7775L42.5231 39.988C42.5181 40.0969 42.4957 40.2038 42.4721 40.3102C42.3185 41.0034 42.4552 42.0867 40.7021 42.408L27.543 43.1122C27.4796 43.1156 27.416 43.1141 27.3531 43.1057C25.7984 42.8997 24.3235 41.9558 24.2131 39.8824C24.0717 37.2259 29.5008 36.9574 31.4986 36.2551C31.6369 36.2064 31.7579 36.1224 31.8616 36.0187L34.3229 33.5573C34.9169 32.9632 35.9405 33.2078 36.5008 33.8338Z" fill="#DDDDDD"/>
<path d="M36.6757 31.8391C38.123 34.096 40.9252 33.864 42.2874 33.3963C42.8463 33.247 42.953 33.7668 42.9364 34.0453L42.7234 37.9381C42.6888 38.5694 41.9912 38.9788 41.7026 39.5412C41.6596 39.625 41.6197 39.7191 41.5771 39.8228C41.4202 40.2049 41.0521 40.4457 40.6395 40.4638L28.6369 40.9897C26.8864 41.0094 25.2073 40.4996 24.718 39.2835C23.2284 35.5807 26.0869 34.3085 27.8457 33.5593L35.1328 31.1842C35.7217 30.9922 36.3413 31.3176 36.6757 31.8391Z" fill="#CCCCCC"/>
<mask id="mask1_4951_95251" style="mask-type:alpha" maskUnits="userSpaceOnUse" x="37" y="35" width="7" height="8">
<path d="M37.1049 40.6953C37.784 37.8264 40.0953 36.4732 41.8594 35.9651C42.4968 35.7815 43.0776 36.3007 43.0584 36.9638C42.8623 43.7623 39.5692 43.1663 37.4882 41.7055C37.1656 41.4791 37.0141 41.0789 37.1049 40.6953Z" fill="#D9D9D9"/>
</mask>
<g mask="url(#mask1_4951_95251)">
<path d="M36.6084 30.816C38.0928 33.152 40.9367 32.9596 42.3099 32.5058C42.8708 32.3636 42.9858 32.8888 42.9733 33.1692L42.7721 39.1202C42.7755 40.1783 41.8947 40.44 41.4539 40.4385L28.6711 40.8381C26.9077 40.8324 25.6021 40.3689 24.695 38.18C23.14 34.4277 26.0014 33.1878 27.7623 32.4587L35.0922 30.1652C35.6737 29.9833 36.2816 30.3017 36.6084 30.816Z" fill="#AAAAAA"/>
</g>
<path fill-rule="evenodd" clip-rule="evenodd" d="M32.0948 31.7931C32.3251 31.6259 32.6474 31.677 32.8146 31.9074L34.5832 34.3434C34.7504 34.5737 34.6992 34.8961 34.4689 35.0633C34.2386 35.2305 33.9163 35.1794 33.7491 34.949L31.9805 32.513C31.8133 32.2827 31.8644 31.9604 32.0948 31.7931Z" fill="white"/>
<path fill-rule="evenodd" clip-rule="evenodd" d="M29.6246 32.2931C29.8549 32.1259 30.1772 32.177 30.3444 32.4074L32.1129 34.8434C32.2802 35.0737 32.229 35.3961 31.9987 35.5633C31.7684 35.7305 31.4461 35.6794 31.2788 35.449L29.5103 33.013C29.3431 32.7827 29.3942 32.4604 29.6246 32.2931Z" fill="white"/>
<path fill-rule="evenodd" clip-rule="evenodd" d="M27.2837 33.0822C27.5141 32.9149 27.8364 32.9661 28.0036 33.1964L29.7721 35.6325C29.9394 35.8628 29.8882 36.1851 29.6579 36.3524C29.4275 36.5196 29.1053 36.4684 28.938 36.2381L27.1695 33.8021C27.0023 33.5717 27.0534 33.2494 27.2837 33.0822Z" fill="white"/>
<circle cx="46" cy="14" r="13.3" fill="#3B4A65" stroke="white" stroke-width="1.4"/>
<path d="M46 9V19" stroke="white" stroke-width="1.4" stroke-linecap="round"/>
<path d="M41 14H51" stroke="white" stroke-width="1.4" stroke-linecap="round"/>
</svg>
