<svg width="60" height="60" viewBox="0 0 60 60" fill="none" xmlns="http://www.w3.org/2000/svg">
<circle cx="28" cy="32" r="28" fill="#F8F8F8"/>
<rect x="14.6665" y="33.666" width="10.8333" height="10" rx="4" fill="#D9D9D9"/>
<rect x="14.6665" y="21.166" width="26.6667" height="10" rx="4" fill="url(#paint0_linear_2965_10055)"/>
<rect x="28" y="33.666" width="13.3333" height="10" rx="4" fill="#E1E1E1"/>
<circle cx="19.6665" cy="26.166" r="2.5" fill="url(#paint1_linear_2965_10055)"/>
<path d="M20.4272 26.4132C20.5323 26.4473 20.5915 26.5617 20.5371 26.658C20.467 26.782 20.3708 26.8904 20.2543 26.975C20.0834 27.0992 19.8777 27.166 19.6665 27.166C19.4553 27.166 19.2496 27.0992 19.0787 26.975C18.9622 26.8904 18.866 26.782 18.7959 26.658C18.7415 26.5617 18.8007 26.4473 18.9059 26.4132C19.011 26.379 19.1217 26.4398 19.1885 26.528C19.2238 26.5747 19.2661 26.6162 19.3141 26.6511C19.4165 26.7255 19.5399 26.7656 19.6665 26.7656C19.7931 26.7656 19.9165 26.7255 20.0189 26.6511C20.0669 26.6162 20.1092 26.5747 20.1445 26.528C20.2113 26.4398 20.322 26.379 20.4272 26.4132Z" fill="#AAAAAA"/>
<circle cx="18.9165" cy="25.666" r="0.25" fill="#AAAAAA"/>
<circle cx="20.4165" cy="25.666" r="0.25" fill="#AAAAAA"/>
<path d="M21.7498 39.0306C21.7498 40.1556 21.0037 40.7493 20.0833 40.7493C19.1628 40.7493 18.4165 40.1556 18.4165 39.0306C18.4165 37.9056 20.0833 36.166 20.0833 36.166C20.0833 36.166 21.7498 37.9056 21.7498 39.0306Z" fill="url(#paint2_linear_2965_10055)"/>
<path fill-rule="evenodd" clip-rule="evenodd" d="M36.7767 38.7233C36.5134 38.9553 36.1717 39.0954 35.7983 39.0954C34.966 39.0954 34.2913 38.3995 34.2913 37.5412C34.2913 36.9651 34.5952 36.4622 35.0467 36.1938C34.9347 36.1755 34.8199 36.166 34.7028 36.166C33.5323 36.166 32.5835 37.1149 32.5835 38.2854C32.5835 39.4559 33.5323 40.4047 34.7028 40.4047C35.7231 40.4047 36.575 39.6837 36.7767 38.7233Z" fill="url(#paint3_linear_2965_10055)"/>
<circle cx="46" cy="14" r="13.3" fill="#3B4A65" stroke="white" stroke-width="1.4"/>
<path d="M46 9V19" stroke="white" stroke-width="1.4" stroke-linecap="round"/>
<path d="M41 14H51" stroke="white" stroke-width="1.4" stroke-linecap="round"/>
<defs>
<linearGradient id="paint0_linear_2965_10055" x1="27.9998" y1="21.166" x2="27.9998" y2="31.166" gradientUnits="userSpaceOnUse">
<stop stop-color="#BBBBBB"/>
<stop offset="1" stop-color="#CCCCCC"/>
</linearGradient>
<linearGradient id="paint1_linear_2965_10055" x1="19.6665" y1="23.666" x2="19.6665" y2="30.541" gradientUnits="userSpaceOnUse">
<stop stop-color="white"/>
<stop offset="1" stop-color="white" stop-opacity="0"/>
</linearGradient>
<linearGradient id="paint2_linear_2965_10055" x1="20.0832" y1="37.8327" x2="20.0832" y2="42.4681" gradientUnits="userSpaceOnUse">
<stop stop-color="white"/>
<stop offset="1" stop-color="white" stop-opacity="0"/>
</linearGradient>
<linearGradient id="paint3_linear_2965_10055" x1="34.6801" y1="37.7074" x2="34.6801" y2="41.9942" gradientUnits="userSpaceOnUse">
<stop stop-color="white"/>
<stop offset="1" stop-color="white" stop-opacity="0"/>
</linearGradient>
</defs>
</svg>
