<svg width="32" height="33" viewBox="0 0 32 33" fill="none" xmlns="http://www.w3.org/2000/svg">
<circle cx="16" cy="16.2031" r="16" fill="#3F86F1"/>
<circle cx="16" cy="8.20312" r="2" fill="white" stroke="#3F86F1" stroke-width="1.4"/>
<path d="M6.56538 10.5725C6.00985 10.0805 5.94726 9.23558 6.42425 8.66713C6.90123 8.09868 7.74421 8.01359 8.32517 8.47526L25.2951 21.9605C26.1531 22.6422 26.2797 23.8974 25.5754 24.7368C24.871 25.5763 23.6129 25.6695 22.7925 24.9429L6.56538 10.5725Z" fill="white" stroke="#3F86F1" stroke-width="1.4"/>
<path d="M22.0731 19.1878L19.502 22.252" stroke="#3F86F1" stroke-width="1.4"/>
<path d="M25.4346 10.5744C25.9902 10.0825 26.0527 9.23753 25.5758 8.66908C25.0988 8.10063 24.2558 8.01554 23.6748 8.47721L6.70488 21.9624C5.84694 22.6442 5.72025 23.8993 6.42464 24.7388C7.12903 25.5782 8.38711 25.6714 9.20749 24.9449L25.4346 10.5744Z" fill="white" stroke="#3F86F1" stroke-width="1.4"/>
<path d="M9.9269 19.1897L12.498 22.2539" stroke="#3F86F1" stroke-width="1.4"/>
</svg>
