<svg width="60" height="60" viewBox="0 0 60 60" fill="none" xmlns="http://www.w3.org/2000/svg">
<g clip-path="url(#clip0_3692_85239)">
<path d="M40.1803 9.20666L21.1026 50.1183C21.1026 50.1183 19.3237 53.931 15.0367 51.9311C10.7497 49.9313 12.6392 46.172 12.6392 46.172L13.8188 43.6424" stroke="url(#paint0_linear_3692_85239)" stroke-width="1.84205" stroke-linecap="round"/>
<mask id="mask0_3692_85239" style="mask-type:alpha" maskUnits="userSpaceOnUse" x="6" y="8" width="47" height="37">
<path d="M39.2537 11.1707C62.3982 21.9633 49.2587 44.6531 49.2587 44.6531C49.2587 44.6531 48.7413 42.6689 44.6664 40.7687C40.5916 38.8686 35.8649 39.0399 35.8649 39.0399C35.8649 39.0399 33.2241 35.4331 28.8838 33.4091C24.5434 31.3852 19.7943 31.8516 19.7943 31.8516C19.7943 31.8516 17.8282 28.2538 13.3341 26.1581C8.84001 24.0625 6.93391 25.549 6.93391 25.549C6.93391 25.549 16.1091 0.377993 39.2537 11.1707Z" fill="url(#paint1_linear_3692_85239)"/>
</mask>
<g mask="url(#mask0_3692_85239)">
<path d="M39.2537 11.1707C62.3982 21.9633 49.2587 44.6531 49.2587 44.6531C49.2587 44.6531 48.7413 42.6689 44.6664 40.7687C40.5916 38.8686 35.8649 39.0399 35.8649 39.0399C35.8649 39.0399 33.2241 35.4331 28.8838 33.4091C24.5434 31.3852 19.7943 31.8516 19.7943 31.8516C19.7943 31.8516 17.8282 28.2538 13.3341 26.1581C8.84001 24.0625 6.93391 25.549 6.93391 25.549C6.93391 25.549 16.1091 0.377993 39.2537 11.1707Z" fill="url(#paint2_linear_3692_85239)"/>
<path opacity="0.5" d="M26.4913 19.311C20.8143 26.7958 19.0976 33.7936 19.0976 33.7936L3.84102 23.4244C3.84102 23.4244 14.952 8.88032 25.4018 7.91741C33.4298 7.17766 39.2502 11.1727 39.2502 11.1727C39.2502 11.1727 32.7646 11.3508 26.4913 19.311Z" fill="url(#paint3_linear_3692_85239)"/>
<path opacity="0.5" d="M40.9486 26.0841C38.8641 35.244 34.6069 41.0571 34.6069 41.0571L52.3569 46.0793C52.3569 46.0793 56.3562 28.219 50.3768 19.595C45.7832 12.9696 38.9816 11.0789 38.9816 11.0789C38.9816 11.0789 43.014 16.1616 40.9486 26.0841Z" fill="url(#paint4_linear_3692_85239)"/>
</g>
</g>
<defs>
<linearGradient id="paint0_linear_3692_85239" x1="21.0212" y1="7.79247" x2="35.4716" y2="47.4943" gradientUnits="userSpaceOnUse">
<stop stop-color="#8F7862"/>
<stop offset="1" stop-color="#85684C"/>
</linearGradient>
<linearGradient id="paint1_linear_3692_85239" x1="10.1147" y1="16.9948" x2="48.4108" y2="45.4396" gradientUnits="userSpaceOnUse">
<stop stop-color="#F8EDB1"/>
<stop offset="1" stop-color="#ECC436"/>
</linearGradient>
<linearGradient id="paint2_linear_3692_85239" x1="10.1147" y1="16.9948" x2="48.4108" y2="45.4396" gradientUnits="userSpaceOnUse">
<stop stop-color="#FFF3B3"/>
<stop offset="1" stop-color="#FDD74E"/>
</linearGradient>
<linearGradient id="paint3_linear_3692_85239" x1="18.2662" y1="6.28339" x2="27.4915" y2="31.6295" gradientUnits="userSpaceOnUse">
<stop stop-color="#F9B679"/>
<stop offset="1" stop-color="#EA7745"/>
</linearGradient>
<linearGradient id="paint4_linear_3692_85239" x1="56.2152" y1="24.0109" x2="30.8693" y2="33.236" gradientUnits="userSpaceOnUse">
<stop stop-color="#F9B679"/>
<stop offset="1" stop-color="#EA7745"/>
</linearGradient>
<clipPath id="clip0_3692_85239">
<rect width="60" height="60" fill="white"/>
</clipPath>
</defs>
</svg>
