<svg width="60" height="60" viewBox="0 0 60 60" fill="none" xmlns="http://www.w3.org/2000/svg">
<circle cx="28" cy="32" r="28" fill="#F8F8F8"/>
<rect x="17.4155" y="18.1133" width="14.8437" height="4.94781" rx="0.945263" fill="#EEEEEE"/>
<rect x="19.8892" y="23.0625" width="9.89583" height="1.48434" fill="#CCCCCC"/>
<rect x="15.9312" y="24.5469" width="17.8125" height="21.2756" rx="2.83579" fill="url(#paint0_linear_4951_95296)"/>
<rect x="15.9312" y="29.4922" width="17.8125" height="11.38" fill="url(#paint1_linear_4951_95296)"/>
<path fill-rule="evenodd" clip-rule="evenodd" d="M23.8252 31.4727C23.5642 31.4727 23.3526 31.6843 23.3526 31.9453V33.4517H21.8462C21.5851 33.4517 21.3735 33.6633 21.3735 33.9244V35.9478C21.3735 36.2088 21.5851 36.4204 21.8462 36.4204H23.3526V37.927C23.3526 38.188 23.5642 38.3996 23.8252 38.3996H25.8487C26.1098 38.3996 26.3214 38.188 26.3214 37.927V36.4204H27.828C28.089 36.4204 28.3006 36.2088 28.3006 35.9478V33.9244C28.3006 33.6633 28.089 33.4517 27.828 33.4517H26.3214V31.9453C26.3214 31.6843 26.1098 31.4727 25.8487 31.4727H23.8252Z" fill="url(#paint2_linear_4951_95296)"/>
<rect width="7.07068" height="14.1414" rx="3.53534" transform="matrix(0.707114 0.707099 -0.707114 0.707099 37.1655 33.668)" fill="url(#paint3_linear_4951_95296)"/>
<path d="M34.6656 36.1678C36.0463 34.7872 38.2848 34.7872 39.6654 36.1678C41.0461 37.5484 41.0461 39.7869 39.6654 41.1675L37.1655 43.6673L32.1657 38.6676L34.6656 36.1678Z" fill="url(#paint4_linear_4951_95296)"/>
<circle cx="46" cy="14" r="13.3" fill="#3B4A65" stroke="white" stroke-width="1.4"/>
<path d="M46 9V19" stroke="white" stroke-width="1.4" stroke-linecap="round"/>
<path d="M41 14H51" stroke="white" stroke-width="1.4" stroke-linecap="round"/>
<defs>
<linearGradient id="paint0_linear_4951_95296" x1="24.8374" y1="24.5469" x2="24.8374" y2="45.8225" gradientUnits="userSpaceOnUse">
<stop stop-color="#EEEEEE"/>
<stop offset="1" stop-color="#CCCCCC"/>
</linearGradient>
<linearGradient id="paint1_linear_4951_95296" x1="15.4364" y1="27.5131" x2="34.4855" y2="42.3569" gradientUnits="userSpaceOnUse">
<stop stop-color="#FFFEF9"/>
<stop offset="1" stop-color="#F0EFEB"/>
</linearGradient>
<linearGradient id="paint2_linear_4951_95296" x1="21.8683" y1="30.9779" x2="27.8057" y2="38.8945" gradientUnits="userSpaceOnUse">
<stop stop-color="#CCCCCC"/>
<stop offset="1" stop-color="#AAAAAA"/>
</linearGradient>
<linearGradient id="paint3_linear_4951_95296" x1="-0.925141" y1="7.59145" x2="8.13687" y2="7.48729" gradientUnits="userSpaceOnUse">
<stop stop-color="#FFF7F5"/>
<stop offset="1" stop-color="#EBE1DF"/>
</linearGradient>
<linearGradient id="paint4_linear_4951_95296" x1="34.0895" y1="36.0248" x2="39.8343" y2="41.7698" gradientUnits="userSpaceOnUse">
<stop stop-color="#CCCCCC"/>
<stop offset="1" stop-color="#BBBBBB"/>
</linearGradient>
</defs>
</svg>
