<svg width="48" height="48" viewBox="0 0 48 48" fill="none" xmlns="http://www.w3.org/2000/svg">
<g id="icon/32/&#236;&#139;&#172;&#235;&#166;&#172;&#234;&#178;&#128;&#236;&#130;&#172;">
<g id="Group 1261165717">
<path id="Rectangle 34624865" d="M6 10.8389C6 8.16647 8.16647 6 10.8389 6H33.4205C36.0929 6 38.2594 8.16647 38.2594 10.8389V36.6469C38.2594 39.3194 36.0929 41.4858 33.4205 41.4858H10.839C8.16647 41.4858 6 39.3194 6 36.6469V10.8389Z" fill="#D08CE9"/>
<path id="Rectangle" fill-rule="evenodd" clip-rule="evenodd" d="M42.3595 20.4219C42.9894 21.0519 42.9894 22.0731 42.3595 22.7031L31.9909 33.0718C31.7834 33.2793 31.5232 33.4263 31.2383 33.4969L27.286 34.4765C26.6964 34.6226 26.1631 34.0892 26.3092 33.4996L27.2888 29.5472C27.3594 29.2624 27.5063 29.0022 27.7138 28.7947L38.0824 18.426C38.7123 17.7961 39.7336 17.7961 40.3635 18.426L42.3595 20.4219Z" fill="#6E37A6"/>
<path id="Vector" d="M16.9895 25.3006C15.1256 24.6775 10.9438 22.0561 10.9438 17.6126C10.9438 15.6495 12.5449 14.0625 14.5282 14.0625C15.6991 14.0625 16.7386 14.615 17.3957 15.4849C18.0409 14.6267 19.0923 14.0625 20.2632 14.0625C22.2466 14.0625 23.8476 15.6495 23.8476 17.6126C23.8476 22.0561 19.6658 24.6775 17.79 25.3006C17.575 25.3711 17.2046 25.3711 16.9895 25.3006Z" fill="white"/>
<rect id="Rectangle_2" x="10.9438" y="30.1953" width="12.9038" height="4.03248" rx="1.61298" fill="white"/>
</g>
</g>
</svg>
