<svg width="40" height="40" viewBox="0 0 40 40" fill="none" xmlns="http://www.w3.org/2000/svg">
<rect width="40" height="40" rx="8" fill="#F8F8F8"/>
<path d="M7.5 12.3594H32.5V27.6662C32.5 29.671 30.8747 31.2963 28.8699 31.2963H11.1301C9.12525 31.2963 7.5 29.671 7.5 27.6662V12.3594Z" fill="url(#paint0_linear_8_5226)"/>
<path d="M7.5 12.2004C7.5 10.1956 9.12525 8.57031 11.1301 8.57031H28.8699C30.8747 8.57031 32.5 10.1956 32.5 12.2004V15.0089H7.5V12.2004Z" fill="url(#paint1_linear_8_5226)"/>
<rect x="12.0469" y="9.32031" width="3.78727" height="3.78738" rx="1.89364" fill="white"/>
<rect x="24.1621" y="9.32031" width="3.78727" height="3.78738" rx="1.89364" fill="white"/>
<rect x="12.8027" y="7.42969" width="2.27273" height="4.54485" rx="1.13636" fill="url(#paint2_linear_8_5226)"/>
<rect x="24.9219" y="7.42969" width="2.27273" height="4.54485" rx="1.13636" fill="url(#paint3_linear_8_5226)"/>
<rect x="11.2871" y="21.8203" width="2.65151" height="2.65116" rx="0.58077" fill="#F6505A"/>
<rect x="11.2871" y="17.6562" width="2.65151" height="2.65116" rx="0.58077" fill="#DBDEE3"/>
<rect x="21.1406" y="26" width="2.65151" height="2.65116" rx="0.58077" fill="#D1D4DA"/>
<rect x="11.2871" y="25.9922" width="2.65151" height="2.65116" rx="0.58077" fill="#F6505A"/>
<rect x="16.2109" y="21.8203" width="2.65151" height="2.65116" rx="0.58077" fill="#F6505A"/>
<rect x="16.2109" y="17.6562" width="2.65151" height="2.65116" rx="0.58077" fill="#DBDEE3"/>
<rect x="26.0586" y="26" width="2.65151" height="2.65116" rx="0.58077" fill="#D1D4DA"/>
<rect x="16.2109" y="25.9922" width="2.65151" height="2.65116" rx="0.58077" fill="#F6505A"/>
<rect x="21.1387" y="17.6562" width="2.65151" height="2.65116" rx="0.58077" fill="#F6505A"/>
<rect x="21.1387" y="21.8203" width="2.65151" height="2.65116" rx="0.58077" fill="#F6505A"/>
<rect x="26.0605" y="17.6562" width="2.65151" height="2.65116" rx="0.58077" fill="#F6505A"/>
<rect x="26.0625" y="21.8203" width="2.65151" height="2.65116" rx="0.58077" fill="#F6505A"/>
<defs>
<linearGradient id="paint0_linear_8_5226" x1="20" y1="12.3594" x2="20" y2="31.2963" gradientUnits="userSpaceOnUse">
<stop stop-color="#F0F3F8"/>
<stop offset="1" stop-color="#E2E4E8"/>
</linearGradient>
<linearGradient id="paint1_linear_8_5226" x1="20" y1="8.57031" x2="20" y2="15.0089" gradientUnits="userSpaceOnUse">
<stop stop-color="#FE5963"/>
<stop offset="1" stop-color="#F44E58"/>
</linearGradient>
<linearGradient id="paint2_linear_8_5226" x1="13.9391" y1="7.42969" x2="13.9391" y2="11.9745" gradientUnits="userSpaceOnUse">
<stop stop-color="#777A87"/>
<stop offset="0.0001" stop-color="#999BA2"/>
<stop offset="1" stop-color="#494C58"/>
</linearGradient>
<linearGradient id="paint3_linear_8_5226" x1="26.0582" y1="7.42969" x2="26.0582" y2="11.9745" gradientUnits="userSpaceOnUse">
<stop stop-color="#777A87"/>
<stop offset="0.0001" stop-color="#999BA2"/>
<stop offset="1" stop-color="#494C58"/>
</linearGradient>
</defs>
</svg>
