<svg width="49" height="48" viewBox="0 0 49 48" fill="none" xmlns="http://www.w3.org/2000/svg">
<path d="M15.7302 13.3132C18.5146 13.4673 20.4419 11.1406 21.1519 9.68858C21.5072 9.07467 22.4257 9.43279 22.6529 9.68858L26.0622 13.4247C26.1504 13.5212 26.2221 13.6311 26.2924 13.7413C26.7501 14.4599 27.7854 15.2632 26.5704 17.0236L16.0016 28.7883C15.9507 28.845 15.8954 28.8976 15.8349 28.9439C14.3408 30.0884 12.2883 30.5391 10.4354 28.8734C8.06133 26.7392 12.4405 21.904 13.5398 19.6127C13.6159 19.4541 13.6473 19.2801 13.6473 19.1041L13.6473 14.9267C13.6473 13.9185 14.7236 13.2574 15.7302 13.3132Z" fill="#C5CDF8"/>
<path d="M14.1865 11.4681C17.3296 12.1549 19.5105 9.57997 20.2695 8.02711C20.6171 7.42619 21.1487 7.77673 21.371 8.02711L24.4933 11.5113C24.9996 12.0763 24.755 13.0155 24.9872 13.7377C25.0218 13.8453 25.0678 13.9591 25.1197 14.0833C25.3108 14.5407 25.2028 15.0573 24.868 15.4228L15.1292 26.0548C13.6606 27.5571 11.8031 28.5494 10.3561 27.9327C5.95015 26.0548 7.2964 22.5494 8.15312 20.4211L12.3213 12.2217C12.6582 11.5589 13.4602 11.3093 14.1865 11.4681Z" fill="#6267DE"/>
<mask id="mask0_2290_92246" style="mask-type:alpha" maskUnits="userSpaceOnUse" x="20" y="10" width="7" height="10">
<path d="M22.0625 18.617C20.2046 15.6063 21.0176 12.4966 22.0834 10.5684C22.4685 9.87165 23.4019 9.81941 23.9484 10.3984C29.5504 16.3336 26.2504 18.6226 23.2451 19.149C22.7791 19.2306 22.311 19.0196 22.0625 18.617Z" fill="#D9D9D9"/>
</mask>
<g mask="url(#mask0_2290_92246)">
<path d="M13.26 10.6559C16.5017 11.3783 18.7516 8.80173 19.5318 7.25131C19.8871 6.65467 20.4304 7.00271 20.6576 7.25131L25.5364 12.4718C26.4371 13.3668 25.9117 14.3363 25.5364 14.7092L15.0283 25.896C13.5272 27.3876 12.0261 28.1023 9.39905 27.0147C4.89561 25.1502 6.27165 21.6699 7.14732 19.5568L11.4211 11.3903C11.7602 10.7424 12.5462 10.4968 13.26 10.6559Z" fill="#4D51BD"/>
</g>
<path fill-rule="evenodd" clip-rule="evenodd" d="M10.2565 15.3143C10.3101 14.9769 10.627 14.7468 10.9643 14.8004L14.532 15.3667C14.8694 15.4202 15.0994 15.7371 15.0459 16.0745C14.9924 16.4119 14.6755 16.642 14.3381 16.5885L10.7704 16.0222C10.4331 15.9686 10.203 15.6517 10.2565 15.3143Z" fill="white"/>
<path fill-rule="evenodd" clip-rule="evenodd" d="M8.59053 17.8397C8.64407 17.5023 8.96096 17.2722 9.29832 17.3258L12.866 17.8921C13.2034 17.9456 13.4334 18.2625 13.3799 18.5999C13.3263 18.9373 13.0095 19.1674 12.6721 19.1138L9.10442 18.5476C8.76706 18.494 8.53698 18.1771 8.59053 17.8397Z" fill="white"/>
<path fill-rule="evenodd" clip-rule="evenodd" d="M7.27022 20.4921C7.32376 20.1547 7.64065 19.9246 7.978 19.9781L11.5457 20.5444C11.883 20.598 12.1131 20.9149 12.0596 21.2523C12.006 21.5896 11.6891 21.8197 11.3518 21.7662L7.7841 21.1999C7.44675 21.1463 7.21667 20.8294 7.27022 20.4921Z" fill="white"/>
<path d="M34.3158 26.2083C36.1757 28.2865 39.1837 28.0042 40.7124 27.4795C41.3977 27.2966 41.7939 28.1993 41.7737 28.5409L41.5429 33.5936C41.537 33.7243 41.51 33.8527 41.4817 33.9803C41.2974 34.8122 41.4614 36.1122 39.3576 36.4978L23.566 37.3429C23.49 37.347 23.4137 37.3451 23.3382 37.3351C21.4725 37.0878 19.7024 35.9551 19.57 33.467C19.4002 30.279 25.9155 29.9568 28.313 29.1139C28.4789 29.0556 28.6242 28.9547 28.7486 28.8303L31.7022 25.8764C32.4151 25.1635 33.6435 25.4571 34.3158 26.2083Z" fill="#C5CDF8"/>
<path d="M34.5256 23.8124C36.2625 26.5208 39.6252 26.2423 41.2599 25.681C41.9306 25.5019 42.0586 26.1257 42.0388 26.4599L41.7831 31.1315C41.7416 31.889 40.9045 32.3803 40.5581 33.0553C40.5065 33.1558 40.4586 33.2687 40.4075 33.3932C40.2192 33.8517 39.7775 34.1407 39.2823 34.1624L24.8786 34.7935C22.7779 34.8172 20.7629 34.2054 20.1758 32.746C18.3881 28.3024 21.8185 26.7758 23.9291 25.8767L32.674 23.0264C33.3808 22.796 34.1243 23.1866 34.5256 23.8124Z" fill="#6267DE"/>
<mask id="mask1_2290_92246" style="mask-type:alpha" maskUnits="userSpaceOnUse" x="35" y="28" width="8" height="9">
<path d="M35.041 34.4378C35.8561 30.995 38.6297 29.371 40.7467 28.7613C41.5117 28.5409 42.2086 29.164 42.1856 29.9598C41.9503 38.1183 37.9983 37.4032 35.5011 35.6501C35.1139 35.3783 34.9321 34.8981 35.041 34.4378Z" fill="#D9D9D9"/>
</mask>
<g mask="url(#mask1_2290_92246)">
<path d="M34.4452 22.5834C36.2266 25.3868 39.6394 25.1559 41.2873 24.6113C41.9604 24.4407 42.0985 25.071 42.0834 25.4074L41.842 32.5489C41.8461 33.8187 40.7891 34.1327 40.26 34.131L24.92 34.6104C22.8039 34.6036 21.2371 34.0474 20.1485 31.4207C18.2824 26.9176 21.7162 25.4297 23.8295 24.5548L32.6257 21.8025C33.3236 21.5841 34.053 21.9662 34.4452 22.5834Z" fill="#4D51BD"/>
</g>
<path fill-rule="evenodd" clip-rule="evenodd" d="M29.0286 23.7533C29.305 23.5526 29.6917 23.614 29.8924 23.8904L32.0148 26.8138C32.2154 27.0902 32.1541 27.477 31.8776 27.6777C31.6012 27.8784 31.2145 27.817 31.0138 27.5406L28.8915 24.6172C28.6908 24.3408 28.7522 23.954 29.0286 23.7533Z" fill="white"/>
<path fill-rule="evenodd" clip-rule="evenodd" d="M26.0637 24.3588C26.3401 24.1581 26.7269 24.2195 26.9276 24.4959L29.0499 27.4193C29.2506 27.6957 29.1892 28.0825 28.9128 28.2832C28.6364 28.4839 28.2496 28.4225 28.0489 28.1461L25.9266 25.2227C25.7259 24.9463 25.7873 24.5595 26.0637 24.3588Z" fill="white"/>
<path fill-rule="evenodd" clip-rule="evenodd" d="M23.2551 25.3022C23.5315 25.1015 23.9183 25.1628 24.119 25.4393L26.2413 28.3626C26.442 28.639 26.3806 29.0258 26.1042 29.2265C25.8278 29.4272 25.441 29.3658 25.2403 29.0894L23.118 26.1661C22.9173 25.8896 22.9787 25.5029 23.2551 25.3022Z" fill="white"/>
</svg>
