<svg width="100" height="100" viewBox="0 0 100 100" fill="none" xmlns="http://www.w3.org/2000/svg">
<g clip-path="url(#clip0_2351_80401)">
<circle cx="50" cy="50" r="50" fill="url(#paint0_linear_2351_80401)"/>
<circle cx="31" cy="45" r="10" stroke="#26282C" stroke-width="4"/>
<circle cx="68" cy="45" r="10" stroke="#26282C" stroke-width="4"/>
<path d="M34 75.2941C34 69.0565 39.0565 64 45.2941 64H54.7059C60.9435 64 66 69.0565 66 75.2941V75.2941C66 77.8931 63.8931 80 61.2941 80H38.7059C36.1069 80 34 77.8931 34 75.2941V75.2941Z" stroke="#26282C" stroke-width="4"/>
<path d="M25.0353 28.934C28.1953 28.0873 30.5937 25.8179 31.7274 22.9998" stroke="#26282C" stroke-width="4" stroke-linecap="round"/>
<path d="M74.7264 28.934C71.5664 28.0873 69.168 25.8179 68.0343 22.9998" stroke="#26282C" stroke-width="4" stroke-linecap="round"/>
</g>
<defs>
<linearGradient id="paint0_linear_2351_80401" x1="50" y1="0" x2="50" y2="100" gradientUnits="userSpaceOnUse">
<stop stop-color="#ECDB48"/>
<stop offset="1" stop-color="#F4EA95"/>
</linearGradient>
<clipPath id="clip0_2351_80401">
<rect width="100" height="100" fill="white"/>
</clipPath>
</defs>
</svg>
