<svg width="81" height="81" viewBox="0 0 81 81" fill="none" xmlns="http://www.w3.org/2000/svg">
<g id="icon_80/&#236;&#150;&#145;&#236;&#163;&#188;">
<g id="&#236;&#150;&#145;&#236;&#163;&#188;">
<path id="Vector 1501" d="M25.2551 29.676C22.4015 32.9252 22.7185 35.7694 22.7185 37.1235H45.5531C45.5531 35.7694 45.8697 32.9259 43.0154 29.676C40.4782 26.7873 38.5759 26.2908 38.5759 24.9368C38.5758 23.5827 39.2102 18.1663 37.9416 12.75H30.33C29.0614 18.1663 29.6957 23.5827 29.6957 24.9368C29.6957 26.2908 27.7923 26.7873 25.2551 29.676Z" fill="url(#paint0_linear_3019_115098)"/>
<path id="Rectangle 34624710" d="M29.6941 6.92403C29.6941 6.29289 30.2057 5.78125 30.8369 5.78125H37.4314C38.0626 5.78125 38.5742 6.29289 38.5742 6.92403V12.438C38.5742 13.0691 38.0626 13.5808 37.4314 13.5808H30.8369C30.2057 13.5808 29.6941 13.0691 29.6941 12.438V6.92403Z" fill="url(#paint1_linear_3019_115098)"/>
<rect id="Rectangle 34624711" x="22.7168" y="36.9844" width="22.8346" height="28.5982" fill="url(#paint2_linear_3019_115098)"/>
<path id="Rectangle 34624713" d="M22.7168 65.5859H45.5514V69.6428C45.5514 70.274 45.0398 70.7856 44.4087 70.7856H23.8596C23.2284 70.7856 22.7168 70.274 22.7168 69.6428V65.5859Z" fill="url(#paint3_linear_3019_115098)"/>
<path id="Union" fill-rule="evenodd" clip-rule="evenodd" d="M34.1242 43.4827C37.6273 43.4827 40.4672 42.9007 40.4672 42.1827C40.4672 41.4648 37.6273 40.8828 34.1242 40.8828C30.6211 40.8828 27.7812 41.4648 27.7812 42.1827C27.7812 42.9007 30.6211 43.4827 34.1242 43.4827ZM40.4672 51.2826C40.4672 53.4364 37.6273 55.1823 34.1242 55.1823C30.6211 55.1823 27.7812 53.4364 27.7812 51.2826C27.7812 49.1288 30.6211 47.3828 34.1242 47.3828C37.6273 47.3828 40.4672 49.1288 40.4672 51.2826ZM40.4672 60.378C40.4672 61.096 37.6273 61.678 34.1242 61.678C30.6211 61.678 27.7812 61.096 27.7812 60.378C27.7812 59.6601 30.6211 59.0781 34.1242 59.0781C37.6273 59.0781 40.4672 59.6601 40.4672 60.378Z" fill="url(#paint4_linear_3019_115098)"/>
</g>
<g id="&#236;&#150;&#145;&#236;&#163;&#188;&#236;&#158;&#148;">
<path id="Rectangle 34624988" d="M39.3626 53.6689C39.3179 53.3225 39.5877 53.0156 39.937 53.0156H57.6319C57.9812 53.0156 58.251 53.3225 58.2063 53.6689L55.5746 74.0621C55.5746 74.0621 54.3863 75.7594 48.7845 75.7594C43.1826 75.7594 41.9944 74.0621 41.9944 74.0621L39.3626 53.6689Z" fill="url(#paint5_linear_3019_115098)"/>
<g id="Mask group">
<mask id="mask0_3019_115098" style="mask-type:alpha" maskUnits="userSpaceOnUse" x="40" y="53" width="18" height="16">
<path id="Rectangle 34624990" d="M40.3546 53.393C40.3248 53.1889 40.4833 53.0078 40.6896 53.0078H56.8541C57.0704 53.0078 57.2321 53.2042 57.1865 53.4155C56.8118 55.1532 55.3307 61.999 54.5583 65.2283C53.9633 67.7159 51.175 68.9624 48.6169 68.9624C46.0589 68.9624 43.4484 67.6665 42.6756 65.2283C41.6428 61.9696 40.6027 55.0913 40.3546 53.393Z" fill="#D9D9D9"/>
</mask>
<g mask="url(#mask0_3019_115098)">
<g id="Group 1321316899">
<path id="Vector 1596" d="M55.6323 57.2845C56.999 56.9002 57.5098 57.2984 57.5944 57.5456L58.2937 60.2338L51.2743 65.3159C48.6738 64.2621 43.6113 61.819 44.1658 60.4773C44.8589 58.8001 48.3374 57.3755 51.3075 58.0066C54.2775 58.6378 53.9238 57.765 55.6323 57.2845Z" fill="#D8883D"/>
<path id="Vector 1595" d="M55.3678 58.5103C57.6403 56.7513 58.1473 57.7774 58.1168 58.5103L56.0092 71.5202C55.5205 72.3143 53.3885 73.9023 48.7703 73.9023C44.152 73.9023 41.5924 72.8029 40.8899 72.2532L39.5154 59.4265C39.3932 59.2128 39.4971 58.7302 40.8899 58.5103C42.6309 58.2355 45.105 60.4343 47.7623 60.6176C50.4197 60.8008 52.5272 60.7092 55.3678 58.5103Z" fill="#EFA83E"/>
<path id="Vector 1594" d="M44.1603 59.077C40.6412 56.4263 38.9422 57.0662 38.2551 57.2246C37.1393 57.8441 36.1308 73.1534 43.1432 74.2085C58.0799 76.4559 70.6253 63.6812 57.8522 61.6846C56.8522 61.5283 48.5668 62.3961 44.1603 59.077Z" fill="#FEC64A"/>
</g>
</g>
</g>
<ellipse id="Ellipse 3426" cx="48.7849" cy="53.5232" rx="9.41661" ry="1.76536" fill="#DAEBFC"/>
</g>
</g>
<defs>
<linearGradient id="paint0_linear_3019_115098" x1="34.1358" y1="12.75" x2="34.1358" y2="37.1235" gradientUnits="userSpaceOnUse">
<stop stop-color="#DC700D"/>
<stop offset="1" stop-color="#FBAF1B"/>
</linearGradient>
<linearGradient id="paint1_linear_3019_115098" x1="34.1342" y1="5.78125" x2="34.1342" y2="13.5808" gradientUnits="userSpaceOnUse">
<stop stop-color="#5B5D75"/>
<stop offset="1" stop-color="#37394F"/>
</linearGradient>
<linearGradient id="paint2_linear_3019_115098" x1="22.7079" y1="49.3094" x2="45.5634" y2="49.3094" gradientUnits="userSpaceOnUse">
<stop stop-color="#9698AC"/>
<stop offset="1" stop-color="#2F324A"/>
</linearGradient>
<linearGradient id="paint3_linear_3019_115098" x1="34.1341" y1="65.5859" x2="34.1341" y2="70.7856" gradientUnits="userSpaceOnUse">
<stop stop-color="#EEAA28"/>
<stop offset="1" stop-color="#99480E"/>
</linearGradient>
<linearGradient id="paint4_linear_3019_115098" x1="27.2791" y1="42.925" x2="40.9924" y2="42.925" gradientUnits="userSpaceOnUse">
<stop stop-color="#A7AABA"/>
<stop offset="1" stop-color="#595C82"/>
</linearGradient>
<linearGradient id="paint5_linear_3019_115098" x1="48.7845" y1="53.0156" x2="48.7845" y2="75.7594" gradientUnits="userSpaceOnUse">
<stop stop-color="#EAF4FE"/>
<stop offset="1" stop-color="#DAE7F5"/>
</linearGradient>
</defs>
</svg>
