<svg width="32" height="32" viewBox="0 0 32 32" fill="none" xmlns="http://www.w3.org/2000/svg">
<rect width="32" height="32" rx="16" fill="white"/>
<rect x="11.2344" y="7" width="13.7143" height="18" rx="6.85714" fill="url(#paint0_linear_2516_73555)"/>
<path d="M15.5195 18.1484C15.5195 18.1484 16.4838 19.8627 18.091 19.8627C19.6981 19.8627 20.6624 18.1484 20.6624 18.1484" stroke="black" stroke-width="0.8" stroke-linecap="round"/>
<path d="M13.8047 13.8516C13.8047 13.8516 14.2868 14.7087 15.0904 14.7087C15.894 14.7087 16.3761 13.8516 16.3761 13.8516" stroke="black" stroke-width="0.8" stroke-linecap="round"/>
<path d="M19.8047 13.8516C19.8047 13.8516 20.2868 14.7087 21.0904 14.7087C21.894 14.7087 22.3761 13.8516 22.3761 13.8516" stroke="black" stroke-width="0.8" stroke-linecap="round"/>
<path d="M23.8633 18.4297C23.8633 18.4297 23.6485 19.5309 23.2626 20.1722C22.9749 20.6502 22.3794 21.3297 22.3794 21.3297" stroke="white" stroke-width="0.8" stroke-linecap="round"/>
<path d="M8.14601 17.9069C8.54198 17.2601 8.75592 15.5469 9.08503 15.5469C9.41415 15.5469 9.47032 17.2002 9.97508 17.9069C10.4798 18.6135 11.6701 18.8708 11.6701 19.1659C11.6701 19.4611 10.4798 19.7199 9.97508 20.4266C9.47032 21.1332 9.38343 22.785 9.08503 22.785C8.78664 22.785 8.65077 21.1332 8.14601 20.4266C7.64125 19.7199 6.5 19.5327 6.5 19.1659C6.5 18.7991 7.61477 18.7745 8.14601 17.9069Z" fill="#FFD600"/>
<path d="M7.36416 12.0539C7.57204 11.6496 7.68436 11.0312 7.85714 11.0312C8.02993 11.0312 8.05942 11.6122 8.32442 12.0539C8.58942 12.4955 9.21429 12.6563 9.21429 12.8408C9.21429 13.0252 8.58942 13.187 8.32442 13.6287C8.05942 14.0703 8.0138 14.6503 7.85714 14.6503C7.70049 14.6503 7.62916 14.0703 7.36416 13.6287C7.09916 13.187 6.5 13.07 6.5 12.8408C6.5 12.6115 7.08525 12.5962 7.36416 12.0539Z" fill="#FFD600"/>
<defs>
<linearGradient id="paint0_linear_2516_73555" x1="15.5201" y1="7.85714" x2="21.9487" y2="23.7143" gradientUnits="userSpaceOnUse">
<stop stop-color="#FFE0CA"/>
<stop offset="1" stop-color="#F8D1B6"/>
</linearGradient>
</defs>
</svg>
