<svg width="100" height="100" viewBox="0 0 100 100" fill="none" xmlns="http://www.w3.org/2000/svg">
<g clip-path="url(#clip0_2351_80353)">
<circle cx="50" cy="50" r="50" fill="#FFBDB9"/>
<ellipse cx="22" cy="60" rx="9" ry="6" fill="#FF9892"/>
<ellipse cx="78" cy="60" rx="9" ry="6" fill="#FF9892"/>
<path d="M46.7725 32.8814C46.7725 23.8305 39.9843 13.2712 35.4599 9.5C33.4483 13.2712 31.4276 19.3051 27.9165 19.3051C26.1064 19.3051 24.3968 15.0311 24.1454 11.7627C23.3911 12.5169 20.3742 14.7797 18.8657 18.5508C17.2324 22.6342 18.1115 26.8475 17.3572 26.8475C16.7538 26.8475 15.3466 25.339 14.3413 23.8305C14.3413 23.8305 11.3234 31.3729 14.3413 41.9322C16.1121 48.1283 21.8829 54 30.9338 54C39.9846 54 46.7725 44.1949 46.7725 32.8814Z" fill="#F85348"/>
<path d="M39.9859 40.9213C39.9859 49.3688 34.3858 52.9891 30.935 52.9891C27.9181 52.9891 23.8959 49.9727 21.8856 45.4468C19.8756 40.9213 20.3753 35.1389 21.1296 33.379C21.8838 34.3846 23.8452 36.3959 25.6554 36.3959C27.4656 36.3959 27.9181 29.8592 27.9181 26.5908C27.9181 26.5908 31.6893 30.362 33.1978 30.362C34.4045 30.362 34.7062 26.3394 34.7062 24.3281C36.4661 26.3394 39.9859 32.4739 39.9859 40.9213Z" fill="#FFE486"/>
<path d="M53.3994 32.8814C53.3994 23.8305 60.1875 13.2712 64.712 9.5C66.7236 13.2712 68.7443 19.3051 72.2553 19.3051C74.0655 19.3051 75.7751 15.0311 76.0265 11.7627C76.7807 12.5169 79.7977 14.7797 81.3062 18.5508C82.9395 22.6342 82.0604 26.8475 82.8146 26.8475C83.418 26.8475 84.8253 25.339 85.8306 23.8305C85.8306 23.8305 88.8485 31.3729 85.8306 41.9322C84.0598 48.1283 78.289 54 69.2381 54C60.1873 54 53.3994 44.1949 53.3994 32.8814Z" fill="#F85348"/>
<path d="M60.1899 40.9213C60.1899 49.3688 65.79 52.9891 69.2407 52.9891C72.2577 52.9891 76.2799 49.9727 78.2902 45.4468C80.3002 40.9213 79.8004 35.1389 79.0462 33.379C78.292 34.3846 76.3306 36.3959 74.5204 36.3959C72.7102 36.3959 72.2577 29.8592 72.2577 26.5908C72.2577 26.5908 68.4865 30.362 66.978 30.362C65.7712 30.362 65.4696 26.3394 65.4696 24.3281C63.7097 26.3394 60.1899 32.4739 60.1899 40.9213Z" fill="#FFE486"/>
<path d="M35 61.9048C35 61.4051 35.4051 61 35.9048 61H64.0952C64.5949 61 65 61.4051 65 61.9048V65C65 73.2843 58.2843 80 50 80V80C41.7157 80 35 73.2843 35 65V61.9048Z" stroke="#26282C" stroke-width="4"/>
</g>
<defs>
<clipPath id="clip0_2351_80353">
<rect width="100" height="100" fill="white"/>
</clipPath>
</defs>
</svg>
