<svg width="32" height="33" viewBox="0 0 32 33" fill="none" xmlns="http://www.w3.org/2000/svg">
<circle cx="16" cy="16.2031" r="16" fill="#3F86F1"/>
<path d="M9.15216 22.8807V21.5097C9.15216 21.0121 9.37454 20.5405 9.75848 20.2239L11.901 18.4571C12.1594 18.2441 12.5021 18.1634 12.8284 18.2388L18.7047 19.598L19.7782 19.8463C20.2125 19.9467 20.5884 20.217 20.822 20.5966L21.5171 21.7261C21.9321 22.4005 21.8153 23.2739 21.2376 23.8155L20.9377 24.0966C20.6288 24.3862 20.2213 24.5473 19.7978 24.5473H10.8188C9.89835 24.5473 9.15216 23.8012 9.15216 22.8807Z" fill="white" stroke="white" stroke-width="1.16667" stroke-linecap="round"/>
<path d="M6.83505 13.3492H8.65456M11.3699 13.3492H8.65456M8.65456 13.3492L11.9022 18.4529M11.9022 18.4529V18.4529C12.1605 18.2399 12.5033 18.1592 12.8295 18.2347L18.7058 19.5938M11.9022 18.4529L9.75962 20.2197C9.37568 20.5363 9.1533 21.0079 9.1533 21.5056V22.8765C9.1533 23.797 9.8995 24.5432 10.82 24.5432H19.799C20.2224 24.5432 20.63 24.382 20.9389 24.0924L21.2387 23.8113C21.8164 23.2697 21.9333 22.3963 21.5183 21.7219L20.8232 20.5924C20.5896 20.2128 20.2136 19.9426 19.7793 19.8421L18.7058 19.5938M17.4102 10.6341H22.2314M22.2314 10.6341L25.1684 7.86328M22.2314 10.6341L18.7058 19.5938M13.1432 21.2739H14.778M16.4127 21.2739H14.778M14.778 21.2739L15.5815 22.8807" stroke="white" stroke-width="1.16667" stroke-linecap="round"/>
<path d="M13.1436 21.2715H14.7784M16.4132 21.2715H14.7784M14.7784 21.2715L15.5819 22.8783" stroke="#3F86F1" stroke-width="1.16667" stroke-linecap="round"/>
</svg>
