<svg width="32" height="32" viewBox="0 0 32 32" fill="none" xmlns="http://www.w3.org/2000/svg">
<circle cx="16" cy="16" r="16" fill="#FFC633"/>
<rect x="13" y="20" width="6" height="1.5" rx="0.75" fill="#26282C"/>
<circle cx="9.5" cy="13.5" r="5" fill="white"/>
<circle cx="10" cy="14.5" r="2.5" fill="#26282C"/>
<circle cx="22.5" cy="13.5" r="5" fill="white"/>
<circle cx="22" cy="14.5" r="2.5" fill="#26282C"/>
<path d="M12.1873 7.21373C11.8905 7.62227 11.5012 7.95477 11.0512 8.18403C10.6013 8.4133 10.1034 8.53281 9.59844 8.53281C9.09344 8.53281 8.59562 8.4133 8.14567 8.18403C7.69571 7.95477 7.30641 7.62227 7.00958 7.21372" stroke="#26282C" stroke-width="1.5" stroke-linecap="round"/>
<path d="M24.9881 7.71987C24.6912 7.31132 24.3019 6.97882 23.852 6.74956C23.402 6.5203 22.9042 6.40078 22.3992 6.40078C21.8942 6.40078 21.3964 6.5203 20.9464 6.74956C20.4965 6.97882 20.1072 7.31132 19.8104 7.71987" stroke="#26282C" stroke-width="1.5" stroke-linecap="round"/>
</svg>
