<svg width="100" height="100" viewBox="0 0 100 100" fill="none" xmlns="http://www.w3.org/2000/svg">
<g clip-path="url(#clip0_2351_80326)">
<circle cx="50" cy="50" r="50" fill="#FFC1D8"/>
<path d="M18 36L39.6658 32.1797L18.7269 40.1225L40.3927 36.3022L19.414 44.0191L41.0798 40.1989L20.0838 47.8177L41.6751 43.5754" stroke="#26282C" stroke-width="4" stroke-linecap="round" stroke-linejoin="round"/>
<path d="M81.625 36L59.9592 32.1797L80.8981 40.1225L59.2323 36.3022L80.211 44.0191L58.5452 40.1989L79.5412 47.8177L57.9499 43.5754" stroke="#26282C" stroke-width="4" stroke-linecap="round" stroke-linejoin="round"/>
<path d="M35 57.8571C35 57.3838 35.3838 57 35.8571 57H64.1429C64.6162 57 65 57.3838 65 57.8571V60C65 68.2843 58.2843 75 50 75V75C41.7157 75 35 68.2843 35 60V57.8571Z" stroke="#26282C" stroke-width="4"/>
<circle cx="33.5" cy="35.5" r="1.5" fill="white"/>
<circle cx="64" cy="38" r="1" fill="white"/>
<circle cx="28" cy="43" r="3" fill="white"/>
<circle cx="68" cy="42" r="3" fill="white"/>
<circle cx="23" cy="41" r="1" fill="white"/>
<circle cx="75.5" cy="36.5" r="1.5" fill="white"/>
</g>
<defs>
<clipPath id="clip0_2351_80326">
<rect width="100" height="100" fill="white"/>
</clipPath>
</defs>
</svg>
