<svg width="24" height="24" viewBox="0 0 24 24" fill="none" xmlns="http://www.w3.org/2000/svg">
<rect x="4" y="4" width="16" height="16" rx="2" fill="#C0E8FF"/>
<path d="M6 10C6 7.79086 7.79086 6 10 6H14C16.2091 6 18 7.79086 18 10C18 11.1046 17.1046 12 16 12H8C6.89543 12 6 11.1046 6 10Z" fill="white"/>
<path fill-rule="evenodd" clip-rule="evenodd" d="M11.9991 7.94531C11.7537 7.94531 11.5547 7.74633 11.5547 7.50087L11.5547 6.55642L12.4436 6.55642L12.4436 7.50087C12.4436 7.74633 12.2446 7.94531 11.9991 7.94531Z" fill="#276487"/>
<path fill-rule="evenodd" clip-rule="evenodd" d="M14.7777 8.38628C14.5651 8.26355 14.4923 7.99174 14.615 7.77916L15.3373 6.52824L16.1071 6.97268L15.3848 8.22361C15.2621 8.43618 14.9903 8.50901 14.7777 8.38628Z" fill="#276487"/>
<path fill-rule="evenodd" clip-rule="evenodd" d="M9.22279 8.38715C9.01022 8.50988 8.7384 8.43705 8.61567 8.22447L7.89345 6.97355L8.66325 6.5291L9.38547 7.78003C9.5082 7.9926 9.43537 8.26442 9.22279 8.38715Z" fill="#276487"/>
<path d="M6.5 10C6.5 8.067 8.067 6.5 10 6.5H14C15.933 6.5 17.5 8.067 17.5 10C17.5 10.8284 16.8284 11.5 16 11.5H8C7.17157 11.5 6.5 10.8284 6.5 10Z" stroke="#51B4EC"/>
<path d="M12 9L11 11H13L12 9Z" fill="#276487"/>
</svg>
