<svg width="61" height="34" viewBox="0 0 61 34" fill="none" xmlns="http://www.w3.org/2000/svg">
<path d="M27.1256 33.539C27.1256 32.2688 27.0068 29.5495 26.5771 28.0711L32.0007 21.2344L37.2646 28.0831C36.7477 29.6781 36.735 32.2677 36.735 33.539C36.735 33.539 33.8479 33.6068 32.0006 33.608C30.0972 33.6093 27.1256 33.539 27.1256 33.539Z" fill="white"/>
<path d="M41.9414 18.7174C39.784 21.9038 36.1354 23.998 31.9977 23.998C27.8599 23.998 24.2113 21.9038 22.054 18.7174C20.3116 20.4951 17.8834 21.598 15.1977 21.598C9.89573 21.598 5.59766 17.2999 5.59766 11.998C5.59766 6.69602 9.89573 3.65 15.1977 3.65C16.8302 3.65 18.3676 4.05752 19.7137 4.77639C21.052 5.49117 22.8501 5.33704 23.9785 4.32273C26.1038 2.41237 28.915 1.25 31.9977 1.25C35.0803 1.25 37.8915 2.41237 40.0168 4.32273C41.1452 5.33704 42.9433 5.49118 44.2817 4.77639C45.6277 4.05752 47.1651 3.65 48.7977 3.65C54.0996 3.65 58.3977 6.69602 58.3977 11.998C58.3977 17.2999 54.0996 21.598 48.7977 21.598C46.1119 21.598 43.6838 20.4951 41.9414 18.7174Z" fill="#D3D3D3"/>
<path d="M58.3977 12C58.3977 12.1766 58.1436 12.1894 58.0999 12.0183C57.0406 7.86847 53.2775 4.8 48.7977 4.8C47.1651 4.8 45.6277 5.20752 44.2817 5.92639C42.9433 6.64118 41.1452 6.48704 40.0168 5.47273C37.8915 3.56237 35.0803 2.4 31.9977 2.4C28.915 2.4 26.1038 3.56237 23.9785 5.47273C22.8501 6.48704 21.0521 6.64117 19.7137 5.92639C18.3676 5.20752 16.8302 4.8 15.1977 4.8C10.7179 4.8 6.95474 7.86847 5.89541 12.0183C5.85172 12.1894 5.59766 12.1766 5.59766 12C5.59766 6.69807 9.89573 2.4 15.1977 2.4C16.8302 2.4 18.3676 2.80752 19.7137 3.52639C21.052 4.24117 22.8501 4.08704 23.9785 3.07273C26.1038 1.16237 28.915 0 31.9977 0C35.0803 0 37.8915 1.16237 40.0168 3.07273C41.1452 4.08704 42.9433 4.24117 44.2817 3.52639C45.6277 2.80752 47.1651 2.4 48.7977 2.4C54.0996 2.4 58.3977 6.69807 58.3977 12Z" fill="#E6E6E6"/>
<path d="M34.0607 27.1662C32.8419 26.3922 31.1576 26.3922 29.9388 27.1662C28.4529 28.1097 26.6901 28.6561 24.7997 28.6561C19.4978 28.6561 15.1997 24.358 15.1997 19.0561C15.1997 13.7541 19.4978 10.7578 24.7997 10.7578C26.6901 10.7578 28.4529 11.3042 29.9388 12.2477C31.1576 13.0217 32.8418 13.0217 34.0607 12.2477C35.5465 11.3042 37.3093 10.7578 39.1997 10.7578C44.5017 10.7578 48.7997 13.7541 48.7997 19.0561C48.7997 24.358 44.5017 28.6561 39.1997 28.6561C37.3093 28.6561 35.5465 28.1097 34.0607 27.1662Z" fill="#CCCCCC"/>
<path d="M48.7997 19.0531C48.7997 19.2298 48.5457 19.2426 48.502 19.0714C47.4426 14.9216 43.6795 11.8531 39.1997 11.8531C37.3093 11.8531 35.5465 12.3995 34.0607 13.343C32.8418 14.117 31.1576 14.117 29.9388 13.343C28.4529 12.3995 26.6901 11.8531 24.7997 11.8531C20.3199 11.8531 16.5568 14.9216 15.4975 19.0714C15.4538 19.2426 15.1997 19.2298 15.1997 19.0531C15.1997 13.7512 19.4978 9.45312 24.7997 9.45312C26.6901 9.45312 28.4529 9.99953 29.9388 10.943C31.1576 11.717 32.8418 11.717 34.0607 10.943C35.5465 9.99953 37.3093 9.45312 39.1997 9.45312C44.5017 9.45312 48.7997 13.7512 48.7997 19.0531Z" fill="white"/>
<path d="M10.3988 6.0046C10.3988 7.99283 8.78706 9.60461 6.79883 9.60461C4.81061 9.60461 3.19883 7.99283 3.19883 6.0046C3.19883 4.01638 4.81061 2.4046 6.79883 2.4046C8.78706 2.4046 10.3988 4.01638 10.3988 6.0046Z" fill="#BEBEBE"/>
<path d="M51.6796 6.65578C53.5087 6.65578 54.9916 5.17294 54.9916 3.34378C54.9916 1.51461 53.5087 0.0317745 51.6796 0.0317745C49.8504 0.0317745 48.3676 1.51461 48.3676 3.34378C48.3676 5.17294 49.8504 6.65578 51.6796 6.65578Z" fill="#BEBEBE"/>
<path d="M5.59883 16.8046C5.59883 18.1301 4.52431 19.2046 3.19883 19.2046C1.87335 19.2046 0.798828 18.1301 0.798828 16.8046C0.798828 15.4791 1.87335 14.4046 3.19883 14.4046C4.52431 14.4046 5.59883 15.4791 5.59883 16.8046Z" fill="#BEBEBE"/>
<path d="M60.7989 19.2046C60.7989 20.5301 59.7243 21.6046 58.3989 21.6046C57.0734 21.6046 55.9989 20.5301 55.9989 19.2046C55.9989 17.8791 57.0734 16.8046 58.3989 16.8046C59.7243 16.8046 60.7989 17.8791 60.7989 19.2046Z" fill="#BEBEBE"/>
</svg>
