<svg width="24" height="24" viewBox="0 0 24 24" fill="none" xmlns="http://www.w3.org/2000/svg">
<rect x="4.80859" y="7.06641" width="10.9289" height="13.8275" rx="1.2782" fill="#FEEDBA"/>
<path fill-rule="evenodd" clip-rule="evenodd" d="M11.2852 11.6677C11.2852 9.80174 12.7802 8.28906 14.6245 8.28906H16.8508C18.6951 8.28906 20.1902 9.80174 20.1902 11.6677V14.671C20.1902 16.5369 18.6951 18.0496 16.8508 18.0496H14.6245C12.7802 18.0496 11.2852 16.5369 11.2852 14.671V11.6677ZM14.6245 10.5415C14.0098 10.5415 13.5114 11.0457 13.5114 11.6677V14.671C13.5114 15.293 14.0098 15.7972 14.6245 15.7972H16.8508C17.4655 15.7972 17.9639 15.293 17.9639 14.671V11.6677C17.9639 11.0457 17.4655 10.5415 16.8508 10.5415H14.6245Z" fill="#FEEDBA"/>
<rect x="4.80859" y="6.25391" width="10.9289" height="13.4208" rx="2.55639" fill="url(#paint0_linear_2838_127598)"/>
<rect opacity="0.5" x="6.98145" y="12.5" width="0.744781" height="4.86401" rx="0.372391" fill="#E68F0D"/>
<rect opacity="0.5" x="9.95996" y="12.5" width="0.744781" height="4.86401" rx="0.372391" fill="#E68F0D"/>
<rect opacity="0.5" x="12.9404" y="12.5" width="0.744781" height="4.86401" rx="0.372391" fill="#E68F0D"/>
<path fill-rule="evenodd" clip-rule="evenodd" d="M11.8228 3.5736C12.0412 3.44726 12.2946 3.375 12.5648 3.375C13.154 3.375 13.6633 3.71876 13.9049 4.21757C14.0674 4.15646 14.2434 4.12305 14.4271 4.12305C15.2497 4.12305 15.9166 4.79311 15.9166 5.61967C15.9166 5.68486 15.9125 5.74909 15.9044 5.81209C16.3566 6.069 16.6619 6.55657 16.6619 7.11576C16.6619 7.94232 15.995 8.61238 15.1723 8.61238C14.8076 8.61238 14.4735 8.48069 14.2146 8.26207C13.9539 8.69669 13.4797 8.98738 12.9378 8.98738C12.4423 8.98738 12.0033 8.74428 11.7325 8.3703C11.5259 8.9476 10.9761 9.36043 10.3304 9.36043C10.0588 9.36043 9.80418 9.2874 9.58493 9.15981V10.1151C9.58493 10.7321 9.08475 11.2323 8.46776 11.2323C7.85076 11.2323 7.35059 10.7321 7.35059 10.1151V8.98738C6.99889 8.98685 6.67577 8.86387 6.4212 8.65859C6.16609 8.86431 5.84213 8.98738 5.48956 8.98738C4.6669 8.98738 4 8.31732 4 7.49076C4 6.93254 4.30417 6.4457 4.75507 6.18844C4.74849 6.12447 4.74512 6.05954 4.74512 5.99382C4.74512 4.96062 5.57874 4.12305 6.60707 4.12305C6.67228 4.12305 6.73671 4.12642 6.8002 4.13299C7.05635 3.68032 7.54069 3.375 8.09601 3.375C8.36649 3.375 8.62013 3.44743 8.83877 3.57405C9.23439 3.21713 9.75747 3 10.331 3C10.9043 3 11.4272 3.21695 11.8228 3.5736Z" fill="url(#paint1_linear_2838_127598)"/>
<defs>
<linearGradient id="paint0_linear_2838_127598" x1="10.273" y1="6.25391" x2="10.273" y2="19.6747" gradientUnits="userSpaceOnUse">
<stop offset="0.203125" stop-color="#FFCE3C"/>
<stop offset="1" stop-color="#FABC46"/>
</linearGradient>
<linearGradient id="paint1_linear_2838_127598" x1="10.3309" y1="3" x2="10.3309" y2="11.2323" gradientUnits="userSpaceOnUse">
<stop stop-color="white"/>
<stop offset="1" stop-color="#F7F4ED"/>
</linearGradient>
</defs>
</svg>
