<svg width="48" height="48" viewBox="0 0 48 48" fill="none" xmlns="http://www.w3.org/2000/svg">
<rect x="9.61328" y="14.1328" width="21.8577" height="27.6549" rx="2.55639" fill="#FEEDBA"/>
<path fill-rule="evenodd" clip-rule="evenodd" d="M22.5664 23.3315C22.5664 19.5996 25.5566 16.5742 29.2452 16.5742H33.6976C37.3862 16.5742 40.3764 19.5996 40.3764 23.3315V29.338C40.3764 33.07 37.3862 36.0953 33.6976 36.0953H29.2452C25.5566 36.0953 22.5664 33.07 22.5664 29.338V23.3315ZM29.2452 21.0791C28.0156 21.0791 27.0189 22.0875 27.0189 23.3315V29.338C27.0189 30.582 28.0156 31.5905 29.2452 31.5905H33.6976C34.9272 31.5905 35.9239 30.582 35.9239 29.338V23.3315C35.9239 22.0875 34.9272 21.0791 33.6976 21.0791H29.2452Z" fill="#FEEDBA"/>
<rect x="9.61328" y="12.5078" width="21.8577" height="26.8415" rx="5.11279" fill="url(#paint0_linear_2290_92099)"/>
<rect opacity="0.5" x="13.959" y="25" width="1.48956" height="9.72802" rx="0.744781" fill="#E68F0D"/>
<rect opacity="0.5" x="19.916" y="25" width="1.48956" height="9.72802" rx="0.744781" fill="#E68F0D"/>
<rect opacity="0.5" x="25.877" y="25" width="1.48956" height="9.72802" rx="0.744781" fill="#E68F0D"/>
<path fill-rule="evenodd" clip-rule="evenodd" d="M23.6407 7.14631C24.0778 6.89328 24.5849 6.74854 25.1256 6.74854C26.3043 6.74854 27.323 7.43625 27.8061 8.43409C28.1311 8.31192 28.4829 8.24512 28.8502 8.24512C30.4955 8.24512 31.8293 9.58524 31.8293 11.2384C31.8293 11.3689 31.821 11.4975 31.8049 11.6236C32.7093 12.1374 33.3198 13.1125 33.3198 14.2309C33.3198 15.884 31.986 17.2241 30.3406 17.2241C29.6112 17.2241 28.943 16.9607 28.4251 16.5234C27.9037 17.3925 26.9553 17.9738 25.8717 17.9738C24.881 17.9738 24.0032 17.4879 23.4616 16.7404C23.0487 17.8956 21.9489 18.7218 20.657 18.7218C20.1137 18.7218 19.6045 18.5757 19.166 18.3205V20.2298C19.166 21.4638 18.1656 22.4641 16.9316 22.4641C15.6976 22.4641 14.6973 21.4638 14.6973 20.2298V17.9733C13.994 17.9722 13.3479 17.7264 12.8388 17.3159C12.3285 17.7275 11.6805 17.9737 10.9752 17.9737C9.32989 17.9737 7.99609 16.6336 7.99609 14.9805C7.99609 13.8641 8.60443 12.8904 9.50623 12.3758C9.49307 12.2479 9.48633 12.1181 9.48633 11.9867C9.48633 9.92027 11.1536 8.24512 13.2102 8.24512C13.3407 8.24512 13.4695 8.25185 13.5965 8.265C14.1088 7.35966 15.0775 6.74902 16.1881 6.74902C16.7293 6.74902 17.2369 6.89404 17.6743 7.14751C18.4655 6.43403 19.5113 6 20.6581 6C21.8043 6 22.8497 6.43354 23.6407 7.14631Z" fill="url(#paint1_linear_2290_92099)"/>
<defs>
<linearGradient id="paint0_linear_2290_92099" x1="20.5421" y1="12.5078" x2="20.5421" y2="39.3493" gradientUnits="userSpaceOnUse">
<stop offset="0.203125" stop-color="#FFCE3C"/>
<stop offset="1" stop-color="#FABC46"/>
</linearGradient>
<linearGradient id="paint1_linear_2290_92099" x1="20.6579" y1="6" x2="20.6579" y2="22.4639" gradientUnits="userSpaceOnUse">
<stop stop-color="white"/>
<stop offset="1" stop-color="#F7F4ED"/>
</linearGradient>
</defs>
</svg>
