<svg width="28" height="28" viewBox="0 0 28 28" fill="none" xmlns="http://www.w3.org/2000/svg">
<circle cx="14" cy="14" r="14" fill="#2056A8"/>
<path d="M12.9011 21.8781C6.7989 20.5829 7.67157 14.5068 9.89254 10.9236C10.0425 10.7197 10.28 10.305 10.28 10.6717C10.28 11.1572 10.6025 11.3776 10.8991 11.3776C11.1957 11.3776 12.3264 10.9204 12.5118 10.093C13.6397 6.6749 14.7342 5.82612 15.3274 6.02782C15.7912 6.18553 17.016 6.79533 18.7956 11.323C20.5752 15.8507 19.5371 18.8647 18.7956 19.8021C18.0417 20.7275 15.7188 22.4761 12.9011 21.8781Z" stroke="white" stroke-width="1.5"/>
<path d="M14.0197 19.0537C10.6309 18.9325 11.3345 15.728 12.1099 14.1408L12.1108 14.1389C12.3312 13.6878 12.6559 13.0232 13.0452 13.9364C13.435 14.8509 13.7892 14.6808 13.9175 14.4815C14.0066 14.3679 14.2382 13.9833 14.4519 13.3534C14.903 11.7896 15.2879 11.9846 15.7227 12.9604C16.165 13.953 16.5267 15.6739 16.5267 16.8508C16.5503 17.618 16.0819 19.1325 14.0197 19.0537Z" fill="white"/>
</svg>
