<svg width="52" height="52" viewBox="0 0 52 52" fill="none" xmlns="http://www.w3.org/2000/svg">
<path d="M5.198 17.1666C5.198 12.0785 9.58286 12.0742 16.1602 12.0742V15.8032C13.6267 15.8032 8.48665 15.2153 8.48665 17.571C8.48665 19.9268 12.4817 22.2496 14.3819 22.925V30.0466C10.265 30.7245 11.215 27.3315 10.265 25.6366C7.82096 21.2763 5.198 21.1043 5.198 17.1666Z" fill="url(#paint0_linear_8955_22778)"/>
<rect x="23.4688" y="34.0625" width="4.38486" height="7.85259" fill="url(#paint1_linear_8955_22778)"/>
<path d="M45.759 17.1666C45.759 12.0785 41.3742 12.0742 34.7969 12.0742V15.8032C37.3304 15.8032 42.4704 15.2153 42.4704 17.571C42.4704 19.9268 38.4753 22.2496 36.5752 22.925V30.0466C40.6921 30.7245 39.742 27.3315 40.6921 25.6366C43.1361 21.2763 45.759 21.1043 45.759 17.1666Z" fill="url(#paint2_linear_8955_22778)"/>
<path d="M13.2383 15.5567C13.2383 13.6334 14.7974 12.0742 16.7207 12.0742H34.6034C36.5267 12.0742 38.0858 13.6334 38.0858 15.5567V26.3492C38.0858 33.2107 32.5235 38.773 25.6621 38.773C18.8006 38.773 13.2383 33.2107 13.2383 26.3493V15.5567Z" fill="url(#paint3_linear_8955_22778)"/>
<path d="M17.6211 46.0104C17.6211 46.3499 17.8962 46.625 18.2356 46.625H33.0844C33.4238 46.625 33.6989 46.3499 33.6989 46.0104C33.6989 43.7477 31.8646 41.9134 29.6019 41.9134H21.7181C19.4554 41.9134 17.6211 43.7477 17.6211 46.0104Z" fill="url(#paint4_linear_8955_22778)"/>
<g filter="url(#filter0_d_8955_22778)">
<circle cx="25.2472" cy="24.3644" r="6.00889" fill="#FFEBA3"/>
<ellipse cx="25.2473" cy="24.3645" rx="5.03245" ry="5.03244" fill="url(#paint5_linear_8955_22778)"/>
<path d="M23.8203 26.5102V22.2617H25.4868C26.4521 22.2617 27.0067 22.8573 27.0067 23.6935C27.0067 24.5415 26.4433 25.1253 25.4634 25.1253H24.7005V26.5102H23.8203ZM24.7005 24.4153H25.3225C25.8448 24.4153 26.1001 24.1219 26.0971 23.6935C26.1001 23.271 25.8448 22.9864 25.3225 22.9835H24.7005V24.4153Z" fill="white"/>
</g>
<path d="M38.2461 33.7236C38.2461 33.3822 38.5228 33.1055 38.8642 33.1055H40.1005C40.4418 33.1055 40.7186 33.3822 40.7186 33.7236V34.9598C40.7186 35.3012 40.4418 35.578 40.1005 35.578H38.8642C38.5228 35.578 38.2461 35.3012 38.2461 34.9598V33.7236Z" fill="#AAF398"/>
<path d="M5.94922 38.9814C5.94922 38.64 6.22596 38.3633 6.56734 38.3633H7.80359C8.14497 38.3633 8.42172 38.64 8.42172 38.9814V40.2177C8.42172 40.559 8.14497 40.8358 7.80359 40.8358H6.56734C6.22596 40.8358 5.94922 40.559 5.94922 40.2177V38.9814Z" fill="#AAF398"/>
<path d="M13.4609 6.68453C13.4609 6.34315 13.7377 6.06641 14.0791 6.06641H15.3153C15.6567 6.06641 15.9334 6.34315 15.9334 6.68453V7.92078C15.9334 8.26216 15.6567 8.53891 15.3153 8.53891H14.0791C13.7377 8.53891 13.4609 8.26216 13.4609 7.92078V6.68453Z" fill="#AAF398"/>
<path d="M36.7461 8.18844C36.7461 7.84706 37.0228 7.57031 37.3642 7.57031H38.6005C38.9418 7.57031 39.2186 7.84706 39.2186 8.18844V9.42469C39.2186 9.76607 38.9418 10.0428 38.6005 10.0428H37.3642C37.0228 10.0428 36.7461 9.76607 36.7461 9.42469V8.18844Z" fill="#99C2FF"/>
<path d="M5.19922 26.9619C5.19922 26.6205 5.47596 26.3438 5.81734 26.3438H7.05359C7.39497 26.3438 7.67172 26.6205 7.67172 26.9619V28.1981C7.67172 28.5395 7.39497 28.8162 7.05359 28.8162H5.81734C5.47596 28.8162 5.19922 28.5395 5.19922 28.1981V26.9619Z" fill="#99C2FF"/>
<path d="M44.2578 32.2197C44.2578 31.8783 44.5346 31.6016 44.8759 31.6016H46.1122C46.4536 31.6016 46.7303 31.8783 46.7303 32.2197V33.4559C46.7303 33.7973 46.4536 34.0741 46.1122 34.0741H44.8759C44.5346 34.0741 44.2578 33.7973 44.2578 33.4559V32.2197Z" fill="#99C2FF"/>
<path d="M11.207 34.4736C11.207 34.1322 11.4838 33.8555 11.8252 33.8555H13.0614C13.4028 33.8555 13.6795 34.1322 13.6795 34.4736V35.7098C13.6795 36.0512 13.4028 36.328 13.0614 36.328H11.8252C11.4838 36.328 11.207 36.0512 11.207 35.7098V34.4736Z" fill="#FFB4B4"/>
<path d="M42.7539 25.4619C42.7539 25.1205 43.0307 24.8438 43.372 24.8438H44.6083C44.9497 24.8438 45.2264 25.1205 45.2264 25.4619V26.6981C45.2264 27.0395 44.9497 27.3162 44.6083 27.3162H43.372C43.0307 27.3162 42.7539 27.0395 42.7539 26.6981V25.4619Z" fill="#FFB4B4"/>
<path d="M27.7344 8.93453C27.7344 8.59315 28.0111 8.31641 28.3525 8.31641H29.5887C29.9301 8.31641 30.2069 8.59315 30.2069 8.93453V10.1708C30.2069 10.5122 29.9301 10.7889 29.5887 10.7889H28.3525C28.0111 10.7889 27.7344 10.5122 27.7344 10.1708V8.93453Z" fill="#FFB4B4"/>
<defs>
<filter id="filter0_d_8955_22778" x="15.7716" y="15.7555" width="18.9529" height="18.9529" filterUnits="userSpaceOnUse" color-interpolation-filters="sRGB">
<feFlood flood-opacity="0" result="BackgroundImageFix"/>
<feColorMatrix in="SourceAlpha" type="matrix" values="0 0 0 0 0 0 0 0 0 0 0 0 0 0 0 0 0 0 127 0" result="hardAlpha"/>
<feOffset dy="0.866667"/>
<feGaussianBlur stdDeviation="1.73333"/>
<feComposite in2="hardAlpha" operator="out"/>
<feColorMatrix type="matrix" values="0 0 0 0 0.0762563 0 0 0 0 0.2625 0 0 0 0 0.0459375 0 0 0 0.15 0"/>
<feBlend mode="normal" in2="BackgroundImageFix" result="effect1_dropShadow_8955_22778"/>
<feBlend mode="normal" in="SourceGraphic" in2="effect1_dropShadow_8955_22778" result="shape"/>
</filter>
<linearGradient id="paint0_linear_8955_22778" x1="14.0286" y1="12.9522" x2="2.17672" y2="27.1235" gradientUnits="userSpaceOnUse">
<stop stop-color="#A8F29C"/>
<stop offset="0.747259" stop-color="#58D84D"/>
<stop offset="1" stop-color="#75CC79"/>
</linearGradient>
<linearGradient id="paint1_linear_8955_22778" x1="24.3214" y1="34.4442" x2="29.429" y2="38.0985" gradientUnits="userSpaceOnUse">
<stop stop-color="#A8F29C"/>
<stop offset="0.747259" stop-color="#58D84D"/>
<stop offset="1" stop-color="#75CC79"/>
</linearGradient>
<linearGradient id="paint2_linear_8955_22778" x1="36.9284" y1="12.9522" x2="48.9582" y2="22.3074" gradientUnits="userSpaceOnUse">
<stop stop-color="#A8F29C"/>
<stop offset="0.747259" stop-color="#58D84D"/>
<stop offset="1" stop-color="#75CC79"/>
</linearGradient>
<linearGradient id="paint3_linear_8955_22778" x1="18.0697" y1="13.3721" x2="36.1379" y2="34.9167" gradientUnits="userSpaceOnUse">
<stop stop-color="#A8F29C"/>
<stop offset="0.747259" stop-color="#58D84D"/>
<stop offset="1" stop-color="#75CC79"/>
</linearGradient>
<linearGradient id="paint4_linear_8955_22778" x1="16.0884" y1="50.005" x2="17.2523" y2="40.6106" gradientUnits="userSpaceOnUse">
<stop stop-color="#A8F29C"/>
<stop offset="0.747259" stop-color="#58D84D"/>
<stop offset="1" stop-color="#75CC79"/>
</linearGradient>
<linearGradient id="paint5_linear_8955_22778" x1="25.2473" y1="19.332" x2="25.2473" y2="29.3969" gradientUnits="userSpaceOnUse">
<stop stop-color="#FFDA55"/>
<stop offset="0.0001" stop-color="#FFDA55"/>
<stop offset="1" stop-color="#FFDD65"/>
</linearGradient>
</defs>
</svg>
