<svg width="81" height="80" viewBox="0 0 81 80" fill="none" xmlns="http://www.w3.org/2000/svg">
<path d="M25.5005 30V17.5C25.5005 16.25 26.8896 15 28.1396 15C29.3896 15 53.4301 15 53.4301 15C54.153 15 54.8048 15.2977 55.2394 15.7628L65.563 25.3642C65.9222 25.7067 66.1395 26.1679 66.1395 26.6736V56.25C66.1395 57.5 65.6396 58.9682 63.1396 58.9682H60.7082" fill="url(#paint0_linear_2797_115307)"/>
<path d="M55.1029 15.7656L65.4265 25.3681L65.3589 25.3106C64.9909 24.9803 64.4941 24.7886 63.9443 24.7886H56.9415C56.2512 24.7886 55.6915 24.2289 55.6915 23.5386V17.2099C55.6915 16.6755 55.4874 16.1901 55.146 15.8067L55.1029 15.7656Z" fill="#91B8D9"/>
<path fill-rule="evenodd" clip-rule="evenodd" d="M25.5 25H18V28.75V35V61.25C18 64.0114 20.2386 66.25 23 66.25H55.5C58.2614 66.25 60.5 64.0114 60.5 61.25V33.75C60.5 30.9886 58.2614 28.75 55.5 28.75H25.5V25Z" fill="url(#paint1_linear_2797_115307)"/>
<path d="M25.5 28.75H21.4554C19.6411 28.75 18.0585 27.434 18.0017 25.7256C17.9427 23.9556 19.4466 22.5 21.3119 22.5H25.5V28.75Z" fill="#BA9024"/>
<path opacity="0.01" fill-rule="evenodd" clip-rule="evenodd" d="M53.8987 35.2812V60.6471H26.2812V35.2812H53.8987Z" fill="white"/>
<path d="M44.1764 40.1719C39.6608 45.9364 42.7908 48.1129 42.5695 52.5774C44.7304 53.0596 45.562 53.3939 46.7905 53.5617C48.6855 50.0289 50.3199 46.0378 49.0509 41.5169C48.3987 39.1751 45.0696 39.1726 44.1777 40.1719H44.1764Z" fill="white"/>
<path d="M42.2327 53.9062C38.0824 60.4509 45.787 63.0595 46.3803 54.9169L42.2327 53.9062Z" fill="white"/>
<path d="M34.822 36.6329C33.9301 35.6335 30.5997 35.636 29.9488 37.9779C28.6797 42.4975 30.3142 46.4899 32.2092 50.0227C33.4364 49.8549 34.268 49.5205 36.4289 49.0384C36.2076 44.5738 39.3376 42.3973 34.822 36.6329Z" fill="white"/>
<path d="M32.6172 51.3778C33.2091 59.5204 40.9138 56.9118 36.7648 50.3672L32.6172 51.3778Z" fill="white"/>
<defs>
<linearGradient id="paint0_linear_2797_115307" x1="45.82" y1="15" x2="45.82" y2="58.9682" gradientUnits="userSpaceOnUse">
<stop stop-color="#DEF0FF"/>
<stop offset="1" stop-color="#BFDDF9"/>
</linearGradient>
<linearGradient id="paint1_linear_2797_115307" x1="24.25" y1="25" x2="51.75" y2="67.5" gradientUnits="userSpaceOnUse">
<stop stop-color="#FFDF37"/>
<stop offset="1" stop-color="#FFB11B"/>
</linearGradient>
</defs>
</svg>
