<svg width="32" height="33" viewBox="0 0 32 33" fill="none" xmlns="http://www.w3.org/2000/svg">
<rect width="32" height="32" rx="8" fill="white"/>
<path d="M29.1789 13.0894C29.1789 20.6629 19.3194 29.8796 16.7144 32.1826C16.3527 32.5024 15.8261 32.5024 15.4645 32.1826C12.8594 29.8796 3 20.6629 3 13.0894C3 5.86034 8.86034 0 16.0894 0C23.3185 0 29.1789 5.86034 29.1789 13.0894Z" fill="#3F86F1"/>
<path fill-rule="evenodd" clip-rule="evenodd" d="M14.2195 7.48047C13.9613 7.48047 13.752 7.68977 13.752 7.94795V11.2203H10.4797C10.2215 11.2203 10.0122 11.4296 10.0122 11.6878V15.4276C10.0122 15.6858 10.2215 15.8951 10.4797 15.8951H13.752V19.1675C13.752 19.4256 13.9613 19.6349 14.2195 19.6349H17.9594C18.2175 19.6349 18.4268 19.4256 18.4268 19.1675V15.8951H21.6992C21.9574 15.8951 22.1667 15.6858 22.1667 15.4276V11.6878C22.1667 11.4296 21.9574 11.2203 21.6992 11.2203H18.4268V7.94795C18.4268 7.68977 18.2175 7.48047 17.9594 7.48047H14.2195Z" fill="white"/>
</svg>
