<svg width="24" height="24" viewBox="0 0 24 24" fill="none" xmlns="http://www.w3.org/2000/svg">
<circle cx="12" cy="12" r="12" fill="#FFD633"/>
<path d="M19.1999 8.79531C19.1999 8.48014 19.1378 8.16805 19.0172 7.87687C18.8966 7.58569 18.7198 7.32112 18.497 7.09826C18.2741 6.8754 18.0095 6.69861 17.7183 6.578C17.4272 6.45739 17.1151 6.39531 16.7999 6.39531C16.4847 6.39531 16.1726 6.45739 15.8815 6.578C15.5903 6.69861 15.3257 6.8754 15.1028 7.09826C14.88 7.32112 14.7032 7.58569 14.5826 7.87687C14.462 8.16805 14.3999 8.48014 14.3999 8.79531" stroke="#26282C" stroke-width="1.125" stroke-linecap="round"/>
<path d="M15.375 12.75C15.375 13.2425 15.2877 13.7301 15.1181 14.1851C14.9485 14.64 14.6999 15.0534 14.3865 15.4017C14.0731 15.7499 13.701 16.0261 13.2916 16.2145C12.8821 16.403 12.4432 16.5 12 16.5C11.5568 16.5 11.1179 16.403 10.7084 16.2145C10.299 16.0261 9.92691 15.7499 9.61351 15.4017C9.30012 15.0534 9.05152 14.64 8.88191 14.1851C8.7123 13.7301 8.625 13.2425 8.625 12.75" stroke="#26282C" stroke-width="1.125" stroke-linecap="round"/>
<path d="M9.60005 8.79531C9.60005 8.15879 9.34719 7.54834 8.89711 7.09826C8.44702 6.64817 7.83657 6.39531 7.20005 6.39531C6.56353 6.39531 5.95308 6.64817 5.50299 7.09826C5.05291 7.54834 4.80005 8.15879 4.80005 8.79531" stroke="#26282C" stroke-width="1.125" stroke-linecap="round"/>
<path d="M6.75 1.90323C6.75 3.58065 4.44 5.32258 3.66 5.90323C3.48 6.03226 3.27 6.03226 3.12 5.90323C2.28 5.35484 0 3.58065 0 1.90323C0 0.83871 0.78 0 1.77 0C2.49 0 3.09 0.451613 3.39 1.09677C3.66 0.451613 4.29 0 5.01 0C5.94 0 6.75 0.870968 6.75 1.90323Z" fill="#F56455"/>
<path d="M24 16.3911C24 18.2782 21.4333 20.2379 20.5667 20.8911C20.3667 21.0363 20.1333 21.0363 19.9667 20.8911C19.0333 20.2742 16.5 18.2782 16.5 16.3911C16.5 15.1935 17.3667 14.25 18.4667 14.25C19.2667 14.25 19.9333 14.7581 20.2667 15.4839C20.5667 14.7581 21.2667 14.25 22.0667 14.25C23.1 14.25 24 15.2298 24 16.3911Z" fill="#F56455"/>
<path d="M6.5625 18.6774C6.5625 19.9355 4.83 21.2419 4.245 21.6774C4.11 21.7742 3.9525 21.7742 3.84 21.6774C3.21 21.2661 1.5 19.9355 1.5 18.6774C1.5 17.879 2.085 17.25 2.8275 17.25C3.3675 17.25 3.8175 17.5887 4.0425 18.0726C4.245 17.5887 4.7175 17.25 5.2575 17.25C5.955 17.25 6.5625 17.9032 6.5625 18.6774Z" fill="#F56455"/>
</svg>
