<svg width="24" height="24" viewBox="0 0 24 24" fill="none" xmlns="http://www.w3.org/2000/svg">
<circle cx="12.2812" cy="16.1562" r="4.21875" fill="#33D07B"/>
<circle cx="11.0156" cy="15.3125" r="0.421875" fill="#0F8143"/>
<circle cx="13.5469" cy="15.3125" r="0.421875" fill="#0F8143"/>
<rect x="10.875" y="16.6061" width="2.8125" height="0.675" rx="0.3375" fill="#0F8143"/>
<circle cx="7.21875" cy="7.71875" r="4.21875" fill="#FFE03C"/>
<path d="M8.50235 8.13582C8.6798 8.19348 8.7797 8.38653 8.6879 8.54897C8.5696 8.7583 8.40726 8.94111 8.21064 9.08397C7.92233 9.29343 7.57511 9.40625 7.21875 9.40625C6.86238 9.40625 6.51517 9.29343 6.22686 9.08397C6.03024 8.94111 5.8679 8.7583 5.7496 8.54897C5.6578 8.38653 5.7577 8.19348 5.93515 8.13582C6.1126 8.07816 6.29944 8.18077 6.41207 8.32952C6.47175 8.40835 6.54304 8.47849 6.62402 8.53733C6.79688 8.66292 7.00507 8.73057 7.21875 8.73057C7.43243 8.73057 7.64062 8.66292 7.81348 8.53733C7.89446 8.47849 7.96574 8.40836 8.02543 8.32952C8.13806 8.18077 8.3249 8.07816 8.50235 8.13582Z" fill="#B08515"/>
<circle cx="5.95312" cy="6.875" r="0.421875" fill="#B08515"/>
<circle cx="8.48438" cy="6.875" r="0.421875" fill="#B08515"/>
<circle cx="16.7812" cy="7.71875" r="4.21875" fill="#FF7373"/>
<path d="M18.0649 9.27043C18.2423 9.21277 18.3422 9.01972 18.2504 8.85728C18.1321 8.64795 17.9698 8.46514 17.7731 8.32228C17.4848 8.11282 17.1376 8 16.7812 8C16.4249 8 16.0777 8.11282 15.7894 8.32228C15.5927 8.46514 15.4304 8.64795 15.3121 8.85728C15.2203 9.01972 15.3202 9.21277 15.4976 9.27043C15.6751 9.32809 15.8619 9.22548 15.9746 9.07673C16.0343 8.9979 16.1055 8.92776 16.1865 8.86892C16.3594 8.74333 16.5676 8.67568 16.7812 8.67568C16.9949 8.67568 17.2031 8.74333 17.376 8.86892C17.457 8.92776 17.5282 8.99789 17.5879 9.07673C17.7006 9.22548 17.8874 9.32809 18.0649 9.27043Z" fill="#BC2A2A"/>
<circle cx="15.5156" cy="6.875" r="0.421875" fill="#BC2A2A"/>
<circle cx="18.0469" cy="6.875" r="0.421875" fill="#BC2A2A"/>
</svg>
