<svg width="20" height="21" viewBox="0 0 20 21" fill="none" xmlns="http://www.w3.org/2000/svg">
<path fill-rule="evenodd" clip-rule="evenodd" d="M7.37105 4.37109C6.64514 4.37109 6.05666 4.95957 6.05666 5.68548V6.48433H4.56331C4.2522 6.48433 4 6.73653 4 7.04764C4 7.35874 4.2522 7.61095 4.56331 7.61095H5.01641L5.39844 15.1143C5.43403 15.8133 6.01119 16.3619 6.71113 16.3619H13.2891C13.9891 16.3619 14.5662 15.8133 14.6018 15.1143L14.9839 7.61095H15.4368C15.7479 7.61095 16.0001 7.35874 16.0001 7.04764C16.0001 6.73653 15.7479 6.48433 15.4368 6.48433H13.943V5.68548C13.943 4.95956 13.3545 4.37109 12.6286 4.37109H7.37105ZM12.8164 6.48433V5.68548C12.8164 5.58178 12.7323 5.49771 12.6286 5.49771H7.37105C7.26735 5.49771 7.18328 5.58178 7.18328 5.68548V6.48433H12.8164ZM6.14528 7.62653L6.5236 15.057C6.52869 15.1569 6.61114 15.2352 6.71113 15.2352H13.2891C13.3891 15.2352 13.4716 15.1569 13.4767 15.057L13.855 7.62653H6.14528ZM8.83855 13.8553C8.5276 13.8651 8.26758 13.6209 8.25778 13.31L8.13159 9.30515C8.12179 8.99419 8.36593 8.73417 8.67688 8.72438C8.98783 8.71458 9.24785 8.95871 9.25765 9.26966L9.38384 13.2745C9.39364 13.5855 9.14951 13.8455 8.83855 13.8553ZM11.8696 9.32381C11.8852 9.01309 11.646 8.74853 11.3353 8.73289C11.0246 8.71725 10.76 8.95645 10.7444 9.26716L10.5433 13.2615C10.5277 13.5722 10.7669 13.8367 11.0776 13.8524C11.3883 13.868 11.6529 13.6288 11.6685 13.3181L11.8696 9.32381Z" fill="#666666"/>
</svg>
