<svg width="60" height="60" viewBox="0 0 60 60" fill="none" xmlns="http://www.w3.org/2000/svg">
<circle cx="30.5" cy="30.5" r="15" fill="url(#paint0_linear_3692_85165)"/>
<rect x="29.25" y="7" width="2.5" height="5.5" rx="1.25" fill="#FFCD1A"/>
<rect x="29.25" y="48.5" width="2.5" height="5.5" rx="1.25" fill="#FFCD1A"/>
<g opacity="0.5">
<rect x="7" y="31.75" width="2.5" height="5.5" rx="1.25" transform="rotate(-90 7 31.75)" fill="#FFCD1A"/>
<rect x="48.5" y="31.75" width="2.5" height="5.5" rx="1.25" transform="rotate(-90 48.5 31.75)" fill="#FFCD1A"/>
</g>
<rect x="13" y="14.7656" width="2.5" height="5.5" rx="1.25" transform="rotate(-45 13 14.7656)" fill="#FFCD1A"/>
<rect x="42.3438" y="44.1094" width="2.5" height="5.5" rx="1.25" transform="rotate(-45 42.3438 44.1094)" fill="#FFCD1A"/>
<g opacity="0.7">
<rect x="46.2344" y="13" width="2.5" height="5.5" rx="1.25" transform="rotate(45 46.2344 13)" fill="#FFCD1A"/>
<rect x="16.8906" y="42.3438" width="2.5" height="5.5" rx="1.25" transform="rotate(45 16.8906 42.3438)" fill="#FFCD1A"/>
</g>
<defs>
<linearGradient id="paint0_linear_3692_85165" x1="20.5" y1="17" x2="39" y2="43.5" gradientUnits="userSpaceOnUse">
<stop stop-color="#FFE661"/>
<stop offset="1" stop-color="#F9C91F"/>
</linearGradient>
</defs>
</svg>
