<svg width="25" height="24" viewBox="0 0 25 24" fill="none" xmlns="http://www.w3.org/2000/svg">
<g id="Group 1321316689">
<g id="Group 1261167699">
<path id="Vector 1561" d="M11.1681 21.8322C3.77506 20.2578 4.83234 12.8719 7.52313 8.51618C7.70477 8.26831 7.99252 7.76431 7.99252 8.20997C7.99252 8.80018 8.38326 9.06811 8.7426 9.06811C9.10194 9.06811 10.4718 8.51228 10.6964 7.50659C12.0629 3.35163 13.389 2.31989 14.1077 2.56507C14.6696 2.75678 16.1535 3.49802 18.3095 9.00173C20.4656 14.5054 19.2079 18.1692 18.3095 19.3086C17.3962 20.4336 14.5819 22.5591 11.1681 21.8322Z" fill="#FF632C"/>
<path id="Vector 1562" d="M12.5309 19.2605C7.62877 19.0852 8.64662 14.4495 9.76832 12.1536L9.76966 12.1508C10.0884 11.4983 10.5582 10.5369 11.1212 11.8579C11.6851 13.1808 12.1975 12.9348 12.3831 12.6464C12.512 12.4821 12.847 11.9258 13.1562 11.0145C13.8087 8.75243 14.3655 9.03454 14.9945 10.4461C15.6343 11.8819 16.1575 14.3713 16.1575 16.0739C16.1916 17.1836 15.514 19.3745 12.5309 19.2605Z" fill="#FFC800"/>
</g>
</g>
</svg>
