<svg width="15" height="17" viewBox="0 0 15 17" fill="none" xmlns="http://www.w3.org/2000/svg">
<g id="Group 1619">
<path id="Vector 137" d="M6.21749 4.08673C8.24345 4.19896 9.64576 2.50615 10.1623 1.44974C10.4208 1.0031 11.0891 1.26364 11.2544 1.44974L13.735 4.16784C13.7991 4.23812 13.8513 4.31802 13.9025 4.39825C14.2355 4.92104 14.9887 5.50546 14.1047 6.78616L6.41503 15.3454C6.37799 15.3866 6.33776 15.4249 6.29376 15.4586C5.20671 16.2913 3.71333 16.6192 2.36519 15.4073C0.637837 13.8546 3.82406 10.3369 4.6239 8.66985C4.67928 8.55444 4.70211 8.42783 4.70211 8.29982L4.7021 5.26064C4.7021 4.52715 5.48513 4.04616 6.21749 4.08673Z" fill="#C5CDF8"/>
<path id="Vector 138" d="M5.09262 2.74477C7.37953 3.2445 8.96633 1.37116 9.5186 0.241395C9.77154 -0.195795 10.1583 0.0592327 10.32 0.241395L12.5917 2.7762C12.9601 3.18726 12.7821 3.87068 12.9512 4.39614C12.9763 4.47437 13.0098 4.55713 13.0475 4.64742C13.1866 4.98018 13.1079 5.35609 12.8643 5.62202L5.7786 13.3571C4.71004 14.4501 3.35859 15.172 2.30576 14.7233C-0.899951 13.3571 0.0795661 10.8068 0.702899 9.25844L3.73564 3.29304C3.98076 2.81089 4.5642 2.6293 5.09262 2.74477Z" fill="#6267DE"/>
<g id="Mask group">
<mask id="mask0_916_35958" style="mask-type:alpha" maskUnits="userSpaceOnUse" x="10" y="1" width="5" height="8">
<path id="Vector 139" d="M10.8253 7.94549C9.47348 5.75503 10.065 3.49264 10.8405 2.0898C11.1207 1.58289 11.7998 1.54488 12.1974 1.96608C16.2734 6.28425 13.8723 7.94952 11.6857 8.33249C11.3467 8.39186 11.0061 8.23837 10.8253 7.94549Z" fill="#D9D9D9"/>
</mask>
<g mask="url(#mask0_916_35958)">
<path id="Vector 138_2" d="M4.42041 2.15409C6.77912 2.67974 8.41611 0.805168 8.98377 -0.322828C9.2423 -0.756897 9.63759 -0.50369 9.80292 -0.322828L13.3526 3.47527C14.0079 4.12637 13.6257 4.83173 13.3526 5.10303L5.70713 13.2418C4.61492 14.327 3.52271 14.847 1.61134 14.0557C-1.6653 12.6992 -0.664111 10.1672 -0.0269867 8.62983L3.0826 2.6884C3.32929 2.21706 3.90115 2.03837 4.42041 2.15409Z" fill="#4D51BD"/>
</g>
</g>
<path id="Stroke-3 (Stroke)" fill-rule="evenodd" clip-rule="evenodd" d="M2.23557 5.54409C2.27452 5.29863 2.50509 5.13123 2.75054 5.17019L5.34634 5.58218C5.59179 5.62114 5.75919 5.8517 5.72023 6.09716C5.68128 6.34262 5.45071 6.51001 5.20526 6.47106L2.60946 6.05906C2.36401 6.0201 2.19661 5.78954 2.23557 5.54409Z" fill="white"/>
<path id="Stroke-5 (Stroke)" fill-rule="evenodd" clip-rule="evenodd" d="M1.02072 7.38002C1.05968 7.13457 1.29024 6.96717 1.5357 7.00613L4.13149 7.41812C4.37695 7.45708 4.54435 7.68764 4.50539 7.9331C4.46643 8.17855 4.23587 8.34595 3.99041 8.307L1.39462 7.895C1.14916 7.85604 0.981765 7.62548 1.02072 7.38002Z" fill="white"/>
<path id="Stroke-7 (Stroke)" fill-rule="evenodd" clip-rule="evenodd" d="M0.0597857 9.30971C0.0987436 9.06426 0.329306 8.89686 0.574762 8.93581L3.17055 9.34781C3.41601 9.38677 3.58341 9.61733 3.54445 9.86278C3.50549 10.1082 3.27493 10.2756 3.02948 10.2367L0.433683 9.82469C0.188228 9.78573 0.0208279 9.55517 0.0597857 9.30971Z" fill="white"/>
</g>
</svg>
