<svg width="24" height="24" viewBox="0 0 24 24" fill="none" xmlns="http://www.w3.org/2000/svg">
<path d="M16 13.375C16 17.0569 13.5379 19 10.5003 19C7.46273 19 5 17.0569 5 13.375C5 9.6931 10.5003 4 10.5003 4C10.5003 4 16 9.6931 16 13.375Z" fill="#FC5757"/>
<rect x="11" y="12" width="8" height="8" rx="4" fill="white"/>
<path fill-rule="evenodd" clip-rule="evenodd" d="M14.9994 14.0033C14.8416 14.0033 14.7137 13.8754 14.7137 13.7176V12.5748C14.7137 12.417 14.8416 12.2891 14.9994 12.2891C15.1572 12.2891 15.2852 12.417 15.2852 12.5748V13.7176C15.2852 13.8754 15.1572 14.0033 14.9994 14.0033ZM11.5709 15.7176C11.4131 15.7176 11.2852 15.8456 11.2852 16.0033C11.2852 16.1611 11.4131 16.2891 11.5709 16.2891H12.7137C12.8715 16.2891 12.9994 16.1611 12.9994 16.0033C12.9994 15.8456 12.8715 15.7176 12.7137 15.7176H11.5709ZM17.2852 15.7176C17.1274 15.7176 16.9994 15.8456 16.9994 16.0033C16.9994 16.1611 17.1274 16.2891 17.2852 16.2891H18.428C18.5858 16.2891 18.7137 16.1611 18.7137 16.0033C18.7137 15.8456 18.5858 15.7176 18.428 15.7176H17.2852ZM14.7137 19.4319C14.7137 19.5897 14.8416 19.7176 14.9994 19.7176C15.1572 19.7176 15.2852 19.5897 15.2852 19.4319V18.2891C15.2852 18.1313 15.1572 18.0033 14.9994 18.0033C14.8416 18.0033 14.7137 18.1313 14.7137 18.2891V19.4319Z" fill="#DBE5ED"/>
<rect x="11.4" y="12.4" width="7.2" height="7.2" rx="3.6" stroke="#516F94" stroke-width="0.8"/>
<path d="M14.6769 15.5472L16.638 14.3705L15.4614 16.3316C15.371 16.4822 15.2082 16.5744 15.0326 16.5744L14.9341 16.5744C14.658 16.5744 14.4341 16.3505 14.4341 16.0744L14.4341 15.9759C14.4341 15.8003 14.5263 15.6375 14.6769 15.5472Z" fill="#445570"/>
</svg>
