<svg width="64" height="64" viewBox="0 0 64 64" fill="none" xmlns="http://www.w3.org/2000/svg">
<g id="icon/64/&#236;&#178;&#173;&#236;&#163;&#188;&#236;&#158;&#148; /on">
<g id="&#236;&#178;&#173;&#236;&#163;&#188;&#236;&#158;&#148;">
<path id="Union" fill-rule="evenodd" clip-rule="evenodd" d="M53 24H11L14.0989 34.8461C15.5849 40.0473 19.899 43.8507 25.0846 44.7803L22.106 57.5458C22.0388 57.8337 22.1088 58.1343 22.3497 58.3056C23.1372 58.8658 25.4755 60 31.5 60C37.5245 60 39.8628 58.8658 40.6503 58.3056C40.8912 58.1343 40.9612 57.8337 40.894 57.5458L37.9325 44.8537C43.1063 44.1 47.5018 40.4946 49.1909 35.4272L53 24Z" fill="#DFEAF5"/>
<path id="Ellipse 3424" d="M38 58C38 58.5523 35.1296 59 31.5 59C27.8704 59 25 58.5523 25 58C25 57.4477 27.8704 57 31.5 57C35.1296 57 38 57.4477 38 58Z" fill="#89B9D2" fill-opacity="0.3"/>
<g id="Mask group">
<mask id="mask0_1482_68937" style="mask-type:alpha" maskUnits="userSpaceOnUse" x="11" y="24" width="42" height="21">
<path id="Rectangle 34624903" d="M11 24H53L49.0394 35.316C47.1945 40.5871 42.3923 44.2604 36.8211 44.6479C34.0606 44.84 31.7 45 31.5 45C31.3111 45 29.1963 44.8573 26.6374 44.6798C20.836 44.2772 15.8951 40.3169 14.224 34.7467L11 24Z" fill="#D9D9D9"/>
</mask>
<g mask="url(#mask0_1482_68937)">
<path id="Vector 1596" d="M47.2477 29.2619C50.7473 28.3798 52.0687 29.3419 52.292 29.9332L54.1547 36.3587L36.2591 48.2979C29.556 45.7211 16.4973 39.7712 17.8874 36.5866C19.625 32.6058 28.5207 29.2969 36.1619 30.8754C43.8032 32.4539 42.8734 30.3645 47.2477 29.2619Z" fill="#39ACE5"/>
<path id="Vector 1595" d="M47.0984 30.6616C51.9748 27.0812 53.0628 30.179 52.9973 31.6709L48.4747 58.1515C47.426 59.7676 42.8511 63 32.9409 63C23.0307 63 17.5382 60.7622 16.0307 59.6433L13.0813 33.5357C12.8191 33.1006 13.042 32.1185 16.0307 31.6709C19.7667 31.1115 25.0757 34.5778 30.778 34.9507C36.4803 35.3237 41.0028 35.1372 47.0984 30.6616Z" fill="#4BC3FF"/>
<path id="Vector 1594" d="M23.8937 34.0193C16.9331 28.4012 13.4425 29.5845 12.0374 29.8592C9.7314 31.0408 6.64604 62.0405 20.8029 64.6576C50.958 70.2321 77.2804 45.159 51.4985 40.2402C49.4801 39.8551 32.6095 41.054 23.8937 34.0193Z" fill="#71D0FF"/>
</g>
</g>
<g id="Union_2">
<mask id="path-7-inside-1_1482_68937" fill="white">
<path fill-rule="evenodd" clip-rule="evenodd" d="M53 24H11L14.0989 34.8461C15.5849 40.0473 19.899 43.8507 25.0846 44.7803L22.106 57.5458C22.0388 57.8337 22.1088 58.1343 22.3497 58.3056C23.1372 58.8658 25.4755 60 31.5 60C37.5245 60 39.8628 58.8658 40.6503 58.3056C40.8912 58.1343 40.9612 57.8337 40.894 57.5458L37.9325 44.8537C43.1063 44.1 47.5018 40.4946 49.1909 35.4272L53 24Z"/>
</mask>
<path fill-rule="evenodd" clip-rule="evenodd" d="M53 24H11L14.0989 34.8461C15.5849 40.0473 19.899 43.8507 25.0846 44.7803L22.106 57.5458C22.0388 57.8337 22.1088 58.1343 22.3497 58.3056C23.1372 58.8658 25.4755 60 31.5 60C37.5245 60 39.8628 58.8658 40.6503 58.3056C40.8912 58.1343 40.9612 57.8337 40.894 57.5458L37.9325 44.8537C43.1063 44.1 47.5018 40.4946 49.1909 35.4272L53 24Z" fill="url(#paint0_linear_1482_68937)" fill-opacity="0.4"/>
<path d="M11 24V23.6H10.4697L10.6154 24.1099L11 24ZM53 24L53.3795 24.1265L53.555 23.6H53V24ZM14.0989 34.8461L13.7143 34.956L14.0989 34.8461ZM25.0846 44.7803L25.4741 44.8712L25.5699 44.4609L25.1552 44.3866L25.0846 44.7803ZM22.106 57.5458L22.4955 57.6367L22.106 57.5458ZM22.3497 58.3056L22.1178 58.6316L22.1178 58.6316L22.3497 58.3056ZM40.6503 58.3056L40.8822 58.6316L40.8822 58.6316L40.6503 58.3056ZM40.894 57.5458L40.5045 57.6367L40.894 57.5458ZM37.9325 44.8537L37.8749 44.4579L37.4441 44.5206L37.543 44.9446L37.9325 44.8537ZM49.1909 35.4272L48.8115 35.3007V35.3007L49.1909 35.4272ZM11 24.4H53V23.6H11V24.4ZM14.4835 34.7362L11.3846 23.8901L10.6154 24.1099L13.7143 34.956L14.4835 34.7362ZM25.1552 44.3866C20.1178 43.4835 15.927 39.7886 14.4835 34.7362L13.7143 34.956C15.2428 40.306 19.6802 44.2178 25.014 45.174L25.1552 44.3866ZM22.4955 57.6367L25.4741 44.8712L24.6951 44.6894L21.7164 57.455L22.4955 57.6367ZM22.5816 57.9797C22.5095 57.9284 22.4538 57.8153 22.4955 57.6367L21.7164 57.455C21.6238 57.8521 21.7081 58.3402 22.1178 58.6316L22.5816 57.9797ZM31.5 59.6C25.5167 59.6 23.2737 58.472 22.5815 57.9797L22.1178 58.6316C23.0006 59.2595 25.4343 60.4 31.5 60.4V59.6ZM40.4185 57.9797C39.7263 58.472 37.4833 59.6 31.5 59.6V60.4C37.5657 60.4 39.9994 59.2596 40.8822 58.6316L40.4185 57.9797ZM40.5045 57.6367C40.5462 57.8153 40.4905 57.9284 40.4184 57.9797L40.8822 58.6316C41.2919 58.3402 41.3762 57.8521 41.2836 57.455L40.5045 57.6367ZM37.543 44.9446L40.5045 57.6367L41.2836 57.455L38.3221 44.7628L37.543 44.9446ZM48.8115 35.3007C47.1706 40.2232 42.9007 43.7258 37.8749 44.4579L37.9902 45.2495C43.3119 44.4743 47.833 40.766 49.5704 35.5537L48.8115 35.3007ZM52.6205 23.8735L48.8115 35.3007L49.5704 35.5537L53.3795 24.1265L52.6205 23.8735Z" fill="white" mask="url(#path-7-inside-1_1482_68937)"/>
</g>
<path id="Ellipse 3426" d="M52.9029 24C52.9029 24.158 52.79 24.3349 52.5178 24.525C52.249 24.7126 51.8464 24.8975 51.3186 25.0757C50.2643 25.4318 48.7335 25.7541 46.8355 26.0252C43.0411 26.5673 37.7959 26.9029 32 26.9029C26.2041 26.9029 20.9589 26.5673 17.1645 26.0252C15.2665 25.7541 13.7357 25.4318 12.6814 25.0757C12.1536 24.8975 11.751 24.7126 11.4822 24.525C11.21 24.3349 11.0971 24.158 11.0971 24C11.0971 23.842 11.21 23.6651 11.4822 23.475C11.751 23.2874 12.1536 23.1025 12.6814 22.9243C13.7357 22.5682 15.2665 22.2459 17.1645 21.9748C20.9589 21.4327 26.2041 21.0971 32 21.0971C37.7959 21.0971 43.0411 21.4327 46.8355 21.9748C48.7335 22.2459 50.2643 22.5682 51.3186 22.9243C51.8464 23.1025 52.249 23.2874 52.5178 23.475C52.79 23.6651 52.9029 23.842 52.9029 24Z" fill="url(#paint1_linear_1482_68937)" stroke="white" stroke-width="0.194215"/>
</g>
</g>
<defs>
<linearGradient id="paint0_linear_1482_68937" x1="49.25" y1="44.3605" x2="14.75" y2="44.3605" gradientUnits="userSpaceOnUse">
<stop stop-color="white" stop-opacity="0.5"/>
<stop offset="0.478261" stop-color="white"/>
<stop offset="1" stop-color="white" stop-opacity="0.5"/>
</linearGradient>
<linearGradient id="paint1_linear_1482_68937" x1="32" y1="21" x2="32" y2="27" gradientUnits="userSpaceOnUse">
<stop stop-color="#DFEAF5"/>
<stop offset="1" stop-color="#DCF3FF"/>
</linearGradient>
</defs>
</svg>
