<svg width="56" height="56" viewBox="0 0 56 56" fill="none" xmlns="http://www.w3.org/2000/svg">
<path d="M37.485 9.25903C34.6359 7.81422 31.4131 7 28 7C27.4059 7 26.8176 7.02467 26.236 7.07304M37.485 9.25903C44.3174 12.7238 49 19.8151 49 28C49 30.6934 48.4929 33.2684 47.569 35.6347M37.485 9.25903C33.4035 10.4841 24.0721 15.3558 19.3988 25.0427M26.236 7.07304C15.4635 7.96895 7 16.9961 7 28C7 29.1205 7.08776 30.2205 7.25678 31.2936M26.236 7.07304C21.9814 9.89635 13.9258 17.2161 13.1318 23.4547M39.5348 45.5513C36.2243 47.7314 32.2603 49 28 49C21.3752 49 15.467 45.9324 11.6181 41.1402M39.5348 45.5513C39.5157 40.7931 38.0827 29.7851 32.5038 23.8193M39.5348 45.5513C43.1437 43.1747 45.976 39.715 47.569 35.6347M47.569 35.6347C47.0351 31.8037 44.8145 23.0776 40.203 18.8209M7.25678 31.2936C9.34381 32.9541 16.5572 35.8719 28.7147 34.2595M7.25678 31.2936C7.83793 34.983 9.37975 38.3532 11.6181 41.1402M11.6181 41.1402C14.8213 42.4764 22.9428 43.9179 29.9643 41.1402" stroke="#3F86F1" stroke-width="2"/>
<path d="M7.63281 22.07L27.9527 26.8506M27.9527 26.8506L31.1039 49.0182M27.9527 26.8506L45.4474 15.4414" stroke="#3F86F1" stroke-width="2"/>
</svg>
