<svg width="40" height="41" viewBox="0 0 40 41" fill="none" xmlns="http://www.w3.org/2000/svg">
<rect y="0.710938" width="40" height="40" rx="8" fill="#F8F8F8"/>
<path d="M22.7353 23.3942C22.6312 23.3942 22.5469 23.3098 22.5469 23.2057V18.1455C22.5469 18.0414 22.6312 17.957 22.7353 17.957H26.0082C26.1123 17.957 26.1967 18.0414 26.1967 18.1455V18.6998C26.1967 18.8039 26.1123 18.8883 26.0082 18.8883H23.8618C23.7577 18.8883 23.6734 18.9726 23.6734 19.0767V20.0216C23.6734 20.1256 23.7577 20.21 23.8618 20.21H25.8205C25.9246 20.21 26.0089 20.2944 26.0089 20.3984V20.9528C26.0089 21.0569 25.9246 21.1412 25.8205 21.1412H23.8618C23.7577 21.1412 23.6734 21.2256 23.6734 21.3297V22.2745C23.6734 22.3786 23.7577 22.463 23.8618 22.463H26.0158C26.1198 22.463 26.2042 22.5473 26.2042 22.6514V23.2057C26.2042 23.3098 26.1198 23.3942 26.0158 23.3942H22.7353Z" fill="#2B5A87"/>
<path d="M20.8223 19.7077C20.7391 19.7077 20.6672 19.6526 20.635 19.5759C20.4538 19.1439 20.0661 18.885 19.5257 18.8816C18.6846 18.8854 18.1139 19.5275 18.1139 20.669C18.1139 21.818 18.6658 22.4676 19.5332 22.4714C20.2351 22.468 20.6798 22.1094 20.7705 21.5367C20.7871 21.4323 20.7004 21.3449 20.5948 21.3449H19.7968C19.6927 21.3449 19.6083 21.2605 19.6083 21.1564V20.6847C19.6083 20.5806 19.6927 20.4963 19.7968 20.4963H21.6879C21.792 20.4963 21.8763 20.5806 21.8763 20.6847V21.1721C21.8763 22.599 20.8963 23.4702 19.5257 23.4702C18.0012 23.4702 16.9648 22.4038 16.9648 20.684C16.9648 18.9192 18.0688 17.8828 19.5032 17.8828C20.648 17.8828 21.5447 18.5389 21.7825 19.4949C21.8102 19.6061 21.7215 19.7077 21.607 19.7077H20.8223Z" fill="#2B5A87"/>
<path d="M12.9114 23.2642C12.8861 23.3417 12.8138 23.3942 12.7322 23.3942H11.9171C11.7875 23.3942 11.6966 23.2664 11.7391 23.144L13.4934 18.0837C13.5197 18.0079 13.5912 17.957 13.6714 17.957H14.8524C14.9328 17.957 15.0043 18.008 15.0306 18.084L16.7779 23.1442C16.8202 23.2666 16.7293 23.3942 16.5998 23.3942H15.7918C15.7103 23.3942 15.638 23.3417 15.6127 23.2642L15.2883 22.27C15.263 22.1925 15.1907 22.14 15.1091 22.14H13.415C13.3334 22.14 13.2611 22.1925 13.2358 22.27L12.9114 23.2642ZM13.6443 21.0144C13.6045 21.1362 13.6953 21.2614 13.8234 21.2614H14.7006C14.8288 21.2614 14.9196 21.1362 14.8798 21.0144L14.2866 19.199C14.2832 19.1883 14.2732 19.1811 14.262 19.1811C14.2508 19.1811 14.2409 19.1883 14.2374 19.199L13.6443 21.0144Z" fill="#2B5A87"/>
<path fill-rule="evenodd" clip-rule="evenodd" d="M32.3384 19.6958C32.339 19.6612 32.3378 19.6262 32.3348 19.5907C32.0867 16.6783 30.8763 13.9185 28.8778 11.7565C26.6246 9.31907 23.5353 7.82065 20.2262 7.56022C16.9171 7.29979 13.6314 8.29648 11.0246 10.3515C8.41789 12.4065 6.68171 15.3687 6.16245 18.6472C5.64318 21.9257 6.37902 25.2794 8.22316 28.0393C10.0673 30.7993 12.8842 32.7625 16.1118 33.5374C19.3395 34.3123 22.7406 33.8419 25.6367 32.22C28.2055 30.7814 30.2095 28.5307 31.3454 25.8375C31.5861 25.2669 31.2594 24.6319 30.6704 24.4405C30.0815 24.2492 29.4542 24.5746 29.2036 25.1409C28.2489 27.2988 26.6172 29.1007 24.541 30.2634C22.1372 31.6096 19.3143 32 16.6353 31.3569C13.9564 30.7137 11.6184 29.0842 10.0877 26.7935C8.5571 24.5027 7.94635 21.7191 8.37734 18.998C8.80833 16.2768 10.2494 13.8182 12.413 12.1125C14.5766 10.4069 17.3037 9.57965 20.0503 9.7958C22.7968 10.012 25.361 11.2557 27.2311 13.2788C28.8464 15.0262 29.8414 17.2441 30.0826 19.5914C30.0862 19.6266 30.0912 19.6614 30.0976 19.6958H29.1122C28.6925 19.6958 28.4823 20.2033 28.7791 20.5001L30.8669 22.5878C31.0509 22.7718 31.3491 22.7718 31.5331 22.5878L33.6209 20.5001C33.9177 20.2033 33.7075 19.6958 33.2878 19.6958H32.3384Z" fill="url(#paint0_linear_2199_78595)"/>
<defs>
<linearGradient id="paint0_linear_2199_78595" x1="10.7111" y1="8.93287" x2="27.2001" y2="32.9597" gradientUnits="userSpaceOnUse">
<stop stop-color="#81BDF4"/>
<stop offset="1" stop-color="#59A2E5"/>
</linearGradient>
</defs>
</svg>
