<svg width="24" height="24" viewBox="0 0 24 24" fill="none" xmlns="http://www.w3.org/2000/svg">
<path fill-rule="evenodd" clip-rule="evenodd" d="M5.30619 5.27344H19.1492L17.7649 18.1519H17.7625C17.7625 18.1522 17.7625 18.1525 17.7625 18.1527C17.7625 19.6847 15.2834 20.9266 12.2253 20.9266C9.16715 20.9266 6.68807 19.6847 6.68807 18.1527C6.68807 18.1455 6.68812 18.1382 6.68824 18.1309L5.30619 5.27344Z" fill="url(#paint0_linear_2838_127580)"/>
<path d="M5.71355 5.27383C5.71355 5.50865 5.83061 5.77346 6.12999 6.05712C6.43025 6.34162 6.88662 6.61665 7.48437 6.8562C8.67763 7.3344 10.3541 7.63933 12.2267 7.63933C14.0993 7.63933 15.7758 7.3344 16.969 6.8562C17.5668 6.61665 18.0232 6.34162 18.3234 6.05712C18.6228 5.77346 18.7399 5.50865 18.7399 5.27383C18.7399 5.03901 18.6228 4.77419 18.3234 4.49054C18.0232 4.20604 17.5668 3.93101 16.969 3.69146C15.7758 3.21326 14.0993 2.90833 12.2267 2.90833C10.3541 2.90833 8.67763 3.21326 7.48437 3.69146C6.88662 3.93101 6.43025 4.20604 6.12999 4.49054C5.83061 4.77419 5.71355 5.03901 5.71355 5.27383Z" fill="url(#paint1_linear_2838_127580)" stroke="#E4F6FF" stroke-width="0.816659"/>
<g clip-path="url(#clip0_2838_127580)">
<mask id="mask0_2838_127580" style="mask-type:alpha" maskUnits="userSpaceOnUse" x="3" y="10" width="20" height="20">
<path d="M7.43495 10.3093C6.32859 10.626 5.72363 11.7517 5.72363 11.7517V29.7269H22.2664V11.1138C22.2664 11.1138 21.3707 10.2555 19.8956 10.5656C18.4204 10.8757 17.5659 11.1902 16.1056 11.4008C14.6305 11.6136 12.6858 11.2174 11.4851 10.7114C10.2207 10.1786 8.80299 9.91767 7.43495 10.3093Z" fill="#ADE3FF"/>
<path opacity="0.5" d="M17.8385 10.3093C18.9448 10.626 19.5498 11.7517 19.5498 11.7517V29.7269H3.00708V11.1138C3.00708 11.1138 3.9027 10.2555 5.37785 10.5656C6.853 10.8757 7.70751 11.1902 9.16782 11.4008C10.643 11.6136 12.5876 11.2174 13.7884 10.7114C15.0528 10.1786 16.4705 9.91767 17.8385 10.3093Z" fill="#70CEFF"/>
</mask>
<g mask="url(#mask0_2838_127580)">
<path fill-rule="evenodd" clip-rule="evenodd" d="M18.3365 5.63319C18.3478 5.58084 18.3535 5.52796 18.3535 5.47461C18.3535 4.30856 15.6088 3.36328 12.2231 3.36328C8.83729 3.36328 6.09259 4.30856 6.09259 5.47461L6.09235 5.47461L6.0926 5.47695C6.09276 5.52795 6.09817 5.57852 6.10865 5.62861L7.43189 18.1285L7.43177 18.142C7.43177 19.2021 9.57607 20.0614 12.2212 20.0614C14.8659 20.0614 17.0099 19.2024 17.0106 18.1426H17.0122L18.3365 5.63319Z" fill="url(#paint2_linear_2838_127580)"/>
<ellipse opacity="0.5" cx="14.4546" cy="17.52" rx="0.526837" ry="0.527833" fill="white"/>
<ellipse opacity="0.7" cx="13.4485" cy="16.4129" rx="0.287365" ry="0.287909" fill="white"/>
<ellipse cx="15.173" cy="13.7271" rx="0.191577" ry="0.191939" fill="white"/>
</g>
</g>
<defs>
<linearGradient id="paint0_linear_2838_127580" x1="12.2277" y1="5.27344" x2="12.2277" y2="20.9266" gradientUnits="userSpaceOnUse">
<stop stop-color="#F0FAFF"/>
<stop offset="0.0001" stop-color="#EFFAFF"/>
<stop offset="1" stop-color="#D9F0FC"/>
</linearGradient>
<linearGradient id="paint1_linear_2838_127580" x1="12.2267" y1="2.5" x2="12.2267" y2="8.04766" gradientUnits="userSpaceOnUse">
<stop stop-color="#E4F6FF"/>
<stop offset="1" stop-color="#F9FDFF"/>
</linearGradient>
<linearGradient id="paint2_linear_2838_127580" x1="12.2227" y1="8.58927" x2="12.2227" y2="20.1053" gradientUnits="userSpaceOnUse">
<stop stop-color="#82D4FF"/>
<stop offset="1" stop-color="#49C0FE"/>
</linearGradient>
<clipPath id="clip0_2838_127580">
<rect width="14.5" height="16.5136" fill="white" transform="matrix(-1 0 0 1 19.5 4.91797)"/>
</clipPath>
</defs>
</svg>
