<svg width="60" height="60" viewBox="0 0 60 60" fill="none" xmlns="http://www.w3.org/2000/svg">
<circle cx="28" cy="32" r="28" fill="#F8F8F8"/>
<path d="M32.9991 35.7088C32.9991 42.4028 28.5227 45.9356 23.0001 45.9356C17.4775 45.9356 13 42.4028 13 35.7088C13 29.0147 23.0001 18.6641 23.0001 18.6641C23.0001 18.6641 32.9991 29.0147 32.9991 35.7088Z" fill="url(#paint0_linear_4951_95260)"/>
<rect x="27.9995" y="30.332" width="14.9993" height="14.9993" rx="7.49967" fill="white"/>
<path fill-rule="evenodd" clip-rule="evenodd" d="M35.4991 34.0813C35.2033 34.0813 34.9634 33.8415 34.9634 33.5456V31.4029C34.9634 31.107 35.2033 30.8672 35.4991 30.8672C35.795 30.8672 36.0348 31.107 36.0348 31.4029V33.5456C36.0348 33.8415 35.795 34.0813 35.4991 34.0813ZM29.0708 37.2955C28.775 37.2955 28.5352 37.5353 28.5352 37.8312C28.5352 38.127 28.775 38.3669 29.0708 38.3669H31.2136C31.5095 38.3669 31.7493 38.127 31.7493 37.8312C31.7493 37.5353 31.5095 37.2955 31.2136 37.2955H29.0708ZM39.7847 37.2955C39.4888 37.2955 39.249 37.5353 39.249 37.8312C39.249 38.127 39.4888 38.3669 39.7847 38.3669H41.9274C42.2233 38.3669 42.4631 38.127 42.4631 37.8312C42.4631 37.5353 42.2233 37.2955 41.9274 37.2955H39.7847ZM34.9634 44.2595C34.9634 44.5553 35.2033 44.7952 35.4991 44.7952C35.795 44.7952 36.0348 44.5553 36.0348 44.2595V42.1167C36.0348 41.8208 35.795 41.581 35.4991 41.581C35.2033 41.581 34.9634 41.8208 34.9634 42.1167V44.2595Z" fill="#CCCCCC"/>
<rect x="28.8328" y="31.1653" width="13.3328" height="13.3328" rx="6.66638" stroke="#AAAAAA" stroke-width="1.66659"/>
<path d="M34.8227 37.025L38.5715 34.7756L36.3222 38.5245C36.1796 38.7623 35.9226 38.9078 35.6453 38.9078L35.2289 38.9078C34.7929 38.9078 34.4394 38.5543 34.4394 38.1183L34.4394 37.7019C34.4394 37.4246 34.5849 37.1676 34.8227 37.025Z" fill="#AAAAAA"/>
<circle cx="46" cy="14" r="13.3" fill="#3B4A65" stroke="white" stroke-width="1.4"/>
<path d="M46 9V19" stroke="white" stroke-width="1.4" stroke-linecap="round"/>
<path d="M41 14H51" stroke="white" stroke-width="1.4" stroke-linecap="round"/>
<defs>
<linearGradient id="paint0_linear_4951_95260" x1="22.9996" y1="18.6641" x2="22.9996" y2="45.9356" gradientUnits="userSpaceOnUse">
<stop stop-color="#BBBBBB"/>
<stop offset="1" stop-color="#CCCCCC"/>
</linearGradient>
</defs>
</svg>
