<svg width="61" height="60" viewBox="0 0 61 60" fill="none" xmlns="http://www.w3.org/2000/svg">
<rect width="60" height="60" transform="translate(0.09375)" fill="white"/>
<circle cx="30.0938" cy="30" r="22" fill="url(#paint0_linear_2136_126918)"/>
<path d="M27.7852 36.5828C27.7852 36.4724 27.8747 36.3828 27.9852 36.3828H29.4399C29.5211 36.3828 29.5942 36.4318 29.625 36.5069L31.1466 40.2175C31.1544 40.2365 31.1729 40.2489 31.1934 40.2489C31.2139 40.2489 31.2324 40.2365 31.2402 40.2175L32.7618 36.5069C32.7926 36.4318 32.8657 36.3828 32.9469 36.3828H34.4016C34.5121 36.3828 34.6016 36.4724 34.6016 36.5828V42.321C34.6016 42.4315 34.5121 42.521 34.4016 42.521H33.3943C33.2838 42.521 33.1943 42.4315 33.1943 42.321V38.7361C33.1943 38.7194 33.1807 38.7058 33.164 38.7058C33.1516 38.7058 33.1404 38.7134 33.1358 38.725L31.7012 42.3605C31.671 42.4369 31.5973 42.4871 31.5151 42.4871H30.8719C30.7897 42.4871 30.7158 42.4368 30.6857 42.3603L29.251 38.7081C29.2464 38.6965 29.2352 38.6889 29.2228 38.6889C29.2061 38.6889 29.1925 38.7024 29.1925 38.7191V42.321C29.1925 42.4315 29.103 42.521 28.9925 42.521H27.9852C27.8747 42.521 27.7852 42.4315 27.7852 42.321V36.5828Z" fill="#3F5D7F"/>
<path d="M21.9695 42.521C21.8591 42.521 21.7695 42.4315 21.7695 42.321V36.5828C21.7695 36.4724 21.8591 36.3828 21.9695 36.3828H24.3045C25.6822 36.3828 26.3902 37.0102 26.3902 37.9428C26.3902 38.6329 25.928 39.1126 25.2724 39.2596C25.2568 39.2631 25.2456 39.2768 25.2456 39.2927C25.2456 39.3106 25.2598 39.3254 25.2777 39.3266C26.0018 39.375 26.6276 39.9312 26.6276 40.8084C26.6276 41.7962 25.8603 42.521 24.4995 42.521H21.9695ZM23.2108 41.1511C23.2108 41.2615 23.3004 41.3511 23.4108 41.3511H24.1604C24.8175 41.3511 25.1184 41.084 25.1184 40.6474C25.1184 40.1641 24.7623 39.8546 24.1858 39.8589H23.4108C23.3004 39.8589 23.2108 39.9484 23.2108 40.0589V41.1511ZM23.2108 38.7178C23.2108 38.8283 23.3004 38.9178 23.4108 38.9178H24.0671C24.5589 38.9136 24.915 38.655 24.915 38.2141C24.915 37.7987 24.597 37.5359 24.0841 37.5359H23.4108C23.3004 37.5359 23.2108 37.6254 23.2108 37.7359V38.7178Z" fill="#3F5D7F"/>
<path d="M37.8936 36.3828C38.0041 36.3828 38.0936 36.4724 38.0936 36.5828V42.321C38.0936 42.4315 38.0041 42.521 37.8936 42.521H36.8523C36.7419 42.521 36.6523 42.4315 36.6523 42.321V36.5828C36.6523 36.4724 36.7419 36.3828 36.8523 36.3828H37.8936Z" fill="#3F5D7F"/>
<path d="M45.4517 19.1698C47.3858 21.8318 48.5783 24.9458 48.9261 28.1945C49.0437 29.2928 48.1372 30.1908 47.0327 30.1908L43.5327 30.1908C42.4281 30.1908 41.5507 29.2884 41.3553 28.2012C41.0568 26.5397 40.3864 24.9577 39.3841 23.5782L45.4517 19.1698Z" fill="#FA5C66"/>
<path d="M39.5537 13.8924C43.0912 15.9044 45.878 19.0127 47.4934 22.748L40.6095 25.725C39.6403 23.4839 37.9682 21.6189 35.8457 20.4117L39.5537 13.8924Z" fill="#FA5C66"/>
<path d="M19.671 14.7303C22.8029 12.5805 26.5139 11.4327 30.3126 11.4389C34.1114 11.4451 37.8186 12.605 40.9435 14.765L36.6789 20.9345C34.804 19.6385 32.5796 18.9426 30.3004 18.9389C28.0212 18.9352 25.7945 19.6239 23.9154 20.9137L19.671 14.7303Z" fill="#FFE249"/>
<path d="M14.0307 20.843C15.5245 18.2454 17.6192 16.0436 20.1391 14.4221L24.1974 20.7293C22.6854 21.7022 21.4286 23.0232 20.5324 24.5818L14.0307 20.843Z" fill="#40D685"/>
<path d="M13.5352 30.1889C12.4306 30.1889 11.5241 29.2909 11.6417 28.1927C11.9896 24.9439 13.182 21.8299 15.1161 19.168L21.1837 23.5764C20.1814 24.9559 19.511 26.5379 19.2125 28.1994C19.0171 29.2866 18.1397 30.1889 17.0352 30.1889H13.5352Z" fill="#40D685"/>
<path d="M29.1518 28.4504L34.5346 23.9656C34.9345 23.6324 35.5139 24.0559 35.3178 24.5381L32.6787 31.0284C32.4141 31.6791 31.8275 32.1434 31.1333 32.2513L30.7922 32.3043C29.7008 32.474 28.6784 31.7267 28.5087 30.6352L28.4557 30.2942C28.3478 29.6 28.612 28.9001 29.1518 28.4504Z" fill="#385A80"/>
<defs>
<linearGradient id="paint0_linear_2136_126918" x1="30.0938" y1="8" x2="30.0938" y2="52" gradientUnits="userSpaceOnUse">
<stop stop-color="#F3F9FD"/>
<stop offset="1" stop-color="#EAF2F8"/>
</linearGradient>
</defs>
</svg>
