<svg width="72" height="72" viewBox="0 0 72 72" fill="none" xmlns="http://www.w3.org/2000/svg">
<g id="Group 1261167619">
<circle id="Ellipse 5373" cx="36" cy="36" r="36" fill="#FFD633"/>
<g id="&#236;&#158;&#133;">
<g id="Ellipse 3144">
<path d="M15.75 40.5C14.5074 40.5 13.4871 41.5105 13.6244 42.7455C14.1629 47.5891 16.4314 52.1387 20.0901 55.6144C24.3097 59.623 30.0326 61.875 36 61.875C41.9674 61.875 47.6903 59.623 51.9099 55.6144C55.5686 52.1387 57.8371 47.5891 58.3756 42.7455C58.5129 41.5105 57.4926 40.5 56.25 40.5L36 40.5L15.75 40.5Z" fill="#F56455"/>
<path d="M15.75 40.5C14.5074 40.5 13.4871 41.5105 13.6244 42.7455C14.1629 47.5891 16.4314 52.1387 20.0901 55.6144C24.3097 59.623 30.0326 61.875 36 61.875C41.9674 61.875 47.6903 59.623 51.9099 55.6144C55.5686 52.1387 57.8371 47.5891 58.3756 42.7455C58.5129 41.5105 57.4926 40.5 56.25 40.5L36 40.5L15.75 40.5Z" fill="#F56455"/>
</g>
<path id="Rectangle 34624665" d="M20.25 40.5H51.45C51.45 42.4882 49.8382 44.1 47.85 44.1H23.85C21.8618 44.1 20.25 42.4882 20.25 40.5Z" fill="white"/>
</g>
<g id="&#235;&#136;&#136;">
<g id="Group 1261167612">
<circle id="Ellipse 5374" cx="21.375" cy="24.75" r="11.25" fill="white"/>
<circle id="Ellipse 5376" cx="23.625" cy="23.625" r="5.625" fill="#26282C"/>
</g>
<g id="Group 1261167613">
<circle id="Ellipse 5375" cx="50.625" cy="24.75" r="11.25" fill="white"/>
<circle id="Ellipse 5377" cx="48.375" cy="23.625" r="5.625" fill="#26282C"/>
</g>
</g>
</g>
</svg>
