<svg width="56" height="57" viewBox="0 0 56 57" fill="none" xmlns="http://www.w3.org/2000/svg">
<path d="M30.4235 43.1831L7.55374 32.2458C6.53986 31.761 6.01674 30.623 6.33685 29.5457C6.63597 28.539 7.04297 27.228 7.51021 25.8787C8.00532 24.4488 8.56807 22.9758 9.14177 21.7762C10.6554 18.611 13.8011 14.0948 13.8011 14.0948C13.8011 14.0948 14.7459 12.6686 16.3196 14.0948C17.8933 15.5209 18.0826 17.3065 20.3493 17.7467C22.616 18.1868 24.1348 16.7375 26.5827 16.9273C29.4986 17.1534 31.1292 19.0444 32.4737 21.3335C34.5754 24.9118 35.978 29.4631 40.4977 30.1495C42.4425 30.4449 43.6927 29.4596 45.5348 30.1495C48.5876 31.2929 50.2627 33.8164 50.1941 37.0755C50.1879 37.3747 50.1409 37.6807 50.0622 37.9884C49.4134 40.5253 46.6052 43.1831 46.6052 43.1831H30.4235Z" fill="white"/>
<path d="M7.51021 25.8787C8.00532 24.4488 8.56807 22.9758 9.14177 21.7762C10.6554 18.611 13.8011 14.0948 13.8011 14.0948C13.8011 14.0948 14.7459 12.6686 16.3196 14.0948C17.8933 15.5209 18.0826 17.3065 20.3493 17.7467C22.616 18.1868 24.1348 16.7375 26.5827 16.9273C29.4986 17.1534 31.1292 19.0444 32.4737 21.3335M7.51021 25.8787C7.04297 27.228 6.63597 28.539 6.33685 29.5457C6.01674 30.623 6.53986 31.761 7.55374 32.2458L30.4235 43.1831H46.6052C46.6052 43.1831 49.4134 40.5253 50.0622 37.9884M7.51021 25.8787L32.6407 37.9884H50.0622M50.0622 37.9884C50.1409 37.6807 50.1879 37.3747 50.1941 37.0755C50.2627 33.8164 48.5876 31.2929 45.5348 30.1495C43.6927 29.4596 42.4425 30.4449 40.4977 30.1495C35.978 29.4631 34.5754 24.9118 32.4737 21.3335M32.4737 21.3335L26.5827 24.7855M34.7842 25.8787L31.3275 28.1407" stroke="#3F86F1" stroke-width="2" stroke-linecap="round"/>
</svg>
