<svg width="56" height="56" viewBox="0 0 56 56" fill="none" xmlns="http://www.w3.org/2000/svg">
<g id="&#235;&#157;&#188;&#236;&#157;&#180;&#237;&#148;&#132;&#235;&#161;&#156;&#234;&#183;&#184; &#236;&#154;&#180;&#235;&#143;&#153;">
<path id="Vector 2778" d="M33.1627 7.85156C33.8309 9.65227 36.709 13.563 39.5604 14.4251M33.1627 7.85156C31.4547 7.85156 26.8286 7.85156 21.9879 7.85156M33.1627 7.85156C33.1879 10.4002 31.9309 16.5662 26.7013 20.8411M39.5604 14.4251C42.3262 15.2614 47.967 30.9983 51.0517 39.5072C51.2084 39.9394 51.0008 40.4181 50.5785 40.5998L44.9003 43.0433C44.4388 43.2419 43.9056 43.0082 43.7388 42.5343L39.2302 29.7222L38.2342 33.7277M39.5604 14.4251C41.815 19.9953 39.3394 29.5832 38.2342 33.7277M38.2342 33.7277L36.6593 38.7012M38.2342 33.7277C33.0786 30.5626 29.3173 25.6864 26.7013 20.8411M36.6593 38.7012L39.2158 47.0283C39.3871 47.5862 38.9699 48.1507 38.3863 48.1507H17.4134C16.8386 48.1507 16.4226 47.6019 16.578 47.0484L18.921 38.7012M36.6593 38.7012H27.7902M18.921 38.7012L16.2686 30.5092M18.921 38.7012H27.7902M16.2686 30.5092L11.9236 42.0342C11.7554 42.4803 11.2588 42.7071 10.8115 42.5422L5.42433 40.5563C4.99629 40.3986 4.76328 39.9365 4.89309 39.4992C7.31381 31.3436 12.2991 16.2438 14.6108 15.409M16.2686 30.5092C15.1357 25.7568 13.8813 18.0615 14.6108 15.409M14.6108 15.409C17.5948 14.3313 20.2102 11.5278 21.9879 7.85156M21.9879 7.85156C22.5212 10.8713 24.0011 15.8397 26.7013 20.8411M27.7902 38.7012L25.441 43.4104M27.7902 38.7012L30.6075 43.4104" stroke="#3F86F1" stroke-width="2" stroke-linecap="round"/>
</g>
</svg>
