<svg width="60" height="60" viewBox="0 0 60 60" fill="none" xmlns="http://www.w3.org/2000/svg">
<path d="M51.2693 34.0789C51.7076 34.9368 51.5164 35.9437 50.8164 36.6056C47.9249 39.3397 39.6974 46.2068 29.9991 46.2068C20.3639 46.2068 12.1802 39.4286 9.23891 36.6594C8.5078 35.9711 8.33018 34.9141 8.81981 34.0374C10.8975 30.3174 17.4415 20.7969 29.9991 20.7969C43.2141 20.7969 49.3845 30.3888 51.2693 34.0789Z" fill="#FFE3CF"/>
<path d="M50.2492 34.8728C51.2295 35.7625 51.2295 37.2412 50.2492 38.1308C46.9483 41.1266 39.1248 47.2068 29.9991 47.2068C20.8735 47.2068 13.05 41.1266 9.74904 38.1308C8.76877 37.2412 8.76877 35.7625 9.74904 34.8728C13.05 31.877 20.8735 25.7969 29.9991 25.7969C39.1248 25.7969 46.9483 31.877 50.2492 34.8728Z" fill="url(#paint0_linear_4007_13781)"/>
<ellipse cx="30.0055" cy="36.5028" rx="8.92738" ry="8.9286" fill="#4D4A48"/>
<ellipse cx="30.0055" cy="36.5022" rx="4.56795" ry="4.56858" fill="#363432"/>
<path fill-rule="evenodd" clip-rule="evenodd" d="M28.6369 12.5734C28.6369 11.8166 29.2504 11.2031 30.0072 11.2031C30.764 11.2031 31.3775 11.8166 31.3775 12.5734V16.6853C31.3775 17.4421 30.764 18.0556 30.0072 18.0556C29.2504 18.0556 28.6369 17.4421 28.6369 16.6853V12.5734ZM20.0759 16.2786C19.6975 15.6231 19.9221 14.785 20.5775 14.4065C21.2329 14.0281 22.0709 14.2527 22.4493 14.9081L23.8197 17.282C24.1981 17.9375 23.9735 18.7756 23.3181 19.1541C22.6627 19.5325 21.8247 19.308 21.4463 18.6525L20.0759 16.2786ZM39.4095 14.4064C38.7541 14.028 37.9161 14.2525 37.5377 14.908L36.1673 17.2819C35.7889 17.9374 36.0135 18.7755 36.6689 19.154C37.3243 19.5324 38.1624 19.3079 38.5407 18.6524L39.9111 16.2785C40.2895 15.623 40.0649 14.7849 39.4095 14.4064Z" fill="#EB8691"/>
<defs>
<linearGradient id="paint0_linear_4007_13781" x1="29.9991" y1="22.7969" x2="29.9991" y2="50.2068" gradientUnits="userSpaceOnUse">
<stop offset="0.401042" stop-color="white"/>
<stop offset="1" stop-color="#FF98A4"/>
</linearGradient>
</defs>
</svg>
