<svg width="41" height="41" viewBox="0 0 41 41" fill="none" xmlns="http://www.w3.org/2000/svg">
<rect x="0.125" y="0.710938" width="40" height="40" rx="8" fill="#F8F8F8"/>
<path d="M13.125 15.0443C13.125 13.7556 14.1697 12.7109 15.4584 12.7109H25.4003C26.689 12.7109 27.7337 13.7556 27.7337 15.0443V27.1778C27.7337 28.4665 26.689 29.5112 25.4003 29.5112H15.4583C14.1697 29.5112 13.125 28.4665 13.125 27.1778V15.0443Z" fill="#60ACF2"/>
<rect x="15.3203" y="16.5273" width="8.76522" height="1.90912" rx="0.95456" fill="white"/>
<rect x="15.3203" y="20.3477" width="5.11304" height="1.90912" rx="0.95456" fill="white"/>
<rect x="10.125" y="21.7109" width="20" height="7.63636" fill="url(#paint0_linear_2199_78272)"/>
<g filter="url(#filter0_d_2199_78272)">
<path d="M11.125 21.7109H29.125" stroke="#3499F8" stroke-width="2" stroke-linecap="round"/>
</g>
<path d="M12.125 8.71094H10.125C9.02043 8.71094 8.125 9.60637 8.125 10.7109V12.7109" stroke="#356B9C" stroke-width="1.5" stroke-linecap="round"/>
<path d="M12.125 32.7109H10.125C9.02043 32.7109 8.125 31.8155 8.125 30.7109V28.7109" stroke="#356B9C" stroke-width="1.5" stroke-linecap="round"/>
<path d="M28.125 32.7109H30.125C31.2296 32.7109 32.125 31.8155 32.125 30.7109V28.7109" stroke="#356B9C" stroke-width="1.5" stroke-linecap="round"/>
<path d="M28.125 8.71094H30.125C31.2296 8.71094 32.125 9.60637 32.125 10.7109V12.7109" stroke="#356B9C" stroke-width="1.5" stroke-linecap="round"/>
<defs>
<filter id="filter0_d_2199_78272" x="2.125" y="18.7109" width="36" height="18" filterUnits="userSpaceOnUse" color-interpolation-filters="sRGB">
<feFlood flood-opacity="0" result="BackgroundImageFix"/>
<feColorMatrix in="SourceAlpha" type="matrix" values="0 0 0 0 0 0 0 0 0 0 0 0 0 0 0 0 0 0 127 0" result="hardAlpha"/>
<feOffset dy="6"/>
<feGaussianBlur stdDeviation="4"/>
<feComposite in2="hardAlpha" operator="out"/>
<feColorMatrix type="matrix" values="0 0 0 0 0.6875 0 0 0 0 0.98125 0 0 0 0 1 0 0 0 1 0"/>
<feBlend mode="normal" in2="BackgroundImageFix" result="effect1_dropShadow_2199_78272"/>
<feBlend mode="normal" in="SourceGraphic" in2="effect1_dropShadow_2199_78272" result="shape"/>
</filter>
<linearGradient id="paint0_linear_2199_78272" x1="20.125" y1="21.7109" x2="20.125" y2="29.3473" gradientUnits="userSpaceOnUse">
<stop stop-color="#79B7FF"/>
<stop offset="1" stop-color="#D9D9D9" stop-opacity="0"/>
</linearGradient>
</defs>
</svg>
