<svg width="60" height="60" viewBox="0 0 60 60" fill="none" xmlns="http://www.w3.org/2000/svg">
<circle cx="28.5003" cy="26.0003" r="12.766" fill="url(#paint0_linear_3692_85299)"/>
<rect x="27.4336" y="6" width="2.12766" height="4.68085" rx="1.06383" fill="#FFCD1A"/>
<rect x="27.4336" y="41.3203" width="2.12766" height="4.68085" rx="1.06383" fill="#FFCD1A"/>
<g opacity="0.5">
<rect x="8.5" y="27.0625" width="2.12766" height="4.68085" rx="1.06383" transform="rotate(-90 8.5 27.0625)" fill="#FFCD1A"/>
<rect x="43.8203" y="27.0625" width="2.12766" height="4.68085" rx="1.06383" transform="rotate(-90 43.8203 27.0625)" fill="#FFCD1A"/>
</g>
<rect x="13.6055" y="12.6094" width="2.12766" height="4.68085" rx="1.06383" transform="rotate(-45 13.6055 12.6094)" fill="#FFCD1A"/>
<rect x="38.5781" y="37.582" width="2.12766" height="4.68085" rx="1.06383" transform="rotate(-45 38.5781 37.582)" fill="#FFCD1A"/>
<g opacity="0.7">
<rect x="41.8906" y="11.1055" width="2.12766" height="4.68085" rx="1.06383" transform="rotate(45 41.8906 11.1055)" fill="#FFCD1A"/>
<rect x="16.918" y="36.0781" width="2.12766" height="4.68085" rx="1.06383" transform="rotate(45 16.918 36.0781)" fill="#FFCD1A"/>
</g>
<path fill-rule="evenodd" clip-rule="evenodd" d="M43.5 19.5C41.0147 19.5 39 21.5147 39 24V40.9995C37.1783 42.3678 36 44.5463 36 47C36 51.1421 39.3579 54.5 43.5 54.5C47.6421 54.5 51 51.1421 51 47C51 44.5463 49.8217 42.3678 48 40.9995V24C48 21.5147 45.9853 19.5 43.5 19.5Z" fill="url(#paint1_linear_3692_85299)"/>
<rect opacity="0.5" x="42" y="23" width="3" height="25" rx="1.5" fill="#D9D9D9"/>
<path fill-rule="evenodd" clip-rule="evenodd" d="M45 34H42V42.7561C40.2522 43.3738 39 45.0407 39 47C39 49.4853 41.0147 51.5 43.5 51.5C45.9853 51.5 48 49.4853 48 47C48 45.0407 46.7478 43.3738 45 42.7561V34Z" fill="url(#paint2_linear_3692_85299)"/>
<defs>
<linearGradient id="paint0_linear_3692_85299" x1="19.9897" y1="14.511" x2="35.7344" y2="37.0642" gradientUnits="userSpaceOnUse">
<stop stop-color="#FFE661"/>
<stop offset="1" stop-color="#F9C91F"/>
</linearGradient>
<linearGradient id="paint1_linear_3692_85299" x1="41.5" y1="5.5" x2="41.5" y2="57.5" gradientUnits="userSpaceOnUse">
<stop stop-color="#F6FFFC"/>
<stop offset="1" stop-color="#ECEEEE"/>
</linearGradient>
<linearGradient id="paint2_linear_3692_85299" x1="41.5" y1="16.5" x2="41.5" y2="53.5" gradientUnits="userSpaceOnUse">
<stop stop-color="#6AC2F3"/>
<stop offset="1" stop-color="#3988E4"/>
</linearGradient>
</defs>
</svg>
