<svg width="48" height="48" viewBox="0 0 48 48" fill="none" xmlns="http://www.w3.org/2000/svg">
<path d="M19.757 14.4044C25.7835 16.2564 29.9737 11.3671 31.39 8.47078C32.0104 7.39884 33.6142 8.02414 34.011 8.47078L40.0998 15.1426C40.1639 15.2128 40.2167 15.2925 40.2632 15.3755C40.9917 16.6769 43.0706 18.0636 40.8517 21.2782L22.3185 41.9071C22.2815 41.9483 22.2412 41.9864 22.1976 42.0206C19.5813 44.0713 15.9506 44.9118 12.6769 41.969C8.44303 38.1632 16.5088 29.4387 18.2123 25.5499C18.2637 25.4326 18.2854 25.3103 18.2854 25.1823L18.2854 15.4082C18.2854 14.6747 19.0558 14.1889 19.757 14.4044Z" fill="#C5CDF8"/>
<path d="M17.9223 11.2038C24.1097 13.4925 28.4192 8.50037 29.8471 5.57935C30.4541 4.53009 31.3823 5.14216 31.7705 5.57935L38.1562 12.7047C38.5246 13.1157 38.4486 13.725 38.172 14.2027C37.6925 15.0305 38.1581 15.6966 38.6266 16.9099C38.7565 17.2463 38.6724 17.6244 38.4288 17.8903L20.8711 37.057C18.3065 39.6802 15.0631 41.4128 12.5363 40.3359C4.84256 37.057 7.1934 30.9364 8.6894 27.2203L16.5841 11.6913C16.8293 11.2092 17.415 11.0162 17.9223 11.2038Z" fill="#6267DE"/>
<mask id="mask0_7921_147682" style="mask-type:alpha" maskUnits="userSpaceOnUse" x="31" y="8" width="11" height="18">
<path d="M33.4054 24.7081C29.1168 18.5271 31.5617 11.9778 33.8061 8.73135C34.1355 8.25491 34.8169 8.22784 35.2275 8.63637C46.9784 20.3283 39.8671 24.4251 34.281 25.1026C33.9393 25.1441 33.6016 24.9909 33.4054 24.7081Z" fill="#D9D9D9"/>
</mask>
<g mask="url(#mask0_7921_147682)">
<path d="M16.3345 9.7867C22.6788 12.0919 27.098 7.12167 28.5604 4.21584C29.1808 3.17407 30.1295 3.78177 30.5263 4.21584L39.0456 13.3313C40.6184 14.8939 39.7009 16.5868 39.0456 17.2379L20.6964 36.771C18.0751 39.3754 15.4538 40.6233 10.8665 38.7243C3.0026 35.4687 5.40545 29.3918 6.93455 25.7022L15.0137 10.2655C15.2604 9.7942 15.8345 9.60502 16.3345 9.7867Z" fill="#4D51BD"/>
</g>
<path fill-rule="evenodd" clip-rule="evenodd" d="M12.3632 18.2968C12.4567 17.7077 13.0101 17.306 13.5992 17.3995L19.8291 18.3883C20.4182 18.4818 20.8199 19.0351 20.7264 19.6242C20.6329 20.2133 20.0796 20.6151 19.4905 20.5216L13.2606 19.5328C12.6715 19.4393 12.2697 18.8859 12.3632 18.2968Z" fill="white"/>
<path fill-rule="evenodd" clip-rule="evenodd" d="M9.45257 22.7128C9.54607 22.1237 10.0994 21.722 10.6885 21.8155L16.9184 22.8043C17.5075 22.8978 17.9093 23.4511 17.8158 24.0402C17.7223 24.6293 17.1689 25.0311 16.5798 24.9376L10.3499 23.9488C9.76083 23.8553 9.35907 23.3019 9.45257 22.7128Z" fill="white"/>
<path fill-rule="evenodd" clip-rule="evenodd" d="M7.14642 27.3339C7.23991 26.7448 7.79326 26.3431 8.38236 26.4366L14.6123 27.4254C15.2014 27.5189 15.6031 28.0722 15.5096 28.6613C15.4161 29.2504 14.8628 29.6522 14.2737 29.5587L8.04377 28.5699C7.45468 28.4764 7.05292 27.923 7.14642 27.3339Z" fill="white"/>
</svg>
