<svg width="41" height="40" viewBox="0 0 41 40" fill="none" xmlns="http://www.w3.org/2000/svg">
<rect x="0.0546875" width="40" height="40" rx="8" fill="#F8F8F8"/>
<path d="M31.5547 21.8897C31.5547 26.1665 28.7568 28.4235 25.305 28.4235C21.8532 28.4235 19.0547 26.1665 19.0547 21.8897C19.0547 17.6129 25.305 11 25.305 11C25.305 11 31.5547 17.6129 31.5547 21.8897Z" fill="#FFC4C4"/>
<path d="M25.5547 23.0625C25.5547 28.5853 21.8615 31.5 17.3051 31.5C12.7488 31.5 9.05469 28.5853 9.05469 23.0625C9.05469 17.5397 17.3051 9 17.3051 9C17.3051 9 25.5547 17.5397 25.5547 23.0625Z" fill="url(#paint0_linear_2204_69068)"/>
<rect x="13.1797" y="19.6055" width="2.5" height="2.5" rx="1.25" fill="white"/>
<rect x="18.9375" y="24.1953" width="2.5" height="2.5" rx="1.25" fill="white"/>
<path d="M18.9578 19C19.5509 19 19.9364 19.6247 19.6702 20.1549L16.4547 26.5599C16.3194 26.8294 16.0437 26.9995 15.7421 26.9995C15.1489 26.9995 14.7634 26.3746 15.0296 25.8445L18.2453 19.4395C18.3806 19.1701 18.6563 19 18.9578 19Z" fill="white"/>
<defs>
<linearGradient id="paint0_linear_2204_69068" x1="17.3047" y1="9" x2="17.3047" y2="31.5" gradientUnits="userSpaceOnUse">
<stop stop-color="#FF8989"/>
<stop offset="1" stop-color="#F75757"/>
</linearGradient>
</defs>
</svg>
