<svg width="28" height="28" viewBox="0 0 28 28" fill="none" xmlns="http://www.w3.org/2000/svg">
<circle cx="14" cy="14" r="14" fill="#FFB800"/>
<path d="M4.71922 12.9547C4.93141 12.3419 5.17259 11.7106 5.41846 11.1965C6.06716 9.83998 7.41531 7.90446 7.41531 7.90446C7.41531 7.90446 7.82025 7.29325 8.49469 7.90446C9.16913 8.51567 9.25025 9.28092 10.2217 9.46956C11.1931 9.6582 11.8441 9.03706 12.8932 9.11841C14.1428 9.21531 14.8416 10.0257 15.4178 11.0068M4.71922 12.9547C4.51897 13.533 4.34455 14.0948 4.21635 14.5263C4.07916 14.988 4.30336 15.4757 4.73787 15.6835L14.5392 20.3709H21.4742C21.4742 20.3709 22.6777 19.2318 22.9558 18.1446M4.71922 12.9547L15.4894 18.1446H22.9558M22.9558 18.1446C22.9895 18.0127 23.0096 17.8816 23.0123 17.7533C23.0417 16.3566 22.3238 15.2751 21.0155 14.7851C20.226 14.4894 19.6902 14.9116 18.8567 14.7851C16.9197 14.4909 16.3186 12.5403 15.4178 11.0068M15.4178 11.0068L12.8932 12.4862M16.4081 12.9547L14.9266 13.9241" stroke="white" stroke-width="1.4" stroke-linecap="round"/>
</svg>
