<svg width="52" height="52" viewBox="0 0 52 52" fill="none" xmlns="http://www.w3.org/2000/svg">
<mask id="mask0_8955_22754" style="mask-type:alpha" maskUnits="userSpaceOnUse" x="17" y="17" width="27" height="28">
<path d="M34.4064 17.914L18.1174 31.5821C17.3245 32.2474 17.4819 33.5093 18.4141 33.9593L40.318 44.535C41.9792 45.337 43.8088 43.8018 43.3074 42.0266L36.696 18.619C36.4146 17.6229 35.1993 17.2486 34.4064 17.914Z" fill="url(#paint0_linear_8955_22754)"/>
<path d="M34.4064 17.914L18.1174 31.5821C17.3245 32.2474 17.4819 33.5093 18.4141 33.9593L40.318 44.535C41.9792 45.337 43.8088 43.8018 43.3074 42.0266L36.696 18.619C36.4146 17.6229 35.1993 17.2486 34.4064 17.914Z" fill="url(#paint1_linear_8955_22754)"/>
</mask>
<g mask="url(#mask0_8955_22754)">
<path d="M10.7891 56.4141L28.1687 6.42944L33.8121 8.39166L16.4325 58.3763L10.7891 56.4141Z" fill="#FFCD1D"/>
<path d="M16.4297 58.375L33.8093 8.39038L39.4528 10.3526L22.0731 60.3372L16.4297 58.375Z" fill="#FFD61B"/>
<path d="M22.0742 60.3359L39.4539 10.3513L45.0973 12.3135L27.7176 62.2982L22.0742 60.3359Z" fill="#FFCD1D"/>
<path d="M27.7188 62.2969L45.0984 12.3123L50.7418 14.2745L33.3622 64.2591L27.7188 62.2969Z" fill="#FFD61B"/>
<path d="M33.332 64.3477L50.7117 14.363L56.3551 16.3253L38.9755 66.3099L33.332 64.3477Z" fill="#FFCD1D"/>
</g>
<path d="M36.0795 18.3784C36.322 18.6674 36.4343 19.1362 36.3076 19.8437C36.1815 20.5475 35.8294 21.4117 35.255 22.3844C34.1089 24.3254 32.138 26.5976 29.6058 28.7223C27.0736 30.8471 24.4937 32.3935 22.3831 33.1852C21.3255 33.5818 20.4133 33.7785 19.6983 33.7805C18.9796 33.7825 18.5374 33.5905 18.2949 33.3015C18.0524 33.0125 17.9402 32.5438 18.0669 31.8363C18.193 31.1325 18.5451 30.2683 19.1194 29.2956C20.2655 27.3545 22.2365 25.0824 24.7686 22.9576C27.3008 20.8329 29.8807 19.2864 31.9913 18.4948C33.0489 18.0981 33.9612 17.9014 34.6761 17.8995C35.3949 17.8975 35.8371 18.0895 36.0795 18.3784Z" fill="url(#paint2_linear_8955_22754)" stroke="#FFE381" stroke-width="1.03333"/>
<path fill-rule="evenodd" clip-rule="evenodd" d="M28.8496 17.1399C28.5341 19.1634 29.1102 21.2043 30.152 23.4297C30.4025 23.9648 30.1718 24.6017 29.6366 24.8522C29.1015 25.1027 28.4646 24.872 28.2141 24.3369C27.1064 21.9706 26.3225 19.4594 26.7354 16.8103C27.1525 14.1349 28.7553 11.5225 31.9894 8.87742C32.4467 8.50336 33.1207 8.57089 33.4948 9.02825C33.8689 9.48561 33.8013 10.1596 33.344 10.5337C30.3747 12.9621 29.1609 15.1427 28.8496 17.1399Z" fill="#FF7878"/>
<path fill-rule="evenodd" clip-rule="evenodd" d="M13.5766 34.6211C12.7724 34.7476 11.9663 34.4988 11.2241 33.9875C10.5514 33.5241 10.0771 32.9073 9.90695 32.1551C9.73973 31.416 9.89893 30.6908 10.2097 30.0574C10.7428 28.9706 11.8024 27.9739 13.0786 27.1788C12.7914 26.844 12.4453 26.5396 12.0353 26.2809C10.8246 25.5173 8.92252 25.0701 6.04997 25.6071C5.46918 25.7157 4.91033 25.3329 4.80175 24.7521C4.69317 24.1713 5.07597 23.6125 5.65676 23.5039C8.906 22.8964 11.3929 23.346 13.1768 24.4712C13.9394 24.9523 14.5492 25.5416 15.0223 26.1885C17.959 24.9811 21.7976 24.5642 25.1348 26.2555C25.6618 26.5226 25.8725 27.1663 25.6054 27.6934C25.3383 28.2204 24.6946 28.4311 24.1675 28.164C21.589 26.8572 18.4876 27.1175 16.0004 28.0998C16.0956 28.3895 16.1706 28.6808 16.2264 28.9704C16.5384 30.5878 16.2784 32.2999 15.4393 33.435C15.0061 34.021 14.3805 34.4947 13.5766 34.6211ZM14.0614 29.0891C14.0857 29.1845 14.1071 29.2801 14.1255 29.3757C14.3583 30.5823 14.1075 31.6372 13.7187 32.163C13.538 32.4075 13.3704 32.4876 13.2442 32.5074C13.1183 32.5272 12.8574 32.5145 12.438 32.2255C12.1134 32.0019 12.0223 31.8086 11.9939 31.683C11.9625 31.5444 11.9715 31.3241 12.1307 30.9997C12.4126 30.425 13.0696 29.7324 14.0614 29.0891Z" fill="#287EFF"/>
<path d="M27.0234 4.31903C27.0234 3.912 27.3534 3.58203 27.7604 3.58203H29.2344C29.6415 3.58203 29.9714 3.912 29.9714 4.31903V5.79302C29.9714 6.20005 29.6415 6.53001 29.2344 6.53001H27.7604C27.3534 6.53001 27.0234 6.20005 27.0234 5.79302V4.31903Z" fill="#AAF398"/>
<path d="M38.0781 13.1628C38.0781 12.7557 38.4081 12.4258 38.8151 12.4258H40.2891C40.6961 12.4258 41.0261 12.7557 41.0261 13.1628V14.6368C41.0261 15.0438 40.6961 15.3738 40.2891 15.3738H38.8151C38.4081 15.3738 38.0781 15.0438 38.0781 14.6368V13.1628Z" fill="#6FA8FF"/>
<path d="M7.125 16.112C7.125 15.705 7.45496 15.375 7.86199 15.375H9.33598C9.74302 15.375 10.073 15.705 10.073 16.112V17.586C10.073 17.993 9.74302 18.323 9.33598 18.323H7.86199C7.45496 18.323 7.125 17.993 7.125 17.586V16.112Z" fill="#FF9D9D"/>
<circle cx="18.2" cy="16.4656" r="5.2" fill="#FFEBA3"/>
<circle cx="18.1988" cy="16.4644" r="4.355" fill="url(#paint3_linear_8955_22754)"/>
<path d="M16.9648 18.3211V14.6445H18.407C19.2424 14.6445 19.7223 15.16 19.7223 15.8836C19.7223 16.6174 19.2348 17.1227 18.3867 17.1227H17.7266V18.3211H16.9648ZM17.7266 16.5082H18.2648C18.7168 16.5082 18.9377 16.2543 18.9352 15.8836C18.9377 15.518 18.7168 15.2717 18.2648 15.2691H17.7266V16.5082Z" fill="white"/>
<defs>
<linearGradient id="paint0_linear_8955_22754" x1="19.4229" y1="27.6934" x2="49.3318" y2="41.7007" gradientUnits="userSpaceOnUse">
<stop stop-color="#FFDA55"/>
<stop stop-color="#FFDA55"/>
<stop offset="0.0001" stop-color="#FFDD65"/>
<stop offset="0.89618" stop-color="#F4C418"/>
</linearGradient>
<linearGradient id="paint1_linear_8955_22754" x1="21.1434" y1="30.8533" x2="50.3977" y2="35.5223" gradientUnits="userSpaceOnUse">
<stop stop-color="#FFE924"/>
<stop offset="0.747259" stop-color="#FFCC15"/>
<stop offset="1" stop-color="#ECC640"/>
</linearGradient>
<linearGradient id="paint2_linear_8955_22754" x1="37.5397" y1="8.77384" x2="20.0703" y2="14.4129" gradientUnits="userSpaceOnUse">
<stop stop-color="#FFE924"/>
<stop offset="0.76718" stop-color="#FFCC15"/>
<stop offset="0.958132" stop-color="#ECC640"/>
</linearGradient>
<linearGradient id="paint3_linear_8955_22754" x1="18.1988" y1="12.1094" x2="18.1988" y2="20.8194" gradientUnits="userSpaceOnUse">
<stop stop-color="#FFDA55"/>
<stop offset="0.0001" stop-color="#FFDA55"/>
<stop offset="1" stop-color="#FFDD65"/>
</linearGradient>
</defs>
</svg>
