<svg width="32" height="32" viewBox="0 0 32 32" fill="none" xmlns="http://www.w3.org/2000/svg">
<rect width="32" height="32" rx="8" fill="#F8F8F8"/>
<rect x="12.9961" y="6.60156" width="6.4" height="2" rx="1" fill="#52728E"/>
<rect x="15.1963" y="8.60156" width="2" height="2.4" fill="#37526B"/>
<path d="M23.3953 17.8047C23.3953 21.7811 20.1718 25.0047 16.1953 25.0047C12.2189 25.0047 8.99531 21.7811 8.99531 17.8047C8.99531 13.8282 12.2189 10.6047 16.1953 10.6047C20.1718 10.6047 23.3953 13.8282 23.3953 17.8047Z" fill="url(#paint0_linear_3272_10062)" stroke="#3B5A77" stroke-width="1.6"/>
<path d="M13.0368 20.9618C12.8181 21.1805 12.8164 21.5379 13.058 21.7309C13.5552 22.1281 14.1246 22.4283 14.7368 22.6141C15.5282 22.8541 16.3665 22.8953 17.1776 22.734C17.9886 22.5726 18.7474 22.2138 19.3866 21.6891C20.0259 21.1645 20.5259 20.4904 20.8423 19.7264C21.1588 18.9624 21.282 18.1321 21.2009 17.3091C21.1198 16.4862 20.8371 15.6959 20.3776 15.0083C19.9182 14.3207 19.2963 13.757 18.567 13.3672C18.0028 13.0656 17.3878 12.8753 16.7554 12.8046C16.448 12.7702 16.1965 13.0242 16.1965 13.3334L16.1965 17.57C16.1965 17.7186 16.1375 17.861 16.0325 17.966L13.0368 20.9618Z" fill="url(#paint1_linear_3272_10062)"/>
<defs>
<linearGradient id="paint0_linear_3272_10062" x1="16.1953" y1="9.80469" x2="16.1953" y2="25.8047" gradientUnits="userSpaceOnUse">
<stop stop-color="#F4F5F7"/>
<stop offset="1" stop-color="#E7EAED"/>
</linearGradient>
<linearGradient id="paint1_linear_3272_10062" x1="16.1961" y1="12.6031" x2="16.1961" y2="23.0031" gradientUnits="userSpaceOnUse">
<stop stop-color="#FF8188"/>
<stop offset="1" stop-color="#F4616A"/>
</linearGradient>
</defs>
</svg>
