<svg width="24" height="24" viewBox="0 0 24 24" fill="none" xmlns="http://www.w3.org/2000/svg">
<g id="icon/24/&#236;&#177;&#140;&#235;&#166;&#176;&#236;&#167;&#128;">
<rect width="24" height="24" fill="white"/>
<g id="Group 1321316749">
<path id="Rectangle 34624852" d="M10 17C10 16.4477 10.4477 16 11 16H13C13.5523 16 14 16.4477 14 17V19H10V17Z" fill="#F7A500"/>
<path id="Rectangle 34624848" d="M2.75 7C2.75 6.30964 3.30964 5.75 4 5.75H8C8.69036 5.75 9.25 6.30964 9.25 7V10C9.25 11.7949 7.79493 13.25 6 13.25C4.20507 13.25 2.75 11.7949 2.75 10V7Z" stroke="url(#paint0_linear_4031_10872)" stroke-width="1.5"/>
<path id="Rectangle 34624849" d="M14.75 7C14.75 6.30964 15.3096 5.75 16 5.75H20C20.6904 5.75 21.25 6.30964 21.25 7V10C21.25 11.7949 19.7949 13.25 18 13.25C16.2051 13.25 14.75 11.7949 14.75 10V7Z" stroke="url(#paint1_linear_4031_10872)" stroke-width="1.5"/>
<path id="Rectangle 34624851" d="M7 21C7 19.8954 7.89543 19 9 19H15C16.1046 19 17 19.8954 17 21H7Z" fill="#FED200"/>
<path id="Rectangle 34624850" d="M5 21.7C5 21.0373 5.53726 20.5 6.2 20.5H17.8C18.4627 20.5 19 21.0373 19 21.7C19 21.8657 18.8657 22 18.7 22H5.3C5.13431 22 5 21.8657 5 21.7Z" fill="#F7A500"/>
<path id="Rectangle 34624847" d="M5 4C5 2.89543 5.89543 2 7 2H17C18.1046 2 19 2.89543 19 4V10C19 13.866 15.866 17 12 17C8.13401 17 5 13.866 5 10V4Z" fill="url(#paint2_linear_4031_10872)"/>
<path id="Vector" d="M14.1832 9.72354C14.0849 9.8363 14.016 10.0618 14.0259 10.2156L14.0849 11.2201C14.1242 11.8352 13.7013 12.1529 13.1506 11.9274L12.2557 11.5584C12.118 11.5071 11.882 11.5071 11.7443 11.5584L10.8494 11.9274C10.2987 12.1529 9.87578 11.8352 9.91512 11.2201L9.97412 10.2156C9.98396 10.0618 9.91511 9.8363 9.81677 9.72354L9.20704 8.94449C8.8235 8.47296 8.99069 7.95018 9.56108 7.79642L10.4953 7.55041C10.6429 7.5094 10.8199 7.3659 10.8986 7.23264L11.4198 6.39209C11.7443 5.8693 12.2557 5.8693 12.5802 6.39209L13.1014 7.23264C13.1801 7.3659 13.3571 7.5094 13.5047 7.55041L14.4389 7.79642C15.0093 7.95018 15.1765 8.47296 14.793 8.94449L14.1832 9.72354Z" fill="white"/>
</g>
</g>
<defs>
<linearGradient id="paint0_linear_4031_10872" x1="6" y1="5" x2="6" y2="14" gradientUnits="userSpaceOnUse">
<stop stop-color="#FEC600"/>
<stop offset="1" stop-color="#FEB700"/>
</linearGradient>
<linearGradient id="paint1_linear_4031_10872" x1="18" y1="5" x2="18" y2="14" gradientUnits="userSpaceOnUse">
<stop stop-color="#FEC600"/>
<stop offset="1" stop-color="#FEB700"/>
</linearGradient>
<linearGradient id="paint2_linear_4031_10872" x1="12" y1="2" x2="12" y2="17" gradientUnits="userSpaceOnUse">
<stop stop-color="#FFE141"/>
<stop offset="1" stop-color="#FEC600"/>
</linearGradient>
</defs>
</svg>
