<svg width="64" height="64" viewBox="0 0 64 64" fill="none" xmlns="http://www.w3.org/2000/svg">
<g id="icon/64/&#236;&#150;&#145;&#236;&#163;&#188;&#236;&#158;&#148; /on">
<g id="&#236;&#150;&#145;&#236;&#163;&#188;&#236;&#158;&#148;">
<path id="Rectangle 34624988" d="M15.7784 21.8545C15.7012 21.2564 16.167 20.7266 16.7701 20.7266H47.3202C47.9233 20.7266 48.3892 21.2564 48.312 21.8545L43.7683 57.0685C43.7683 57.0685 41.7168 59.9993 32.0452 59.9993C22.3736 59.9993 20.3221 57.0685 20.3221 57.0685L15.7784 21.8545Z" fill="#DFEAF5"/>
<path id="Ellipse 3424" d="M40.724 56.7276C40.724 57.3301 36.87 57.8185 31.9967 57.8185C27.1234 57.8185 23.2695 57.3301 23.2695 56.7276C23.2695 56.1251 27.1234 55.6367 31.9967 55.6367C36.87 55.6367 40.724 56.1251 40.724 56.7276Z" fill="#89B9D2" fill-opacity="0.3"/>
<g id="Mask group">
<mask id="mask0_1482_68952" style="mask-type:alpha" maskUnits="userSpaceOnUse" x="17" y="20" width="30" height="29">
<path id="Rectangle 34624990" d="M17.4865 21.3917C17.435 21.0392 17.7088 20.7266 18.0649 20.7266H45.973C46.3463 20.7266 46.6255 21.0656 46.5469 21.4305C45.9 24.431 43.3428 36.252 42.0092 41.8283C40.9819 46.1237 36.168 48.2761 31.7515 48.2761C27.3349 48.2761 22.8279 46.0385 21.4937 41.8283C19.7106 36.2013 17.9147 24.3241 17.4865 21.3917Z" fill="#D9D9D9"/>
</mask>
<g mask="url(#mask0_1482_68952)">
<g id="Group 1321316899">
<path id="Vector 1596" d="M43.8644 28.1173C46.2241 27.4536 47.1061 28.1413 47.252 28.5681L48.4595 33.21L36.3405 41.9855C31.8506 40.1658 23.1103 35.9473 24.0676 33.6304C25.2642 30.7343 31.2699 28.2744 36.3977 29.3642C41.5255 30.454 40.9148 28.9469 43.8644 28.1173Z" fill="#A63719"/>
<path id="Vector 1595" d="M43.4053 30.2279C47.3287 27.1904 48.2041 28.9623 48.1514 30.2279L44.5127 52.6928C43.6689 54.0638 39.988 56.806 32.0146 56.806C24.0411 56.806 19.622 54.9076 18.4092 53.9584L16.0361 31.81C15.8252 31.4408 16.0045 30.6076 18.4092 30.2279C21.415 29.7533 25.6865 33.5502 30.2744 33.8666C34.8623 34.183 38.501 34.0248 43.4053 30.2279Z" fill="#E27329"/>
<path id="Vector 1594" d="M24.0571 31.1979C17.9813 26.6208 15.0481 27.7258 13.8618 27.9992C11.9354 29.069 10.1942 55.5043 22.3011 57.3262C48.0893 61.2069 69.749 39.1482 47.6962 35.7005C45.9697 35.4306 31.6649 36.9291 24.0571 31.1979Z" fill="#FEC64A"/>
</g>
<path id="Rectangle 34624991" d="M18.0391 23.6403C17.8189 22.2149 18.9246 20.9384 20.3702 20.9384H43.493C45.0081 20.9384 46.1362 22.3312 45.8155 23.8105C44.8023 28.4838 42.8933 37.2206 41.8031 41.779C41.3062 43.8567 39.8924 45.4255 38.0463 46.479C36.1985 47.5333 33.928 48.0642 31.7515 48.0642C27.3899 48.0642 22.9921 45.8554 21.6957 41.7643C20.2306 37.141 18.7532 28.263 18.0391 23.6403Z" stroke="white" stroke-width="0.42374"/>
</g>
</g>
<path id="Rectangle 34624992" d="M15.9885 21.8274C15.9277 21.356 16.2948 20.9384 16.7701 20.9384H47.3202C47.7956 20.9384 48.1627 21.356 48.1019 21.8274L43.5657 56.9833C43.5515 57.0002 43.532 57.0225 43.5066 57.0497C43.4385 57.1224 43.3281 57.2299 43.1643 57.361C42.8368 57.623 42.2949 57.9797 41.4506 58.3389C39.7615 59.0577 36.8604 59.7874 32.0452 59.7874C27.2299 59.7874 24.3289 59.0577 22.6397 58.3389C21.7954 57.9797 21.2536 57.623 20.9261 57.361C20.7623 57.2299 20.6518 57.1224 20.5838 57.0497C20.5584 57.0225 20.5389 57.0002 20.5247 56.9833L15.9885 21.8274ZM20.495 56.9461C20.4949 56.9459 20.4948 56.9459 20.495 56.946L20.495 56.9461Z" fill="url(#paint0_linear_1482_68952)" fill-opacity="0.4" stroke="white" stroke-width="0.42374"/>
<path id="Ellipse 3426" d="M48.1958 21.6069C48.1958 21.7762 48.1047 21.9555 47.8999 22.1432C47.6952 22.3307 47.3874 22.5166 46.9812 22.6966C46.1695 23.0565 44.9883 23.3831 43.5204 23.6583C40.5865 24.2084 36.5289 24.5493 32.0439 24.5493C27.559 24.5493 23.5014 24.2084 20.5675 23.6583C19.0996 23.3831 17.9184 23.0565 17.1067 22.6966C16.7004 22.5166 16.3926 22.3307 16.188 22.1432C15.9832 21.9555 15.8921 21.7762 15.8921 21.6069C15.8921 21.4376 15.9832 21.2584 16.188 21.0707C16.3926 20.8832 16.7004 20.6973 17.1067 20.5172C17.9184 20.1574 19.0996 19.8308 20.5675 19.5556C23.5014 19.0054 27.559 18.6645 32.0439 18.6645C36.5289 18.6645 40.5865 19.0054 43.5204 19.5556C44.9883 19.8308 46.1695 20.1574 46.9812 20.5172C47.3874 20.6973 47.6952 20.8832 47.8999 21.0707C48.1047 21.2584 48.1958 21.4376 48.1958 21.6069Z" fill="url(#paint1_linear_1482_68952)" stroke="white" stroke-width="0.21187"/>
</g>
</g>
<defs>
<linearGradient id="paint0_linear_1482_68952" x1="45.5268" y1="42.938" x2="18.5636" y2="42.938" gradientUnits="userSpaceOnUse">
<stop stop-color="white" stop-opacity="0.5"/>
<stop offset="0.478261" stop-color="white"/>
<stop offset="1" stop-color="white" stop-opacity="0.5"/>
</linearGradient>
<linearGradient id="paint1_linear_1482_68952" x1="32.0439" y1="18.5586" x2="32.0439" y2="24.6553" gradientUnits="userSpaceOnUse">
<stop stop-color="#DFEAF5"/>
<stop offset="1" stop-color="#DCF3FF"/>
</linearGradient>
</defs>
</svg>
