<svg width="56" height="57" viewBox="0 0 56 57" fill="none" xmlns="http://www.w3.org/2000/svg">
<path d="M8.75 20.737L20.4167 9.07031M20.4167 9.07031H12.25M20.4167 9.07031V17.237" stroke="#3F86F1" stroke-width="2" stroke-linecap="round" stroke-linejoin="round"/>
<path d="M7 49.3203V42.9819C7 42.3375 7.52233 41.8152 8.16667 41.8152H17.2879C17.9322 41.8152 18.4545 41.2929 18.4545 40.6485V31.4836C18.4545 30.8392 18.9769 30.3169 19.6212 30.3169H28.7424C29.3868 30.3169 29.9091 29.7946 29.9091 29.1502V19.9853C29.9091 19.3409 30.4314 18.8186 31.0758 18.8186H40.197C40.8413 18.8186 41.3636 18.2963 41.3636 17.6519V8.48703C41.3636 7.84268 41.886 7.32034 42.5304 7.32036L49 7.32065" stroke="#3F86F1" stroke-width="2" stroke-linecap="round"/>
</svg>
