<svg width="56" height="56" viewBox="0 0 56 56" fill="none" xmlns="http://www.w3.org/2000/svg">
<path fill-rule="evenodd" clip-rule="evenodd" d="M20.2528 39.4619C26.6492 43.1872 35.5282 41.8447 41.6291 35.7439C48.7466 28.6263 49.3877 17.7276 43.061 11.4008C36.7343 5.07413 25.8355 5.71523 18.718 12.8328C12.5862 18.9646 11.2611 27.9027 15.057 34.3062L9.14457 38.7165C8.00444 39.567 7.88401 41.2309 8.88979 42.2367L12.2535 45.6004C13.2528 46.5997 14.904 46.4883 15.76 45.3638L20.2528 39.4619Z" fill="white"/>
<path d="M20.2528 39.4619L20.756 38.5978L19.9924 38.153L19.4571 38.8562L20.2528 39.4619ZM15.057 34.3062L15.6549 35.1077L16.3758 34.5699L15.9172 33.7962L15.057 34.3062ZM9.14457 38.7165L8.54665 37.9149L9.14457 38.7165ZM8.88979 42.2367L8.18268 42.9438L8.88979 42.2367ZM12.2535 45.6004L12.9606 44.8933L12.2535 45.6004ZM15.76 45.3638L14.9643 44.7581L15.76 45.3638ZM40.922 35.0367C35.0974 40.8613 26.7081 42.0642 20.756 38.5978L19.7495 40.326C26.5904 44.3102 35.959 42.8281 42.3362 36.451L40.922 35.0367ZM42.3539 12.108C48.2141 17.9681 47.7296 28.2291 40.922 35.0367L42.3362 36.451C49.7636 29.0235 50.5613 17.487 43.7681 10.6937L42.3539 12.108ZM19.4251 13.5399C26.2327 6.73227 36.4937 6.24776 42.3539 12.108L43.7681 10.6937C36.9749 3.9005 25.4384 4.6982 18.0109 12.1257L19.4251 13.5399ZM15.9172 33.7962C12.3857 27.8387 13.5707 19.3943 19.4251 13.5399L18.0109 12.1257C11.6017 18.5349 10.1366 27.9667 14.1968 34.8161L15.9172 33.7962ZM9.74248 39.5181L15.6549 35.1077L14.4591 33.5046L8.54665 37.9149L9.74248 39.5181ZM9.5969 41.5296C9.02216 40.9549 9.09098 40.004 9.74248 39.5181L8.54665 37.9149C6.91789 39.1299 6.74585 41.507 8.18268 42.9438L9.5969 41.5296ZM12.9606 44.8933L9.5969 41.5296L8.18268 42.9438L11.5463 46.3075L12.9606 44.8933ZM14.9643 44.7581C14.4751 45.4006 13.5316 45.4643 12.9606 44.8933L11.5463 46.3075C12.9739 47.7351 15.3328 47.5759 16.5557 45.9695L14.9643 44.7581ZM19.4571 38.8562L14.9643 44.7581L16.5557 45.9695L21.0484 40.0676L19.4571 38.8562Z" fill="#3F86F1"/>
<path d="M14.6719 19.3594L36.6362 41.3202" stroke="#3F86F1" stroke-width="2" stroke-linecap="round"/>
<circle cx="40.8307" cy="38.4987" r="8.16667" fill="white" stroke="#3F86F1" stroke-width="2"/>
</svg>
