<svg width="32" height="32" viewBox="0 0 32 32" fill="none" xmlns="http://www.w3.org/2000/svg">
<path d="M22.875 15.0117C22.481 14.8388 22.0553 14.7496 21.625 14.75H10.375C9.94473 14.7496 9.51907 14.8386 9.125 15.0113C8.56805 15.2549 8.09412 15.6554 7.76113 16.164C7.42815 16.6726 7.25053 17.2671 7.25 17.875V22.25C7.25 22.4158 7.31585 22.5747 7.43306 22.6919C7.55027 22.8092 7.70924 22.875 7.875 22.875C8.04076 22.875 8.19973 22.8092 8.31694 22.6919C8.43415 22.5747 8.5 22.4158 8.5 22.25V21.9375C8.50101 21.8549 8.53426 21.776 8.59265 21.7176C8.65104 21.6593 8.72993 21.626 8.8125 21.625H23.1875C23.2701 21.626 23.349 21.6593 23.4073 21.7176C23.4657 21.776 23.499 21.8549 23.5 21.9375V22.25C23.5 22.4158 23.5658 22.5747 23.6831 22.6919C23.8003 22.8092 23.9592 22.875 24.125 22.875C24.2908 22.875 24.4497 22.8092 24.5669 22.6919C24.6842 22.5747 24.75 22.4158 24.75 22.25V17.875C24.7494 17.2672 24.5717 16.6727 24.2388 16.1642C23.9058 15.6557 23.4319 15.2553 22.875 15.0117ZM20.6875 9.125H11.3125C10.7323 9.125 10.1759 9.35547 9.7657 9.7657C9.35547 10.1759 9.125 10.7323 9.125 11.3125V14.125C9.12502 14.1492 9.13066 14.1731 9.14149 14.1947C9.15231 14.2164 9.16803 14.2353 9.18738 14.2498C9.20674 14.2643 9.22921 14.2742 9.25303 14.2786C9.27684 14.2829 9.30135 14.2817 9.32461 14.275C9.6658 14.1752 10.0195 14.1247 10.375 14.125H10.5402C10.5788 14.1252 10.6161 14.1112 10.6449 14.0856C10.6738 14.06 10.6921 14.0247 10.6965 13.9863C10.7306 13.6809 10.876 13.3988 11.1049 13.1938C11.3338 12.9888 11.6302 12.8753 11.9375 12.875H14.125C14.4325 12.875 14.7292 12.9884 14.9584 13.1934C15.1875 13.3984 15.3331 13.6807 15.3672 13.9863C15.3715 14.0247 15.3899 14.06 15.4187 14.0856C15.4476 14.1112 15.4849 14.1252 15.5234 14.125H16.4789C16.5175 14.1252 16.5548 14.1112 16.5836 14.0856C16.6125 14.06 16.6308 14.0247 16.6352 13.9863C16.6692 13.6811 16.8144 13.3992 17.0431 13.1942C17.2718 12.9892 17.5679 12.8756 17.875 12.875H20.0625C20.37 12.875 20.6667 12.9884 20.8959 13.1934C21.125 13.3984 21.2706 13.6807 21.3047 13.9863C21.309 14.0247 21.3274 14.06 21.3562 14.0856C21.3851 14.1112 21.4224 14.1252 21.4609 14.125H21.625C21.9805 14.1248 22.3342 14.1755 22.6754 14.2754C22.6987 14.2821 22.7232 14.2833 22.7471 14.2789C22.7709 14.2745 22.7934 14.2647 22.8128 14.2501C22.8321 14.2355 22.8478 14.2166 22.8586 14.1949C22.8694 14.1732 22.875 14.1492 22.875 14.125V11.3125C22.875 10.7323 22.6445 10.1759 22.2343 9.7657C21.8241 9.35547 21.2677 9.125 20.6875 9.125Z" fill="white"/>
</svg>
