<svg width="54" height="50" viewBox="0 0 54 50" fill="none" xmlns="http://www.w3.org/2000/svg">
<g id="Group 1321316887">
<path id="Vector 2779" d="M1.33594 17.3334H6.43057M14.0336 17.3334H6.43057M6.43057 17.3334L15.5239 31.6236M15.5239 31.6236V31.6236C16.2472 31.0271 17.207 30.8013 18.1205 31.0125L34.5741 34.8182M15.5239 31.6236L9.52473 36.5707C8.4497 37.4572 7.82704 38.7777 7.82704 40.1711V44.0097C7.82704 46.587 9.91638 48.6764 12.4937 48.6764H37.635C38.8206 48.6764 39.9617 48.2251 40.8267 47.4142L41.6662 46.6271C43.2838 45.1106 43.611 42.6652 42.4489 40.7768L40.5027 37.6142C39.8486 36.5513 38.7959 35.7946 37.5799 35.5134L34.5741 34.8182M30.9464 9.73086H44.4456M44.4456 9.73086L52.6693 1.97266M44.4456 9.73086L34.5741 34.8182M18.9988 39.5223H23.5761M28.1535 39.5223H23.5761M23.5761 39.5223L25.826 44.0215" stroke="#3F86F1" stroke-width="2" stroke-linecap="round"/>
</g>
</svg>
