<svg width="41" height="41" viewBox="0 0 41 41" fill="none" xmlns="http://www.w3.org/2000/svg">
<rect x="0.125" y="0.710938" width="40" height="40" rx="8" fill="#F8F8F8"/>
<rect x="27.7734" y="13.6445" width="10.4021" height="20.8042" rx="5.20104" transform="rotate(45 27.7734 13.6445)" fill="url(#paint0_linear_2199_78288)"/>
<path d="M24.0957 17.3222C26.1269 15.2911 29.42 15.2911 31.4511 17.3222C33.4823 19.3534 33.4823 22.6465 31.4511 24.6776L27.7734 28.3553L20.418 20.9999L24.0957 17.3222Z" fill="url(#paint1_linear_2199_78288)"/>
<ellipse cx="21.2944" cy="10.616" rx="6.06788" ry="3.03394" fill="url(#paint2_linear_2199_78288)"/>
<mask id="mask0_2199_78288" style="mask-type:alpha" maskUnits="userSpaceOnUse" x="15" y="7" width="13" height="7">
<ellipse cx="21.2944" cy="10.616" rx="6.06788" ry="3.03394" fill="#FF9522"/>
</mask>
<g mask="url(#mask0_2199_78288)">
<rect x="20.8594" y="7.14453" width="0.866841" height="6.93472" fill="url(#paint3_linear_2199_78288)"/>
</g>
<circle cx="12.1932" cy="18.8456" r="5.20104" fill="url(#paint4_linear_2199_78288)"/>
<mask id="mask1_2199_78288" style="mask-type:alpha" maskUnits="userSpaceOnUse" x="6" y="13" width="12" height="12">
<circle cx="12.1932" cy="18.8456" r="5.20104" fill="#FF9522"/>
</mask>
<g mask="url(#mask1_2199_78288)">
<rect x="16.0234" y="14.6172" width="0.866841" height="11.7023" transform="rotate(45 16.0234 14.6172)" fill="url(#paint5_linear_2199_78288)"/>
</g>
<defs>
<linearGradient id="paint0_linear_2199_78288" x1="26.4124" y1="24.8127" x2="39.744" y2="24.6595" gradientUnits="userSpaceOnUse">
<stop stop-color="#FFF7F5"/>
<stop offset="1" stop-color="#EBE1DF"/>
</linearGradient>
<linearGradient id="paint1_linear_2199_78288" x1="23.2481" y1="17.1119" x2="31.6998" y2="25.5636" gradientUnits="userSpaceOnUse">
<stop stop-color="#F7655B"/>
<stop offset="1" stop-color="#E1453B"/>
</linearGradient>
<linearGradient id="paint2_linear_2199_78288" x1="18.9106" y1="6.71519" x2="23.895" y2="14.0833" gradientUnits="userSpaceOnUse">
<stop stop-color="#FFAD55"/>
<stop offset="1" stop-color="#EF8422"/>
</linearGradient>
<linearGradient id="paint3_linear_2199_78288" x1="21.2928" y1="7.14453" x2="21.2928" y2="14.0793" gradientUnits="userSpaceOnUse">
<stop stop-color="#E88B30"/>
<stop offset="1" stop-color="#D7720F"/>
</linearGradient>
<linearGradient id="paint4_linear_2199_78288" x1="9.376" y1="13.8612" x2="16.094" y2="23.3965" gradientUnits="userSpaceOnUse">
<stop stop-color="#FFDA65"/>
<stop offset="1" stop-color="#FFC01D"/>
</linearGradient>
<linearGradient id="paint5_linear_2199_78288" x1="11.5535" y1="19.5492" x2="21.0542" y2="19.5492" gradientUnits="userSpaceOnUse">
<stop stop-color="#FF9F37"/>
<stop offset="1" stop-color="#FC901A"/>
</linearGradient>
</defs>
</svg>
