<svg width="40" height="41" viewBox="0 0 40 41" fill="none" xmlns="http://www.w3.org/2000/svg">
<rect y="0.96875" width="40" height="40" rx="8" fill="#F8F8F8"/>
<path d="M8 15.9688H32V28.9688C32 30.6256 30.6569 31.9688 29 31.9688H11C9.34315 31.9688 8 30.6256 8 28.9688V15.9688Z" fill="#3E5072"/>
<path d="M8 12.9688C8 11.3119 9.34315 9.96875 11 9.96875H29C30.6569 9.96875 32 11.3119 32 12.9688V15.9688H8V12.9688Z" fill="#C8D8F4"/>
<rect x="12" y="10.4688" width="3.33333" height="3.33333" rx="1.66667" fill="white"/>
<rect x="24.668" y="10.4688" width="3.33333" height="3.33333" rx="1.66667" fill="white"/>
<rect x="12.668" y="8.46875" width="2" height="4.33333" rx="1" fill="url(#paint0_linear_2199_78728)"/>
<rect x="25.3359" y="8.46875" width="2" height="4.33333" rx="1" fill="url(#paint1_linear_2199_78728)"/>
<path fill-rule="evenodd" clip-rule="evenodd" d="M24.9974 24.7586C24.4011 25.284 23.6271 25.6012 22.7813 25.6012C20.8963 25.6012 19.3682 24.0253 19.3682 22.0814C19.3682 20.7777 20.0554 19.6396 21.0766 19.0313C20.8238 18.9901 20.5643 18.9688 20.2998 18.9688C17.6489 18.9688 15.5 21.1177 15.5 23.7685C15.5 26.4194 17.6489 28.5683 20.2998 28.5683C22.6113 28.5683 24.5411 26.9344 24.9974 24.7586Z" fill="url(#paint2_linear_2199_78728)"/>
<defs>
<linearGradient id="paint0_linear_2199_78728" x1="13.668" y1="8.46875" x2="13.668" y2="12.8021" gradientUnits="userSpaceOnUse">
<stop stop-color="#7B7B7B"/>
<stop offset="1" stop-color="#505050"/>
</linearGradient>
<linearGradient id="paint1_linear_2199_78728" x1="26.3359" y1="8.46875" x2="26.3359" y2="12.8021" gradientUnits="userSpaceOnUse">
<stop stop-color="#7B7B7B"/>
<stop offset="1" stop-color="#505050"/>
</linearGradient>
<linearGradient id="paint2_linear_2199_78728" x1="15.5" y1="18.8842" x2="24.299" y2="29.3593" gradientUnits="userSpaceOnUse">
<stop stop-color="#FFDE69"/>
<stop offset="1" stop-color="#FFC736"/>
</linearGradient>
</defs>
</svg>
