<svg width="32" height="33" viewBox="0 0 32 33" fill="none" xmlns="http://www.w3.org/2000/svg">
<circle cx="16" cy="16.2031" r="16" fill="#3F86F1"/>
<circle cx="10.25" cy="21.6562" r="2.25" fill="white" stroke="white" stroke-width="1.4"/>
<path d="M12.0665 16.3378C14.6842 16.9419 18.772 18.0648 18.772 18.0648M17.9008 10.6661C18.374 13.5671 19.3379 17.5342 19.3379 17.5342" stroke="white" stroke-width="1.4"/>
<path d="M16.2376 7.69807C18.5992 10.0597 18.7489 13.4782 16.8821 15.3449C15.0153 17.2117 11.5969 17.062 9.23526 14.7004C6.8736 12.3387 6.72395 8.92029 8.59072 7.05353C10.4575 5.18676 13.8759 5.33642 16.2376 7.69807Z" fill="#3F86F1" stroke="white" stroke-width="1.4"/>
<mask id="path-5-inside-1_2655_6170" fill="white">
<path d="M17.8018 18.9192C17.6631 18.7804 17.6631 18.5555 17.8018 18.4168L19.7743 16.4443C19.913 16.3056 20.138 16.3056 20.2767 16.4443L25.3189 21.4865C26.0023 22.1699 26.0023 23.2779 25.3189 23.9613C24.6355 24.6448 23.5274 24.6448 22.844 23.9613L17.8018 18.9192Z"/>
</mask>
<path d="M17.8018 18.9192C17.6631 18.7804 17.6631 18.5555 17.8018 18.4168L19.7743 16.4443C19.913 16.3056 20.138 16.3056 20.2767 16.4443L25.3189 21.4865C26.0023 22.1699 26.0023 23.2779 25.3189 23.9613C24.6355 24.6448 23.5274 24.6448 22.844 23.9613L17.8018 18.9192Z" fill="white" stroke="white" stroke-width="2.8" mask="url(#path-5-inside-1_2655_6170)"/>
<path d="M8.13086 13.3848L14.7432 6.77246" stroke="white" stroke-width="1.4"/>
<path d="M10.4004 15.6816L17.0127 9.06934" stroke="white" stroke-width="1.4"/>
<path d="M15.7013 16.4844L7.45121 8.23429" stroke="white" stroke-width="1.4"/>
<path d="M18.0217 14.1641L9.77165 5.91398" stroke="white" stroke-width="1.4"/>
</svg>
