<svg width="100" height="100" viewBox="0 0 100 100" fill="none" xmlns="http://www.w3.org/2000/svg">
<g clip-path="url(#clip0_2351_80220)">
<circle cx="50" cy="50" r="50" fill="url(#paint0_linear_2351_80220)"/>
<circle cx="30" cy="46" r="10" fill="#26282C"/>
<circle cx="70" cy="46" r="10" fill="#26282C"/>
<path d="M45 66C45 63.2386 47.2386 61 50 61V61C52.7614 61 55 63.2386 55 66V69.4706C55 71.4198 53.4198 73 51.4706 73H48.5294C46.5802 73 45 71.4198 45 69.4706V66Z" stroke="#26282C" stroke-width="4"/>
<path d="M25.0353 30.934C28.1953 30.0873 30.5937 27.8179 31.7274 24.9998" stroke="#26282C" stroke-width="4" stroke-linecap="round"/>
<path d="M74.7264 30.934C71.5664 30.0873 69.168 27.8179 68.0343 24.9998" stroke="#26282C" stroke-width="4" stroke-linecap="round"/>
</g>
<defs>
<linearGradient id="paint0_linear_2351_80220" x1="50" y1="0" x2="50" y2="100" gradientUnits="userSpaceOnUse">
<stop stop-color="#8CC39C"/>
<stop offset="1" stop-color="#BAD9C3"/>
</linearGradient>
<clipPath id="clip0_2351_80220">
<rect width="100" height="100" fill="white"/>
</clipPath>
</defs>
</svg>
