<svg width="40" height="40" viewBox="0 0 40 40" fill="none" xmlns="http://www.w3.org/2000/svg">
<circle cx="20" cy="20" r="20" fill="#71C772"/>
<rect width="40" height="40" rx="8" fill="#F8F8F8"/>
<path d="M17.666 25.8327C17.666 25.1884 18.1884 24.666 18.8327 24.666H21.166C21.8103 24.666 22.3327 25.1884 22.3327 25.8327V28.166H17.666V25.8327Z" fill="#F7A500"/>
<path d="M9.20898 14.1673C9.20898 13.3619 9.8619 12.709 10.6673 12.709H15.334C16.1394 12.709 16.7923 13.3619 16.7923 14.1673V17.6673C16.7923 19.7614 15.0947 21.459 13.0007 21.459C10.9066 21.459 9.20898 19.7614 9.20898 17.6673V14.1673Z" stroke="url(#paint0_linear_4134_28096)" stroke-width="1.75"/>
<path d="M23.209 14.1673C23.209 13.3619 23.8619 12.709 24.6673 12.709H29.334C30.1394 12.709 30.7923 13.3619 30.7923 14.1673V17.6673C30.7923 19.7614 29.0947 21.459 27.0007 21.459C24.9066 21.459 23.209 19.7614 23.209 17.6673V14.1673Z" stroke="url(#paint1_linear_4134_28096)" stroke-width="1.75"/>
<path d="M14.166 30.4993C14.166 29.2107 15.2107 28.166 16.4993 28.166H23.4993C24.788 28.166 25.8327 29.2107 25.8327 30.4993H14.166Z" fill="#FED200"/>
<path d="M11.834 31.316C11.834 30.5428 12.4608 29.916 13.234 29.916H26.7673C27.5405 29.916 28.1673 30.5428 28.1673 31.316C28.1673 31.5093 28.0106 31.666 27.8173 31.666H12.184C11.9907 31.666 11.834 31.5093 11.834 31.316Z" fill="#F7A500"/>
<path d="M11.834 10.6673C11.834 9.37865 12.8787 8.33398 14.1673 8.33398H25.834C27.1226 8.33398 28.1673 9.37865 28.1673 10.6673V17.6673C28.1673 22.1776 24.511 25.834 20.0007 25.834C15.4903 25.834 11.834 22.1776 11.834 17.6673V10.6673Z" fill="url(#paint2_linear_4134_28096)"/>
<path d="M22.5471 17.3441C22.4324 17.4757 22.3521 17.7388 22.3635 17.9182L22.4324 19.0902C22.4783 19.8077 21.9849 20.1784 21.3424 19.9153L20.2983 19.4848C20.1377 19.425 19.8623 19.425 19.7017 19.4848L18.6576 19.9153C18.0151 20.1784 17.5217 19.8077 17.5676 19.0902L17.6365 17.9182C17.6479 17.7388 17.5676 17.4757 17.4529 17.3441L16.7415 16.4352C16.2941 15.8851 16.4891 15.2752 17.1546 15.0958L18.2446 14.8088C18.4167 14.761 18.6232 14.5935 18.715 14.4381L19.3231 13.4574C19.7017 12.8475 20.2983 12.8475 20.6769 13.4574L21.285 14.4381C21.3768 14.5935 21.5833 14.761 21.7554 14.8088L22.8454 15.0958C23.5109 15.2752 23.7059 15.8851 23.2585 16.4352L22.5471 17.3441Z" fill="white"/>
<defs>
<linearGradient id="paint0_linear_4134_28096" x1="13.0007" y1="11.834" x2="13.0007" y2="22.334" gradientUnits="userSpaceOnUse">
<stop stop-color="#FEC600"/>
<stop offset="1" stop-color="#FEB700"/>
</linearGradient>
<linearGradient id="paint1_linear_4134_28096" x1="27.0007" y1="11.834" x2="27.0007" y2="22.334" gradientUnits="userSpaceOnUse">
<stop stop-color="#FEC600"/>
<stop offset="1" stop-color="#FEB700"/>
</linearGradient>
<linearGradient id="paint2_linear_4134_28096" x1="20.0007" y1="8.33398" x2="20.0007" y2="25.834" gradientUnits="userSpaceOnUse">
<stop stop-color="#FFE141"/>
<stop offset="1" stop-color="#FEC600"/>
</linearGradient>
</defs>
</svg>
