<svg width="60" height="60" viewBox="0 0 60 60" fill="none" xmlns="http://www.w3.org/2000/svg">
<path fill-rule="evenodd" clip-rule="evenodd" d="M45.5246 39.8588C45.7979 39.8834 46.0746 39.896 46.3542 39.896C51.3996 39.896 55.4897 35.8059 55.4897 30.7605C55.4897 25.7151 51.3996 21.625 46.3542 21.625C46.063 21.625 45.775 21.6386 45.4908 21.6653C45.0882 16.9919 41.1671 13.3242 36.3894 13.3242C34.2516 13.3242 32.2852 14.0586 30.7289 15.2887C28.8471 12.1221 25.3919 10 21.441 10C15.4783 10 10.6445 14.8337 10.6445 20.7965C10.6445 21.6932 10.7539 22.5644 10.9599 23.3974C7.01283 24.0402 4 27.4653 4 31.594C4 36.1808 7.71827 39.899 12.305 39.899C12.3614 39.899 12.4177 39.8985 12.4738 39.8973H45.5246V39.8588Z" fill="url(#paint0_linear_3692_85214)"/>
<path fill-rule="evenodd" clip-rule="evenodd" d="M32.9652 34.6581C32.9652 36.4863 31.4523 37.9683 29.5861 37.9683C27.7199 37.9683 26.207 36.4863 26.207 34.6581C26.207 31.348 29.5861 26.3828 29.5861 26.3828C29.5861 26.3828 32.9652 31.348 32.9652 34.6581ZM24.2738 46.9259C24.2738 48.9064 22.7609 50.5118 20.8947 50.5118C19.0285 50.5118 17.5156 48.9064 17.5156 46.9259C17.5156 43.3399 20.8947 37.9609 20.8947 37.9609C20.8947 37.9609 24.2738 43.3399 24.2738 46.9259ZM38.2736 48.5822C40.1398 48.5822 41.6527 46.9767 41.6527 44.9962C41.6527 41.4102 38.2736 36.0312 38.2736 36.0312C38.2736 36.0312 34.8945 41.4102 34.8945 44.9962C34.8945 46.9767 36.4074 48.5822 38.2736 48.5822Z" fill="url(#paint1_linear_3692_85214)"/>
<defs>
<linearGradient id="paint0_linear_3692_85214" x1="28.9144" y1="10" x2="28.9144" y2="39.899" gradientUnits="userSpaceOnUse">
<stop stop-color="#B8CBD9"/>
<stop offset="1" stop-color="#CFE2EF"/>
</linearGradient>
<linearGradient id="paint1_linear_3692_85214" x1="29.5842" y1="26.3828" x2="29.5842" y2="50.5118" gradientUnits="userSpaceOnUse">
<stop stop-color="#A4CBEB"/>
<stop offset="1" stop-color="#659CCA"/>
</linearGradient>
</defs>
</svg>
