<svg width="24" height="24" viewBox="0 0 24 24" fill="none" xmlns="http://www.w3.org/2000/svg">
<path d="M16 14.2273C16 18.2439 13.314 20.3636 10.0003 20.3636C6.68662 20.3636 4 18.2439 4 14.2273C4 10.2107 10.0003 4 10.0003 4C10.0003 4 16 10.2107 16 14.2273Z" fill="url(#paint0_linear_2838_126942)"/>
<rect x="13" y="11" width="9" height="9" rx="4.5" fill="white"/>
<path fill-rule="evenodd" clip-rule="evenodd" d="M17.4999 13.2489C17.3223 13.2489 17.1784 13.105 17.1784 12.9275V11.6417C17.1784 11.4642 17.3223 11.3203 17.4999 11.3203C17.6774 11.3203 17.8213 11.4642 17.8213 11.6417V12.9275C17.8213 13.105 17.6774 13.2489 17.4999 13.2489ZM13.6427 15.1775C13.4652 15.1775 13.3213 15.3214 13.3213 15.4989C13.3213 15.6764 13.4652 15.8203 13.6427 15.8203H14.9284C15.106 15.8203 15.2499 15.6764 15.2499 15.4989C15.2499 15.3214 15.106 15.1775 14.9284 15.1775H13.6427ZM20.0713 15.1775C19.8938 15.1775 19.7499 15.3214 19.7499 15.4989C19.7499 15.6764 19.8938 15.8203 20.0713 15.8203H21.357C21.5345 15.8203 21.6784 15.6764 21.6784 15.4989C21.6784 15.3214 21.5345 15.1775 21.357 15.1775H20.0713ZM17.1784 19.356C17.1784 19.5335 17.3223 19.6775 17.4999 19.6775C17.6774 19.6775 17.8213 19.5335 17.8213 19.356V18.0703C17.8213 17.8928 17.6774 17.7489 17.4999 17.7489C17.3223 17.7489 17.1784 17.8928 17.1784 18.0703V19.356Z" fill="#DBE5ED"/>
<rect x="13.5" y="11.5" width="8" height="8" rx="4" stroke="#516F94"/>
<path d="M17.0941 15.0174L19.3435 13.6678L17.9939 15.9172C17.9083 16.0598 17.7541 16.1471 17.5877 16.1471H17.3378C17.0762 16.1471 16.8641 15.9351 16.8641 15.6735L16.8641 15.4236C16.8641 15.2572 16.9514 15.103 17.0941 15.0174Z" fill="#445570"/>
<defs>
<linearGradient id="paint0_linear_2838_126942" x1="10" y1="4" x2="10" y2="20.3636" gradientUnits="userSpaceOnUse">
<stop stop-color="#FF7E7E"/>
<stop offset="1" stop-color="#F14F4F"/>
</linearGradient>
</defs>
</svg>
