<svg width="60" height="60" viewBox="0 0 60 60" fill="none" xmlns="http://www.w3.org/2000/svg">
<path fill-rule="evenodd" clip-rule="evenodd" d="M30.0001 6.81641C30.6628 6.81641 31.2001 7.35366 31.2001 8.01641V14.7886L35.4329 11.0011C35.9268 10.5592 36.6854 10.6013 37.1273 11.0951C37.5693 11.589 37.5271 12.3477 37.0333 12.7896L31.2001 18.0092V27.7396L39.6338 22.8701L41.2357 15.2159C41.3715 14.5672 42.0074 14.1514 42.6561 14.2871C43.3048 14.4229 43.7206 15.0588 43.5848 15.7075L42.4228 21.2598L48.279 17.8785C48.853 17.5471 49.5869 17.7438 49.9182 18.3177C50.2496 18.8917 50.0529 19.6256 49.479 19.957L43.6188 23.3406L49.0144 25.1124C49.6441 25.3192 49.9869 25.9973 49.7801 26.6269C49.5733 27.2566 48.8953 27.5994 48.2656 27.3927L40.8299 24.9508L32.3953 29.8208L41.0812 34.8359L48.5156 32.3945C49.1453 32.1878 49.8233 32.5306 50.0301 33.1603C50.2369 33.7899 49.8941 34.468 49.2644 34.6748L43.8702 36.4462L49.4793 39.6848C50.0532 40.0162 50.2499 40.7501 49.9185 41.3241C49.5872 41.898 48.8533 42.0947 48.2793 41.7633L42.6725 38.526L43.8348 44.0797C43.9706 44.7284 43.5548 45.3643 42.9061 45.5001C42.2574 45.6358 41.6215 45.22 41.4857 44.5713L39.8835 36.9157L31.2001 31.9021V41.9263L37.0333 47.1459C37.5271 47.5878 37.5693 48.3464 37.1273 48.8403C36.6854 49.3342 35.9268 49.3763 35.4329 48.9344L31.2001 45.1468V51.627C31.2001 52.2898 30.6628 52.827 30.0001 52.827C29.3374 52.827 28.8001 52.2898 28.8001 51.627V45.1526L24.5737 48.9344C24.0799 49.3763 23.3212 49.3342 22.8793 48.8403C22.4374 48.3464 22.4795 47.5878 22.9734 47.1459L28.8001 41.932V31.8966L20.1171 36.91L18.5138 44.5711C18.378 45.2198 17.7421 45.6356 17.0934 45.4999C16.4447 45.3641 16.0289 44.7282 16.1647 44.0795L17.3282 38.5203L11.7131 41.7623C11.1391 42.0937 10.4052 41.8971 10.0739 41.3231C9.74252 40.7491 9.93918 40.0152 10.5131 39.6838L16.1239 36.4443L10.7351 34.6746C10.1054 34.4678 9.76263 33.7898 9.96941 33.1601C10.1762 32.5304 10.8542 32.1876 11.4839 32.3943L18.9129 34.834L27.5954 29.8208L19.1671 24.9544L11.7417 27.3929C11.1121 27.5996 10.434 27.2568 10.2272 26.6271C10.0204 25.9974 10.3632 25.3194 10.9929 25.1126L16.3781 23.3442L10.5134 19.958C9.93947 19.6266 9.74281 18.8927 10.0742 18.3187C10.4055 17.7448 11.1394 17.5481 11.7134 17.8795L17.5868 21.2707L16.4225 15.7077C16.2868 15.059 16.7026 14.4231 17.3512 14.2873C17.9999 14.1516 18.6358 14.5674 18.7716 15.2161L20.3757 22.881L28.8001 27.7451V18.0035L22.9734 12.7896C22.4795 12.3477 22.4374 11.589 22.8793 11.0951C23.3212 10.6013 24.0799 10.5592 24.5737 11.0011L28.8001 14.7829V8.01641C28.8001 7.35366 29.3374 6.81641 30.0001 6.81641Z" fill="url(#paint0_linear_3692_84850)"/>
<defs>
<linearGradient id="paint0_linear_3692_84850" x1="29.9997" y1="6.81641" x2="29.9997" y2="52.827" gradientUnits="userSpaceOnUse">
<stop stop-color="#80C1F5"/>
<stop offset="1" stop-color="#3A91DB"/>
</linearGradient>
</defs>
</svg>
