<svg width="24" height="24" viewBox="0 0 24 24" fill="none" xmlns="http://www.w3.org/2000/svg">
<circle opacity="0.5" cx="11.9619" cy="12" r="7" fill="url(#paint0_linear_1269_5180)"/>
<circle opacity="0.5" cx="11.9619" cy="12" r="5" fill="url(#paint1_linear_1269_5180)"/>
<path fill-rule="evenodd" clip-rule="evenodd" d="M3 5.48278C3 5.21615 3.21615 5 3.48278 5C3.74942 5 3.96556 5.21615 3.96556 5.48278V8.13708C3.96556 8.27064 4.07383 8.37891 4.20739 8.37891C4.34095 8.37891 4.44922 8.27064 4.44922 8.13708V5.48278C4.44922 5.21615 4.66537 5 4.932 5C5.19863 5 5.41478 5.21615 5.41478 5.48278V8.13806C5.41478 8.27107 5.52262 8.37891 5.65563 8.37891C5.78865 8.37891 5.89648 8.27107 5.89648 8.13806V5.48278C5.89648 5.21615 6.11263 5 6.37927 5C6.6459 5 6.86205 5.21615 6.86205 5.48278V8.3788C6.86205 8.37886 6.8621 8.37891 6.86215 8.37891C6.86221 8.37891 6.86226 8.37895 6.86226 8.37901V8.86169C6.86226 9.72662 6.29363 10.4587 5.50981 10.7046C5.47334 10.7161 5.45127 10.7531 5.45444 10.7912L6.03829 17.7974C6.09225 18.4448 5.58129 19.0001 4.93157 19.0001C4.28184 19.0001 3.77089 18.4448 3.82484 17.7974L4.40869 10.7912C4.41185 10.7532 4.38984 10.7163 4.35349 10.7049C3.56913 10.4594 3 9.727 3 8.86169V8.37948V8.37891V5.48278Z" fill="url(#paint2_linear_1269_5180)"/>
<path fill-rule="evenodd" clip-rule="evenodd" d="M19.2314 10.7269C20.2427 10.4431 21 9.28377 21 7.89669C21 6.29689 19.9926 5 18.75 5C17.5074 5 16.5 6.29689 16.5 7.89669C16.5 9.28383 17.2573 10.4432 18.2687 10.727C18.2672 10.7374 18.266 10.748 18.2652 10.7587L17.7122 17.8785C17.6652 18.4834 18.1434 19.0001 18.7501 19.0001C19.3568 19.0001 19.8349 18.4834 19.7879 17.8785L19.2349 10.7587C19.2341 10.748 19.2329 10.7374 19.2314 10.7269Z" fill="url(#paint3_linear_1269_5180)"/>
<path d="M11.7573 14.8373C10.8184 14.5276 8.71191 13.2243 8.71191 11.015C8.71191 10.039 9.5184 9.25 10.5175 9.25C11.1073 9.25 11.6309 9.52469 11.9619 9.95718C12.2869 9.53053 12.8165 9.25 13.4064 9.25C14.4054 9.25 15.2119 10.039 15.2119 11.015C15.2119 13.2243 13.1054 14.5276 12.1605 14.8373C12.0522 14.8724 11.8656 14.8724 11.7573 14.8373Z" fill="url(#paint4_linear_1269_5180)"/>
<defs>
<linearGradient id="paint0_linear_1269_5180" x1="8.46191" y1="5" x2="15.4619" y2="19" gradientUnits="userSpaceOnUse">
<stop stop-color="#D7EAFF"/>
<stop offset="1" stop-color="#B6D9FF"/>
</linearGradient>
<linearGradient id="paint1_linear_1269_5180" x1="7.79525" y1="7" x2="15.2952" y2="16.4444" gradientUnits="userSpaceOnUse">
<stop stop-color="#B9D9FF"/>
<stop offset="1" stop-color="#F7FAFF"/>
</linearGradient>
<linearGradient id="paint2_linear_1269_5180" x1="4.93115" y1="5" x2="4.93115" y2="19.0001" gradientUnits="userSpaceOnUse">
<stop stop-color="#FFD467"/>
<stop offset="1" stop-color="#FFBB36"/>
</linearGradient>
<linearGradient id="paint3_linear_1269_5180" x1="17.265" y1="4.88726" x2="20.1836" y2="18.7618" gradientUnits="userSpaceOnUse">
<stop stop-color="#FFD467"/>
<stop offset="1" stop-color="#FFBB36"/>
</linearGradient>
<linearGradient id="paint4_linear_1269_5180" x1="11.9619" y1="9.25" x2="11.9619" y2="14.8636" gradientUnits="userSpaceOnUse">
<stop stop-color="#FF7E7E"/>
<stop offset="1" stop-color="#F14F4F"/>
</linearGradient>
</defs>
</svg>
