<svg width="100" height="100" viewBox="0 0 100 100" fill="none" xmlns="http://www.w3.org/2000/svg">
<g clip-path="url(#clip0_2351_80339)">
<circle cx="50" cy="50" r="50" fill="#D2F7F4"/>
<ellipse opacity="0.5" cx="20" cy="59" rx="9" ry="6" fill="#87D3CF"/>
<ellipse opacity="0.5" cx="80" cy="59" rx="9" ry="6" fill="#87D3CF"/>
<circle cx="30" cy="41" r="12" fill="#26282C"/>
<ellipse cx="35.5351" cy="46.5355" rx="2" ry="3" transform="rotate(45 35.5351 46.5355)" fill="white"/>
<circle cx="28" cy="39" r="7" fill="white"/>
<circle cx="70" cy="41" r="12" fill="#26282C"/>
<ellipse cx="75.5351" cy="46.5355" rx="2" ry="3" transform="rotate(45 75.5351 46.5355)" fill="white"/>
<circle cx="68" cy="39" r="7" fill="white"/>
<path d="M35 59.8571C35 59.3838 35.3838 59 35.8571 59H64.1429C64.6162 59 65 59.3838 65 59.8571V62C65 70.2843 58.2843 77 50 77V77C41.7157 77 35 70.2843 35 62V59.8571Z" stroke="#26282C" stroke-width="4"/>
</g>
<defs>
<clipPath id="clip0_2351_80339">
<rect width="100" height="100" fill="white"/>
</clipPath>
</defs>
</svg>
