<svg width="48" height="48" viewBox="0 0 48 48" fill="none" xmlns="http://www.w3.org/2000/svg">
<path d="M9.9375 13.6837C9.9375 11.5457 11.6707 9.8125 13.8087 9.8125H31.8739C34.0119 9.8125 35.745 11.5457 35.745 13.6837V34.33C35.745 36.468 34.0119 38.2012 31.8739 38.2012H13.8087C11.6707 38.2012 9.9375 36.468 9.9375 34.33V13.6837Z" fill="#BD5DDE"/>
<path fill-rule="evenodd" clip-rule="evenodd" d="M39.0251 21.3532C39.529 21.8571 39.529 22.6741 39.0251 23.1781L30.7302 31.4731C30.5642 31.6391 30.356 31.7566 30.1282 31.8131L26.9663 32.5968C26.4947 32.7137 26.0679 32.287 26.1848 31.8153L26.9685 28.6534C27.025 28.4255 27.1426 28.2174 27.3086 28.0514L35.6034 19.7564C36.1074 19.2525 36.9244 19.2525 37.4283 19.7564L39.0251 21.3532Z" fill="#6E37A6"/>
<path d="M18.7291 25.2561C17.238 24.7576 13.8926 22.6605 13.8926 19.1057C13.8926 17.5352 15.1734 16.2656 16.7601 16.2656C17.6968 16.2656 18.5284 16.7076 19.0541 17.4035C19.5702 16.717 20.4114 16.2656 21.3481 16.2656C22.9348 16.2656 24.2156 17.5352 24.2156 19.1057C24.2156 22.6605 20.8702 24.7576 19.3695 25.2561C19.1975 25.3125 18.9012 25.3125 18.7291 25.2561Z" fill="white"/>
<rect x="13.8926" y="29.1641" width="10.323" height="3.22599" rx="1.29039" fill="white"/>
</svg>
