<svg width="81" height="80" viewBox="0 0 81 80" fill="none" xmlns="http://www.w3.org/2000/svg">
<path d="M21.7066 36.2657C18.6743 41.6076 19.0111 46.2838 19.0111 48.5101H43.2754C43.2754 46.2838 43.6118 41.6087 40.5788 36.2657C37.8827 31.5163 37.2149 30.7 37.2149 28.4738C37.2148 26.2475 36.5353 17.3425 35.1873 8.4375H27.0992C25.7512 17.3425 25.0716 26.2475 25.0716 28.4738C25.0716 30.7 24.4026 31.5163 21.7066 36.2657Z" fill="url(#paint0_linear_2797_115841)"/>
<path fill-rule="evenodd" clip-rule="evenodd" d="M24.8394 30.2893H37.447C37.2789 29.7123 37.215 29.1585 37.2149 28.4698C37.2149 27.4437 37.0706 24.9988 36.7829 21.7891H25.5037C25.2161 24.9988 25.0717 27.4437 25.0717 28.4698C25.0717 29.1585 25.0077 29.7123 24.8394 30.2893Z" fill="url(#paint1_linear_2797_115841)"/>
<path d="M26.2868 7.14684C26.2868 6.51346 26.8003 6 27.4337 6H34.8546C35.488 6 36.0014 6.51346 36.0014 7.14684V8.49612C36.0014 9.1295 35.488 9.64296 34.8546 9.64296H27.4337C26.8003 9.64296 26.2868 9.1295 26.2868 8.49612V7.14684Z" fill="url(#paint2_linear_2797_115841)"/>
<rect x="19" y="47.2891" width="24.2865" height="19.4291" fill="url(#paint3_linear_2797_115841)"/>
<path d="M19 66.7188H43.2865V72.8578C43.2865 73.4912 42.773 74.0047 42.1396 74.0047H20.1468C19.5135 74.0047 19 73.4912 19 72.8578V66.7188Z" fill="url(#paint4_linear_2797_115841)"/>
<mask id="mask0_2797_115841" style="mask-type:alpha" maskUnits="userSpaceOnUse" x="38" y="35" width="26" height="43">
<path d="M39.0487 35.9453H62.9434C62.9434 35.9453 63.7096 40.6784 63.8284 43.733C64.2192 53.7784 57.6336 63.9811 58.5184 69.0431C58.6479 69.9889 58.8781 71.0944 59.1305 72.1582C59.3975 73.2837 59.6891 74.2635 59.9127 74.9588C60.1257 75.621 59.9245 76.3407 59.2928 76.6322C58.0495 77.206 55.5138 77.999 50.996 77.999C46.4083 77.999 43.8641 77.1812 42.6416 76.6057C42.0407 76.3228 41.834 75.6432 42.0235 75.0067C42.2398 74.2798 42.5355 73.2486 42.8122 72.1582C43.0804 71.1011 43.3308 69.9883 43.4736 69.0431C44.3574 63.2023 37.7729 53.7784 38.1637 43.733C38.2825 40.6784 39.0487 35.9453 39.0487 35.9453Z" fill="#FFDBDB"/>
</mask>
<g mask="url(#mask0_2797_115841)">
<path d="M39.0487 35.9453H62.9434C62.9434 35.9453 63.7096 40.6784 63.8284 43.733C64.2192 53.7784 57.6336 63.9811 58.5184 69.0431C58.6479 69.9889 58.8781 71.0944 59.1305 72.1582C59.6604 74.3918 60.2872 76.0521 60.2872 76.0521C60.2872 76.0521 58.0748 77.999 50.996 77.999C43.9173 77.999 41.7036 76.0521 41.7036 76.0521C41.7036 76.0521 42.2916 74.21 42.8122 72.1582C43.0804 71.1011 43.3308 69.9883 43.4736 69.0431C44.3574 63.2023 37.7729 53.7784 38.1637 43.733C38.2825 40.6784 39.0487 35.9453 39.0487 35.9453Z" fill="#EAF4FE"/>
<path d="M48.9239 40.2678C54.119 38.9201 58.8936 40.5657 58.8936 40.5657C58.8936 40.5657 62.4682 41.6772 64.978 41.5978C68.4374 41.4885 64.49 39.1177 67.8161 38.6398C73.0742 37.8843 70.9927 45.3283 70.9927 45.3283L57.2763 45.0047L29.4961 44.8239V45.0047C29.4961 45.0047 28.7729 40.7399 29.4961 40.2678C32.1221 38.5539 34.7341 41.0251 40.0538 41.243C43.3786 41.2439 43.9302 41.5633 48.9239 40.2678Z" fill="url(#paint5_linear_2797_115841)"/>
<path d="M44.4969 41.0513C39.5909 38.2946 37.3796 40.2926 36.8872 41.6362V49.5683L64.6674 49.2432V49.5683C64.6674 49.5683 66.1978 40.686 65.4746 39.8372C62.8486 36.7551 60.4155 41.6359 54.8694 42.5035C53.645 42.695 49.403 43.8081 44.4969 41.0513Z" fill="url(#paint6_linear_2797_115841)"/>
<path d="M59.2506 46.5287C63.2868 44.2735 68.4068 44.0188 68.3647 45.3443L61.8093 70.5766C61.1365 72.0126 58.2011 74.8847 51.8425 74.8847C45.484 74.8847 41.9599 72.8964 40.9927 71.9022L39.1002 48.7049C38.932 48.3183 39.075 47.4456 40.9927 47.0479C43.3897 46.5508 43.1635 49.2048 46.8222 49.5362C50.4809 49.8676 54.7971 49.0171 59.2506 46.5287Z" fill="#FFC634"/>
<path d="M49.3067 48.0754C43.5229 42.9854 37.6227 44.2251 36.5158 44.338C34.6388 45.1848 29.7042 72.9464 40.4141 76.683C63.2269 84.6422 88.2698 57.9351 68.7779 50.992C67.2519 50.4484 56.2459 54.1823 49.3067 48.0754Z" fill="#FFD029"/>
<path d="M50.9591 78.4771C58.222 78.4771 60.4932 76.8791 60.4932 76.8791L59.3052 72.4844C59.3052 72.4844 56.0076 73.6825 50.9591 73.6837C45.8908 73.6849 42.5623 72.4844 42.5623 72.4844L41.4249 76.4795C41.4249 76.4795 43.6962 78.4771 50.9591 78.4771Z" fill="url(#paint7_linear_2797_115841)"/>
</g>
<ellipse cx="50.9762" cy="35.9469" rx="11.9474" ry="1.94693" fill="#EBF0F6"/>
<defs>
<linearGradient id="paint0_linear_2797_115841" x1="31.1432" y1="8.4375" x2="31.1432" y2="48.5101" gradientUnits="userSpaceOnUse">
<stop stop-color="#934A21"/>
<stop offset="1" stop-color="#BC6534"/>
</linearGradient>
<linearGradient id="paint1_linear_2797_115841" x1="25.0718" y1="26.6463" x2="37.2138" y2="26.6463" gradientUnits="userSpaceOnUse">
<stop stop-color="#FFBB3B"/>
<stop offset="1" stop-color="#EE962C"/>
</linearGradient>
<linearGradient id="paint2_linear_2797_115841" x1="31.1441" y1="6" x2="31.1441" y2="9.64296" gradientUnits="userSpaceOnUse">
<stop stop-color="#DEDDDC"/>
<stop offset="1" stop-color="#B9B7B6"/>
</linearGradient>
<linearGradient id="paint3_linear_2797_115841" x1="19" y1="57.0036" x2="43.2865" y2="57.0036" gradientUnits="userSpaceOnUse">
<stop stop-color="#FFC147"/>
<stop offset="1" stop-color="#E18921"/>
</linearGradient>
<linearGradient id="paint4_linear_2797_115841" x1="31.1432" y1="66.7188" x2="31.1432" y2="74.0047" gradientUnits="userSpaceOnUse">
<stop stop-color="#93502B"/>
<stop offset="1" stop-color="#723B1C"/>
</linearGradient>
<linearGradient id="paint5_linear_2797_115841" x1="59.3203" y1="41.5305" x2="43.9626" y2="41.0779" gradientUnits="userSpaceOnUse">
<stop stop-color="#FFFFF3"/>
<stop offset="0.885471" stop-color="#FFEDBB"/>
</linearGradient>
<linearGradient id="paint6_linear_2797_115841" x1="38.8819" y1="43.2587" x2="60.5269" y2="42.7419" gradientUnits="userSpaceOnUse">
<stop stop-color="#FFFFF3"/>
<stop offset="1" stop-color="#FFEDBB"/>
</linearGradient>
<linearGradient id="paint7_linear_2797_115841" x1="50.9591" y1="72.4844" x2="50.9591" y2="78.4771" gradientUnits="userSpaceOnUse">
<stop stop-color="#E7EDF3"/>
<stop offset="1" stop-color="#D3E7FA"/>
</linearGradient>
</defs>
</svg>
