<svg width="48" height="48" viewBox="0 0 48 48" fill="none" xmlns="http://www.w3.org/2000/svg">
<g id="icon/32/&#236;&#139;&#172;&#235;&#166;&#172;&#234;&#178;&#128;&#236;&#130;&#172;">
<g id="Group 1261165717">
<path id="Rectangle 34624865" d="M6 10.8389C6 8.16647 8.16647 6 10.8389 6H33.4205C36.0929 6 38.2594 8.16647 38.2594 10.8389V36.6469C38.2594 39.3194 36.0929 41.4858 33.4205 41.4858H10.839C8.16647 41.4858 6 39.3194 6 36.6469V10.8389Z" fill="#7BBEEE"/>
<path id="Rectangle" fill-rule="evenodd" clip-rule="evenodd" d="M42.5108 20.1329C43.1407 20.7628 43.1407 21.7841 42.5108 22.414L32.1422 32.7827C31.9347 32.9902 31.6745 33.1372 31.3897 33.2078L27.4374 34.1874C26.8478 34.3335 26.3144 33.8001 26.4605 33.2106L27.4401 29.2582C27.5107 28.9733 27.6577 28.7131 27.8652 28.5056L38.2338 18.1369C38.8637 17.507 39.885 17.507 40.5149 18.1369L42.5108 20.1329Z" fill="#376178"/>
<path id="Vector" d="M16.9895 25.3006C15.1256 24.6775 10.9438 22.0561 10.9438 17.6126C10.9438 15.6495 12.5449 14.0625 14.5282 14.0625C15.6991 14.0625 16.7386 14.615 17.3957 15.4849C18.0409 14.6267 19.0923 14.0625 20.2632 14.0625C22.2466 14.0625 23.8476 15.6495 23.8476 17.6126C23.8476 22.0561 19.6658 24.6775 17.79 25.3006C17.575 25.3711 17.2046 25.3711 16.9895 25.3006Z" fill="white"/>
<rect id="Rectangle_2" x="10.9438" y="30.1953" width="12.9038" height="4.03248" rx="1.61298" fill="white"/>
</g>
</g>
</svg>
