<svg width="32" height="33" viewBox="0 0 32 33" fill="none" xmlns="http://www.w3.org/2000/svg">
<circle cx="16" cy="16.2031" r="16" fill="#3F86F1"/>
<path d="M6.98438 8.26562C8.39656 8.37336 11.5831 9.08043 13.032 11.0469C13.7046 12.0561 14.5258 12.3753 16.039 12.3753C17.5523 12.3753 18.5368 13.4072 18.5368 13.4072" stroke="white" stroke-width="1.4" stroke-linecap="round"/>
<path d="M24.1699 6.70312C22.7577 6.81086 19.5712 7.51793 18.1223 9.48438C17.4497 10.4936 15.9483 10.6448 15.1153 10.8128C14.2823 10.9807 13.6567 11.486 13.6567 11.486" stroke="white" stroke-width="1.4" stroke-linecap="round"/>
<path d="M6.98438 13.8732L8.20303 12.1847C8.32277 12.0188 8.56981 12.0188 8.68955 12.1847L9.90821 13.8732" stroke="white" stroke-width="1.4" stroke-linecap="round"/>
<path d="M6.98438 17.0705L8.20303 15.382C8.32277 15.2161 8.56981 15.2161 8.68955 15.382L9.90821 17.0705" stroke="white" stroke-width="1.4" stroke-linecap="round"/>
<path d="M8.41016 12.2539V19.916" stroke="white" stroke-width="1.4" stroke-linecap="round"/>
<path d="M22.0898 13.8732L23.3085 12.1847C23.4282 12.0188 23.6753 12.0188 23.795 12.1847L25.0137 13.8732" stroke="white" stroke-width="1.4" stroke-linecap="round"/>
<path d="M22.0898 17.0705L23.3085 15.382C23.4282 15.2161 23.6753 15.2161 23.795 15.382L25.0137 17.0705" stroke="white" stroke-width="1.4" stroke-linecap="round"/>
<path d="M23.5156 12.2539V19.916" stroke="white" stroke-width="1.4" stroke-linecap="round"/>
<path d="M7.04102 19.9219H24.6051M12.7433 22.4961H15.5343M18.3253 22.4961H15.5343M15.5343 22.4961V24.5172M13.7539 24.5172H17.1945M10.7942 22.4961H9.18211M21.9092 22.4961H20.2971" stroke="white" stroke-width="1.4" stroke-linecap="round"/>
</svg>
