<svg width="64" height="64" viewBox="0 0 64 64" fill="none" xmlns="http://www.w3.org/2000/svg">
<g id="icon/64/&#236;&#131;&#180;&#237;&#142;&#152;&#236;&#157;&#184;&#236;&#158;&#148; /on">
<g id="&#236;&#131;&#180;&#237;&#142;&#152;&#236;&#157;&#184;&#236;&#158;&#148;">
<path id="Ellipse 3425" d="M35.6719 58.5C35.6719 58.2239 33.9055 58 31.6719 58C29.4383 58 27.6719 58.2239 27.6719 58.5C27.6719 58.7761 29.4383 59 31.6719 59C33.9055 59 35.6719 58.7761 35.6719 58.5Z" fill="#89B9D2" fill-opacity="0.3"/>
<path id="Vector 2726" d="M23.0176 30.5C21.9387 26.544 24.6726 7 24.6726 7H38.6726C38.6726 7 41.0966 26.544 40.0177 30.5C38.721 35.2545 33.1728 40 33.1728 40L32.8775 47L33.1728 56.5C33.1728 56.5 34.0769 57.1988 35.1728 57.5C37.0868 58.026 39.6728 58.0488 39.6728 59C39.6728 59.5 35.0094 60 31.6728 60C28.3361 60 23.6728 59.5 23.6728 59C23.6728 58 26.2588 58.026 28.1728 57.5C29.2687 57.1988 30.1728 56.5 30.1728 56.5C30.1728 56.5 30.469 49.5412 30.4775 47C30.4867 44.2638 30.1728 40 30.1728 40C30.1728 40 24.3143 35.2545 23.0176 30.5Z" fill="#DFEAF5"/>
<g id="Mask group">
<mask id="mask0_1482_68989" style="mask-type:alpha" maskUnits="userSpaceOnUse" x="22" y="7" width="19" height="33">
<path id="Vector 2723" d="M23.2097 29.9462C23.0816 29.4878 23.0067 28.7864 22.9782 27.8966C22.9499 27.0107 22.9679 25.9518 23.0199 24.786C23.124 22.4544 23.3638 19.7045 23.6376 17.0725C23.9113 14.441 24.2188 11.9298 24.4579 10.0763C24.5774 9.14956 24.6798 8.3874 24.7523 7.85698C24.7886 7.59177 24.8173 7.3845 24.8371 7.24358L24.8432 7.2H38.3418L38.3473 7.24204C38.3659 7.38297 38.3931 7.59024 38.4273 7.85545C38.4956 8.38588 38.5921 9.14805 38.7045 10.0748C38.9293 11.9283 39.2177 14.4396 39.4724 17.0711C39.7272 19.7031 39.948 22.4531 40.0378 24.7847C40.0828 25.9507 40.0948 27.0096 40.0623 27.8956C40.0297 28.7855 39.9525 29.4873 39.8243 29.9462C39.3389 31.6836 38.2174 33.4658 37.0041 35.0127C35.7931 36.5566 34.5025 37.8516 33.6945 38.6143C33.2163 39.0658 32.5787 39.3 31.9123 39.3H31.6722H31.3788C30.7368 39.3 30.1204 39.0822 29.648 38.6597C28.8123 37.9121 27.4466 36.6145 26.1662 35.0593C24.8832 33.5009 23.6997 31.7001 23.2097 29.9462Z" fill="white" stroke="white" stroke-width="0.4"/>
</mask>
<g mask="url(#mask0_1482_68989)">
<path id="Vector 1596" d="M38.3627 16.61C39.7175 16.1088 40.2235 16.6267 40.3072 16.9484L40.9988 20.4463L34.0395 27.0652C31.4628 25.6956 26.447 22.5198 26.9972 20.7732C27.685 18.59 31.1332 16.7336 34.0763 17.5528C37.0194 18.3721 36.6693 17.2365 38.3627 16.61Z" fill="#FFEEBC"/>
<path id="Vector 1595" d="M38.8618 18.2465C41.0562 15.989 41.5458 17.3059 41.5163 18.2465L39.4812 34.9429C39.0093 35.9619 36.9506 38 32.491 38C28.0314 38 25.5598 36.589 24.8814 35.8836L23.5542 19.4223C23.4362 19.148 23.5365 18.5287 24.8814 18.2465C26.5626 17.8938 28.9517 20.7157 31.5177 20.9509C34.0837 21.186 36.1188 21.0684 38.8618 18.2465Z" fill="#F7A429"/>
<path id="Vector 1594" d="M27.7908 19.5029C24.7091 15.4702 22.9569 15.9841 22.262 16.0632C21.0837 16.6563 17.9859 36.1006 24.7091 38.7177C39.0299 44.2924 53.0788 30.1778 40.8427 25.3148C39.8848 24.9341 31.6496 24.5525 27.7908 19.5029Z" fill="#FFD43B"/>
</g>
</g>
<path id="Vector 2725" d="M32.6767 46.9916L32.6764 46.9989L32.6766 47.0062L32.9279 55.0914C32.9574 56.0382 33.4021 56.9857 34.3085 57.3962C34.5564 57.5084 34.8304 57.6136 35.1188 57.6929C35.6068 57.827 36.135 57.9283 36.6474 58.0194C36.7725 58.0417 36.8964 58.0633 37.0187 58.0846C37.4005 58.1511 37.7656 58.2147 38.0975 58.2861C38.5381 58.3808 38.898 58.4847 39.1443 58.6151C39.3644 58.7315 39.4518 58.8448 39.4687 58.9573C39.451 58.9695 39.4231 58.9857 39.3815 59.0048C39.2653 59.0581 39.085 59.1151 38.8444 59.1727C38.3663 59.2872 37.6881 59.3955 36.8995 59.4889C35.3241 59.6755 33.3319 59.8 31.6718 59.8C30.0117 59.8 28.0196 59.6755 26.4441 59.4889C25.6556 59.3955 24.9773 59.2872 24.4992 59.1727C24.2586 59.1151 24.0784 59.0581 23.9621 59.0048C23.9202 58.9855 23.8921 58.9692 23.8745 58.957C23.8906 58.8305 23.9814 58.7117 24.2005 58.5939C24.4456 58.4621 24.8043 58.3597 25.2448 58.2681C25.5715 58.2001 25.9301 58.1405 26.3055 58.0781C26.4335 58.0568 26.5635 58.0352 26.6948 58.0128C27.2073 57.9255 27.7361 57.8271 28.2248 57.6929L28.1718 57.5L28.2248 57.6928C28.5209 57.6115 28.8018 57.5028 29.055 57.3872C29.9476 56.9793 30.3914 56.0492 30.4287 55.1149C30.5152 52.9511 30.6704 48.8331 30.6765 47.0007C30.6825 45.2051 30.5501 42.7584 30.4579 41.2818C30.4028 40.3982 29.9761 39.5901 29.3312 39.0002C28.4741 38.2162 27.1787 36.9468 25.9787 35.4353C24.7767 33.9213 23.6817 32.1784 23.2096 30.4474C23.0812 29.9767 23.0063 29.2582 22.9779 28.3482C22.9496 27.442 22.9677 26.3595 23.0198 25.1679C23.1242 22.785 23.3644 19.9754 23.6385 17.2868C23.9126 14.5986 24.2204 12.0337 24.4598 10.1406C24.5794 9.19417 24.6819 8.41578 24.7545 7.87407C24.7908 7.60322 24.8196 7.39155 24.8394 7.24762L24.8459 7.2H38.4947L38.5001 7.24455C38.5176 7.38848 38.543 7.60016 38.5751 7.87102C38.6392 8.41274 38.7296 9.19115 38.8348 10.1376C39.0451 12.0307 39.3142 14.5957 39.5495 17.2839C39.785 19.9726 39.9865 22.7823 40.0618 25.1655C40.0995 26.3572 40.1056 27.4399 40.0688 28.3463C40.032 29.2564 39.9524 29.9757 39.8238 30.4474C39.3541 32.1695 38.3109 33.9021 37.1712 35.4092C36.0333 36.914 34.8089 38.1815 33.9902 38.9728C33.3579 39.5839 32.9544 40.4083 32.917 41.2962L32.6767 46.9916Z" fill="url(#paint0_linear_1482_68989)" fill-opacity="0.4" stroke="white" stroke-width="0.4"/>
<path id="Ellipse 5493" d="M38.5621 7C38.5621 7.22539 38.4014 7.46231 38.056 7.69562C37.7141 7.92658 37.2128 8.1385 36.5844 8.31806C35.3288 8.67679 33.5885 8.9 31.6621 8.9C29.7357 8.9 27.9954 8.67679 26.7398 8.31806C26.1114 8.1385 25.6101 7.92658 25.2682 7.69562C24.9228 7.46231 24.7621 7.22539 24.7621 7C24.7621 6.77461 24.9228 6.53769 25.2682 6.30438C25.6101 6.07342 26.1114 5.8615 26.7398 5.68194C27.9954 5.32321 29.7357 5.1 31.6621 5.1C33.5885 5.1 35.3288 5.32321 36.5844 5.68194C37.2128 5.8615 37.7141 6.07342 38.056 6.30438C38.4014 6.53769 38.5621 6.77461 38.5621 7Z" fill="url(#paint1_linear_1482_68989)" stroke="white" stroke-width="0.2"/>
</g>
</g>
<defs>
<linearGradient id="paint0_linear_1482_68989" x1="39.0647" y1="38.5121" x2="24.279" y2="38.5121" gradientUnits="userSpaceOnUse">
<stop stop-color="white" stop-opacity="0.5"/>
<stop offset="0.478261" stop-color="white"/>
<stop offset="1" stop-color="white" stop-opacity="0.5"/>
</linearGradient>
<linearGradient id="paint1_linear_1482_68989" x1="31.6621" y1="5" x2="31.6621" y2="9" gradientUnits="userSpaceOnUse">
<stop stop-color="#DFEAF5"/>
<stop offset="1" stop-color="#DCF3FF"/>
</linearGradient>
</defs>
</svg>
