<svg width="100" height="100" viewBox="0 0 100 100" fill="none" xmlns="http://www.w3.org/2000/svg">
<g clip-path="url(#clip0_2351_80314)">
<circle cx="50" cy="50" r="50" fill="#FDCF5B"/>
<path d="M20 44.5781L38.4712 38.5765" stroke="#26282C" stroke-width="4" stroke-linecap="round"/>
<path d="M61.1719 38.5703L79.6431 44.572" stroke="#26282C" stroke-width="4" stroke-linecap="round"/>
<path d="M35 58.8571C35 58.3838 35.3838 58 35.8571 58H64.1429C64.6162 58 65 58.3838 65 58.8571V61C65 69.2843 58.2843 76 50 76V76C41.7157 76 35 69.2843 35 61V58.8571Z" stroke="#26282C" stroke-width="4"/>
<g clip-path="url(#clip1_2351_80314)">
<circle cx="50" cy="50" r="50" fill="#FDCF5B"/>
<path d="M20 44.5781L38.4712 38.5765" stroke="#26282C" stroke-width="4" stroke-linecap="round"/>
<path d="M61.1719 38.5703L79.6431 44.572" stroke="#26282C" stroke-width="4" stroke-linecap="round"/>
<path d="M35 58.8571C35 58.3838 35.3838 58 35.8571 58H64.1429C64.6162 58 65 58.3838 65 58.8571V61C65 69.2843 58.2843 76 50 76V76C41.7157 76 35 69.2843 35 61V58.8571Z" stroke="#26282C" stroke-width="4"/>
</g>
</g>
<defs>
<clipPath id="clip0_2351_80314">
<rect width="100" height="100" fill="white"/>
</clipPath>
<clipPath id="clip1_2351_80314">
<rect width="100" height="100" fill="white"/>
</clipPath>
</defs>
</svg>
