<svg width="80" height="80" viewBox="0 0 80 80" fill="none" xmlns="http://www.w3.org/2000/svg">
<circle cx="40" cy="40" r="40" fill="#FFF9EA"/>
<path fill-rule="evenodd" clip-rule="evenodd" d="M64 28C70.9036 28 76.5 22.4036 76.5 15.5C76.5 8.59644 70.9036 3 64 3C57.0964 3 51.5 8.59644 51.5 15.5C51.5 18.334 52.4431 20.9477 54.0326 23.0444C54.015 23.099 54.0017 23.1562 53.9931 23.216L53.515 26.5693C53.4064 27.3314 54.1635 27.9254 54.8778 27.6384L57.9117 26.4197C59.7133 27.4263 61.7896 28 64 28Z" fill="#3B4A65"/>
<path d="M63.2712 9.96548C63.3496 9.23654 64.0285 8.72617 64.7505 8.85348L65.8235 9.0427C66.5455 9.17001 67.009 9.88183 66.8333 10.5936L65.1905 17.2494C65.0308 17.8964 64.3971 18.3089 63.7409 18.1932L63.5781 18.1645C62.9218 18.0488 62.4674 17.4443 62.5387 16.7818L63.2712 9.96548Z" fill="white"/>
<rect width="2.53314" height="2.53328" rx="1.26657" transform="matrix(0.984806 0.173658 -0.173638 0.98481 62.2217 19.04)" fill="white"/>
<rect x="36.0811" y="18" width="7.04" height="9.51353" rx="3.52" fill="#FBDA66"/>
<rect x="33.7358" y="50.1081" width="11.7333" height="11.8919" rx="5.86667" fill="#F5BA62"/>
<path d="M26.6929 35.6654C26.6929 28.5373 32.4714 22.7587 39.5995 22.7587C46.7277 22.7587 52.5062 28.5373 52.5062 35.6654V41.8142C52.5062 45.6575 53.7401 49.3992 56.0262 52.4885H23.1729C25.459 49.3992 26.6929 45.6575 26.6929 41.8142V35.6654Z" fill="#F8ECB0"/>
<rect x="22" y="50.1102" width="35.2" height="5.94596" rx="2.97298" fill="#FBDA66"/>
</svg>
