<svg width="48" height="51" viewBox="0 0 48 51" fill="none" xmlns="http://www.w3.org/2000/svg">
<g id="ic">
<g id="&#235;&#141;&#176;&#236;&#157;&#180;&#237;&#132;&#176;">
<path id="Union" fill-rule="evenodd" clip-rule="evenodd" d="M35.2807 28.7969H0.720703L1.08013 39.5797C1.0801 39.5854 1.08008 39.5911 1.08008 39.5968C1.08008 43.3745 8.65542 46.4368 18.0001 46.4368C27.3447 46.4368 34.92 43.3745 34.9201 39.5969H34.9207L35.2807 28.7969Z" fill="#94B2D7"/>
<path id="Union_2" fill-rule="evenodd" clip-rule="evenodd" d="M35.6394 18H0.359375L0.718803 28.7828C0.718768 28.7885 0.71875 28.7943 0.71875 28.8C0.71875 32.5776 8.45527 35.64 17.9988 35.64C27.5422 35.64 35.2787 32.5776 35.2788 28.8H35.2794L35.6394 18Z" fill="#B6CFEC"/>
<path id="Union_3" fill-rule="evenodd" clip-rule="evenodd" d="M36 7.20312H0L0.359423 17.9858C0.359391 17.9914 0.359375 17.9971 0.359375 18.0027C0.359375 21.9792 8.25707 25.2027 17.9994 25.2027C27.7414 25.2027 35.6389 21.9794 35.6394 18.0031H35.64L36 7.20312Z" fill="#D6E4F5"/>
<ellipse id="Ellipse 3122" cx="18" cy="7.2" rx="18" ry="7.2" fill="#F4F9FF"/>
</g>
<g id="&#235;&#182;&#136;&#235;&#159;&#172;&#236;&#152;&#164;&#234;&#184;&#176;">
<circle id="Ellipse 3109" cx="34" cy="37" r="14" fill="url(#paint0_linear_15609_63942)"/>
<path id="Union_4" fill-rule="evenodd" clip-rule="evenodd" d="M32.5206 33.6136C33.0402 33.3131 33.643 33.1406 34.2907 33.1406C36.2452 33.1406 37.83 34.7235 37.8331 36.6773H37.1124C36.6669 36.6773 36.4438 37.2158 36.7588 37.5308L38.9746 39.7466C39.1698 39.9418 39.4864 39.9418 39.6817 39.7466L41.8974 37.5308C42.2124 37.2158 41.9893 36.6773 41.5439 36.6773H40.8331C40.83 33.0666 37.9021 30.1406 34.2907 30.1406C33.1016 30.1406 31.9823 30.4593 31.0185 31.0168C30.3014 31.4316 30.0563 32.3492 30.4711 33.0663C30.886 33.7834 31.8036 34.0284 32.5206 33.6136ZM35.8466 40.7492C35.3271 41.0497 34.7242 41.2222 34.0765 41.2222C32.1223 41.2222 30.5377 39.6397 30.5341 37.6864H31.2567C31.7022 37.6864 31.9253 37.1478 31.6103 36.8328L29.3945 34.617C29.1993 34.4218 28.8827 34.4218 28.6874 34.617L26.4717 36.8328C26.1567 37.1478 26.3798 37.6864 26.8252 37.6864H27.5341C27.5377 41.2966 30.4654 44.2222 34.0765 44.2222C35.2656 44.2222 36.3849 43.9035 37.3487 43.346C38.0658 42.9312 38.3109 42.0136 37.8961 41.2965C37.4812 40.5794 36.5637 40.3344 35.8466 40.7492Z" fill="url(#paint1_linear_15609_63942)"/>
</g>
</g>
<defs>
<linearGradient id="paint0_linear_15609_63942" x1="25.4445" y1="24.3611" x2="44.1112" y2="48.2779" gradientUnits="userSpaceOnUse">
<stop stop-color="#A8F29C"/>
<stop offset="0.747259" stop-color="#58D84D"/>
<stop offset="1" stop-color="#75CC79"/>
</linearGradient>
<linearGradient id="paint1_linear_15609_63942" x1="29.1306" y1="31.4396" x2="39.6255" y2="43.432" gradientUnits="userSpaceOnUse">
<stop stop-color="white" stop-opacity="0.9"/>
<stop offset="1" stop-color="white"/>
</linearGradient>
</defs>
</svg>
