<svg width="32" height="32" viewBox="0 0 32 32" fill="none" xmlns="http://www.w3.org/2000/svg">
<rect width="32" height="32" rx="16" fill="white"/>
<path fill-rule="evenodd" clip-rule="evenodd" d="M25.0469 14.3616C23.866 16.3762 21.6781 17.7291 19.1742 17.7291C15.4172 17.7291 12.3717 14.6835 12.3717 10.9266C12.3717 9.02853 13.149 7.31205 14.4027 6.07812C10.1551 6.83265 6.92969 10.5437 6.92969 15.0081C6.92969 20.0173 10.9905 24.0781 15.9997 24.0781C21.0089 24.0781 25.0696 20.0173 25.0696 15.0081C25.0696 14.7907 25.062 14.5751 25.0469 14.3616Z" fill="url(#paint0_linear_2516_73618)"/>
<path d="M20.4952 8.32202C20.7036 7.9168 20.8162 7.29688 20.9894 7.29688C21.1626 7.29688 21.1922 7.87926 21.4578 8.32202C21.7235 8.76478 22.3499 8.92596 22.3499 9.11089C22.3499 9.29581 21.7235 9.45798 21.4578 9.90074C21.1922 10.3435 21.1464 10.9249 20.9894 10.9249C20.8324 10.9249 20.7609 10.3435 20.4952 9.90074C20.2295 9.45798 19.6289 9.34072 19.6289 9.11089C19.6289 8.88106 20.2156 8.86567 20.4952 8.32202Z" fill="#FFD600"/>
<path d="M15.96 11.0447C16.1684 10.6395 16.281 10.0195 16.4542 10.0195C16.6275 10.0195 16.657 10.6019 16.9227 11.0447C17.1883 11.4874 17.8147 11.6486 17.8147 11.8335C17.8147 12.0185 17.1883 12.1806 16.9227 12.6234C16.657 13.0662 16.6113 13.6476 16.4542 13.6476C16.2972 13.6476 16.2257 13.0662 15.96 12.6234C15.6944 12.1806 15.0937 12.0634 15.0938 11.8335C15.0938 11.6037 15.6804 11.5883 15.96 11.0447Z" fill="#FFD600"/>
<rect x="16.4" y="16.4" width="9.2" height="9.2" rx="4.6" fill="white" stroke="#516F94" stroke-width="0.8"/>
<path d="M21 20V23" stroke="#516F94" stroke-linecap="round"/>
<path d="M23 21L21 19L19 21" stroke="#516F94" stroke-linecap="round"/>
<defs>
<linearGradient id="paint0_linear_2516_73618" x1="12.8252" y1="6.84496" x2="18.7208" y2="23.171" gradientUnits="userSpaceOnUse">
<stop stop-color="#FFD600"/>
<stop offset="1" stop-color="#FFC700"/>
</linearGradient>
</defs>
</svg>
