<svg width="141" height="140" viewBox="0 0 141 140" fill="none" xmlns="http://www.w3.org/2000/svg">
<circle cx="70.5" cy="70" r="70" fill="#FFF9EB"/>
<path d="M69.5252 81.6682C61.4696 78.8592 43.396 67.0401 43.396 47.006C43.396 38.155 50.3156 31 58.8876 31C63.9482 31 68.4408 33.491 71.2809 37.413C74.0694 33.544 78.6136 31 83.6742 31C92.2462 31 99.1658 38.155 99.1658 47.006C99.1658 67.0401 81.0923 78.8592 72.985 81.6682C72.0555 81.9862 70.4547 81.9862 69.5252 81.6682Z" fill="url(#paint0_linear_1_37319)"/>
<path fill-rule="evenodd" clip-rule="evenodd" d="M64.8686 49.0026C65.5006 49.0358 66.0695 49.3898 66.3707 49.9372L71.3518 58.9913L74.9594 54.5657C75.3045 54.1424 75.8263 53.8961 76.378 53.8961H89.6818C90.686 53.8961 91.5 54.6965 91.5 55.684C91.5 56.6714 90.686 57.4719 89.6818 57.4719H77.2508L72.4752 63.3303C72.0941 63.7979 71.5002 64.0466 70.8933 63.9928C70.2864 63.939 69.7473 63.5898 69.4574 63.0628L64.5855 54.2073L62.8425 56.6976C62.5033 57.1824 61.9432 57.4719 61.3448 57.4719H53.3182C52.314 57.4719 51.5 56.6714 51.5 55.684C51.5 54.6965 52.314 53.8961 53.3182 53.8961H60.389L63.2738 49.7743C63.6326 49.2616 64.2367 48.9693 64.8686 49.0026Z" fill="url(#paint1_linear_1_37319)"/>
<path d="M77.9392 85.6025C76.3779 87.9443 76.2045 94.1675 76.3129 96.9864H90.299C94.0936 93.1918 99.8637 90.146 102.984 86.2429C106.104 82.3398 106.887 75.1841 107.212 73.8831C107.538 72.5821 107.212 70.956 105.586 70.3055C103.96 69.655 102.334 70.3055 101.358 72.5823C100.577 74.4037 100.057 75.5094 98.4304 77.7862L98.4301 77.7856C98.321 77.5677 97.7787 76.4846 96.4789 75.8355C95.4297 75.3117 93.5516 74.8598 91.9253 75.8355C90.299 76.8113 89.3232 78.1114 86.7211 79.7377C84.1191 81.364 79.8907 82.6752 77.9392 85.6025Z" fill="#FFDFD5"/>
<rect x="74.6865" y="108.36" width="11.7093" height="17.5639" rx="2" transform="rotate(-90 74.6865 108.36)" fill="#FF862F"/>
<path d="M96.8041 77.7862C94.8526 80.7135 93.5515 81.6893 89.6484 83.9661" stroke="url(#paint2_linear_1_37319)" stroke-width="3" stroke-linecap="round"/>
<path d="M63.8865 85.6025C65.4477 87.9443 65.6212 94.1675 65.5128 96.9864H51.5267C47.732 93.1918 41.962 90.146 38.8417 86.2429C35.7214 82.3398 34.9386 75.1841 34.6133 73.8831C34.2881 72.5821 34.6133 70.956 36.2396 70.3055C37.8659 69.655 39.4922 70.3055 40.468 72.5823C41.2486 74.4037 41.769 75.5094 43.3953 77.7862L43.3956 77.7856C43.5047 77.5677 44.047 76.4846 45.3468 75.8355C46.396 75.3117 48.2741 74.8598 49.9004 75.8355C51.5267 76.8113 52.5025 78.1114 55.1045 79.7377C57.7066 81.364 61.935 82.6752 63.8865 85.6025Z" fill="#FFDFD5"/>
<rect width="11.7093" height="17.5639" rx="2" transform="matrix(4.37114e-08 -1 -1 -4.37114e-08 67.1392 108.36)" fill="#FF862F"/>
<path d="M45.0216 77.7862C46.9731 80.7135 48.2742 81.6893 52.1772 83.9661" stroke="url(#paint3_linear_1_37319)" stroke-width="3" stroke-linecap="round"/>
<defs>
<linearGradient id="paint0_linear_1_37319" x1="71.2809" y1="31" x2="71.2809" y2="81.9067" gradientUnits="userSpaceOnUse">
<stop stop-color="#FFA2AD"/>
<stop offset="1" stop-color="#FA4242"/>
</linearGradient>
<linearGradient id="paint1_linear_1_37319" x1="71.5" y1="50.7879" x2="71.5" y2="62.2121" gradientUnits="userSpaceOnUse">
<stop stop-color="white"/>
<stop offset="1" stop-color="#FEC4C4"/>
</linearGradient>
<linearGradient id="paint2_linear_1_37319" x1="99.0809" y1="74.5336" x2="88.3474" y2="84.2913" gradientUnits="userSpaceOnUse">
<stop stop-color="#EAB7A1"/>
<stop offset="1" stop-color="#FFD7CF"/>
</linearGradient>
<linearGradient id="paint3_linear_1_37319" x1="42.7448" y1="74.5336" x2="53.4783" y2="84.2913" gradientUnits="userSpaceOnUse">
<stop stop-color="#EAB7A1"/>
<stop offset="1" stop-color="#FFD7CF"/>
</linearGradient>
</defs>
</svg>
