<svg width="81" height="80" viewBox="0 0 81 80" fill="none" xmlns="http://www.w3.org/2000/svg">
<circle cx="40.5" cy="40" r="40" fill="#FFF9EA"/>
<path d="M25.5109 30.0491V18.3415C25.5109 17.1708 26.8094 16 27.9779 16C29.1464 16 51.6191 16 51.6191 16C52.2949 16 52.9042 16.2788 53.3104 16.7144L62.9608 25.7072C63.2965 26.028 63.4997 26.4599 63.4997 26.9335V54.635C63.4997 55.8058 63.0324 57.1808 60.6955 57.1808H58.4225" fill="url(#paint0_linear_1_36866)"/>
<path d="M53.1849 16.7129L62.8353 25.7066L62.7721 25.6528C62.4281 25.3434 61.9637 25.1638 61.4497 25.1638H54.9059C54.2593 25.1638 53.7351 24.6397 53.7351 23.9931V18.0656C53.7351 17.5651 53.5444 17.1105 53.2252 16.7514L53.1849 16.7129Z" fill="#91B8D9"/>
<path fill-rule="evenodd" clip-rule="evenodd" d="M25.5109 25.3672H18.5V28.8787V34.7332V59.3184C18.5 61.9047 20.5966 64.0014 23.183 64.0014H53.5454C56.1318 64.0014 58.2285 61.9047 58.2285 59.3184V33.5617C58.2285 30.9753 56.1318 28.8787 53.5455 28.8787H25.5109V25.3672Z" fill="url(#paint1_linear_1_36866)"/>
<path d="M25.5109 28.8792H21.73C20.0341 28.8792 18.5547 27.6466 18.5016 26.0465C18.4464 24.3887 19.8523 23.0254 21.5959 23.0254H25.5109V28.8792Z" fill="#BA9024"/>
<path opacity="0.01" fill-rule="evenodd" clip-rule="evenodd" d="M52.058 34.9952V58.753H26.2416V34.9952H52.058Z" fill="white"/>
<path fill-rule="evenodd" clip-rule="evenodd" d="M39.5329 46.4289C36.9516 46.4289 34.859 44.3322 34.859 41.7458C34.859 39.1595 36.9516 37.0628 39.5329 37.0628C42.1143 37.0628 44.2069 39.1595 44.2069 41.7458C44.2069 44.3322 42.1143 46.4289 39.5329 46.4289Z" fill="white"/>
<path d="M30.1852 57.5503C30.1852 57.8781 30.4114 58.1356 30.6994 58.1356H48.3667C48.6547 58.1356 48.8809 57.8781 48.8809 57.5503C48.8809 52.7033 44.6852 48.7696 39.5331 48.7696C34.3809 48.7696 30.1852 52.7033 30.1852 57.5503Z" fill="white"/>
<path fill-rule="evenodd" clip-rule="evenodd" d="M64.5 28C71.4036 28 77 22.4036 77 15.5C77 8.59644 71.4036 3 64.5 3C57.5964 3 52 8.59644 52 15.5C52 18.334 52.9431 20.9477 54.5326 23.0444C54.515 23.099 54.5017 23.1562 54.4931 23.216L54.015 26.5693C53.9064 27.3314 54.6635 27.9254 55.3778 27.6384L58.4117 26.4197C60.2133 27.4263 62.2896 28 64.5 28Z" fill="#3B4A65"/>
<path d="M63.7712 9.96548C63.8496 9.23654 64.5285 8.72617 65.2505 8.85348L66.3235 9.0427C67.0455 9.17001 67.509 9.88183 67.3333 10.5936L65.6905 17.2494C65.5308 17.8964 64.8971 18.3089 64.2409 18.1932L64.0781 18.1645C63.4218 18.0488 62.9674 17.4443 63.0387 16.7818L63.7712 9.96548Z" fill="white"/>
<rect width="2.53314" height="2.53328" rx="1.26657" transform="matrix(0.984806 0.173658 -0.173638 0.98481 62.7216 19.04)" fill="white"/>
<defs>
<linearGradient id="paint0_linear_1_36866" x1="44.5053" y1="16" x2="44.5053" y2="57.1808" gradientUnits="userSpaceOnUse">
<stop stop-color="#DEF0FF"/>
<stop offset="1" stop-color="#BFDDF9"/>
</linearGradient>
<linearGradient id="paint1_linear_1_36866" x1="24.3424" y1="25.3672" x2="50.1188" y2="65.1269" gradientUnits="userSpaceOnUse">
<stop stop-color="#FFDF37"/>
<stop offset="1" stop-color="#FFB11B"/>
</linearGradient>
</defs>
</svg>
