<svg width="311" height="264" viewBox="0 0 311 264" fill="none" xmlns="http://www.w3.org/2000/svg">
<path d="M32.1367 0V240H311" stroke="#EEEEEE"/>
<path d="M27.6543 16H32.4043" stroke="#EEEEEE"/>
<path d="M27.6543 48H32.4043" stroke="#EEEEEE"/>
<path d="M27.6543 80H32.4043" stroke="#EEEEEE"/>
<path d="M27.6543 112H32.4043" stroke="#EEEEEE"/>
<path d="M27.6543 144H32.4043" stroke="#EEEEEE"/>
<path d="M27.6543 176H32.4043" stroke="#EEEEEE"/>
<path d="M27.6543 208H32.4043" stroke="#EEEEEE"/>
<path d="M90.9062 244.75L90.9062 240" stroke="#EEEEEE"/>
<path d="M142.906 244.75L142.906 240" stroke="#EEEEEE"/>
<path d="M194.906 244.75L194.906 240" stroke="#EEEEEE"/>
<path d="M246.906 244.75L246.906 240" stroke="#EEEEEE"/>
<path d="M298.906 244.75L298.906 240" stroke="#EEEEEE"/>
<path d="M62.3457 166L81.4516 123L101.563 183L124.691 123L142.792 203L184.02 113L206.143 176L224.243 71L242.343 221L260.946 105L284.577 203" stroke="#EEEEEE" stroke-width="2"/>
<ellipse cx="80.947" cy="124.5" rx="4.52508" ry="4.5" fill="#6E809F"/>
<ellipse cx="124.187" cy="125.5" rx="4.52508" ry="4.5" fill="#6E809F"/>
<ellipse cx="184.521" cy="115.5" rx="4.52508" ry="4.5" fill="#6E809F"/>
<ellipse cx="224.744" cy="72.5" rx="4.52508" ry="4.5" fill="white" stroke="#EB5147" stroke-width="3"/>
<ellipse cx="261.951" cy="106.5" rx="4.52508" ry="4.5" fill="#6E809F"/>
<ellipse cx="285.08" cy="204.5" rx="4.52508" ry="4.5" fill="#6E809F"/>
<ellipse cx="205.638" cy="174.5" rx="4.52508" ry="4.5" fill="#6E809F"/>
<ellipse cx="143.293" cy="201.5" rx="4.52508" ry="4.5" fill="#6E809F"/>
<ellipse cx="101.058" cy="182.5" rx="4.52508" ry="4.5" fill="#6E809F"/>
<ellipse cx="61.8415" cy="165.5" rx="4.52508" ry="4.5" fill="#6E809F"/>
<rect width="8.02232" height="8.02232" transform="matrix(0.709069 0.705139 -0.709069 0.705139 244.008 215)" fill="#EB5147"/>
<path d="M7.86094 11.1016V21H6.6168V12.3867H6.56211L4.15586 13.9863V12.7422L6.6168 11.1016H7.86094ZM13.6082 21.1367C11.5232 21.1367 10.0877 19.9814 10.0945 18.375C10.0877 17.0967 10.9764 16.0371 12.1043 15.8594V15.8047C11.1199 15.5791 10.4705 14.6699 10.4773 13.5898C10.4705 12.0791 11.7967 10.9648 13.6082 10.9648C15.4129 10.9648 16.7391 12.0791 16.7527 13.5898C16.7391 14.6699 16.0828 15.5791 15.1121 15.8047V15.8594C16.2332 16.0371 17.1219 17.0967 17.1355 18.375C17.1219 19.9814 15.6727 21.1367 13.6082 21.1367ZM11.325 18.3066C11.3045 19.3457 12.1863 20.0498 13.6082 20.0566C15.0232 20.0498 15.9051 19.3457 15.9051 18.3066C15.9051 17.2129 14.9412 16.4062 13.6082 16.4062C12.282 16.4062 11.3045 17.2129 11.325 18.3066ZM11.6668 13.6855C11.6736 14.6836 12.4734 15.3604 13.6082 15.3672C14.7361 15.3604 15.5496 14.6836 15.5496 13.6855C15.5496 12.6943 14.7635 12.0244 13.6082 12.0312C12.4324 12.0244 11.6736 12.6943 11.6668 13.6855ZM21.8301 21.1367C19.6357 21.1367 18.3643 19.291 18.3711 16.0508C18.3643 12.8379 19.6494 10.9648 21.8301 10.9648C24.0039 10.9648 25.2891 12.8379 25.2891 16.0508C25.2891 19.291 24.0244 21.1367 21.8301 21.1367ZM19.5605 16.0508C19.5674 18.6143 20.3945 20.043 21.8301 20.043C23.2588 20.043 24.0928 18.6143 24.0859 16.0508C24.0928 13.4873 23.252 12.0381 21.8301 12.0312C20.4082 12.0381 19.5674 13.4873 19.5605 16.0508Z" fill="#888888"/>
<path d="M7.76523 43.1016V53H6.52109V44.3867H6.46641L4.06016 45.9863V44.7422L6.52109 43.1016H7.76523ZM13.6492 53.1367C11.9334 53.1162 10.0398 52.0977 10.0398 48.4336C10.0398 44.9268 11.4754 42.9648 13.7996 42.9648C15.5428 42.9648 16.7596 44.0381 17.0125 45.5898H15.7957C15.5701 44.7148 14.9002 44.0586 13.7996 44.0586C12.1727 44.0586 11.1951 45.4463 11.202 47.832H11.325C11.8924 47.0049 12.8016 46.5195 13.868 46.5195C15.6248 46.5195 17.0945 47.8867 17.0945 49.8008C17.0945 51.667 15.7342 53.1572 13.6492 53.1367ZM11.366 49.8281C11.3729 50.9902 12.323 52.0498 13.6492 52.0566C14.9275 52.0498 15.8982 51.0449 15.9051 49.8145C15.8982 48.5977 14.9686 47.6064 13.6766 47.5996C12.3777 47.6064 11.3797 48.6592 11.366 49.8281ZM21.8301 53.1367C19.6357 53.1367 18.3643 51.291 18.3711 48.0508C18.3643 44.8379 19.6494 42.9648 21.8301 42.9648C24.0039 42.9648 25.2891 44.8379 25.2891 48.0508C25.2891 51.291 24.0244 53.1367 21.8301 53.1367ZM19.5605 48.0508C19.5674 50.6143 20.3945 52.043 21.8301 52.043C23.2588 52.043 24.0928 50.6143 24.0859 48.0508C24.0928 45.4873 23.252 44.0381 21.8301 44.0312C20.4082 44.0381 19.5674 45.4873 19.5605 48.0508Z" fill="#888888"/>
<path d="M7.61484 75.1016V85H6.3707V76.3867H6.31602L3.90977 77.9863V76.7422L6.3707 75.1016H7.61484ZM9.80742 82.9766V81.9648L14.2645 75.1016H15.782V81.8965H17.1629V82.9766H15.782V85H14.6062V82.9766H9.80742ZM11.1336 81.8965H14.6062V76.6602H14.4832L11.1336 81.8145V81.8965ZM21.8301 85.1367C19.6357 85.1367 18.3643 83.291 18.3711 80.0508C18.3643 76.8379 19.6494 74.9648 21.8301 74.9648C24.0039 74.9648 25.2891 76.8379 25.2891 80.0508C25.2891 83.291 24.0244 85.1367 21.8301 85.1367ZM19.5605 80.0508C19.5674 82.6143 20.3945 84.043 21.8301 84.043C23.2588 84.043 24.0928 82.6143 24.0859 80.0508C24.0928 77.4873 23.252 76.0381 21.8301 76.0312C20.4082 76.0381 19.5674 77.4873 19.5605 80.0508Z" fill="#888888"/>
<path d="M8.13437 107.102V117H6.89023V108.387H6.83555L4.4293 109.986V108.742L6.89023 107.102H8.13437ZM10.573 117L10.5594 116.098L13.9363 112.543C15.1053 111.299 15.6658 110.629 15.6727 109.713C15.6658 108.694 14.8182 108.038 13.7039 108.031C12.5213 108.038 11.783 108.783 11.7762 109.891H10.6141C10.6004 108.141 11.9539 106.965 13.7449 106.965C15.5428 106.965 16.8143 108.175 16.8211 109.713C16.8143 110.82 16.3016 111.682 14.5516 113.486L12.282 115.824V115.906H16.9988V117H10.573ZM21.8301 117.137C19.6357 117.137 18.3643 115.291 18.3711 112.051C18.3643 108.838 19.6494 106.965 21.8301 106.965C24.0039 106.965 25.2891 108.838 25.2891 112.051C25.2891 115.291 24.0244 117.137 21.8301 117.137ZM19.5605 112.051C19.5674 114.614 20.3945 116.043 21.8301 116.043C23.2588 116.043 24.0928 114.614 24.0859 112.051C24.0928 109.487 23.252 108.038 21.8301 108.031C20.4082 108.038 19.5674 109.487 19.5605 112.051Z" fill="#888888"/>
<path d="M8.01133 139.102V149H6.76719V140.387H6.7125L4.30625 141.986V140.742L6.76719 139.102H8.01133ZM13.6902 149.137C11.4959 149.137 10.2244 147.291 10.2312 144.051C10.2244 140.838 11.5096 138.965 13.6902 138.965C15.8641 138.965 17.1492 140.838 17.1492 144.051C17.1492 147.291 15.8846 149.137 13.6902 149.137ZM11.4207 144.051C11.4275 146.614 12.2547 148.043 13.6902 148.043C15.1189 148.043 15.9529 146.614 15.9461 144.051C15.9529 141.487 15.1121 140.038 13.6902 140.031C12.2684 140.038 11.4275 141.487 11.4207 144.051ZM21.8301 149.137C19.6357 149.137 18.3643 147.291 18.3711 144.051C18.3643 140.838 19.6494 138.965 21.8301 138.965C24.0039 138.965 25.2891 140.838 25.2891 144.051C25.2891 147.291 24.0244 149.137 21.8301 149.137ZM19.5605 144.051C19.5674 146.614 20.3945 148.043 21.8301 148.043C23.2588 148.043 24.0928 146.614 24.0859 144.051C24.0928 141.487 23.252 140.038 21.8301 140.031C20.4082 140.038 19.5674 141.487 19.5605 144.051Z" fill="#888888"/>
<path d="M13.6082 181.137C11.5232 181.137 10.0877 179.981 10.0945 178.375C10.0877 177.097 10.9764 176.037 12.1043 175.859V175.805C11.1199 175.579 10.4705 174.67 10.4773 173.59C10.4705 172.079 11.7967 170.965 13.6082 170.965C15.4129 170.965 16.7391 172.079 16.7527 173.59C16.7391 174.67 16.0828 175.579 15.1121 175.805V175.859C16.2332 176.037 17.1219 177.097 17.1355 178.375C17.1219 179.981 15.6727 181.137 13.6082 181.137ZM11.325 178.307C11.3045 179.346 12.1863 180.05 13.6082 180.057C15.0232 180.05 15.9051 179.346 15.9051 178.307C15.9051 177.213 14.9412 176.406 13.6082 176.406C12.282 176.406 11.3045 177.213 11.325 178.307ZM11.6668 173.686C11.6736 174.684 12.4734 175.36 13.6082 175.367C14.7361 175.36 15.5496 174.684 15.5496 173.686C15.5496 172.694 14.7635 172.024 13.6082 172.031C12.4324 172.024 11.6736 172.694 11.6668 173.686ZM21.8301 181.137C19.6357 181.137 18.3643 179.291 18.3711 176.051C18.3643 172.838 19.6494 170.965 21.8301 170.965C24.0039 170.965 25.2891 172.838 25.2891 176.051C25.2891 179.291 24.0244 181.137 21.8301 181.137ZM19.5605 176.051C19.5674 178.614 20.3945 180.043 21.8301 180.043C23.2588 180.043 24.0928 178.614 24.0859 176.051C24.0928 173.487 23.252 172.038 21.8301 172.031C20.4082 172.038 19.5674 173.487 19.5605 176.051Z" fill="#888888"/>
<path d="M13.6492 213.137C11.9334 213.116 10.0398 212.098 10.0398 208.434C10.0398 204.927 11.4754 202.965 13.7996 202.965C15.5428 202.965 16.7596 204.038 17.0125 205.59H15.7957C15.5701 204.715 14.9002 204.059 13.7996 204.059C12.1727 204.059 11.1951 205.446 11.202 207.832H11.325C11.8924 207.005 12.8016 206.52 13.868 206.52C15.6248 206.52 17.0945 207.887 17.0945 209.801C17.0945 211.667 15.7342 213.157 13.6492 213.137ZM11.366 209.828C11.3729 210.99 12.323 212.05 13.6492 212.057C14.9275 212.05 15.8982 211.045 15.9051 209.814C15.8982 208.598 14.9686 207.606 13.6766 207.6C12.3777 207.606 11.3797 208.659 11.366 209.828ZM21.8301 213.137C19.6357 213.137 18.3643 211.291 18.3711 208.051C18.3643 204.838 19.6494 202.965 21.8301 202.965C24.0039 202.965 25.2891 204.838 25.2891 208.051C25.2891 211.291 24.0244 213.137 21.8301 213.137ZM19.5605 208.051C19.5674 210.614 20.3945 212.043 21.8301 212.043C23.2588 212.043 24.0928 210.614 24.0859 208.051C24.0928 205.487 23.252 204.038 21.8301 204.031C20.4082 204.038 19.5674 205.487 19.5605 208.051Z" fill="#888888"/>
<path d="M128.189 259.137C126.474 259.116 124.58 258.098 124.58 254.434C124.58 250.927 126.016 248.965 128.34 248.965C130.083 248.965 131.3 250.038 131.553 251.59H130.336C130.11 250.715 129.44 250.059 128.34 250.059C126.713 250.059 125.735 251.446 125.742 253.832H125.865C126.433 253.005 127.342 252.52 128.408 252.52C130.165 252.52 131.635 253.887 131.635 255.801C131.635 257.667 130.274 259.157 128.189 259.137ZM125.906 255.828C125.913 256.99 126.863 258.05 128.189 258.057C129.468 258.05 130.438 257.045 130.445 255.814C130.438 254.598 129.509 253.606 128.217 253.6C126.918 253.606 125.92 254.659 125.906 255.828ZM137.013 251.221C137.006 253.442 138.517 255.671 140.308 256.484L139.652 257.332C138.264 256.662 137.068 255.22 136.487 253.49C135.926 255.322 134.73 256.86 133.308 257.578L132.624 256.676C134.436 255.849 135.933 253.524 135.946 251.221V249.006H137.013V251.221ZM141.634 260.135V247.953H142.714V260.135H141.634Z" fill="#888888"/>
<path d="M174.964 249.102V259H173.72V250.387H173.665L171.259 251.986V250.742L173.72 249.102H174.964ZM177.402 259L177.389 258.098L180.766 254.543C181.935 253.299 182.495 252.629 182.502 251.713C182.495 250.694 181.647 250.038 180.533 250.031C179.351 250.038 178.612 250.783 178.605 251.891H177.443C177.43 250.141 178.783 248.965 180.574 248.965C182.372 248.965 183.644 250.175 183.65 251.713C183.644 252.82 183.131 253.682 181.381 255.486L179.111 257.824V257.906H183.828V259H177.402ZM189.302 251.221C189.295 253.442 190.806 255.671 192.597 256.484L191.941 257.332C190.553 256.662 189.357 255.22 188.776 253.49C188.215 255.322 187.019 256.86 185.597 257.578L184.913 256.676C186.725 255.849 188.222 253.524 188.236 251.221V249.006H189.302V251.221ZM193.923 260.135V247.953H195.003V260.135H193.923Z" fill="#888888"/>
<path d="M227.735 249.102V259H226.491V250.387H226.436L224.03 251.986V250.742L226.491 249.102H227.735ZM233.482 259.137C231.397 259.137 229.962 257.981 229.969 256.375C229.962 255.097 230.851 254.037 231.979 253.859V253.805C230.994 253.579 230.345 252.67 230.352 251.59C230.345 250.079 231.671 248.965 233.482 248.965C235.287 248.965 236.613 250.079 236.627 251.59C236.613 252.67 235.957 253.579 234.986 253.805V253.859C236.107 254.037 236.996 255.097 237.01 256.375C236.996 257.981 235.547 259.137 233.482 259.137ZM231.199 256.307C231.179 257.346 232.061 258.05 233.482 258.057C234.897 258.05 235.779 257.346 235.779 256.307C235.779 255.213 234.815 254.406 233.482 254.406C232.156 254.406 231.179 255.213 231.199 256.307ZM231.541 251.686C231.548 252.684 232.348 253.36 233.482 253.367C234.61 253.36 235.424 252.684 235.424 251.686C235.424 250.694 234.638 250.024 233.482 250.031C232.307 250.024 231.548 250.694 231.541 251.686ZM242.347 251.221C242.34 253.442 243.851 255.671 245.642 256.484L244.986 257.332C243.598 256.662 242.402 255.22 241.821 253.49C241.26 255.322 240.064 256.86 238.642 257.578L237.958 256.676C239.77 255.849 241.267 253.524 241.28 251.221V249.006H242.347V251.221ZM246.968 260.135V247.953H248.048V260.135H246.968Z" fill="#888888"/>
<path d="M271.653 259L271.639 258.098L275.016 254.543C276.185 253.299 276.746 252.629 276.753 251.713C276.746 250.694 275.898 250.038 274.784 250.031C273.601 250.038 272.863 250.783 272.856 251.891H271.694C271.68 250.141 273.034 248.965 274.825 248.965C276.623 248.965 277.894 250.175 277.901 251.713C277.894 252.82 277.382 253.682 275.632 255.486L273.362 257.824V257.906H278.079V259H271.653ZM279.205 256.977V255.965L283.662 249.102H285.18V255.896H286.561V256.977H285.18V259H284.004V256.977H279.205ZM280.531 255.896H284.004V250.66H283.881L280.531 255.814V255.896ZM291.87 251.221C291.863 253.442 293.374 255.671 295.165 256.484L294.509 257.332C293.121 256.662 291.925 255.22 291.344 253.49C290.783 255.322 289.587 256.86 288.165 257.578L287.482 256.676C289.293 255.849 290.79 253.524 290.804 251.221V249.006H291.87V251.221ZM296.491 260.135V247.953H297.571V260.135H296.491Z" fill="#888888"/>
</svg>
