<svg width="81" height="80" viewBox="0 0 81 80" fill="none" xmlns="http://www.w3.org/2000/svg">
<ellipse cx="40.5" cy="40" rx="40" ry="40" fill="#D4B2FF"/>
<path d="M25.6695 24.9899C26.247 23.2224 25.817 21.1624 24.5795 19.7774C23.342 18.3899 21.342 17.7299 19.522 18.1024C17.702 18.4749 16.127 19.8749 15.537 21.6374C15.157 22.7699 15.182 24.0624 15.737 25.1199C16.427 26.4399 17.852 27.2549 19.3145 27.5499C20.777 27.8449 22.287 27.6874 23.7645 27.4949L25.672 24.9899H25.6695Z" fill="#504D54"/>
<path d="M54.7063 24.99C54.1288 23.2225 54.5588 21.1625 55.7963 19.7775C57.0338 18.39 59.0338 17.73 60.8538 18.105C62.6738 18.48 64.2488 19.8775 64.8388 21.64C65.2188 22.7725 65.1938 24.065 64.6388 25.1225C63.9488 26.4425 62.5238 27.2575 61.0613 27.5525C59.5988 27.8475 58.0888 27.69 56.6113 27.4975L54.7038 24.9925L54.7063 24.99Z" fill="#504D54"/>
<path d="M64.0812 51.9749C66.0587 42.8024 63.4837 32.4474 57.0337 25.6324C54.3262 22.7724 50.7137 20.7248 46.9012 19.7373C43.7737 18.9273 40.4837 19.0448 37.2637 19.3348C34.3537 19.5973 31.4087 20.0098 28.7362 21.1898C24.2212 23.1849 20.8487 27.2574 18.9037 31.7924C16.9587 36.3274 16.3112 41.3174 16.1112 46.2499C16.0262 48.3249 16.0262 50.4474 16.6862 52.4174C17.7137 55.4749 20.2737 57.8424 23.1837 59.2349C29.7887 62.3999 37.3187 62.0274 44.4237 62.0274C47.7187 62.0124 51.0762 61.7324 54.2762 60.9474C59.1862 59.7424 62.9912 57.0324 64.0812 51.9724V51.9749Z" fill="#EDE6E2"/>
<path d="M20.526 37.5347C19.3735 39.4272 18.7935 41.8272 19.6335 43.8797C20.736 46.5772 23.9735 47.8572 26.881 47.6897C29.641 47.5297 32.386 46.2547 34.026 44.0322C35.666 41.8097 36.036 38.6197 34.666 36.2197C33.251 33.7397 30.171 32.4472 27.3435 32.8297C24.5135 33.2122 22.011 35.0972 20.526 37.5372V37.5347Z" fill="#504D54"/>
<path d="M60.4539 37.5347C61.6064 39.4272 62.1864 41.8272 61.3464 43.8797C60.2439 46.5772 57.0064 47.8572 54.0989 47.6897C51.3389 47.5297 48.5939 46.2547 46.9539 44.0322C45.3139 41.8072 44.9439 38.6197 46.3139 36.2197C47.7289 33.7397 50.8089 32.4472 53.6364 32.8297C56.4664 33.2122 58.9689 35.0972 60.4539 37.5372V37.5347Z" fill="#504D54"/>
<path d="M39.7966 47.9548C40.0791 48.1223 40.3891 48.2423 40.7141 48.2898C41.9866 48.4723 43.1291 47.3548 43.7241 46.3598C43.8766 46.1048 44.0166 45.8198 43.9816 45.5273C43.9441 45.1973 43.6891 44.9248 43.3916 44.7798C43.0941 44.6348 42.7541 44.5973 42.4241 44.5723C41.3991 44.4998 40.3666 44.5373 39.3391 44.5748C38.5716 44.6023 37.7816 44.8823 37.9941 45.8073C38.1341 46.4123 38.6991 47.0223 39.1391 47.4473C39.3366 47.6398 39.5591 47.8123 39.7966 47.9548Z" fill="#603218"/>
<path d="M38.8481 54.3597C39.0106 54.1547 39.3156 54.1472 39.5506 54.0322C39.9606 53.8297 40.1106 53.2347 39.8431 52.8622C39.6581 52.6047 39.3006 52.4072 39.3456 52.0922C39.3881 51.7697 39.8081 51.6772 40.0281 51.4372C40.1881 51.2622 40.2356 50.9947 40.1431 50.7747C40.0506 50.5572 39.8256 50.4022 39.5881 50.3972C39.2306 50.4922 38.8681 50.5897 38.5556 50.7847C38.2431 50.9797 37.9806 51.2922 37.9356 51.6572C37.8606 52.2822 38.4031 52.7922 38.8931 53.1872C38.4056 53.0997 37.8956 53.4097 37.6806 53.8597C37.4681 54.3072 37.5256 54.8547 37.7606 55.2922C37.9956 55.7297 38.3881 56.0672 38.8181 56.3122C39.0881 56.4647 39.4831 56.5647 39.6706 56.3147C39.8006 56.1422 39.7431 55.8822 39.6106 55.7122C39.4781 55.5397 39.2856 55.4272 39.1181 55.2897C38.8406 55.0597 38.6231 54.6372 38.8481 54.3572V54.3597Z" fill="#603218"/>
<path d="M28.0417 42.5747C28.7642 42.6147 29.4892 42.5822 30.2042 42.4772C30.6467 42.4122 31.0917 42.3172 31.4842 42.0997C32.9067 41.3072 32.4067 39.1147 31.7342 37.9647C31.2867 37.1972 30.5067 36.6222 29.6842 36.2397C28.1167 35.5097 26.1267 36.2572 25.0642 37.5847C24.3417 38.4872 23.4817 40.7472 24.5842 41.6872C24.8442 41.9072 25.1717 42.0272 25.4992 42.1272C26.3242 42.3797 27.1817 42.5297 28.0442 42.5772L28.0417 42.5747Z" fill="white"/>
<path d="M30.2184 39.4C30.4684 40.0775 30.4309 40.9125 29.9334 41.4375C29.6109 41.7775 29.1434 41.945 28.6784 42.0075C28.0734 42.0875 27.4134 41.99 26.9459 41.5975C26.4784 41.205 26.2734 40.4725 26.5959 39.955C26.8509 40.035 27.1459 39.955 27.3259 39.7575C27.5059 39.56 27.5584 39.2575 27.4559 39.0125C27.3609 38.785 27.1409 38.56 27.2359 38.3325C27.2734 38.24 27.3584 38.175 27.4434 38.1225C27.9409 37.8175 28.5984 37.8325 29.1184 38.0975C29.6384 38.365 30.0184 38.8575 30.2209 39.4025L30.2184 39.4Z" fill="#603218"/>
<path d="M55.614 38.8723C55.919 38.6373 55.779 38.1374 55.524 37.8499C54.9515 37.2048 53.9765 37.0173 53.1465 37.2548C52.319 37.4898 51.6315 38.0923 51.129 38.7923C50.629 39.4924 50.2915 40.2949 49.959 41.0899C49.8415 41.3699 49.744 41.7399 49.9715 41.9374C50.1265 42.0724 50.374 42.0499 50.5515 41.9424C50.729 41.8349 50.8515 41.6599 50.974 41.4949C51.469 40.8249 52.0315 40.2074 52.6515 39.6524C53.194 39.1674 53.874 38.7049 54.5915 38.8324C54.939 38.8949 55.334 39.0849 55.614 38.8674V38.8723Z" fill="#421E0B"/>
<path d="M52.1388 41.3798C52.8113 41.0023 53.5438 40.7298 54.2988 40.5748C54.4288 40.5473 54.5638 40.5248 54.6938 40.5523C54.8238 40.5798 54.9463 40.6723 54.9738 40.8023C55.0013 40.9373 54.9163 41.0748 54.8038 41.1523C54.6888 41.2298 54.5513 41.2573 54.4163 41.2848C53.3763 41.4948 52.3388 41.7048 51.2988 41.9173L52.1413 41.3773L52.1388 41.3798Z" fill="#421E0B"/>
<path d="M32.7792 56.315C34.2242 55.0975 35.2642 53.41 35.6992 51.5725C35.8942 50.755 35.9642 49.8675 35.6242 49.1C35.2267 48.2025 34.2567 47.5925 33.2742 47.625C32.2942 47.6575 31.3642 48.33 31.0267 49.25C30.1967 48.56 29.0367 48.005 28.0667 48.4775C27.2492 48.875 26.8892 49.9025 27.0267 50.8C27.1642 51.6975 27.6967 52.485 28.2767 53.185C29.3017 54.42 30.5217 55.4925 31.8792 56.35C32.0392 56.45 32.2167 56.5525 32.4042 56.525C32.5492 56.505 32.6692 56.41 32.7817 56.315H32.7792Z" fill="#D33333"/>
<path d="M35.4991 50.7898C36.1341 51.5623 36.8816 52.2423 37.7091 52.8048C35.9416 53.3348 34.2841 54.2273 32.8691 55.4098L35.4991 50.7898Z" fill="#D33333"/>
<path d="M22.426 24.5473C22.5385 23.9273 22.5235 23.2723 22.301 22.6823C22.0785 22.0923 21.641 21.5698 21.061 21.3198C20.481 21.0698 19.7635 21.1223 19.2685 21.5123C18.7735 21.9023 18.5585 22.6398 18.8285 23.2098C19.1135 23.8123 19.811 24.0973 20.466 24.2048C21.1235 24.3123 21.8085 24.2998 22.426 24.5473Z" fill="#F48E8E"/>
<path d="M61.5466 23.4947C61.0666 24.0172 60.3041 24.1672 59.5941 24.2072C58.8841 24.2497 58.1491 24.2172 57.4941 24.4922C57.8016 23.7572 58.1441 23.0197 58.6916 22.4422C59.2391 21.8647 60.0316 21.4672 60.8191 21.5772C61.2266 21.6347 61.6366 21.8472 61.8116 22.2197C62.0091 22.6372 61.8566 23.1547 61.5441 23.4947H61.5466Z" fill="#F48E8E"/>
<path d="M59.6256 53.1897C60.3381 52.9947 61.0306 52.6322 61.4856 52.0497C61.9406 51.4672 62.1181 50.6372 61.8106 49.9647C61.5806 49.4647 61.1231 49.1072 60.6381 48.8447C59.2356 48.0847 57.4856 47.9972 56.0156 48.6147C55.1106 48.9947 54.2406 49.7722 54.2481 50.7547C54.2556 51.6722 55.0256 52.4122 55.8456 52.8197C57.0056 53.3947 58.3781 53.5297 59.6256 53.1872V53.1897Z" fill="#F48E8E"/>
<path d="M23.6744 53.1897C24.3869 52.9947 25.0794 52.6322 25.5344 52.0497C25.9894 51.4672 26.1669 50.6372 25.8594 49.9647C25.6294 49.4647 25.1719 49.1072 24.6869 48.8447C23.2844 48.0847 21.5344 47.9972 20.0644 48.6147C19.1594 48.9947 18.2894 49.7722 18.2969 50.7547C18.3044 51.6722 19.0744 52.4122 19.8944 52.8197C21.0544 53.3947 22.4269 53.5297 23.6744 53.1872V53.1897Z" fill="#F48E8E"/>
<path d="M29.6561 25.9548C28.6311 26.0148 27.7011 26.8498 27.5361 27.8623C28.4611 27.9998 29.4411 27.7423 30.1786 27.1673C30.3911 27.0023 30.6011 26.7723 30.5786 26.5048C30.5461 26.1098 30.0536 25.9323 29.6561 25.9548Z" fill="#504D54"/>
<path d="M49.5843 25.9548C50.6093 26.0148 51.5393 26.8498 51.7043 27.8623C50.7793 27.9998 49.7993 27.7423 49.0618 27.1673C48.8493 27.0023 48.6393 26.7723 48.6618 26.5048C48.6943 26.1098 49.1868 25.9323 49.5843 25.9548Z" fill="#504D54"/>
</svg>
