<svg width="61" height="60" viewBox="0 0 61 60" fill="none" xmlns="http://www.w3.org/2000/svg">
<path d="M31 6.17506e-06C14.4315 7.47865e-06 0.999999 13.4315 1 30C1 46.5685 14.4315 60 31 60C47.5685 60 61 46.5685 61 30C61 13.4315 47.5685 4.87147e-06 31 6.17506e-06Z" fill="#DDE1E4"/>
<g style="mix-blend-mode:luminosity">
<rect x="20.3342" y="27.332" width="21.3322" height="14.6655" fill="#F4F4F4"/>
<rect x="20.3342" y="34" width="21.3322" height="3.99968" fill="#5C97F0"/>
<path d="M27.0005 32.6653C27.0005 31.9289 27.5974 31.332 28.3337 31.332H33.6668C34.4031 31.332 35.0001 31.9289 35.0001 32.6653V41.9979H27.0005V32.6653Z" fill="#A7B9D5"/>
<rect x="19" y="23.3984" width="24" height="4.79988" rx="1.33324" fill="#EEEEEE"/>
<ellipse cx="31" cy="22.4999" rx="4.5" ry="4.49989" fill="#3F86F1"/>
<path fill-rule="evenodd" clip-rule="evenodd" d="M30.5002 20.0977C30.2793 20.0977 30.1002 20.2767 30.1002 20.4976V21.5976H29.0003C28.7794 21.5976 28.6003 21.7767 28.6003 21.9976V22.9976C28.6003 23.2185 28.7794 23.3976 29.0003 23.3976H30.1002V24.4976C30.1002 24.7185 30.2793 24.8975 30.5002 24.8975H31.5003C31.7212 24.8975 31.9002 24.7185 31.9002 24.4976V23.3976H33.0004C33.2213 23.3976 33.4003 23.2185 33.4003 22.9976V21.9976C33.4003 21.7767 33.2213 21.5976 33.0004 21.5976H31.9002V20.4976C31.9002 20.2767 31.7212 20.0977 31.5003 20.0977H30.5002Z" fill="white"/>
</g>
</svg>
