<svg width="176" height="246" viewBox="0 0 176 246" fill="none" xmlns="http://www.w3.org/2000/svg">
<g id="img">
<g id="Group 1321316944">
<path id="Union" fill-rule="evenodd" clip-rule="evenodd" d="M106.253 26.4385C96.3118 26.4385 88.2529 34.4974 88.2529 44.4385V47.2231C88.2529 57.1642 96.3118 65.2231 106.253 65.2231H131C140.941 65.2231 149 57.1642 149 47.2231V44.4385C149 34.4973 140.941 26.4385 131 26.4385H106.253ZM114.888 65.224L117.732 70.9117C118.1 71.6487 119.152 71.6487 119.52 70.9117L122.364 65.224H114.888Z" fill="#D3EAFF"/>
<g id="&#235;&#167;&#144;&#237;&#146;&#141;&#236;&#132;&#160;">
<path id="Union_2" fill-rule="evenodd" clip-rule="evenodd" d="M62.3086 0C49.0538 0 38.3086 10.7451 38.3086 24V29.9268C38.3086 43.1817 49.0538 53.9268 62.3086 53.9268H98.7723C112.027 53.9268 122.772 43.1817 122.772 29.9269V24C122.772 10.7452 112.027 0 98.7723 0H62.3086ZM75.3425 53.9283L79.6459 62.535C80.0144 63.272 81.0662 63.272 81.4347 62.535L85.7381 53.9283H75.3425Z" fill="#55A9F8"/>
<circle id="Ellipse 5530" cx="62.3491" cy="26.6392" r="5.19777" fill="white"/>
<circle id="Ellipse 5531" opacity="0.6" cx="80.5405" cy="26.6392" r="5.19777" fill="white"/>
<circle id="Ellipse 5532" opacity="0.3" cx="98.7329" cy="26.6392" r="5.19777" fill="white"/>
</g>
</g>
<g id="&#236;&#160;&#132;&#234;&#181;&#172;">
<path id="Union_3" fill-rule="evenodd" clip-rule="evenodd" d="M130.377 179.259C139.502 169.146 145.057 155.748 145.057 141.054C145.057 109.544 119.513 84 88.003 84C56.4931 84 30.9492 109.544 30.9492 141.054C30.9492 155.748 36.5045 169.146 45.6295 179.259C50.8808 185.08 54.3761 198.085 54.382 202.172V207.656C54.382 218.701 63.3363 227.656 74.382 227.656H101.624C112.67 227.656 121.624 218.701 121.624 207.656V202.187C121.624 202.185 121.624 202.184 121.624 202.183C121.624 198.108 125.121 185.085 130.377 179.259Z" fill="url(#paint0_linear_2334_92321)"/>
<path id="Rectangle 34624999" d="M54.3828 208.295H121.625C121.625 218.986 112.958 227.652 102.267 227.652H73.7404C63.0495 227.652 54.3828 218.986 54.3828 208.295Z" fill="url(#paint1_linear_2334_92321)"/>
<path id="Rectangle 34625000" d="M65.5889 225.615H110.417C110.417 236.869 101.294 245.992 90.0405 245.992H85.9652C74.7117 245.992 65.5889 236.869 65.5889 225.615Z" fill="url(#paint2_linear_2334_92321)"/>
<path id="Vector 2767" d="M82.416 230.647L84.4544 219.435C84.5409 218.96 84.955 218.614 85.4383 218.614H90.6135C91.0968 218.614 91.5109 218.96 91.5974 219.435L93.6358 230.647C93.6945 230.97 93.5911 231.301 93.359 231.533L88.733 236.159C88.3425 236.549 87.7093 236.549 87.3188 236.159L82.6928 231.533C82.4607 231.301 82.3573 230.97 82.416 230.647Z" fill="#EB5858"/>
<path id="Vector 2766" d="M93.3231 208.349H82.7291C81.3894 208.349 80.4285 209.64 80.8134 210.923L83.0356 218.331C83.2894 219.177 84.068 219.756 84.9513 219.756H91.101C91.9842 219.756 92.7628 219.177 93.0166 218.331L95.2388 210.923C95.6238 209.64 94.6629 208.349 93.3231 208.349Z" fill="#FC6A6A"/>
<path id="Vector 2764" d="M78.0955 205.038L88.0262 208.348L82.8525 215.591C82.5522 216.011 81.9811 216.134 81.5349 215.874L70.4524 209.409C69.7244 208.984 69.816 207.905 70.6051 207.609L77.4281 205.05C77.6426 204.97 77.8782 204.965 78.0955 205.038Z" fill="white"/>
<path id="Vector 2765" d="M97.9573 205.038L88.0266 208.348L93.2002 215.591C93.5005 216.011 94.0716 216.134 94.5178 215.874L105.6 209.409C106.328 208.984 106.237 207.905 105.448 207.609L98.6246 205.05C98.4101 204.97 98.1746 204.965 97.9573 205.038Z" fill="white"/>
<path id="Ellipse 5534" d="M88.0257 147.284C88.0257 156.401 76.8434 163.791 67.7115 163.791C50.2319 164.734 41.2559 155.674 41.2559 155.674C41.2559 155.674 46.4525 156.989 49.287 156.145C52.1216 155.302 54.787 154.255 56.3734 151.429C57.9597 148.604 56.8956 143.412 58.7355 139.739C60.6252 135.966 63.7763 130.778 72.9082 130.778C82.0401 130.778 88.0257 138.168 88.0257 147.284Z" fill="url(#paint3_linear_2334_92321)"/>
<path id="Ellipse 5535" d="M88.0261 147.284C88.0261 156.401 99.2083 163.791 108.34 163.791C125.82 164.734 134.796 155.674 134.796 155.674C134.796 155.674 129.599 156.989 126.765 156.145C123.93 155.302 121.265 154.255 119.678 151.429C118.092 148.604 119.156 143.412 117.316 139.739C115.427 135.966 112.276 130.778 103.144 130.778C94.0117 130.778 88.0261 138.168 88.0261 147.284Z" fill="url(#paint4_linear_2334_92321)"/>
<rect id="Rectangle 34625027" x="69" y="82" width="38" height="21" rx="2" fill="url(#paint5_linear_2334_92321)"/>
<path id="Vector 2768" d="M65.5777 80.2111L87.1056 69.4472C87.6686 69.1657 88.3314 69.1657 88.8944 69.4472L110.422 80.2111C111.896 80.9482 111.896 83.0518 110.422 83.7889L88.8944 94.5528C88.3314 94.8343 87.6686 94.8343 87.1056 94.5528L65.5777 83.7889C64.1036 83.0518 64.1036 80.9482 65.5777 80.2111Z" fill="url(#paint6_linear_2334_92321)"/>
</g>
<g id="&#236;&#160;&#132;&#234;&#181;&#172; &#234;&#176;&#149;&#236;&#161;&#176;">
<rect id="Rectangle 34625001" x="152.188" y="137.4" width="22.414" height="10.1882" rx="5.09409" fill="#FFF3B8"/>
<rect id="Rectangle 34625004" width="22.414" height="10.1882" rx="5.09409" transform="matrix(-1 0 0 1 23.4385 137.4)" fill="#FFF3B8"/>
<rect id="Rectangle 34625002" x="151.169" y="117.17" width="22.414" height="10.1882" rx="5.09409" transform="rotate(-45 151.169 117.17)" fill="#FFF3B8"/>
<rect id="Rectangle 34625005" width="22.414" height="10.1882" rx="5.09409" transform="matrix(-0.707107 -0.707107 -0.707107 0.707107 24.457 117.17)" fill="#FFF3B8"/>
<rect id="Rectangle 34625003" x="159.393" y="160.834" width="22.414" height="10.1882" rx="5.09409" transform="rotate(45 159.393 160.834)" fill="#FFF3B8"/>
<rect id="Rectangle 34625006" width="22.414" height="10.1882" rx="5.09409" transform="matrix(-0.707107 0.707107 0.707107 0.707107 16.2334 160.834)" fill="#FFF3B8"/>
</g>
</g>
<defs>
<linearGradient id="paint0_linear_2334_92321" x1="88.003" y1="84" x2="88.003" y2="227.656" gradientUnits="userSpaceOnUse">
<stop stop-color="#FFE664"/>
<stop offset="1" stop-color="#FFC700"/>
</linearGradient>
<linearGradient id="paint1_linear_2334_92321" x1="88.0038" y1="208.295" x2="88.0038" y2="227.652" gradientUnits="userSpaceOnUse">
<stop stop-color="#C8C6CD"/>
<stop offset="1" stop-color="#B4B1BD"/>
</linearGradient>
<linearGradient id="paint2_linear_2334_92321" x1="88.0029" y1="225.615" x2="88.0029" y2="245.992" gradientUnits="userSpaceOnUse">
<stop stop-color="#8B8892"/>
<stop offset="1" stop-color="#716C7A"/>
</linearGradient>
<linearGradient id="paint3_linear_2334_92321" x1="64.6408" y1="130.778" x2="64.6408" y2="163.859" gradientUnits="userSpaceOnUse">
<stop stop-color="white"/>
<stop offset="1" stop-color="#EFEFEF"/>
</linearGradient>
<linearGradient id="paint4_linear_2334_92321" x1="111.411" y1="130.778" x2="111.411" y2="163.859" gradientUnits="userSpaceOnUse">
<stop stop-color="white"/>
<stop offset="1" stop-color="#EFEFEF"/>
</linearGradient>
<linearGradient id="paint5_linear_2334_92321" x1="88" y1="82" x2="88" y2="103" gradientUnits="userSpaceOnUse">
<stop stop-color="#595959"/>
<stop offset="0.932292" stop-color="#6B6B6B"/>
</linearGradient>
<linearGradient id="paint6_linear_2334_92321" x1="88" y1="69" x2="88" y2="95" gradientUnits="userSpaceOnUse">
<stop stop-color="#8F8F8F"/>
<stop offset="1" stop-color="#777777"/>
</linearGradient>
</defs>
</svg>
