<svg width="24" height="24" viewBox="0 0 24 24" fill="none" xmlns="http://www.w3.org/2000/svg">
<rect width="24" height="24" rx="4.8" fill="#F8F8F8"/>
<path d="M4.5 7.41016H19.5V16.5942C19.5 17.7971 18.5248 18.7723 17.3219 18.7723H6.67806C5.47515 18.7723 4.5 17.7971 4.5 16.5942V7.41016Z" fill="url(#paint0_linear_2853_8757)"/>
<path d="M4.5 7.31478C4.5 6.11187 5.47515 5.13672 6.67806 5.13672H17.3219C18.5248 5.13672 19.5 6.11187 19.5 7.31478V8.99984H4.5V7.31478Z" fill="url(#paint1_linear_2853_8757)"/>
<rect x="7.22803" y="5.58594" width="2.27236" height="2.27243" rx="1.13618" fill="white"/>
<rect x="14.4985" y="5.58594" width="2.27236" height="2.27243" rx="1.13618" fill="white"/>
<rect x="7.68262" y="4.45117" width="1.36364" height="2.72691" rx="0.681818" fill="url(#paint2_linear_2853_8757)"/>
<rect x="14.9531" y="4.45117" width="1.36364" height="2.72691" rx="0.681818" fill="url(#paint3_linear_2853_8757)"/>
<rect x="6.77246" y="13.0879" width="1.59091" height="1.5907" rx="0.348462" fill="#F6505A"/>
<rect x="6.77246" y="10.5898" width="1.59091" height="1.5907" rx="0.348462" fill="#DBDEE3"/>
<rect x="12.6836" y="15.5957" width="1.59091" height="1.5907" rx="0.348462" fill="#D1D4DA"/>
<rect x="6.77246" y="15.5918" width="1.59091" height="1.5907" rx="0.348462" fill="#F6505A"/>
<rect x="9.72559" y="13.0879" width="1.59091" height="1.5907" rx="0.348462" fill="#F6505A"/>
<rect x="9.72559" y="10.5898" width="1.59091" height="1.5907" rx="0.348462" fill="#DBDEE3"/>
<rect x="15.6367" y="15.5957" width="1.59091" height="1.5907" rx="0.348462" fill="#D1D4DA"/>
<rect x="9.72559" y="15.5918" width="1.59091" height="1.5907" rx="0.348462" fill="#F6505A"/>
<rect x="12.6836" y="10.5898" width="1.59091" height="1.5907" rx="0.348462" fill="#F6505A"/>
<rect x="12.6836" y="13.0879" width="1.59091" height="1.5907" rx="0.348462" fill="#F6505A"/>
<rect x="15.6367" y="10.5898" width="1.59091" height="1.5907" rx="0.348462" fill="#F6505A"/>
<rect x="15.6367" y="13.0879" width="1.59091" height="1.5907" rx="0.348462" fill="#F6505A"/>
<defs>
<linearGradient id="paint0_linear_2853_8757" x1="12" y1="7.41016" x2="12" y2="18.7723" gradientUnits="userSpaceOnUse">
<stop stop-color="#F0F3F8"/>
<stop offset="1" stop-color="#E2E4E8"/>
</linearGradient>
<linearGradient id="paint1_linear_2853_8757" x1="12" y1="5.13672" x2="12" y2="8.99984" gradientUnits="userSpaceOnUse">
<stop stop-color="#FE5963"/>
<stop offset="1" stop-color="#F44E58"/>
</linearGradient>
<linearGradient id="paint2_linear_2853_8757" x1="8.36444" y1="4.45117" x2="8.36444" y2="7.17808" gradientUnits="userSpaceOnUse">
<stop stop-color="#777A87"/>
<stop offset="0.0001" stop-color="#999BA2"/>
<stop offset="1" stop-color="#494C58"/>
</linearGradient>
<linearGradient id="paint3_linear_2853_8757" x1="15.6349" y1="4.45117" x2="15.6349" y2="7.17808" gradientUnits="userSpaceOnUse">
<stop stop-color="#777A87"/>
<stop offset="0.0001" stop-color="#999BA2"/>
<stop offset="1" stop-color="#494C58"/>
</linearGradient>
</defs>
</svg>
