<svg width="81" height="80" viewBox="0 0 81 80" fill="none" xmlns="http://www.w3.org/2000/svg">
<ellipse cx="40.5" cy="40" rx="40" ry="40" fill="#DDF092"/>
<path d="M21.9566 24.2159C22.0391 24.1284 22.1241 24.0459 22.2091 23.9659C24.3341 21.9909 27.2766 20.6209 30.0566 19.8909C33.0391 19.1059 36.1416 18.9159 39.2216 18.8109C42.7091 18.6909 46.2316 18.6784 49.6491 19.3809C53.0666 20.0834 56.4066 21.5534 58.8491 24.0459C61.6291 26.8809 63.0366 30.8109 63.6691 34.7309C64.5066 39.9209 64.1191 45.2209 63.6691 50.4584C63.4591 52.9009 63.2166 55.4159 62.0591 57.5784C60.8541 59.8309 58.7441 61.4934 56.4516 62.6234C50.8641 65.3759 44.3416 65.1909 38.1191 64.9484C32.7266 64.7384 25.8216 64.0334 22.1791 59.5459C20.5191 57.5009 19.5091 55.0059 18.7816 52.4759C16.9191 45.9834 16.8741 39.0009 18.5366 32.4609C19.1991 29.8584 20.0341 26.2309 21.9516 24.2184L21.9566 24.2159Z" fill="#8C4E35"/>
<path d="M55.1697 22.7081C55.0547 22.6931 54.9422 22.6781 54.8272 22.6631C53.8347 21.0731 53.8247 18.9156 54.8197 17.3281C55.8147 15.7381 57.7672 14.8006 59.6272 15.0356C61.4872 15.2706 63.1497 16.6731 63.6822 18.4731C64.2122 20.2706 63.5697 22.3606 62.1122 23.5381C60.7447 24.6431 58.8972 24.8981 57.1497 25.1106L55.1697 22.7081Z" fill="#8C4E35"/>
<path d="M27.5664 41.1207C29.4664 41.2282 31.5489 40.2957 32.1614 38.5657C32.6139 37.2907 32.3889 35.7057 31.7039 34.5307C31.2114 33.6882 30.3564 33.0557 29.4514 32.6357C27.7289 31.8332 25.5414 32.6557 24.3764 34.1132C23.0414 35.7782 22.9139 38.3982 24.4614 39.8857C25.2714 40.6657 26.4239 41.0557 27.5664 41.1207Z" fill="white"/>
<path d="M52.334 41.1207C54.234 41.2282 56.3165 40.2957 56.929 38.5657C57.3815 37.2907 57.1565 35.7057 56.4715 34.5307C55.979 33.6882 55.124 33.0557 54.219 32.6357C52.4965 31.8332 50.309 32.6557 49.144 34.1132C47.809 35.7782 47.6815 38.3982 49.229 39.8857C50.039 40.6657 51.1915 41.0557 52.334 41.1207Z" fill="white"/>
<path d="M24.4614 23.5007C24.7414 21.3707 24.5739 18.9732 23.0764 17.4357C21.8239 16.1482 19.7539 15.7582 18.0939 16.4457C16.4339 17.1357 15.2614 18.8357 15.1464 20.6307C15.0314 22.4257 15.9514 24.2357 17.4364 25.2507C18.9189 26.2657 20.9064 26.4757 22.5914 25.8507L24.4614 23.5007Z" fill="#8C4E35"/>
<path d="M31.9167 47.5311C31.5042 50.1861 31.2917 53.2261 33.0792 55.2286C34.4517 56.7661 36.6467 57.2486 38.7017 57.4086C41.0242 57.5911 43.3717 57.4736 45.6667 57.0611C46.8992 56.8386 48.1767 56.5011 49.0817 55.6336C50.5567 54.2211 50.5842 51.8886 50.2917 49.8686C49.7667 46.2386 49.0592 41.931 46.2792 39.5385C43.4992 37.146 38.4042 37.0885 35.5242 39.3585C33.1267 41.246 32.3842 44.5136 31.9167 47.5286V47.5311Z" fill="#BA6D4A"/>
<path d="M30.0386 36.1085C30.3136 36.8535 30.2711 37.7685 29.7261 38.346C29.3736 38.721 28.8586 38.9035 28.3486 38.971C27.6836 39.0585 26.9586 38.951 26.4461 38.521C25.9311 38.091 25.7061 37.286 26.0611 36.716C26.3411 36.8035 26.6661 36.716 26.8636 36.4985C27.0611 36.281 27.1186 35.9485 27.0061 35.6785C26.9011 35.4285 26.6611 35.181 26.7636 34.931C26.8061 34.8285 26.8961 34.7585 26.9911 34.701C27.5361 34.366 28.2586 34.381 28.8286 34.6735C29.3986 34.966 29.8186 35.506 30.0411 36.1085H30.0386Z" fill="#603218"/>
<path d="M54.6294 36.1085C54.9044 36.8535 54.8619 37.7685 54.3169 38.346C53.9644 38.721 53.4494 38.9035 52.9394 38.971C52.2744 39.0585 51.5494 38.951 51.0369 38.521C50.5219 38.091 50.2969 37.286 50.6519 36.716C50.9319 36.8035 51.2569 36.716 51.4544 36.4985C51.6519 36.281 51.7094 35.9485 51.5969 35.6785C51.4919 35.4285 51.2519 35.181 51.3544 34.931C51.3969 34.8285 51.4869 34.7585 51.5819 34.701C52.1269 34.366 52.8494 34.381 53.4194 34.6735C53.9894 34.966 54.4094 35.506 54.6319 36.1085H54.6294Z" fill="#603218"/>
<path d="M43.5095 41.0909C43.5845 40.9134 43.662 40.7109 43.582 40.5359C43.4845 40.3234 43.212 40.2684 42.977 40.2434C42.142 40.1609 41.3045 40.1334 40.467 40.1659C39.9695 40.1834 38.452 39.9434 38.457 40.8134C38.457 41.1434 38.8195 41.6384 39.1095 41.9759C39.8645 42.8559 40.8645 43.7509 42.042 42.9559C42.742 42.4834 43.1795 41.8509 43.507 41.0909H43.5095Z" fill="#603218"/>
<path d="M46.5671 49.7157C46.2946 50.3832 45.9021 51.0007 45.3946 51.5132C43.8821 53.0432 41.4421 53.5607 39.4246 52.8157C39.3246 52.7807 39.2221 52.7382 39.1221 52.6957C37.0521 51.7807 35.6646 49.5132 35.7846 47.2557C35.8071 46.8207 35.8921 46.3582 36.1896 46.0357C36.4346 45.7632 36.7796 45.6382 37.1521 45.5832C37.3946 45.5357 37.6446 45.5282 37.8796 45.5182L45.2121 45.2732C45.6471 45.2607 46.0821 45.2432 46.5171 45.2307C47.1546 46.6307 47.1371 48.2957 46.5646 49.7182L46.5671 49.7157Z" fill="#603218"/>
<path d="M41.5761 43.6857C41.5761 43.4957 41.5686 43.2907 41.4536 43.1382C41.3386 42.9857 41.0736 42.9382 40.9661 43.0957C40.9561 43.8207 40.9436 44.5482 40.9336 45.2732C40.9336 45.3632 40.9336 45.4582 40.9686 45.5382C41.0686 45.7532 41.3586 45.7732 41.5936 45.7632C41.5861 45.0707 41.5811 44.3782 41.5736 43.6832L41.5761 43.6857Z" fill="#603218"/>
<path d="M44.7644 47.1481C44.3894 47.5231 43.8169 47.5931 43.2869 47.6406C41.7994 47.7781 40.2994 47.9156 38.8069 47.7656C38.4244 47.7256 38.0169 47.6531 37.7369 47.3906C37.2719 46.9456 37.3619 46.1931 37.1494 45.5856C37.3919 45.5381 37.6419 45.5306 37.8769 45.5206L45.2094 45.2756C45.2144 45.3106 45.2144 45.3456 45.2144 45.3781C45.2269 46.0031 45.2094 46.7106 44.7619 47.1506L44.7644 47.1481Z" fill="white"/>
<path d="M46.5665 49.7157C46.294 50.3832 45.9015 51.0007 45.394 51.5132C43.8815 53.0432 41.4415 53.5607 39.424 52.8157C39.3115 52.0432 39.8165 51.2332 40.449 50.7282C41.3965 49.9657 42.6165 49.6282 43.8165 49.4357C44.589 49.3107 45.399 49.2407 46.1315 49.5057C46.2815 49.5607 46.429 49.6307 46.5665 49.7157Z" fill="#F48A84"/>
<path d="M27.4015 42.9008C26.089 42.3133 24.4765 42.4533 23.284 43.2583C22.784 43.5958 22.324 44.1208 22.3615 44.7233C22.404 45.4308 23.1015 45.9158 23.769 46.1558C24.684 46.4833 25.6865 46.5583 26.639 46.3733C27.169 46.2708 27.699 46.0783 28.104 45.7183C28.509 45.3583 28.7665 44.8058 28.6765 44.2733C28.5665 43.6308 27.9965 43.1658 27.4015 42.9008Z" fill="#F48A84"/>
<path d="M57.6769 42.9008C56.3644 42.3133 54.7519 42.4533 53.5594 43.2583C53.0594 43.5958 52.5994 44.1208 52.6369 44.7233C52.6794 45.4308 53.3769 45.9158 54.0444 46.1558C54.9594 46.4833 55.9619 46.5583 56.9144 46.3733C57.4444 46.2708 57.9744 46.0783 58.3794 45.7183C58.7844 45.3583 59.0419 44.8058 58.9519 44.2733C58.8419 43.6308 58.2719 43.1658 57.6769 42.9008Z" fill="#F48A84"/>
<path d="M28.7462 25.546C28.2587 25.3885 27.7037 25.4585 27.2712 25.731C26.8387 26.0035 26.5363 26.476 26.4688 26.9835C27.3637 26.9335 28.2337 26.526 28.8462 25.871C28.8887 25.826 28.9312 25.7735 28.9287 25.711C28.9237 25.6235 28.8287 25.5735 28.7462 25.546Z" fill="#603218"/>
<path d="M51.5889 25.546C52.0764 25.3885 52.6314 25.4585 53.0639 25.731C53.4964 26.0035 53.7989 26.476 53.8664 26.9835C52.9714 26.9335 52.1014 26.526 51.4889 25.871C51.4464 25.826 51.4039 25.7735 51.4064 25.711C51.4114 25.6235 51.5064 25.5735 51.5889 25.546Z" fill="#603218"/>
<path d="M56.9444 21.9533C56.7919 21.2808 56.8894 20.5558 57.2144 19.9483C57.5394 19.3408 58.0919 18.8583 58.7369 18.6158C59.1569 18.4583 59.6344 18.4008 60.0544 18.5608C60.4744 18.7208 60.8144 19.1308 60.8019 19.5808C60.7894 20.0008 60.4919 20.3583 60.1819 20.6408C59.4269 21.3283 57.9394 21.7233 56.9419 21.9533H56.9444Z" fill="#F48A84"/>
<path d="M21.7942 23.1455C21.6692 22.3755 21.3617 21.6355 20.9042 21.0055C20.6142 20.608 20.2517 20.243 19.7892 20.0705C19.3267 19.9005 18.7567 19.963 18.4217 20.323C18.0292 20.743 18.0767 21.443 18.4017 21.918C18.7267 22.3905 19.2642 22.6755 19.8067 22.8655C20.3492 23.058 21.2742 22.903 21.7967 23.1455H21.7942Z" fill="#F48A84"/>
</svg>
