<svg width="136" height="168" viewBox="0 0 136 168" fill="none" xmlns="http://www.w3.org/2000/svg">
<rect width="136" height="168" rx="20" fill="#F3F3F3"/>
<path d="M50.9781 131.648H49.4937V121.336H50.9781V131.648ZM49.7516 126.797H46.5953V125.562H49.7516V126.797ZM46.6812 122.391C46.6812 123.589 46.4156 124.693 45.8844 125.703C45.3583 126.708 44.6057 127.583 43.6266 128.328C42.6526 129.068 41.4911 129.656 40.1422 130.094L39.5094 128.906C40.65 128.536 41.637 128.062 42.4703 127.484C43.3089 126.901 43.9547 126.229 44.4078 125.469C44.8661 124.703 45.0953 123.888 45.0953 123.023V122.391H46.6812ZM46.0562 123.625H40.2281V122.391H46.0562V123.625ZM51.3375 135.047H41.9547V133.82H51.3375V135.047ZM43.4625 134.461H41.9547V130.594H43.4625V134.461ZM63.9344 129.641H62.4578V121.32H63.9344V129.641ZM65.9734 126.078H63.5203V124.859H65.9734V126.078ZM60.0984 122.32C60.0984 123.508 59.8354 124.591 59.3094 125.57C58.7885 126.549 58.0359 127.393 57.0516 128.102C56.0724 128.805 54.8979 129.354 53.5281 129.75L52.9109 128.547C54.0828 128.214 55.088 127.773 55.9266 127.227C56.7703 126.68 57.4135 126.049 57.8563 125.336C58.299 124.622 58.5203 123.854 58.5203 123.031V122.32H60.0984ZM59.3875 123.531H53.5438V122.32H59.3875V123.531ZM59.4578 129.797C60.3953 129.797 61.213 129.909 61.9109 130.133C62.6141 130.352 63.1531 130.667 63.5281 131.078C63.9031 131.49 64.0906 131.979 64.0906 132.547C64.0906 133.109 63.9031 133.599 63.5281 134.016C63.1531 134.432 62.6141 134.75 61.9109 134.969C61.213 135.193 60.3953 135.305 59.4578 135.305C58.5307 135.305 57.7156 135.193 57.0125 134.969C56.3146 134.75 55.7755 134.432 55.3953 134.016C55.0151 133.599 54.825 133.109 54.825 132.547C54.825 131.979 55.0151 131.49 55.3953 131.078C55.7755 130.667 56.3146 130.352 57.0125 130.133C57.7156 129.909 58.5307 129.797 59.4578 129.797ZM59.4578 130.969C58.8172 130.964 58.2573 131.023 57.7781 131.148C57.299 131.273 56.9318 131.456 56.6766 131.695C56.4214 131.935 56.2938 132.219 56.2938 132.547C56.2938 132.87 56.4214 133.151 56.6766 133.391C56.9318 133.625 57.299 133.807 57.7781 133.938C58.2573 134.068 58.8172 134.133 59.4578 134.133C60.1089 134.133 60.6714 134.068 61.1453 133.938C61.6245 133.807 61.9943 133.625 62.2547 133.391C62.5151 133.151 62.6453 132.87 62.6453 132.547C62.6453 132.219 62.5151 131.935 62.2547 131.695C61.9943 131.456 61.6245 131.273 61.1453 131.148C60.6714 131.023 60.1089 130.964 59.4578 130.969ZM81.9094 135.32H80.4094V121.32H81.9094V135.32ZM77.7531 122.828C77.7531 124.255 77.5318 125.576 77.0891 126.789C76.6516 127.997 75.9484 129.112 74.9797 130.133C74.0109 131.148 72.7505 132.029 71.1984 132.773L70.4016 131.57C71.7505 130.935 72.8573 130.195 73.7219 129.352C74.5917 128.508 75.2349 127.565 75.6516 126.523C76.0682 125.482 76.2766 124.331 76.2766 123.07V122.828H77.7531ZM76.9172 124.016H71.0812V122.828H76.9172V124.016ZM95.5375 135.32H94.0375V121.32H95.5375V135.32ZM91.3812 122.828C91.3812 124.255 91.1599 125.576 90.7172 126.789C90.2797 127.997 89.5766 129.112 88.6078 130.133C87.6391 131.148 86.3786 132.029 84.8266 132.773L84.0297 131.57C85.3786 130.935 86.4854 130.195 87.35 129.352C88.2198 128.508 88.863 127.565 89.2797 126.523C89.6964 125.482 89.9047 124.331 89.9047 123.07V122.828H91.3812ZM90.5453 124.016H84.7094V122.828H90.5453V124.016Z" fill="#5C5C5C"/>
<path d="M54.1756 26.1505C54.2144 26.0234 54.2485 25.9023 54.2852 25.7746C55.8368 20.3779 61.1261 16.9388 66.6901 17.7129C66.8066 17.7291 66.9204 17.7454 67.0371 17.76C68.804 17.9802 83.7987 19.8729 93.6171 21.8719C102.905 23.763 117.082 27.6878 118.65 28.124C118.749 28.1516 118.843 28.176 118.942 28.2023C124.419 29.6525 127.975 34.9431 127.249 40.5626C127.236 40.6619 127.224 40.7481 127.213 40.8474C127.007 42.6106 124.821 61.1773 122.602 73.1538C120.281 85.6804 115.143 104.519 114.589 106.537C114.555 106.661 114.527 106.777 114.495 106.903C113.346 111.443 108.946 114.39 104.304 113.714C104.221 113.702 104.15 113.692 104.068 113.681C102.579 113.483 86.5462 111.342 76.0402 109.237C65.2768 107.08 48.9892 102.691 47.5456 102.301C47.4691 102.28 47.4035 102.264 47.3267 102.244C42.8458 101.09 39.9318 96.7714 40.5333 92.1891C40.5481 92.0761 40.5619 91.9765 40.5748 91.8633C40.7956 89.921 43.0586 70.2854 45.7091 57.6837C48.1978 45.8508 53.5693 28.1381 54.1756 26.1505Z" fill="white"/>
<rect x="57.8276" y="37.0371" width="17.701" height="27.467" rx="6.40897" transform="rotate(11.3755 57.8276 37.0371)" fill="url(#paint0_linear_2952_18426)"/>
<rect x="103.903" y="46.3086" width="17.701" height="27.467" rx="6.40897" transform="rotate(11.3755 103.903 46.3086)" fill="url(#paint1_linear_2952_18426)"/>
<rect x="96.5596" y="78.8105" width="17.701" height="27.467" rx="6.40897" transform="rotate(11.3755 96.5596 78.8105)" fill="url(#paint2_linear_2952_18426)"/>
<rect x="79.373" y="34.2598" width="21.9736" height="10.3764" rx="1.22076" transform="rotate(11.3755 79.373 34.2598)" fill="#707079"/>
<path d="M84.6967 37.1987C84.8297 36.5378 85.4733 36.1098 86.1343 36.2427L98.9996 38.8311C99.6606 38.9641 100.089 39.6077 99.9556 40.2687L98.6313 46.8509C98.4983 47.5119 97.8547 47.9399 97.1938 47.8069L84.3284 45.2185C83.6675 45.0856 83.2395 44.442 83.3724 43.781L84.6967 37.1987Z" fill="#D1D1D3"/>
<path d="M88.0338 38.8167C87.9687 38.8036 87.9164 38.7755 87.8769 38.7323C87.8374 38.689 87.8119 38.6324 87.8004 38.5624C87.7889 38.4924 87.7925 38.4115 87.811 38.3195C87.8293 38.2284 87.8573 38.1527 87.8949 38.0926C87.9326 38.0325 87.9782 37.99 88.0318 37.9651C88.0855 37.9402 88.1445 37.9343 88.2087 37.9472C88.273 37.9601 88.3251 37.9884 88.3649 38.0321C88.4048 38.0758 88.4304 38.1327 88.4419 38.2027C88.4533 38.2726 88.4499 38.3532 88.4316 38.4444C88.4131 38.5363 88.385 38.6124 88.3474 38.6725C88.3101 38.7327 88.2647 38.775 88.2111 38.7995C88.158 38.8241 88.0989 38.8298 88.0338 38.8167ZM88.056 38.7063C88.0938 38.7139 88.1288 38.708 88.1611 38.6885C88.1938 38.6691 88.2222 38.6368 88.2463 38.5914C88.2706 38.5456 88.2894 38.4879 88.303 38.4185C88.317 38.3492 88.3216 38.2887 88.317 38.2371C88.3124 38.1855 88.299 38.1443 88.2768 38.1135C88.2546 38.0827 88.2247 38.0635 88.1869 38.0559C88.1491 38.0483 88.114 38.0544 88.0816 38.0742C88.0493 38.0941 88.0208 38.1268 87.9962 38.1726C87.9716 38.2183 87.9523 38.2758 87.9384 38.3452C87.9244 38.4145 87.9197 38.475 87.9244 38.5266C87.9291 38.5778 87.9427 38.6186 87.9654 38.6491C87.988 38.6796 88.0182 38.6987 88.056 38.7063Z" fill="black"/>
<path d="M87.5989 38.7249C87.5841 38.7219 87.5711 38.7153 87.5598 38.7049C87.5485 38.6945 87.5404 38.6823 87.5355 38.6684C87.5311 38.6541 87.5304 38.6396 87.5333 38.6248C87.5362 38.6104 87.5425 38.5974 87.5521 38.586C87.5621 38.5746 87.5742 38.5667 87.5885 38.5623C87.6028 38.5575 87.6174 38.5566 87.6322 38.5595C87.6466 38.5624 87.6595 38.5689 87.6709 38.5789C87.6823 38.5885 87.6904 38.6004 87.6953 38.6148C87.7001 38.6291 87.701 38.6435 87.6981 38.6579C87.6952 38.6727 87.6887 38.6858 87.6787 38.6972C87.6688 38.7082 87.6566 38.7163 87.6422 38.7215C87.6278 38.7267 87.6133 38.7278 87.5989 38.7249Z" fill="black"/>
<path d="M86.8838 38.4753L87.2374 38.2381C87.2802 38.2087 87.3134 38.1845 87.337 38.1658C87.3607 38.147 87.3794 38.1277 87.3931 38.1078C87.4073 38.0875 87.4168 38.0655 87.4216 38.0417C87.427 38.0149 87.425 37.9897 87.4155 37.9663C87.406 37.9429 87.3905 37.9232 87.369 37.9071C87.3475 37.891 87.322 37.88 87.2924 37.8741C87.2616 37.8679 87.2333 37.8687 87.2074 37.8764C87.182 37.8839 87.1605 37.8978 87.143 37.9182C87.126 37.9383 87.1145 37.9631 87.1086 37.9927L86.9865 37.9682C86.9966 37.9175 87.0175 37.8751 87.0491 37.8409C87.0807 37.8068 87.1197 37.7832 87.1661 37.7702C87.2129 37.7574 87.2632 37.7563 87.3169 37.7671C87.3703 37.7779 87.4157 37.798 87.4532 37.8274C87.4907 37.8564 87.5175 37.8916 87.5335 37.9329C87.5499 37.9739 87.5536 38.017 87.5445 38.0622C87.538 38.0946 87.5257 38.1245 87.5076 38.1521C87.4895 38.1796 87.4624 38.2086 87.4263 38.2391C87.3902 38.2695 87.3399 38.3058 87.2755 38.348L87.0679 38.488L87.0666 38.4944L87.4564 38.5728L87.4342 38.6833L86.8656 38.5689L86.8838 38.4753Z" fill="black"/>
<path d="M86.4841 38.5042C86.4269 38.4919 86.377 38.468 86.3343 38.4327C86.2919 38.3974 86.2616 38.3465 86.2434 38.28C86.2255 38.2136 86.2265 38.1313 86.2462 38.0331C86.2658 37.9361 86.2959 37.8557 86.3368 37.7917C86.3777 37.7274 86.4265 37.6821 86.4833 37.6558C86.54 37.6295 86.6021 37.6232 86.6695 37.6367C86.7209 37.6471 86.7647 37.6662 86.8008 37.6942C86.8374 37.7218 86.8649 37.7557 86.8831 37.7958C86.9018 37.8361 86.9099 37.8795 86.9074 37.926L86.78 37.9004C86.7786 37.8753 86.7727 37.8525 86.7622 37.8317C86.7523 37.8107 86.7376 37.7931 86.7181 37.7791C86.6986 37.765 86.6749 37.7552 86.6468 37.7495C86.6036 37.7408 86.5641 37.7455 86.5285 37.7634C86.493 37.781 86.4624 37.8109 86.4369 37.8532C86.4113 37.8955 86.392 37.9485 86.3787 38.0124L86.3881 38.0142C86.4084 37.9936 86.4312 37.9769 86.4565 37.9642C86.4822 37.9515 86.5097 37.9435 86.5392 37.9401C86.5687 37.9363 86.5985 37.9374 86.6285 37.9434C86.6784 37.9535 86.7217 37.9748 86.7585 38.0073C86.7958 38.0395 86.8221 38.0791 86.8374 38.1259C86.8531 38.1729 86.8556 38.223 86.8448 38.2764C86.8339 38.3309 86.8113 38.3777 86.7771 38.4166C86.7429 38.4555 86.7003 38.4828 86.6494 38.4985C86.5984 38.5142 86.5433 38.5161 86.4841 38.5042ZM86.5051 38.3965C86.5386 38.4033 86.5704 38.4013 86.6005 38.3908C86.631 38.3803 86.6568 38.363 86.6778 38.3388C86.6994 38.3144 86.7134 38.2862 86.7198 38.2543C86.7264 38.2211 86.7249 38.1896 86.7151 38.1597C86.7053 38.1297 86.6885 38.1045 86.6647 38.0839C86.6409 38.0629 86.6121 38.049 86.5782 38.0422C86.5451 38.0355 86.5131 38.0376 86.4821 38.0484C86.4513 38.0588 86.4249 38.076 86.403 38.0999C86.3817 38.1236 86.3674 38.1511 86.3603 38.1825C86.3545 38.2134 86.3566 38.244 86.3667 38.2744C86.3772 38.3049 86.3944 38.3313 86.4183 38.3535C86.4423 38.3754 86.4712 38.3897 86.5051 38.3965Z" fill="black"/>
<path d="M86.0247 38.4001L85.8949 38.374L86.0392 37.657L86.0345 37.656L85.8063 37.7475L85.8311 37.6242L86.0687 37.5285L86.1949 37.5539L86.0247 38.4001Z" fill="black"/>
<path d="M88.063 39.6065L88.0642 39.6006L87.6277 39.5128L87.6499 39.4023L88.2197 39.517L88.1966 39.6315L87.6725 40.2873L87.5387 40.2604L88.063 39.6065Z" fill="black"/>
<path d="M87.3572 40.2327C87.3424 40.2298 87.3294 40.2231 87.3181 40.2127C87.3068 40.2023 87.2987 40.1902 87.2938 40.1762C87.2894 40.1619 87.2887 40.1474 87.2916 40.1326C87.2945 40.1182 87.3008 40.1052 87.3104 40.0938C87.3204 40.0824 87.3325 40.0745 87.3468 40.0701C87.3611 40.0653 87.3757 40.0644 87.3905 40.0674C87.4049 40.0703 87.4178 40.0767 87.4292 40.0867C87.4406 40.0963 87.4487 40.1083 87.4536 40.1226C87.4584 40.137 87.4593 40.1513 87.4564 40.1657C87.4535 40.1806 87.447 40.1936 87.437 40.205C87.4271 40.216 87.4149 40.2241 87.4005 40.2293C87.3861 40.2345 87.3716 40.2356 87.3572 40.2327Z" fill="black"/>
<path d="M86.6437 39.8014L87.1326 39.2996L87.2144 39.3161L87.1836 39.4692L87.1304 39.4585L86.7805 39.8167L86.7791 39.8237L87.2921 39.927L87.2703 40.0357L86.6228 39.9054L86.6437 39.8014ZM87.0393 39.957L87.0495 39.9092L87.1706 39.3073L87.2927 39.3318L87.1225 40.178L86.9997 40.1533L87.0393 39.957Z" fill="black"/>
<path d="M86.2275 40.0092C86.1749 39.9986 86.129 39.979 86.0898 39.9505C86.051 39.9216 86.0225 39.8869 86.0043 39.8463C85.9865 39.8059 85.9811 39.7632 85.9881 39.7184L86.1126 39.7435C86.1104 39.7682 86.1149 39.7914 86.1259 39.813C86.1374 39.8348 86.1536 39.8537 86.1747 39.8697C86.1963 39.8854 86.2211 39.896 86.2491 39.9017C86.2827 39.9084 86.3142 39.9069 86.3437 39.897C86.3737 39.8872 86.3989 39.8706 86.4194 39.8472C86.44 39.8233 86.4536 39.7951 86.4602 39.7623C86.4672 39.7277 86.4655 39.6955 86.4553 39.6659C86.4455 39.636 86.4281 39.6104 86.4032 39.5892C86.3787 39.568 86.3491 39.5539 86.3144 39.547C86.2795 39.5391 86.2484 39.5387 86.221 39.5458C86.1937 39.5529 86.1702 39.568 86.1505 39.5912L86.0295 39.5669L86.1792 39.1069L86.6584 39.2033L86.6362 39.3138L86.2639 39.2389L86.1872 39.4691L86.1948 39.4706C86.2169 39.4576 86.243 39.4487 86.2732 39.4438C86.3037 39.439 86.3346 39.4398 86.3658 39.446C86.4183 39.4566 86.4632 39.4782 86.5005 39.5108C86.5381 39.5431 86.5645 39.5833 86.5796 39.6313C86.5951 39.679 86.5972 39.7299 86.586 39.784C86.5754 39.8386 86.5526 39.8851 86.5178 39.9235C86.4833 39.9616 86.4407 39.9882 86.3898 40.0035C86.3393 40.0189 86.2852 40.0208 86.2275 40.0092Z" fill="black"/>
<path d="M87.1545 41.4615L87.6433 40.9598L87.7251 40.9762L87.6943 41.1293L87.6412 41.1186L87.2912 41.4769L87.2898 41.4839L87.8029 41.5871L87.781 41.6958L87.1335 41.5655L87.1545 41.4615ZM87.55 41.6171L87.5602 41.5693L87.6813 40.9674L87.8034 40.992L87.6332 41.8381L87.5105 41.8135L87.55 41.6171Z" fill="black"/>
<path d="M86.9441 41.7073C86.9293 41.7044 86.9163 41.6977 86.905 41.6873C86.8937 41.6769 86.8856 41.6648 86.8807 41.6508C86.8763 41.6365 86.8756 41.622 86.8786 41.6072C86.8815 41.5928 86.8877 41.5799 86.8973 41.5684C86.9073 41.557 86.9194 41.5491 86.9337 41.5447C86.948 41.5399 86.9626 41.539 86.9774 41.542C86.9918 41.5449 87.0047 41.5513 87.0161 41.5613C87.0275 41.5709 87.0357 41.5829 87.0405 41.5972C87.0453 41.6116 87.0463 41.6259 87.0434 41.6404C87.0404 41.6552 87.0339 41.6682 87.0239 41.6796C87.014 41.6906 87.0018 41.6987 86.9874 41.7039C86.973 41.7091 86.9586 41.7102 86.9441 41.7073Z" fill="black"/>
<path d="M86.229 41.4577L86.5826 41.2206C86.6254 41.1911 86.6586 41.167 86.6823 41.1482C86.7059 41.1295 86.7246 41.1101 86.7383 41.0902C86.7525 41.0699 86.762 41.0479 86.7668 41.0242C86.7722 40.9973 86.7702 40.9721 86.7607 40.9487C86.7512 40.9254 86.7357 40.9056 86.7142 40.8895C86.6927 40.8735 86.6672 40.8624 86.6376 40.8565C86.6068 40.8503 86.5785 40.8511 86.5526 40.8588C86.5272 40.8663 86.5057 40.8802 86.4883 40.9006C86.4712 40.9207 86.4598 40.9456 86.4538 40.9752L86.3317 40.9506C86.3419 40.9 86.3628 40.8575 86.3944 40.8234C86.426 40.7892 86.4649 40.7656 86.5113 40.7527C86.5581 40.7398 86.6084 40.7387 86.6621 40.7496C86.7155 40.7603 86.7609 40.7804 86.7984 40.8098C86.8359 40.8388 86.8627 40.874 86.8787 40.9153C86.8952 40.9563 86.8988 40.9994 86.8898 41.0446C86.8832 41.077 86.8709 41.1069 86.8528 41.1345C86.8347 41.1621 86.8076 41.1911 86.7715 41.2215C86.7354 41.2519 86.6851 41.2882 86.6207 41.3304L86.4131 41.4704L86.4118 41.4769L86.8016 41.5553L86.7794 41.6657L86.2108 41.5513L86.229 41.4577Z" fill="black"/>
<path d="M85.5772 41.3268L85.9307 41.0897C85.9735 41.0602 86.0068 41.0361 86.0304 41.0173C86.054 40.9986 86.0727 40.9792 86.0865 40.9593C86.1007 40.9391 86.1102 40.9171 86.1149 40.8933C86.1204 40.8664 86.1183 40.8413 86.1088 40.8179C86.0994 40.7945 86.0839 40.7748 86.0624 40.7587C86.0409 40.7426 86.0153 40.7316 85.9857 40.7256C85.955 40.7194 85.9266 40.7202 85.9007 40.728C85.8753 40.7354 85.8539 40.7494 85.8364 40.7698C85.8194 40.7899 85.8079 40.8147 85.8019 40.8443L85.6798 40.8197C85.69 40.7691 85.7109 40.7267 85.7425 40.6925C85.7741 40.6583 85.8131 40.6348 85.8595 40.6218C85.9063 40.6089 85.9565 40.6079 86.0103 40.6187C86.0637 40.6294 86.1091 40.6495 86.1465 40.6789C86.184 40.708 86.2108 40.7432 86.2268 40.7845C86.2433 40.8255 86.247 40.8686 86.2379 40.9138C86.2314 40.9461 86.2191 40.9761 86.201 41.0036C86.1829 41.0312 86.1557 41.0602 86.1196 41.0906C86.0835 41.1211 86.0332 41.1574 85.9688 41.1995L85.7613 41.3396L85.76 41.346L86.1498 41.4244L86.1275 41.5349L85.559 41.4205L85.5772 41.3268Z" fill="black"/>
<path d="M87.3625 43.3395L87.2328 43.3134L87.3771 42.5964L87.3724 42.5955L87.1442 42.687L87.169 42.5637L87.4066 42.468L87.5328 42.4934L87.3625 43.3395Z" fill="black"/>
<path d="M86.9695 43.2679C86.9547 43.2649 86.9417 43.2582 86.9304 43.2479C86.9191 43.2375 86.911 43.2253 86.9061 43.2114C86.9017 43.1971 86.901 43.1826 86.904 43.1677C86.9069 43.1533 86.9131 43.1404 86.9227 43.129C86.9327 43.1176 86.9448 43.1097 86.9591 43.1053C86.9734 43.1005 86.988 43.0995 87.0028 43.1025C87.0172 43.1054 87.0301 43.1119 87.0415 43.1218C87.0529 43.1314 87.0611 43.1434 87.0659 43.1578C87.0707 43.1721 87.0716 43.1865 87.0687 43.2009C87.0658 43.2157 87.0593 43.2288 87.0493 43.2402C87.0394 43.2511 87.0272 43.2592 87.0128 43.2644C86.9984 43.2696 86.9839 43.2708 86.9695 43.2679Z" fill="black"/>
<path d="M86.5244 43.1826C86.4672 43.1711 86.4177 43.151 86.376 43.1224C86.3344 43.0937 86.304 43.0592 86.285 43.0189C86.266 42.9782 86.2602 42.9347 86.2675 42.8883L86.3972 42.9144C86.3944 42.9386 86.3989 42.9616 86.4107 42.9834C86.4225 43.0052 86.4403 43.0238 86.4639 43.0391C86.4876 43.0544 86.515 43.0652 86.5462 43.0715C86.5797 43.0782 86.6113 43.0785 86.6409 43.0723C86.6706 43.0657 86.6949 43.0538 86.7137 43.0365C86.7327 43.0188 86.7449 42.9965 86.7503 42.9697C86.756 42.9412 86.7537 42.9146 86.7433 42.8898C86.7328 42.865 86.7144 42.8437 86.688 42.8258C86.662 42.808 86.629 42.7951 86.5888 42.787L86.5164 42.7724L86.5374 42.6678L86.6099 42.6824C86.6418 42.6888 86.6714 42.6889 86.6986 42.6826C86.7258 42.6763 86.7483 42.6644 86.766 42.6469C86.7837 42.6294 86.795 42.6074 86.8 42.5808C86.8055 42.5552 86.8043 42.5312 86.7962 42.5089C86.7881 42.4866 86.774 42.4679 86.7539 42.453C86.7339 42.4376 86.7093 42.427 86.6801 42.4211C86.6513 42.4153 86.6235 42.415 86.597 42.4202C86.5704 42.4254 86.5474 42.4357 86.5281 42.4513C86.5091 42.4669 86.4965 42.4873 86.4902 42.5124L86.3664 42.4875C86.3774 42.4427 86.3993 42.4053 86.4321 42.3754C86.4653 42.3452 86.5055 42.3248 86.5527 42.314C86.6002 42.3033 86.6501 42.3032 86.7023 42.3137C86.7564 42.3246 86.8019 42.3445 86.8387 42.3733C86.8759 42.4019 86.9021 42.4359 86.9172 42.4755C86.9324 42.515 86.9353 42.5559 86.926 42.5982C86.9205 42.6296 86.9089 42.657 86.8911 42.6806C86.8739 42.7039 86.852 42.722 86.8255 42.7349C86.7995 42.7475 86.7705 42.7544 86.7386 42.7557L86.7373 42.7621C86.7745 42.7749 86.8048 42.7934 86.8283 42.8175C86.8523 42.8414 86.8687 42.8688 86.8774 42.8998C86.8862 42.9307 86.8866 42.964 86.8786 42.9997C86.8701 43.0459 86.8489 43.085 86.8149 43.117C86.781 43.1487 86.7385 43.1706 86.6874 43.1826C86.6364 43.1942 86.5821 43.1942 86.5244 43.1826Z" fill="black"/>
<path d="M85.5933 42.8854L85.9468 42.6483C85.9897 42.6188 86.0229 42.5947 86.0465 42.5759C86.0701 42.5572 86.0888 42.5378 86.1026 42.5179C86.1168 42.4977 86.1263 42.4757 86.1311 42.4519C86.1365 42.425 86.1344 42.3999 86.1249 42.3765C86.1155 42.3531 86.1 42.3334 86.0785 42.3173C86.057 42.3012 86.0314 42.2902 86.0018 42.2842C85.9711 42.278 85.9427 42.2788 85.9169 42.2866C85.8914 42.294 85.87 42.308 85.8525 42.3284C85.8355 42.3484 85.824 42.3733 85.8181 42.4029L85.6959 42.3783C85.7061 42.3277 85.727 42.2853 85.7586 42.2511C85.7902 42.2169 85.8292 42.1934 85.8756 42.1804C85.9224 42.1675 85.9726 42.1665 86.0264 42.1773C86.0798 42.188 86.1252 42.2081 86.1626 42.2375C86.2002 42.2666 86.2269 42.3017 86.2429 42.3431C86.2594 42.3841 86.2631 42.4272 86.254 42.4724C86.2475 42.5047 86.2352 42.5347 86.2171 42.5622C86.199 42.5898 86.1719 42.6188 86.1357 42.6492C86.0996 42.6797 86.0494 42.716 85.9849 42.7581L85.7774 42.8982L85.7761 42.9046L86.1659 42.983L86.1436 43.0934L85.5751 42.9791L85.5933 42.8854Z" fill="black"/>
<path d="M86.5529 44.4518L87.0418 43.95L87.1236 43.9665L87.0928 44.1196L87.0396 44.1089L86.6897 44.4671L86.6882 44.4741L87.2013 44.5774L87.1795 44.686L86.532 44.5558L86.5529 44.4518ZM86.9484 44.6073L86.9587 44.5595L87.0798 43.9577L87.2019 43.9822L87.0316 44.8284L86.9089 44.8037L86.9484 44.6073Z" fill="black"/>
<path d="M97.089 45.0313C96.8599 44.9852 96.662 44.9048 96.4954 44.7902C96.3287 44.6756 96.2073 44.5377 96.1311 44.3765C96.0552 44.2137 96.0319 44.0395 96.0611 43.8541L96.58 43.9585C96.5687 44.0551 96.5867 44.1471 96.634 44.2344C96.6812 44.3218 96.7522 44.396 96.8469 44.4572C96.9416 44.5185 97.0513 44.5616 97.176 44.5867C97.31 44.6136 97.4362 44.6147 97.5547 44.5899C97.6735 44.5636 97.7707 44.5158 97.8462 44.4467C97.922 44.376 97.9708 44.2869 97.9924 44.1794C98.0153 44.0656 98.0059 43.9592 97.9642 43.86C97.9226 43.7608 97.8489 43.6755 97.7434 43.604C97.6393 43.5328 97.507 43.481 97.3465 43.4487L97.0567 43.3904L97.1409 42.972L97.4307 43.0303C97.5585 43.056 97.6768 43.0563 97.7856 43.0312C97.8944 43.0061 97.9843 42.9585 98.0551 42.8884C98.126 42.8184 98.1713 42.7302 98.191 42.6239C98.2133 42.5214 98.2082 42.4255 98.1759 42.3363C98.1436 42.2471 98.0873 42.1726 98.0069 42.1126C97.9269 42.0511 97.8284 42.0086 97.7115 41.9851C97.5962 41.9619 97.4854 41.9607 97.3791 41.9815C97.2728 42.0022 97.1809 42.0437 97.1035 42.106C97.0277 42.1686 96.9773 42.25 96.9522 42.3504L96.4567 42.2507C96.5008 42.0715 96.5884 41.9221 96.7195 41.8025C96.8524 41.6817 97.0132 41.5998 97.2019 41.5567C97.3921 41.5139 97.5916 41.5135 97.8004 41.5555C98.017 41.5991 98.1988 41.6786 98.3458 41.7941C98.4947 41.9084 98.5994 42.0446 98.66 42.2027C98.7207 42.3608 98.7323 42.5245 98.695 42.6937C98.6731 42.819 98.6266 42.9288 98.5558 43.0232C98.4868 43.1163 98.3992 43.1887 98.2932 43.2403C98.189 43.2907 98.0732 43.3185 97.9457 43.3236L97.9405 43.3494C98.0891 43.4003 98.2105 43.4742 98.3045 43.5709C98.4004 43.6664 98.4659 43.7761 98.501 43.8999C98.5361 44.0237 98.5376 44.157 98.5057 44.2997C98.4718 44.4842 98.3868 44.6406 98.2508 44.7689C98.115 44.8956 97.945 44.983 97.7408 45.0311C97.5369 45.0776 97.3196 45.0777 97.089 45.0313Z" fill="black"/>
<path d="M95.1438 44.6262C95.0845 44.6143 95.0324 44.5876 94.9872 44.5461C94.9421 44.5046 94.9097 44.4559 94.8901 44.4001C94.8724 44.343 94.8695 44.2849 94.8814 44.2257C94.893 44.168 94.918 44.1163 94.9564 44.0705C94.9964 44.0251 95.0449 43.9935 95.102 43.9758C95.1593 43.9565 95.2176 43.9528 95.2768 43.9647C95.3345 43.9763 95.3861 44.0021 95.4315 44.0421C95.4773 44.0805 95.5098 44.1284 95.5291 44.1857C95.5484 44.2431 95.5522 44.3006 95.5406 44.3583C95.5287 44.4175 95.5027 44.4699 95.4628 44.5153C95.4231 44.5592 95.3745 44.5916 95.3168 44.6124C95.2591 44.6332 95.2014 44.6378 95.1438 44.6262Z" fill="black"/>
<path d="M93.8761 40.7662C94.1052 40.8123 94.3044 40.9058 94.4738 41.0469C94.6448 41.1884 94.766 41.3919 94.8374 41.6576C94.9091 41.9217 94.9054 42.2501 94.8264 42.6428C94.7481 43.0324 94.6271 43.3558 94.4634 43.6131C94.3016 43.8692 94.1063 44.0504 93.8774 44.1567C93.65 44.2634 93.4007 44.2894 93.1296 44.2349C92.927 44.1941 92.7527 44.1177 92.6066 44.0056C92.4608 43.892 92.3506 43.7547 92.276 43.5938C92.2014 43.4328 92.1692 43.2585 92.1793 43.0709L92.6889 43.1734C92.6928 43.2747 92.7155 43.3676 92.7569 43.4522C92.7985 43.5351 92.8582 43.6055 92.9357 43.6633C93.0148 43.7213 93.1097 43.7615 93.2203 43.7838C93.3933 43.8186 93.5518 43.8002 93.6959 43.7287C93.8404 43.6556 93.9638 43.5337 94.0662 43.363C94.1702 43.1926 94.2481 42.9788 94.2998 42.7217L94.2578 42.7132C94.1779 42.796 94.0866 42.8628 93.984 42.9135C93.8814 42.9642 93.7718 42.9973 93.6552 43.0127C93.5389 43.0266 93.4207 43.0215 93.3007 42.9974C93.1013 42.9572 92.927 42.8727 92.7778 42.7438C92.6305 42.6136 92.5255 42.4547 92.4627 42.2669C92.3999 42.0792 92.3889 41.88 92.4297 41.6693C92.4733 41.4527 92.5633 41.2673 92.6997 41.1132C92.8361 40.959 93.0064 40.8498 93.2107 40.7855C93.4165 40.7215 93.6383 40.7151 93.8761 40.7662ZM93.7919 41.1967C93.6579 41.1698 93.5299 41.1773 93.408 41.2192C93.286 41.2611 93.1829 41.3304 93.0987 41.4269C93.0147 41.5219 92.9599 41.6333 92.9341 41.7611C92.91 41.8892 92.9175 42.0131 92.9566 42.1328C92.9958 42.2526 93.0621 42.3543 93.1555 42.4379C93.2505 42.5219 93.3642 42.5772 93.4966 42.6039C93.6291 42.6305 93.7572 42.6222 93.881 42.579C94.0067 42.5346 94.1125 42.4643 94.1983 42.3681C94.2857 42.2721 94.3416 42.1634 94.3661 42.0419C94.3908 41.9188 94.3829 41.7972 94.3422 41.6771C94.3015 41.557 94.233 41.4541 94.1368 41.3683C94.0424 41.2812 93.9275 41.224 93.7919 41.1967Z" fill="black"/>
<path d="M90.3147 43.669C90.0862 43.6198 89.8865 43.5245 89.7155 43.383C89.5461 43.2419 89.4249 43.0384 89.352 42.7724C89.2806 42.5067 89.2844 42.1775 89.3634 41.7849C89.4414 41.3968 89.5621 41.075 89.7255 40.8192C89.8891 40.5619 90.0845 40.3807 90.3115 40.2756C90.5386 40.1705 90.7869 40.1451 91.0565 40.1993C91.2622 40.2407 91.4373 40.3173 91.5818 40.429C91.7282 40.5395 91.8379 40.6751 91.911 40.8357C91.9856 40.9967 92.018 41.1702 92.0081 41.3563L91.4986 41.2538C91.4928 41.1537 91.469 41.0622 91.4273 40.9792C91.3875 40.895 91.3287 40.8248 91.2508 40.7686C91.173 40.7124 91.0779 40.673 90.9657 40.6504C90.7928 40.6156 90.635 40.6341 90.4925 40.706C90.3502 40.7763 90.2281 40.896 90.1259 41.0652C90.0238 41.2343 89.9462 41.4465 89.8933 41.7018L89.9307 41.7093C90.0121 41.6268 90.1034 41.56 90.2044 41.509C90.3071 41.4583 90.4173 41.4262 90.5351 41.4126C90.6533 41.3974 90.7724 41.4019 90.8924 41.4261C91.0918 41.4662 91.2652 41.5514 91.4125 41.6815C91.5617 41.8104 91.6669 41.9686 91.7281 42.156C91.7908 42.3438 91.8007 42.5444 91.7578 42.7579C91.7139 42.976 91.6236 43.163 91.4869 43.3187C91.3501 43.4744 91.1798 43.5836 90.9759 43.6463C90.7719 43.7091 90.5515 43.7166 90.3147 43.669ZM90.3989 43.2384C90.5329 43.2654 90.6601 43.2577 90.7804 43.2155C90.9024 43.1735 91.0055 43.1043 91.0898 43.0077C91.1759 42.9099 91.2318 42.7972 91.2575 42.6694C91.2842 42.5369 91.2779 42.4108 91.2388 42.2911C91.1997 42.1713 91.1324 42.0702 91.0372 41.9878C90.9422 41.9039 90.8269 41.8483 90.6913 41.821C90.5589 41.7943 90.4307 41.8026 90.3069 41.8458C90.1834 41.8874 90.078 41.9562 89.9906 42.0521C89.9051 42.1468 89.8481 42.2569 89.8195 42.3825C89.7963 42.5059 89.8049 42.6284 89.8453 42.7501C89.8873 42.872 89.956 42.9774 90.0516 43.0664C90.1475 43.1538 90.2633 43.2111 90.3989 43.2384Z" fill="black"/>
<g filter="url(#filter0_d_2952_18426)">
<circle cx="86.5923" cy="56.0792" r="5.44269" transform="rotate(11.3755 86.5923 56.0792)" fill="#C6C6C6"/>
<circle cx="86.5921" cy="56.0784" r="5.05393" transform="rotate(11.3755 86.5921 56.0784)" fill="white"/>
<path d="M86.3262 54.4279C86.3675 54.2226 86.198 54.0358 85.9977 54.0969C85.2977 54.3105 84.7343 54.8917 84.5799 55.6595C84.3558 56.7731 85.077 57.8575 86.1906 58.0815C87.3042 58.3056 88.3886 57.5844 88.6127 56.4708C88.7671 55.7031 88.4723 54.9492 87.9094 54.4816C87.7483 54.3477 87.5198 54.4544 87.4784 54.6598C87.4539 54.7818 87.5061 54.9046 87.5972 54.9894C87.958 55.3257 88.141 55.8359 88.0365 56.3549C87.8765 57.1504 87.1019 57.6655 86.3065 57.5054C85.511 57.3454 84.9959 56.5708 85.156 55.7754C85.2604 55.2563 85.6265 54.8567 86.0893 54.686C86.206 54.643 86.3017 54.5499 86.3262 54.4279Z" fill="#B1ADA4"/>
<path fill-rule="evenodd" clip-rule="evenodd" d="M87.06 53.7611C87.2191 53.7931 87.3221 53.948 87.2901 54.1071L87.0004 55.5474C86.9684 55.7065 86.8134 55.8095 86.6543 55.7775C86.4953 55.7455 86.3922 55.5906 86.4242 55.4315L86.714 53.9912C86.746 53.8321 86.9009 53.7291 87.06 53.7611Z" fill="#B1ADA4"/>
</g>
<path d="M90.5654 34.3318C76.8265 31.4432 59.8452 30.7454 53.3113 30.728C53.7627 28.4841 54.4297 27.1297 54.663 26.3304C54.7499 26.0326 55.0133 25.7243 55.3096 25.4548C55.9692 24.8546 56.8609 24.6149 57.7492 24.5347L66.5467 23.7404L75.1553 23.3953C77.1562 23.3151 79.1572 23.3343 81.1527 23.5011C84.4168 23.7739 89.6312 24.2897 93.0599 25.0276C97.5738 25.9992 103.998 28.1531 107.562 29.4007C109.325 30.0179 111.042 30.7559 112.72 31.5776L124.881 37.5343C126.113 38.1377 126.854 39.4299 126.753 40.798L126.647 42.2138L126.394 44.0128C126.339 44.4061 125.934 44.6448 125.564 44.5006C119.193 42.0191 103.775 37.1091 90.5654 34.3318Z" stroke="#A29E96" stroke-width="0.305189" stroke-linecap="round"/>
<path d="M105.994 38.1816C102.083 37.0785 97.9919 36.0099 94.0087 35.0927C95.5725 34.4134 97.7252 34.2172 99.9915 34.6732C102.738 35.2257 104.959 36.5965 105.994 38.1816Z" fill="#7F7C77"/>
<path d="M74.447 31.9264C78.5017 32.341 82.71 32.8873 86.7563 33.6C85.5738 32.3876 83.6822 31.3919 81.4415 30.9411C78.6349 30.3764 76.0027 30.8119 74.447 31.9264Z" fill="#7F7C77"/>
<g filter="url(#filter1_f_2952_18426)">
<path fill-rule="evenodd" clip-rule="evenodd" d="M81.1653 23.349C84.4287 23.6218 89.6523 24.1382 93.0919 24.8785C97.6163 25.8523 104.048 28.0093 107.612 29.2567C109.382 29.8762 111.105 30.6166 112.787 31.4405L124.948 37.3972C126.236 38.0281 127.011 39.3791 126.905 40.8093L126.799 42.2351L126.545 44.0341C126.476 44.5244 125.97 44.8229 125.508 44.6428C119.145 42.1642 103.735 37.2567 90.5339 34.4812C76.8097 31.5956 59.8402 30.898 53.3107 30.8806L53.1249 30.8801L53.1616 30.6979C53.389 29.5672 53.6708 28.6606 53.9248 27.9369C54.0332 27.6281 54.1347 27.3571 54.2246 27.1171C54.3481 26.7875 54.4495 26.5167 54.5164 26.2876C54.6159 25.9466 54.9075 25.6142 55.2067 25.3419C55.902 24.7092 56.8329 24.4642 57.7353 24.3828L66.5404 23.5877L75.149 23.2428C77.1549 23.1624 79.1624 23.1816 81.1653 23.349ZM93.0276 25.1768C89.6099 24.4412 84.4046 23.926 81.1399 23.6531C79.1518 23.487 77.1572 23.4677 75.1613 23.5477L66.5565 23.8927L57.7627 24.6867C56.8888 24.7656 56.0361 24.9999 55.4121 25.5676C55.1189 25.8345 54.8837 26.1186 54.8093 26.3731C54.7401 26.6103 54.6317 26.9003 54.5038 27.2422C54.414 27.482 54.3148 27.7474 54.2128 28.038C53.9759 28.7129 53.7152 29.547 53.4983 30.5761C60.1683 30.6061 76.9721 31.3179 90.5966 34.1825C103.814 36.9616 119.24 41.874 125.619 44.3584C125.897 44.4667 126.201 44.2879 126.243 43.9916L126.495 42.1975L126.6 40.7867C126.697 39.4808 125.99 38.2473 124.814 37.6713L112.652 31.7146C110.979 30.8951 109.268 30.1597 107.511 29.5448C103.946 28.2969 97.531 26.1461 93.0276 25.1768Z" fill="#A29E96" fill-opacity="0.9"/>
</g>
<path fill-rule="evenodd" clip-rule="evenodd" d="M48.5885 64.4353L35.5762 66.6837C34.1767 66.9255 33.4106 68.4244 34.0596 69.6512L37.7796 76.6831L50.2176 74.5339L51.0234 66.6368C51.1606 65.2925 49.9519 64.1997 48.5885 64.4353ZM56.0008 79.7627L57.2833 67.1939C57.832 61.8165 52.9974 57.4454 47.5435 58.3877L34.5312 60.6362C28.9331 61.6035 25.869 67.5992 28.4649 72.5063L34.2884 83.5144L56.0008 79.7627Z" fill="url(#paint3_linear_2952_18426)"/>
<path d="M67.0413 88.8575C68.517 97.3976 62.5504 105.269 49.3383 107.552C36.1261 109.835 27.8642 104.422 26.3885 95.8819C24.5774 85.4007 31.0759 74.5502 43.2717 72.4428C55.4676 70.3355 65.2302 78.3762 67.0413 88.8575Z" fill="url(#paint4_linear_2952_18426)"/>
<path d="M51.8869 84.5323C51.8826 84.4602 51.9332 84.3963 52.0045 84.384L53.9913 84.0407C54.0686 84.0273 54.1421 84.0791 54.1554 84.1564L55.6907 93.0413C55.8378 93.8926 55.7727 94.6473 55.4954 95.3054C55.2249 95.9682 54.7795 96.5101 54.1592 96.9313C53.5399 97.3582 52.7844 97.6486 51.8929 97.8027C51.5017 97.8703 51.0787 97.8901 50.6236 97.8621C50.1743 97.8331 49.7324 97.7436 49.2977 97.5936C48.905 97.4553 48.557 97.2597 48.2537 97.0067C48.2043 96.9654 48.1913 96.8953 48.2205 96.8378L48.9331 95.4368C48.9743 95.3559 49.0797 95.334 49.1527 95.388C49.4597 95.6151 49.7916 95.78 50.1483 95.8827C50.5608 96.007 50.997 96.0293 51.4572 95.9498C51.9059 95.8723 52.2711 95.7233 52.5529 95.5028C52.8356 95.2881 53.0331 95.0081 53.1452 94.6629C53.2584 94.3235 53.2767 93.9323 53.2002 93.4894L52.0105 86.6043L51.8869 84.5323ZM46.4241 90.2708L46.3928 90.0896C46.2696 89.3764 46.244 88.7144 46.3162 88.1036C46.3931 87.4861 46.5564 86.9396 46.8059 86.464C47.0612 85.9875 47.402 85.5939 47.8281 85.2833C48.2543 84.9727 48.7607 84.7667 49.3474 84.6654C49.9686 84.558 50.5091 84.5831 50.9687 84.7406C51.4284 84.8982 51.8301 85.1664 52.174 85.5453C52.5169 85.9185 52.8128 86.3798 53.0618 86.9291C53.3155 87.4718 53.5441 88.075 53.7477 88.7388L53.8162 89.1357C53.8423 89.8006 53.8172 90.4269 53.7411 91.0146C53.6649 91.6024 53.5222 92.1306 53.3129 92.5992C53.1026 93.062 52.8074 93.4448 52.4273 93.7474C52.0529 94.049 51.5781 94.2495 51.0029 94.3489C50.4277 94.4483 49.8868 94.4204 49.3801 94.265C48.8792 94.1087 48.428 93.8461 48.0266 93.4771C47.6252 93.1081 47.2856 92.6514 47.0079 92.107C46.736 91.5616 46.5414 90.9495 46.4241 90.2708ZM48.8776 89.6603L48.909 89.8415C48.9755 90.2268 49.0751 90.5799 49.2075 90.9006C49.3399 91.2213 49.5061 91.4976 49.7062 91.7296C49.9109 91.9549 50.1437 92.119 50.4043 92.2221C50.6698 92.3184 50.9664 92.3382 51.2943 92.2816C51.7487 92.203 52.1033 92.044 52.3581 91.8045C52.6119 91.5593 52.7814 91.2545 52.8666 90.8903C52.9517 90.5261 52.9675 90.1205 52.914 89.6737L52.7187 88.5434C52.6446 88.183 52.5396 87.8665 52.4036 87.5938C52.2666 87.3153 52.1026 87.086 51.9115 86.9058C51.7204 86.7255 51.4913 86.5993 51.2241 86.527C50.9568 86.4547 50.6535 86.4478 50.3142 86.5065C49.9863 86.5631 49.7145 86.6871 49.4988 86.8784C49.2878 87.0629 49.1236 87.2957 49.0063 87.5766C48.8947 87.8565 48.8285 88.176 48.8076 88.535C48.7857 88.8883 48.8091 89.2634 48.8776 89.6603Z" fill="#CCDDFF"/>
<path d="M38.8122 82.628C38.8895 82.6147 38.963 82.6665 38.9763 82.7438L41.2194 95.7251C41.2327 95.8024 41.1809 95.8759 41.1036 95.8892L38.8986 96.2702C38.8213 96.2836 38.7479 96.2318 38.7345 96.1545L36.4915 83.1731C36.4781 83.0958 36.5299 83.0224 36.6072 83.009L38.8122 82.628ZM45.206 85.5662C45.3263 85.5454 45.415 85.676 45.3513 85.7802L42.2587 90.8381L40.5775 93.2519C40.522 93.3315 40.4048 93.3333 40.3469 93.2554L39.3025 91.8485C39.2696 91.8042 39.2654 91.7448 39.2916 91.6963L40.5955 89.2862L42.4961 86.0849C42.5173 86.0492 42.553 86.0246 42.594 86.0175L45.206 85.5662ZM44.6246 95.2808C44.5769 95.2891 44.5283 95.2724 44.4957 95.2367L41.1242 91.5474C41.0768 91.4955 41.0744 91.4168 41.1187 91.3622L42.3977 89.7844C42.4516 89.718 42.5516 89.7139 42.6107 89.7757L47.2284 94.6064C47.3069 94.6886 47.2619 94.8251 47.1499 94.8445L44.6246 95.2808Z" fill="#CCDDFF"/>
<defs>
<filter id="filter0_d_2952_18426" x="78.0965" y="48.4984" width="16.9915" height="16.9925" filterUnits="userSpaceOnUse" color-interpolation-filters="sRGB">
<feFlood flood-opacity="0" result="BackgroundImageFix"/>
<feColorMatrix in="SourceAlpha" type="matrix" values="0 0 0 0 0 0 0 0 0 0 0 0 0 0 0 0 0 0 127 0" result="hardAlpha"/>
<feOffset dy="0.915567"/>
<feGaussianBlur stdDeviation="1.52594"/>
<feComposite in2="hardAlpha" operator="out"/>
<feColorMatrix type="matrix" values="0 0 0 0 0 0 0 0 0 0 0 0 0 0 0 0 0 0 0.11 0"/>
<feBlend mode="multiply" in2="BackgroundImageFix" result="effect1_dropShadow_2952_18426"/>
<feBlend mode="normal" in="SourceGraphic" in2="effect1_dropShadow_2952_18426" result="shape"/>
</filter>
<filter id="filter1_f_2952_18426" x="52.125" y="22.1973" width="75.7896" height="23.498" filterUnits="userSpaceOnUse" color-interpolation-filters="sRGB">
<feFlood flood-opacity="0" result="BackgroundImageFix"/>
<feBlend mode="normal" in="SourceGraphic" in2="BackgroundImageFix" result="shape"/>
<feGaussianBlur stdDeviation="0.5" result="effect1_foregroundBlur_2952_18426"/>
</filter>
<linearGradient id="paint0_linear_2952_18426" x1="66.6781" y1="37.0371" x2="66.6781" y2="64.5041" gradientUnits="userSpaceOnUse">
<stop stop-color="#C6C6C6" stop-opacity="0.19"/>
<stop offset="1" stop-color="#C6C6C6"/>
</linearGradient>
<linearGradient id="paint1_linear_2952_18426" x1="112.754" y1="46.3086" x2="112.754" y2="73.7756" gradientUnits="userSpaceOnUse">
<stop stop-color="#C6C6C6" stop-opacity="0.19"/>
<stop offset="1" stop-color="#C6C6C6"/>
</linearGradient>
<linearGradient id="paint2_linear_2952_18426" x1="105.41" y1="78.8105" x2="105.41" y2="106.278" gradientUnits="userSpaceOnUse">
<stop stop-color="#C6C6C6" stop-opacity="0.2"/>
<stop offset="1" stop-color="#C6C6C6"/>
</linearGradient>
<linearGradient id="paint3_linear_2952_18426" x1="41.0367" y1="59.5121" x2="44.8683" y2="81.6863" gradientUnits="userSpaceOnUse">
<stop stop-color="#99B3F8"/>
<stop offset="1" stop-color="#4878D5"/>
</linearGradient>
<linearGradient id="paint4_linear_2952_18426" x1="33.2682" y1="75.1229" x2="60.4254" y2="105.636" gradientUnits="userSpaceOnUse">
<stop stop-color="#A2C1FF"/>
<stop offset="1" stop-color="#4D76DD"/>
</linearGradient>
</defs>
</svg>
