<svg width="80" height="80" viewBox="0 0 80 80" fill="none" xmlns="http://www.w3.org/2000/svg">
<circle cx="40" cy="40" r="40" fill="#FFF9EA"/>
<g clip-path="url(#clip0_1_36387)">
<rect x="23.5" y="23.5" width="27.5003" height="31.6251" rx="4.12503" fill="#F2F3F5"/>
<rect x="27.625" y="29.7461" width="19.2502" height="2.75001" rx="1.37501" fill="#DDDFE1"/>
<rect x="27.625" y="36.6191" width="19.2502" height="2.75001" rx="1.37501" fill="#DDDFE1"/>
<rect x="27.6257" y="43.4951" width="19.2502" height="2.75001" rx="1.37501" fill="#DDDFE1"/>
<ellipse cx="46.8756" cy="48.3106" rx="9.62511" ry="9.62505" fill="#FD6A6A"/>
<path d="M46.5728 52.9288C45.1825 52.444 42.0632 50.4043 42.0632 46.9469C42.0632 45.4194 43.2575 44.1846 44.7369 44.1846C45.6103 44.1846 46.3856 44.6145 46.8758 45.2913C47.357 44.6236 48.1413 44.1846 49.0147 44.1846C50.4941 44.1846 51.6883 45.4194 51.6883 46.9469C51.6883 50.4043 48.5691 52.444 47.1699 52.9288C47.0095 52.9837 46.7332 52.9837 46.5728 52.9288Z" fill="url(#paint0_linear_1_36387)"/>
</g>
<path fill-rule="evenodd" clip-rule="evenodd" d="M64 28C70.9036 28 76.5 22.4036 76.5 15.5C76.5 8.59644 70.9036 3 64 3C57.0964 3 51.5 8.59644 51.5 15.5C51.5 18.334 52.4431 20.9477 54.0326 23.0444C54.015 23.099 54.0017 23.1562 53.9931 23.216L53.515 26.5693C53.4064 27.3314 54.1635 27.9254 54.8778 27.6384L57.9117 26.4197C59.7133 27.4263 61.7896 28 64 28Z" fill="#3B4A65"/>
<path d="M63.2712 9.96548C63.3496 9.23654 64.0285 8.72617 64.7505 8.85348L65.8235 9.0427C66.5455 9.17001 67.009 9.88183 66.8333 10.5936L65.1905 17.2494C65.0308 17.8964 64.3971 18.3089 63.7409 18.1932L63.5781 18.1645C62.9218 18.0488 62.4674 17.4443 62.5387 16.7818L63.2712 9.96548Z" fill="white"/>
<rect width="2.53314" height="2.53328" rx="1.26657" transform="matrix(0.984806 0.173658 -0.173638 0.98481 62.2214 19.04)" fill="white"/>
<defs>
<linearGradient id="paint0_linear_1_36387" x1="43.4382" y1="44.1846" x2="49.282" y2="52.4346" gradientUnits="userSpaceOnUse">
<stop stop-color="white"/>
<stop offset="1" stop-color="white" stop-opacity="0.9"/>
</linearGradient>
<clipPath id="clip0_1_36387">
<rect width="48" height="48" fill="white" transform="translate(16 16)"/>
</clipPath>
</defs>
</svg>
