<svg width="185" height="522" viewBox="0 0 185 522" fill="none" xmlns="http://www.w3.org/2000/svg">
<path d="M124.843 114.199C124.199 112.986 123.471 111.78 122.654 110.581C116.384 101.384 105.643 92.5413 94.0707 92.6693C82.3953 92.8007 72.9254 100.849 67.1661 110.551C64.1797 115.58 62.0308 121.135 60.8028 126.866C59.2445 134.119 60.1722 141.705 60.7394 149.093C61.4201 157.926 62.4679 166.732 63.8794 175.477C64.5367 179.536 66.8157 196.283 66.8157 196.283L91.141 203.445L119.858 195.942C119.858 195.942 122.377 175.541 123.355 169.272C124.893 159.418 126.484 149.575 128.133 139.738C129.688 130.447 129.064 122.139 124.846 114.196L124.843 114.199Z" fill="#F4A293"/>
<path d="M71.5357 274.715C62.7495 274.715 55.7805 282.16 56.2745 291.013L61.5321 383.903C61.8321 391.117 67.7072 396.799 74.8703 396.799C82.2451 396.799 88.2084 390.76 88.2084 383.333L86.7794 289.891C86.6559 281.483 79.8633 274.733 71.5357 274.715Z" fill="#FAD5CA"/>
<path d="M61.7443 384.899L69.9483 487.8H88.597L88.0854 383.759C88.0854 376.296 81.9985 370.294 74.6061 370.436C66.9843 370.596 61.0915 377.222 61.7443 384.882V384.899Z" fill="#FAD5CA"/>
<path d="M70.0366 487.82L71.4834 506.238H88.6853V487.82H70.0366Z" fill="#3F3F3F"/>
<path d="M90.5417 503.853L90.7711 518.209H37.2244V517.782C37.2244 514.468 39.1122 511.458 42.0586 510.033L68.2938 499.471C69.2289 499.025 70.4463 499.043 71.1696 499.809C74.5571 503.425 78.2798 509.303 88.6363 502.926C89.3949 502.463 90.3653 502.98 90.5417 503.853Z" fill="#FFCB13"/>
<path d="M37.2188 521.984H90.7478V518.208H37.2188V521.984Z" fill="#D2D3DE"/>
<path d="M113.739 274.719C122.402 274.719 129.353 281.986 129.018 290.732L125.489 383.907C125.189 391.121 119.314 396.803 112.151 396.803C104.776 396.803 98.8129 390.764 98.8129 383.337L98.4777 290.197C98.4424 281.665 105.288 274.737 113.739 274.719Z" fill="#FAD5CA"/>
<path d="M125.277 384.903L117.073 487.804H98.4238L98.9355 383.763C98.9355 376.3 105.022 370.297 112.415 370.44C120.037 370.6 125.929 377.226 125.277 384.886V384.903Z" fill="#FAD5CA"/>
<path d="M117.169 487.824L115.705 506.242H98.5208V487.824H117.169Z" fill="#3F3F3F"/>
<path d="M96.723 503.856L96.4937 518.213H150.023V517.785C150.023 514.472 148.135 511.462 145.188 510.037L118.953 499.475C118.018 499.029 116.801 499.047 116.077 499.813C112.69 503.429 108.967 509.307 98.6108 502.93C97.8522 502.467 96.8818 502.984 96.7054 503.856H96.723Z" fill="#FFCB13"/>
<path d="M150.023 518.23H96.4937V522.007H150.023V518.23Z" fill="#D2D3DE"/>
<path d="M137.73 242.28C137.359 197.234 119.978 189.883 119.978 189.883H66.5801C66.5801 189.883 49.5497 197.234 49.1792 242.28C48.8087 287.327 47.7148 341.939 47.7148 341.939H139.194C139.194 341.939 138.118 287.327 137.73 242.28Z" fill="#DFE3E8"/>
<path d="M125.886 49.3344C127.426 34.0085 127.065 13.844 113.72 6.5548C113.122 6.21477 112.538 5.92601 111.973 5.68582C109.129 4.47681 106.864 4.42284 106.864 4.42284C106.864 4.42284 102.382 -0.610212 93.3091 0.0617609C86.7193 0.0617609 80.3169 1.6162 75.1179 4.87082C61.5417 12.0008 59.0644 32.8427 61.012 51.3584C62.6907 67.3292 65.7954 82.6605 60.2134 85.1783C60.2134 85.1783 70.9646 90.9158 84.7228 89.8363H102.17C115.931 90.9185 126.679 85.1783 126.679 85.1783C121.097 82.6605 124.047 67.6153 125.881 49.3317L125.886 49.3344Z" fill="#372E2C"/>
<path d="M113.781 33.8859C113.781 33.8859 111.141 23.2928 100.647 14.3867L113.781 33.8859Z" fill="#E5B045"/>
<path d="M87.3218 23.022C92.3639 21.1975 96.9428 18.1404 100.566 14.1797L87.3218 23.022Z" fill="#E5B045"/>
<path d="M168.53 269.603C168.667 270.077 168.794 270.561 168.894 271.049C168.932 269.952 168.738 268.827 168.619 267.741C168.533 266.931 168.471 266.112 168.581 265.302C168.672 264.62 168.686 263.694 169.404 263.362C170.07 263.056 171.091 263.312 171.699 263.635C172.422 264.028 172.953 264.664 173.368 265.388C173.453 265.536 173.534 265.682 173.608 265.837C173.485 265.393 173.348 264.956 173.188 264.524C172.847 263.609 172.388 262.713 171.636 262.104C170.884 261.495 169.778 261.246 168.939 261.719C168.235 262.118 167.857 262.926 167.694 263.723C167.306 265.679 167.982 267.676 168.531 269.6L168.53 269.603Z" fill="#F9BFBB"/>
<path d="M109.763 96.8522C111.472 94.7822 113.148 94.4045 114.995 94.7725C116.32 95.0368 117.733 95.6841 119.306 96.364C133.815 102.635 146.121 113.784 149.587 129.693C153.771 148.89 154.017 148.997 160.234 179.076L162.162 185.561C160.61 180.336 163.713 190.786 162.162 185.561C164.068 191.98 173.137 224.909 175.043 231.328C173.338 225.587 176.749 237.069 175.043 231.328C176.478 236.159 177.992 240.921 178.866 245.893C179.591 250.013 180.143 254.163 180.674 258.313C181.069 261.404 181.449 264.496 181.787 267.593C182.197 271.322 182.636 275.192 182.066 278.919C181.461 282.874 180.236 286.661 179.08 290.473C178.9 291.069 178.713 291.681 178.328 292.166C177.631 293.042 176.108 293.212 175.447 292.188C174.01 289.971 174.99 286.83 175.619 284.492C176.205 282.315 176.919 280.15 177.141 277.897C177.356 275.681 176.881 273.643 176.101 271.574C175.539 270.085 175.037 268.579 174.441 267.095C174.276 266.686 174.101 266.266 173.897 265.864C173.823 265.71 173.741 265.563 173.657 265.416C173.242 264.691 172.715 264.054 171.989 263.663C171.38 263.34 170.358 263.08 169.695 263.39C168.977 263.722 168.962 264.648 168.872 265.329C168.762 266.139 168.823 266.958 168.91 267.768C169.029 268.853 169.226 269.979 169.184 271.075C169.176 271.374 169.147 271.672 169.093 271.968C169.057 272.198 168.997 272.434 168.926 272.662C168.155 275.103 164.727 277.132 163.612 273.758C163.374 273.037 163.316 272.266 163.246 271.506C162.905 267.889 161.817 264.331 162.127 260.695C162.329 258.38 162.777 256.096 163.228 253.82C163.749 251.207 165.491 246.298 166.273 243.828C164.824 241.498 150.626 208.663 148.099 193.121L121.307 141.983C116.833 134.563 112.539 127.033 108.432 119.405C106.137 115.142 106.241 110.592 106.446 105.757C106.579 102.69 107.805 99.215 109.758 96.8467L109.763 96.8522Z" fill="#FAD5CA"/>
<path d="M16.7383 269.603C16.6009 270.077 16.4744 270.561 16.3745 271.049C16.3358 269.952 16.5298 268.827 16.6492 267.741C16.7357 266.931 16.7975 266.112 16.6872 265.302C16.5967 264.62 16.5824 263.694 15.8641 263.362C15.1985 263.056 14.1778 263.312 13.5691 263.635C12.8467 264.028 12.3155 264.664 11.8999 265.388C11.8156 265.536 11.7344 265.682 11.6599 265.837C11.7837 265.393 11.9204 264.956 12.0806 264.524C12.4212 263.609 12.88 262.713 13.6323 262.104C14.3845 261.495 15.4902 261.246 16.3293 261.719C17.0332 262.118 17.4111 262.926 17.5738 263.723C17.9628 265.679 17.2868 267.676 16.7371 269.6L16.7383 269.603Z" fill="#F9BFBB"/>
<path d="M75.5052 96.8522C73.7964 94.7822 72.1205 94.4045 70.2732 94.7725C68.9486 95.0368 67.5351 95.6841 65.962 96.364C51.4537 102.635 39.1475 113.784 35.6817 129.693C31.4975 148.89 31.2511 148.997 25.0343 179.076L23.1066 185.561C24.6583 180.336 21.555 190.786 23.1066 185.561C21.2008 191.98 12.1308 224.909 10.225 231.328C11.9304 225.587 8.5196 237.069 10.225 231.328C8.79047 236.159 7.27605 240.921 6.40213 245.893C5.67755 250.013 5.12546 254.163 4.5945 258.313C4.19965 261.404 3.81969 264.496 3.48118 267.593C3.07162 271.322 2.63254 275.192 3.20222 278.919C3.80704 282.874 5.03263 286.661 6.18825 290.473C6.36862 291.069 6.55487 291.681 6.94039 292.166C7.63696 293.042 9.16001 293.212 9.82102 292.188C11.2581 289.971 10.2783 286.83 9.64961 284.492C9.06299 282.315 8.34893 280.15 8.12746 277.897C7.91271 275.681 8.38687 273.643 9.16759 271.574C9.72937 270.085 10.2313 268.579 10.8271 267.095C10.9923 266.686 11.1677 266.266 11.3713 265.864C11.4457 265.71 11.5269 265.563 11.6111 265.416C12.0266 264.691 12.5532 264.054 13.2797 263.663C13.8881 263.34 14.9103 263.08 15.5737 263.39C16.2918 263.722 16.306 264.648 16.3965 265.329C16.5068 266.139 16.445 266.958 16.3586 267.768C16.2393 268.853 16.0423 269.979 16.0841 271.075C16.0924 271.374 16.1217 271.672 16.1754 271.968C16.2117 272.198 16.2714 272.434 16.3426 272.662C17.1137 275.103 20.5417 277.132 21.6564 273.758C21.8944 273.037 21.9527 272.266 22.022 271.506C22.3629 267.889 23.4516 264.331 23.1413 260.695C22.9397 258.38 22.4918 256.096 22.0399 253.82C21.5192 251.207 19.7769 246.298 18.9951 243.828C20.4438 241.498 34.6425 208.663 37.1696 193.121L63.9608 141.983C68.4354 134.563 72.729 127.033 76.836 119.405C79.1309 115.142 79.0274 110.592 78.8226 105.757C78.6895 102.69 77.4632 99.215 75.5103 96.8467L75.5052 96.8522Z" fill="#FAD5CA"/>
<path d="M94.2747 97.405C88.16 97.405 75.3064 98.1687 79.1578 87.86C83.0092 77.5512 83.1949 62.4336 83.1949 62.4336H104.75C104.75 62.4336 104.639 77.2343 109.071 88.4192C113.502 99.6041 100.373 97.405 94.258 97.405H94.2747Z" fill="#FAD5CA"/>
<path d="M83.1948 68.0846C83.1948 68.0846 86.9936 77.2017 93.4582 79.1194C95.1909 79.624 97.0237 79.4558 98.6898 78.7661C101.122 77.7568 105.381 74.8901 105.194 70.8139C104.892 64.19 106.729 66.7867 106.729 66.7867C106.729 66.7867 94.9244 76.5794 83.1948 68.0678V68.0846Z" fill="#F4A292"/>
<path d="M115.218 35.454C115.218 44.2852 114.001 51.922 112.785 57.3385C111.602 62.6371 108.253 66.3378 103.505 69.3152L102.638 69.8535C97.6234 73.0159 91.1588 73.0831 86.0771 70.0385C80.9455 66.977 77.3633 62.9231 76.247 57.2375C74.231 46.8925 74.0144 35.4372 74.0144 35.4372C74.0144 35.4372 72.0983 13.1322 94.3078 13.5527C116.517 13.9901 115.201 35.4372 115.201 35.4372L115.218 35.454Z" fill="#FAD5CA"/>
<path d="M75.5802 56.7522C71.4145 59.8473 64.216 45.7511 68.2818 42.4036C72.3309 39.0562 74.7471 45.4819 74.7471 45.4819L75.3636 49.4686L76.3634 55.07L76.53 56.2475L75.5969 56.7353L75.5802 56.7522Z" fill="#FAD5CA"/>
<path d="M113.728 56.7516C117.894 59.8467 125.092 45.7505 121.026 42.4031C116.977 39.0557 114.744 45.1786 114.744 45.1786L113.861 49.2998L112.862 55.1032L112.678 56.247L113.711 56.7348L113.728 56.7516Z" fill="#FAD5CA"/>
<path d="M93.1365 49.6523V53.8409C93.1365 54.1047 93.1857 54.3521 93.2843 54.5829C93.6455 55.4899 94.6964 55.9352 95.6324 55.6713L96.7654 55.1271" stroke="#B45C63" stroke-width="1.5" stroke-linecap="round" stroke-linejoin="round"/>
<path d="M85.7207 45.5182C85.7207 47.0421 85.107 48.2747 84.3483 48.2747C83.5895 48.2747 82.9758 47.0421 82.9758 45.5182C82.9758 43.9943 83.5895 42.7617 84.3483 42.7617C85.107 42.7617 85.7207 43.9943 85.7207 45.5182Z" fill="#1A1A1A"/>
<path d="M104.933 45.5182C104.933 47.0421 104.32 48.2747 103.561 48.2747C102.802 48.2747 102.188 47.0421 102.188 45.5182C102.188 43.9943 102.802 42.7617 103.561 42.7617C104.32 42.7617 104.933 43.9943 104.933 45.5182Z" fill="#1A1A1A"/>
<path d="M87.1079 59.6133C87.1079 59.6133 90.9339 61.4437 94.8091 61.4437C98.6843 61.4437 102.51 59.6133 102.51 59.6133" stroke="#B45C63" stroke-width="1.5" stroke-linecap="round" stroke-linejoin="round"/>
<path d="M81.8115 37.5938H87.3075M101.047 37.5938H106.543" stroke="black" stroke-width="1.69511" stroke-linecap="round"/>
<path d="M103.778 10.2294C103.939 10.5507 103.982 10.9344 103.84 11.421C102.085 17.4353 98.785 23.1407 94.0977 27.3363C94.073 27.3582 94.0514 27.38 94.0267 27.3987C93.8845 27.5266 93.7393 27.6483 93.5941 27.7731C93.2079 28.1037 92.8124 28.425 92.4076 28.7338C87.0993 32.7922 80.419 34.5984 73.8099 33.9215C72.3855 33.7749 70.5285 33.6906 69.4656 32.5895C69.1628 32.2744 68.999 31.8814 69.033 31.4384C69.5088 25.2713 70.9363 18.7017 75.0149 13.8822C77.6351 10.7877 81.1359 8.4544 85.0167 7.35012C85.1032 7.32516 85.1897 7.30021 85.2793 7.27837C88.6318 6.3675 92.1635 6.26144 95.5932 6.74495C97.1845 6.96955 98.7819 7.26278 100.287 7.84611C101.031 8.13622 101.751 8.49807 102.406 8.95663C102.975 9.35592 103.525 9.71777 103.781 10.2294H103.778Z" fill="#372E2C"/>
<path d="M117.158 27.9313C116.559 21.9701 113.868 16.2459 109.542 12.1126C109.495 12.069 109.449 12.0253 109.403 11.9816C108.074 10.7339 106.548 9.44553 104.87 8.73118C103.946 8.33813 102.797 8.10417 102.012 8.73118C99.5493 10.7058 100.195 15.0418 100.804 17.7214C101.666 21.524 103.242 25.4545 105.371 28.7174C106.495 30.4362 107.815 32.18 109.665 33.147C111.516 34.114 113.593 33.7054 115.508 33.2C115.966 33.0815 116.713 33.044 117.084 32.7446C117.115 32.7196 117.14 32.6947 117.161 32.6604C117.551 32.0957 117.291 30.8448 117.285 30.1898C117.276 29.4349 117.235 28.6831 117.158 27.9313Z" fill="#372E2C"/>
<path d="M155.774 145.65C149.818 148.281 143.568 150.434 137.224 152.132C133.661 153.092 130.067 153.897 126.473 154.567C126.433 153.446 123.794 177.957 122.903 189.128C106.659 197 82.7011 195.609 63.7814 189.128C61.8728 176.788 59.5103 150.616 59.2567 151.343C59.18 151.32 59.0999 151.296 59.0231 151.273C56.6307 150.518 53.3139 149.47 49.7602 148.339C48.8759 148.056 47.975 147.766 47.0707 147.476C38.9523 144.865 30.5235 142.073 29.5625 141.389C32.3621 127.055 38.1047 107.954 52.2961 96.6986C57.7652 92.3597 71.8899 88.8528 78.9839 87.832C81.303 90.6382 87.8665 92.6056 91.4836 92.6056C99.592 92.6056 103.132 92.9964 109.389 88.5125C114.711 90.1295 130.941 95.0681 138.105 101.472C149.931 112.047 152.971 131.828 155.774 145.65Z" fill="#4A73B0"/>
<path opacity="0.2" d="M59.0281 151.272C56.6354 150.518 53.3182 149.47 49.7642 148.338C50.7019 145.919 51.4461 143.43 51.9934 140.893C53.8322 132.37 53.5418 123.295 57.4229 115.496C55.2371 122.668 56.1248 130.379 57.0358 137.824C57.5831 142.322 58.1338 146.829 59.0281 151.269V151.272Z" fill="#602826"/>
<path opacity="0.2" d="M137.226 152.128C133.662 153.088 130.068 153.893 126.474 154.564L127.639 144.643C127.852 142.2 128.069 139.815 128.31 137.824C129.214 130.379 130.105 122.668 127.919 115.496C131.8 123.291 131.51 132.37 133.349 140.893C134.186 144.777 135.491 148.561 137.223 152.131L137.226 152.128Z" fill="#602826"/>
</svg>
