<svg width="136" height="168" viewBox="0 0 136 168" fill="none" xmlns="http://www.w3.org/2000/svg">
<rect width="136" height="168" rx="20" fill="#FFEFEA"/>
<path fill-rule="evenodd" clip-rule="evenodd" d="M98.0563 91.4047C101.241 87.6154 103.16 82.7259 103.16 77.3884C103.16 65.3504 93.4012 55.5918 81.363 55.5918C69.3248 55.5918 59.5659 65.3504 59.5659 77.3884C59.5659 89.4263 69.3248 99.1849 81.363 99.1849C81.5677 99.1849 81.7717 99.1821 81.975 99.1765H101.321C103.554 99.1765 104.514 96.3426 102.74 94.986L98.0563 91.4047Z" fill="url(#paint0_linear_2691_45598)"/>
<path fill-rule="evenodd" clip-rule="evenodd" d="M39.8067 68.8276C36.3146 64.6764 34.2109 59.3186 34.2109 53.4693C34.2109 40.2854 44.8986 29.5977 58.0825 29.5977C71.2664 29.5977 81.9541 40.2854 81.9541 53.4693C81.9541 66.5143 71.4906 77.1154 58.4986 77.3375L58.5085 77.3447H36.2242C33.7783 77.3447 32.7276 74.241 34.6705 72.7553L39.8067 68.8276Z" fill="url(#paint1_linear_2691_45598)"/>
<path fill-rule="evenodd" clip-rule="evenodd" d="M54.4146 47.9875C54.4146 46.2687 55.8079 44.8753 57.5266 44.8753C59.2453 44.8753 60.6386 46.2687 60.6386 47.9875C60.6386 49.0431 60.1152 49.9768 59.3033 50.5431C59.2737 50.5638 59.2047 50.6078 59.1074 50.6699L59.1072 50.6701L59.1072 50.6701C58.7132 50.9216 57.8546 51.4696 57.2581 51.9664C56.5108 52.5888 55.1926 53.869 55.1926 55.7679V56.935C55.1926 58.2241 56.2375 59.2691 57.5266 59.2691C58.8156 59.2691 59.8606 58.2241 59.8606 56.935V56.4757C59.8606 56.1241 59.9753 55.7785 60.2455 55.5535C60.4767 55.3609 60.7509 55.1695 61.0567 54.9697C61.1327 54.92 61.2282 54.8589 61.3311 54.7931L61.3311 54.7931C61.5499 54.6531 61.8024 54.4915 61.9738 54.372C63.9837 52.97 65.3066 50.6334 65.3066 47.9875C65.3066 43.6904 61.8233 40.207 57.5266 40.207C53.2298 40.207 49.7466 43.6904 49.7466 47.9875C49.7466 49.2766 50.7915 50.3216 52.0806 50.3216C53.3696 50.3216 54.4146 49.2766 54.4146 47.9875ZM57.5226 65.8811C58.8117 65.8811 59.8566 64.836 59.8566 63.5469C59.8566 62.2578 58.8117 61.2128 57.5226 61.2128C56.2336 61.2128 55.1886 62.2578 55.1886 63.5469C55.1886 64.836 56.2336 65.8811 57.5226 65.8811Z" fill="url(#paint2_linear_2691_45598)"/>
<path d="M76.4083 77.8583C76.4083 79.2557 75.2754 80.3885 73.8778 80.3885C72.4802 80.3885 71.3472 79.2557 71.3472 77.8583C71.3472 76.4609 72.4802 75.3281 73.8778 75.3281C75.2754 75.3281 76.4083 76.4609 76.4083 77.8583Z" fill="white"/>
<path d="M84.3771 77.8583C84.3771 79.2557 83.2441 80.3885 81.8465 80.3885C80.4489 80.3885 79.3159 79.2557 79.3159 77.8583C79.3159 76.4609 80.4489 75.3281 81.8465 75.3281C83.2441 75.3281 84.3771 76.4609 84.3771 77.8583Z" fill="white"/>
<path d="M92.3454 77.8583C92.3454 79.2557 91.2124 80.3885 89.8148 80.3885C88.4172 80.3885 87.2842 79.2557 87.2842 77.8583C87.2842 76.4609 88.4172 75.3281 89.8148 75.3281C91.2124 75.3281 92.3454 76.4609 92.3454 77.8583Z" fill="white"/>
<path d="M42.332 135.047H32.6133V133.82H42.332V135.047ZM34.0977 134.242H32.6133V131H34.0977V134.242ZM43.793 129.969H30.9961V128.75H43.793V129.969ZM38.0977 129.219H36.6367V126.508H38.0977V129.219ZM37.8789 122.266C37.8789 123.12 37.6341 123.904 37.1445 124.617C36.6549 125.331 35.9909 125.93 35.1523 126.414C34.319 126.893 33.3919 127.221 32.3711 127.398L31.7773 126.234C32.6628 126.099 33.4753 125.833 34.2148 125.438C34.9544 125.042 35.5378 124.568 35.9648 124.016C36.3971 123.458 36.6133 122.875 36.6133 122.266V121.711H37.8789V122.266ZM38.1133 122.266C38.1133 122.885 38.3268 123.477 38.7539 124.039C39.181 124.596 39.7643 125.068 40.5039 125.453C41.2435 125.839 42.0586 126.099 42.9492 126.234L42.3711 127.398C41.3451 127.211 40.4128 126.88 39.5742 126.406C38.7409 125.932 38.0794 125.339 37.5898 124.625C37.1003 123.911 36.8555 123.125 36.8555 122.266V121.711H38.1133V122.266ZM49.7023 122.75C49.7023 123.516 49.5357 124.229 49.2023 124.891C48.8742 125.552 48.4055 126.12 47.7961 126.594C47.1919 127.062 46.4784 127.411 45.6555 127.641L44.9211 126.484C45.6451 126.297 46.2727 126.018 46.8039 125.648C47.3404 125.273 47.7518 124.836 48.0383 124.336C48.3247 123.831 48.468 123.302 48.468 122.75V121.922H49.7023V122.75ZM49.9914 122.75C49.9914 123.271 50.1268 123.758 50.3977 124.211C50.6737 124.664 51.0721 125.06 51.593 125.398C52.119 125.737 52.7388 125.99 53.4523 126.156L52.7648 127.336C51.9315 127.117 51.2154 126.792 50.6164 126.359C50.0227 125.922 49.5643 125.396 49.2414 124.781C48.9237 124.167 48.7648 123.49 48.7648 122.75V121.922H49.9914V122.75ZM50.0461 134.906H48.5617V129.141H50.0461V134.906ZM56.257 135.328H54.7883V121.336H56.257V135.328ZM44.6164 128.766C46.3247 128.771 47.9445 128.745 49.4758 128.688C51.0122 128.63 52.4654 128.503 53.8352 128.305L53.9289 129.375C52.5331 129.635 51.093 129.805 49.6086 129.883C48.1294 129.961 46.5305 130 44.8117 130L44.6164 128.766ZM71.0492 129.547H58.2367V128.344H71.0492V129.547ZM65.5023 132.266H64.0023V129.117H65.5023V132.266ZM69.6273 135.047H59.8461V133.805H69.6273V135.047ZM61.3383 134.156H59.8461V130.914H61.3383V134.156ZM64.6352 121.648C65.6352 121.648 66.5076 121.766 67.2523 122C68.0023 122.234 68.5805 122.565 68.9867 122.992C69.3982 123.419 69.6039 123.922 69.6039 124.5C69.6039 125.073 69.3982 125.573 68.9867 126C68.5805 126.422 68.0023 126.747 67.2523 126.977C66.5076 127.206 65.6352 127.32 64.6352 127.32C63.6404 127.32 62.7654 127.206 62.0102 126.977C61.2602 126.747 60.6768 126.422 60.2602 126C59.8487 125.573 59.643 125.073 59.643 124.5C59.643 123.922 59.8487 123.419 60.2602 122.992C60.6768 122.565 61.2602 122.234 62.0102 122C62.7654 121.766 63.6404 121.648 64.6352 121.648ZM64.6352 122.844C63.9581 122.844 63.3617 122.911 62.8461 123.047C62.3305 123.177 61.932 123.367 61.6508 123.617C61.3747 123.862 61.2367 124.156 61.2367 124.5C61.2367 124.833 61.3747 125.122 61.6508 125.367C61.932 125.607 62.3305 125.794 62.8461 125.93C63.3617 126.06 63.9581 126.125 64.6352 126.125C65.3174 126.125 65.9138 126.06 66.4242 125.93C66.9346 125.794 67.3279 125.607 67.6039 125.367C67.8852 125.122 68.0258 124.833 68.0258 124.5C68.0258 124.156 67.8852 123.862 67.6039 123.617C67.3279 123.367 66.9346 123.177 66.4242 123.047C65.9138 122.911 65.3174 122.844 64.6352 122.844ZM87.1805 128.57H85.7195V121.32H87.1805V128.57ZM87.1961 132.68H79.4852V134.516H78.032V131.586H85.7273V130.352H78.0008V129.203H87.1961V132.68ZM87.6648 135.188H78.032V134.016H87.6648V135.188ZM80.4773 123.273C80.4773 124.091 80.3133 124.859 79.9852 125.578C79.6622 126.292 79.1935 126.914 78.5789 127.445C77.9695 127.977 77.2534 128.372 76.4305 128.633L75.743 127.461C76.4617 127.237 77.0867 126.911 77.618 126.484C78.1492 126.052 78.5555 125.56 78.8367 125.008C79.1232 124.456 79.2664 123.878 79.2664 123.273V122.578H80.4773V123.273ZM80.7664 123.273C80.7664 123.846 80.907 124.393 81.1883 124.914C81.4747 125.435 81.8836 125.893 82.4148 126.289C82.9461 126.68 83.5711 126.979 84.2898 127.188L83.5633 128.336C82.756 128.086 82.0503 127.714 81.4461 127.219C80.8471 126.724 80.3862 126.138 80.0633 125.461C79.7404 124.779 79.5789 124.049 79.5789 123.273V122.578H80.7664V123.273ZM83.8602 123.281H76.1258V122.07H83.8602V123.281ZM102.012 129.609H89.1992V128.406H102.012V129.609ZM96.4648 132.328H94.9961V129.156H96.4648V132.328ZM100.355 126.953H90.8477V121.992H100.355V126.953ZM92.3008 125.781H98.8945V123.148H92.3008V125.781ZM100.59 135.047H90.793V133.82H100.59V135.047ZM92.2773 134.234H90.793V130.992H92.2773V134.234Z" fill="#B45B2B"/>
<defs>
<linearGradient id="paint0_linear_2691_45598" x1="67.44" y1="55.5754" x2="103.661" y2="99.6703" gradientUnits="userSpaceOnUse">
<stop stop-color="#FFEF5F"/>
<stop offset="1" stop-color="#FFD43C"/>
</linearGradient>
<linearGradient id="paint1_linear_2691_45598" x1="42.7697" y1="32.4768" x2="74.7936" y2="73.9464" gradientUnits="userSpaceOnUse">
<stop stop-color="#66B5FF"/>
<stop offset="1" stop-color="#3799F3"/>
</linearGradient>
<linearGradient id="paint2_linear_2691_45598" x1="49.7466" y1="40.207" x2="62.9726" y2="65.881" gradientUnits="userSpaceOnUse">
<stop stop-color="white"/>
<stop offset="1" stop-color="white" stop-opacity="0.9"/>
</linearGradient>
</defs>
</svg>
