<svg width="139" height="159" viewBox="0 0 139 159" fill="none" xmlns="http://www.w3.org/2000/svg">
<g id="&#235;&#139;&#172;&#235;&#160;&#165;">
<g id="&#236;&#151;&#172;&#236;&#132;&#177;&#234;&#177;&#180;&#234;&#176;&#149;">
<g id="&#235;&#139;&#172;&#235;&#160;&#165;bg">
<g id="Rectangle 34624830" filter="url(#filter0_d_8_114125)">
<path d="M31.3555 13.5315L153.689 45.2979L135.493 139.127C133.73 148.217 124.628 153.954 115.663 151.626L24.3731 127.921C16.2269 125.805 11.145 117.749 12.7467 109.49L31.3555 13.5315Z" fill="#C8CDD5"/>
</g>
<path id="Rectangle 34624831" d="M32.3555 13.5315L154.689 45.2979C145.737 81.3806 140.193 103.727 132.151 136.142C129.999 144.815 121.147 150.089 112.497 147.843L21.1404 124.12C12.6847 121.924 7.58868 113.361 9.69204 104.883L32.3555 13.5315Z" fill="#D5DAE1"/>
<path id="Rectangle 34624828" d="M27.707 22.6877L150.066 54.4648L129.384 132.458C127.119 141 118.349 146.123 109.796 143.902L18.4098 120.168C9.857 117.947 4.75968 109.222 7.02462 100.681L27.707 22.6877Z" fill="url(#paint0_linear_8_114125)"/>
<path id="Rectangle 34624827" d="M28.3175 19.5808C30.5692 11.0363 39.3266 5.91508 47.8778 8.14223L139.474 31.9984C148.025 34.2256 153.132 42.9577 150.881 51.5022L146.53 68.0105L23.9672 36.0891L28.3175 19.5808Z" fill="url(#paint1_linear_8_114125)"/>
</g>
<rect id="Rectangle 34624829" width="20.0001" height="20.0003" rx="10.0001" transform="matrix(0.967638 0.252314 -0.255728 0.966732 52.8008 14.5315)" fill="white"/>
<rect id="Rectangle 34624833" width="20.0001" height="20.0003" rx="10.0001" transform="matrix(0.965919 0.258817 -0.262225 0.96499 112.246 30.5315)" fill="white"/>
<path id="Rectangle 34624829_2" d="M58.3214 10.8766C59.1513 7.83376 62.2824 6.02109 65.3344 6.81667C68.4198 7.62095 70.2501 10.7826 69.4111 13.8588L65.5206 28.1238C64.6907 31.1667 61.5596 32.9794 58.5076 32.1838C55.4222 31.3795 53.5919 28.2178 54.4309 25.1416L58.3214 10.8766Z" fill="url(#paint2_linear_8_114125)"/>
<rect id="Rectangle 34624833_2" width="11.4838" height="26.5271" rx="5.74189" transform="matrix(0.967657 0.252244 -0.255675 0.966746 119.297 21.0471)" fill="url(#paint3_linear_8_114125)"/>
</g>
<path id="Vector 2837" d="M41.7852 80.375L74.0029 88.0273" stroke="#E5D490" stroke-width="5"/>
<path id="Vector 2838" d="M82.7852 90.375L115.003 98.0273" stroke="#D4DAE8" stroke-width="5"/>
<g id="Group 1321317007">
<g id="&#236;&#153;&#132;&#235;&#163;&#140;">
<circle id="Ellipse 3109" cx="75.8808" cy="88.4271" r="14.9929" transform="rotate(13.1608 75.8808 88.4271)" fill="url(#paint4_linear_8_114125)"/>
<path id="Vector 764" d="M70.1356 87.673L72.9599 92.4788L82.2848 86.3683" stroke="url(#paint5_linear_8_114125)" stroke-width="4" stroke-linecap="round" stroke-linejoin="round"/>
</g>
<g id="&#236;&#153;&#132;&#235;&#163;&#140;_2">
<circle id="Ellipse 3109_2" cx="38.8574" cy="78.4818" r="14.9929" transform="rotate(13.1608 38.8574 78.4818)" fill="url(#paint6_linear_8_114125)"/>
<path id="Vector 764_2" d="M33.1122 77.7277L35.9365 82.5335L45.2613 76.423" stroke="url(#paint7_linear_8_114125)" stroke-width="4" stroke-linecap="round" stroke-linejoin="round"/>
</g>
<g id="&#236;&#153;&#132;&#235;&#163;&#140;_3">
<circle id="Ellipse 3109_3" cx="112.908" cy="98.5521" r="14.9929" transform="rotate(13.1608 112.908 98.5521)" fill="url(#paint8_linear_8_114125)"/>
<path id="Vector 764_3" d="M107.246 102.676L118.616 95.5369" stroke="url(#paint9_linear_8_114125)" stroke-width="4" stroke-linecap="round" stroke-linejoin="round"/>
<path id="Vector 765" d="M109.388 93.4003L116.478 104.8" stroke="url(#paint10_linear_8_114125)" stroke-width="4" stroke-linecap="round" stroke-linejoin="round"/>
</g>
</g>
</g>
<defs>
<filter id="filter0_d_8_114125" x="8.45215" y="11.5315" width="149.236" height="146.614" filterUnits="userSpaceOnUse" color-interpolation-filters="sRGB">
<feFlood flood-opacity="0" result="BackgroundImageFix"/>
<feColorMatrix in="SourceAlpha" type="matrix" values="0 0 0 0 0 0 0 0 0 0 0 0 0 0 0 0 0 0 127 0" result="hardAlpha"/>
<feOffset dy="2"/>
<feGaussianBlur stdDeviation="2"/>
<feComposite in2="hardAlpha" operator="out"/>
<feColorMatrix type="matrix" values="0 0 0 0 0.255821 0 0 0 0 0.213682 0 0 0 0 0.213682 0 0 0 0.2 0"/>
<feBlend mode="normal" in2="BackgroundImageFix" result="effect1_dropShadow_8_114125"/>
<feBlend mode="normal" in="SourceGraphic" in2="effect1_dropShadow_8_114125" result="shape"/>
</filter>
<linearGradient id="paint0_linear_8_114125" x1="22.5" y1="13.5276" x2="126.271" y2="163.996" gradientUnits="userSpaceOnUse">
<stop stop-color="white"/>
<stop offset="1" stop-color="#E7EAEE"/>
</linearGradient>
<linearGradient id="paint1_linear_8_114125" x1="93.676" y1="20.0703" x2="85.3408" y2="52.0738" gradientUnits="userSpaceOnUse">
<stop stop-color="#FF767E"/>
<stop offset="1" stop-color="#F44E58"/>
</linearGradient>
<linearGradient id="paint2_linear_8_114125" x1="65.3771" y1="6.82689" x2="59.5484" y2="29.1869" gradientUnits="userSpaceOnUse">
<stop stop-color="#777A87"/>
<stop offset="0.0001" stop-color="#999BA2"/>
<stop offset="1" stop-color="#494C58"/>
</linearGradient>
<linearGradient id="paint3_linear_8_114125" x1="5.74189" y1="0" x2="5.74189" y2="26.5271" gradientUnits="userSpaceOnUse">
<stop stop-color="#777A87"/>
<stop offset="0.0001" stop-color="#999BA2"/>
<stop offset="1" stop-color="#494C58"/>
</linearGradient>
<linearGradient id="paint4_linear_8_114125" x1="69.1058" y1="75.2282" x2="83.0983" y2="100.087" gradientUnits="userSpaceOnUse">
<stop stop-color="#FFEC88"/>
<stop offset="1" stop-color="#FFD633"/>
</linearGradient>
<linearGradient id="paint5_linear_8_114125" x1="70.7263" y1="83.4584" x2="77.1708" y2="93.0396" gradientUnits="userSpaceOnUse">
<stop stop-color="white" stop-opacity="0.9"/>
<stop offset="1" stop-color="white"/>
</linearGradient>
<linearGradient id="paint6_linear_8_114125" x1="32.0824" y1="65.2829" x2="46.0749" y2="90.1416" gradientUnits="userSpaceOnUse">
<stop stop-color="#FFEC88"/>
<stop offset="1" stop-color="#FFD633"/>
</linearGradient>
<linearGradient id="paint7_linear_8_114125" x1="33.7029" y1="73.5131" x2="40.1474" y2="83.0943" gradientUnits="userSpaceOnUse">
<stop stop-color="white" stop-opacity="0.9"/>
<stop offset="1" stop-color="white"/>
</linearGradient>
<linearGradient id="paint8_linear_8_114125" x1="106.133" y1="85.3532" x2="120.126" y2="110.212" gradientUnits="userSpaceOnUse">
<stop stop-color="#DCE1ED"/>
<stop offset="1" stop-color="#A1ABC5"/>
</linearGradient>
<linearGradient id="paint9_linear_8_114125" x1="105.607" y1="93.5297" x2="111.411" y2="103.512" gradientUnits="userSpaceOnUse">
<stop stop-color="white" stop-opacity="0.9"/>
<stop offset="1" stop-color="white"/>
</linearGradient>
<linearGradient id="paint10_linear_8_114125" x1="118.541" y1="91.8" x2="108.534" y2="97.561" gradientUnits="userSpaceOnUse">
<stop stop-color="white" stop-opacity="0.9"/>
<stop offset="1" stop-color="white"/>
</linearGradient>
</defs>
</svg>
