<svg width="48" height="48" viewBox="0 0 48 48" fill="none" xmlns="http://www.w3.org/2000/svg">
<path d="M24 -5.01377e-06C10.7452 -5.676e-06 5.699e-06 10.7452 3.67136e-06 24C1.64372e-06 37.2548 10.7452 48 24 48C37.2548 48 48 37.2548 48 24C48 10.7452 37.2548 -4.35154e-06 24 -5.01377e-06Z" fill="#DDE1E4"/>
<rect x="15" y="14" width="17.501" height="20.1232" rx="2.62496" fill="white"/>
<rect x="17.625" y="18.3711" width="12.2507" height="1.74984" rx="0.87492" fill="#ECECEC"/>
<rect x="17.625" y="22.7461" width="12.2507" height="1.74984" rx="0.87492" fill="#ECECEC"/>
<rect x="17.625" y="27.125" width="12.2507" height="1.74984" rx="0.87492" fill="#ECECEC"/>
<ellipse cx="29.8749" cy="30.1908" rx="6.12535" ry="6.12444" fill="#B2B2B2"/>
<path d="M29.6816 33.1304C28.7968 32.8219 26.8118 31.524 26.8118 29.3241C26.8118 28.3521 27.5718 27.5664 28.5133 27.5664C29.0691 27.5664 29.5625 27.8399 29.8744 28.2706C30.1807 27.8458 30.6798 27.5664 31.2356 27.5664C32.1771 27.5664 32.9371 28.3521 32.9371 29.3241C32.9371 31.524 30.9521 32.8219 30.0616 33.1304C29.9595 33.1653 29.7837 33.1653 29.6816 33.1304Z" fill="url(#paint0_linear_2824_9700)"/>
<defs>
<linearGradient id="paint0_linear_2824_9700" x1="27.6868" y1="27.5664" x2="31.405" y2="32.8164" gradientUnits="userSpaceOnUse">
<stop stop-color="white"/>
<stop offset="1" stop-color="white" stop-opacity="0.9"/>
</linearGradient>
</defs>
</svg>
