<svg width="164" height="259" viewBox="0 0 164 259" fill="none" xmlns="http://www.w3.org/2000/svg">
<path fill-rule="evenodd" clip-rule="evenodd" d="M58.3385 128.416L37.6431 131.992C35.4172 132.377 34.1988 134.761 35.231 136.712L41.1475 147.896L60.9296 144.477L62.2112 131.917C62.4294 129.779 60.5071 128.041 58.3385 128.416ZM70.1275 152.794L72.1673 132.803C73.04 124.251 65.3508 117.299 56.6766 118.798L35.9811 122.374C27.0775 123.912 22.2042 133.448 26.3329 141.253L35.5949 158.761L70.1275 152.794Z" fill="url(#paint0_linear_2334_92412)"/>
<path d="M87.6864 167.261C90.0334 180.844 80.5439 193.363 59.5306 196.994C38.5172 200.625 25.3769 192.016 23.03 178.433C20.1495 161.763 30.485 144.506 49.8819 141.154C69.2789 137.803 84.806 150.591 87.6864 167.261Z" fill="url(#paint1_linear_2334_92412)"/>
<rect x="97.5664" y="109.56" width="60.2541" height="20.0847" rx="2" transform="rotate(15 97.5664 109.56)" fill="url(#paint2_linear_2334_92412)"/>
<rect x="102.068" y="131.571" width="40.1694" height="6.02541" transform="rotate(15 102.068 131.571)" fill="#F09B3E"/>
<path d="M83.4354 139.02C84.293 135.819 87.583 133.92 90.7838 134.778L149.034 150.386C152.235 151.243 154.134 154.533 153.277 157.734L136.395 220.738C135.537 223.939 132.247 225.839 129.046 224.981L65.0005 207.82L83.4354 139.02Z" fill="#FFDD6B"/>
<rect x="79.7891" y="152.625" width="72.3049" height="46.1948" transform="rotate(15 79.7891 152.625)" fill="url(#paint3_linear_2334_92412)"/>
<path fill-rule="evenodd" clip-rule="evenodd" d="M107.775 168.448C107.242 168.305 106.693 168.622 106.551 169.155L104.729 175.954L97.9352 174.134C97.4017 173.991 96.8534 174.307 96.7104 174.841L94.1091 184.549C93.9662 185.083 94.2827 185.631 94.8162 185.774L101.61 187.594L99.7906 194.384C99.6476 194.918 99.9642 195.466 100.498 195.609L110.206 198.21C110.739 198.353 111.288 198.036 111.431 197.503L113.25 190.713L120.045 192.534C120.578 192.677 121.127 192.36 121.27 191.827L123.871 182.119C124.014 181.585 123.697 181.037 123.164 180.894L116.369 179.073L118.191 172.274C118.334 171.741 118.017 171.193 117.484 171.05L107.775 168.448Z" fill="url(#paint4_linear_2334_92412)"/>
<rect x="4" y="159" width="160" height="23.75" rx="4" fill="url(#paint5_linear_2334_92412)"/>
<path d="M12.751 182.751H155.251L144.125 250.619C143.333 255.453 139.155 259.001 134.257 259.001H33.7451C28.8467 259.001 24.6693 255.453 23.8768 250.619L12.751 182.751Z" fill="url(#paint6_linear_2334_92412)"/>
<rect x="45" y="198" width="11" height="45" rx="5.5" fill="url(#paint7_linear_2334_92412)"/>
<rect x="79" y="198" width="11" height="45" rx="5.5" fill="url(#paint8_linear_2334_92412)"/>
<rect x="111" y="198" width="12" height="45" rx="6" fill="url(#paint9_linear_2334_92412)"/>
<path d="M131.67 57.7421C129.46 73.2527 120.728 84.8963 107.733 92.8645C103.604 95.5653 88.1537 104.257 83.3326 104.954C79.0849 105.568 85.1439 96.4732 80.6779 95.8371C55.5625 92.26 38.7887 70.0232 42.3498 45.0204C45.911 20.0175 68.226 3.34813 93.3415 6.92529C118.457 10.5024 135.231 32.7392 131.67 57.7421Z" fill="url(#paint10_linear_2334_92412)"/>
<path d="M55.082 63.7363V61.4121L61.0586 52.0957H64.75V61.373H66.5469V63.7363H64.75V66.2363H61.957V63.7363H55.082ZM58.0508 61.373H61.9961V55.3184H61.8594L58.0508 61.2559V61.373ZM71.132 64.791L69.4523 70.3574H67.382L68.3586 64.791H71.132ZM78.5883 66.4316C75.6391 66.4316 73.4809 64.6934 73.432 62.252H76.2836C76.352 63.3555 77.3578 64.1172 78.5883 64.1074C80.0531 64.1172 81.098 63.082 81.0883 61.6074C81.098 60.1035 80.0336 59.0586 78.5492 59.0488C77.4848 59.0488 76.7426 59.4492 76.3227 60.2402H73.6664L74.4281 52.0957H83.1391V54.498H76.85L76.4594 58.0723H76.5766C77.0941 57.3789 78.1684 56.8711 79.4086 56.8809C82.0063 56.8711 83.9398 58.8145 83.9398 61.5293C83.9398 64.3906 81.7719 66.4316 78.5883 66.4316ZM91.2203 66.4316C87.6754 66.4316 85.5367 63.7949 85.5367 59.166C85.5367 54.5469 87.6949 51.9004 91.2203 51.9004C94.7457 51.9004 96.9039 54.5469 96.9039 59.166C96.9039 63.8145 94.7555 66.4316 91.2203 66.4316ZM88.5445 59.166C88.525 62.4277 89.5797 64.0098 91.2203 64.0098C92.8609 64.0098 93.9059 62.4277 93.8961 59.166C93.9059 55.9336 92.8512 54.3125 91.2203 54.3027C89.5895 54.3125 88.5445 55.9336 88.5445 59.166ZM104.223 66.4316C100.679 66.4316 98.5398 63.7949 98.5398 59.166C98.5398 54.5469 100.698 51.9004 104.223 51.9004C107.749 51.9004 109.907 54.5469 109.907 59.166C109.907 63.8145 107.759 66.4316 104.223 66.4316ZM101.548 59.166C101.528 62.4277 102.583 64.0098 104.223 64.0098C105.864 64.0098 106.909 62.4277 106.899 59.166C106.909 55.9336 105.854 54.3125 104.223 54.3027C102.593 54.3125 101.548 55.9336 101.548 59.166ZM111.816 66.2363V52.0957H117.363C120.576 52.0957 122.422 54.0781 122.422 56.8613C122.422 59.6836 120.547 61.627 117.285 61.627H114.746V66.2363H111.816ZM114.746 59.2637H116.816C118.555 59.2637 119.404 58.2871 119.395 56.8613C119.404 55.4551 118.555 54.5078 116.816 54.498H114.746V59.2637Z" fill="#724606"/>
<path d="M75.9352 33.6504V44.3145H74.4937V38.9824H73.4977V43.7988H72.0914V33.8262H73.4977V37.7754H74.4937V33.6504H75.9352ZM67.1695 41.7129V34.834H68.6695V40.4062C69.525 40.3828 70.4684 40.3066 71.4937 40.1074L71.6461 41.3965C70.2164 41.6426 68.9977 41.7188 67.8961 41.7129H67.1695ZM89.2344 41.877V43.1309H79.4727V41.877H83.5742V39.9551H80.2812V38.7832H81.7109V35.7363H80.2344V34.541H88.4141V35.7363H86.9141V38.7832H88.3672V39.9551H85.0625V41.877H89.2344ZM83.2109 38.7832H85.4375V35.7363H83.2109V38.7832ZM98.5734 33.6621V41.3262H97.0734V33.6621H98.5734ZM89.8078 37.0254C89.8078 35.4609 91.0852 34.3359 92.7258 34.3418C94.3605 34.3359 95.6379 35.4609 95.6437 37.0254C95.6379 38.6133 94.3605 39.7324 92.7258 39.7324C91.0852 39.7324 89.8078 38.6133 89.8078 37.0254ZM91.2727 37.0254C91.2609 37.916 91.8879 38.4316 92.7258 38.4316C93.5344 38.4316 94.1613 37.916 94.1672 37.0254C94.1613 36.1582 93.5344 35.6367 92.7258 35.6426C91.8879 35.6367 91.2609 36.1582 91.2727 37.0254ZM91.425 44.127V40.5527H92.9367V42.9316H98.8547V44.127H91.425ZM108.51 39.1582V40.3418H100.963V34.4355H108.428V35.6426H102.487V36.7676H108.182V37.9395H102.487V39.1582H108.51ZM99.8148 43.0723V41.8535H109.577V43.0723H99.8148Z" fill="#986809"/>
<rect y="83.2764" width="20.1892" height="40.3785" rx="10.0946" transform="rotate(-45 0 83.2764)" fill="url(#paint11_linear_2334_92412)"/>
<path d="M7.13797 90.4143C3.19578 86.4721 3.19578 80.0806 7.13797 76.1384C11.0802 72.1962 17.4717 72.1962 21.4139 76.1384L28.5519 83.2764L14.2759 97.5523L7.13797 90.4143Z" fill="url(#paint12_linear_2334_92412)"/>
<circle cx="151.604" cy="95.6047" r="11.6043" transform="rotate(-90 151.604 95.6047)" fill="url(#paint13_linear_2334_92412)"/>
<mask id="mask0_2334_92412" style="mask-type:alpha" maskUnits="userSpaceOnUse" x="140" y="84" width="24" height="24">
<circle cx="151.604" cy="95.6066" r="11.6043" transform="rotate(-90 151.604 95.6066)" fill="#FF9522"/>
</mask>
<g mask="url(#mask0_2334_92412)">
<rect x="142.172" y="87.0596" width="1.93405" height="26.1097" transform="rotate(-45 142.172 87.0596)" fill="url(#paint14_linear_2334_92412)"/>
</g>
<defs>
<linearGradient id="paint0_linear_2334_92412" x1="46.3278" y1="120.586" x2="52.4217" y2="155.853" gradientUnits="userSpaceOnUse">
<stop stop-color="#99B3F8"/>
<stop offset="1" stop-color="#4878D5"/>
</linearGradient>
<linearGradient id="paint1_linear_2334_92412" x1="33.9717" y1="145.417" x2="77.1641" y2="193.947" gradientUnits="userSpaceOnUse">
<stop stop-color="#A2C1FF"/>
<stop offset="1" stop-color="#4D76DD"/>
</linearGradient>
<linearGradient id="paint2_linear_2334_92412" x1="113.634" y1="103.534" x2="140.749" y2="133.661" gradientUnits="userSpaceOnUse">
<stop stop-color="#CFE8FF"/>
<stop offset="1" stop-color="#BEDEFB"/>
</linearGradient>
<linearGradient id="paint3_linear_2334_92412" x1="77.7806" y1="144.591" x2="155.107" y2="204.845" gradientUnits="userSpaceOnUse">
<stop stop-color="#FFFEF9"/>
<stop offset="1" stop-color="#F0EFEB"/>
</linearGradient>
<linearGradient id="paint4_linear_2334_92412" x1="101.51" y1="164.69" x2="116.473" y2="201.969" gradientUnits="userSpaceOnUse">
<stop stop-color="#FB5872"/>
<stop offset="1" stop-color="#EE405D"/>
</linearGradient>
<linearGradient id="paint5_linear_2334_92412" x1="84" y1="159" x2="84" y2="182.75" gradientUnits="userSpaceOnUse">
<stop stop-color="#FFDA58"/>
<stop offset="1" stop-color="#FFC24D"/>
</linearGradient>
<linearGradient id="paint6_linear_2334_92412" x1="84.001" y1="182.751" x2="84.001" y2="259.001" gradientUnits="userSpaceOnUse">
<stop stop-color="#FFA438"/>
<stop offset="1" stop-color="#F9BA3F"/>
</linearGradient>
<linearGradient id="paint7_linear_2334_92412" x1="50.5" y1="198" x2="50.5" y2="243" gradientUnits="userSpaceOnUse">
<stop stop-color="#F58A27"/>
<stop offset="1" stop-color="#F19C1B"/>
</linearGradient>
<linearGradient id="paint8_linear_2334_92412" x1="84.5" y1="198" x2="84.5" y2="243" gradientUnits="userSpaceOnUse">
<stop stop-color="#F58A27"/>
<stop offset="1" stop-color="#F19C1B"/>
</linearGradient>
<linearGradient id="paint9_linear_2334_92412" x1="117" y1="198" x2="117" y2="243" gradientUnits="userSpaceOnUse">
<stop stop-color="#F58A27"/>
<stop offset="1" stop-color="#F19C1B"/>
</linearGradient>
<linearGradient id="paint10_linear_2334_92412" x1="62.3329" y1="11.4431" x2="111.321" y2="95.9795" gradientUnits="userSpaceOnUse">
<stop stop-color="#FFE34F"/>
<stop offset="1" stop-color="#FDCE27"/>
</linearGradient>
<linearGradient id="paint11_linear_2334_92412" x1="-2.6416" y1="104.953" x2="23.2336" y2="104.655" gradientUnits="userSpaceOnUse">
<stop stop-color="#FFF7F5"/>
<stop offset="1" stop-color="#EBE1DF"/>
</linearGradient>
<linearGradient id="paint12_linear_2334_92412" x1="6.72974" y1="92.0595" x2="23.1335" y2="75.6557" gradientUnits="userSpaceOnUse">
<stop stop-color="#F7655B"/>
<stop offset="1" stop-color="#E1453B"/>
</linearGradient>
<linearGradient id="paint13_linear_2334_92412" x1="145.319" y1="84.4839" x2="160.308" y2="105.758" gradientUnits="userSpaceOnUse">
<stop stop-color="#FFDA65"/>
<stop offset="1" stop-color="#FFC01D"/>
</linearGradient>
<linearGradient id="paint14_linear_2334_92412" x1="132.199" y1="98.0637" x2="153.396" y2="98.0637" gradientUnits="userSpaceOnUse">
<stop stop-color="#FF9F37"/>
<stop offset="1" stop-color="#FC901A"/>
</linearGradient>
</defs>
</svg>
