<svg width="60" height="60" viewBox="0 0 60 60" fill="none" xmlns="http://www.w3.org/2000/svg">
<g clip-path="url(#clip0_2361_92015)">
<rect width="60" height="60" fill="white"/>
<path d="M21 34C21 29.0294 25.0294 25 30 25C34.9706 25 39 29.0294 39 34V48C39 50.7614 36.7614 53 34 53H26C23.2386 53 21 50.7614 21 48V34Z" fill="url(#paint0_linear_2361_92015)"/>
<circle cx="30" cy="34" r="2" fill="#408ACD"/>
<circle cx="30" cy="43" r="2" fill="#408ACD"/>
<path d="M45.2288 24.9231C46.3063 24.2809 46.669 22.8771 45.9088 21.8793C44.2799 19.7414 42.2318 17.9473 39.8816 16.6116C36.871 14.9008 33.4677 14.0009 30.005 14C26.5422 13.9991 23.1386 14.8973 20.1271 16.6067C17.7762 17.9412 15.7272 19.7343 14.0973 21.8714C13.3366 22.8688 13.6985 24.2728 14.7757 24.9155C15.853 25.5583 17.2354 25.1928 18.029 24.2213C19.233 22.7473 20.7031 21.5032 22.3696 20.5573C24.697 19.2362 27.3276 18.542 30.0039 18.5427C32.6801 18.5433 35.3103 19.2389 37.6371 20.5611C39.3031 21.5079 40.7726 22.7527 41.9759 24.2272C42.769 25.1991 44.1512 25.5654 45.2288 24.9231Z" fill="url(#paint1_linear_2361_92015)"/>
<path d="M52.9297 20.4318C54.0499 19.769 54.4283 18.3171 53.6767 17.2544C51.2274 13.7913 48.0421 10.8994 44.3385 8.79274C39.9505 6.2967 34.9869 4.98938 29.9386 5.00007C24.8903 5.01075 19.9323 6.33908 15.5548 8.85368C11.8602 10.976 8.68721 13.8814 6.25259 17.3548C5.50554 18.4207 5.8901 19.871 7.01304 20.5291C8.13598 21.1871 9.5708 20.8022 10.3346 19.7483C12.3428 16.9771 14.9197 14.6542 17.9026 12.9407C21.5686 10.8348 25.7208 9.72237 29.9486 9.71341C34.1764 9.70446 38.3332 10.7993 42.0081 12.8897C44.9982 14.5905 47.5849 16.9025 49.6049 19.6651C50.3731 20.7158 51.8096 21.0947 52.9297 20.4318Z" fill="url(#paint2_linear_2361_92015)"/>
</g>
<defs>
<linearGradient id="paint0_linear_2361_92015" x1="30" y1="25" x2="30" y2="53" gradientUnits="userSpaceOnUse">
<stop stop-color="#E6F3FE"/>
<stop offset="1" stop-color="#C7DFF5"/>
</linearGradient>
<linearGradient id="paint1_linear_2361_92015" x1="30" y1="14" x2="30" y2="54" gradientUnits="userSpaceOnUse">
<stop stop-color="#58AFFF"/>
<stop offset="1" stop-color="#2592F6"/>
</linearGradient>
<linearGradient id="paint2_linear_2361_92015" x1="30" y1="5" x2="30" y2="63" gradientUnits="userSpaceOnUse">
<stop stop-color="#58AFFF"/>
<stop offset="1" stop-color="#2592F6"/>
</linearGradient>
<clipPath id="clip0_2361_92015">
<rect width="60" height="60" fill="white"/>
</clipPath>
</defs>
</svg>
