<svg width="141" height="140" viewBox="0 0 141 140" fill="none" xmlns="http://www.w3.org/2000/svg">
<rect x="0.5" width="140" height="140" rx="70" fill="#F3F7FF"/>
<path d="M36.2371 92.125L50.2527 104.287" stroke="#9CBCFB" stroke-width="5" stroke-linecap="round"/>
<path d="M80.991 31C78.0802 35.7302 74.005 47.8104 80.991 58.2896C87.9771 68.7689 83.1976 79.734 80.2868 83.5546C76.8301 87.5571 67.3462 93.7662 54.2472 89.3998C41.1482 85.0335 32.4155 91.2191 29.6865 94.8578" stroke="url(#paint0_linear_2314_96914)" stroke-width="10" stroke-linecap="round"/>
<path d="M107.489 52.281C103.307 55.936 92.0704 61.9582 80.5777 56.8068C69.085 51.6555 60.4304 56.8068 56.3571 60.8801C52.2838 64.9534 47.8554 76.1464 54.3337 88.3398C60.812 100.533 56.1602 110.171 53.0246 113.466" stroke="url(#paint1_linear_2314_96914)" stroke-width="10" stroke-linecap="round"/>
<path d="M61.3396 59.3828L75.3552 71.5451" stroke="#75A5FC" stroke-width="5" stroke-linecap="round"/>
<path d="M87.5432 43.0078L101.559 55.1701" stroke="#75A5FC" stroke-width="5" stroke-linecap="round"/>
<path d="M62.4312 72.4805L76.4468 84.6428" stroke="#9CBCFB" stroke-width="5" stroke-linecap="round"/>
<g clip-path="url(#clip0_2314_96914)">
<path d="M50.9626 26.2098L47.3325 23L47.6371 27.8363C47.6993 28.824 47.3659 29.7958 46.7102 30.5374L43.5 34.1675L48.3363 33.8629C49.324 33.8007 50.2958 34.1341 51.0374 34.7898L54.6675 37.9996L54.3629 33.1634C54.3007 32.1757 54.6341 31.2038 55.2898 30.4623L58.4996 26.8321L53.6634 27.1368C52.6757 27.1989 51.7038 26.8655 50.9623 26.2098H50.9626Z" fill="#FFAEAE"/>
</g>
<g clip-path="url(#clip1_2314_96914)">
<path d="M87.4644 108.025L87.0262 104.097L84.5636 107.188C84.0606 107.819 83.3272 108.225 82.5249 108.314L78.5972 108.752L81.6881 111.215C82.3193 111.718 82.7244 112.451 82.8139 113.253L83.2521 117.181L85.7147 114.09C86.2177 113.459 86.9511 113.054 87.7534 112.964L91.6809 112.526L88.59 110.063C87.9588 109.56 87.5537 108.827 87.4642 108.025L87.4644 108.025Z" fill="#8DB9FA"/>
</g>
<g clip-path="url(#clip2_2314_96914)">
<path d="M24.751 62.2412L21.822 61.5579L23.4139 64.1099C23.739 64.631 23.8433 65.2602 23.7037 65.8585L23.0202 68.7877L25.5722 67.1958C26.0934 66.8707 26.7225 66.7664 27.3209 66.906L30.2499 67.5893L28.658 65.0373C28.3329 64.5161 28.2286 63.887 28.3682 63.2886L29.0515 60.3596L26.4995 61.9515C25.9783 62.2766 25.3492 62.3809 24.7508 62.2413L24.751 62.2412Z" fill="#8DB9FA"/>
</g>
<circle cx="106" cy="74.5" r="3.5" fill="#FFAEAE"/>
<circle cx="104" cy="22.5" r="2.5" fill="#C5D5FA"/>
<defs>
<linearGradient id="paint0_linear_2314_96914" x1="37.3714" y1="109.901" x2="97.8859" y2="39.5066" gradientUnits="userSpaceOnUse">
<stop stop-color="#FFD3DB"/>
<stop offset="1" stop-color="#F96778"/>
</linearGradient>
<linearGradient id="paint1_linear_2314_96914" x1="99.5323" y1="38.2728" x2="37.7829" y2="110.314" gradientUnits="userSpaceOnUse">
<stop stop-color="#CEDAF9"/>
<stop offset="1" stop-color="#6098FC"/>
</linearGradient>
<clipPath id="clip0_2314_96914">
<rect width="15" height="15" fill="white" transform="translate(43.5 23)"/>
</clipPath>
<clipPath id="clip1_2314_96914">
<rect width="12.2329" height="12.2329" fill="white" transform="translate(84.709 102) rotate(42.1501)"/>
</clipPath>
<clipPath id="clip2_2314_96914">
<rect width="9.31043" height="9.31043" fill="white" transform="translate(19.7285 62.6875) rotate(-28.3513)"/>
</clipPath>
</defs>
</svg>
