<svg width="81" height="80" viewBox="0 0 81 80" fill="none" xmlns="http://www.w3.org/2000/svg">
<circle cx="40.5" cy="40" r="40" fill="#FFF9EA"/>
<path d="M39.7093 57.8313C33.787 55.8449 20.5 47.4867 20.5 33.3191C20.5 27.0598 25.587 22 31.8889 22C35.6093 22 38.912 23.7616 41 26.5351C43.05 23.799 46.3907 22 50.1111 22C56.413 22 61.5 27.0598 61.5 33.3191C61.5 47.4867 48.213 55.8449 42.2528 57.8313C41.5695 58.0562 40.3926 58.0562 39.7093 57.8313Z" fill="#FFAEAE"/>
<circle cx="33.5" cy="40" r="2" fill="#F35454"/>
<circle cx="40.5" cy="40" r="2" fill="#F35454"/>
<circle cx="47.5" cy="40" r="2" fill="#F35454"/>
<path fill-rule="evenodd" clip-rule="evenodd" d="M64.5 28C71.4036 28 77 22.4036 77 15.5C77 8.59644 71.4036 3 64.5 3C57.5964 3 52 8.59644 52 15.5C52 18.334 52.9431 20.9477 54.5326 23.0444C54.515 23.099 54.5017 23.1562 54.4931 23.216L54.015 26.5693C53.9064 27.3314 54.6635 27.9254 55.3778 27.6384L58.4117 26.4197C60.2133 27.4263 62.2896 28 64.5 28Z" fill="#3B4A65"/>
<path d="M63.7693 9.9645C63.8476 9.23556 64.5265 8.72519 65.2485 8.85251L66.3216 9.04172C67.0436 9.16903 67.507 9.88085 67.3313 10.5926L65.6885 17.2484C65.5289 17.8954 64.8952 18.308 64.2389 18.1922L64.0761 18.1635C63.4199 18.0478 62.9655 17.4434 63.0367 16.7808L63.7693 9.9645Z" fill="white"/>
<rect width="2.53314" height="2.53328" rx="1.26657" transform="matrix(0.984806 0.173658 -0.173638 0.98481 62.7188 19.0391)" fill="white"/>
</svg>
