<svg width="81" height="80" viewBox="0 0 81 80" fill="none" xmlns="http://www.w3.org/2000/svg">
<ellipse cx="40.5" cy="40" rx="40" ry="40" fill="#FBE77B"/>
<path d="M66.7817 52.6299C66.2517 53.0899 65.7042 53.5374 65.1492 53.9649C58.0967 59.4399 49.2042 62.5099 40.2717 62.5099C31.3392 62.5099 22.7967 59.5599 15.8117 54.2874C15.1117 53.7599 14.4267 53.2074 13.7617 52.6324C15.8117 47.7049 17.4717 43.2149 19.6117 38.5524C21.7492 33.8849 24.4892 29.3324 28.5692 26.2199C32.5142 23.2124 37.6117 21.7424 42.5467 22.2349C47.4817 22.7299 52.1992 25.1899 55.3842 28.9949C57.1717 31.1299 58.5842 33.5774 59.6742 36.1374C62.0442 41.7024 64.1717 47.0574 66.7792 52.6324L66.7817 52.6299Z" fill="#FF6550"/>
<path d="M65.149 53.965C58.0965 59.44 49.204 62.51 40.2715 62.51C31.339 62.51 22.7965 59.56 15.8115 54.2875C19.154 52.5375 22.5415 50.87 26.099 49.635C38.889 45.19 53.644 46.875 65.149 53.965Z" fill="#FFCC99"/>
<path d="M32.7013 48.43C34.2938 47.05 35.8863 45.67 37.4788 44.29C38.2813 43.595 39.1563 42.8675 40.2113 42.7675C41.3963 42.655 42.4913 43.3625 43.4288 44.0925C45.4013 45.6325 47.1738 47.435 48.6813 49.4325C45.9188 50.185 43.1438 50.9425 40.2963 51.23C37.4488 51.5175 34.4988 51.3125 31.8613 50.205L32.7013 48.4275V48.43Z" fill="#FFCC99"/>
<path d="M33.0016 26.5623C33.4066 27.4948 32.7666 28.5273 32.1391 29.3298C28.7116 33.7123 24.7916 37.7198 20.4841 41.2473L20.0116 38.6448C17.1541 35.9398 15.8691 31.2948 15.3566 27.3498C15.1366 25.6648 15.0591 24.1073 15.0616 22.8823C15.0641 22.0648 15.2716 20.4048 15.5191 19.6248C15.7666 18.8423 16.3941 18.1273 17.2091 18.0173C17.9016 17.9223 18.5541 18.2948 19.1841 18.5998C20.8641 19.4148 22.6591 20.2323 24.4841 21.0148C27.4041 22.2598 30.4041 23.4023 33.1291 24.2398C33.7441 24.4323 32.7491 25.9723 33.0041 26.5623H33.0016Z" fill="#FF6550"/>
<path d="M60.5292 38.6448C64.6067 34.7873 65.4867 26.9798 65.4767 22.8848C65.4767 22.0648 65.2692 20.4073 65.0217 19.6248C64.7742 18.8423 64.1467 18.1298 63.3342 18.0173C62.6417 17.9223 61.9867 18.2948 61.3567 18.5998C56.9917 20.7098 51.8417 22.8798 47.4117 24.2398C46.7992 24.4273 47.7942 25.9723 47.5392 26.5598C47.1342 27.4923 47.7767 28.5248 48.4017 29.3273C51.8317 33.7123 55.7467 37.7173 60.0542 41.2448L60.5292 38.6448Z" fill="#FF6550"/>
<path d="M24.4841 21.0148C24.4366 21.2323 24.3516 21.4423 24.2141 21.6373C23.7416 22.3073 22.8366 22.5473 22.0216 22.4698C21.2041 22.3923 20.4366 22.0598 19.6591 21.8098C19.1091 21.6323 18.4916 21.4998 17.9791 21.7573C17.3666 22.0623 17.1241 22.8198 17.1341 23.4998C17.1491 24.1823 17.3591 24.8498 17.3891 25.5298C17.4141 26.2123 17.2116 26.9723 16.6216 27.3173C16.2316 27.5498 15.7691 27.5273 15.3566 27.3473C15.1366 25.6623 15.0591 24.1048 15.0616 22.8798C15.0641 22.0623 15.2716 20.4023 15.5191 19.6223C15.7666 18.8423 16.3941 18.1273 17.2091 18.0173C17.9016 17.9223 18.5541 18.2948 19.1841 18.5998C20.8641 19.4148 22.6591 20.2323 24.4841 21.0148Z" fill="#40120F"/>
<path d="M56.0566 21.0149C56.1041 21.2324 56.1891 21.4424 56.3266 21.6374C56.7991 22.3074 57.7041 22.5474 58.5191 22.4699C59.3366 22.3924 60.1041 22.0599 60.8816 21.8099C61.4316 21.6324 62.0491 21.4999 62.5616 21.7574C63.1741 22.0624 63.4166 22.8199 63.4066 23.4999C63.3916 24.1824 63.1816 24.8499 63.1516 25.5299C63.1266 26.2124 63.3291 26.9724 63.9191 27.3174C64.3091 27.5499 64.7716 27.5274 65.1841 27.3474C65.4041 25.6624 65.4816 24.1049 65.4791 22.8799C65.4766 22.0624 65.2691 20.4024 65.0216 19.6224C64.7741 18.8399 64.1491 18.1249 63.3341 18.0149C62.6416 17.9199 61.9891 18.2924 61.3591 18.5974C59.6791 19.4124 57.8841 20.2299 56.0591 21.0124L56.0566 21.0149Z" fill="#40120F"/>
<path d="M31.3538 45.6323C32.6163 44.3923 33.7063 42.9773 34.5863 41.4423C35.1538 40.4548 35.6263 39.1873 35.0163 38.2248C34.6988 37.7248 34.1388 37.4173 33.5588 37.2923C31.9763 36.9498 30.1813 38.0748 29.9388 39.6773C29.4038 38.8648 28.6538 38.1198 27.6988 37.9298C26.7463 37.7398 25.6063 38.3098 25.4638 39.2723C25.3563 39.9873 25.7913 40.6623 26.2188 41.2473C27.2888 42.7098 28.4388 44.1123 29.6663 45.4473C29.9588 45.7648 30.3338 46.1048 30.7563 46.0223C30.9913 45.9748 31.1788 45.8023 31.3513 45.6348L31.3538 45.6323Z" fill="#BA0000"/>
<path d="M50.1543 45.6323C48.8918 44.3923 47.8018 42.9773 46.9218 41.4423C46.3543 40.4548 45.8818 39.1873 46.4918 38.2248C46.8093 37.7248 47.3693 37.4173 47.9493 37.2923C49.5318 36.9498 51.3268 38.0748 51.5693 39.6773C52.1043 38.8648 52.8543 38.1198 53.8093 37.9298C54.7618 37.7398 55.9018 38.3098 56.0443 39.2723C56.1518 39.9873 55.7168 40.6623 55.2893 41.2473C54.2193 42.7098 53.0693 44.1123 51.8418 45.4473C51.5493 45.7648 51.1743 46.1048 50.7518 46.0223C50.5168 45.9748 50.3293 45.8023 50.1568 45.6348L50.1543 45.6323Z" fill="#BA0000"/>
<path d="M31.022 32.4649C31.187 32.4149 31.372 32.3499 31.4495 32.1924C31.522 32.0474 31.467 31.8624 31.3595 31.7424C31.2495 31.6224 31.0945 31.5549 30.9395 31.5074C29.862 31.1649 28.5845 31.6199 27.967 32.5624C27.822 32.7824 27.737 33.1324 27.9645 33.2674C28.0945 33.3474 28.262 33.3049 28.4095 33.2599C29.282 32.9949 30.1545 32.7274 31.027 32.4624L31.022 32.4649Z" fill="#40120F"/>
<path d="M49.142 32.4649C48.977 32.4149 48.792 32.3499 48.7145 32.1924C48.642 32.0474 48.697 31.8624 48.8045 31.7424C48.9145 31.6224 49.0695 31.5549 49.2245 31.5074C50.302 31.1649 51.5795 31.6199 52.197 32.5624C52.342 32.7824 52.427 33.1324 52.1995 33.2674C52.0695 33.3474 51.902 33.3049 51.7545 33.2599C50.882 32.9949 50.0095 32.7274 49.137 32.4624L49.142 32.4649Z" fill="#40120F"/>
<path d="M43.1043 47.5448C42.8893 47.2623 42.5043 47.1798 42.1518 47.1373C41.1343 47.0123 40.0993 47.0248 39.0868 47.1798C38.6793 47.2423 38.2093 47.3798 38.0743 47.7698C37.9418 48.1523 38.2093 48.5423 38.4393 48.8748C38.9143 49.5573 39.3893 50.3798 40.2043 50.5448C40.6668 50.6398 41.1543 50.4873 41.5518 50.2323C41.9493 49.9773 42.2743 49.6248 42.5943 49.2773C42.8168 49.0348 43.0443 48.7873 43.1693 48.4848C43.2943 48.1823 43.3043 47.8073 43.1068 47.5473L43.1043 47.5448Z" fill="#603218"/>
<path d="M43.6292 55.8849C43.6667 56.2874 43.3917 56.6974 43.0067 56.8174C42.6217 56.9374 42.1617 56.7549 41.9642 56.4024C41.8692 56.2349 41.8992 56.0699 41.7067 56.0149C41.5667 55.9749 41.3817 56.0849 41.3142 56.1999C41.0942 56.5749 41.5817 57.0274 41.8542 57.2049C42.2592 57.4699 42.7742 57.5799 43.2442 57.4524C43.7092 57.3274 44.1042 56.9749 44.2842 56.5274C44.4642 56.0824 44.4192 55.5524 44.1717 55.1399C44.1017 55.0249 44.0017 54.9099 43.8667 54.8999C43.6717 54.8849 43.5342 55.1074 43.5317 55.3024C43.5317 55.4974 43.6117 55.6849 43.6292 55.8824V55.8849Z" fill="#603218"/>
<path d="M18.8063 27.1497C18.7238 26.4672 18.7863 25.6097 19.4113 25.3247C20.0638 25.0272 20.7588 25.5922 21.2963 26.0647C22.8713 27.4522 24.8188 28.4122 26.8788 28.8172C25.5363 31.3397 23.8788 33.6922 21.9538 35.8022C20.5763 33.0397 19.1788 30.2097 18.8063 27.1472V27.1497Z" fill="#FFCC99"/>
<path d="M61.7444 27.1497C61.8269 26.4672 61.7644 25.6097 61.1394 25.3247C60.4869 25.0272 59.7919 25.5922 59.2544 26.0647C57.6794 27.4522 55.7319 28.4122 53.6719 28.8172C55.0144 31.3397 56.6719 33.6922 58.5969 35.8022C59.9744 33.0397 61.3719 30.2097 61.7444 27.1472V27.1497Z" fill="#FFCC99"/>
<path d="M27.1915 38.9721C26.964 38.9896 26.759 39.1321 26.619 39.3096C26.4765 39.4871 26.389 39.7021 26.3065 39.9146C26.254 40.0471 26.2115 40.2146 26.3115 40.3171C26.3965 40.4021 26.5365 40.3871 26.654 40.3596C27.064 40.2596 27.4515 40.0621 27.7715 39.7896C27.8715 39.7046 27.974 39.5946 27.9765 39.4621C27.9765 39.3071 27.8415 39.1846 27.7065 39.1071C27.5515 39.0196 27.3715 38.9571 27.194 38.9696L27.1915 38.9721Z" fill="#F46262"/>
<path d="M34.0916 38.6971C34.1216 38.5371 33.9966 38.3921 33.8691 38.2896C33.4141 37.9271 32.7966 37.7821 32.2266 37.8996C31.6591 38.0196 31.1491 38.4021 30.8791 38.9146C30.8341 38.9996 30.7966 39.1096 30.8516 39.1896C30.9016 39.2596 30.9991 39.2696 31.0866 39.2721C31.9491 39.2946 32.8141 39.2071 33.6516 39.0096C33.8366 38.9671 34.0541 38.8846 34.0891 38.6971H34.0916Z" fill="#F46262"/>
<path d="M47.5086 39.7125C47.9511 39.655 48.3936 39.595 48.8361 39.5375C49.0436 39.51 49.2586 39.48 49.4361 39.3675C49.6136 39.2575 49.7436 39.04 49.6861 38.8375C49.6536 38.72 49.5636 38.625 49.4686 38.5475C49.1136 38.2575 48.6336 38.1275 48.1811 38.195C47.7286 38.2625 47.3086 38.53 47.0536 38.91C46.8986 39.1425 46.8311 39.505 47.0611 39.66C47.1886 39.745 47.3561 39.73 47.5086 39.71V39.7125Z" fill="#F46262"/>
<path d="M53.7238 39.5C53.9938 39.5075 54.2638 39.4725 54.5263 39.4025C54.7338 39.345 54.9613 39.235 55.0113 39.0275C55.0588 38.825 54.9038 38.6175 54.7113 38.5375C54.5188 38.455 54.3038 38.4675 54.0938 38.48C53.8463 38.495 53.5863 38.515 53.3788 38.6525C53.1713 38.79 53.0513 39.09 53.1913 39.295C53.3038 39.46 53.5263 39.5 53.7238 39.505V39.5Z" fill="#F46262"/>
</svg>
