<svg width="146" height="168" viewBox="0 0 146 168" fill="none" xmlns="http://www.w3.org/2000/svg">
<path d="M0 20C0 8.95431 8.95431 0 20 0H126C137.046 0 146 8.95431 146 20V148C146 159.046 137.046 168 126 168H20C8.95431 168 0 159.046 0 148V20Z" fill="#FDEDEE"/>
<rect x="54.0874" y="31.7969" width="40.8747" height="13.6249" rx="2.40211" fill="url(#paint0_linear_2952_18427)"/>
<rect x="60.9019" y="45.4297" width="27.2498" height="4.08747" fill="#F09B3E"/>
<path d="M50.0005 54.5117C50.0005 51.7503 52.2391 49.5117 55.0005 49.5117H94.0501C96.8115 49.5117 99.0501 51.7503 99.0501 54.5117V96.9003C99.0501 99.6617 96.8115 101.9 94.0501 101.9H55.0005C52.2391 101.9 50.0005 99.6617 50.0005 96.9003V54.5117Z" fill="#FFDD6B"/>
<rect x="50" y="63.1367" width="49.0496" height="31.3372" fill="url(#paint1_linear_2952_18427)"/>
<path fill-rule="evenodd" clip-rule="evenodd" d="M71.6393 68.5918C70.976 68.5918 70.4383 69.1295 70.4383 69.7929V74.0451H66.1898C65.5265 74.0451 64.9888 74.5828 64.9888 75.2461V81.019C64.9888 81.6823 65.5265 82.22 66.1898 82.22H70.4383V86.4656C70.4383 87.1289 70.976 87.6666 71.6393 87.6666H77.4122C78.0755 87.6666 78.6132 87.1289 78.6132 86.4656V82.22H82.8626C83.5259 82.22 84.0636 81.6823 84.0636 81.019V75.2461C84.0636 74.5828 83.5259 74.0451 82.8626 74.0451H78.6132V69.7928C78.6132 69.1295 78.0755 68.5918 77.4122 68.5918H71.6393Z" fill="url(#paint2_linear_2952_18427)"/>
<circle cx="25.872" cy="76.669" r="7.87204" transform="rotate(-90 25.872 76.669)" fill="white"/>
<mask id="mask0_2952_18427" style="mask-type:alpha" maskUnits="userSpaceOnUse" x="18" y="68" width="16" height="17">
<circle cx="25.872" cy="76.669" r="7.27151" transform="rotate(-90 25.872 76.669)" fill="#FF9522" stroke="black" stroke-width="1.20105"/>
</mask>
<g mask="url(#mask0_2952_18427)">
<rect x="19.4731" y="70.8711" width="1.31201" height="17.7121" transform="rotate(-45 19.4731 70.8711)" fill="#E8E8E8"/>
</g>
<rect x="38.3633" y="25.0273" width="13.6958" height="27.3916" rx="6.8479" transform="rotate(43.6331 38.3633 25.0273)" fill="url(#paint3_linear_2952_18427)"/>
<path d="M33.638 29.9837C36.2477 27.2464 40.5823 27.1429 43.3196 29.7527C46.0569 32.3624 46.1603 36.697 43.5506 39.4343L38.8253 44.3906L28.9127 34.94L33.638 29.9837Z" fill="url(#paint4_linear_2952_18427)"/>
<ellipse cx="124.198" cy="68.5871" rx="10.868" ry="5.43401" transform="rotate(130.587 124.198 68.5871)" fill="url(#paint5_linear_2952_18427)"/>
<mask id="mask1_2952_18427" style="mask-type:alpha" maskUnits="userSpaceOnUse" x="116" y="59" width="17" height="19">
<ellipse cx="124.199" cy="68.5871" rx="10.868" ry="5.43401" transform="rotate(130.587 124.199 68.5871)" fill="#FF9522"/>
</mask>
<g mask="url(#mask1_2952_18427)">
<rect x="129.42" y="72.0391" width="1.55257" height="12.4206" transform="rotate(130.587 129.42 72.0391)" fill="url(#paint6_linear_2952_18427)"/>
</g>
<path d="M55.9781 131.648H54.4937V121.336H55.9781V131.648ZM54.7516 126.797H51.5953V125.562H54.7516V126.797ZM51.6812 122.391C51.6812 123.589 51.4156 124.693 50.8844 125.703C50.3583 126.708 49.6057 127.583 48.6266 128.328C47.6526 129.068 46.4911 129.656 45.1422 130.094L44.5094 128.906C45.65 128.536 46.637 128.062 47.4703 127.484C48.3089 126.901 48.9547 126.229 49.4078 125.469C49.8661 124.703 50.0953 123.888 50.0953 123.023V122.391H51.6812ZM51.0562 123.625H45.2281V122.391H51.0562V123.625ZM56.3375 135.047H46.9547V133.82H56.3375V135.047ZM48.4625 134.461H46.9547V130.594H48.4625V134.461ZM68.9344 129.641H67.4578V121.32H68.9344V129.641ZM70.9734 126.078H68.5203V124.859H70.9734V126.078ZM65.0984 122.32C65.0984 123.508 64.8354 124.591 64.3094 125.57C63.7885 126.549 63.0359 127.393 62.0516 128.102C61.0724 128.805 59.8979 129.354 58.5281 129.75L57.9109 128.547C59.0828 128.214 60.088 127.773 60.9266 127.227C61.7703 126.68 62.4135 126.049 62.8563 125.336C63.299 124.622 63.5203 123.854 63.5203 123.031V122.32H65.0984ZM64.3875 123.531H58.5438V122.32H64.3875V123.531ZM64.4578 129.797C65.3953 129.797 66.213 129.909 66.9109 130.133C67.6141 130.352 68.1531 130.667 68.5281 131.078C68.9031 131.49 69.0906 131.979 69.0906 132.547C69.0906 133.109 68.9031 133.599 68.5281 134.016C68.1531 134.432 67.6141 134.75 66.9109 134.969C66.213 135.193 65.3953 135.305 64.4578 135.305C63.5307 135.305 62.7156 135.193 62.0125 134.969C61.3146 134.75 60.7755 134.432 60.3953 134.016C60.0151 133.599 59.825 133.109 59.825 132.547C59.825 131.979 60.0151 131.49 60.3953 131.078C60.7755 130.667 61.3146 130.352 62.0125 130.133C62.7156 129.909 63.5307 129.797 64.4578 129.797ZM64.4578 130.969C63.8172 130.964 63.2573 131.023 62.7781 131.148C62.299 131.273 61.9318 131.456 61.6766 131.695C61.4214 131.935 61.2938 132.219 61.2938 132.547C61.2938 132.87 61.4214 133.151 61.6766 133.391C61.9318 133.625 62.299 133.807 62.7781 133.938C63.2573 134.068 63.8172 134.133 64.4578 134.133C65.1089 134.133 65.6714 134.068 66.1453 133.938C66.6245 133.807 66.9943 133.625 67.2547 133.391C67.5151 133.151 67.6453 132.87 67.6453 132.547C67.6453 132.219 67.5151 131.935 67.2547 131.695C66.9943 131.456 66.6245 131.273 66.1453 131.148C65.6714 131.023 65.1089 130.964 64.4578 130.969ZM80.0812 123.336C80.0812 124.221 79.9198 125.055 79.5969 125.836C79.274 126.612 78.813 127.289 78.2141 127.867C77.6203 128.445 76.9172 128.883 76.1047 129.18L75.3469 128.016C76.0604 127.755 76.6802 127.388 77.2062 126.914C77.7375 126.44 78.1437 125.893 78.425 125.273C78.7062 124.648 78.8469 124.003 78.8469 123.336V122H80.0812V123.336ZM80.3703 123.336C80.3703 123.987 80.5083 124.607 80.7844 125.195C81.0604 125.779 81.4589 126.294 81.9797 126.742C82.5005 127.19 83.1151 127.531 83.8234 127.766L83.0812 128.938C82.2687 128.656 81.5656 128.242 80.9719 127.695C80.3781 127.143 79.9198 126.495 79.5969 125.75C79.2792 125.005 79.1203 124.201 79.1203 123.336V122H80.3703V123.336ZM86.8781 135.32H85.4016V131.609H77.3937V130.398H86.8781V135.32ZM86.8781 129.734H85.4016V121.32H86.8781V129.734ZM95.9984 131.172H94.5375V128.828H95.9984V131.172ZM101.662 129.227H88.8969V128.023H101.662V129.227ZM100.467 122.961H90.0687V121.758H100.467V122.961ZM100.405 126.844H90.1312V125.633H100.405V126.844ZM93.5844 126.461H92.1078V122.258H93.5844V126.461ZM98.4281 126.461H96.9437V122.258H98.4281V126.461ZM100.108 135.148H90.4281V130.727H100.108V135.148ZM91.8969 133.945H98.6547V131.883H91.8969V133.945Z" fill="#B45B2B"/>
<defs>
<linearGradient id="paint0_linear_2952_18427" x1="64.9873" y1="27.7094" x2="83.3809" y2="48.1467" gradientUnits="userSpaceOnUse">
<stop stop-color="#CFE8FF"/>
<stop offset="1" stop-color="#BEDEFB"/>
</linearGradient>
<linearGradient id="paint1_linear_2952_18427" x1="48.6375" y1="57.6868" x2="101.093" y2="98.5614" gradientUnits="userSpaceOnUse">
<stop stop-color="#FFFEF9"/>
<stop offset="1" stop-color="#F0EFEB"/>
</linearGradient>
<linearGradient id="paint2_linear_2952_18427" x1="66.3513" y1="67.2293" x2="82.7011" y2="89.0291" gradientUnits="userSpaceOnUse">
<stop stop-color="#FB5872"/>
<stop offset="1" stop-color="#EE405D"/>
</linearGradient>
<linearGradient id="paint3_linear_2952_18427" x1="36.5713" y1="39.7319" x2="54.1243" y2="39.5301" gradientUnits="userSpaceOnUse">
<stop stop-color="white"/>
<stop offset="1" stop-color="#FFF9F7"/>
</linearGradient>
<linearGradient id="paint4_linear_2952_18427" x1="32.5157" y1="29.7334" x2="43.9058" y2="40.5927" gradientUnits="userSpaceOnUse">
<stop stop-color="#F7655B"/>
<stop offset="1" stop-color="#E1453B"/>
</linearGradient>
<linearGradient id="paint5_linear_2952_18427" x1="119.928" y1="61.6005" x2="128.855" y2="74.7974" gradientUnits="userSpaceOnUse">
<stop stop-color="#FFAD55"/>
<stop offset="1" stop-color="#EF8422"/>
</linearGradient>
<linearGradient id="paint6_linear_2952_18427" x1="130.197" y1="72.0391" x2="130.197" y2="84.4596" gradientUnits="userSpaceOnUse">
<stop stop-color="#E88B30"/>
<stop offset="1" stop-color="#D7720F"/>
</linearGradient>
</defs>
</svg>
