<svg width="81" height="80" viewBox="0 0 81 80" fill="none" xmlns="http://www.w3.org/2000/svg">
<ellipse cx="40.5" cy="40" rx="40" ry="40" fill="#F6A998"/>
<path d="M12.1932 51.8473C13.0732 54.0423 14.2557 56.1098 15.6782 57.9973C16.6807 59.3248 18.5982 62.5473 20.3532 62.7323C21.1732 62.8198 22.0257 62.4548 22.5307 61.8023C22.6857 62.8423 22.5532 63.9248 22.1507 64.8973C22.8407 64.3173 23.7032 63.9473 24.5982 63.8473C24.8732 64.0873 24.8707 64.5148 24.7782 64.8673C24.6857 65.2198 24.5232 65.5648 24.5482 65.9273C24.5732 66.2898 24.9007 66.6698 25.2532 66.5698C25.5482 66.4873 25.7332 66.1098 26.0407 66.1273C26.2832 66.1423 26.4257 66.3998 26.5482 66.6123C27.0282 67.4398 27.8857 67.9973 28.7932 68.3048C30.6107 68.9198 32.8782 69.1548 34.7807 69.4573C39.4882 70.2073 44.3457 69.8073 48.9107 68.4548C51.2457 67.7623 53.5082 66.8248 55.6482 65.6623C56.3482 65.2823 57.5807 64.8273 58.0632 64.1523C58.6182 63.3773 58.3182 62.4798 58.4932 61.5998C58.9657 62.0623 59.3807 62.6023 59.8107 63.1123C59.8682 62.6898 59.9307 62.2498 60.1657 61.8923C60.3982 61.5348 60.8557 61.2823 61.2582 61.4223C61.4382 61.4848 61.5982 61.6173 61.7882 61.6123C61.9707 61.6073 62.1207 61.4748 62.2557 61.3498C63.5707 60.1123 65.2907 58.9023 66.2182 57.3348C66.7632 56.4123 68.2982 54.1298 68.2982 53.1723C69.4432 50.6448 72.4957 42.1248 68.0957 41.3873C68.6507 41.3123 69.2482 41.2198 69.6457 40.8248C70.0432 40.4298 70.0657 39.6298 69.5532 39.3998C69.7932 39.3423 70.0357 39.2848 70.2757 39.2248C70.4357 39.1873 68.9782 32.9723 68.9432 32.2673C68.8257 29.8573 68.1482 27.7298 67.1757 25.5073C64.9407 20.3848 60.9132 16.7023 56.0832 13.8923C54.6107 13.0348 49.9232 10.2973 48.3357 11.2698C48.0082 11.4723 47.6757 11.7273 47.2907 11.7198C46.9057 11.7123 46.5382 11.2323 46.7932 10.9423C46.2457 10.8923 45.6907 11.2823 45.5482 11.8148C45.5332 11.6023 45.5182 11.3923 45.5032 11.1798C43.3432 10.8923 41.1832 10.6048 39.0232 10.3173C39.0082 10.6023 38.9957 10.8873 38.9807 11.1723C38.5582 10.7798 38.1382 10.3898 37.7157 9.99976C37.5532 10.8198 37.3907 11.6398 37.2282 12.4598C36.8932 10.4023 35.5882 11.1323 33.9582 11.5873C25.8857 13.8548 19.3607 18.8523 14.3432 25.4523C14.0107 25.8898 13.6607 26.3773 13.6757 26.9273C13.6907 27.4773 14.2882 28.0198 14.7757 27.7623C14.8882 28.1823 14.3682 28.4623 13.9632 28.6173C13.5582 28.7748 13.1032 29.2248 13.3782 29.5598C13.5132 29.7248 13.7532 29.7398 13.9532 29.8098C14.5082 30.0048 14.7732 30.7073 14.6082 31.2723C14.4432 31.8373 13.9432 32.2573 13.3957 32.4748C12.8482 32.6923 12.2482 32.7373 11.6607 32.7798C12.0832 33.0148 12.5057 33.2473 12.9257 33.4823C11.7857 32.8498 10.8157 35.4198 10.7057 35.9873C10.3757 37.7098 10.2632 39.5773 10.2507 41.3373C10.2257 44.9223 10.8582 48.5173 12.1907 51.8473H12.1932Z" fill="#D68227"/>
<path d="M64.2126 47.7026C63.0451 46.6501 62.9326 45.5551 62.2876 44.2276C61.5701 42.7551 60.8201 41.3001 60.0326 39.8626C58.4576 36.99 56.7426 34.195 54.8976 31.4875C53.3351 29.2 51.5701 26.885 49.0551 25.725C47.6501 25.0775 45.9826 24.92 44.4851 25.33C43.8126 25.515 43.2326 25.8275 42.7601 26.35C42.5151 26.62 41.7676 27.645 41.9751 28.0475C41.7801 27.6675 41.5826 27.29 41.3876 26.91C41.3201 27.4825 41.2501 28.0575 41.1826 28.63C40.6876 27.41 40.4826 25.935 39.2126 25.38C38.0576 24.875 36.7526 24.705 35.5051 24.8775C33.1976 25.2 31.1351 26.5525 29.5351 28.245C27.9351 29.9375 26.7376 31.96 25.5526 33.9675C23.0226 38.255 20.5901 42.6001 17.7451 46.6726C18.6201 46.4526 19.4951 46.2301 20.3701 46.0101C19.6101 46.2351 18.8951 46.6026 18.2726 47.0901C18.8026 47.0951 19.3276 47.3151 19.7001 47.6926C19.1401 47.7451 18.5801 47.7951 18.0201 47.8476C19.5976 49.1126 21.0176 50.5601 22.6776 51.7201C24.3651 52.8976 26.2076 53.8476 28.1301 54.5751C32.1626 56.1001 36.5076 56.6701 40.8176 56.7251C45.0751 56.7776 49.3676 56.3326 53.4276 55.0476C55.2676 54.4651 57.0526 53.7051 58.7376 52.7626C59.5976 52.2801 60.4426 51.7576 61.2326 51.1676C61.3876 51.0526 62.9001 49.7701 62.7351 49.6901C62.5026 49.5801 62.2676 49.4676 62.0351 49.3576C62.5251 49.1951 63.0451 49.1201 63.5626 49.1401C62.7701 48.3576 61.7826 47.7751 60.7126 47.4626C61.8751 47.6101 63.0476 47.6901 64.2201 47.7051L64.2126 47.7026Z" fill="#F2B952"/>
<path d="M46.3673 47.2297C44.6998 45.7422 42.2423 45.6797 40.0073 45.6972C37.8698 45.7147 35.5248 45.8072 33.9398 47.2372C32.0723 48.9222 31.9773 51.7697 32.0223 54.2847C32.0473 55.7697 32.1223 57.3897 33.0973 58.5097C33.8523 59.3797 35.0098 59.7722 36.1273 60.0522C39.5473 60.9047 42.7298 61.0122 46.0148 59.6747C48.6198 58.6147 48.7623 56.1422 48.5723 53.6497C48.3948 51.3347 48.1023 48.7747 46.3698 47.2272L46.3673 47.2297Z" fill="#FFDE8D"/>
<path d="M24.3905 28.0998C24.583 26.7798 23.983 25.3473 22.848 24.6498C21.7105 23.9523 20.088 24.1023 19.1755 25.0748C18.2605 26.0448 18.2455 27.7598 19.213 28.6798C19.708 29.1498 20.388 29.3898 21.068 29.4723C21.748 29.5523 22.4355 29.4873 23.1155 29.4223L24.393 28.1023L24.3905 28.0998Z" fill="#F2B952"/>
<path d="M58.8002 28.0998C58.6077 26.7798 59.2077 25.3473 60.3427 24.6498C61.4802 23.9523 63.1027 24.1023 64.0152 25.0748C64.9302 26.0448 64.9452 27.7598 63.9777 28.6798C63.4827 29.1498 62.8027 29.3898 62.1227 29.4723C61.4427 29.5523 60.7552 29.4873 60.0752 29.4223L58.7977 28.1023L58.8002 28.0998Z" fill="#F2B952"/>
<path d="M22.3174 27.6097C22.2524 27.2847 22.1849 26.9547 22.0324 26.6597C21.8799 26.3647 21.6299 26.1047 21.3099 26.0197C20.9899 25.9322 20.6024 26.0622 20.4574 26.3597C20.3274 26.6272 20.4199 26.9672 20.6274 27.1847C20.8324 27.3997 21.1299 27.5097 21.4249 27.5547C21.7199 27.5997 22.0199 27.5922 22.3174 27.6097Z" fill="#E88E79"/>
<path d="M61.8624 26.5823C62.0724 26.5823 62.2874 26.6398 62.4424 26.7798C62.5349 26.8648 62.6024 26.9848 62.6024 27.1123C62.6024 27.3073 62.4524 27.4673 62.2949 27.5823C61.7799 27.9623 61.1174 28.0873 60.4774 28.0748C60.4449 27.6948 60.5824 27.3023 60.8424 27.0248C61.1024 26.7448 61.4824 26.5823 61.8649 26.5848L61.8624 26.5823Z" fill="#E88E79"/>
<path d="M56.8757 49.7099C56.9657 48.9874 56.4757 48.2799 55.8282 47.9449C55.1832 47.6099 54.4157 47.5849 53.6932 47.6824C52.8907 47.7899 52.1057 48.0349 51.3857 48.4074C50.9907 48.6099 50.5932 48.8774 50.4232 49.2874C50.2332 49.7524 50.3932 50.3099 50.7232 50.6874C51.0532 51.0649 51.5282 51.2899 52.0107 51.4349C53.0257 51.7374 54.1307 51.7249 55.1382 51.3974C55.9482 51.1324 56.7682 50.5574 56.8732 49.7124L56.8757 49.7099Z" fill="#E88E79"/>
<path d="M23.5693 49.7099C23.4793 48.9874 23.9693 48.2799 24.6168 47.9449C25.2618 47.6099 26.0293 47.5849 26.7493 47.6824C27.5518 47.7899 28.3368 48.0349 29.0568 48.4074C29.4518 48.6099 29.8493 48.8774 30.0193 49.2874C30.2093 49.7524 30.0493 50.3099 29.7193 50.6874C29.3893 51.0649 28.9143 51.2899 28.4318 51.4349C27.4168 51.7374 26.3118 51.7249 25.3043 51.3974C24.4943 51.1324 23.6743 50.5574 23.5693 49.7124V49.7099Z" fill="#E88E79"/>
<path d="M42.3349 48.7174C42.4874 48.4799 42.6349 48.1449 42.4374 47.9424C42.3274 47.8324 42.1574 47.8174 42.0024 47.8099C41.1624 47.7674 40.3224 47.7224 39.4799 47.6799C39.3249 47.6724 39.1649 47.6649 39.0149 47.7074C38.8649 47.7499 38.7224 47.8524 38.6724 47.9999C38.6124 48.1824 38.7049 48.3799 38.7949 48.5499C38.9849 48.9099 39.1799 49.2749 39.4574 49.5749C39.7349 49.8749 40.1124 50.1024 40.5199 50.1174C40.9199 50.1299 41.3049 49.9349 41.5999 49.6649C41.8949 49.3949 42.1174 49.0549 42.3324 48.7199L42.3349 48.7174Z" fill="#603218"/>
<path d="M45.1168 56.2522C44.9518 56.3697 44.7493 56.3947 44.5443 56.4047C44.5043 56.4047 44.4668 56.4072 44.4268 56.4072C41.7668 56.4847 39.1043 56.5572 36.4443 56.6322C36.2468 56.6397 36.0318 56.6347 35.8443 56.5922C35.6868 56.5547 35.5493 56.4897 35.4393 56.3747C35.1618 56.0797 35.2243 55.6172 35.3043 55.2197C35.4393 54.5447 35.5818 53.8522 35.9593 53.2772C35.9993 53.2197 36.0393 53.1597 36.0893 53.1022C36.5443 52.5072 37.2368 52.1072 37.9618 51.8897C38.7568 51.6447 39.5943 51.5947 40.4243 51.5497C41.5643 51.4872 42.8043 51.4722 43.7293 52.1447C43.9293 52.2897 44.1043 52.4572 44.2543 52.6447C44.7668 53.2672 45.0493 54.0947 45.2818 54.8847C45.4243 55.3547 45.5143 55.9622 45.1143 56.2522H45.1168Z" fill="#603218"/>
<path d="M40.2351 51.3074C40.2451 51.4374 40.2651 51.5749 40.3501 51.6699C40.4376 51.7674 40.6126 51.7899 40.6876 51.6824C40.6351 51.0799 40.6351 50.4749 40.6851 49.8724C40.5351 49.8899 40.3851 49.9074 40.2326 49.9249C40.2151 50.3849 40.1976 50.8474 40.2351 51.3074Z" fill="#603218"/>
<path d="M31.0744 33.2422C31.7319 33.6022 32.4119 33.9697 33.1569 34.0572C33.1994 33.5647 32.9819 33.0547 32.5969 32.7447C32.2119 32.4347 31.6669 32.3322 31.1944 32.4797C30.9644 32.5522 30.7169 32.7647 30.7994 32.9922C30.8419 33.1097 30.9619 33.1822 31.0719 33.2422H31.0744Z" fill="#D68227"/>
<path d="M50.452 33.2422C49.7945 33.6022 49.1145 33.9697 48.3695 34.0572C48.327 33.5647 48.5445 33.0547 48.9295 32.7447C49.3145 32.4347 49.8595 32.3322 50.332 32.4797C50.562 32.5522 50.8095 32.7647 50.727 32.9922C50.6845 33.1097 50.5645 33.1822 50.4545 33.2422H50.452Z" fill="#D68227"/>
<path d="M44.5457 56.4047C44.5057 56.4047 44.4682 56.4072 44.4282 56.4072C41.7682 56.4847 39.1057 56.5572 36.4457 56.6322C36.2482 56.6397 36.0332 56.6347 35.8457 56.5922C35.8457 56.3947 35.8782 56.1947 35.9432 56.0047C36.1182 55.4922 36.4907 55.0622 36.9157 54.7197C36.3332 54.4322 36.0157 53.7397 36.0932 53.1022C36.5482 52.5072 37.2407 52.1072 37.9657 51.8897C38.7607 51.6447 39.5982 51.5947 40.4282 51.5497C41.5682 51.4872 42.8082 51.4722 43.7332 52.1447C43.9332 52.2897 44.1082 52.4572 44.2582 52.6447C44.3532 52.8997 44.3957 53.1697 44.3882 53.4397C44.3707 54.1097 44.0207 54.7622 43.4707 55.1447C44.0982 55.1122 44.5932 55.7822 44.5457 56.4047Z" fill="white"/>
<path d="M28.5378 37.8721C28.2103 37.8996 27.9378 38.1446 27.7453 38.4121C27.1803 39.2046 27.1178 40.2896 27.4428 41.2096C27.7678 42.1296 28.4403 42.8946 29.2153 43.4821C30.1153 44.1671 31.4628 44.5321 32.5853 44.3721C33.2878 44.2721 33.9753 43.9321 34.4453 43.3921C34.9778 42.7771 35.5953 41.8146 35.4053 41.3846C34.9903 40.4546 33.4928 39.9921 32.6853 39.6171C31.5378 39.0846 30.3978 38.5396 29.2353 38.0421C29.0128 37.9471 28.7803 37.8496 28.5378 37.8696V37.8721Z" fill="white"/>
<path d="M32.8 42.4574C32.3275 42.8799 31.585 42.9099 30.985 42.7124C30.3425 42.5024 29.86 42.1349 29.4775 41.6299C29.2875 41.3774 29.2075 40.9424 29.17 40.6274C29.135 40.3124 29.285 39.9549 29.5825 39.8499C29.51 40.1649 29.7125 40.5099 30.015 40.6249C30.3175 40.7399 30.6825 40.6224 30.88 40.3674C31.0775 40.1124 31.1025 39.7424 30.965 39.4524C31.6675 39.7074 32.35 40.0174 33.005 40.3774C33.2075 40.4874 33.4225 40.6224 33.4925 40.8399C33.5575 41.0424 33.4825 41.2624 33.4025 41.4599C33.2575 41.8249 33.09 42.1974 32.7975 42.4599L32.8 42.4574Z" fill="#603218"/>
<path d="M52.8382 37.8721C53.1657 37.8996 53.4382 38.1446 53.6307 38.4121C54.1957 39.2046 54.2582 40.2896 53.9332 41.2096C53.6082 42.1296 52.9357 42.8946 52.1607 43.4821C51.2607 44.1671 49.9132 44.5321 48.7907 44.3721C48.0882 44.2721 47.4007 43.9321 46.9307 43.3921C46.3982 42.7771 45.7807 41.8146 45.9707 41.3846C46.3857 40.4546 47.8832 39.9921 48.6907 39.6171C49.8382 39.0846 50.9782 38.5396 52.1407 38.0421C52.3632 37.9471 52.5957 37.8496 52.8382 37.8696V37.8721Z" fill="white"/>
<path d="M51.922 40.88C51.902 41.5125 51.4145 42.0725 50.857 42.3725C50.2595 42.6925 49.6645 42.79 49.0345 42.7175C48.7195 42.68 48.3495 42.44 48.097 42.2475C47.8445 42.055 47.6895 41.7025 47.817 41.4125C47.9945 41.68 48.3845 41.775 48.6745 41.6325C48.9645 41.49 49.132 41.145 49.0845 40.8275C49.037 40.5075 48.787 40.235 48.4795 40.1375C49.1495 39.805 49.8445 39.5225 50.5545 39.295C50.7745 39.225 51.0195 39.1625 51.227 39.26C51.4195 39.3525 51.5245 39.5575 51.6145 39.7525C51.7795 40.11 51.9345 40.4875 51.922 40.88Z" fill="#603218"/>
</svg>
