<svg width="78" height="78" viewBox="0 0 78 78" fill="none" xmlns="http://www.w3.org/2000/svg">
<path d="M23.2938 43.5312L27.2938 39.6719C27.726 39.2396 28.0594 38.8854 28.2938 38.6094C28.5333 38.3281 28.7156 38.0521 28.8406 37.7812C28.9656 37.5052 29.0281 37.2135 29.0281 36.9062C29.0281 36.5625 28.9422 36.2604 28.7703 36C28.6036 35.7396 28.3719 35.5391 28.075 35.3984C27.7833 35.2578 27.4552 35.1875 27.0906 35.1875C26.7052 35.1875 26.3667 35.2656 26.075 35.4219C25.7885 35.5729 25.5672 35.7891 25.4109 36.0703C25.2599 36.3516 25.1844 36.6823 25.1844 37.0625H23.2469C23.2469 36.3594 23.4083 35.7422 23.7313 35.2109C24.0594 34.6745 24.5151 34.2604 25.0984 33.9688C25.687 33.6771 26.3563 33.5312 27.1063 33.5312C27.8667 33.5312 28.5385 33.6719 29.1219 33.9531C29.7104 34.2344 30.1661 34.625 30.4891 35.125C30.8172 35.6198 30.9813 36.1823 30.9813 36.8125C30.976 37.25 30.8901 37.6719 30.7234 38.0781C30.5568 38.4792 30.2703 38.9271 29.8641 39.4219C29.4578 39.9167 28.8823 40.5156 28.1375 41.2188L26.1219 43.2188V43.2969H31.1531V45H23.2938V43.5312ZM36.9063 45.1562C36 45.1562 35.2214 44.9297 34.5703 44.4766C33.9193 44.0182 33.4219 43.3542 33.0781 42.4844C32.7344 41.6146 32.5625 40.5677 32.5625 39.3438C32.5625 38.125 32.7344 37.0807 33.0781 36.2109C33.4271 35.3359 33.9271 34.6719 34.5781 34.2188C35.2292 33.7604 36.0052 33.5312 36.9063 33.5312C37.8073 33.5312 38.5833 33.7604 39.2344 34.2188C39.8854 34.6719 40.3828 35.3359 40.7266 36.2109C41.0755 37.0807 41.25 38.125 41.25 39.3438C41.25 40.5677 41.0755 41.6172 40.7266 42.4922C40.3828 43.362 39.8854 44.0234 39.2344 44.4766C38.5885 44.9297 37.8125 45.1562 36.9063 45.1562ZM34.6094 39.3438C34.6094 40.6823 34.8099 41.7005 35.2109 42.3984C35.6172 43.0964 36.1823 43.4479 36.9063 43.4531C37.3802 43.4479 37.7891 43.2917 38.1328 42.9844C38.4766 42.6771 38.7396 42.2161 38.9219 41.6016C39.1094 40.987 39.2031 40.2344 39.2031 39.3438C39.2031 38.4583 39.1094 37.7083 38.9219 37.0938C38.7396 36.474 38.4766 36.0078 38.1328 35.6953C37.7891 35.3828 37.3802 35.224 36.9063 35.2188C36.4323 35.224 36.0234 35.3828 35.6797 35.6953C35.3359 36.0078 35.0703 36.474 34.8828 37.0938C34.7005 37.7083 34.6094 38.4583 34.6094 39.3438ZM46.2844 32.7188C46.9927 32.7188 47.6307 32.8568 48.1984 33.1328C48.7661 33.4036 49.2115 33.7812 49.5344 34.2656C49.8625 34.75 50.0292 35.2969 50.0344 35.9062C50.0292 36.5208 49.8625 37.0703 49.5344 37.5547C49.2115 38.0339 48.7661 38.4115 48.1984 38.6875C47.6307 38.9583 46.9927 39.0938 46.2844 39.0938C45.5708 39.0938 44.9276 38.9583 44.3547 38.6875C43.787 38.4115 43.3417 38.0339 43.0188 37.5547C42.6958 37.0703 42.5344 36.5208 42.5344 35.9062C42.5344 35.2969 42.6958 34.75 43.0188 34.2656C43.3417 33.7812 43.787 33.4036 44.3547 33.1328C44.9276 32.8568 45.5708 32.7188 46.2844 32.7188ZM44.2219 35.9062C44.2219 36.2656 44.3104 36.5807 44.4875 36.8516C44.6646 37.1172 44.9094 37.3229 45.2219 37.4688C45.5344 37.6146 45.8885 37.6875 46.2844 37.6875C46.6802 37.6875 47.0318 37.6146 47.3391 37.4688C47.6516 37.3229 47.8964 37.1172 48.0734 36.8516C48.2557 36.5807 48.3469 36.2656 48.3469 35.9062C48.3469 35.5573 48.2557 35.25 48.0734 34.9844C47.8964 34.7188 47.6516 34.5156 47.3391 34.375C47.0318 34.2292 46.6802 34.1562 46.2844 34.1562C45.8885 34.1562 45.5344 34.2292 45.2219 34.375C44.9094 34.5156 44.6646 34.7188 44.4875 34.9844C44.3104 35.25 44.2219 35.5573 44.2219 35.9062ZM44.675 40.0156H54.05V43.7031H46.4094V44.8438H54.4719V46.2188H44.7063V42.4219H52.3156V41.375H44.675V40.0156ZM52.3 32.2656H54.05V39.4062H52.3V32.2656Z" fill="#26282C"/>
<path d="M4 39C4 29.7174 7.68749 20.815 14.2513 14.2513C20.815 7.68749 29.7174 4 39 4C48.2826 4 57.185 7.68749 63.7487 14.2513C70.3125 20.815 74 29.7174 74 39C74 48.2826 70.3125 57.185 63.7487 63.7487C57.185 70.3125 48.2826 74 39 74C29.7174 74 20.815 70.3125 14.2513 63.7487C7.68749 57.185 4 48.2826 4 39L4 39Z" stroke="#EEEEEE" stroke-width="8"/>
<path d="M35.7998 4.14661C41.5315 3.62034 47.3045 4.51574 52.6075 6.75351C57.9105 8.99127 62.5797 12.5023 66.2016 16.9757C69.8235 21.449 72.2864 26.7465 73.3719 32.399C74.4574 38.0515 74.1322 43.8845 72.425 49.3812C70.7178 54.878 67.6813 59.8689 63.5845 63.9119C59.4878 67.9548 54.4571 70.925 48.9383 72.5594C43.4194 74.1937 37.5826 74.4418 31.945 73.2816C26.3074 72.1214 21.0429 69.5887 16.6178 65.908" stroke="#3F86F1" stroke-width="8" stroke-linecap="round"/>
</svg>
