<svg width="136" height="168" viewBox="0 0 136 168" fill="none" xmlns="http://www.w3.org/2000/svg">
<rect width="136" height="168" rx="20" fill="#FDEDEE"/>
<g opacity="0.5" filter="url(#filter0_f_2691_45244)">
<ellipse cx="70.0366" cy="95.2629" rx="38" ry="4.9875" fill="#D5C1C3"/>
</g>
<g opacity="0.7" filter="url(#filter1_f_2691_45244)">
<ellipse cx="70.0365" cy="95.2629" rx="31.35" ry="2.6125" fill="#ECCFD0"/>
</g>
<g filter="url(#filter2_f_2691_45244)">
<ellipse cx="70.0366" cy="95.2633" rx="26.125" ry="0.7125" fill="#DBB1B4"/>
</g>
<rect x="34.5005" y="86.498" width="71.0741" height="4.14599" rx="2.07299" fill="#F5F5F5"/>
<path d="M40.4233 90.6465H99.6517L97.8777 93.9675C97.2169 95.2045 95.9284 95.977 94.5259 95.977H45.5491C44.1467 95.977 42.8582 95.2045 42.1974 93.9675L40.4233 90.6465Z" fill="#EFEFEF"/>
<path d="M61.4488 48C51.9723 48 44.8648 53.7254 42.4957 56.5881C40.5214 58.4637 36.5136 64.2286 36.2767 72.2836C35.9859 82.1731 45.9796 85.4918 48.8612 86.4487L49.0128 86.4991H87.6505C97.5119 84.7895 103.797 80.6952 103.797 77.9103C103.797 75.7376 101.565 74.6807 98.973 73.4531C98.0321 73.0076 97.0438 72.5396 96.0974 71.9875C94.6654 71.1521 93.5032 69.3362 92.2653 67.1632C90.4619 66.05 89.2744 62.4875 87.6957 59.8342C86.9335 58.8784 86.0906 57.9775 85.1402 57.1804C77.5375 50.8044 73.2945 48 61.4488 48Z" fill="#F7F5F3"/>
<path d="M94.6164 57.3837L86.6206 63.3065L89.2859 67.1559C91.7537 65.3791 96.8079 61.7661 97.2817 61.5292C97.874 61.2331 97.874 61.2331 98.7624 61.2331C99.6509 61.2331 102.02 62.714 103.205 61.8254C104.389 60.9367 104.389 59.1601 103.501 57.6794C102.79 56.4948 101.23 56.199 100.539 56.1991C100.539 55.4094 100.421 53.6523 99.947 52.9415C99.3547 52.0531 97.5779 50.8685 95.801 52.0531C94.0242 53.2377 95.2087 55.6068 95.2087 56.1991C95.2087 56.6729 94.8139 57.1862 94.6164 57.3837Z" fill="#F5F5F5"/>
<path d="M64.7069 66.6587C60.9163 69.9755 61.7455 77.3198 62.6339 80.5774C66.1875 87.981 73.5913 87.6847 76.8489 87.3885C80.1064 87.0924 83.9563 84.4271 88.1023 74.9506C92.2483 65.474 93.1617 66.6337 94.0251 65.7703C95.2097 64.5857 94.3213 62.8092 92.8405 60.736C91.1152 58.3204 89.7804 58.7616 89.2868 58.959C88.2997 59.7487 85.5555 60.9135 80.1064 61.6243C73.2952 62.5127 69.4452 62.5127 64.7069 66.6587Z" fill="#FBFBFB"/>
<g opacity="0.2">
<circle cx="46.0489" cy="59.6383" r="0.7125" fill="#BEAC9F"/>
<circle cx="65.9991" cy="71.0387" r="0.7125" fill="#BEAC9F"/>
<circle cx="64.5738" cy="52.9879" r="0.7125" fill="#BEAC9F"/>
<circle cx="57.9239" cy="53.4625" r="0.7125" fill="#BEAC9F"/>
<circle cx="47.4737" cy="64.8629" r="0.7125" fill="#BEAC9F"/>
<circle cx="67.4239" cy="76.2633" r="0.7125" fill="#BEAC9F"/>
<circle cx="53.1739" cy="61.5387" r="0.7125" fill="#BEAC9F"/>
<circle cx="73.1241" cy="72.9371" r="0.7125" fill="#BEAC9F"/>
<circle cx="51.274" cy="55.3629" r="0.7125" fill="#BEAC9F"/>
<circle cx="71.2237" cy="66.7633" r="0.7125" fill="#BEAC9F"/>
<circle cx="41.2989" cy="66.7633" r="0.7125" fill="#BEAC9F"/>
</g>
<mask id="mask0_2691_45244" style="mask-type:alpha" maskUnits="userSpaceOnUse" x="21" y="32" width="98" height="109">
<path d="M31.5975 33.832C25.1254 35.5672 21.5864 41.7344 21.5864 41.7344V140.214H118.36V38.2395C118.36 38.2395 113.12 33.5372 104.491 35.2361C95.8615 36.9351 90.8627 38.6579 82.32 39.8118C73.6906 40.9774 62.3144 38.8069 55.2902 36.0349C47.8936 33.1158 39.6003 31.6863 31.5975 33.832Z" fill="#F34646"/>
</mask>
<g mask="url(#mask0_2691_45244)">
<path d="M61.4488 48C51.9723 48 44.8648 53.7254 42.4957 56.5881C40.5214 58.4637 36.5136 64.2286 36.2767 72.2836C35.9806 82.3525 46.3456 85.61 49.0108 86.4985C51.6761 87.3869 74.7752 88.2753 85.7324 86.7946C96.6897 85.3139 103.797 80.8718 103.797 77.9103C103.797 74.9489 99.6511 74.0605 96.0974 71.9875C92.5437 69.9145 90.652 61.8029 85.1402 57.1804C77.5375 50.8044 73.2945 48 61.4488 48Z" fill="url(#paint0_linear_2691_45244)"/>
<path d="M94.6164 57.3837L86.6206 63.3065L89.2859 67.1559C91.7537 65.3791 96.8079 61.7661 97.2817 61.5292C97.874 61.2331 97.874 61.2331 98.7624 61.2331C99.6509 61.2331 102.02 62.714 103.205 61.8254C104.389 60.9367 104.389 59.1601 103.501 57.6794C102.79 56.4948 101.23 56.199 100.539 56.1991C100.539 55.4094 100.421 53.6523 99.947 52.9415C99.3547 52.0531 97.5779 50.8685 95.801 52.0531C94.0242 53.2377 95.2087 55.6068 95.2087 56.1991C95.2087 56.6729 94.8139 57.1862 94.6164 57.3837Z" fill="url(#paint1_linear_2691_45244)"/>
<path d="M64.7069 66.6548C60.9163 69.9716 61.7455 77.3159 62.6339 80.5735C66.1875 87.9771 73.5913 87.6808 76.8489 87.3846C80.1064 87.0885 83.9563 84.4232 88.1023 74.9467C92.2483 65.4701 93.1617 66.6298 94.0251 65.7664C95.2097 64.5818 94.3213 62.8053 92.8405 60.7321C91.1152 58.3165 89.7804 58.7576 89.2868 58.9551C88.2997 59.7448 85.5555 60.9096 80.1064 61.6204C73.2952 62.5088 69.4452 62.5088 64.7069 66.6548Z" fill="url(#paint2_linear_2691_45244)"/>
<g filter="url(#filter3_f_2691_45244)">
<ellipse cx="70.9866" cy="69.7743" rx="2.20252" ry="4.20924" transform="rotate(63.313 70.9866 69.7743)" fill="#FFDBB9"/>
</g>
<g opacity="0.5">
<circle cx="46.0489" cy="59.6383" r="0.7125" fill="#B96121"/>
<circle cx="65.9991" cy="71.0387" r="0.7125" fill="#CA6215"/>
<circle cx="64.5738" cy="52.9879" r="0.7125" fill="#B96121"/>
<circle cx="57.9239" cy="53.4625" r="0.7125" fill="#B96121"/>
<circle cx="47.4737" cy="64.8629" r="0.7125" fill="#B96121"/>
<circle cx="67.4239" cy="76.2633" r="0.7125" fill="#CA6215"/>
<circle cx="53.1739" cy="61.5387" r="0.7125" fill="#B96121"/>
<circle cx="73.1241" cy="72.9371" r="0.7125" fill="#CA6215"/>
<circle cx="51.274" cy="55.3629" r="0.7125" fill="#B96121"/>
<circle cx="71.2237" cy="66.7633" r="0.7125" fill="#CA6215"/>
<circle cx="41.2989" cy="66.7633" r="0.7125" fill="#B96121"/>
</g>
<rect x="34.5005" y="86.498" width="71.0741" height="4.14599" rx="2.07299" fill="url(#paint3_linear_2691_45244)"/>
<path d="M40.4233 90.6465H99.6517L97.8777 93.9675C97.2169 95.2045 95.9284 95.977 94.5259 95.977H45.5491C44.1467 95.977 42.8582 95.2045 42.1974 93.9675L40.4233 90.6465Z" fill="#CECCCB"/>
</g>
<path d="M28.8069 135.359H27.3382V121.32H28.8069V135.359ZM31.0647 128.039H28.471V126.797H31.0647V128.039ZM19.6194 130.758C21.0153 130.763 22.2028 130.734 23.1819 130.672C24.1663 130.604 25.1611 130.479 26.1663 130.297L26.3147 131.508C25.2835 131.69 24.2601 131.818 23.2444 131.891C22.234 131.964 21.0257 132.003 19.6194 132.008H18.4866V130.758H19.6194ZM24.8538 127.734H19.9554V131.25H18.4866V126.531H23.3851V123.797H18.4554V122.586H24.8538V127.734ZM43.1304 135.359H41.6382V121.32H43.1304V135.359ZM35.6304 122.375C36.3283 122.375 36.9507 122.578 37.4976 122.984C38.0444 123.391 38.4715 123.964 38.7788 124.703C39.0861 125.443 39.2397 126.305 39.2397 127.289C39.2397 128.279 39.0861 129.143 38.7788 129.883C38.4715 130.622 38.0444 131.195 37.4976 131.602C36.9507 132.003 36.3283 132.203 35.6304 132.203C34.9325 132.203 34.3075 132.003 33.7554 131.602C33.2085 131.195 32.7814 130.622 32.4741 129.883C32.1668 129.143 32.0132 128.279 32.0132 127.289C32.0132 126.305 32.1668 125.443 32.4741 124.703C32.7814 123.964 33.2085 123.391 33.7554 122.984C34.3075 122.578 34.9325 122.375 35.6304 122.375ZM35.6304 123.703C35.2033 123.703 34.8231 123.849 34.4897 124.141C34.1564 124.432 33.8986 124.849 33.7163 125.391C33.5392 125.927 33.4507 126.56 33.4507 127.289C33.4507 128.013 33.5392 128.646 33.7163 129.188C33.8986 129.729 34.1564 130.146 34.4897 130.438C34.8231 130.724 35.2033 130.867 35.6304 130.867C36.0575 130.867 36.4351 130.724 36.7632 130.438C37.0965 130.146 37.3543 129.729 37.5366 129.188C37.7189 128.646 37.8101 128.013 37.8101 127.289C37.8101 126.56 37.7189 125.927 37.5366 125.391C37.3543 124.849 37.0991 124.432 36.771 124.141C36.4429 123.849 36.0627 123.703 35.6304 123.703ZM57.9694 133.586H45.1569V132.336H57.9694V133.586ZM56.7976 123.883H46.2429V122.672H56.7976V123.883ZM56.7585 129.75H46.2897V128.562H56.7585V129.75ZM49.8444 128.695H48.3679V123.773H49.8444V128.695ZM54.6647 128.695H53.2038V123.773H54.6647V128.695ZM71.5976 133.648H58.7851V132.422H71.5976V133.648ZM65.8866 132.945H64.4335V129.531H65.8866V132.945ZM70.0272 126.688H61.8241V129.375H60.3476V125.5H68.5663V123.531H60.3241V122.32H70.0272V126.688ZM70.3554 129.953H60.3476V128.734H70.3554V129.953ZM82.8272 123.961H73.7804V122.75H82.8272V123.961ZM85.1788 133.336H72.4132V132.117H85.1788V133.336ZM83.5069 124.414C83.5069 125.185 83.4991 125.87 83.4835 126.469C83.4679 127.068 83.421 127.75 83.3429 128.516C83.2647 129.281 83.1476 130.117 82.9913 131.023L81.4835 130.883C81.6606 130.008 81.7882 129.185 81.8663 128.414C81.9496 127.643 81.9991 126.956 82.0147 126.352C82.0304 125.747 82.0382 125.044 82.0382 124.242V122.75H83.5069V124.242V124.414ZM96.0679 130.133C97.0835 130.133 97.9611 130.234 98.7007 130.438C99.4403 130.635 100.011 130.93 100.412 131.32C100.813 131.711 101.013 132.18 101.013 132.727C101.013 133.258 100.813 133.716 100.412 134.102C100.011 134.487 99.4377 134.784 98.6929 134.992C97.9481 135.201 97.0731 135.305 96.0679 135.305C95.0679 135.305 94.1981 135.201 93.4585 134.992C92.7189 134.784 92.1486 134.487 91.7476 134.102C91.3465 133.716 91.146 133.258 91.146 132.727C91.146 132.185 91.3465 131.719 91.7476 131.328C92.1486 130.932 92.7189 130.635 93.4585 130.438C94.1981 130.234 95.0679 130.133 96.0679 130.133ZM96.0679 131.25C95.3647 131.25 94.7528 131.31 94.2319 131.43C93.7111 131.544 93.3101 131.714 93.0288 131.938C92.7528 132.156 92.6147 132.419 92.6147 132.727C92.6147 133.018 92.7528 133.273 93.0288 133.492C93.3101 133.706 93.7111 133.87 94.2319 133.984C94.7528 134.094 95.3647 134.148 96.0679 134.148C96.7814 134.148 97.396 134.094 97.9116 133.984C98.4325 133.87 98.8335 133.703 99.1147 133.484C99.396 133.266 99.5366 133.013 99.5366 132.727C99.5366 132.419 99.396 132.156 99.1147 131.938C98.8335 131.714 98.4325 131.544 97.9116 131.43C97.396 131.31 96.7814 131.25 96.0679 131.25ZM100.287 123.203H91.2554V122.016H100.287V123.203ZM102.498 128.969H89.771V127.766H102.498V128.969ZM96.3335 128.117H94.8726V125.141H96.3335V128.117ZM100.919 123.18C100.919 123.94 100.896 124.591 100.849 125.133C100.807 125.669 100.698 126.263 100.521 126.914L99.0679 126.75C99.2293 126.125 99.3309 125.562 99.3726 125.062C99.4142 124.557 99.4377 123.971 99.4429 123.305V123.18V122.016H100.919V123.18ZM108.079 135.32H106.548V130.031H108.079V135.32ZM112.923 135.32H111.423V130.031H112.923V135.32ZM116.173 130.453H103.36V129.242H116.173V130.453ZM109.735 121.852C110.719 121.852 111.589 121.979 112.344 122.234C113.1 122.484 113.683 122.844 114.094 123.312C114.511 123.776 114.719 124.32 114.719 124.945C114.719 125.555 114.511 126.091 114.094 126.555C113.683 127.013 113.1 127.367 112.344 127.617C111.589 127.867 110.719 127.992 109.735 127.992C108.751 127.992 107.883 127.867 107.133 127.617C106.383 127.367 105.798 127.013 105.376 126.555C104.959 126.091 104.751 125.555 104.751 124.945C104.751 124.32 104.959 123.776 105.376 123.312C105.792 122.844 106.376 122.484 107.126 122.234C107.881 121.979 108.751 121.852 109.735 121.852ZM109.735 123.055C109.042 123.055 108.436 123.13 107.915 123.281C107.394 123.432 106.99 123.651 106.704 123.938C106.423 124.224 106.282 124.56 106.282 124.945C106.282 125.326 106.423 125.656 106.704 125.938C106.99 126.214 107.394 126.43 107.915 126.586C108.436 126.737 109.042 126.812 109.735 126.812C110.428 126.812 111.037 126.737 111.563 126.586C112.089 126.43 112.493 126.214 112.774 125.938C113.061 125.656 113.204 125.326 113.204 124.945C113.204 124.56 113.061 124.224 112.774 123.938C112.493 123.651 112.089 123.432 111.563 123.281C111.037 123.13 110.428 123.055 109.735 123.055Z" fill="#B45B2B"/>
<defs>
<filter id="filter0_f_2691_45244" x="20.6366" y="78.8754" width="98.8" height="32.7746" filterUnits="userSpaceOnUse" color-interpolation-filters="sRGB">
<feFlood flood-opacity="0" result="BackgroundImageFix"/>
<feBlend mode="normal" in="SourceGraphic" in2="BackgroundImageFix" result="shape"/>
<feGaussianBlur stdDeviation="5.7" result="effect1_foregroundBlur_2691_45244"/>
</filter>
<filter id="filter1_f_2691_45244" x="31.0865" y="85.0504" width="77.9002" height="20.4246" filterUnits="userSpaceOnUse" color-interpolation-filters="sRGB">
<feFlood flood-opacity="0" result="BackgroundImageFix"/>
<feBlend mode="normal" in="SourceGraphic" in2="BackgroundImageFix" result="shape"/>
<feGaussianBlur stdDeviation="3.8" result="effect1_foregroundBlur_2691_45244"/>
</filter>
<filter id="filter2_f_2691_45244" x="42.0116" y="92.6508" width="56.05" height="5.22578" filterUnits="userSpaceOnUse" color-interpolation-filters="sRGB">
<feFlood flood-opacity="0" result="BackgroundImageFix"/>
<feBlend mode="normal" in="SourceGraphic" in2="BackgroundImageFix" result="shape"/>
<feGaussianBlur stdDeviation="0.95" result="effect1_foregroundBlur_2691_45244"/>
</filter>
<filter id="filter3_f_2691_45244" x="55.6972" y="55.6449" width="30.5793" height="28.259" filterUnits="userSpaceOnUse" color-interpolation-filters="sRGB">
<feFlood flood-opacity="0" result="BackgroundImageFix"/>
<feBlend mode="normal" in="SourceGraphic" in2="BackgroundImageFix" result="shape"/>
<feGaussianBlur stdDeviation="5.7" result="effect1_foregroundBlur_2691_45244"/>
</filter>
<linearGradient id="paint0_linear_2691_45244" x1="70.0338" y1="48" x2="70.0338" y2="87.5866" gradientUnits="userSpaceOnUse">
<stop stop-color="#E68138"/>
<stop offset="1" stop-color="#C45D12"/>
</linearGradient>
<linearGradient id="paint1_linear_2691_45244" x1="95.3773" y1="51.5547" x2="95.3773" y2="67.1559" gradientUnits="userSpaceOnUse">
<stop stop-color="#F8F0EA"/>
<stop offset="1" stop-color="#DFD3CA"/>
</linearGradient>
<linearGradient id="paint2_linear_2691_45244" x1="78.2287" y1="58.791" x2="78.2287" y2="87.5008" gradientUnits="userSpaceOnUse">
<stop stop-color="#F5893B"/>
<stop offset="1" stop-color="#D66E24"/>
</linearGradient>
<linearGradient id="paint3_linear_2691_45244" x1="70.0375" y1="86.498" x2="70.0375" y2="90.644" gradientUnits="userSpaceOnUse">
<stop stop-color="#EAE9E9"/>
<stop offset="1" stop-color="#D7D5D5"/>
</linearGradient>
</defs>
</svg>
