<svg width="81" height="80" viewBox="0 0 81 80" fill="none" xmlns="http://www.w3.org/2000/svg">
<ellipse cx="40.5" cy="40" rx="40" ry="40" fill="#BBEDED"/>
<path d="M30.6597 26.2374C30.1897 23.4099 28.7297 20.7074 26.4397 18.9824C24.1497 17.2599 21.0122 16.6124 18.3047 17.5524C15.8972 18.3874 14.0372 20.3299 12.5747 22.4149C10.1047 25.9349 8.46967 30.3999 9.63217 34.5399C10.0147 34.0949 10.3947 33.6474 10.7772 33.2024C10.9697 34.2299 10.9272 35.2999 10.6572 36.3074C10.9047 36.0849 11.1547 35.8624 11.4022 35.6424C11.7547 37.9424 14.1822 39.4624 16.5047 39.5874C18.8272 39.7124 21.5172 38.9174 23.6597 38.0074L30.6597 26.2374Z" fill="#A49DAA"/>
<path d="M50.7373 26.9699C50.2848 24.1699 51.3248 21.1724 53.4148 19.2549C55.5048 17.3374 58.5798 16.5574 61.3298 17.2474C63.2848 17.7374 65.0123 18.9024 66.4898 20.2749C68.9773 22.5824 70.8948 25.6149 71.4073 28.9699C71.9198 32.3249 70.8823 35.9899 68.3398 38.2374C68.2598 37.6724 68.1823 37.1049 68.1023 36.5399C67.6473 36.7649 67.3098 37.2149 67.2223 37.7149C67.1398 37.2274 66.4698 37.0574 66.0198 37.2624C65.5698 37.4674 65.2723 37.8949 64.9298 38.2549C63.6873 39.5574 61.7298 39.9674 59.9448 39.7524C58.1573 39.5374 56.4898 38.7774 54.8523 38.0274L50.7373 26.9724V26.9699Z" fill="#A49DAA"/>
<path d="M26.8752 29.3525C26.5177 27.9675 26.1077 26.5675 25.3127 25.38C24.5177 24.1925 23.2677 23.23 21.8427 23.1125C20.4077 22.9925 19.0002 23.755 18.0702 24.855C17.1402 25.955 16.6327 27.35 16.3152 28.755C16.0102 30.11 15.8852 31.6075 16.5652 32.82C17.4502 34.3975 19.4952 35.02 21.2877 34.765C23.0802 34.51 24.6852 33.5575 26.2352 32.6275L26.8777 29.355L26.8752 29.3525Z" fill="#F2B3CD"/>
<path d="M53.7027 29.3525C54.0602 27.9675 54.4702 26.5675 55.2652 25.38C56.0602 24.1925 57.3102 23.23 58.7352 23.1125C60.1702 22.9925 61.5777 23.755 62.5077 24.855C63.4377 25.9525 63.9452 27.35 64.2627 28.755C64.5677 30.11 64.6927 31.6075 64.0127 32.82C63.1277 34.3975 61.0827 35.02 59.2902 34.765C57.4977 34.51 55.8927 33.5575 54.3427 32.6275L53.7002 29.355L53.7027 29.3525Z" fill="#F2B3CD"/>
<path d="M29.8675 26.2627C26.93 28.2827 24.865 31.3802 23.5075 34.6777C22.15 37.9752 21.4425 41.4977 20.74 44.9927C20.15 47.9402 19.56 51.0077 20.3 53.9227C21.2775 57.7777 24.5075 60.7702 28.165 62.3302C31.8225 63.8902 35.885 64.2077 39.86 64.2327C42.885 64.2527 45.9125 64.1152 48.9225 63.8252C51.4475 63.5802 54.0425 63.2002 56.22 61.8952C59.8025 59.7477 61.5325 55.3827 61.655 51.2102C61.8525 44.4502 58.44 38.7777 56.06 33.2927C54.0175 28.5852 51.64 25.1152 45.1175 23.8127C39.9875 22.7877 34.3675 23.1702 29.87 26.2627H29.8675Z" fill="#A49DAA"/>
<path d="M57.1097 41.2501C57.8722 42.9301 57.8397 44.9226 56.9622 46.5526C56.0847 48.1826 54.3572 49.4051 52.4272 49.6976C50.4972 49.9901 48.4172 49.3126 47.1447 47.9276C45.7397 46.3976 45.4122 44.2301 45.6122 42.2226C45.7097 41.2526 46.1022 40.3451 46.7347 39.5726C47.5247 38.6101 48.6672 38.0576 49.9497 37.8726C51.6647 37.6276 53.5147 37.8276 54.9522 38.7351C55.9172 39.3451 56.6522 40.2476 57.1072 41.2501H57.1097Z" fill="#CEC7D3"/>
<path d="M37.4899 48.9427C36.1949 48.6577 34.8474 49.4952 34.1924 50.6477C33.5374 51.8002 33.4474 53.1877 33.5274 54.5102C33.6049 55.8077 33.8524 57.1452 34.6224 58.1927C35.4624 59.3377 36.8399 59.9977 38.2349 60.2577C39.6324 60.5202 41.0674 60.4277 42.4849 60.3327C44.1274 60.2252 45.9224 60.0502 47.0874 58.8877C47.9424 58.0352 48.2849 56.8052 48.5174 55.6202C48.8724 53.8127 49.0249 51.8427 48.1624 50.2177C47.2999 48.5902 45.0874 47.5752 43.5324 48.5627L37.4924 48.9402L37.4899 48.9427Z" fill="#CEC7D3"/>
<path d="M25.1574 41.2501C24.3949 42.9301 24.4274 44.9226 25.3049 46.5526C26.1824 48.1826 27.9099 49.4051 29.8399 49.6976C31.7699 49.9876 33.8499 49.3126 35.1224 47.9276C36.5274 46.3976 36.8549 44.2301 36.6549 42.2226C36.5574 41.2526 36.3349 40.2551 35.7024 39.4826C34.9124 38.5201 33.5999 38.0551 32.3174 37.8726C30.6024 37.6276 28.7524 37.8276 27.3149 38.7351C26.3499 39.3451 25.6149 40.2476 25.1599 41.2501H25.1574Z" fill="#CEC7D3"/>
<path d="M37.5981 39.2301C36.6806 41.3201 36.1456 43.7401 35.9631 46.0126C35.7806 48.2876 36.0331 50.4576 37.6231 52.0926C39.2131 53.7276 41.9431 54.3251 43.8631 53.0951C44.9781 52.3801 45.7031 51.1576 46.0331 49.8726C46.3631 48.5876 46.3306 47.2376 46.1931 45.9201C45.9656 43.7401 45.4506 41.5976 44.8006 39.5051C44.4931 38.5176 44.1281 37.4951 43.3681 36.7951C42.3256 35.8351 40.6056 35.7226 39.4456 36.5326C38.5406 37.1651 38.0406 38.2176 37.5956 39.2276L37.5981 39.2301Z" fill="#3E3944"/>
<path d="M43.1104 54.995C43.3704 55.02 43.4854 55.3375 43.4929 55.5975C43.5154 56.365 43.0729 57.13 42.3954 57.49C41.7179 57.85 40.8354 57.7925 40.2129 57.345C39.5879 56.8975 39.2504 56.0825 39.3754 55.3225C39.4079 55.1325 39.5004 54.9125 39.6929 54.885C39.8304 54.865 39.9604 54.96 40.0329 55.0775C40.1029 55.195 40.1279 55.335 40.1554 55.47C40.2279 55.815 40.3479 56.16 40.5754 56.43C40.8004 56.7025 41.1479 56.89 41.5004 56.855C42.0579 56.8 42.4254 56.235 42.5654 55.6925C42.6054 55.535 42.6354 55.3725 42.7179 55.2325C42.8004 55.0925 42.9504 54.98 43.1129 54.995H43.1104Z" fill="#603218"/>
<path d="M32.5702 44.795C32.5377 44.9325 32.4877 45.0725 32.3852 45.1675C32.1702 45.365 31.7977 45.28 31.6052 45.0575C31.4127 44.835 31.3577 44.53 31.3327 44.2375C31.3077 43.945 31.3002 43.6425 31.1777 43.3775C31.0177 43.0275 30.6502 42.7775 30.2652 42.7575C29.8802 42.7375 29.4902 42.945 29.2927 43.2775C29.1377 43.5375 29.1027 43.85 29.0577 44.1475C29.0127 44.4475 28.9477 44.76 28.7502 44.99C28.5552 45.22 28.1852 45.3325 27.9402 45.155C27.7777 45.0375 27.7102 44.83 27.6752 44.6325C27.5027 43.6575 27.9702 42.6 28.8102 42.0725C29.6477 41.545 30.8052 41.585 31.6077 42.1625C32.4102 42.7425 32.8102 43.83 32.5727 44.79L32.5702 44.795Z" fill="#603218"/>
<path d="M49.6974 44.795C49.7299 44.9325 49.7799 45.0725 49.8824 45.1675C50.0974 45.365 50.4699 45.28 50.6624 45.0575C50.8549 44.8375 50.9099 44.53 50.9349 44.2375C50.9599 43.945 50.9674 43.6425 51.0899 43.3775C51.2499 43.0275 51.6174 42.7775 52.0024 42.7575C52.3874 42.7375 52.7774 42.945 52.9749 43.2775C53.1299 43.5375 53.1649 43.85 53.2099 44.1475C53.2549 44.445 53.3199 44.76 53.5174 44.99C53.7124 45.22 54.0824 45.3325 54.3274 45.155C54.4899 45.0375 54.5574 44.83 54.5924 44.6325C54.7649 43.6575 54.2974 42.6 53.4574 42.0725C52.6199 41.545 51.4624 41.585 50.6599 42.1625C49.8574 42.7425 49.4574 43.83 49.6949 44.79L49.6974 44.795Z" fill="#603218"/>
<path d="M58.2999 51.6753C58.1774 51.1753 57.8699 50.8253 57.5549 50.5703C56.5699 49.7778 55.3449 49.6753 54.3049 50.3003C53.9249 50.5303 53.5599 50.8628 53.3199 51.3578C53.0799 51.8528 52.9824 52.5303 53.1474 53.0903C53.3949 53.9303 54.0899 54.2153 54.6974 54.3678C55.2449 54.5053 55.7999 54.6203 56.3524 54.5478C56.9049 54.4753 57.4599 54.2028 57.8699 53.6453C58.2349 53.1503 58.4699 52.3603 58.2999 51.6703V51.6753Z" fill="#F2B3CD"/>
<path d="M23.1618 51.6753C23.2843 51.1753 23.5918 50.8253 23.9068 50.5703C24.8918 49.7778 26.1168 49.6753 27.1568 50.3003C27.5368 50.5303 27.9018 50.8628 28.1418 51.3578C28.3818 51.8528 28.4793 52.5303 28.3143 53.0903C28.0668 53.9303 27.3718 54.2153 26.7643 54.3678C26.2168 54.5053 25.6618 54.6203 25.1093 54.5478C24.5568 54.4753 24.0018 54.2028 23.5918 53.6453C23.2268 53.1503 22.9918 52.3603 23.1618 51.6703V51.6753Z" fill="#F2B3CD"/>
<path d="M38.3329 47.2226C38.7804 47.2601 39.0879 46.7901 39.2629 46.3776C40.0779 44.4601 40.3779 42.3301 40.1254 40.2626C40.0879 39.9476 40.0029 39.5876 39.7179 39.4476C39.4779 39.3301 39.1779 39.4276 38.9854 39.6126C38.7929 39.7976 38.6854 40.0501 38.5879 40.2976C38.0954 41.5526 37.7429 42.8651 37.5404 44.1976C37.4229 44.9676 37.3579 45.7726 37.6179 46.5051C37.7379 46.8426 37.9778 47.1926 38.3353 47.2201L38.3329 47.2226Z" fill="#5F5A66"/>
<path d="M40.1898 49.5654C40.0423 49.2004 39.7848 48.8629 39.4248 48.7054C39.0648 48.5454 38.5973 48.6029 38.3398 48.9004C38.3548 49.3329 38.3723 49.7704 38.4898 50.1879C38.6073 50.6054 38.8348 51.0054 39.1923 51.2479C39.4548 51.4254 39.8298 51.4979 40.0773 51.2979C40.2348 51.1704 40.3023 50.9604 40.3323 50.7579C40.3948 50.3579 40.3448 49.9404 40.1948 49.5654H40.1898Z" fill="#5F5A66"/>
</svg>
