<svg width="24" height="24" viewBox="0 0 24 24" fill="none" xmlns="http://www.w3.org/2000/svg">
<rect width="24" height="24" rx="4.8" fill="#F8F8F8"/>
<rect x="9.59863" y="4.80078" width="4.8" height="1.5" rx="0.75" fill="#52728E"/>
<rect x="11.2485" y="6.30078" width="1.5" height="1.8" fill="#37526B"/>
<path d="M17.3985 13.1973C17.3985 16.1796 14.9809 18.5973 11.9985 18.5973C9.0162 18.5973 6.59854 16.1796 6.59854 13.1973C6.59854 10.2149 9.0162 7.79727 11.9985 7.79727C14.9809 7.79727 17.3985 10.2149 17.3985 13.1973Z" fill="url(#paint0_linear_2853_8852)" stroke="#3B5A77" stroke-width="1.2"/>
<path d="M9.62915 15.5651C9.46513 15.7291 9.46383 15.9971 9.64506 16.1419C10.018 16.4398 10.445 16.665 10.9042 16.8043C11.4977 16.9843 12.1264 17.0152 12.7347 16.8942C13.343 16.7732 13.9121 16.5041 14.3915 16.1106C14.871 15.7172 15.246 15.2115 15.4833 14.6385C15.7207 14.0655 15.813 13.4428 15.7522 12.8256C15.6914 12.2084 15.4794 11.6157 15.1348 11.1C14.7902 10.5843 14.3238 10.1615 13.7768 9.86915C13.3537 9.64298 12.8924 9.50023 12.4181 9.44719C12.1876 9.42141 11.999 9.61187 11.999 9.84383L11.999 13.0213C11.999 13.1327 11.9547 13.2395 11.876 13.3183L9.62915 15.5651Z" fill="url(#paint1_linear_2853_8852)"/>
<defs>
<linearGradient id="paint0_linear_2853_8852" x1="11.9985" y1="7.19727" x2="11.9985" y2="19.1973" gradientUnits="userSpaceOnUse">
<stop stop-color="#F4F5F7"/>
<stop offset="1" stop-color="#E7EAED"/>
</linearGradient>
<linearGradient id="paint1_linear_2853_8852" x1="11.9986" y1="9.29609" x2="11.9986" y2="17.0961" gradientUnits="userSpaceOnUse">
<stop stop-color="#FF8188"/>
<stop offset="1" stop-color="#F4616A"/>
</linearGradient>
</defs>
</svg>
