<svg width="81" height="80" viewBox="0 0 81 80" fill="none" xmlns="http://www.w3.org/2000/svg">
<circle cx="40.5" cy="40" r="40" fill="#FFF9EA"/>
<path fill-rule="evenodd" clip-rule="evenodd" d="M64.5 28C71.4036 28 77 22.4036 77 15.5C77 8.59644 71.4036 3 64.5 3C57.5964 3 52 8.59644 52 15.5C52 18.334 52.9431 20.9477 54.5326 23.0444C54.515 23.099 54.5017 23.1562 54.4931 23.216L54.015 26.5693C53.9064 27.3314 54.6635 27.9254 55.3778 27.6384L58.4117 26.4197C60.2133 27.4263 62.2896 28 64.5 28Z" fill="#3B4A65"/>
<path d="M63.7693 9.9645C63.8476 9.23556 64.5265 8.72519 65.2485 8.85251L66.3216 9.04172C67.0436 9.16903 67.507 9.88085 67.3313 10.5926L65.6885 17.2484C65.5289 17.8954 64.8952 18.308 64.2389 18.1922L64.0761 18.1635C63.4199 18.0478 62.9655 17.4434 63.0367 16.7808L63.7693 9.9645Z" fill="white"/>
<rect width="2.53314" height="2.53328" rx="1.26657" transform="matrix(0.984806 0.173658 -0.173638 0.98481 62.7188 19.0391)" fill="white"/>
<path d="M36.8438 50.4023H43.5295V63.7738C43.5295 65.0046 42.5317 66.0023 41.3009 66.0023H39.0723C37.8415 66.0023 36.8438 65.0046 36.8438 63.7738V50.4023Z" fill="url(#paint0_linear_2035_144176)"/>
<path d="M36.8438 59.3125H43.5295V63.7696C43.5295 65.0004 42.5317 65.9982 41.3009 65.9982H39.0723C37.8415 65.9982 36.8438 65.0004 36.8438 63.7696V59.3125Z" fill="#F9CB16"/>
<mask id="mask0_2035_144176" style="mask-type:alpha" maskUnits="userSpaceOnUse" x="26" y="21" width="28" height="37">
<path d="M26.8164 25.8868C26.8164 23.4252 28.8119 21.4297 31.2735 21.4297H49.1021C51.5637 21.4297 53.5593 23.4252 53.5593 25.8868V45.944C53.5593 52.098 48.5704 57.0868 42.4164 57.0868H37.9593C31.8052 57.0868 26.8164 52.098 26.8164 45.944V25.8868Z" fill="url(#paint1_linear_2035_144176)"/>
</mask>
<g mask="url(#mask0_2035_144176)">
<path d="M26.8164 25.8868C26.8164 23.4252 28.8119 21.4297 31.2735 21.4297H49.1021C51.5637 21.4297 53.5593 23.4252 53.5593 25.8868V45.944C53.5593 52.098 48.5704 57.0868 42.4164 57.0868H37.9593C31.8052 57.0868 26.8164 52.098 26.8164 45.944V25.8868Z" fill="url(#paint2_linear_2035_144176)"/>
</g>
<rect x="31.2773" y="25.8867" width="17.8286" height="20.0571" rx="2.22857" fill="white"/>
<rect opacity="0.3" x="33.5" y="48.1719" width="13.3714" height="3.34286" rx="1.67143" fill="#09478A"/>
<rect x="35.5" y="35" width="4" height="2" fill="#F45757"/>
<rect x="40.5" y="35" width="4" height="2" fill="#F45757"/>
<defs>
<linearGradient id="paint0_linear_2035_144176" x1="40.1866" y1="50.4023" x2="40.1866" y2="60.1329" gradientUnits="userSpaceOnUse">
<stop stop-color="#09478B"/>
<stop offset="1" stop-color="#0E325A"/>
</linearGradient>
<linearGradient id="paint1_linear_2035_144176" x1="40.1878" y1="21.4297" x2="40.1878" y2="57.0868" gradientUnits="userSpaceOnUse">
<stop stop-color="#4889EA"/>
<stop offset="1" stop-color="#4068CF"/>
</linearGradient>
<linearGradient id="paint2_linear_2035_144176" x1="40.1878" y1="21.4297" x2="40.1878" y2="57.0868" gradientUnits="userSpaceOnUse">
<stop stop-color="#4889EA"/>
<stop offset="1" stop-color="#4068CF"/>
</linearGradient>
</defs>
</svg>
