<svg width="24" height="24" viewBox="0 0 24 24" fill="none" xmlns="http://www.w3.org/2000/svg">
<g id="visual icon/40/bluetooth">
<rect width="24" height="24" rx="4.8" fill="#F8F8F8"/>
<g id="Group 1261165717">
<rect id="Rectangle Copy 288" x="5.40137" y="5.40234" width="13.2" height="13.2" rx="2.3" fill="url(#paint0_linear_2853_8721)"/>
<rect id="Rectangle Copy 291" x="7.80127" y="9.00195" width="2.1" height="4.8" rx="0.6" fill="white"/>
<rect id="Rectangle Copy 292" x="11.1016" y="10.2031" width="2.1" height="4.8" rx="0.6" fill="white"/>
<rect id="Rectangle Copy 293" x="14.4014" y="8.40234" width="2.1" height="3.6" rx="0.6" fill="white"/>
</g>
<g id="&#235;&#143;&#139;&#235;&#179;&#180;&#234;&#184;&#176;">
<path id="Vector" d="M18.7729 18.4257C19.0072 18.66 19.3871 18.66 19.6215 18.4257C19.8558 18.1913 19.8558 17.8114 19.6215 17.5771L18.7729 18.4257ZM17.0586 16.7114L18.7729 18.4257L19.6215 17.5771L17.9072 15.8628L17.0586 16.7114Z" fill="#3470A8"/>
<circle id="Ellipse 337" cx="15.5986" cy="14.4023" r="3" fill="url(#paint1_linear_2853_8721)" fill-opacity="0.5" stroke="#3470A8" stroke-width="1.2" stroke-miterlimit="10" stroke-linecap="round"/>
</g>
</g>
<defs>
<linearGradient id="paint0_linear_2853_8721" x1="12.0014" y1="5.40234" x2="12.0014" y2="18.6023" gradientUnits="userSpaceOnUse">
<stop stop-color="#68B7FF"/>
<stop offset="1" stop-color="#4FA7F8"/>
</linearGradient>
<linearGradient id="paint1_linear_2853_8721" x1="13.7986" y1="12.3023" x2="17.9986" y2="16.5023" gradientUnits="userSpaceOnUse">
<stop stop-color="#F8FCFF"/>
<stop offset="1" stop-color="#EDF7FF" stop-opacity="0"/>
</linearGradient>
</defs>
</svg>
