<svg width="220" height="121" viewBox="0 0 220 121" fill="none" xmlns="http://www.w3.org/2000/svg">
<g filter="url(#filter0_i_4800_55913)">
<rect x="14" y="80" width="48" height="40" fill="#FDC901"/>
</g>
<g filter="url(#filter1_i_4800_55913)">
<path d="M62 60L110 60L110 120H62L62 60Z" fill="#FBB001"/>
</g>
<g filter="url(#filter2_i_4800_55913)">
<rect x="110" y="40" width="48" height="80" fill="#FDA801"/>
</g>
<g filter="url(#filter3_i_4800_55913)">
<rect x="158" y="20" width="48" height="100" fill="#FD9801"/>
</g>
<path d="M30.7754 64.7422V70.7979H29.7852V64.7422H30.7754ZM21.7236 67.8906C21.7173 66.3481 22.9678 65.2881 24.6816 65.3008C26.3955 65.2881 27.6333 66.3481 27.6396 67.8906C27.6333 69.4268 26.3955 70.4868 24.6816 70.4805C22.9678 70.4868 21.7173 69.4268 21.7236 67.8906ZM22.7012 67.8906C22.6885 68.9189 23.52 69.6489 24.6816 69.6553C25.8306 69.6489 26.6621 68.9189 26.6621 67.8906C26.6621 66.856 25.8306 66.1323 24.6816 66.1387C23.52 66.1323 22.6885 66.856 22.7012 67.8906ZM23.4629 75.876V71.3691H24.4531V72.7402H29.7852V71.3691H30.7754V75.876H23.4629ZM24.4531 75.0635H29.7852V73.54H24.4531V75.0635ZM42.8137 70.5186V71.3438H38.218V73.6543H37.2277V71.3438H32.4797V70.5186H42.8137ZM33.8 75.7871V72.5371H34.8029V74.9492H41.6584V75.7871H33.8ZM33.8254 69.2236V65.3008H41.468V69.2236H33.8254ZM34.8029 68.4238H40.4777V66.0879H34.8029V68.4238ZM47.349 68.208C47.3363 70.0171 48.6439 72.0103 50.2816 72.791L49.7104 73.5781C48.4408 72.9561 47.3681 71.623 46.8603 70.0933C46.3397 71.75 45.2099 73.21 43.9467 73.8574L43.3373 73.0703C44.9623 72.2769 46.3588 70.1313 46.3715 68.208V66.7354H43.7436V65.9102H49.8881V66.7354H47.349V68.208ZM51.2719 76.0283V64.7422H52.2621V69.3125H54.1537V70.1631H52.2621V76.0283H51.2719Z" fill="#444444"/>
<path d="M85.7402 50.0234V50.8486H81.0811V52.0547C83.2075 52.1499 84.4707 52.8418 84.4834 54.0352C84.4707 55.2983 83.0171 56.0029 80.5986 56.0029C78.1484 56.0029 76.6948 55.2983 76.7012 54.0352C76.6948 52.8418 77.9517 52.1499 80.1035 52.0547V50.8486H75.457V50.0234H85.7402ZM76.041 48.5508C77.9961 48.3477 79.8813 47.3511 79.9512 46.0879H76.3965V45.2754H84.8262V46.0879H81.2461C81.3159 47.3511 83.1821 48.3477 85.1689 48.5508L84.8008 49.3379C82.9536 49.1157 81.2207 48.2842 80.5986 47.0337C79.9766 48.2842 78.2563 49.1157 76.3965 49.3379L76.041 48.5508ZM77.7168 54.0352C77.7041 54.7842 78.7896 55.2349 80.5986 55.2285C82.3887 55.2349 83.4741 54.7842 83.4805 54.0352C83.4741 53.2671 82.3887 52.8291 80.5986 52.8164C78.7896 52.8291 77.7041 53.2671 77.7168 54.0352ZM88.8283 51.2041V52.7021H94.4777V51.2041H95.468V55.876H87.8381V51.2041H88.8283ZM86.4924 50.1885V49.3633H94.1794C94.4841 47.9604 94.4841 46.9512 94.4777 46.0879H87.8V45.2627H95.468V46.0879C95.468 46.9512 95.468 47.9541 95.1569 49.3633H96.8264V50.1885H86.4924ZM88.8283 55.0635H94.4777V53.4893H88.8283V55.0635Z" fill="#444444"/>
<path d="M132.509 25.8848V27.0146C132.496 28.3984 132.496 29.9473 132.09 32.2197L131.074 32.1055C131.5 29.9473 131.5 28.3667 131.506 27.0146V26.71H124.549V25.8848H132.509ZM123.457 34.4287V33.6035H127.494V29.5664H128.472V33.6035H133.74V34.4287H123.457ZM136.828 31.2041V32.7021H142.478V31.2041H143.468V35.876H135.838V31.2041H136.828ZM134.492 30.1885V29.3633H142.179C142.484 27.9604 142.484 26.9512 142.478 26.0879H135.8V25.2627H143.468V26.0879C143.468 26.9512 143.468 27.9541 143.157 29.3633H144.826V30.1885H134.492ZM136.828 35.0635H142.478V33.4893H136.828V35.0635Z" fill="#444444"/>
<path d="M169.316 6.875C169.316 8.44922 170.459 9.93457 172.109 10.5312L171.551 11.3057C170.313 10.8169 169.323 9.83936 168.84 8.60791C168.364 9.97266 167.336 11.0518 166.003 11.585L165.47 10.7725C167.165 10.1504 168.333 8.56982 168.339 6.83691V5.44043H169.316V6.875ZM167.514 15.7871V12.2451H168.517V14.9492H175.067V15.7871H167.514ZM171.297 8.24609V7.4082H173.811V4.75488H174.813V13.21H173.811V8.24609H171.297ZM182.154 5.7959C182.161 7.38916 184.23 8.76025 186.268 9.0459L185.862 9.8584C184.11 9.56641 182.37 8.59521 181.647 7.21143C180.923 8.60791 179.19 9.56641 177.432 9.8584L177.026 9.0459C179.063 8.76025 181.126 7.41455 181.126 5.7959V5.14844H182.154V5.7959ZM176.492 11.9404V11.1025H186.776V11.9404H182.104V16.0283H181.126V11.9404H176.492ZM189.864 11.2041V12.7021H195.513V11.2041H196.503V15.876H188.873V11.2041H189.864ZM187.528 10.1885V9.36328H195.215C195.519 7.96045 195.519 6.95117 195.513 6.08789H188.835V5.2627H196.503V6.08789C196.503 6.95117 196.503 7.9541 196.192 9.36328H197.862V10.1885H187.528ZM189.864 15.0635H195.513V13.4893H189.864V15.0635Z" fill="#444444"/>
<rect opacity="0.66" y="120" width="220" height="0.696864" fill="#CCCCCC"/>
<defs>
<filter id="filter0_i_4800_55913" x="14" y="80" width="48" height="40" filterUnits="userSpaceOnUse" color-interpolation-filters="sRGB">
<feFlood flood-opacity="0" result="BackgroundImageFix"/>
<feBlend mode="normal" in="SourceGraphic" in2="BackgroundImageFix" result="shape"/>
<feColorMatrix in="SourceAlpha" type="matrix" values="0 0 0 0 0 0 0 0 0 0 0 0 0 0 0 0 0 0 127 0" result="hardAlpha"/>
<feOffset/>
<feGaussianBlur stdDeviation="4.18118"/>
<feComposite in2="hardAlpha" operator="arithmetic" k2="-1" k3="1"/>
<feColorMatrix type="matrix" values="0 0 0 0 0 0 0 0 0 0 0 0 0 0 0 0 0 0 0.04 0"/>
<feBlend mode="normal" in2="shape" result="effect1_innerShadow_4800_55913"/>
</filter>
<filter id="filter1_i_4800_55913" x="62" y="60" width="48" height="60" filterUnits="userSpaceOnUse" color-interpolation-filters="sRGB">
<feFlood flood-opacity="0" result="BackgroundImageFix"/>
<feBlend mode="normal" in="SourceGraphic" in2="BackgroundImageFix" result="shape"/>
<feColorMatrix in="SourceAlpha" type="matrix" values="0 0 0 0 0 0 0 0 0 0 0 0 0 0 0 0 0 0 127 0" result="hardAlpha"/>
<feOffset/>
<feGaussianBlur stdDeviation="4.18118"/>
<feComposite in2="hardAlpha" operator="arithmetic" k2="-1" k3="1"/>
<feColorMatrix type="matrix" values="0 0 0 0 0 0 0 0 0 0 0 0 0 0 0 0 0 0 0.04 0"/>
<feBlend mode="normal" in2="shape" result="effect1_innerShadow_4800_55913"/>
</filter>
<filter id="filter2_i_4800_55913" x="110" y="40" width="48" height="80" filterUnits="userSpaceOnUse" color-interpolation-filters="sRGB">
<feFlood flood-opacity="0" result="BackgroundImageFix"/>
<feBlend mode="normal" in="SourceGraphic" in2="BackgroundImageFix" result="shape"/>
<feColorMatrix in="SourceAlpha" type="matrix" values="0 0 0 0 0 0 0 0 0 0 0 0 0 0 0 0 0 0 127 0" result="hardAlpha"/>
<feOffset/>
<feGaussianBlur stdDeviation="4.18118"/>
<feComposite in2="hardAlpha" operator="arithmetic" k2="-1" k3="1"/>
<feColorMatrix type="matrix" values="0 0 0 0 0 0 0 0 0 0 0 0 0 0 0 0 0 0 0.04 0"/>
<feBlend mode="normal" in2="shape" result="effect1_innerShadow_4800_55913"/>
</filter>
<filter id="filter3_i_4800_55913" x="158" y="20" width="48" height="100" filterUnits="userSpaceOnUse" color-interpolation-filters="sRGB">
<feFlood flood-opacity="0" result="BackgroundImageFix"/>
<feBlend mode="normal" in="SourceGraphic" in2="BackgroundImageFix" result="shape"/>
<feColorMatrix in="SourceAlpha" type="matrix" values="0 0 0 0 0 0 0 0 0 0 0 0 0 0 0 0 0 0 127 0" result="hardAlpha"/>
<feOffset/>
<feGaussianBlur stdDeviation="4.18118"/>
<feComposite in2="hardAlpha" operator="arithmetic" k2="-1" k3="1"/>
<feColorMatrix type="matrix" values="0 0 0 0 0 0 0 0 0 0 0 0 0 0 0 0 0 0 0.04 0"/>
<feBlend mode="normal" in2="shape" result="effect1_innerShadow_4800_55913"/>
</filter>
</defs>
</svg>
