<svg width="136" height="168" viewBox="0 0 136 168" fill="none" xmlns="http://www.w3.org/2000/svg">
<rect width="136" height="168" rx="20" fill="#FFF9EA"/>
<path d="M30.4734 131.516H28.9969V121.336H30.4734V131.516ZM30.8953 135.047H21.325V133.82H30.8953V135.047ZM22.8094 134.266H21.325V130.484H22.8094V134.266ZM22.8797 122.281C23.5776 122.281 24.2104 122.43 24.7781 122.727C25.351 123.018 25.799 123.43 26.1219 123.961C26.4448 124.487 26.6063 125.083 26.6063 125.75C26.6063 126.427 26.4448 127.029 26.1219 127.555C25.799 128.081 25.351 128.492 24.7781 128.789C24.2104 129.086 23.5776 129.234 22.8797 129.234C22.1818 129.234 21.549 129.086 20.9813 128.789C20.4188 128.492 19.9734 128.081 19.6453 127.555C19.3172 127.029 19.1531 126.427 19.1531 125.75C19.1531 125.083 19.3172 124.487 19.6453 123.961C19.9734 123.43 20.4188 123.018 20.9813 122.727C21.549 122.43 22.1818 122.281 22.8797 122.281ZM22.8797 123.578C22.4526 123.578 22.0646 123.669 21.7156 123.852C21.3667 124.034 21.0932 124.289 20.8953 124.617C20.7026 124.945 20.6063 125.323 20.6063 125.75C20.6063 126.177 20.7026 126.557 20.8953 126.891C21.0932 127.224 21.3667 127.482 21.7156 127.664C22.0646 127.846 22.4526 127.938 22.8797 127.938C23.3068 127.938 23.6922 127.846 24.0359 127.664C24.3797 127.482 24.6505 127.224 24.8484 126.891C25.0464 126.557 25.1453 126.177 25.1453 125.75C25.1453 125.323 25.0464 124.945 24.8484 124.617C24.6505 124.289 24.3797 124.034 24.0359 123.852C23.6922 123.669 23.3068 123.578 22.8797 123.578ZM44.0625 122.891H33.6641V121.742H44.0625V122.891ZM44 126.438H33.7266V125.297H44V126.438ZM37.1797 126.055H35.7031V122.18H37.1797V126.055ZM42.0234 126.055H40.5391V122.18H42.0234V126.055ZM45.2578 128.641H32.4922V127.461H45.2578V128.641ZM43.6406 132.93H35.5V134.508H34.0391V131.883H42.1875V130.836H34.0156V129.742H43.6406V132.93ZM44.0469 135.188H34.0391V134.07H44.0469V135.188ZM57.3938 125.656H49.1516V127.977H47.6594V124.516H55.8781V123.047H47.6281V121.844H57.3938V125.656ZM57.6984 128.461H47.6594V127.258H57.6984V128.461ZM58.9172 130.984H46.1047V129.797H58.9172V130.984ZM53.2219 135.359H51.7453V130.227H53.2219V135.359ZM70.5766 126.375H66.7875V125.156H70.5766V126.375ZM71.4203 131.625H69.9359V121.336H71.4203V131.625ZM71.7953 135.047H62.3266V133.82H71.7953V135.047ZM63.8188 134.375H62.3266V130.578H63.8188V134.375ZM63.6234 122.219C64.3057 122.219 64.9229 122.367 65.475 122.664C66.0271 122.961 66.4646 123.372 66.7875 123.898C67.1104 124.424 67.2719 125.026 67.2719 125.703C67.2719 126.37 67.1104 126.969 66.7875 127.5C66.4646 128.031 66.0271 128.448 65.475 128.75C64.9229 129.052 64.3057 129.203 63.6234 129.203C62.9255 129.203 62.2979 129.055 61.7406 128.758C61.1885 128.461 60.751 128.044 60.4281 127.508C60.1104 126.971 59.9516 126.37 59.9516 125.703C59.9516 125.026 60.1104 124.422 60.4281 123.891C60.751 123.359 61.1885 122.948 61.7406 122.656C62.2979 122.365 62.9255 122.219 63.6234 122.219ZM63.6234 123.516C63.1964 123.516 62.8109 123.609 62.4672 123.797C62.1286 123.979 61.8604 124.237 61.6625 124.57C61.4646 124.898 61.3656 125.276 61.3656 125.703C61.3656 126.125 61.4646 126.505 61.6625 126.844C61.8604 127.177 62.1286 127.44 62.4672 127.633C62.8109 127.82 63.1964 127.917 63.6234 127.922C64.0401 127.917 64.4177 127.82 64.7563 127.633C65.1 127.44 65.3682 127.177 65.5609 126.844C65.7536 126.505 65.85 126.125 65.85 125.703C65.85 125.276 65.7536 124.898 65.5609 124.57C65.3682 124.237 65.1 123.979 64.7563 123.797C64.4177 123.609 64.0401 123.516 63.6234 123.516ZM84.3219 127.18H80.4547V125.984H84.3219V127.18ZM78.1422 124.883C78.1422 125.956 77.9807 126.992 77.6578 127.992C77.3349 128.987 76.8792 129.87 76.2906 130.641C75.7021 131.411 75.0198 132.003 74.2438 132.414L73.2984 131.211C74.012 130.872 74.6422 130.372 75.1891 129.711C75.7411 129.044 76.1682 128.289 76.4703 127.445C76.7724 126.602 76.9234 125.747 76.9234 124.883V122.484H78.1422V124.883ZM78.4313 124.883C78.4313 125.742 78.5797 126.578 78.8766 127.391C79.1786 128.198 79.5979 128.917 80.1344 129.547C80.676 130.172 81.2958 130.643 81.9938 130.961L81.1031 132.164C80.3219 131.763 79.6396 131.195 79.0563 130.461C78.4781 129.721 78.0276 128.872 77.7047 127.914C77.387 126.951 77.2281 125.94 77.2281 124.883V122.484H78.4313V124.883ZM85.0563 135.359H83.5797V121.32H85.0563V135.359ZM102.055 128.984H92.3047V127.789H102.055V128.984ZM103.523 133.617H90.7109V132.391H103.523V133.617ZM97.8125 132.844H96.3594V128.32H97.8125V132.844ZM101.922 123.609H93.7969V128.336H92.3047V122.422H101.922V123.609ZM115.347 126.344H111.847V125.125H115.347V126.344ZM116.011 131.594H114.527V121.336H116.011V131.594ZM116.386 135.047H106.917V133.82H116.386V135.047ZM108.409 134.469H106.917V130.672H108.409V134.469ZM109.066 124.164C109.066 125.018 108.907 125.826 108.589 126.586C108.271 127.346 107.816 128.01 107.222 128.578C106.633 129.146 105.935 129.578 105.128 129.875L104.355 128.672C105.058 128.432 105.672 128.081 106.198 127.617C106.73 127.154 107.136 126.625 107.417 126.031C107.704 125.438 107.847 124.815 107.847 124.164V123.094H109.066V124.164ZM109.347 124.172C109.347 124.76 109.482 125.333 109.753 125.891C110.029 126.443 110.42 126.938 110.925 127.375C111.435 127.812 112.034 128.146 112.722 128.375L111.964 129.555C111.178 129.284 110.498 128.878 109.925 128.336C109.352 127.789 108.912 127.156 108.605 126.438C108.297 125.719 108.144 124.964 108.144 124.172V123.094H109.347V124.172ZM112.363 123.617H104.8V122.406H112.363V123.617Z" fill="#867445"/>
<mask id="mask0_2691_45429" style="mask-type:alpha" maskUnits="userSpaceOnUse" x="86" y="14" width="42" height="41">
<path d="M125.488 41.403C121.948 51.187 110.673 56.145 100.257 52.3759C89.8409 48.6069 84.3496 37.5826 87.8899 27.7986C91.4301 18.0146 102.704 13.0567 113.121 16.8257C123.537 20.5947 129.028 31.6191 125.488 41.403Z" fill="#D9D9D9" stroke="black" stroke-width="1.39408"/>
</mask>
<g mask="url(#mask0_2691_45429)">
<ellipse cx="106.689" cy="34.6008" rx="20.6889" ry="19.6" transform="rotate(19.8921 106.689 34.6008)" fill="#85B0F4"/>
<g clip-path="url(#clip0_2691_45429)">
<path d="M100.807 38.0748C85.7381 37.322 88.9682 26.1237 88.9682 26.1237C88.9682 26.1237 88.0443 23.8926 89.4357 19.3628C90.827 14.8329 96.3163 14.0234 98.0893 12.7681C99.8636 11.5133 99.7992 9.18238 105.65 9.48581C111.502 9.78925 115.33 16.8633 115.33 16.8633C115.33 16.8633 116.073 17.5445 117.677 18.1249C119.281 18.7054 121.288 21.8221 120.233 25.6465C119.179 29.4695 118.652 28.8752 118.098 32.9176C117.543 36.9586 111.795 43.0415 102.154 38.2344L100.808 38.0766L100.807 38.0748Z" fill="#E2E1EC"/>
<path d="M67.2715 55.9121C66.8712 60.845 69.0908 68.1101 69.0908 68.1101L52.5571 90.515C56.5672 98.8904 76.7333 106.071 76.7333 106.071L77.2133 104.745C97.2685 112.232 104.125 108.135 104.125 108.135L104.535 81.1655L112.376 73.8475C112.376 73.8475 115.659 74.3426 118.786 75.59C121.913 76.8374 128.267 83.5212 136.002 84.4735C143.738 85.4259 147.157 70.8705 147.157 70.8705L150.777 63.7398C143.614 61.841 138.88 52.9144 138.88 52.9144L132.088 66.9009C127.801 65.3497 121.092 56.46 115.93 52.8616C110.769 49.2632 98.8365 45.6858 98.8365 45.6858C98.8365 45.6858 81.6093 38.1869 73.4762 38.2102C65.3432 38.2335 53.4617 39.3484 53.4617 39.3484C53.4617 39.3484 57.5691 30.1338 60.8669 25.6539C60.8669 25.6539 56.9293 25.131 52.6829 26.1741C48.4377 27.2177 43.6674 24.7185 43.6674 24.7185C43.6674 24.7185 38.5837 39.1242 37.3558 42.1614C36.128 45.1986 36.6247 51.3092 42.1297 53.5588C47.6346 55.8084 59.9571 55.0936 62.8747 55.392C65.8476 55.6961 67.271 55.9134 67.271 55.9134L67.2715 55.9121Z" fill="white"/>
<path d="M101.668 50.9545L94.0115 58.8862L93.203 47.8915L97.6544 36.7328L99.8926 31.1251L107.258 33.79L104.485 42.3024L101.668 50.9545Z" fill="#FCD4BD"/>
<path d="M97.6543 36.7329C97.6543 36.7329 97.0674 40.5116 99.8238 41.509C103.311 42.7707 105.804 38.2558 105.804 38.2558C105.804 38.2558 104.016 36.9148 103.805 36.9358C103.595 36.9585 97.653 36.7324 97.653 36.7324L97.6543 36.7329Z" fill="#F8BD9F"/>
<path d="M108.401 17.0892C100.911 14.3789 99.0937 19.4004 96.8521 25.5953C94.6106 31.7901 97.3376 38.2268 100.357 39.3194C103.377 40.4121 109.591 37.2108 111.833 31.0159C114.075 24.821 115.891 19.7996 108.401 17.0892Z" fill="#FCD4BD"/>
<path d="M113.495 33.8878C112.028 35.1231 110.203 35.3721 109.42 34.4417C108.637 33.5113 109.192 31.7566 110.659 30.5195C112.126 29.2824 113.951 29.0351 114.734 29.9655C115.517 30.8959 114.963 32.6507 113.495 33.8878Z" fill="#FCD4BD"/>
<path d="M111.067 33.7341C111.025 33.719 110.988 33.6925 110.957 33.6572C110.869 33.5494 110.885 33.3905 110.993 33.3021C112.503 32.0691 111.944 30.9264 111.918 30.8785C111.854 30.7551 111.903 30.6039 112.025 30.5393C112.148 30.4747 112.3 30.5212 112.364 30.6446C112.372 30.6606 113.152 32.1896 111.311 33.6922C111.24 33.7509 111.147 33.763 111.066 33.7337L111.067 33.7341Z" fill="#E28065"/>
<path d="M93.7365 26.7367C94.074 28.6253 95.3165 29.9839 96.5136 29.7701C97.7108 29.5562 98.4073 27.8527 98.0715 25.9633C97.7339 24.0746 96.4915 22.716 95.2944 22.9299C94.0972 23.1438 93.4007 24.8472 93.7365 26.7367Z" fill="#FCD4BD"/>
<path d="M95.7003 28.1706C95.6193 28.1413 95.5554 28.0724 95.5381 27.9817C95.0862 25.6494 96.6631 24.9716 96.6794 24.9661C96.809 24.9128 96.9556 24.9744 97.0077 25.1035C97.0603 25.2313 96.9999 25.3784 96.8716 25.4322C96.8122 25.4579 95.663 25.9826 96.0333 27.8874C96.0597 28.0244 95.9703 28.1567 95.8333 28.183C95.7871 28.192 95.7416 28.187 95.6999 28.1719L95.7003 28.1706Z" fill="#E28065"/>
<path d="M100.305 23.8644C100.589 23.6966 100.856 23.643 101.144 23.6056C101.428 23.5737 101.712 23.5848 101.99 23.6195C102.549 23.6887 103.085 23.8583 103.594 24.0727L103.598 24.074C103.833 24.1733 103.943 24.4435 103.845 24.6786C103.745 24.9133 103.475 25.0231 103.24 24.9251C103.214 24.9142 103.187 24.9003 103.166 24.8853C102.755 24.6151 102.32 24.3859 101.86 24.2396C101.63 24.1665 101.395 24.1128 101.157 24.0957C100.928 24.077 100.667 24.0985 100.483 24.1624L100.45 24.1747C100.36 24.2065 100.262 24.1597 100.23 24.0695C100.203 23.9908 100.235 23.9052 100.305 23.8644Z" fill="white"/>
<path d="M109.959 27.5895C109.86 27.4234 109.672 27.2394 109.484 27.1068C109.29 26.9682 109.075 26.8588 108.852 26.7679C108.405 26.5849 107.923 26.4836 107.435 26.4286C107.182 26.4 106.999 26.1722 107.028 25.9178C107.057 25.6648 107.285 25.4824 107.539 25.5114C107.567 25.5143 107.594 25.5196 107.619 25.5275L107.626 25.5298C108.154 25.6911 108.675 25.9036 109.149 26.2083C109.384 26.3595 109.611 26.533 109.807 26.7386C110.004 26.9514 110.176 27.1641 110.287 27.4748C110.319 27.5637 110.272 27.6626 110.183 27.6948C110.104 27.7235 110.019 27.6898 109.978 27.6206L109.96 27.5899L109.959 27.5895Z" fill="white"/>
<rect x="101.104" y="25.5605" width="1.5" height="2.5" rx="0.75" transform="rotate(19.8921 101.104 25.5605)" fill="#371D14"/>
<rect x="106.934" y="27.6699" width="1.5" height="2.5" rx="0.75" transform="rotate(19.8921 106.934 27.6699)" fill="#371D14"/>
<path d="M103.481 31.4411C104.097 31.5808 104.459 31.3592 104.541 31.1145C104.76 30.4661 104.691 28.2974 104.703 28.2069C104.718 28.105 104.647 28.0122 104.546 27.9976C104.444 27.9831 104.351 28.0537 104.336 28.1556C104.333 28.1775 104.291 30.2344 104.198 30.8738C104.133 31.3249 103.13 30.9677 102.981 30.8644C102.897 30.8059 102.782 30.8269 102.724 30.9099C102.665 30.994 102.685 31.1093 102.769 31.1677C102.812 31.1971 103.176 31.3709 103.481 31.44L103.481 31.4411Z" fill="#E28065"/>
<path d="M104.257 34.4735C104.457 34.5175 104.547 34.7401 104.41 34.8924C103.996 35.3526 103.081 36.0789 101.709 35.5824C100.336 35.0859 100.098 33.9418 100.074 33.3232C100.066 33.1186 100.278 33.0054 100.46 33.0996L100.991 33.3745C101.839 33.8143 102.741 34.1409 103.674 34.3453L104.257 34.4735Z" fill="#DB6B5C"/>
<path d="M92.092 25.9232C92.58 25.9438 103.026 24.1991 108.387 19.2961C108.387 19.2961 108.746 30.0409 115.707 31.0868L114.753 21.1874L108.774 16.0565L101.845 15.6106C101.845 15.6106 96.6999 19.3463 96.4591 19.5526C96.2196 19.7594 92.0916 25.9245 92.0916 25.9245L92.092 25.9232Z" fill="#E2E1EC"/>
<path d="M108.298 19.5394C108.259 19.5252 108.224 19.5025 108.195 19.4703C108.098 19.3639 108.107 19.201 108.212 19.1045L110.879 16.6895C110.984 16.593 111.148 16.6023 111.245 16.7074C111.341 16.8137 111.332 16.9766 111.227 17.0731L108.56 19.4881C108.488 19.5548 108.386 19.571 108.298 19.5394Z" fill="#B0AFB8"/>
<path d="M92.2284 29.8751C92.2221 29.8728 92.2145 29.87 92.2081 29.8677C90.0071 28.8552 88.7863 26.3406 88.7345 26.2345C88.6726 26.1047 88.728 25.9516 88.8565 25.8893C88.9851 25.827 89.14 25.8816 89.2006 26.0109C89.2132 26.0355 90.3948 28.4644 92.4228 29.3971C92.5529 29.4571 92.6091 29.6106 92.5491 29.7406C92.4932 29.8635 92.352 29.9212 92.2267 29.8759L92.2284 29.8751Z" fill="#B0AFB8"/>
<path d="M114.777 31.2062C114.486 31.1008 114.323 30.9992 114.308 30.9907C114.188 30.9144 114.152 30.7555 114.228 30.6339C114.304 30.5141 114.462 30.4725 114.585 30.5527C114.591 30.555 115.325 31.0051 116.548 30.9239C116.691 30.9139 116.815 31.0219 116.824 31.1639C116.834 31.3064 116.726 31.4305 116.583 31.4388C115.781 31.4924 115.165 31.3451 114.776 31.2045L114.777 31.2062Z" fill="#B0AFB8"/>
<path d="M92.0037 26.1687C91.9189 26.138 91.8526 26.064 91.8372 25.9682C91.8135 25.8279 91.908 25.6932 92.0483 25.6695L94.1346 25.3135C94.2749 25.2898 94.4096 25.3844 94.4333 25.5247C94.457 25.665 94.3625 25.7997 94.2222 25.8233L92.1359 26.1793C92.0902 26.1871 92.0447 26.1821 92.0042 26.1675L92.0037 26.1687Z" fill="#B0AFB8"/>
<path d="M116.441 18.8805C116.406 18.8677 116.373 18.8472 116.345 18.8184C115.6 18.0648 115.114 17.013 115.093 16.9682C115.034 16.838 115.091 16.6853 115.221 16.6252C115.351 16.5664 115.504 16.6231 115.565 16.7524C115.57 16.7627 116.034 17.7668 116.715 18.454C116.815 18.5562 116.814 18.7188 116.713 18.8197C116.639 18.8919 116.533 18.9122 116.442 18.8792L116.441 18.8805Z" fill="#B0AFB8"/>
<path d="M96.5473 39.5079L94.5373 44.5483L95.616 48.904C95.8575 49.879 95.8692 50.8953 95.651 51.8742L94.2106 58.3361L97.8607 50.2788C98.3222 49.2605 99.1377 48.4433 100.156 47.98L103.07 46.6538L104.281 42.873L104.674 43.3417C105.051 43.7903 105.282 44.3434 105.336 44.9269L105.456 46.2215C105.534 47.0586 105.795 47.8688 106.223 48.5934L107.162 50.1857C107.41 50.6076 107.145 51.1459 106.658 51.2046L105.279 51.3726C104.716 51.4408 104.147 51.4224 103.591 51.3171L101.671 50.956L102.069 52.7534C102.223 53.4506 101.9 54.1654 101.274 54.5101L97.8612 56.3874C97.2997 56.6967 96.82 57.1358 96.4641 57.6684L92.2013 64.0396L93.0521 56.5756C93.1552 55.6652 92.9055 54.7488 92.3524 54.0176L90.6839 51.8105C90.2627 51.253 90.339 50.4646 90.8585 49.9984L93.205 47.8942L90.877 46.631C90.1863 46.2565 89.6052 45.7098 89.1889 45.0438L88.7407 44.3276C88.4967 43.9373 88.6427 43.4232 89.0546 43.2187L90.9775 42.2653C91.5258 41.9927 92.0411 41.6567 92.5111 41.2642L93.8544 40.1397C94.4109 39.674 95.1227 39.4363 95.8471 39.4722L96.5473 39.5079Z" fill="white"/>
<path d="M92.0397 64.0193C91.9282 63.979 91.8549 63.8651 91.8716 63.7437L92.7937 56.5417C92.8892 55.6959 92.6597 54.8541 92.1446 54.1724L90.476 51.9654C89.9774 51.3054 90.0688 50.3564 90.685 49.8049L92.7583 47.9454L90.7521 46.8573C90.0244 46.4623 89.4079 45.8828 88.9687 45.1813L88.5205 44.4651C88.3654 44.2172 88.3219 43.9137 88.4019 43.6334C88.4806 43.3527 88.6773 43.1175 88.9379 42.9871L90.4981 42.2131C90.6258 42.1491 90.7811 42.2024 90.8452 42.3301C90.9093 42.4578 90.8572 42.6136 90.7282 42.6772L89.168 43.4511C89.0352 43.5176 88.9394 43.6318 88.8992 43.7747C88.8589 43.9176 88.8799 44.0655 88.9589 44.1914L89.4071 44.9076C89.7988 45.5346 90.3492 46.0516 90.9991 46.4041L93.3271 47.6674C93.4015 47.7072 93.4507 47.7808 93.4605 47.8645C93.4703 47.9482 93.4388 48.0313 93.3756 48.0872L91.0279 50.191C90.6108 50.564 90.5498 51.2076 90.8864 51.6543L92.555 53.8614C93.1504 54.6495 93.4166 55.6233 93.3049 56.605L92.3832 63.81C92.3646 63.9522 92.2356 64.0515 92.093 64.0343C92.0739 64.0316 92.0552 64.0278 92.0375 64.0213L92.0397 64.0193Z" fill="#F2F2F2"/>
<path d="M92.0396 64.0198C92.018 64.012 91.9974 64.0016 91.9782 63.9875C91.8606 63.9049 91.8332 63.7432 91.9171 63.6261L96.2511 57.517C96.6235 56.9589 97.1393 56.487 97.735 56.1586L101.149 54.2817C101.67 53.9948 101.945 53.3886 101.815 52.8079L101.418 51.0105C101.399 50.9266 101.425 50.837 101.485 50.7742C101.546 50.7119 101.633 50.6834 101.719 50.7001L103.639 51.0612C104.17 51.1616 104.712 51.1789 105.248 51.1138L106.627 50.9458C106.771 50.9291 106.889 50.8431 106.953 50.7144C107.017 50.5845 107.011 50.4391 106.937 50.315L106 48.7232C105.888 48.5338 105.787 48.3383 105.697 48.1397C105.638 48.0096 105.696 47.8561 105.826 47.7973C105.958 47.7389 106.111 47.7973 106.169 47.9269C106.251 48.1083 106.343 48.2861 106.444 48.4603L107.382 50.0521C107.544 50.3254 107.556 50.6591 107.415 50.9429C107.274 51.2285 107.003 51.4209 106.686 51.4596L105.307 51.6276C104.717 51.6989 104.122 51.6799 103.539 51.5693L102.005 51.2801L102.318 52.6947C102.495 53.4976 102.116 54.3366 101.395 54.733L97.9812 56.6098C97.4572 56.8984 97.0055 57.3118 96.6739 57.8088L92.3363 63.9238C92.267 64.0204 92.1438 64.0561 92.0375 64.0176L92.0396 64.0198Z" fill="#F2F2F2"/>
</g>
<ellipse cx="106.689" cy="34.6008" rx="20.6889" ry="19.6" transform="rotate(19.8921 106.689 34.6008)" stroke="black" stroke-opacity="0.04" stroke-width="2" style="mix-blend-mode:multiply"/>
</g>
<mask id="mask1_2691_45429" style="mask-type:alpha" maskUnits="userSpaceOnUse" x="71" y="76" width="31" height="31">
<circle cx="86.261" cy="91.2" r="14.503" fill="#D9D9D9" stroke="black" stroke-width="1.39408"/>
</mask>
<g mask="url(#mask1_2691_45429)">
<circle cx="86.261" cy="91.2" r="15.2" fill="#9EB852"/>
<g clip-path="url(#clip1_2691_45429)">
<path d="M100.864 106.533C100.864 106.533 117.472 97.6469 127.091 89.1244L131.31 85.1811L153.63 68.8736L159.237 63.9654L160.759 66.174L157.27 74.2894L147.003 82.8591C147.003 82.8591 138.783 90.8852 131.258 95.6487C131.258 95.6487 120.292 109.177 105.782 118.587L100.862 106.532L100.864 106.533Z" fill="#FCD4BD"/>
<path d="M70.1224 113.498C74.293 110.956 68.6224 97.9976 74.2182 89.0361C75.7749 85.3449 78.8045 80.6792 81.7461 78.8633C82.2788 78.5341 82.8797 78.3269 83.4962 78.2081L83.5806 78.1921C84.1477 78.0842 84.6871 77.8737 85.2008 77.6107C85.8233 77.2902 87.139 76.9232 89.7335 77.2382C96.6224 78.8631 102.209 85.3929 101.622 92.4977C100.951 100.619 118.279 115.036 112.536 120.159C106.964 125.128 91.9046 136.506 80.8572 127.796C69.8099 119.086 65.9532 116.04 70.1224 113.498Z" fill="#4E4447"/>
<path d="M64.0453 109.068C64.0965 109.101 64.1631 109.109 64.225 109.085C72.3477 105.936 76.7874 99.1874 76.8307 99.1197C76.8904 99.0264 76.8647 98.904 76.7715 98.8444C76.6797 98.7857 76.5563 98.8128 76.4977 98.9046C76.4544 98.9723 72.0814 105.613 64.0817 108.716C63.9794 108.757 63.9281 108.87 63.9678 108.974C63.9834 109.016 64.0113 109.048 64.0459 109.071L64.0453 109.068Z" fill="#282022"/>
<path d="M101.982 116.156L98.6703 107.122L92.5905 108.767L84.4701 108.83C85.9525 111.988 89.2535 117.066 95.7703 119.23C95.7703 119.23 99.1298 119.29 101.98 116.155L101.982 116.156Z" fill="#FCD4BD"/>
<path d="M3.40704 88.1583C3.40704 88.1583 3.28395 88.5862 4.79887 89.2835C6.31174 89.9773 8.54202 90.7525 10.8035 92.1454C12.93 93.4541 13.5162 94.3673 13.1491 95.114C12.7824 95.8567 11.0672 96.5003 9.84354 96.3687C8.61999 96.2435 7.35462 96.5218 7.51759 97.1156C7.68152 97.708 9.91286 98.0472 11.4559 98.2728C12.9989 98.4984 15.8061 98.8752 17.8171 98.3656C19.8296 97.8569 23.3535 98.6411 23.3535 98.6411C23.3535 98.6411 30.3443 102.553 39.1142 105.131C47.886 107.707 49.0121 108.511 57.0474 112.046C64.5406 115.345 74.2556 120.397 74.2556 120.397C74.2556 120.397 77.2812 126.433 78.465 132.472C80.6273 131.586 83.4907 129.65 85.0001 125.456C86.7364 120.642 83.6406 113.247 81.3215 108.765L75.8691 107.108C73.5948 106.415 71.2623 105.939 68.9002 105.681L68.0349 105.586L49.5196 98.7993L45.6912 97.2779C43.4363 96.3788 41.0713 95.7845 38.6622 95.5011L22.1803 93.5669L14.8931 92.4094C14.8931 92.4094 9.69749 89.91 7.89899 89.1756C6.10543 88.4401 3.6327 87.4738 3.4065 88.1558L3.40704 88.1583Z" fill="#FCD4BD"/>
<path d="M93.3952 164.839C93.3952 164.839 103.816 145.48 103.998 140.895C103.998 140.895 107.978 136.467 109.261 131.948C110.547 127.43 109.609 117.244 100.865 106.532L98.6716 107.124L101.983 116.158C99.1336 119.292 95.7732 119.233 95.7732 119.233C89.2564 117.07 85.9538 111.991 84.473 108.833L81.6006 108.853L81.3226 108.771C83.6402 113.252 86.7375 120.648 85.0012 125.462C83.4918 129.657 80.6283 131.592 78.466 132.478C78.5077 132.685 78.5458 132.893 78.5825 133.101C79.674 139.338 77.4248 145.747 77.4248 145.747C77.4248 145.747 69.6155 147.024 64.7 150.869" fill="#F17255"/>
<path d="M88.3291 113.152L96.8489 110.72L93.2347 99.4585L91.4181 93.7992L84.0054 95.9147L86.1503 104.465L88.3291 113.152Z" fill="#FCD4BD"/>
<path d="M92.6424 97.6129C92.6424 97.6129 91.1514 103.048 89.0336 103.877C86.9143 104.706 85.5238 101.97 85.5238 101.97L87.6659 97.4961L92.6424 97.6129Z" fill="#EF8B5D"/>
<path d="M89.0438 79.6529C96.7759 80.9401 95.9127 86.1261 94.8468 92.5242C93.7819 98.9208 87.3708 102.48 84.2517 101.961C81.1351 101.442 78.3147 96.3445 79.3811 89.9488C80.4461 83.5522 81.3108 78.3672 89.0428 79.6544L89.0438 79.6529Z" fill="#FCD4BD"/>
<path d="M96.9699 95.0094C95.7703 96.468 94.0482 97.033 93.1231 96.2719C92.1994 95.5118 92.4231 93.7132 93.6227 92.2546C94.8224 90.796 96.5445 90.231 97.4696 90.9921C98.3932 91.7522 98.1696 93.5508 96.9699 95.0094Z" fill="#FCD4BD"/>
<path d="M91.2388 89.2635C91.1414 88.9433 90.9839 88.7249 90.7986 88.5038C90.6133 88.2878 90.3974 88.1043 90.17 87.9423C89.9439 87.7765 89.7012 87.6421 89.4558 87.5128C89.208 87.391 88.9536 87.2856 88.6955 87.189C88.4285 87.0885 88.1295 87.2252 88.029 87.4922C87.9286 87.7592 88.0653 88.0582 88.3323 88.1587C88.365 88.1715 88.399 88.1806 88.4331 88.1847L88.4407 88.1847C88.6766 88.2206 88.9124 88.264 89.1443 88.3237C89.3712 88.3885 89.6018 88.4572 89.8132 88.5547C90.0285 88.6484 90.2347 88.7611 90.4194 88.9001C90.599 89.0315 90.7769 89.2197 90.8667 89.3769L90.8879 89.4137C90.9415 89.5063 91.0575 89.5374 91.1513 89.4851C91.2299 89.4402 91.2647 89.3457 91.2401 89.2622L91.2388 89.2635Z" fill="#66483E"/>
<path d="M81.1044 87.5209C81.2404 87.4008 81.4691 87.2817 81.683 87.2143C81.9027 87.1413 82.1352 87.1014 82.3678 87.0824C82.5999 87.0594 82.8398 87.0677 83.0762 87.0804C83.3136 87.101 83.5501 87.1346 83.7869 87.1778L83.792 87.1796C84.0738 87.2295 84.3419 87.043 84.3934 86.7617C84.445 86.4804 84.2568 86.2118 83.9755 86.1602C83.9401 86.1532 83.9028 86.1513 83.8683 86.1522C83.5925 86.1595 83.3187 86.177 83.0439 86.2131C82.769 86.2549 82.4956 86.3029 82.2282 86.3872C81.9604 86.4676 81.6976 86.5707 81.452 86.7159C81.2045 86.8662 80.9841 87.0205 80.7899 87.2923C80.7286 87.3785 80.7479 87.4992 80.8341 87.5605C80.908 87.6136 81.007 87.6074 81.0733 87.5495L81.1061 87.5215L81.1044 87.5209Z" fill="#66483E"/>
<path d="M96.1904 92.9603C96.1762 93.0487 96.1053 93.1199 96.0133 93.1311C94.6373 93.2941 93.8875 94.5762 93.8789 94.5897C93.8228 94.6874 93.6986 94.7225 93.6009 94.6664C93.5032 94.6103 93.4682 94.4861 93.5243 94.3885C93.5588 94.3279 94.3793 92.9152 95.9645 92.7268C96.0767 92.7137 96.1783 92.7935 96.1913 92.9057C96.1942 92.9245 96.193 92.9429 96.1894 92.9618L96.1904 92.9603Z" fill="#EF8B5D"/>
<path d="M95.3095 94.2345C95.3047 94.2718 95.2881 94.3077 95.2599 94.3385C95.1853 94.4222 95.0551 94.4301 94.9714 94.3554C94.9583 94.3428 94.6261 94.0435 94.48 93.5028C94.4497 93.3944 94.5154 93.2817 94.6238 93.2514C94.7322 93.2211 94.845 93.2868 94.8753 93.3952C94.9893 93.8136 95.2425 94.0475 95.2445 94.051C95.2989 94.0985 95.3211 94.1699 95.311 94.2355L95.3095 94.2345Z" fill="#EF8B5D"/>
<path d="M96.9682 96.9186C96.9468 96.4514 97.1828 94.0269 95.574 92.568C93.9667 91.1101 92.6518 89.6293 91.4755 86.7978C90.2991 83.9664 89.8748 81.9379 86.6188 80.8143C86.6188 80.8143 82.8819 81.7359 80.0014 84.5934C77.1209 87.451 81.3254 80.6262 81.3254 80.6262C81.3254 80.6262 86.7424 78.6549 87.0428 78.6859C87.3421 78.7183 93.0556 80.4508 93.0556 80.4508C93.0556 80.4508 96.8805 85.0541 96.8894 85.5409C96.8992 86.0262 98.5553 91.5618 98.5244 91.8621C98.492 92.1614 96.9716 96.9166 96.9716 96.9166L96.9682 96.9186Z" fill="#4E4447"/>
<path d="M97.2863 98.228C97.3239 98.2521 97.3677 98.2631 97.4157 98.2577C97.5254 98.2452 97.6033 98.1466 97.5923 98.0379L97.1981 94.4771C97.1856 94.3673 97.087 94.2895 96.9782 94.3005C96.8685 94.313 96.7906 94.4116 96.8016 94.5203L97.1973 98.0821C97.2044 98.1439 97.2391 98.1957 97.2888 98.2275L97.2863 98.228Z" fill="#282022"/>
<path d="M86.7678 80.9258C86.831 80.9662 86.9133 80.97 86.9813 80.9266C87.0743 80.8674 87.1032 80.746 87.044 80.653L85.9877 78.9665C85.9299 78.8745 85.807 78.8447 85.714 78.9039C85.621 78.9632 85.5921 79.0846 85.6514 79.1776L86.7077 80.864C86.7235 80.889 86.7452 80.9113 86.7693 80.9267L86.7678 80.9258Z" fill="#282022"/>
<path d="M78.2507 87.8677C78.3441 87.9275 78.466 87.8994 78.5247 87.8076L81.4318 83.2608C81.4914 83.1675 81.4633 83.0456 81.3714 82.9868C81.2795 82.9281 81.1561 82.9552 81.0974 83.047L78.1903 87.5938C78.1307 87.6871 78.1588 87.809 78.2507 87.8677Z" fill="#282022"/>
<path d="M88.4681 91.8519C88.785 91.9231 89.1232 91.7091 89.2184 91.3778L89.5658 90.2365C89.661 89.9053 89.4783 89.5744 89.1598 89.5022C88.8414 89.43 88.5047 89.645 88.4095 89.9763L88.0622 91.1176C87.9669 91.4488 88.1496 91.7797 88.4681 91.8519Z" fill="black"/>
<path d="M82.3419 90.295C82.6588 90.3663 82.9971 90.1522 83.0923 89.821L83.2636 88.8451C83.3588 88.5139 83.1761 88.183 82.8577 88.1108C82.5407 88.0396 82.2025 88.2536 82.1073 88.5849L81.936 89.5607C81.8408 89.892 82.0235 90.2229 82.3419 90.295Z" fill="black"/>
<path fill-rule="evenodd" clip-rule="evenodd" d="M85.3596 90.0062C85.493 90.0296 85.584 90.1466 85.5628 90.2675C85.484 90.7164 85.3613 91.414 84.6909 92.2459C84.5337 92.4409 84.4242 92.5988 84.3648 92.7329C84.3068 92.8641 84.3065 92.9499 84.3327 93.016C84.3601 93.0855 84.4342 93.1775 84.6247 93.2889C84.8149 93.4001 85.0981 93.5171 85.5036 93.6437C85.6327 93.6839 85.705 93.8109 85.6652 93.9273C85.6253 94.0436 85.4883 94.1053 85.3591 94.065C84.9379 93.9336 84.6107 93.8024 84.3703 93.6618C84.1301 93.5213 83.9532 93.3577 83.8728 93.1544C83.7911 92.9477 83.8262 92.7436 83.91 92.5543C83.9926 92.3679 84.1316 92.1745 84.2929 91.9742C84.8964 91.2253 85.0044 90.6099 85.0793 90.1834C85.1005 90.0625 85.2261 89.9828 85.3596 90.0062Z" fill="#EF8B5D"/>
<path d="M82.9999 95.0303C82.9804 94.8145 83.0764 94.5943 83.3663 94.7343C83.9848 95.0329 84.6253 95.5965 85.7429 95.6752C85.9439 95.6891 86.1502 95.7045 86.3507 95.7225C86.4668 95.7331 86.5447 95.8401 86.5247 95.9609C86.492 96.1639 83.4925 100.493 82.9999 95.0303Z" fill="#DB6B5C"/>
</g>
<circle cx="86.261" cy="91.2" r="15.2" stroke="black" stroke-opacity="0.04" stroke-width="2" style="mix-blend-mode:multiply"/>
</g>
<mask id="mask2_2691_45429" style="mask-type:alpha" maskUnits="userSpaceOnUse" x="21" y="25" width="65" height="65">
<circle cx="53.5" cy="57.5" r="31.6058" fill="#D9D9D9" stroke="black" stroke-width="1.78845"/>
</mask>
<g mask="url(#mask2_2691_45429)">
<circle cx="53.5" cy="57.5" r="32.5" fill="#8A6F84"/>
<g clip-path="url(#clip2_2691_45429)">
<path d="M39.3899 65.9665C39.1691 66.1085 38.9581 66.2629 38.7577 66.4334C37.241 67.7333 37.909 69.9799 38.1602 71.7307C38.4634 73.8372 38.9843 75.9257 39.8816 77.8616C41.3261 80.9735 43.8653 83.7057 47.1366 84.7404C49.2199 85.3997 51.4682 85.3426 53.6255 84.9961C57.3397 84.3988 61.1689 82.731 63.0168 79.454C63.7192 78.207 64.0927 76.7999 64.3177 75.3854C65.0983 70.4545 63.9734 65.056 60.5443 61.4275C57.8102 58.5345 52.0347 56.1679 48.2281 58.3897C46.8397 59.1987 46.477 60.1157 45.4356 61.2589C44.282 62.5252 39.9352 65.6138 39.3899 65.9665Z" fill="#FCD4BD"/>
<path d="M43.8889 74.8341C46.0634 77.6529 48.9284 79.7443 52.4701 79.8449C56.6284 79.9625 60.351 76.882 62.2261 73.1676C64.1011 69.4533 64.4907 65.1895 64.7933 61.0399C67.9161 61.2547 71.0056 61.9027 73.9593 62.9362C75.6826 63.5396 77.5398 64.9442 79.1818 65.8457C81.1721 66.9397 83.0787 68.2415 84.5282 70.0156C85.1265 70.7475 85.6413 71.5493 86.2914 72.2342C87.3519 73.3489 88.7243 74.1051 89.9596 75.0221C92.0305 76.5564 93.7195 78.5401 95.39 80.5041C97.15 82.5764 95.7421 83.2389 94.2774 84.9289C92.8856 86.5331 91.6371 88.2599 90.5422 90.0799C89.4474 91.8999 88.5099 93.8142 87.7423 95.7948C87.194 97.2075 86.9445 101.377 85.2138 100.214C82.5475 98.4247 80.122 96.3273 77.866 94.1639C77.4266 96.022 77.947 97.9164 77.9212 99.7919C77.8926 101.82 77.504 103.853 76.862 105.775C76.2101 107.728 76.4727 109.603 76.99 111.544C77.4234 113.168 77.5233 114.897 78.2019 116.462C79.5453 119.558 82.5507 122.028 82.741 125.582C82.7849 126.388 82.6718 127.24 83.0303 127.962C83.9492 129.81 87.082 129.391 88.1425 131.161C85.2 131.788 82.3586 132.894 79.7638 134.418C77.7704 135.588 75.842 137.037 73.5624 137.424C72.7038 137.569 71.8145 137.558 70.9825 137.814C70.1436 138.072 69.4108 138.587 68.666 139.054C61.8908 143.314 54.314 142.764 46.6468 143.166C42.624 143.378 38.5966 143.681 34.6272 144.386C32.6694 144.733 30.7274 145.172 28.8225 145.748C28.116 145.961 23.3427 147.189 23.2448 147.887C24.0659 141.981 25.6403 136.191 26.2736 130.262C27.8898 115.154 23.3527 100.13 22.1317 84.9853C22.0005 83.3492 21.9188 81.6375 22.5772 80.1349C25.093 74.3883 34.9282 68.7122 40.0935 65.303C40.167 65.2551 40.2638 65.2931 40.2853 65.3793C41.0245 68.4056 41.686 71.9831 43.8871 74.8345L43.8889 74.8341Z" fill="#F3E3CA"/>
<path d="M77.4329 95.4407C77.2677 95.475 77.0985 95.385 77.0374 95.2217C76.9357 94.9508 76.942 94.6665 76.9459 94.4408L77.0938 86.7517C77.1263 85.0218 77.1651 83.0601 77.8812 81.3115C77.9534 81.1351 78.1569 81.0493 78.335 81.1211C78.5132 81.193 78.5973 81.3968 78.5254 81.575C77.859 83.2044 77.825 85.0145 77.7913 86.7647L77.6433 94.4538C77.6402 94.6394 77.6364 94.8307 77.6907 94.979C77.759 95.1589 77.6664 95.3596 77.4861 95.426C77.4694 95.4331 77.4521 95.4367 77.4347 95.4403L77.4329 95.4407Z" fill="#D8C1A3"/>
<path opacity="0.31" d="M47.2349 63.959L67.6944 69.1309C67.6944 69.1309 65.7947 85.3374 47.2349 63.959Z" fill="#EF8B5D"/>
<path d="M71.5999 59.2709C71.4629 61.2837 71.117 63.3037 70.5287 65.336C69.3503 69.4172 65.5775 70.5182 61.6361 70.0653C59.1348 69.7776 56.6528 68.9889 54.2667 68.0769C52.9722 67.5822 51.623 67.1822 50.437 66.4236C47.3174 64.4251 46.6192 62.758 46.5095 62.3436C46.1871 61.1318 44.281 60.4956 43.3947 59.818C41.4148 58.3029 39.9879 55.9655 39.2333 53.6335C38.4249 51.1386 38.5042 48.2979 38.5292 45.7024C38.5696 41.6 39.8519 37.5734 42.2693 34.4792C45.3271 30.5646 50.2932 28.1872 55.2331 28.6358C59.4614 29.0201 61.7613 30.7227 64.422 34.0047C66.2608 36.2729 67.2558 39.5 68.3646 42.21C70.6697 47.8496 71.9896 53.5233 71.5978 59.2695L71.5999 59.2709Z" fill="#FCD4BD"/>
<path d="M41.7251 55.717C41.7528 55.7457 41.7823 55.7741 41.8114 55.8007C43.4695 57.4171 45.493 58.9939 45.8645 61.2803C45.0753 61.2447 43.6493 61.7586 43.5185 60.9803C42.9997 57.9065 40.6663 58.6886 39.5336 57.6106C36.8725 55.0779 36.556 50.8465 36.7459 47.1846C36.9091 44.0489 37.2388 40.9204 37.7355 37.8188C38.2032 34.892 40.1227 33.4176 42.2157 31.53C43.5464 30.3303 45.7578 29.9472 47.4396 29.3548C49.9649 28.4657 52.6201 27.5641 55.2585 27.7525C55.4189 27.7646 55.4369 27.9912 55.2787 28.0241C54.8944 28.1039 54.5425 28.235 54.1807 28.5369C54.8783 27.9567 57.8308 28.7311 58.643 28.9215C60.0691 29.2548 61.4457 29.6472 62.499 30.6837C64.8744 33.02 66.4079 36.2985 66.8369 39.5869C67.0825 41.4768 64.7401 40.5738 63.5117 40.4934C62.3697 40.4186 61.3144 40.1499 60.1495 40.2703C60.5056 40.57 60.8413 40.8939 61.1525 41.2392C61.2705 41.3707 61.14 41.5719 60.971 41.5181C57.4666 40.3922 53.6192 40.3478 50.0952 41.4153C49.4978 41.5957 48.9197 41.8518 48.4188 42.2261C45.8561 44.1315 47.4387 46.3278 48.827 48.1472C48.9993 48.3744 49.1214 48.6393 49.1653 48.9204C49.3448 50.0639 48.2708 49.8535 47.9371 50.3255C47.7337 50.6126 47.8385 50.9863 47.8708 51.3514C47.9686 52.4684 48.1432 53.5622 48.4646 54.6382C48.4786 54.6879 48.4933 54.7411 48.4741 54.7886C48.4536 54.8383 48.4008 54.8637 48.3512 54.8867C47.8381 55.1239 47.3265 55.359 46.8134 55.5961C47.3778 55.3356 45.7846 52.7824 45.6267 52.4851C45.0386 51.3828 44.3129 50.4652 42.9594 50.3327C41.7666 50.214 40.4518 50.9841 40.1616 52.1455C39.8311 53.4712 40.75 54.7514 41.7262 55.7222L41.7251 55.717Z" fill="#3B2D28"/>
<path d="M56.0906 47.8281C56.8647 47.5639 57.7855 47.447 58.5196 47.9947C58.7623 48.1765 59.157 48.5571 59.0592 48.9075C59.043 48.9689 59.0085 49.0214 58.9713 49.0691C58.5611 49.6005 58.0167 49.4687 57.4313 49.4796C56.7678 49.4905 56.1431 49.5567 55.6426 50.0289C55.2984 50.3544 55.0764 50.814 54.7678 51.1793C53.9063 52.2017 52.3086 51.9766 53.1386 50.3223C53.7709 49.0609 54.8475 48.2532 56.0923 47.8277L56.0906 47.8281Z" fill="#7C5440"/>
<path d="M66.1273 44.3465C65.4929 44.471 64.8161 44.793 64.5317 45.6157C64.4376 45.8874 64.3188 46.4072 64.5249 46.6746C64.5618 46.7214 64.6042 46.7506 64.6493 46.7757C65.1411 47.0563 65.462 46.6886 65.8665 46.4268C66.3255 46.1301 66.7797 45.8979 67.3088 46.0873C67.6748 46.2163 68.0083 46.5207 68.3652 46.7023C69.3627 47.208 68.9518 45.8585 68.6463 45.4268C67.9272 44.4098 67.1471 44.1474 66.1256 44.3468L66.1273 44.3465Z" fill="#7C5440"/>
<path d="M45.2715 40.4533C42.9484 40.9359 41.1747 40.5968 38.6461 39.348C38.4702 39.2612 38.3987 39.0475 38.4855 38.8717C38.5723 38.6958 38.786 38.6242 38.9618 38.7111C41.9592 40.1908 43.7428 40.3156 46.9162 39.2628C47.1048 39.2019 47.3034 39.3021 47.3658 39.4887C47.4281 39.6753 47.3265 39.876 47.1399 39.9383C46.4696 40.161 45.854 40.3323 45.2733 40.453L45.2715 40.4533Z" fill="#5B2F37"/>
<path d="M42.4049 39.9881C42.2971 40.0105 42.1806 39.9821 42.0915 39.9027C41.9477 39.7693 41.9374 39.5447 42.0707 39.4009C43.7984 37.5184 46.389 36.2275 49.3657 35.7652C52.3265 35.3045 55.2714 35.6759 57.5079 36.0512C57.7015 36.0836 57.8321 36.2669 57.7997 36.4604C57.7674 36.654 57.5841 36.7846 57.3905 36.7522C55.2084 36.3856 52.336 36.0226 49.4754 36.468C46.6553 36.9069 44.2135 38.1196 42.5954 39.8833C42.5436 39.9394 42.477 39.9768 42.4057 39.9916L42.4049 39.9881Z" fill="#5B2F37"/>
<path d="M40.2156 39.7593C40.16 39.7709 40.1018 39.7703 40.0439 39.7533C39.8547 39.6982 39.7466 39.5012 39.802 39.3138C40.3829 37.3248 41.6048 35.531 43.2443 34.2635C44.8839 32.9961 46.9272 32.2669 48.9989 32.2067C49.1953 32.2003 49.3581 32.3552 49.3644 32.5516C49.3707 32.748 49.2145 32.9128 49.0195 32.9171C47.0972 32.9717 45.2011 33.6503 43.6783 34.8246C42.1558 36.0006 41.0215 37.6656 40.4834 39.5114C40.4453 39.6427 40.3391 39.7337 40.2139 39.7597L40.2156 39.7593Z" fill="#5B2F37"/>
<path d="M42.8256 49.5689C42.7004 49.5949 42.5667 49.5537 42.4796 49.4485C42.3541 49.2986 42.3744 49.0731 42.5264 48.949C44.3127 47.4624 45.2681 45.0147 44.9585 42.7119C44.9327 42.5177 45.0731 42.338 45.2638 42.3129C45.458 42.287 45.6366 42.4223 45.6628 42.6182C46.0034 45.1576 44.9499 47.8579 42.9794 49.497C42.933 49.5357 42.8799 49.5594 42.8243 49.571L42.8256 49.5689Z" fill="#3B2D28"/>
<path d="M38.6683 50.2053C38.5483 50.2302 38.4192 50.1935 38.3317 50.0956C38.2 49.9506 38.2112 49.7252 38.3579 49.5931C38.6988 49.2865 39.0979 49.0948 39.4839 48.9094C39.6043 48.8518 39.723 48.7945 39.841 48.7337C41.1661 48.0485 42.214 46.8495 42.7171 45.4463C42.7822 45.2622 42.9853 45.1656 43.1714 45.2322C43.3558 45.2991 43.4524 45.5021 43.3855 45.6865C42.8214 47.2585 41.6484 48.5977 40.1661 49.3645C40.0415 49.4285 39.9162 49.489 39.7892 49.5498C39.4327 49.72 39.0961 49.8806 38.8317 50.1187C38.7829 50.1633 38.7267 50.1895 38.6658 50.2022L38.6683 50.2053Z" fill="#3B2D28"/>
<path d="M36.1387 48.0803C37.0093 49.2853 37.7542 48.4178 39.1504 48.2583C44.187 47.6784 50.1522 47.3518 55.0134 45.8143C56.3085 45.4038 69.3465 41.4805 69.1883 40.7714C68.3353 36.9525 65.2546 32.0328 63.1031 29.9093C60.2729 27.1124 54.7191 24.3896 45.5801 26.8501C39.4043 28.512 34.8735 34.1293 34.5017 40.7058C34.4207 42.132 35.2289 46.8182 36.1404 48.08L36.1387 48.0803ZM57.465 42.3611C57.465 42.3611 57.4274 37.6038 60.9924 36.096C64.5588 34.5862 66.144 39.2053 66.144 39.2053C66.144 39.2053 59.5288 41.9306 57.4637 42.3632L57.465 42.3611Z" fill="#5F515C"/>
<path d="M39.2888 48.1641C38.704 48.7898 25.2796 56.0839 23.6203 51.8502C22.1839 48.1834 25.3518 45.6371 26.0503 45.131C26.1324 45.0723 26.2167 45.0239 26.3104 44.9863L34.6972 41.5066L39.2888 48.1641Z" fill="#5F515C"/>
<path d="M39.5243 48.5048C39.4391 48.5225 39.3467 48.5145 39.2608 48.4761C33.6478 45.9923 34.1432 41.7755 34.1663 41.5983C34.1987 41.3613 34.4176 41.1924 34.6547 41.2248C34.8918 41.2572 35.0585 41.4747 35.0278 41.7114C35.0081 41.8697 34.6248 45.4738 39.6109 47.6814C39.8307 47.7791 39.9294 48.0361 39.8314 48.2542C39.7721 48.388 39.6544 48.476 39.5222 48.5034L39.5243 48.5048Z" fill="#4C3F4A"/>
<path d="M40.8655 48.3571C40.8655 48.3571 40.8516 48.36 40.8446 48.3615C40.6077 48.3998 40.3853 48.2374 40.347 48.0005C39.2199 40.8973 41.3933 33.4405 46.1588 28.0538C46.3173 27.8739 46.5931 27.8566 46.7733 28.0169C46.9531 28.1754 46.9705 28.4511 46.8102 28.6314C42.215 33.8249 40.1191 41.0171 41.2064 47.8673C41.2432 48.0973 41.0923 48.3137 40.8662 48.3606L40.8655 48.3571Z" fill="#4C3F4A"/>
<path d="M50.9729 46.4209C50.7851 46.4599 50.5887 46.3701 50.4971 46.1914C49.0526 43.3498 47.8827 40.3549 47.0168 37.2861C46.291 34.7087 45.5712 31.3392 46.4691 28.1343C46.5336 27.9033 46.774 27.7681 47.005 27.8326C47.2361 27.897 47.3713 28.1374 47.3068 28.3685C46.4672 31.3653 47.1591 34.5828 47.8548 37.0503C48.7036 40.0629 49.8536 43.0056 51.273 45.7963C51.3826 46.0093 51.2975 46.2719 51.0823 46.3801C51.0462 46.3984 51.0108 46.4112 50.9743 46.4188L50.9729 46.4209Z" fill="#4C3F4A"/>
<path d="M45.5111 28.1246C45.4158 27.7707 46.0372 27.2952 46.9024 27.0593C47.7658 26.8237 48.544 26.9196 48.641 27.2731C48.7363 27.627 48.1149 28.1025 47.2497 28.3385C46.3862 28.5741 45.6081 28.4781 45.5111 28.1246Z" fill="#4C3F4A"/>
<path d="M17.8397 107.593C18.0001 109.876 18.292 112.146 18.6994 114.387C18.9877 115.976 18.7823 118.201 19.8754 119.534C21.2894 121.259 23.5325 120.731 25.5979 120.624C28.2482 120.485 30.5887 122.016 33.1781 121.645C36.8016 121.126 40.3977 119.864 44.0469 119.286C44.2013 119.261 44.3725 119.229 44.4664 119.113C44.5299 119.035 44.5451 118.934 44.5563 118.839C44.834 116.639 44.618 114.473 44.6281 112.259C44.7393 108.873 44.7017 105.487 44.5541 102.113C44.2326 94.7576 43.3067 88.3436 38.898 82.069C37.6413 80.2803 36.1203 78.5465 33.9879 77.6507C30.6875 76.2665 26.4285 77.2799 23.6985 79.6463C19.7375 83.0811 19.9812 87.6868 18.9704 92.0687C17.7875 97.1939 17.4786 102.431 17.8424 107.589L17.8397 107.593Z" fill="#F3E3CA"/>
<path d="M58.7611 54.5894C58.295 54.7207 57.8046 54.447 57.6716 53.9813L57.1416 52.1106C57.0103 51.6445 57.2839 51.1541 57.7497 51.0211C58.2176 50.8894 58.7062 51.1634 58.8392 51.6292L59.3692 53.4999C59.5005 53.966 59.2269 54.4564 58.7611 54.5894Z" fill="black"/>
<path d="M67.7611 51.7847C67.295 51.916 66.8046 51.6423 66.6716 51.1766L66.1416 49.3059C66.0103 48.8398 66.2839 48.3494 66.7497 48.2164C67.2158 48.0851 67.7062 48.3587 67.8392 48.8245L68.3692 50.6952C68.5005 51.1613 68.2269 51.6517 67.7611 51.7847Z" fill="black"/>
<path d="M64.6174 57.7731C65.5495 57.4925 65.8661 56.9206 65.7904 56.53C65.5915 55.4939 63.8518 52.6373 63.7993 52.5068C63.7414 52.3592 63.5761 52.2883 63.4285 52.3462C63.2809 52.404 63.2101 52.5693 63.2679 52.7169C63.28 52.7489 64.7865 55.5395 65.148 56.4676C65.4036 57.1219 63.7864 57.4052 63.509 57.3794C63.3518 57.3649 63.2126 57.4808 63.1977 57.6363C63.1832 57.7935 63.2974 57.933 63.4546 57.9475C63.5341 57.9546 64.1545 57.911 64.617 57.7714L64.6174 57.7731Z" fill="#E28065"/>
<path d="M61.7477 63.0488C61.7477 63.0488 61.7634 63.0455 61.7707 63.0458C62.057 63.0009 62.3569 62.9603 62.6465 62.922C64.4169 62.6867 66.2473 62.4425 66.6677 60.895C66.7128 60.7278 66.6137 60.5561 66.4482 60.5107C66.2811 60.4656 66.1094 60.5648 66.0639 60.7302C65.7523 61.876 64.2045 62.0832 62.5645 62.3005C62.2715 62.3396 61.9678 62.3791 61.6745 62.4255C61.504 62.4518 61.3868 62.6122 61.4131 62.7827C61.438 62.9462 61.5848 63.0591 61.747 63.0453L61.7477 63.0488Z" fill="#EF8B5D"/>
<path d="M42.1343 53.2681C42.1589 53.3864 42.2578 53.4783 42.3832 53.4885C44.2436 53.6336 45.3205 55.3163 45.3314 55.334C45.4125 55.4623 45.5821 55.5014 45.7103 55.4204C45.8386 55.3393 45.8778 55.1697 45.7984 55.0411C45.7494 54.9624 44.5692 53.1052 42.4269 52.9389C42.2756 52.9268 42.1434 53.0413 42.1313 53.1926C42.1294 53.2183 42.131 53.2434 42.136 53.2678L42.1343 53.2681Z" fill="#EF8B5D"/>
<path d="M43.3874 54.9343C43.3978 54.9847 43.4205 55.0326 43.4594 55.0717C43.5654 55.1803 43.7386 55.1842 43.8489 55.0779C43.8669 55.0596 44.2946 54.6388 44.463 53.9037C44.4978 53.7568 44.4033 53.6077 44.2568 53.5747C44.1082 53.5402 43.9626 53.634 43.9278 53.7808C43.7975 54.3503 43.4705 54.6794 43.4673 54.6819C43.3978 54.7489 43.3707 54.8452 43.3891 54.9339L43.3874 54.9343Z" fill="#EF8B5D"/>
</g>
<circle cx="53.5" cy="57.5" r="32.5" stroke="black" stroke-opacity="0.04" stroke-width="2" style="mix-blend-mode:multiply"/>
</g>
<circle cx="28" cy="35" r="9" fill="#FFD633"/>
<path d="M31.3359 35.5853C31.1884 35.7544 31.0851 36.0927 31.0999 36.3234L31.1884 37.8302C31.2474 38.7528 30.6131 39.2294 29.787 38.8911L28.4446 38.3376C28.2381 38.2607 27.884 38.2607 27.6775 38.3376L26.3351 38.8911C25.509 39.2294 24.8747 38.7528 24.9337 37.8302L25.0222 36.3234C25.037 36.0927 24.9337 35.7544 24.7862 35.5853L23.8716 34.4167C23.2963 33.7094 23.5471 32.9253 24.4027 32.6946L25.804 32.3256C26.0253 32.2641 26.2908 32.0488 26.4089 31.849L27.1907 30.5881C27.6775 29.804 28.4446 29.804 28.9314 30.5881L29.7132 31.849C29.8312 32.0488 30.0967 32.2641 30.318 32.3256L31.7194 32.6946C32.575 32.9253 32.8258 33.7094 32.2505 34.4167L31.3359 35.5853Z" fill="white"/>
<defs>
<clipPath id="clip0_2691_45429">
<rect width="114" height="101" fill="white" transform="translate(55.8276 -8.90039) rotate(19.8921)"/>
</clipPath>
<clipPath id="clip1_2691_45429">
<rect width="122.17" height="124.14" fill="white" transform="matrix(-0.842517 -0.538669 -0.538669 0.842517 162.526 66.0684)"/>
</clipPath>
<clipPath id="clip2_2691_45429">
<rect width="84.8275" height="116" fill="white" transform="translate(0.0610352 36.25) rotate(-11.7337)"/>
</clipPath>
</defs>
</svg>
