<svg width="60" height="60" viewBox="0 0 60 60" fill="none" xmlns="http://www.w3.org/2000/svg">
<rect width="60" height="60" fill="white"/>
<g filter="url(#filter0_d_2797_21544)">
<rect x="6" y="5" width="40" height="46" rx="6" fill="white"/>
</g>
<rect x="12" y="15" width="28" height="4" rx="2" fill="#ECECEC"/>
<rect x="12" y="25" width="28" height="4" rx="2" fill="#ECECEC"/>
<rect x="12" y="35" width="28" height="4" rx="2" fill="#ECECEC"/>
<circle cx="40" cy="42" r="14" fill="url(#paint0_linear_2797_21544)"/>
<path d="M39.5593 48.7188C37.537 48.0137 33 45.0468 33 40.0178C33 37.796 34.737 36 36.8889 36C38.1593 36 39.287 36.6253 40 37.6098C40.7 36.6386 41.8407 36 43.1111 36C45.263 36 47 37.796 47 40.0178C47 45.0468 42.463 48.0137 40.4278 48.7188C40.1944 48.7986 39.7926 48.7986 39.5593 48.7188Z" fill="url(#paint1_linear_2797_21544)"/>
<defs>
<filter id="filter0_d_2797_21544" x="2" y="1" width="48" height="54" filterUnits="userSpaceOnUse" color-interpolation-filters="sRGB">
<feFlood flood-opacity="0" result="BackgroundImageFix"/>
<feColorMatrix in="SourceAlpha" type="matrix" values="0 0 0 0 0 0 0 0 0 0 0 0 0 0 0 0 0 0 127 0" result="hardAlpha"/>
<feOffset/>
<feGaussianBlur stdDeviation="2"/>
<feComposite in2="hardAlpha" operator="out"/>
<feColorMatrix type="matrix" values="0 0 0 0 0.606667 0 0 0 0 0.668527 0 0 0 0 0.758333 0 0 0 0.4 0"/>
<feBlend mode="normal" in2="BackgroundImageFix" result="effect1_dropShadow_2797_21544"/>
<feBlend mode="normal" in="SourceGraphic" in2="effect1_dropShadow_2797_21544" result="shape"/>
</filter>
<linearGradient id="paint0_linear_2797_21544" x1="31.4444" y1="29.3611" x2="50.1111" y2="53.2778" gradientUnits="userSpaceOnUse">
<stop stop-color="#FF7979"/>
<stop offset="0.747259" stop-color="#FF4E4E"/>
<stop offset="1" stop-color="#F46262"/>
</linearGradient>
<linearGradient id="paint1_linear_2797_21544" x1="35" y1="36" x2="43.5" y2="48" gradientUnits="userSpaceOnUse">
<stop stop-color="white"/>
<stop offset="1" stop-color="white" stop-opacity="0.9"/>
</linearGradient>
</defs>
</svg>
