<svg width="81" height="80" viewBox="0 0 81 80" fill="none" xmlns="http://www.w3.org/2000/svg">
<circle cx="40.5" cy="40" r="40" fill="#FFF9EA"/>
<path fill-rule="evenodd" clip-rule="evenodd" d="M64.5 28C71.4036 28 77 22.4036 77 15.5C77 8.59644 71.4036 3 64.5 3C57.5964 3 52 8.59644 52 15.5C52 18.334 52.9431 20.9477 54.5326 23.0444C54.515 23.099 54.5017 23.1562 54.4931 23.216L54.015 26.5693C53.9064 27.3314 54.6635 27.9254 55.3778 27.6384L58.4117 26.4197C60.2133 27.4263 62.2896 28 64.5 28Z" fill="#3B4A65"/>
<path d="M63.7693 9.9645C63.8476 9.23556 64.5265 8.72519 65.2485 8.85251L66.3216 9.04172C67.0436 9.16903 67.507 9.88085 67.3313 10.5926L65.6885 17.2484C65.5289 17.8954 64.8952 18.308 64.2389 18.1922L64.0761 18.1635C63.4199 18.0478 62.9655 17.4434 63.0367 16.7808L63.7693 9.9645Z" fill="white"/>
<rect width="2.53314" height="2.53328" rx="1.26657" transform="matrix(0.984806 0.173658 -0.173638 0.98481 62.7188 19.0391)" fill="white"/>
<rect x="25.6172" y="17.918" width="22.2666" height="7.42204" rx="1.41796" fill="url(#paint0_linear_2035_143573)"/>
<rect x="29.3281" y="25.3398" width="14.8444" height="2.22661" fill="#F09B3E"/>
<rect x="23.3906" y="27.5664" width="26.7199" height="31.9148" rx="4.25387" fill="url(#paint1_linear_2035_143573)"/>
<rect x="23.3906" y="34.9883" width="26.7199" height="17.0707" fill="url(#paint2_linear_2035_143573)"/>
<path fill-rule="evenodd" clip-rule="evenodd" d="M35.2324 37.957C34.8409 37.957 34.5234 38.2745 34.5234 38.666V40.9258H32.2637C31.8721 40.9258 31.5547 41.2432 31.5547 41.6348V44.67C31.5547 45.0616 31.8721 45.379 32.2637 45.379H34.5234V47.6389C34.5234 48.0305 34.8409 48.3479 35.2324 48.3479H38.2678C38.6593 48.3479 38.9768 48.0305 38.9768 47.6389V45.379H41.2368C41.6283 45.379 41.9458 45.0616 41.9458 44.67V41.6348C41.9458 41.2432 41.6283 40.9258 41.2368 40.9258H38.9768V38.666C38.9768 38.2745 38.6593 37.957 38.2678 37.957H35.2324Z" fill="url(#paint3_linear_2035_143573)"/>
<rect width="10.6065" height="21.213" rx="5.30324" transform="matrix(0.707114 0.707099 -0.707114 0.707099 55.2461 41.25)" fill="url(#paint4_linear_2035_143573)"/>
<path d="M51.4961 44.9999C53.5672 42.9289 56.925 42.9289 58.9961 44.9999C61.0672 47.0709 61.0672 50.4287 58.9961 52.4998L55.2461 56.2497L47.7461 48.7498L51.4961 44.9999Z" fill="url(#paint5_linear_2035_143573)"/>
<defs>
<linearGradient id="paint0_linear_2035_143573" x1="31.5549" y1="15.6914" x2="41.5747" y2="26.8246" gradientUnits="userSpaceOnUse">
<stop stop-color="#CFE8FF"/>
<stop offset="1" stop-color="#BEDEFB"/>
</linearGradient>
<linearGradient id="paint1_linear_2035_143573" x1="36.7506" y1="27.5664" x2="36.7506" y2="59.4812" gradientUnits="userSpaceOnUse">
<stop stop-color="#FFDD6B"/>
<stop offset="1" stop-color="#FBB52F"/>
</linearGradient>
<linearGradient id="paint2_linear_2035_143573" x1="22.6484" y1="32.0195" x2="51.2234" y2="54.2862" gradientUnits="userSpaceOnUse">
<stop stop-color="#FFFEF9"/>
<stop offset="1" stop-color="#F0EFEB"/>
</linearGradient>
<linearGradient id="paint3_linear_2035_143573" x1="32.2969" y1="37.2148" x2="41.2033" y2="49.0903" gradientUnits="userSpaceOnUse">
<stop stop-color="#FB5872"/>
<stop offset="1" stop-color="#EE405D"/>
</linearGradient>
<linearGradient id="paint4_linear_2035_143573" x1="-1.38777" y1="11.3877" x2="12.2058" y2="11.2314" gradientUnits="userSpaceOnUse">
<stop stop-color="#FFF7F5"/>
<stop offset="1" stop-color="#EBE1DF"/>
</linearGradient>
<linearGradient id="paint5_linear_2035_143573" x1="50.6318" y1="44.7855" x2="59.2495" y2="53.4033" gradientUnits="userSpaceOnUse">
<stop stop-color="#F7655B"/>
<stop offset="1" stop-color="#E1453B"/>
</linearGradient>
</defs>
</svg>
