<svg width="81" height="80" viewBox="0 0 81 80" fill="none" xmlns="http://www.w3.org/2000/svg">
<circle cx="40.5" cy="40" r="40" fill="#FFF9EA"/>
<path d="M25.5 29.8712C25.5 27.7332 27.2332 26 29.3712 26H47.4364C49.5744 26 51.3075 27.7332 51.3075 29.8712V50.5175C51.3075 52.6555 49.5744 54.3887 47.4364 54.3887H29.3712C27.2332 54.3887 25.5 52.6555 25.5 50.5175V29.8712Z" fill="#D08CE9"/>
<path fill-rule="evenodd" clip-rule="evenodd" d="M54.5876 37.5387C55.0915 38.0427 55.0915 38.8597 54.5876 39.3636L46.2927 47.6586C46.1267 47.8246 45.9185 47.9422 45.6907 47.9987L42.5288 48.7823C42.0572 48.8992 41.6304 48.4725 41.7473 48.0009L42.531 44.839C42.5875 44.6111 42.7051 44.4029 42.8711 44.2369L51.1659 35.9419C51.6699 35.438 52.4869 35.438 52.9908 35.9419L54.5876 37.5387Z" fill="#6E37A6"/>
<path d="M34.2916 41.4416C32.8005 40.9432 29.4551 38.846 29.4551 35.2912C29.4551 33.7207 30.7359 32.4512 32.3226 32.4512C33.2593 32.4512 34.0909 32.8932 34.6166 33.5891C35.1327 32.9026 35.9739 32.4512 36.9106 32.4512C38.4973 32.4512 39.7781 33.7207 39.7781 35.2912C39.7781 38.846 36.4327 40.9432 34.932 41.4416C34.76 41.498 34.4637 41.498 34.2916 41.4416Z" fill="white"/>
<rect x="29.4551" y="45.3535" width="10.323" height="3.22599" rx="1.29039" fill="white"/>
<path fill-rule="evenodd" clip-rule="evenodd" d="M64 28C70.9036 28 76.5 22.4036 76.5 15.5C76.5 8.59644 70.9036 3 64 3C57.0964 3 51.5 8.59644 51.5 15.5C51.5 18.334 52.4431 20.9477 54.0326 23.0444C54.015 23.099 54.0017 23.1562 53.9931 23.216L53.515 26.5693C53.4064 27.3314 54.1635 27.9254 54.8778 27.6384L57.9117 26.4197C59.7133 27.4263 61.7896 28 64 28Z" fill="#3B4A65"/>
<path d="M63.2712 9.96548C63.3496 9.23654 64.0285 8.72617 64.7505 8.85348L65.8235 9.0427C66.5455 9.17001 67.009 9.88183 66.8333 10.5936L65.1905 17.2494C65.0308 17.8964 64.3971 18.3089 63.7409 18.1932L63.5781 18.1645C62.9218 18.0488 62.4674 17.4443 62.5387 16.7818L63.2712 9.96548Z" fill="white"/>
<rect width="2.53314" height="2.53328" rx="1.26657" transform="matrix(0.984806 0.173658 -0.173638 0.98481 62.2215 19.0399)" fill="white"/>
</svg>
