<svg width="33" height="32" viewBox="0 0 33 32" fill="none" xmlns="http://www.w3.org/2000/svg">
<rect width="32" height="32" transform="translate(0.774414)" fill="white"/>
<path d="M26.7768 10.8469C26.7768 12.1418 26.2714 13.3576 25.3562 14.2753L21.7093 17.9203C21.1853 18.4467 20.5448 18.845 19.8509 19.0779C19.8741 19.0197 19.8928 18.9615 19.9114 18.9009C19.9766 18.6843 20.0255 18.4654 20.0581 18.2441C20.0674 18.1835 20.0768 18.123 20.0814 18.0624C20.0907 18.0019 20.0954 17.9413 20.1 17.8784C20.1094 17.7573 20.114 17.6339 20.114 17.5128C20.114 17.4242 20.1117 17.3357 20.1047 17.2472C20.107 17.2426 20.1047 17.2402 20.1047 17.2356C20.1024 17.1704 20.0954 17.1052 20.0884 17.0399C20.0884 17.0167 20.0861 16.9957 20.0837 16.9724C20.0977 16.9631 20.1117 16.9514 20.1233 16.9421C20.1094 16.9538 20.0954 16.9631 20.0814 16.9701C20.0744 16.8955 20.0628 16.8233 20.0511 16.7511C20.0232 16.5601 19.9813 16.3738 19.93 16.1898C19.9394 16.1828 19.9487 16.1735 19.9557 16.1665L23.6003 12.5192C24.0614 12.058 24.2919 11.4524 24.2919 10.8469C24.2919 10.2413 24.0614 9.63573 23.6003 9.17457C22.6781 8.25224 21.1783 8.25224 20.2561 9.17457L16.6115 12.8219C16.6115 12.8219 16.5975 12.8359 16.5882 12.8452C16.4671 12.9663 16.3646 13.1014 16.2691 13.2528C16.2272 13.3204 16.1899 13.3879 16.1573 13.4601C16.1387 13.4974 16.1201 13.5346 16.1061 13.5742C16.1014 13.5812 16.0968 13.5905 16.0968 13.5975C16.0642 13.6744 16.0362 13.7536 16.0129 13.8351C15.9873 13.9259 15.9664 14.0191 15.9524 14.1123C15.9454 14.1519 15.9384 14.1915 15.9361 14.231C15.9291 14.2753 15.9268 14.3196 15.9244 14.3638C15.9198 14.415 15.9198 14.464 15.9198 14.5152C15.9198 14.6037 15.9244 14.6899 15.9361 14.7761C15.9571 14.9484 15.9966 15.1184 16.0549 15.2815C16.0618 15.3024 16.0688 15.3257 16.0781 15.3467C16.1014 15.4049 16.1247 15.4655 16.1527 15.5214C16.155 15.526 16.1573 15.5284 16.1573 15.5307C16.1829 15.5819 16.2086 15.6308 16.2388 15.6797C16.2435 15.6914 16.2505 15.703 16.2575 15.7147C16.2784 15.7496 16.2994 15.7822 16.325 15.8148C16.3436 15.8474 16.3669 15.8801 16.3925 15.9103C16.4112 15.9406 16.4345 15.9662 16.4554 15.9942C16.5043 16.0547 16.5556 16.1106 16.6115 16.1665C16.6673 16.2224 16.7232 16.2737 16.7838 16.3226C16.8117 16.3435 16.8373 16.3668 16.8676 16.3855C16.8979 16.4111 16.9305 16.4344 16.9631 16.453C16.9957 16.4786 17.0283 16.4996 17.0632 16.5206C17.0749 16.5275 17.0865 16.5345 17.0982 16.5392C17.1471 16.5695 17.196 16.5951 17.2472 16.6207C17.2496 16.6207 17.2519 16.623 17.2565 16.6254C17.3124 16.6533 17.373 16.6766 17.4312 16.6999C17.4522 16.7092 17.4731 16.7162 17.4941 16.7209C17.5523 16.8862 17.5919 17.0562 17.6128 17.2286C17.6222 17.3148 17.6292 17.401 17.6292 17.4871C17.6292 17.5384 17.6292 17.5873 17.6245 17.6385C17.6245 17.6781 17.6198 17.7177 17.6152 17.7573C17.6082 17.8388 17.5942 17.9203 17.5756 18.0019C17.5686 18.0415 17.5593 18.0811 17.5476 18.1206C17.5313 18.1835 17.5127 18.2464 17.4894 18.3093C17.4731 18.3605 17.4522 18.4095 17.4289 18.4607C17.4172 18.4886 17.4033 18.5166 17.3893 18.5445C17.3567 18.6144 17.3194 18.6843 17.2775 18.7495C17.1843 18.9009 17.0795 19.036 16.9608 19.1571C16.8583 19.1291 16.7558 19.0965 16.6534 19.0593C16.6091 19.043 16.5672 19.029 16.523 19.0104C16.4764 18.9941 16.4298 18.9754 16.3832 18.9545C16.3367 18.9358 16.2901 18.9149 16.2412 18.8916C16.155 18.852 16.0688 18.8101 15.985 18.7635C15.9338 18.7379 15.8825 18.7076 15.8336 18.6773C15.7894 18.6517 15.7451 18.6261 15.7032 18.5981C15.5728 18.5166 15.4447 18.4281 15.3236 18.3326C15.2817 18.3023 15.2421 18.2697 15.2025 18.2348C15.0814 18.137 14.9673 18.0321 14.8555 17.9203C14.7903 17.8551 14.7298 17.7899 14.6715 17.7224C14.6436 17.6944 14.618 17.6665 14.5947 17.6362C14.5411 17.5756 14.4922 17.5151 14.4433 17.4522C14.3851 17.3777 14.3315 17.3031 14.2803 17.2286C14.2267 17.1517 14.1778 17.0749 14.1289 16.9957C14.108 16.9584 14.087 16.9235 14.0637 16.8839C14.0171 16.8024 13.9729 16.7185 13.9333 16.6347C13.8937 16.5555 13.8564 16.474 13.8215 16.3925C13.7819 16.3016 13.747 16.2108 13.7144 16.1153C13.7097 16.106 13.7051 16.0943 13.7027 16.0827C13.6701 15.9942 13.6422 15.9057 13.6166 15.8148C13.5653 15.6308 13.5258 15.4445 13.4955 15.2535C13.4838 15.179 13.4745 15.1068 13.4675 15.0323H13.4652C13.4629 15.0136 13.4629 14.9973 13.4605 14.981C13.4559 14.9251 13.4512 14.8669 13.4489 14.811C13.4442 14.7761 13.4419 14.7411 13.4419 14.7062C13.4373 14.6363 13.4373 14.5641 13.4373 14.4942C13.4373 14.3708 13.4419 14.2497 13.4512 14.1262C13.4559 14.0657 13.4629 14.0028 13.4699 13.9422C13.4745 13.8794 13.4838 13.8188 13.4931 13.7582C13.5258 13.537 13.5747 13.3157 13.6375 13.1014C13.6562 13.0432 13.6748 12.9826 13.6958 12.9244C13.931 12.2303 14.3292 11.5922 14.8555 11.0681L18.5001 7.42075C19.4154 6.50542 20.6333 6 21.9258 6H21.9282C23.2207 6 24.4387 6.50542 25.3539 7.42075C26.2691 8.33842 26.7745 9.55421 26.7745 10.8469H26.7768Z" fill="#65DE95"/>
<path d="M20.1046 17.2477C20.1046 17.2477 20.1046 17.2407 20.1046 17.2361C20.1023 17.1708 20.0953 17.1056 20.0883 17.0404C20.0883 17.0171 20.086 16.9938 20.0814 16.9705C20.0744 16.896 20.0627 16.8238 20.0511 16.7516C20.0231 16.5606 19.9812 16.3743 19.93 16.1903C19.916 16.1414 19.902 16.0925 19.8857 16.0436C19.8764 16.0133 19.8671 15.983 19.8578 15.9551C19.8438 15.9131 19.8298 15.8712 19.8135 15.8293C19.7134 15.5544 19.5876 15.2913 19.4363 15.0397C19.3897 14.9582 19.3408 14.879 19.2872 14.8021C19.229 14.716 19.1685 14.6321 19.1056 14.5506C19.0567 14.4877 19.0078 14.4272 18.9542 14.3666C18.9309 14.3363 18.9053 14.3084 18.8773 14.2804C18.8215 14.2129 18.7586 14.1477 18.6934 14.0825C18.5071 13.8961 18.3091 13.7284 18.1018 13.577C18.0529 13.5444 18.004 13.5095 17.9551 13.4769C17.8503 13.4047 17.7432 13.3395 17.6338 13.2789C17.5779 13.2486 17.522 13.2184 17.4661 13.1904C17.4591 13.1858 17.4521 13.1811 17.4451 13.1788C17.3403 13.1275 17.2309 13.0786 17.1237 13.032C17.0655 13.0087 17.005 12.9854 16.9467 12.9645C16.8862 12.9412 16.828 12.9202 16.7674 12.9016C16.7092 12.883 16.6487 12.8643 16.5881 12.8457C16.467 12.9668 16.3645 13.1019 16.2691 13.2533C16.2271 13.3208 16.1899 13.3884 16.1573 13.4606C16.1386 13.4979 16.1223 13.5374 16.106 13.5747C16.1014 13.5817 16.0967 13.591 16.0967 13.598C16.0641 13.6749 16.0362 13.7541 16.0129 13.8356C15.9873 13.9264 15.9663 14.0196 15.9523 14.1127C15.9454 14.1523 15.9384 14.1919 15.936 14.2315C15.929 14.2758 15.9267 14.32 15.9244 14.3643C15.9197 14.4155 15.9197 14.4644 15.9197 14.5157C15.9384 14.5203 15.9593 14.525 15.978 14.5296C15.9593 14.525 15.9407 14.5227 15.9197 14.518C15.9197 14.6042 15.9244 14.6904 15.936 14.7765C15.957 14.9489 15.9966 15.1189 16.0548 15.2819C16.0571 15.2819 16.0618 15.2819 16.0641 15.2843C16.0944 15.2936 16.1247 15.3052 16.1549 15.3169C16.2062 15.3378 16.2551 15.3611 16.304 15.3844C16.3552 15.41 16.4041 15.4357 16.453 15.4659C16.4647 15.4706 16.4763 15.4776 16.488 15.4846C16.5392 15.5149 16.5881 15.5475 16.6347 15.5801C16.6836 15.6173 16.7302 15.6523 16.7744 15.6919C16.7837 15.6989 16.793 15.7058 16.8024 15.7152C16.8489 15.7524 16.8932 15.7943 16.9374 15.8386C16.9724 15.8735 17.0073 15.9108 17.0399 15.9504C17.0585 15.969 17.0772 15.99 17.0935 16.011C17.1144 16.0389 17.1377 16.0645 17.1563 16.0948C17.182 16.1251 17.2052 16.1577 17.2239 16.1903C17.2495 16.2229 17.2705 16.2555 17.2914 16.2904C17.2984 16.3021 17.3054 16.3137 17.31 16.3254C17.3403 16.3743 17.3659 16.4232 17.3916 16.4744C17.3916 16.4744 17.3939 16.4791 17.3962 16.4838C17.4242 16.5397 17.4474 16.6002 17.4707 16.6584C17.48 16.6794 17.487 16.7004 17.4917 16.7213C17.5499 16.8867 17.5895 17.0567 17.6105 17.2291C17.6198 17.3152 17.6268 17.4014 17.6268 17.4876C17.6268 17.5388 17.6268 17.5878 17.6221 17.639C17.6221 17.6786 17.6175 17.7182 17.6128 17.7578C17.6058 17.8393 17.5918 17.9208 17.5732 18.0023C17.5662 18.0419 17.5569 18.0815 17.5453 18.1211C17.529 18.184 17.5103 18.2469 17.487 18.3098C17.4707 18.361 17.4498 18.4099 17.4265 18.4612C17.4148 18.4891 17.4032 18.5171 17.3892 18.545C17.3566 18.6149 17.3194 18.6848 17.2774 18.75C17.1843 18.9014 17.0795 19.0365 16.9607 19.1576C16.9537 19.1669 16.9467 19.1739 16.9374 19.1832L13.2928 22.8282C12.3683 23.7506 10.8685 23.7506 9.94628 22.8282C9.02406 21.9059 9.02406 20.406 9.94628 19.4836L13.5932 15.8386C13.5932 15.8386 13.6072 15.8246 13.6165 15.8153C13.5653 15.6313 13.5257 15.445 13.4954 15.254C13.4838 15.1795 13.4745 15.1073 13.4675 15.0327C13.4325 15.056 13.3976 15.0816 13.365 15.1096C13.3976 15.0816 13.4302 15.056 13.4651 15.0304C13.4628 15.0141 13.4628 14.9978 13.4605 14.9815C13.4558 14.9256 13.4512 14.8674 13.4488 14.8115C13.4442 14.7765 13.4419 14.7416 13.4419 14.7067C13.4372 14.6368 13.4372 14.5646 13.4372 14.4947C13.4372 14.3713 13.4419 14.2502 13.4512 14.1267C13.4558 14.0662 13.4605 14.0033 13.4698 13.9427C13.4745 13.8798 13.4838 13.8193 13.4931 13.7587C13.5257 13.5374 13.5746 13.3162 13.6375 13.1019C13.6561 13.0437 13.6747 12.9831 13.6957 12.9249C13.0017 13.1601 12.3636 13.5584 11.8396 14.0825L8.19267 17.7298C7.27744 18.6452 6.77441 19.861 6.77441 21.1559C6.77441 22.4509 7.27744 23.669 8.19267 24.5844C9.13818 25.5277 10.3794 26.0005 11.6184 26.0005C12.8573 26.0005 14.1009 25.5277 15.0464 24.582L18.691 20.937C19.2174 20.413 19.6156 19.7748 19.8485 19.0784C19.8718 19.0202 19.8904 18.9619 19.909 18.9014C19.9742 18.6848 20.0231 18.4658 20.0557 18.2446C20.0651 18.184 20.0744 18.1234 20.079 18.0629C20.0883 18.0023 20.093 17.9418 20.0977 17.8789C20.107 17.7578 20.1116 17.6343 20.1116 17.5132C20.1116 17.4247 20.1093 17.3362 20.1023 17.2477H20.1046ZM19.243 18.7034C19.25 18.6871 19.2546 18.6685 19.2593 18.6498C19.2546 18.6685 19.25 18.6871 19.2453 18.7034H19.243Z" fill="#54B5EC"/>
</svg>
