<svg width="81" height="80" viewBox="0 0 81 80" fill="none" xmlns="http://www.w3.org/2000/svg">
<circle cx="40.5" cy="40" r="40" fill="#FFF9EA"/>
<path d="M39.1148 58.8218C32.7593 56.725 18.5 47.9024 18.5 32.9477C18.5 26.3407 23.9593 20.9998 30.7222 20.9998C34.7148 20.9998 38.2593 22.8592 40.5 25.7869C42.7 22.8988 46.2852 20.9998 50.2778 20.9998C57.0407 20.9998 62.5 26.3407 62.5 32.9477C62.5 47.9024 48.2408 56.725 41.8445 58.8218C41.1111 59.0592 39.8482 59.0592 39.1148 58.8218Z" fill="url(#paint0_linear_1_36827)"/>
<path fill-rule="evenodd" clip-rule="evenodd" d="M64.5 28C71.4036 28 77 22.4036 77 15.5C77 8.59644 71.4036 3 64.5 3C57.5964 3 52 8.59644 52 15.5C52 18.334 52.9431 20.9477 54.5326 23.0444C54.515 23.099 54.5017 23.1562 54.4931 23.216L54.015 26.5693C53.9064 27.3314 54.6635 27.9254 55.3778 27.6384L58.4117 26.4197C60.2133 27.4263 62.2896 28 64.5 28Z" fill="#3B4A65"/>
<path d="M63.7712 9.96548C63.8496 9.23654 64.5285 8.72617 65.2505 8.85348L66.3235 9.0427C67.0455 9.17001 67.509 9.88183 67.3333 10.5936L65.6905 17.2494C65.5308 17.8964 64.8971 18.3089 64.2409 18.1932L64.0781 18.1645C63.4218 18.0488 62.9674 17.4443 63.0387 16.7818L63.7712 9.96548Z" fill="white"/>
<rect width="2.53314" height="2.53328" rx="1.26657" transform="matrix(0.984806 0.173658 -0.173638 0.98481 62.7216 19.0399)" fill="white"/>
<defs>
<linearGradient id="paint0_linear_1_36827" x1="40.5" y1="20.9998" x2="40.5" y2="58.9998" gradientUnits="userSpaceOnUse">
<stop stop-color="#FF7E7E"/>
<stop offset="1" stop-color="#F14F4F"/>
</linearGradient>
</defs>
</svg>
