<svg width="61" height="60" viewBox="0 0 61 60" fill="none" xmlns="http://www.w3.org/2000/svg">
<g id="Group 1261167619">
<circle id="Ellipse 5373" cx="30.5" cy="30" r="30" fill="#DEDEDE"/>
<g id="&#236;&#158;&#133;">
<g id="Ellipse 3144">
<path d="M13.625 33.75C12.5895 33.75 11.7393 34.5921 11.8537 35.6213C12.3024 39.6576 14.1928 43.4489 17.2417 46.3453C20.7581 49.6858 25.5272 51.5625 30.5 51.5625C35.4728 51.5625 40.2419 49.6858 43.7583 46.3453C46.8072 43.4489 48.6976 39.6576 49.1463 35.6213C49.2607 34.5921 48.4105 33.75 47.375 33.75L30.5 33.75L13.625 33.75Z" fill="#B0B0B0"/>
<path d="M13.625 33.75C12.5895 33.75 11.7393 34.5921 11.8537 35.6213C12.3024 39.6576 14.1928 43.4489 17.2417 46.3453C20.7581 49.6858 25.5272 51.5625 30.5 51.5625C35.4728 51.5625 40.2419 49.6858 43.7583 46.3453C46.8072 43.4489 48.6976 39.6576 49.1463 35.6213C49.2607 34.5921 48.4105 33.75 47.375 33.75L30.5 33.75L13.625 33.75Z" fill="#B0B0B0"/>
</g>
<path id="Rectangle 34624665" d="M17.375 33.75H43.375C43.375 35.4069 42.0319 36.75 40.375 36.75H20.375C18.7181 36.75 17.375 35.4069 17.375 33.75Z" fill="white"/>
</g>
<g id="&#235;&#136;&#136;">
<g id="Group 1261167612">
<circle id="Ellipse 5374" cx="18.3125" cy="20.625" r="9.375" fill="white"/>
<circle id="Ellipse 5376" cx="20.1875" cy="19.6875" r="4.6875" fill="#686868"/>
</g>
<g id="Group 1261167613">
<circle id="Ellipse 5375" cx="42.6875" cy="20.625" r="9.375" fill="white"/>
<circle id="Ellipse 5377" cx="40.8125" cy="19.6875" r="4.6875" fill="#686868"/>
</g>
</g>
</g>
</svg>
