<svg id="eRyLgM31Sce1" xmlns="http://www.w3.org/2000/svg" xmlns:xlink="http://www.w3.org/1999/xlink" viewBox="0 0 100 100" shape-rendering="geometricPrecision" text-rendering="geometricPrecision">
<style><![CDATA[
#eRyLgM31Sce20_to {animation: eRyLgM31Sce20_to__to 1400ms linear 1 normal forwards}@keyframes eRyLgM31Sce20_to__to { 0% {transform: translate(50.0131px,92.889053px)} 21.428571% {transform: translate(50.0131px,92.889053px)} 42.857143% {transform: translate(50.0131px,79px)} 57.142857% {transform: translate(50.0131px,92.89px)} 100% {transform: translate(50.0131px,92.89px)}} #eRyLgM31Sce20_ts {animation: eRyLgM31Sce20_ts__ts 1400ms linear 1 normal forwards}@keyframes eRyLgM31Sce20_ts__ts { 0% {transform: scale(1,1)} 21.428571% {transform: scale(1,0.8)} 42.857143% {transform: scale(0.8,1)} 57.142857% {transform: scale(1,0.8)} 71.428571% {transform: scale(1,1)} 100% {transform: scale(1,1)}} #eRyLgM31Sce22_to {animation: eRyLgM31Sce22_to__to 1400ms linear 1 normal forwards}@keyframes eRyLgM31Sce22_to__to { 0% {transform: translate(48.950301px,50px)} 42.857143% {transform: translate(48.950301px,50px)} 57.142857% {transform: translate(48.950301px,68.76345px)} 100% {transform: translate(48.950301px,68.76345px)}} #eRyLgM31Sce22_ts {animation: eRyLgM31Sce22_ts__ts 1400ms linear 1 normal forwards}@keyframes eRyLgM31Sce22_ts__ts { 0% {transform: scale(0.8,1)} 42.857143% {transform: scale(0.8,1)} 57.142857% {transform: scale(1,0.8)} 71.428571% {transform: scale(1,1)} 100% {transform: scale(1,1)}} #eRyLgM31Sce22 {animation: eRyLgM31Sce22_c_o 1400ms linear 1 normal forwards}@keyframes eRyLgM31Sce22_c_o { 0% {opacity: 0} 42.857143% {opacity: 0} 57.142857% {opacity: 1} 100% {opacity: 1}}
]]></style>
<defs><filter id="eRyLgM31Sce5-filter" x="-150%" width="400%" y="-150%" height="400%"><feGaussianBlur id="eRyLgM31Sce5-filter-drop-shadow-0-blur" in="SourceAlpha" stdDeviation="1.10584,1.10584"/><feOffset id="eRyLgM31Sce5-filter-drop-shadow-0-offset" dx="0" dy="1.10584" result="tmp"/><feFlood id="eRyLgM31Sce5-filter-drop-shadow-0-flood" flood-color="rgba(85,78,59,0.2)"/><feComposite id="eRyLgM31Sce5-filter-drop-shadow-0-composite" operator="in" in2="tmp"/><feMerge id="eRyLgM31Sce5-filter-drop-shadow-0-merge" result="result"><feMergeNode id="eRyLgM31Sce5-filter-drop-shadow-0-merge-node-1"/><feMergeNode id="eRyLgM31Sce5-filter-drop-shadow-0-merge-node-2" in="SourceGraphic"/></feMerge></filter><linearGradient id="eRyLgM31Sce6-fill" x1="25.9961" y1="23.9052" x2="76.4903" y2="96.653" spreadMethod="pad" gradientUnits="userSpaceOnUse" gradientTransform="translate(0 0)"><stop id="eRyLgM31Sce6-fill-0" offset="0%" stop-color="#ffe926"/><stop id="eRyLgM31Sce6-fill-1" offset="100%" stop-color="#ffb017"/><stop id="eRyLgM31Sce6-fill-2" offset="100%" stop-color="#ffae10"/></linearGradient><linearGradient id="eRyLgM31Sce7-fill" x1="49.6951" y1="7.34375" x2="49.6951" y2="57.1042" spreadMethod="pad" gradientUnits="userSpaceOnUse" gradientTransform="translate(0 0)"><stop id="eRyLgM31Sce7-fill-0" offset="0%" stop-color="#e4e5ef"/><stop id="eRyLgM31Sce7-fill-1" offset="100%" stop-color="#cdcfe1"/></linearGradient><linearGradient id="eRyLgM31Sce10-fill" x1="15.7004" y1="36.6562" x2="15.7004" y2="67.0654" spreadMethod="pad" gradientUnits="userSpaceOnUse" gradientTransform="translate(0 0)"><stop id="eRyLgM31Sce10-fill-0" offset="0%" stop-color="#99a1ec"/><stop id="eRyLgM31Sce10-fill-1" offset="100%" stop-color="#757fdb"/></linearGradient><linearGradient id="eRyLgM31Sce11-fill" x1="83.8621" y1="36.6562" x2="83.8621" y2="67.0654" spreadMethod="pad" gradientUnits="userSpaceOnUse" gradientTransform="translate(0 0)"><stop id="eRyLgM31Sce11-fill-0" offset="0%" stop-color="#99a1ec"/><stop id="eRyLgM31Sce11-fill-1" offset="100%" stop-color="#757fdb"/></linearGradient><filter id="eRyLgM31Sce20-filter" x="-150%" width="400%" y="-150%" height="400%"><feGaussianBlur id="eRyLgM31Sce20-filter-drop-shadow-0-blur" in="SourceAlpha" stdDeviation="1.10584,1.10584"/><feOffset id="eRyLgM31Sce20-filter-drop-shadow-0-offset" dx="0" dy="1.10584" result="tmp"/><feFlood id="eRyLgM31Sce20-filter-drop-shadow-0-flood" flood-color="rgba(85,78,59,0.2)"/><feComposite id="eRyLgM31Sce20-filter-drop-shadow-0-composite" operator="in" in2="tmp"/><feMerge id="eRyLgM31Sce20-filter-drop-shadow-0-merge" result="result"><feMergeNode id="eRyLgM31Sce20-filter-drop-shadow-0-merge-node-1"/><feMergeNode id="eRyLgM31Sce20-filter-drop-shadow-0-merge-node-2" in="SourceGraphic"/></feMerge></filter><linearGradient id="eRyLgM31Sce21-fill" x1="25.9961" y1="23.9052" x2="76.4903" y2="96.653" spreadMethod="pad" gradientUnits="userSpaceOnUse" gradientTransform="translate(0 0)"><stop id="eRyLgM31Sce21-fill-0" offset="0%" stop-color="#ffe926"/><stop id="eRyLgM31Sce21-fill-1" offset="100%" stop-color="#ffb017"/><stop id="eRyLgM31Sce21-fill-2" offset="100%" stop-color="#ffae10"/></linearGradient><linearGradient id="eRyLgM31Sce23-fill" x1="49.6951" y1="7.34375" x2="49.6951" y2="57.1042" spreadMethod="pad" gradientUnits="userSpaceOnUse" gradientTransform="translate(0 0)"><stop id="eRyLgM31Sce23-fill-0" offset="0%" stop-color="#e4e5ef"/><stop id="eRyLgM31Sce23-fill-1" offset="100%" stop-color="#cdcfe1"/></linearGradient><linearGradient id="eRyLgM31Sce26-fill" x1="15.7004" y1="36.6562" x2="15.7004" y2="67.0654" spreadMethod="pad" gradientUnits="userSpaceOnUse" gradientTransform="translate(0 0)"><stop id="eRyLgM31Sce26-fill-0" offset="0%" stop-color="#99a1ec"/><stop id="eRyLgM31Sce26-fill-1" offset="100%" stop-color="#757fdb"/></linearGradient><linearGradient id="eRyLgM31Sce27-fill" x1="83.8621" y1="36.6562" x2="83.8621" y2="67.0654" spreadMethod="pad" gradientUnits="userSpaceOnUse" gradientTransform="translate(0 0)"><stop id="eRyLgM31Sce27-fill-0" offset="0%" stop-color="#99a1ec"/><stop id="eRyLgM31Sce27-fill-1" offset="100%" stop-color="#757fdb"/></linearGradient></defs><g clip-path="url(#eRyLgM31Sce15)"><g><rect width="100" height="100" rx="0" ry="0" fill="#fff"/><g filter="url(#eRyLgM31Sce5-filter)"><path d="M45.0401,19.3907c2.2482-3.7354,7.6638-3.7354,9.912,0L64.203,34.7612c.8076,1.342,2.125,2.299,3.6509,2.6524L85.3313,41.461c4.2477.9837,5.9213,6.1348,3.063,9.4273L76.6345,64.4343c-1.0269,1.1828-1.5301,2.7316-1.3947,4.2922l1.5511,17.8709c.377,4.3436-4.0044,7.527-8.019,5.8264l-16.5195-6.998c-1.4422-.6109-3.0704-.6109-4.5126,0l-16.5196,6.998c-4.0145,1.7006-8.3959-1.4828-8.0189-5.8264l1.5511-17.8709c.1354-1.5606-.3678-3.1094-1.3947-4.2923L11.5979,50.8883c-2.85833-3.2925-1.1847-8.4436,3.063-9.4273l17.4774-4.0474c1.5259-.3534,2.8432-1.3104,3.6509-2.6524l9.2509-15.3705Z" fill="url(#eRyLgM31Sce6-fill)"/></g><path d="M16.2422,40.5174c0-18.3213,14.9774-33.17365,33.4529-33.17365c18.4756,0,33.453,14.85235,33.453,33.17365v16.5868h-6.6906v-16.5868c0-14.657-11.9819-26.5389-26.7624-26.5389-14.7804,0-26.7623,11.8819-26.7623,26.5389v16.5868h-6.6906v-16.5868Z" clip-rule="evenodd" fill="url(#eRyLgM31Sce7-fill)" fill-rule="evenodd"/><path d="M18.4922,60.8438v3.6547c0,6.7293,5.4552,12.1846,12.1846,12.1846h9.1394" fill="none" stroke="#706f9a" stroke-width="2.43693"/><rect width="14.6222" height="8.52887" rx="4.26443" ry="4.26443" transform="translate(34.3281 72.4141)" fill="#f2f2f6"/><path d="M7.40625,46.404c0-5.3836,4.36415-9.7478,9.74775-9.7478h3.7943c1.6824,0,3.0462,1.3639,3.0462,3.0462v24.3169c0,1.6823-1.3638,3.0461-3.0462,3.0461h-3.7943c-5.3836,0-9.74775-4.3642-9.74775-9.7477v-10.9137Z" fill="url(#eRyLgM31Sce10-fill)"/><path d="M92.1562,46.404c0-5.3836-4.3641-9.7478-9.7477-9.7478h-3.7943c-1.6824,0-3.0462,1.3639-3.0462,3.0462v24.3169c0,1.6823,1.3638,3.0461,3.0462,3.0461h3.7943c5.3836,0,9.7477-4.3642,9.7477-9.7477v-10.9137Z" fill="url(#eRyLgM31Sce11-fill)"/><ellipse rx="3.3178" ry="3.31766" transform="translate(38.3959 56.5598)" fill="#fff"/><ellipse rx="3.3178" ry="3.31766" transform="translate(50.0131 56.5598)" opacity="0.6" fill="#fff"/><ellipse rx="3.3178" ry="3.31766" transform="translate(61.6069 56.5598)" opacity="0.3" fill="#fff"/></g><clipPath id="eRyLgM31Sce15"><rect width="100" height="100" rx="0" ry="0" fill="#fff"/></clipPath></g><g clip-path="url(#eRyLgM31Sce32)"><g><rect width="100" height="100" rx="0" ry="0" fill="#fff"/><g id="eRyLgM31Sce20_to" transform="translate(50.0131,92.889053)"><g id="eRyLgM31Sce20_ts" transform="scale(1,1)"><g transform="translate(-50.0131,-92.889053)" filter="url(#eRyLgM31Sce20-filter)"><path d="M45.0401,19.3907c2.2482-3.7354,7.6638-3.7354,9.912,0L64.203,34.7612c.8076,1.342,2.125,2.299,3.6509,2.6524L85.3313,41.461c4.2477.9837,5.9213,6.1348,3.063,9.4273L76.6345,64.4343c-1.0269,1.1828-1.5301,2.7316-1.3947,4.2922l1.5511,17.8709c.377,4.3436-4.0044,7.527-8.019,5.8264l-16.5195-6.998c-1.4422-.6109-3.0704-.6109-4.5126,0l-16.5196,6.998c-4.0145,1.7006-8.3959-1.4828-8.0189-5.8264l1.5511-17.8709c.1354-1.5606-.3678-3.1094-1.3947-4.2923L11.5979,50.8883c-2.85833-3.2925-1.1847-8.4436,3.063-9.4273l17.4774-4.0474c1.5259-.3534,2.8432-1.3104,3.6509-2.6524l9.2509-15.3705Z" fill="url(#eRyLgM31Sce21-fill)"/></g></g></g><g id="eRyLgM31Sce22_to" transform="translate(48.950301,50)"><g id="eRyLgM31Sce22_ts" transform="scale(0.8,1)"><g id="eRyLgM31Sce22" transform="translate(-48.9503,-68.76345)" opacity="0"><path d="M16.2422,40.5174c0-18.3213,14.9774-33.17365,33.4529-33.17365c18.4756,0,33.453,14.85235,33.453,33.17365v16.5868h-6.6906v-16.5868c0-14.657-11.9819-26.5389-26.7624-26.5389-14.7804,0-26.7623,11.8819-26.7623,26.5389v16.5868h-6.6906v-16.5868Z" clip-rule="evenodd" fill="url(#eRyLgM31Sce23-fill)" fill-rule="evenodd"/><path d="M18.4922,60.8438v3.6547c0,6.7293,5.4552,12.1846,12.1846,12.1846h9.1394" fill="none" stroke="#706f9a" stroke-width="2.43693"/><rect width="14.6222" height="8.52887" rx="4.26443" ry="4.26443" transform="translate(34.3281 72.4141)" fill="#f2f2f6"/><path d="M7.40625,46.404c0-5.3836,4.36415-9.7478,9.74775-9.7478h3.7943c1.6824,0,3.0462,1.3639,3.0462,3.0462v24.3169c0,1.6823-1.3638,3.0461-3.0462,3.0461h-3.7943c-5.3836,0-9.74775-4.3642-9.74775-9.7477v-10.9137Z" fill="url(#eRyLgM31Sce26-fill)"/><path d="M92.1562,46.404c0-5.3836-4.3641-9.7478-9.7477-9.7478h-3.7943c-1.6824,0-3.0462,1.3639-3.0462,3.0462v24.3169c0,1.6823,1.3638,3.0461,3.0462,3.0461h3.7943c5.3836,0,9.7477-4.3642,9.7477-9.7477v-10.9137Z" fill="url(#eRyLgM31Sce27-fill)"/></g></g></g></g><clipPath id="eRyLgM31Sce32"><rect width="100" height="100" rx="0" ry="0" fill="#fff"/></clipPath></g></svg>
