<svg width="81" height="80" viewBox="0 0 81 80" fill="none" xmlns="http://www.w3.org/2000/svg">
<circle cx="40.5" cy="40" r="40" fill="#FFF9EA"/>
<rect x="23.5" y="23" width="34" height="34" rx="5.71429" fill="#C6EBFF"/>
<path d="M27.7852 35.5344C27.7852 30.9784 31.4784 27.2852 36.0344 27.2852H45.2503C49.8062 27.2852 53.4995 30.9784 53.4995 35.5343V36.0177C53.4995 38.2957 51.6529 40.1423 49.3749 40.1423H31.9098C29.6318 40.1423 27.7852 38.2957 27.7852 36.0177V35.5344Z" fill="white"/>
<path d="M28.8163 35.5344C28.8163 31.5479 32.0479 28.3163 36.0344 28.3163H45.2503C49.2367 28.3163 52.4684 31.5479 52.4684 35.5343V36.0177C52.4684 37.7262 51.0834 39.1112 49.3749 39.1112H31.9098C30.2013 39.1112 28.8163 37.7262 28.8163 36.0177V35.5344Z" stroke="#51B4EC" stroke-width="2.0623"/>
<path d="M36 33H40V35H36V33Z" fill="#276487"/>
<path d="M41 33H45V35H41V33Z" fill="#276487"/>
<path fill-rule="evenodd" clip-rule="evenodd" d="M64.5 28C71.4036 28 77 22.4036 77 15.5C77 8.59644 71.4036 3 64.5 3C57.5964 3 52 8.59644 52 15.5C52 18.334 52.9431 20.9477 54.5326 23.0444C54.515 23.099 54.5017 23.1562 54.4931 23.216L54.015 26.5693C53.9064 27.3314 54.6635 27.9254 55.3778 27.6384L58.4117 26.4197C60.2133 27.4263 62.2896 28 64.5 28Z" fill="#3B4A65"/>
<path d="M63.7693 9.9645C63.8476 9.23556 64.5265 8.72519 65.2485 8.85251L66.3216 9.04172C67.0436 9.16903 67.507 9.88085 67.3313 10.5926L65.6885 17.2484C65.5289 17.8954 64.8952 18.308 64.2389 18.1922L64.0761 18.1635C63.4199 18.0478 62.9655 17.4434 63.0367 16.7808L63.7693 9.9645Z" fill="white"/>
<rect width="2.53314" height="2.53328" rx="1.26657" transform="matrix(0.984806 0.173658 -0.173638 0.98481 62.7188 19.0391)" fill="white"/>
</svg>
