<svg width="100" height="100" viewBox="0 0 100 100" fill="none" xmlns="http://www.w3.org/2000/svg">
<rect width="100" height="100" fill="white"/>
<g filter="url(#filter0_d_2853_8734)">
<path d="M22.4297 20.7952C22.4297 16.3217 26.0561 12.6953 30.5296 12.6953H69.6804L83.1806 26.0503V78.5485C83.1806 83.0219 79.5542 86.6484 75.0808 86.6484H30.5296C26.0561 86.6484 22.4297 83.0219 22.4297 78.5485V20.7952Z" fill="url(#paint0_linear_2853_8734)"/>
</g>
<path d="M33.0898 35.1484H52.8999" stroke="#D2D9E1" stroke-width="3.34647" stroke-linecap="round" stroke-linejoin="round"/>
<path d="M33.0898 45.7109H46.2966" stroke="#D2D9E1" stroke-width="3.34647" stroke-linecap="round" stroke-linejoin="round"/>
<path d="M33.0898 24.5938H58.1826" stroke="#D2D9E1" stroke-width="3.34647" stroke-linecap="round" stroke-linejoin="round"/>
<path d="M83.1833 25.9012H72.0015C70.8832 25.9012 69.9766 24.9946 69.9766 23.8762V12.6953L83.1833 25.9012Z" fill="#AEBBC9"/>
<path d="M15.8594 67.5704L33.6872 77.8342L43.4115 60.0075L57.4577 66.49L68.2624 41.6406" stroke="#9798A0" stroke-width="1.24251"/>
<ellipse cx="16.9701" cy="68.2082" rx="3.79436" ry="3.79412" fill="#4696F5"/>
<ellipse cx="33.2319" cy="77.966" rx="3.79436" ry="3.79412" fill="#4696F5"/>
<ellipse cx="44.0678" cy="59.5441" rx="3.79436" ry="3.79412" fill="#4696F5"/>
<ellipse cx="58.1655" cy="67.1222" rx="3.79436" ry="3.79412" fill="#4696F5"/>
<ellipse cx="67.9194" cy="43.2785" rx="3.79436" ry="3.79412" fill="#F5656E"/>
<defs>
<filter id="filter0_d_2853_8734" x="20.0182" y="11.4895" width="65.574" height="78.7762" filterUnits="userSpaceOnUse" color-interpolation-filters="sRGB">
<feFlood flood-opacity="0" result="BackgroundImageFix"/>
<feColorMatrix in="SourceAlpha" type="matrix" values="0 0 0 0 0 0 0 0 0 0 0 0 0 0 0 0 0 0 127 0" result="hardAlpha"/>
<feOffset dy="1.20576"/>
<feGaussianBlur stdDeviation="1.20576"/>
<feComposite in2="hardAlpha" operator="out"/>
<feColorMatrix type="matrix" values="0 0 0 0 0.157663 0 0 0 0 0.201717 0 0 0 0 0.357907 0 0 0 0.2 0"/>
<feBlend mode="normal" in2="BackgroundImageFix" result="effect1_dropShadow_2853_8734"/>
<feBlend mode="normal" in="SourceGraphic" in2="effect1_dropShadow_2853_8734" result="shape"/>
</filter>
<linearGradient id="paint0_linear_2853_8734" x1="52.8052" y1="12.6953" x2="52.8052" y2="86.6484" gradientUnits="userSpaceOnUse">
<stop stop-color="#F4F7FA"/>
<stop offset="1" stop-color="#E2E9F2"/>
</linearGradient>
</defs>
</svg>
