<svg width="146" height="168" viewBox="0 0 146 168" fill="none" xmlns="http://www.w3.org/2000/svg">
<path d="M0 20C0 8.95431 8.95431 0 20 0H126C137.046 0 146 8.95431 146 20V148C146 159.046 137.046 168 126 168H20C8.95431 168 0 159.046 0 148V20Z" fill="#FFE684"/>
<path d="M44.5215 37.0723C44.5215 34.8631 46.3123 33.0723 48.5215 33.0723L84.5191 33.0723C85.2155 33.0723 85.8859 33.3365 86.3951 33.8115L99.5526 46.0871C100.11 46.6072 100.427 47.3354 100.427 48.0979L100.427 93.3628C100.427 95.5719 98.6358 97.3628 96.4267 97.3628L48.5215 97.3628C46.3123 97.3628 44.5215 95.5719 44.5215 93.3628L44.5215 37.0723Z" fill="white"/>
<path d="M86.6025 34L99.4999 46L99.4148 45.9282C98.9513 45.5153 98.3257 45.2758 97.6334 45.2758L87.8728 45.2758C87.525 45.2758 87.2441 44.9918 87.2479 44.644L87.3437 35.8049C87.3437 35.1371 87.0867 34.5305 86.6568 34.0514L86.6025 34Z" fill="#9A9375"/>
<path fill-rule="evenodd" clip-rule="evenodd" d="M52 51.5C52 50.3954 52.8954 49.5 54 49.5L90.5 49.5C91.6046 49.5 92.5 50.3954 92.5 51.5L92.5 53.5C92.5 54.6046 91.6046 55.5 90.5 55.5L54 55.5C52.8954 55.5 52 54.6046 52 53.5L52 51.5Z" fill="#DDDFE1"/>
<path fill-rule="evenodd" clip-rule="evenodd" d="M52 65C52 63.8954 52.8954 63 54 63L73 63C74.1046 63 75 63.8954 75 65L75 67C75 68.1046 74.1046 69 73 69L54 69C52.8954 69 52 68.1046 52 67L52 65Z" fill="#DDDFE1"/>
<path fill-rule="evenodd" clip-rule="evenodd" d="M52 79C52 77.8954 52.8954 77 54 77L65 77C66.1046 77 67 77.8954 67 79L67 81C67 82.1046 66.1046 83 65 83L54 83C52.8954 83 52 82.1046 52 81L52 79Z" fill="#DDDFE1"/>
<ellipse cx="91.9274" cy="83.6267" rx="19.5668" ry="19.5667" transform="rotate(0.354151 91.9274 83.6267)" fill="#FD6A6A"/>
<path d="M91.2537 93.012C88.4335 92.0091 82.1181 87.8235 82.1616 80.795C82.1808 77.6898 84.624 75.1947 87.6314 75.2133C89.4069 75.2243 90.9777 76.1079 91.9656 77.49C92.9523 76.1387 94.5521 75.2561 96.3276 75.267C99.335 75.2856 101.747 77.8108 101.728 80.9159C101.685 87.9444 95.318 92.0516 92.4675 93.0195C92.1407 93.1291 91.5791 93.1256 91.2537 93.012Z" fill="url(#paint0_linear_2691_46014)"/>
<path d="M55.9156 129.273H54.4391V121.336H55.9156V129.273ZM55.9156 135.148H46.7203V130.023H55.9156V135.148ZM48.1812 133.945H54.4625V131.211H48.1812V133.945ZM49.1187 123.242C49.1187 124.102 48.9573 124.914 48.6344 125.68C48.3115 126.44 47.8453 127.104 47.2359 127.672C46.6318 128.234 45.9208 128.659 45.1031 128.945L44.3609 127.781C45.0797 127.531 45.7047 127.177 46.2359 126.719C46.7724 126.26 47.1812 125.729 47.4625 125.125C47.7437 124.516 47.8844 123.888 47.8844 123.242V121.875H49.1187V123.242ZM49.4078 123.242C49.4078 123.862 49.5484 124.458 49.8297 125.031C50.1109 125.599 50.512 126.102 51.0328 126.539C51.5589 126.977 52.1708 127.312 52.8687 127.547L52.1266 128.688C51.3297 128.417 50.6292 128.016 50.025 127.484C49.426 126.948 48.9651 126.318 48.6422 125.594C48.3193 124.87 48.1578 124.086 48.1578 123.242V121.875H49.4078V123.242ZM69.5516 135.359H68.075V121.32H69.5516V135.359ZM59.9266 130.758C61.2234 130.763 62.4109 130.729 63.4891 130.656C64.5724 130.583 65.6896 130.456 66.8406 130.273L66.9891 131.492C65.8224 131.685 64.6922 131.818 63.5984 131.891C62.5047 131.958 61.2807 131.992 59.9266 131.992H58.7313V130.758H59.9266ZM65.2703 127.703H60.2469V131.227H58.7313V126.516H63.7703V123.797H58.7078V122.586H65.2703V127.703ZM82.5109 122.203C82.5109 123.375 82.2505 124.438 81.7297 125.391C81.2089 126.339 80.4641 127.154 79.4953 127.836C78.5266 128.518 77.3625 129.052 76.0031 129.438L75.4016 128.273C76.5682 127.951 77.5656 127.523 78.3937 126.992C79.2219 126.456 79.8573 125.839 80.3 125.141C80.7427 124.443 80.9641 123.688 80.9641 122.875V122.203H82.5109ZM81.9562 123.406H76.1359V122.203H81.9562V123.406ZM86.9406 129.266H85.4562V121.336H86.9406V129.266ZM85.6984 126.078H82.5578V124.852H85.6984V126.078ZM86.9406 135.141H77.7922V129.859H86.9406V135.141ZM79.2297 133.953H85.4719V131.031H79.2297V133.953ZM93.4828 124.883C93.4828 125.951 93.3214 126.982 92.9984 127.977C92.6755 128.966 92.2198 129.844 91.6312 130.609C91.0427 131.375 90.3604 131.961 89.5844 132.367L88.6547 131.172C89.3682 130.833 89.9958 130.333 90.5375 129.672C91.0844 129.005 91.5115 128.255 91.8187 127.422C92.126 126.583 92.2797 125.737 92.2797 124.883V122.484H93.4828V124.883ZM93.7406 124.883C93.7406 125.706 93.8891 126.518 94.1859 127.32C94.488 128.117 94.9073 128.833 95.4437 129.469C95.9802 130.099 96.587 130.581 97.2641 130.914L96.3578 132.102C95.6026 131.706 94.9359 131.138 94.3578 130.398C93.7849 129.659 93.3422 128.812 93.0297 127.859C92.7172 126.906 92.5609 125.914 92.5609 124.883V122.484H93.7406V124.883ZM99.8031 135.32H98.3266V121.32H99.8031V135.32ZM102.061 128.18H99.4672V126.906H102.061V128.18Z" fill="#867445"/>
<defs>
<linearGradient id="paint0_linear_2691_46014" x1="84.9915" y1="75.197" x2="96.7673" y2="92.0416" gradientUnits="userSpaceOnUse">
<stop stop-color="white"/>
<stop offset="1" stop-color="white" stop-opacity="0.9"/>
</linearGradient>
</defs>
</svg>
