<svg width="136" height="168" viewBox="0 0 136 168" fill="none" xmlns="http://www.w3.org/2000/svg">
<rect width="136" height="168" rx="20" fill="#F2F8FF"/>
<path d="M55.7364 135.359H54.2442V121.32H55.7364V135.359ZM46.3927 126.094H50.1739V122.492H51.6271V132.008H44.9161V122.492H46.3927V126.094ZM50.1739 130.781V127.266H46.3927V130.781H50.1739ZM65.1536 127.852H58.4974V122.078H65.1536V127.852ZM59.9505 126.688H63.6927V123.273H59.9505V126.688ZM69.3567 128.5H67.8958V121.32H69.3567V128.5ZM69.3567 132.648H61.6614V134.477H60.1927V131.57H67.9036V130.328H60.1771V129.164H69.3567V132.648ZM69.8255 135.188H60.1927V134H69.8255V135.188ZM87.9099 133.586H75.0974V132.367H87.9099V133.586ZM82.1989 132.711H80.7458V129.102H82.1989V132.711ZM78.0505 124.695H84.9255V122.281H86.3864V129.492H76.5583V122.281H78.0505V124.695ZM84.9255 128.289V125.891H78.0505V128.289H84.9255ZM93.3349 123.922C93.3349 124.781 93.176 125.589 92.8583 126.344C92.5458 127.094 92.0927 127.75 91.4989 128.312C90.9052 128.87 90.1968 129.292 89.3739 129.578L88.6239 128.398C89.3375 128.154 89.9573 127.805 90.4833 127.352C91.0145 126.893 91.4234 126.37 91.7099 125.781C91.9963 125.188 92.1395 124.568 92.1395 123.922V122.852H93.3349V123.922ZM93.6083 123.914C93.6083 124.503 93.7437 125.068 94.0145 125.609C94.2854 126.146 94.6708 126.62 95.1708 127.031C95.676 127.438 96.2776 127.755 96.9755 127.984L96.2724 129.148C95.4703 128.883 94.7802 128.492 94.202 127.977C93.6239 127.461 93.1786 126.854 92.8661 126.156C92.5588 125.458 92.4052 124.711 92.4052 123.914V122.852H93.6083V123.914ZM96.6395 123.531H89.0536V122.328H96.6395V123.531ZM99.7255 129.727H98.2489V121.32H99.7255V129.727ZM101.765 126.016H99.3114V124.789H101.765V126.016ZM95.202 130.07C96.1604 130.07 96.9885 130.172 97.6864 130.375C98.3895 130.578 98.926 130.875 99.2958 131.266C99.6656 131.656 99.8505 132.125 99.8505 132.672C99.8505 133.219 99.6656 133.688 99.2958 134.078C98.926 134.474 98.3895 134.776 97.6864 134.984C96.9885 135.198 96.1604 135.305 95.202 135.305C94.2385 135.305 93.4026 135.198 92.6942 134.984C91.9911 134.776 91.4494 134.474 91.0692 134.078C90.6942 133.688 90.5067 133.219 90.5067 132.672C90.5067 132.125 90.6942 131.656 91.0692 131.266C91.4494 130.875 91.9911 130.578 92.6942 130.375C93.4026 130.172 94.2385 130.07 95.202 130.07ZM95.202 131.242C94.5406 131.242 93.9677 131.297 93.4833 131.406C92.9989 131.516 92.6291 131.677 92.3739 131.891C92.1239 132.104 91.9989 132.365 91.9989 132.672C91.9989 132.974 92.1239 133.237 92.3739 133.461C92.6291 133.68 92.9963 133.846 93.4755 133.961C93.9547 134.076 94.5302 134.133 95.202 134.133C95.8843 134.133 96.4625 134.076 96.9364 133.961C97.4156 133.846 97.7802 133.68 98.0302 133.461C98.2802 133.237 98.4052 132.974 98.4052 132.672C98.4052 132.365 98.2802 132.104 98.0302 131.891C97.7802 131.677 97.413 131.516 96.9286 131.406C96.4494 131.297 95.8739 131.242 95.202 131.242Z" fill="#4D586B"/>
<path d="M33.7813 96.4518L39.8124 102.235C40.6593 103.047 42.0043 103.019 42.8164 102.172L44.2375 100.69C44.6435 100.266 44.6294 99.5939 44.206 99.1879L43.8483 98.8449C43.4248 98.4388 43.4107 97.7664 43.8167 97.3429L44.1597 96.9853C44.5657 96.5618 45.2382 96.5477 45.6616 96.9537L46.0194 97.2968C46.4429 97.7028 47.1153 97.6887 47.5214 97.2652L54.3827 90.1097C55.1948 89.2628 55.1666 87.9178 54.3196 87.1057L48.2885 81.3226L33.7813 96.4518Z" fill="url(#paint0_linear_2691_45227)"/>
<g filter="url(#filter0_d_2691_45227)">
<rect x="24.7778" y="93.4434" width="65.0304" height="9.43989" transform="rotate(-46.685 24.7778 93.4434)" fill="url(#paint1_linear_2691_45227)"/>
</g>
<g filter="url(#filter1_d_2691_45227)">
<path fill-rule="evenodd" clip-rule="evenodd" d="M85.6715 57.3173C93.4474 52.8279 96.1116 42.8848 91.6222 35.109C87.1329 27.3332 77.1898 24.6689 69.414 29.1583C61.6381 33.6477 58.9739 43.5908 63.4633 51.3666C67.9526 59.1424 77.8957 61.8067 85.6715 57.3173ZM80.9516 49.1421C84.2125 47.2594 85.3297 43.0898 83.4471 39.8289C81.5644 36.5681 77.3948 35.4508 74.1339 37.3335C70.873 39.2162 69.7558 43.3858 71.6385 46.6466C73.5211 49.9075 77.6907 51.0248 80.9516 49.1421Z" fill="url(#paint2_linear_2691_45227)"/>
</g>
<path fill-rule="evenodd" clip-rule="evenodd" d="M73.1734 71.1758C72.3379 71.7584 71.836 72.7094 71.8266 73.728L71.5125 97.7955C71.4966 99.526 72.881 100.945 74.6114 100.971L89.8809 100.915C91.6259 100.941 93.059 99.5428 93.0751 97.7977L93.3891 73.7439C93.3983 72.7386 92.9266 71.7893 92.1196 71.1895L84.2737 66.1741C83.1876 65.3668 81.707 65.3444 80.5969 66.1184L73.1734 71.1758ZM83.0554 74.5713C84.0587 73.992 84.4025 72.709 83.8232 71.7057C83.2439 70.7024 81.9609 70.3586 80.9576 70.9379C79.9543 71.5171 79.6105 72.8001 80.1898 73.8035C80.769 74.8068 82.052 75.1506 83.0554 74.5713Z" fill="url(#paint3_linear_2691_45227)"/>
<mask id="mask0_2691_45227" style="mask-type:alpha" maskUnits="userSpaceOnUse" x="44" y="10" width="79" height="60">
<path fill-rule="evenodd" clip-rule="evenodd" d="M94.2051 9.99964L44.2456 38.8438L76.695 68.7697L79.0755 67.1802L81.5735 65.738L85.5582 69.4931L122.525 59.0507L94.2051 9.99964ZM85.764 57.263C87.885 56.0384 79.4027 49.9679 78.8547 49.9385C78.5822 49.9939 78.2322 50.0618 77.7967 50.067C77.1529 50.0746 76.4671 49.958 76.4446 49.9626C76.1478 49.3927 76.0777 48.7969 76.3217 48.1447C78.0771 43.4514 94.2161 39.3873 91.7147 35.0547C87.2253 27.2788 77.2823 24.6146 69.5064 29.104C61.7305 33.5934 59.0663 43.5364 63.5557 51.3123C68.0451 59.0882 77.9881 61.7524 85.764 57.263Z" fill="#B63535"/>
</mask>
<g mask="url(#mask0_2691_45227)">
<path fill-rule="evenodd" clip-rule="evenodd" d="M83.6731 68.6826C84.3447 66.4509 84.6456 63.2798 84.3247 59.7287C84.0037 56.1777 83.1391 53.112 82.0783 51.0368C81.5451 49.9938 81.0126 49.2998 80.563 48.9052C80.3446 48.7135 80.1775 48.6203 80.0709 48.5777C79.9731 48.5386 79.9273 48.5415 79.913 48.5428C79.8986 48.5441 79.8531 48.5494 79.7638 48.6055C79.6666 48.6665 79.5189 48.7881 79.3384 49.0158C78.9669 49.4847 78.5674 50.263 78.2299 51.3846C77.5583 53.6163 77.2574 56.7874 77.5783 60.3385C77.8993 63.8895 78.7639 66.9553 79.8247 69.0304C80.3579 70.0734 80.8904 70.7674 81.34 71.1621C81.5584 71.3537 81.7255 71.4469 81.8321 71.4895C81.9299 71.5286 81.9757 71.5257 81.99 71.5244C82.0044 71.5231 82.0499 71.5178 82.1392 71.4618C82.2364 71.4007 82.3841 71.2791 82.5646 71.0514C82.9361 70.5826 83.3356 69.8043 83.6731 68.6826ZM82.1789 73.6137C85.1957 73.341 87.0918 67.04 86.4139 59.5399C85.736 52.0399 82.7409 46.1809 79.7241 46.4536C76.7073 46.7262 74.8112 53.0273 75.4891 60.5273C76.167 68.0274 79.1621 73.8863 82.1789 73.6137Z" fill="white"/>
</g>
<path fill-rule="evenodd" clip-rule="evenodd" d="M81.0565 70.8847C81.154 70.99 81.2488 71.0826 81.3402 71.1628C81.5586 71.3545 81.7257 71.4476 81.8323 71.4903C81.9301 71.5294 81.9759 71.5265 81.9902 71.5252C82.0045 71.5239 82.0501 71.5186 82.1394 71.4625C82.2366 71.4015 82.3843 71.2798 82.5648 71.0521C82.6263 70.9745 82.6886 70.8884 82.7512 70.7936C83.1877 70.959 83.5719 71.2703 83.8235 71.706C83.9691 71.9582 84.0564 72.2281 84.0895 72.5C83.526 73.1589 82.8831 73.5508 82.1791 73.6144C81.4084 73.6841 80.6391 73.3536 79.9095 72.6977C79.9293 71.9937 80.3032 71.3162 80.9579 70.9382C80.9905 70.9194 81.0233 70.9015 81.0565 70.8847Z" fill="white"/>
<path d="M84.214 66.1452C84.0817 67.0824 83.8983 67.9352 83.6734 68.6826C83.39 69.6244 83.0629 70.3241 82.7454 70.8018C83.1794 70.9678 83.5614 71.2782 83.8118 71.712C83.9585 71.9661 84.046 72.2382 84.0786 72.5122C84.9838 71.4613 85.6849 69.7231 86.1057 67.5506L84.2623 66.1804C84.2463 66.1685 84.2302 66.1568 84.214 66.1452Z" fill="white"/>
<path d="M86.0977 57.0608C85.9575 57.1475 85.8155 57.2323 85.6717 57.3153C85.168 57.6061 84.6552 57.867 84.1353 58.0983C83.7282 55.2418 82.973 52.7868 82.0783 51.0365C81.6572 50.2128 81.2366 49.6068 80.8568 49.194C80.8886 49.1763 80.9202 49.1584 80.9518 49.1401C81.5461 48.797 82.0692 48.3779 82.5159 47.9022C84.0944 49.7052 85.4296 53.0345 86.0977 57.0608Z" fill="white"/>
<defs>
<filter id="filter0_d_2691_45227" x="22.6532" y="45.0647" width="55.7292" height="58.0422" filterUnits="userSpaceOnUse" color-interpolation-filters="sRGB">
<feFlood flood-opacity="0" result="BackgroundImageFix"/>
<feColorMatrix in="SourceAlpha" type="matrix" values="0 0 0 0 0 0 0 0 0 0 0 0 0 0 0 0 0 0 127 0" result="hardAlpha"/>
<feOffset dy="1.0623"/>
<feGaussianBlur stdDeviation="1.0623"/>
<feComposite in2="hardAlpha" operator="out"/>
<feColorMatrix type="matrix" values="0 0 0 0 0 0 0 0 0 0 0 0 0 0 0 0 0 0 0.04 0"/>
<feBlend mode="multiply" in2="BackgroundImageFix" result="effect1_dropShadow_2691_45227"/>
<feBlend mode="normal" in="SourceGraphic" in2="effect1_dropShadow_2691_45227" result="shape"/>
</filter>
<filter id="filter1_d_2691_45227" x="59.1581" y="25.9143" width="36.7697" height="36.7707" filterUnits="userSpaceOnUse" color-interpolation-filters="sRGB">
<feFlood flood-opacity="0" result="BackgroundImageFix"/>
<feColorMatrix in="SourceAlpha" type="matrix" values="0 0 0 0 0 0 0 0 0 0 0 0 0 0 0 0 0 0 127 0" result="hardAlpha"/>
<feOffset dy="1.0623"/>
<feGaussianBlur stdDeviation="1.0623"/>
<feComposite in2="hardAlpha" operator="out"/>
<feColorMatrix type="matrix" values="0 0 0 0 0 0 0 0 0 0 0 0 0 0 0 0 0 0 0.04 0"/>
<feBlend mode="multiply" in2="BackgroundImageFix" result="effect1_dropShadow_2691_45227"/>
<feBlend mode="normal" in="SourceGraphic" in2="effect1_dropShadow_2691_45227" result="shape"/>
</filter>
<linearGradient id="paint0_linear_2691_45227" x1="40.839" y1="85.6236" x2="48.7954" y2="99.4045" gradientUnits="userSpaceOnUse">
<stop stop-color="#FFE16B"/>
<stop offset="1" stop-color="#FFD633"/>
</linearGradient>
<linearGradient id="paint1_linear_2691_45227" x1="57.293" y1="93.4434" x2="57.293" y2="102.883" gradientUnits="userSpaceOnUse">
<stop stop-color="#FFE16B"/>
<stop offset="1" stop-color="#FFD633"/>
</linearGradient>
<linearGradient id="paint2_linear_2691_45227" x1="69.414" y1="29.1583" x2="85.6715" y2="57.3173" gradientUnits="userSpaceOnUse">
<stop stop-color="#FFE16B"/>
<stop offset="1" stop-color="#FFD633"/>
</linearGradient>
<linearGradient id="paint3_linear_2691_45227" x1="67.0412" y1="75.0021" x2="101.667" y2="88.6179" gradientUnits="userSpaceOnUse">
<stop stop-color="#A2C1FF"/>
<stop offset="1" stop-color="#4D76DD"/>
</linearGradient>
</defs>
</svg>
