<svg width="81" height="80" viewBox="0 0 81 80" fill="none" xmlns="http://www.w3.org/2000/svg">
<circle cx="40.5" cy="40" r="40" fill="#FFF9EA"/>
<rect x="20.4995" y="21.3281" width="34.9091" height="40.85" rx="4.36364" fill="url(#paint0_linear_2314_97297)"/>
<path fill-rule="evenodd" clip-rule="evenodd" d="M37.954 40.6781C35.544 40.6781 33.5903 38.7529 33.5903 36.3781C33.5903 34.0033 35.544 32.0781 37.954 32.0781C40.3639 32.0781 42.3176 34.0033 42.3176 36.3781C42.3176 38.7529 40.3639 40.6781 37.954 40.6781Z" fill="white"/>
<path d="M29.2266 50.8906C29.2266 51.1916 29.4378 51.4281 29.7066 51.4281H46.2011C46.4699 51.4281 46.6811 51.1916 46.6811 50.8906C46.6811 46.4401 42.7639 42.8281 37.9538 42.8281C33.1438 42.8281 29.2266 46.4401 29.2266 50.8906Z" fill="white"/>
<rect x="46.6816" y="25.6289" width="21.8182" height="4.3" rx="2.15" fill="#EAEAEA"/>
<rect x="46.6816" y="32.082" width="21.8182" height="4.3" rx="2.15" fill="#EAEAEA"/>
<rect x="46.6816" y="19.1797" width="21.8182" height="4.3" rx="2.15" fill="#EAEAEA"/>
<rect x="46.6816" y="25.6289" width="15.2727" height="4.3" rx="2.15" fill="#FFE454"/>
<rect x="46.6816" y="32.082" width="17.4545" height="4.3" rx="2.15" fill="#3EDE3A"/>
<rect x="46.6816" y="19.1797" width="10.9091" height="4.3" rx="2.15" fill="#FF7B5E"/>
<path fill-rule="evenodd" clip-rule="evenodd" d="M64.5 28C71.4036 28 77 22.4036 77 15.5C77 8.59644 71.4036 3 64.5 3C57.5964 3 52 8.59644 52 15.5C52 18.334 52.9431 20.9477 54.5326 23.0444C54.515 23.099 54.5017 23.1562 54.4931 23.216L54.015 26.5693C53.9064 27.3314 54.6635 27.9254 55.3778 27.6384L58.4117 26.4197C60.2133 27.4263 62.2896 28 64.5 28Z" fill="#3B4A65"/>
<path d="M63.7712 9.9645C63.8496 9.23556 64.5285 8.72519 65.2505 8.85251L66.3235 9.04172C67.0455 9.16903 67.509 9.88085 67.3333 10.5926L65.6905 17.2484C65.5308 17.8954 64.8971 18.308 64.2409 18.1922L64.0781 18.1635C63.4218 18.0478 62.9674 17.4434 63.0387 16.7808L63.7712 9.9645Z" fill="white"/>
<rect width="2.53314" height="2.53328" rx="1.26657" transform="matrix(0.984806 0.173658 -0.173638 0.98481 62.7217 19.0391)" fill="white"/>
<defs>
<linearGradient id="paint0_linear_2314_97297" x1="20.4995" y1="21.3281" x2="55.8978" y2="62.693" gradientUnits="userSpaceOnUse">
<stop stop-color="#A1DAFC"/>
<stop offset="0.890625" stop-color="#5EB6E8"/>
</linearGradient>
</defs>
</svg>
