<svg width="81" height="80" viewBox="0 0 81 80" fill="none" xmlns="http://www.w3.org/2000/svg">
<circle cx="40.5" cy="40" r="40" fill="#FFF9EA"/>
<path fill-rule="evenodd" clip-rule="evenodd" d="M60.0737 44.1263C57.589 46.3159 54.3639 47.638 50.8394 47.638C42.9847 47.638 36.6172 41.0715 36.6172 32.9714C36.6172 27.5383 39.4818 22.7953 43.7383 20.2608C42.6842 20.0892 41.6025 20 40.4999 20C29.4543 20 20.5 28.9543 20.5 40C20.5 51.0457 29.4543 60 40.4999 60C50.1311 60 58.1722 53.1922 60.0737 44.1263Z" fill="#FFD351"/>
<path d="M46.6797 31.5742H50.6876L46.8837 36.0187C46.8837 36.0187 49.6386 36.0187 51.1241 36.0187" stroke="#C5D1FE" stroke-width="2.32715" stroke-linecap="round" stroke-linejoin="round"/>
<path fill-rule="evenodd" clip-rule="evenodd" d="M64.5 28C71.4036 28 77 22.4036 77 15.5C77 8.59644 71.4036 3 64.5 3C57.5964 3 52 8.59644 52 15.5C52 18.334 52.9431 20.9477 54.5326 23.0444C54.515 23.099 54.5017 23.1562 54.4931 23.216L54.015 26.5693C53.9064 27.3314 54.6635 27.9254 55.3778 27.6384L58.4117 26.4197C60.2133 27.4263 62.2896 28 64.5 28Z" fill="#3B4A65"/>
<path d="M63.7693 9.9645C63.8476 9.23556 64.5265 8.72519 65.2485 8.85251L66.3216 9.04172C67.0436 9.16903 67.507 9.88085 67.3313 10.5926L65.6885 17.2484C65.5289 17.8954 64.8952 18.308 64.2389 18.1922L64.0761 18.1635C63.4199 18.0478 62.9655 17.4434 63.0367 16.7808L63.7693 9.9645Z" fill="white"/>
<rect width="2.53314" height="2.53328" rx="1.26657" transform="matrix(0.984806 0.173658 -0.173638 0.98481 62.7188 19.0391)" fill="white"/>
</svg>
