<svg width="328" height="201" viewBox="0 0 328 201" fill="none" xmlns="http://www.w3.org/2000/svg">
<mask id="mask0_5195_158568" style="mask-type:alpha" maskUnits="userSpaceOnUse" x="0" y="0" width="328" height="201">
<rect x="0.804688" y="0.554688" width="327" height="200" rx="8" fill="#D9D9D9"/>
</mask>
<g mask="url(#mask0_5195_158568)">
<rect x="1.59961" y="0.554688" width="327" height="200" rx="8" fill="url(#paint0_linear_5195_158568)"/>
<path d="M92 197.371V190.268C107.757 187.328 141.28 182.626 149.314 187.328C157.348 192.031 155.6 195.983 153.723 197.371H92Z" fill="#505572"/>
<path d="M92 197.371V190.268C107.757 187.328 141.28 182.626 149.314 187.328C157.348 192.031 155.6 195.983 153.723 197.371H92Z" fill="#505572"/>
<path d="M92 197.371V190.268C107.757 187.328 141.28 182.626 149.314 187.328C157.348 192.031 155.6 195.983 153.723 197.371H92Z" fill="#505572"/>
<path d="M100.083 175.327H92L94.4493 166.509V115.624C94.4493 113.967 95.7925 112.624 97.4493 112.624H100.083C102.45 112.216 107.529 113.408 108.9 121.442C110.272 129.476 103.593 160.712 100.083 175.327Z" fill="#505572"/>
<path d="M100.083 175.327H92L94.4493 166.509V115.624C94.4493 113.967 95.7925 112.624 97.4493 112.624H100.083C102.45 112.216 107.529 113.408 108.9 121.442C110.272 129.476 103.593 160.712 100.083 175.327Z" fill="#505572"/>
<path d="M100.083 175.327H92L94.4493 166.509V115.624C94.4493 113.967 95.7925 112.624 97.4493 112.624H100.083C102.45 112.216 107.529 113.408 108.9 121.442C110.272 129.476 103.593 160.712 100.083 175.327Z" fill="#505572"/>
<path d="M92.2441 197.396V190.293C104.246 188.089 92.8542 189.677 99.3471 193.477C104.99 196.78 130.334 195.589 144.414 195.437C150.381 195.373 154.526 196.983 153.967 197.396H92.2441Z" fill="#505572"/>
<path d="M92.2441 197.396V190.293C104.246 188.089 92.8542 189.677 99.3471 193.477C104.99 196.78 130.334 195.589 144.414 195.437C150.381 195.373 154.526 196.983 153.967 197.396H92.2441Z" fill="#505572"/>
<path d="M92.2441 197.396V190.293C104.246 188.089 92.8542 189.677 99.3471 193.477C104.99 196.78 130.334 195.589 144.414 195.437C150.381 195.373 154.526 196.983 153.967 197.396H92.2441Z" fill="#41475F"/>
<mask id="mask1_5195_158568" style="mask-type:alpha" maskUnits="userSpaceOnUse" x="89" y="119" width="64" height="140">
<path d="M89.3047 121.929C89.3047 120.441 90.5109 119.234 91.9989 119.234C93.4869 119.234 94.6932 120.441 94.6932 121.929V202.511H89.3047V121.929Z" fill="#C8C9CD"/>
<path d="M118.696 200.062C118.696 198.438 120.012 197.122 121.636 197.122C123.259 197.122 124.575 198.438 124.575 200.062V240.72H118.696V200.062Z" fill="#C8C9CD"/>
<path d="M149.313 197.122C150.801 197.122 152.007 198.329 152.007 199.817C152.007 201.305 150.801 202.511 149.313 202.511H89.3047V197.122H149.313Z" fill="#C8C9CD"/>
<path d="M121.636 239.251C105.764 238.859 99.1019 251.824 97.8773 258.355H106.695C106.737 253.62 109.589 244.198 121.636 244.394C133.682 244.59 138.085 252.64 138.781 256.641H147.353C145.394 251.007 137.507 239.643 121.636 239.251Z" fill="#C8C9CD"/>
</mask>
<g mask="url(#mask1_5195_158568)">
<path d="M89.3047 121.929C89.3047 120.441 90.5109 119.234 91.9989 119.234C93.4869 119.234 94.6932 120.441 94.6932 121.929V202.511H89.3047V121.929Z" fill="#C8C9CD"/>
<path d="M118.696 200.062C118.696 198.438 120.012 197.122 121.636 197.122C123.259 197.122 124.575 198.438 124.575 200.062V240.72H118.696V200.062Z" fill="#C8C9CD"/>
<path d="M149.313 197.122C150.801 197.122 152.007 198.329 152.007 199.817C152.007 201.305 150.801 202.511 149.313 202.511H89.3047V197.122H149.313Z" fill="#C8C9CD"/>
<path d="M121.636 239.251C105.764 238.859 99.1019 251.824 97.8773 258.355H106.695C106.737 253.62 109.589 244.198 121.636 244.394C133.682 244.59 138.085 252.64 138.781 256.641H147.353C145.394 251.007 137.507 239.643 121.636 239.251Z" fill="#C8C9CD"/>
<rect x="88.8164" y="118.258" width="2.44931" height="84.2562" fill="#AFB3B6"/>
<rect x="89.3047" y="202.508" width="1.95944" height="61.7226" transform="rotate(-90 89.3047 202.508)" fill="#AFB3B6"/>
</g>
<path d="M229.589 107.555H230.189V106.955H229.589V107.555ZM209.126 107.555L208.556 107.743C208.637 107.989 208.867 108.155 209.126 108.155V107.555ZM207.806 103.555L208.375 103.367C208.292 103.115 208.054 102.948 207.79 102.955C207.525 102.962 207.296 103.141 207.227 103.397L207.806 103.555ZM204.806 114.555L204.216 114.664C204.267 114.939 204.501 115.143 204.781 115.154C205.06 115.166 205.311 114.983 205.384 114.713L204.806 114.555ZM202.306 101.055L202.895 100.945C202.845 100.674 202.616 100.472 202.34 100.456C202.064 100.44 201.813 100.614 201.732 100.878L202.306 101.055ZM200.306 107.555V108.155C200.569 108.155 200.802 107.983 200.879 107.731L200.306 107.555ZM196.055 107.555V106.955C195.799 106.955 195.571 107.117 195.488 107.358L196.055 107.555ZM193.805 114.055L193.235 114.244C193.317 114.488 193.544 114.653 193.801 114.655C194.058 114.656 194.288 114.494 194.372 114.251L193.805 114.055ZM190.305 103.555L190.874 103.365C190.797 103.135 190.589 102.973 190.347 102.956C190.105 102.939 189.877 103.069 189.768 103.286L190.305 103.555ZM188.305 107.555V108.155C188.532 108.155 188.74 108.026 188.841 107.823L188.305 107.555ZM220.589 108.155H229.589V106.955H220.589V108.155ZM228.989 107.555V114.6H230.189V107.555H228.989ZM220.589 106.955C220.58 106.955 220.571 106.955 220.562 106.955C220.554 106.955 220.545 106.955 220.536 106.955C220.528 106.955 220.519 106.955 220.51 106.955C220.501 106.955 220.493 106.955 220.484 106.955C220.475 106.955 220.467 106.955 220.458 106.955C220.449 106.955 220.441 106.955 220.432 106.955C220.423 106.955 220.415 106.955 220.406 106.955C220.398 106.955 220.389 106.955 220.38 106.955C220.372 106.955 220.363 106.955 220.354 106.955C220.346 106.955 220.337 106.955 220.329 106.955C220.32 106.955 220.311 106.955 220.303 106.955C220.294 106.955 220.286 106.955 220.277 106.955C220.269 106.955 220.26 106.955 220.251 106.955C220.243 106.955 220.234 106.955 220.226 106.955C220.217 106.955 220.209 106.955 220.2 106.955C220.192 106.955 220.183 106.955 220.175 106.955C220.166 106.955 220.158 106.955 220.149 106.955C220.141 106.955 220.132 106.955 220.124 106.955C220.115 106.955 220.107 106.955 220.098 106.955C220.09 106.955 220.081 106.955 220.073 106.955C220.064 106.955 220.056 106.955 220.048 106.955C220.039 106.955 220.031 106.955 220.022 106.955C220.014 106.955 220.005 106.955 219.997 106.955C219.989 106.955 219.98 106.955 219.972 106.955C219.963 106.955 219.955 106.955 219.947 106.955C219.938 106.955 219.93 106.955 219.921 106.955C219.913 106.955 219.905 106.955 219.896 106.955C219.888 106.955 219.88 106.955 219.871 106.955C219.863 106.955 219.855 106.955 219.846 106.955C219.838 106.955 219.83 106.955 219.821 106.955C219.813 106.955 219.805 106.955 219.796 106.955C219.788 106.955 219.78 106.955 219.771 106.955C219.763 106.955 219.755 106.955 219.747 106.955C219.738 106.955 219.73 106.955 219.722 106.955C219.713 106.955 219.705 106.955 219.697 106.955C219.689 106.955 219.68 106.955 219.672 106.955C219.664 106.955 219.656 106.955 219.648 106.955C219.639 106.955 219.631 106.955 219.623 106.955C219.615 106.955 219.606 106.955 219.598 106.955C219.59 106.955 219.582 106.955 219.574 106.955C219.565 106.955 219.557 106.955 219.549 106.955C219.541 106.955 219.533 106.955 219.525 106.955C219.516 106.955 219.508 106.955 219.5 106.955C219.492 106.955 219.484 106.955 219.476 106.955C219.468 106.955 219.459 106.955 219.451 106.955C219.443 106.955 219.435 106.955 219.427 106.955C219.419 106.955 219.411 106.955 219.403 106.955C219.394 106.955 219.386 106.955 219.378 106.955C219.37 106.955 219.362 106.955 219.354 106.955C219.346 106.955 219.338 106.955 219.33 106.955C219.322 106.955 219.314 106.955 219.306 106.955C219.298 106.955 219.29 106.955 219.281 106.955C219.273 106.955 219.265 106.955 219.257 106.955C219.249 106.955 219.241 106.955 219.233 106.955C219.225 106.955 219.217 106.955 219.209 106.955C219.201 106.955 219.193 106.955 219.185 106.955C219.177 106.955 219.169 106.955 219.161 106.955C219.153 106.955 219.145 106.955 219.137 106.955C219.129 106.955 219.121 106.955 219.113 106.955C219.106 106.955 219.098 106.955 219.09 106.955C219.082 106.955 219.074 106.955 219.066 106.955C219.058 106.955 219.05 106.955 219.042 106.955C219.034 106.955 219.026 106.955 219.018 106.955C219.01 106.955 219.002 106.955 218.994 106.955C218.987 106.955 218.979 106.955 218.971 106.955C218.963 106.955 218.955 106.955 218.947 106.955C218.939 106.955 218.931 106.955 218.924 106.955C218.916 106.955 218.908 106.955 218.9 106.955C218.892 106.955 218.884 106.955 218.876 106.955C218.869 106.955 218.861 106.955 218.853 106.955C218.845 106.955 218.837 106.955 218.829 106.955C218.822 106.955 218.814 106.955 218.806 106.955C218.798 106.955 218.79 106.955 218.782 106.955C218.775 106.955 218.767 106.955 218.759 106.955C218.751 106.955 218.743 106.955 218.736 106.955C218.728 106.955 218.72 106.955 218.712 106.955C218.705 106.955 218.697 106.955 218.689 106.955C218.681 106.955 218.674 106.955 218.666 106.955C218.658 106.955 218.65 106.955 218.643 106.955C218.635 106.955 218.627 106.955 218.619 106.955C218.612 106.955 218.604 106.955 218.596 106.955C218.588 106.955 218.581 106.955 218.573 106.955C218.565 106.955 218.558 106.955 218.55 106.955C218.542 106.955 218.535 106.955 218.527 106.955C218.519 106.955 218.511 106.955 218.504 106.955C218.496 106.955 218.488 106.955 218.481 106.955C218.473 106.955 218.465 106.955 218.458 106.955C218.45 106.955 218.442 106.955 218.435 106.955C218.427 106.955 218.42 106.955 218.412 106.955C218.404 106.955 218.397 106.955 218.389 106.955C218.381 106.955 218.374 106.955 218.366 106.955C218.358 106.955 218.351 106.955 218.343 106.955C218.336 106.955 218.328 106.955 218.32 106.955C218.313 106.955 218.305 106.955 218.298 106.955C218.29 106.955 218.282 106.955 218.275 106.955C218.267 106.955 218.26 106.955 218.252 106.955C218.245 106.955 218.237 106.955 218.229 106.955C218.222 106.955 218.214 106.955 218.207 106.955C218.199 106.955 218.192 106.955 218.184 106.955C218.177 106.955 218.169 106.955 218.161 106.955C218.154 106.955 218.146 106.955 218.139 106.955C218.131 106.955 218.124 106.955 218.116 106.955C218.109 106.955 218.101 106.955 218.094 106.955C218.086 106.955 218.079 106.955 218.071 106.955C218.064 106.955 218.056 106.955 218.049 106.955C218.041 106.955 218.034 106.955 218.026 106.955C218.019 106.955 218.011 106.955 218.004 106.955C217.996 106.955 217.989 106.955 217.981 106.955C217.974 106.955 217.967 106.955 217.959 106.955C217.952 106.955 217.944 106.955 217.937 106.955C217.929 106.955 217.922 106.955 217.914 106.955C217.907 106.955 217.9 106.955 217.892 106.955C217.885 106.955 217.877 106.955 217.87 106.955C217.862 106.955 217.855 106.955 217.848 106.955C217.84 106.955 217.833 106.955 217.825 106.955C217.818 106.955 217.811 106.955 217.803 106.955C217.796 106.955 217.788 106.955 217.781 106.955C217.774 106.955 217.766 106.955 217.759 106.955C217.751 106.955 217.744 106.955 217.737 106.955C217.729 106.955 217.722 106.955 217.715 106.955C217.707 106.955 217.7 106.955 217.693 106.955C217.685 106.955 217.678 106.955 217.67 106.955C217.663 106.955 217.656 106.955 217.648 106.955C217.641 106.955 217.634 106.955 217.626 106.955C217.619 106.955 217.612 106.955 217.604 106.955C217.597 106.955 217.59 106.955 217.582 106.955C217.575 106.955 217.568 106.955 217.561 106.955C217.553 106.955 217.546 106.955 217.539 106.955C217.531 106.955 217.524 106.955 217.517 106.955C217.509 106.955 217.502 106.955 217.495 106.955C217.488 106.955 217.48 106.955 217.473 106.955C217.466 106.955 217.458 106.955 217.451 106.955C217.444 106.955 217.437 106.955 217.429 106.955C217.422 106.955 217.415 106.955 217.408 106.955C217.4 106.955 217.393 106.955 217.386 106.955C217.379 106.955 217.371 106.955 217.364 106.955C217.357 106.955 217.35 106.955 217.342 106.955C217.335 106.955 217.328 106.955 217.321 106.955C217.313 106.955 217.306 106.955 217.299 106.955C217.292 106.955 217.284 106.955 217.277 106.955C217.27 106.955 217.263 106.955 217.256 106.955C217.248 106.955 217.241 106.955 217.234 106.955C217.227 106.955 217.22 106.955 217.212 106.955C217.205 106.955 217.198 106.955 217.191 106.955C217.184 106.955 217.176 106.955 217.169 106.955C217.162 106.955 217.155 106.955 217.148 106.955C217.141 106.955 217.133 106.955 217.126 106.955C217.119 106.955 217.112 106.955 217.105 106.955C217.098 106.955 217.09 106.955 217.083 106.955C217.076 106.955 217.069 106.955 217.062 106.955C217.055 106.955 217.047 106.955 217.04 106.955C217.033 106.955 217.026 106.955 217.019 106.955C217.012 106.955 217.005 106.955 216.997 106.955C216.99 106.955 216.983 106.955 216.976 106.955C216.969 106.955 216.962 106.955 216.955 106.955C216.948 106.955 216.94 106.955 216.933 106.955C216.926 106.955 216.919 106.955 216.912 106.955C216.905 106.955 216.898 106.955 216.891 106.955C216.884 106.955 216.876 106.955 216.869 106.955C216.862 106.955 216.855 106.955 216.848 106.955C216.841 106.955 216.834 106.955 216.827 106.955C216.82 106.955 216.813 106.955 216.806 106.955C216.798 106.955 216.791 106.955 216.784 106.955C216.777 106.955 216.77 106.955 216.763 106.955C216.756 106.955 216.749 106.955 216.742 106.955C216.735 106.955 216.728 106.955 216.721 106.955C216.714 106.955 216.707 106.955 216.7 106.955C216.692 106.955 216.685 106.955 216.678 106.955C216.671 106.955 216.664 106.955 216.657 106.955C216.65 106.955 216.643 106.955 216.636 106.955C216.629 106.955 216.622 106.955 216.615 106.955C216.608 106.955 216.601 106.955 216.594 106.955C216.587 106.955 216.58 106.955 216.573 106.955C216.566 106.955 216.559 106.955 216.552 106.955C216.545 106.955 216.538 106.955 216.531 106.955C216.524 106.955 216.517 106.955 216.51 106.955C216.503 106.955 216.496 106.955 216.489 106.955C216.482 106.955 216.475 106.955 216.468 106.955C216.461 106.955 216.454 106.955 216.447 106.955C216.44 106.955 216.433 106.955 216.426 106.955C216.419 106.955 216.412 106.955 216.405 106.955C216.398 106.955 216.391 106.955 216.384 106.955C216.377 106.955 216.37 106.955 216.363 106.955C216.356 106.955 216.349 106.955 216.342 106.955C216.335 106.955 216.328 106.955 216.321 106.955C216.314 106.955 216.307 106.955 216.3 106.955C216.293 106.955 216.286 106.955 216.279 106.955C216.272 106.955 216.265 106.955 216.258 106.955C216.251 106.955 216.244 106.955 216.237 106.955C216.23 106.955 216.224 106.955 216.217 106.955C216.21 106.955 216.203 106.955 216.196 106.955C216.189 106.955 216.182 106.955 216.175 106.955C216.168 106.955 216.161 106.955 216.154 106.955C216.147 106.955 216.14 106.955 216.133 106.955C216.126 106.955 216.119 106.955 216.112 106.955C216.106 106.955 216.099 106.955 216.092 106.955C216.085 106.955 216.078 106.955 216.071 106.955C216.064 106.955 216.057 106.955 216.05 106.955C216.043 106.955 216.036 106.955 216.029 106.955C216.022 106.955 216.016 106.955 216.009 106.955C216.002 106.955 215.995 106.955 215.988 106.955C215.981 106.955 215.974 106.955 215.967 106.955C215.96 106.955 215.953 106.955 215.946 106.955C215.94 106.955 215.933 106.955 215.926 106.955C215.919 106.955 215.912 106.955 215.905 106.955C215.898 106.955 215.891 106.955 215.884 106.955C215.877 106.955 215.871 106.955 215.864 106.955C215.857 106.955 215.85 106.955 215.843 106.955C215.836 106.955 215.829 106.955 215.822 106.955C215.815 106.955 215.809 106.955 215.802 106.955C215.795 106.955 215.788 106.955 215.781 106.955C215.774 106.955 215.767 106.955 215.76 106.955C215.753 106.955 215.747 106.955 215.74 106.955C215.733 106.955 215.726 106.955 215.719 106.955C215.712 106.955 215.705 106.955 215.698 106.955C215.692 106.955 215.685 106.955 215.678 106.955C215.671 106.955 215.664 106.955 215.657 106.955C215.65 106.955 215.644 106.955 215.637 106.955C215.63 106.955 215.623 106.955 215.616 106.955C215.609 106.955 215.602 106.955 215.595 106.955C215.589 106.955 215.582 106.955 215.575 106.955C215.568 106.955 215.561 106.955 215.554 106.955C215.547 106.955 215.541 106.955 215.534 106.955C215.527 106.955 215.52 106.955 215.513 106.955C215.506 106.955 215.499 106.955 215.493 106.955C215.486 106.955 215.479 106.955 215.472 106.955C215.465 106.955 215.458 106.955 215.452 106.955C215.445 106.955 215.438 106.955 215.431 106.955C215.424 106.955 215.417 106.955 215.41 106.955C215.404 106.955 215.397 106.955 215.39 106.955C215.383 106.955 215.376 106.955 215.369 106.955C215.363 106.955 215.356 106.955 215.349 106.955C215.342 106.955 215.335 106.955 215.328 106.955C215.322 106.955 215.315 106.955 215.308 106.955C215.301 106.955 215.294 106.955 215.287 106.955C215.281 106.955 215.274 106.955 215.267 106.955C215.26 106.955 215.253 106.955 215.246 106.955C215.24 106.955 215.233 106.955 215.226 106.955C215.219 106.955 215.212 106.955 215.205 106.955C215.199 106.955 215.192 106.955 215.185 106.955C215.178 106.955 215.171 106.955 215.164 106.955C215.158 106.955 215.151 106.955 215.144 106.955C215.137 106.955 215.13 106.955 215.123 106.955C215.117 106.955 215.11 106.955 215.103 106.955C215.096 106.955 215.089 106.955 215.082 106.955C215.076 106.955 215.069 106.955 215.062 106.955C215.055 106.955 215.048 106.955 215.041 106.955C215.035 106.955 215.028 106.955 215.021 106.955C215.014 106.955 215.007 106.955 215.001 106.955C214.994 106.955 214.987 106.955 214.98 106.955C214.973 106.955 214.966 106.955 214.96 106.955C214.953 106.955 214.946 106.955 214.939 106.955C214.932 106.955 214.925 106.955 214.919 106.955C214.912 106.955 214.905 106.955 214.898 106.955C214.891 106.955 214.885 106.955 214.878 106.955C214.871 106.955 214.864 106.955 214.857 106.955C214.85 106.955 214.844 106.955 214.837 106.955C214.83 106.955 214.823 106.955 214.816 106.955C214.809 106.955 214.803 106.955 214.796 106.955C214.789 106.955 214.782 106.955 214.775 106.955C214.769 106.955 214.762 106.955 214.755 106.955C214.748 106.955 214.741 106.955 214.734 106.955C214.728 106.955 214.721 106.955 214.714 106.955C214.707 106.955 214.7 106.955 214.693 106.955C214.687 106.955 214.68 106.955 214.673 106.955C214.666 106.955 214.659 106.955 214.653 106.955C214.646 106.955 214.639 106.955 214.632 106.955C214.625 106.955 214.618 106.955 214.612 106.955C214.605 106.955 214.598 106.955 214.591 106.955C214.584 106.955 214.577 106.955 214.571 106.955C214.564 106.955 214.557 106.955 214.55 106.955C214.543 106.955 214.536 106.955 214.53 106.955C214.523 106.955 214.516 106.955 214.509 106.955C214.502 106.955 214.495 106.955 214.489 106.955C214.482 106.955 214.475 106.955 214.468 106.955C214.461 106.955 214.454 106.955 214.448 106.955C214.441 106.955 214.434 106.955 214.427 106.955C214.42 106.955 214.413 106.955 214.407 106.955C214.4 106.955 214.393 106.955 214.386 106.955C214.379 106.955 214.372 106.955 214.366 106.955C214.359 106.955 214.352 106.955 214.345 106.955C214.338 106.955 214.331 106.955 214.325 106.955C214.318 106.955 214.311 106.955 214.304 106.955C214.297 106.955 214.29 106.955 214.284 106.955C214.277 106.955 214.27 106.955 214.263 106.955C214.256 106.955 214.249 106.955 214.242 106.955C214.236 106.955 214.229 106.955 214.222 106.955C214.215 106.955 214.208 106.955 214.201 106.955C214.194 106.955 214.188 106.955 214.181 106.955C214.174 106.955 214.167 106.955 214.16 106.955C214.153 106.955 214.146 106.955 214.14 106.955C214.133 106.955 214.126 106.955 214.119 106.955C214.112 106.955 214.105 106.955 214.098 106.955C214.092 106.955 214.085 106.955 214.078 106.955C214.071 106.955 214.064 106.955 214.057 106.955C214.05 106.955 214.044 106.955 214.037 106.955C214.03 106.955 214.023 106.955 214.016 106.955C214.009 106.955 214.002 106.955 213.995 106.955C213.989 106.955 213.982 106.955 213.975 106.955C213.968 106.955 213.961 106.955 213.954 106.955C213.947 106.955 213.94 106.955 213.934 106.955C213.927 106.955 213.92 106.955 213.913 106.955C213.906 106.955 213.899 106.955 213.892 106.955C213.885 106.955 213.878 106.955 213.872 106.955C213.865 106.955 213.858 106.955 213.851 106.955C213.844 106.955 213.837 106.955 213.83 106.955C213.823 106.955 213.816 106.955 213.81 106.955C213.803 106.955 213.796 106.955 213.789 106.955C213.782 106.955 213.775 106.955 213.768 106.955C213.761 106.955 213.754 106.955 213.747 106.955C213.74 106.955 213.734 106.955 213.727 106.955C213.72 106.955 213.713 106.955 213.706 106.955C213.699 106.955 213.692 106.955 213.685 106.955C213.678 106.955 213.671 106.955 213.664 106.955C213.657 106.955 213.651 106.955 213.644 106.955C213.637 106.955 213.63 106.955 213.623 106.955C213.616 106.955 213.609 106.955 213.602 106.955C213.595 106.955 213.588 106.955 213.581 106.955C213.574 106.955 213.567 106.955 213.56 106.955C213.554 106.955 213.547 106.955 213.54 106.955C213.533 106.955 213.526 106.955 213.519 106.955C213.512 106.955 213.505 106.955 213.498 106.955C213.491 106.955 213.484 106.955 213.477 106.955C213.47 106.955 213.463 106.955 213.456 106.955C213.449 106.955 213.442 106.955 213.435 106.955C213.428 106.955 213.421 106.955 213.414 106.955C213.407 106.955 213.401 106.955 213.394 106.955C213.387 106.955 213.38 106.955 213.373 106.955C213.366 106.955 213.359 106.955 213.352 106.955C213.345 106.955 213.338 106.955 213.331 106.955C213.324 106.955 213.317 106.955 213.31 106.955C213.303 106.955 213.296 106.955 213.289 106.955C213.282 106.955 213.275 106.955 213.268 106.955C213.261 106.955 213.254 106.955 213.247 106.955C213.24 106.955 213.233 106.955 213.226 106.955C213.219 106.955 213.212 106.955 213.205 106.955C213.198 106.955 213.191 106.955 213.184 106.955C213.177 106.955 213.17 106.955 213.163 106.955C213.156 106.955 213.149 106.955 213.142 106.955C213.135 106.955 213.128 106.955 213.121 106.955C213.114 106.955 213.107 106.955 213.099 106.955C213.092 106.955 213.085 106.955 213.078 106.955C213.071 106.955 213.064 106.955 213.057 106.955C213.05 106.955 213.043 106.955 213.036 106.955C213.029 106.955 213.022 106.955 213.015 106.955C213.008 106.955 213.001 106.955 212.994 106.955C212.987 106.955 212.98 106.955 212.973 106.955C212.966 106.955 212.958 106.955 212.951 106.955C212.944 106.955 212.937 106.955 212.93 106.955C212.923 106.955 212.916 106.955 212.909 106.955C212.902 106.955 212.895 106.955 212.888 106.955C212.881 106.955 212.874 106.955 212.866 106.955C212.859 106.955 212.852 106.955 212.845 106.955C212.838 106.955 212.831 106.955 212.824 106.955C212.817 106.955 212.81 106.955 212.803 106.955C212.795 106.955 212.788 106.955 212.781 106.955C212.774 106.955 212.767 106.955 212.76 106.955C212.753 106.955 212.746 106.955 212.738 106.955C212.731 106.955 212.724 106.955 212.717 106.955C212.71 106.955 212.703 106.955 212.696 106.955C212.688 106.955 212.681 106.955 212.674 106.955C212.667 106.955 212.66 106.955 212.653 106.955C212.646 106.955 212.638 106.955 212.631 106.955C212.624 106.955 212.617 106.955 212.61 106.955C212.603 106.955 212.595 106.955 212.588 106.955C212.581 106.955 212.574 106.955 212.567 106.955C212.56 106.955 212.552 106.955 212.545 106.955C212.538 106.955 212.531 106.955 212.524 106.955C212.517 106.955 212.509 106.955 212.502 106.955C212.495 106.955 212.488 106.955 212.481 106.955C212.473 106.955 212.466 106.955 212.459 106.955C212.452 106.955 212.444 106.955 212.437 106.955C212.43 106.955 212.423 106.955 212.416 106.955C212.408 106.955 212.401 106.955 212.394 106.955C212.387 106.955 212.379 106.955 212.372 106.955C212.365 106.955 212.358 106.955 212.35 106.955C212.343 106.955 212.336 106.955 212.329 106.955C212.321 106.955 212.314 106.955 212.307 106.955C212.3 106.955 212.292 106.955 212.285 106.955C212.278 106.955 212.271 106.955 212.263 106.955C212.256 106.955 212.249 106.955 212.242 106.955C212.234 106.955 212.227 106.955 212.22 106.955C212.212 106.955 212.205 106.955 212.198 106.955C212.191 106.955 212.183 106.955 212.176 106.955C212.169 106.955 212.161 106.955 212.154 106.955C212.147 106.955 212.139 106.955 212.132 106.955C212.125 106.955 212.117 106.955 212.11 106.955C212.103 106.955 212.095 106.955 212.088 106.955C212.081 106.955 212.073 106.955 212.066 106.955C212.059 106.955 212.051 106.955 212.044 106.955C212.037 106.955 212.029 106.955 212.022 106.955C212.015 106.955 212.007 106.955 212 106.955C211.993 106.955 211.985 106.955 211.978 106.955C211.97 106.955 211.963 106.955 211.956 106.955C211.948 106.955 211.941 106.955 211.934 106.955C211.926 106.955 211.919 106.955 211.911 106.955C211.904 106.955 211.897 106.955 211.889 106.955C211.882 106.955 211.874 106.955 211.867 106.955C211.86 106.955 211.852 106.955 211.845 106.955C211.837 106.955 211.83 106.955 211.822 106.955C211.815 106.955 211.808 106.955 211.8 106.955C211.793 106.955 211.785 106.955 211.778 106.955C211.77 106.955 211.763 106.955 211.755 106.955C211.748 106.955 211.74 106.955 211.733 106.955C211.726 106.955 211.718 106.955 211.711 106.955C211.703 106.955 211.696 106.955 211.688 106.955C211.681 106.955 211.673 106.955 211.666 106.955C211.658 106.955 211.651 106.955 211.643 106.955C211.636 106.955 211.628 106.955 211.621 106.955C211.613 106.955 211.606 106.955 211.598 106.955C211.591 106.955 211.583 106.955 211.576 106.955C211.568 106.955 211.561 106.955 211.553 106.955C211.545 106.955 211.538 106.955 211.53 106.955C211.523 106.955 211.515 106.955 211.508 106.955C211.5 106.955 211.493 106.955 211.485 106.955C211.478 106.955 211.47 106.955 211.462 106.955C211.455 106.955 211.447 106.955 211.44 106.955C211.432 106.955 211.424 106.955 211.417 106.955C211.409 106.955 211.402 106.955 211.394 106.955C211.386 106.955 211.379 106.955 211.371 106.955C211.364 106.955 211.356 106.955 211.348 106.955C211.341 106.955 211.333 106.955 211.326 106.955C211.318 106.955 211.31 106.955 211.303 106.955C211.295 106.955 211.287 106.955 211.28 106.955C211.272 106.955 211.264 106.955 211.257 106.955C211.249 106.955 211.241 106.955 211.234 106.955C211.226 106.955 211.218 106.955 211.211 106.955C211.203 106.955 211.195 106.955 211.188 106.955C211.18 106.955 211.172 106.955 211.165 106.955C211.157 106.955 211.149 106.955 211.141 106.955C211.134 106.955 211.126 106.955 211.118 106.955C211.111 106.955 211.103 106.955 211.095 106.955C211.087 106.955 211.08 106.955 211.072 106.955C211.064 106.955 211.056 106.955 211.049 106.955C211.041 106.955 211.033 106.955 211.025 106.955C211.018 106.955 211.01 106.955 211.002 106.955C210.994 106.955 210.987 106.955 210.979 106.955C210.971 106.955 210.963 106.955 210.955 106.955C210.948 106.955 210.94 106.955 210.932 106.955C210.924 106.955 210.916 106.955 210.909 106.955C210.901 106.955 210.893 106.955 210.885 106.955C210.877 106.955 210.869 106.955 210.862 106.955C210.854 106.955 210.846 106.955 210.838 106.955C210.83 106.955 210.822 106.955 210.815 106.955C210.807 106.955 210.799 106.955 210.791 106.955C210.783 106.955 210.775 106.955 210.767 106.955C210.759 106.955 210.752 106.955 210.744 106.955C210.736 106.955 210.728 106.955 210.72 106.955C210.712 106.955 210.704 106.955 210.696 106.955C210.688 106.955 210.68 106.955 210.673 106.955C210.665 106.955 210.657 106.955 210.649 106.955C210.641 106.955 210.633 106.955 210.625 106.955C210.617 106.955 210.609 106.955 210.601 106.955C210.593 106.955 210.585 106.955 210.577 106.955C210.569 106.955 210.561 106.955 210.553 106.955C210.545 106.955 210.537 106.955 210.529 106.955C210.521 106.955 210.513 106.955 210.505 106.955C210.497 106.955 210.489 106.955 210.481 106.955C210.473 106.955 210.465 106.955 210.457 106.955C210.449 106.955 210.441 106.955 210.433 106.955C210.425 106.955 210.417 106.955 210.409 106.955C210.401 106.955 210.393 106.955 210.385 106.955C210.377 106.955 210.369 106.955 210.36 106.955C210.352 106.955 210.344 106.955 210.336 106.955C210.328 106.955 210.32 106.955 210.312 106.955C210.304 106.955 210.296 106.955 210.288 106.955C210.28 106.955 210.271 106.955 210.263 106.955C210.255 106.955 210.247 106.955 210.239 106.955C210.231 106.955 210.223 106.955 210.214 106.955C210.206 106.955 210.198 106.955 210.19 106.955C210.182 106.955 210.174 106.955 210.165 106.955C210.157 106.955 210.149 106.955 210.141 106.955C210.133 106.955 210.124 106.955 210.116 106.955C210.108 106.955 210.1 106.955 210.092 106.955C210.083 106.955 210.075 106.955 210.067 106.955C210.059 106.955 210.051 106.955 210.042 106.955C210.034 106.955 210.026 106.955 210.018 106.955C210.009 106.955 210.001 106.955 209.993 106.955C209.984 106.955 209.976 106.955 209.968 106.955C209.96 106.955 209.951 106.955 209.943 106.955C209.935 106.955 209.926 106.955 209.918 106.955C209.91 106.955 209.902 106.955 209.893 106.955C209.885 106.955 209.877 106.955 209.868 106.955C209.86 106.955 209.852 106.955 209.843 106.955C209.835 106.955 209.827 106.955 209.818 106.955C209.81 106.955 209.801 106.955 209.793 106.955C209.785 106.955 209.776 106.955 209.768 106.955C209.76 106.955 209.751 106.955 209.743 106.955C209.734 106.955 209.726 106.955 209.718 106.955C209.709 106.955 209.701 106.955 209.692 106.955C209.684 106.955 209.675 106.955 209.667 106.955C209.659 106.955 209.65 106.955 209.642 106.955C209.633 106.955 209.625 106.955 209.616 106.955C209.608 106.955 209.599 106.955 209.591 106.955C209.582 106.955 209.574 106.955 209.565 106.955C209.557 106.955 209.548 106.955 209.54 106.955C209.531 106.955 209.523 106.955 209.514 106.955C209.506 106.955 209.497 106.955 209.489 106.955C209.48 106.955 209.472 106.955 209.463 106.955C209.455 106.955 209.446 106.955 209.437 106.955C209.429 106.955 209.42 106.955 209.412 106.955C209.403 106.955 209.394 106.955 209.386 106.955C209.377 106.955 209.369 106.955 209.36 106.955C209.351 106.955 209.343 106.955 209.334 106.955C209.326 106.955 209.317 106.955 209.308 106.955C209.3 106.955 209.291 106.955 209.282 106.955C209.274 106.955 209.265 106.955 209.256 106.955C209.248 106.955 209.239 106.955 209.23 106.955C209.222 106.955 209.213 106.955 209.204 106.955C209.196 106.955 209.187 106.955 209.178 106.955C209.169 106.955 209.161 106.955 209.152 106.955C209.143 106.955 209.135 106.955 209.126 106.955V108.155C209.135 108.155 209.143 108.155 209.152 108.155C209.161 108.155 209.169 108.155 209.178 108.155C209.187 108.155 209.196 108.155 209.204 108.155C209.213 108.155 209.222 108.155 209.23 108.155C209.239 108.155 209.248 108.155 209.256 108.155C209.265 108.155 209.274 108.155 209.282 108.155C209.291 108.155 209.3 108.155 209.308 108.155C209.317 108.155 209.326 108.155 209.334 108.155C209.343 108.155 209.351 108.155 209.36 108.155C209.369 108.155 209.377 108.155 209.386 108.155C209.394 108.155 209.403 108.155 209.412 108.155C209.42 108.155 209.429 108.155 209.437 108.155C209.446 108.155 209.455 108.155 209.463 108.155C209.472 108.155 209.48 108.155 209.489 108.155C209.497 108.155 209.506 108.155 209.514 108.155C209.523 108.155 209.531 108.155 209.54 108.155C209.548 108.155 209.557 108.155 209.565 108.155C209.574 108.155 209.582 108.155 209.591 108.155C209.599 108.155 209.608 108.155 209.616 108.155C209.625 108.155 209.633 108.155 209.642 108.155C209.65 108.155 209.659 108.155 209.667 108.155C209.675 108.155 209.684 108.155 209.692 108.155C209.701 108.155 209.709 108.155 209.718 108.155C209.726 108.155 209.734 108.155 209.743 108.155C209.751 108.155 209.76 108.155 209.768 108.155C209.776 108.155 209.785 108.155 209.793 108.155C209.801 108.155 209.81 108.155 209.818 108.155C209.827 108.155 209.835 108.155 209.843 108.155C209.852 108.155 209.86 108.155 209.868 108.155C209.877 108.155 209.885 108.155 209.893 108.155C209.902 108.155 209.91 108.155 209.918 108.155C209.926 108.155 209.935 108.155 209.943 108.155C209.951 108.155 209.96 108.155 209.968 108.155C209.976 108.155 209.984 108.155 209.993 108.155C210.001 108.155 210.009 108.155 210.018 108.155C210.026 108.155 210.034 108.155 210.042 108.155C210.051 108.155 210.059 108.155 210.067 108.155C210.075 108.155 210.083 108.155 210.092 108.155C210.1 108.155 210.108 108.155 210.116 108.155C210.124 108.155 210.133 108.155 210.141 108.155C210.149 108.155 210.157 108.155 210.165 108.155C210.174 108.155 210.182 108.155 210.19 108.155C210.198 108.155 210.206 108.155 210.214 108.155C210.223 108.155 210.231 108.155 210.239 108.155C210.247 108.155 210.255 108.155 210.263 108.155C210.271 108.155 210.28 108.155 210.288 108.155C210.296 108.155 210.304 108.155 210.312 108.155C210.32 108.155 210.328 108.155 210.336 108.155C210.344 108.155 210.352 108.155 210.36 108.155C210.369 108.155 210.377 108.155 210.385 108.155C210.393 108.155 210.401 108.155 210.409 108.155C210.417 108.155 210.425 108.155 210.433 108.155C210.441 108.155 210.449 108.155 210.457 108.155C210.465 108.155 210.473 108.155 210.481 108.155C210.489 108.155 210.497 108.155 210.505 108.155C210.513 108.155 210.521 108.155 210.529 108.155C210.537 108.155 210.545 108.155 210.553 108.155C210.561 108.155 210.569 108.155 210.577 108.155C210.585 108.155 210.593 108.155 210.601 108.155C210.609 108.155 210.617 108.155 210.625 108.155C210.633 108.155 210.641 108.155 210.649 108.155C210.657 108.155 210.665 108.155 210.673 108.155C210.68 108.155 210.688 108.155 210.696 108.155C210.704 108.155 210.712 108.155 210.72 108.155C210.728 108.155 210.736 108.155 210.744 108.155C210.752 108.155 210.759 108.155 210.767 108.155C210.775 108.155 210.783 108.155 210.791 108.155C210.799 108.155 210.807 108.155 210.815 108.155C210.822 108.155 210.83 108.155 210.838 108.155C210.846 108.155 210.854 108.155 210.862 108.155C210.869 108.155 210.877 108.155 210.885 108.155C210.893 108.155 210.901 108.155 210.909 108.155C210.916 108.155 210.924 108.155 210.932 108.155C210.94 108.155 210.948 108.155 210.955 108.155C210.963 108.155 210.971 108.155 210.979 108.155C210.987 108.155 210.994 108.155 211.002 108.155C211.01 108.155 211.018 108.155 211.025 108.155C211.033 108.155 211.041 108.155 211.049 108.155C211.056 108.155 211.064 108.155 211.072 108.155C211.08 108.155 211.087 108.155 211.095 108.155C211.103 108.155 211.111 108.155 211.118 108.155C211.126 108.155 211.134 108.155 211.141 108.155C211.149 108.155 211.157 108.155 211.165 108.155C211.172 108.155 211.18 108.155 211.188 108.155C211.195 108.155 211.203 108.155 211.211 108.155C211.218 108.155 211.226 108.155 211.234 108.155C211.241 108.155 211.249 108.155 211.257 108.155C211.264 108.155 211.272 108.155 211.28 108.155C211.287 108.155 211.295 108.155 211.303 108.155C211.31 108.155 211.318 108.155 211.326 108.155C211.333 108.155 211.341 108.155 211.348 108.155C211.356 108.155 211.364 108.155 211.371 108.155C211.379 108.155 211.386 108.155 211.394 108.155C211.402 108.155 211.409 108.155 211.417 108.155C211.424 108.155 211.432 108.155 211.44 108.155C211.447 108.155 211.455 108.155 211.462 108.155C211.47 108.155 211.478 108.155 211.485 108.155C211.493 108.155 211.5 108.155 211.508 108.155C211.515 108.155 211.523 108.155 211.53 108.155C211.538 108.155 211.545 108.155 211.553 108.155C211.561 108.155 211.568 108.155 211.576 108.155C211.583 108.155 211.591 108.155 211.598 108.155C211.606 108.155 211.613 108.155 211.621 108.155C211.628 108.155 211.636 108.155 211.643 108.155C211.651 108.155 211.658 108.155 211.666 108.155C211.673 108.155 211.681 108.155 211.688 108.155C211.696 108.155 211.703 108.155 211.711 108.155C211.718 108.155 211.726 108.155 211.733 108.155C211.74 108.155 211.748 108.155 211.755 108.155C211.763 108.155 211.77 108.155 211.778 108.155C211.785 108.155 211.793 108.155 211.8 108.155C211.808 108.155 211.815 108.155 211.822 108.155C211.83 108.155 211.837 108.155 211.845 108.155C211.852 108.155 211.86 108.155 211.867 108.155C211.874 108.155 211.882 108.155 211.889 108.155C211.897 108.155 211.904 108.155 211.911 108.155C211.919 108.155 211.926 108.155 211.934 108.155C211.941 108.155 211.948 108.155 211.956 108.155C211.963 108.155 211.97 108.155 211.978 108.155C211.985 108.155 211.993 108.155 212 108.155C212.007 108.155 212.015 108.155 212.022 108.155C212.029 108.155 212.037 108.155 212.044 108.155C212.051 108.155 212.059 108.155 212.066 108.155C212.073 108.155 212.081 108.155 212.088 108.155C212.095 108.155 212.103 108.155 212.11 108.155C212.117 108.155 212.125 108.155 212.132 108.155C212.139 108.155 212.147 108.155 212.154 108.155C212.161 108.155 212.169 108.155 212.176 108.155C212.183 108.155 212.191 108.155 212.198 108.155C212.205 108.155 212.212 108.155 212.22 108.155C212.227 108.155 212.234 108.155 212.242 108.155C212.249 108.155 212.256 108.155 212.263 108.155C212.271 108.155 212.278 108.155 212.285 108.155C212.292 108.155 212.3 108.155 212.307 108.155C212.314 108.155 212.321 108.155 212.329 108.155C212.336 108.155 212.343 108.155 212.35 108.155C212.358 108.155 212.365 108.155 212.372 108.155C212.379 108.155 212.387 108.155 212.394 108.155C212.401 108.155 212.408 108.155 212.416 108.155C212.423 108.155 212.43 108.155 212.437 108.155C212.444 108.155 212.452 108.155 212.459 108.155C212.466 108.155 212.473 108.155 212.481 108.155C212.488 108.155 212.495 108.155 212.502 108.155C212.509 108.155 212.517 108.155 212.524 108.155C212.531 108.155 212.538 108.155 212.545 108.155C212.552 108.155 212.56 108.155 212.567 108.155C212.574 108.155 212.581 108.155 212.588 108.155C212.595 108.155 212.603 108.155 212.61 108.155C212.617 108.155 212.624 108.155 212.631 108.155C212.638 108.155 212.646 108.155 212.653 108.155C212.66 108.155 212.667 108.155 212.674 108.155C212.681 108.155 212.688 108.155 212.696 108.155C212.703 108.155 212.71 108.155 212.717 108.155C212.724 108.155 212.731 108.155 212.738 108.155C212.746 108.155 212.753 108.155 212.76 108.155C212.767 108.155 212.774 108.155 212.781 108.155C212.788 108.155 212.795 108.155 212.803 108.155C212.81 108.155 212.817 108.155 212.824 108.155C212.831 108.155 212.838 108.155 212.845 108.155C212.852 108.155 212.859 108.155 212.866 108.155C212.874 108.155 212.881 108.155 212.888 108.155C212.895 108.155 212.902 108.155 212.909 108.155C212.916 108.155 212.923 108.155 212.93 108.155C212.937 108.155 212.944 108.155 212.951 108.155C212.958 108.155 212.966 108.155 212.973 108.155C212.98 108.155 212.987 108.155 212.994 108.155C213.001 108.155 213.008 108.155 213.015 108.155C213.022 108.155 213.029 108.155 213.036 108.155C213.043 108.155 213.05 108.155 213.057 108.155C213.064 108.155 213.071 108.155 213.078 108.155C213.085 108.155 213.092 108.155 213.099 108.155C213.107 108.155 213.114 108.155 213.121 108.155C213.128 108.155 213.135 108.155 213.142 108.155C213.149 108.155 213.156 108.155 213.163 108.155C213.17 108.155 213.177 108.155 213.184 108.155C213.191 108.155 213.198 108.155 213.205 108.155C213.212 108.155 213.219 108.155 213.226 108.155C213.233 108.155 213.24 108.155 213.247 108.155C213.254 108.155 213.261 108.155 213.268 108.155C213.275 108.155 213.282 108.155 213.289 108.155C213.296 108.155 213.303 108.155 213.31 108.155C213.317 108.155 213.324 108.155 213.331 108.155C213.338 108.155 213.345 108.155 213.352 108.155C213.359 108.155 213.366 108.155 213.373 108.155C213.38 108.155 213.387 108.155 213.394 108.155C213.401 108.155 213.407 108.155 213.414 108.155C213.421 108.155 213.428 108.155 213.435 108.155C213.442 108.155 213.449 108.155 213.456 108.155C213.463 108.155 213.47 108.155 213.477 108.155C213.484 108.155 213.491 108.155 213.498 108.155C213.505 108.155 213.512 108.155 213.519 108.155C213.526 108.155 213.533 108.155 213.54 108.155C213.547 108.155 213.554 108.155 213.56 108.155C213.567 108.155 213.574 108.155 213.581 108.155C213.588 108.155 213.595 108.155 213.602 108.155C213.609 108.155 213.616 108.155 213.623 108.155C213.63 108.155 213.637 108.155 213.644 108.155C213.651 108.155 213.657 108.155 213.664 108.155C213.671 108.155 213.678 108.155 213.685 108.155C213.692 108.155 213.699 108.155 213.706 108.155C213.713 108.155 213.72 108.155 213.727 108.155C213.734 108.155 213.74 108.155 213.747 108.155C213.754 108.155 213.761 108.155 213.768 108.155C213.775 108.155 213.782 108.155 213.789 108.155C213.796 108.155 213.803 108.155 213.81 108.155C213.816 108.155 213.823 108.155 213.83 108.155C213.837 108.155 213.844 108.155 213.851 108.155C213.858 108.155 213.865 108.155 213.872 108.155C213.878 108.155 213.885 108.155 213.892 108.155C213.899 108.155 213.906 108.155 213.913 108.155C213.92 108.155 213.927 108.155 213.934 108.155C213.94 108.155 213.947 108.155 213.954 108.155C213.961 108.155 213.968 108.155 213.975 108.155C213.982 108.155 213.989 108.155 213.995 108.155C214.002 108.155 214.009 108.155 214.016 108.155C214.023 108.155 214.03 108.155 214.037 108.155C214.044 108.155 214.05 108.155 214.057 108.155C214.064 108.155 214.071 108.155 214.078 108.155C214.085 108.155 214.092 108.155 214.098 108.155C214.105 108.155 214.112 108.155 214.119 108.155C214.126 108.155 214.133 108.155 214.14 108.155C214.146 108.155 214.153 108.155 214.16 108.155C214.167 108.155 214.174 108.155 214.181 108.155C214.188 108.155 214.194 108.155 214.201 108.155C214.208 108.155 214.215 108.155 214.222 108.155C214.229 108.155 214.236 108.155 214.242 108.155C214.249 108.155 214.256 108.155 214.263 108.155C214.27 108.155 214.277 108.155 214.284 108.155C214.29 108.155 214.297 108.155 214.304 108.155C214.311 108.155 214.318 108.155 214.325 108.155C214.331 108.155 214.338 108.155 214.345 108.155C214.352 108.155 214.359 108.155 214.366 108.155C214.372 108.155 214.379 108.155 214.386 108.155C214.393 108.155 214.4 108.155 214.407 108.155C214.413 108.155 214.42 108.155 214.427 108.155C214.434 108.155 214.441 108.155 214.448 108.155C214.454 108.155 214.461 108.155 214.468 108.155C214.475 108.155 214.482 108.155 214.489 108.155C214.495 108.155 214.502 108.155 214.509 108.155C214.516 108.155 214.523 108.155 214.53 108.155C214.536 108.155 214.543 108.155 214.55 108.155C214.557 108.155 214.564 108.155 214.571 108.155C214.577 108.155 214.584 108.155 214.591 108.155C214.598 108.155 214.605 108.155 214.612 108.155C214.618 108.155 214.625 108.155 214.632 108.155C214.639 108.155 214.646 108.155 214.653 108.155C214.659 108.155 214.666 108.155 214.673 108.155C214.68 108.155 214.687 108.155 214.693 108.155C214.7 108.155 214.707 108.155 214.714 108.155C214.721 108.155 214.728 108.155 214.734 108.155C214.741 108.155 214.748 108.155 214.755 108.155C214.762 108.155 214.769 108.155 214.775 108.155C214.782 108.155 214.789 108.155 214.796 108.155C214.803 108.155 214.809 108.155 214.816 108.155C214.823 108.155 214.83 108.155 214.837 108.155C214.844 108.155 214.85 108.155 214.857 108.155C214.864 108.155 214.871 108.155 214.878 108.155C214.885 108.155 214.891 108.155 214.898 108.155C214.905 108.155 214.912 108.155 214.919 108.155C214.925 108.155 214.932 108.155 214.939 108.155C214.946 108.155 214.953 108.155 214.96 108.155C214.966 108.155 214.973 108.155 214.98 108.155C214.987 108.155 214.994 108.155 215.001 108.155C215.007 108.155 215.014 108.155 215.021 108.155C215.028 108.155 215.035 108.155 215.041 108.155C215.048 108.155 215.055 108.155 215.062 108.155C215.069 108.155 215.076 108.155 215.082 108.155C215.089 108.155 215.096 108.155 215.103 108.155C215.11 108.155 215.117 108.155 215.123 108.155C215.13 108.155 215.137 108.155 215.144 108.155C215.151 108.155 215.158 108.155 215.164 108.155C215.171 108.155 215.178 108.155 215.185 108.155C215.192 108.155 215.199 108.155 215.205 108.155C215.212 108.155 215.219 108.155 215.226 108.155C215.233 108.155 215.24 108.155 215.246 108.155C215.253 108.155 215.26 108.155 215.267 108.155C215.274 108.155 215.281 108.155 215.287 108.155C215.294 108.155 215.301 108.155 215.308 108.155C215.315 108.155 215.322 108.155 215.328 108.155C215.335 108.155 215.342 108.155 215.349 108.155C215.356 108.155 215.363 108.155 215.369 108.155C215.376 108.155 215.383 108.155 215.39 108.155C215.397 108.155 215.404 108.155 215.41 108.155C215.417 108.155 215.424 108.155 215.431 108.155C215.438 108.155 215.445 108.155 215.452 108.155C215.458 108.155 215.465 108.155 215.472 108.155C215.479 108.155 215.486 108.155 215.493 108.155C215.499 108.155 215.506 108.155 215.513 108.155C215.52 108.155 215.527 108.155 215.534 108.155C215.541 108.155 215.547 108.155 215.554 108.155C215.561 108.155 215.568 108.155 215.575 108.155C215.582 108.155 215.589 108.155 215.595 108.155C215.602 108.155 215.609 108.155 215.616 108.155C215.623 108.155 215.63 108.155 215.637 108.155C215.644 108.155 215.65 108.155 215.657 108.155C215.664 108.155 215.671 108.155 215.678 108.155C215.685 108.155 215.692 108.155 215.698 108.155C215.705 108.155 215.712 108.155 215.719 108.155C215.726 108.155 215.733 108.155 215.74 108.155C215.747 108.155 215.753 108.155 215.76 108.155C215.767 108.155 215.774 108.155 215.781 108.155C215.788 108.155 215.795 108.155 215.802 108.155C215.809 108.155 215.815 108.155 215.822 108.155C215.829 108.155 215.836 108.155 215.843 108.155C215.85 108.155 215.857 108.155 215.864 108.155C215.871 108.155 215.877 108.155 215.884 108.155C215.891 108.155 215.898 108.155 215.905 108.155C215.912 108.155 215.919 108.155 215.926 108.155C215.933 108.155 215.94 108.155 215.946 108.155C215.953 108.155 215.96 108.155 215.967 108.155C215.974 108.155 215.981 108.155 215.988 108.155C215.995 108.155 216.002 108.155 216.009 108.155C216.016 108.155 216.022 108.155 216.029 108.155C216.036 108.155 216.043 108.155 216.05 108.155C216.057 108.155 216.064 108.155 216.071 108.155C216.078 108.155 216.085 108.155 216.092 108.155C216.099 108.155 216.106 108.155 216.112 108.155C216.119 108.155 216.126 108.155 216.133 108.155C216.14 108.155 216.147 108.155 216.154 108.155C216.161 108.155 216.168 108.155 216.175 108.155C216.182 108.155 216.189 108.155 216.196 108.155C216.203 108.155 216.21 108.155 216.217 108.155C216.224 108.155 216.23 108.155 216.237 108.155C216.244 108.155 216.251 108.155 216.258 108.155C216.265 108.155 216.272 108.155 216.279 108.155C216.286 108.155 216.293 108.155 216.3 108.155C216.307 108.155 216.314 108.155 216.321 108.155C216.328 108.155 216.335 108.155 216.342 108.155C216.349 108.155 216.356 108.155 216.363 108.155C216.37 108.155 216.377 108.155 216.384 108.155C216.391 108.155 216.398 108.155 216.405 108.155C216.412 108.155 216.419 108.155 216.426 108.155C216.433 108.155 216.44 108.155 216.447 108.155C216.454 108.155 216.461 108.155 216.468 108.155C216.475 108.155 216.482 108.155 216.489 108.155C216.496 108.155 216.503 108.155 216.51 108.155C216.517 108.155 216.524 108.155 216.531 108.155C216.538 108.155 216.545 108.155 216.552 108.155C216.559 108.155 216.566 108.155 216.573 108.155C216.58 108.155 216.587 108.155 216.594 108.155C216.601 108.155 216.608 108.155 216.615 108.155C216.622 108.155 216.629 108.155 216.636 108.155C216.643 108.155 216.65 108.155 216.657 108.155C216.664 108.155 216.671 108.155 216.678 108.155C216.685 108.155 216.692 108.155 216.7 108.155C216.707 108.155 216.714 108.155 216.721 108.155C216.728 108.155 216.735 108.155 216.742 108.155C216.749 108.155 216.756 108.155 216.763 108.155C216.77 108.155 216.777 108.155 216.784 108.155C216.791 108.155 216.798 108.155 216.806 108.155C216.813 108.155 216.82 108.155 216.827 108.155C216.834 108.155 216.841 108.155 216.848 108.155C216.855 108.155 216.862 108.155 216.869 108.155C216.876 108.155 216.884 108.155 216.891 108.155C216.898 108.155 216.905 108.155 216.912 108.155C216.919 108.155 216.926 108.155 216.933 108.155C216.94 108.155 216.948 108.155 216.955 108.155C216.962 108.155 216.969 108.155 216.976 108.155C216.983 108.155 216.99 108.155 216.997 108.155C217.005 108.155 217.012 108.155 217.019 108.155C217.026 108.155 217.033 108.155 217.04 108.155C217.047 108.155 217.055 108.155 217.062 108.155C217.069 108.155 217.076 108.155 217.083 108.155C217.09 108.155 217.098 108.155 217.105 108.155C217.112 108.155 217.119 108.155 217.126 108.155C217.133 108.155 217.141 108.155 217.148 108.155C217.155 108.155 217.162 108.155 217.169 108.155C217.176 108.155 217.184 108.155 217.191 108.155C217.198 108.155 217.205 108.155 217.212 108.155C217.22 108.155 217.227 108.155 217.234 108.155C217.241 108.155 217.248 108.155 217.256 108.155C217.263 108.155 217.27 108.155 217.277 108.155C217.284 108.155 217.292 108.155 217.299 108.155C217.306 108.155 217.313 108.155 217.321 108.155C217.328 108.155 217.335 108.155 217.342 108.155C217.35 108.155 217.357 108.155 217.364 108.155C217.371 108.155 217.379 108.155 217.386 108.155C217.393 108.155 217.4 108.155 217.408 108.155C217.415 108.155 217.422 108.155 217.429 108.155C217.437 108.155 217.444 108.155 217.451 108.155C217.458 108.155 217.466 108.155 217.473 108.155C217.48 108.155 217.488 108.155 217.495 108.155C217.502 108.155 217.509 108.155 217.517 108.155C217.524 108.155 217.531 108.155 217.539 108.155C217.546 108.155 217.553 108.155 217.561 108.155C217.568 108.155 217.575 108.155 217.582 108.155C217.59 108.155 217.597 108.155 217.604 108.155C217.612 108.155 217.619 108.155 217.626 108.155C217.634 108.155 217.641 108.155 217.648 108.155C217.656 108.155 217.663 108.155 217.67 108.155C217.678 108.155 217.685 108.155 217.693 108.155C217.7 108.155 217.707 108.155 217.715 108.155C217.722 108.155 217.729 108.155 217.737 108.155C217.744 108.155 217.751 108.155 217.759 108.155C217.766 108.155 217.774 108.155 217.781 108.155C217.788 108.155 217.796 108.155 217.803 108.155C217.811 108.155 217.818 108.155 217.825 108.155C217.833 108.155 217.84 108.155 217.848 108.155C217.855 108.155 217.862 108.155 217.87 108.155C217.877 108.155 217.885 108.155 217.892 108.155C217.9 108.155 217.907 108.155 217.914 108.155C217.922 108.155 217.929 108.155 217.937 108.155C217.944 108.155 217.952 108.155 217.959 108.155C217.967 108.155 217.974 108.155 217.981 108.155C217.989 108.155 217.996 108.155 218.004 108.155C218.011 108.155 218.019 108.155 218.026 108.155C218.034 108.155 218.041 108.155 218.049 108.155C218.056 108.155 218.064 108.155 218.071 108.155C218.079 108.155 218.086 108.155 218.094 108.155C218.101 108.155 218.109 108.155 218.116 108.155C218.124 108.155 218.131 108.155 218.139 108.155C218.146 108.155 218.154 108.155 218.161 108.155C218.169 108.155 218.177 108.155 218.184 108.155C218.192 108.155 218.199 108.155 218.207 108.155C218.214 108.155 218.222 108.155 218.229 108.155C218.237 108.155 218.245 108.155 218.252 108.155C218.26 108.155 218.267 108.155 218.275 108.155C218.282 108.155 218.29 108.155 218.298 108.155C218.305 108.155 218.313 108.155 218.32 108.155C218.328 108.155 218.336 108.155 218.343 108.155C218.351 108.155 218.358 108.155 218.366 108.155C218.374 108.155 218.381 108.155 218.389 108.155C218.397 108.155 218.404 108.155 218.412 108.155C218.42 108.155 218.427 108.155 218.435 108.155C218.442 108.155 218.45 108.155 218.458 108.155C218.465 108.155 218.473 108.155 218.481 108.155C218.488 108.155 218.496 108.155 218.504 108.155C218.511 108.155 218.519 108.155 218.527 108.155C218.535 108.155 218.542 108.155 218.55 108.155C218.558 108.155 218.565 108.155 218.573 108.155C218.581 108.155 218.588 108.155 218.596 108.155C218.604 108.155 218.612 108.155 218.619 108.155C218.627 108.155 218.635 108.155 218.643 108.155C218.65 108.155 218.658 108.155 218.666 108.155C218.674 108.155 218.681 108.155 218.689 108.155C218.697 108.155 218.705 108.155 218.712 108.155C218.72 108.155 218.728 108.155 218.736 108.155C218.743 108.155 218.751 108.155 218.759 108.155C218.767 108.155 218.775 108.155 218.782 108.155C218.79 108.155 218.798 108.155 218.806 108.155C218.814 108.155 218.822 108.155 218.829 108.155C218.837 108.155 218.845 108.155 218.853 108.155C218.861 108.155 218.869 108.155 218.876 108.155C218.884 108.155 218.892 108.155 218.9 108.155C218.908 108.155 218.916 108.155 218.924 108.155C218.931 108.155 218.939 108.155 218.947 108.155C218.955 108.155 218.963 108.155 218.971 108.155C218.979 108.155 218.987 108.155 218.994 108.155C219.002 108.155 219.01 108.155 219.018 108.155C219.026 108.155 219.034 108.155 219.042 108.155C219.05 108.155 219.058 108.155 219.066 108.155C219.074 108.155 219.082 108.155 219.09 108.155C219.098 108.155 219.106 108.155 219.113 108.155C219.121 108.155 219.129 108.155 219.137 108.155C219.145 108.155 219.153 108.155 219.161 108.155C219.169 108.155 219.177 108.155 219.185 108.155C219.193 108.155 219.201 108.155 219.209 108.155C219.217 108.155 219.225 108.155 219.233 108.155C219.241 108.155 219.249 108.155 219.257 108.155C219.265 108.155 219.273 108.155 219.281 108.155C219.29 108.155 219.298 108.155 219.306 108.155C219.314 108.155 219.322 108.155 219.33 108.155C219.338 108.155 219.346 108.155 219.354 108.155C219.362 108.155 219.37 108.155 219.378 108.155C219.386 108.155 219.394 108.155 219.403 108.155C219.411 108.155 219.419 108.155 219.427 108.155C219.435 108.155 219.443 108.155 219.451 108.155C219.459 108.155 219.468 108.155 219.476 108.155C219.484 108.155 219.492 108.155 219.5 108.155C219.508 108.155 219.516 108.155 219.525 108.155C219.533 108.155 219.541 108.155 219.549 108.155C219.557 108.155 219.565 108.155 219.574 108.155C219.582 108.155 219.59 108.155 219.598 108.155C219.606 108.155 219.615 108.155 219.623 108.155C219.631 108.155 219.639 108.155 219.648 108.155C219.656 108.155 219.664 108.155 219.672 108.155C219.68 108.155 219.689 108.155 219.697 108.155C219.705 108.155 219.713 108.155 219.722 108.155C219.73 108.155 219.738 108.155 219.747 108.155C219.755 108.155 219.763 108.155 219.771 108.155C219.78 108.155 219.788 108.155 219.796 108.155C219.805 108.155 219.813 108.155 219.821 108.155C219.83 108.155 219.838 108.155 219.846 108.155C219.855 108.155 219.863 108.155 219.871 108.155C219.88 108.155 219.888 108.155 219.896 108.155C219.905 108.155 219.913 108.155 219.921 108.155C219.93 108.155 219.938 108.155 219.947 108.155C219.955 108.155 219.963 108.155 219.972 108.155C219.98 108.155 219.989 108.155 219.997 108.155C220.005 108.155 220.014 108.155 220.022 108.155C220.031 108.155 220.039 108.155 220.048 108.155C220.056 108.155 220.064 108.155 220.073 108.155C220.081 108.155 220.09 108.155 220.098 108.155C220.107 108.155 220.115 108.155 220.124 108.155C220.132 108.155 220.141 108.155 220.149 108.155C220.158 108.155 220.166 108.155 220.175 108.155C220.183 108.155 220.192 108.155 220.2 108.155C220.209 108.155 220.217 108.155 220.226 108.155C220.234 108.155 220.243 108.155 220.251 108.155C220.26 108.155 220.269 108.155 220.277 108.155C220.286 108.155 220.294 108.155 220.303 108.155C220.311 108.155 220.32 108.155 220.329 108.155C220.337 108.155 220.346 108.155 220.354 108.155C220.363 108.155 220.372 108.155 220.38 108.155C220.389 108.155 220.398 108.155 220.406 108.155C220.415 108.155 220.423 108.155 220.432 108.155C220.441 108.155 220.449 108.155 220.458 108.155C220.467 108.155 220.475 108.155 220.484 108.155C220.493 108.155 220.501 108.155 220.51 108.155C220.519 108.155 220.528 108.155 220.536 108.155C220.545 108.155 220.554 108.155 220.562 108.155C220.571 108.155 220.58 108.155 220.589 108.155V106.955ZM209.696 107.367L208.375 103.367L207.236 103.743L208.556 107.743L209.696 107.367ZM207.227 103.397L204.227 114.397L205.384 114.713L208.384 103.713L207.227 103.397ZM205.395 114.445C204.907 111.809 204.526 109.752 204.145 107.695C203.765 105.638 203.384 103.581 202.895 100.945L201.716 101.164C202.204 103.8 202.585 105.857 202.966 107.914C203.346 109.971 203.727 112.028 204.216 114.664L205.395 114.445ZM201.732 100.878L199.732 107.378L200.879 107.731L202.879 101.231L201.732 100.878ZM200.306 106.955H196.055V108.155H200.306V106.955ZM195.488 107.358L193.238 113.858L194.372 114.251L196.622 107.751L195.488 107.358ZM194.374 113.865L190.874 103.365L189.735 103.744L193.235 114.244L194.374 113.865ZM189.768 103.286L187.768 107.286L188.841 107.823L190.841 103.823L189.768 103.286ZM188.305 106.955H141.805V108.155H188.305V106.955Z" fill="white"/>
<path d="M156.055 104.721C156.055 108.197 157.626 110.943 159.503 112.917C161.37 114.88 163.58 116.125 164.991 116.617C165.007 116.623 165.024 116.629 165.041 116.635C165.267 116.714 165.53 116.806 165.807 116.805C166.073 116.803 166.327 116.714 166.536 116.64C166.558 116.633 166.579 116.625 166.6 116.618C168.02 116.126 170.235 114.881 172.104 112.917C173.983 110.943 175.555 108.197 175.555 104.721C175.555 101.473 173.009 98.8047 169.805 98.8047C168.251 98.8047 166.833 99.4471 165.805 100.472C164.77 99.438 163.362 98.8047 161.805 98.8047C158.601 98.8047 156.055 101.473 156.055 104.721Z" fill="#F36229" stroke="white" stroke-width="1.5"/>
<path d="M179.039 224.205C178.482 213.983 178.342 193.771 178.341 184.942C178.097 162.445 196.642 172.158 204.13 183.084L201.923 254.7L192.281 256.559L181.246 254.7C180.742 245.02 179.596 234.428 179.039 224.205Z" fill="#1A315D"/>
<path d="M102.153 166.384L103.178 164.674C106.914 154.445 124.817 155.835 132.12 157.492C135.755 158.161 148.191 160.348 168.858 163.751C194.692 168.005 197.846 170.01 202.018 176.147C205.355 181.057 204.152 190.038 203.133 193.915C203.133 193.915 174.344 191.36 159.808 191.394C145.757 191.427 132.017 193.074 123.956 193.915C123.956 193.915 111.583 194.333 105.541 187.285C100.706 181.647 101.05 169.032 102.153 166.384Z" fill="#1A315D"/>
<path d="M128.108 76.6937L111.436 74.8438C111.436 74.8438 110.678 76.7618 109.596 77.2743C112.086 78.7773 113.548 83.3014 117.719 83.3014C121.889 83.3014 133.186 86.2606 131.199 84.2732C129.211 82.2858 128.108 76.6937 128.108 76.6937Z" fill="#FFD7CF"/>
<mask id="mask2_5195_158568" style="mask-type:alpha" maskUnits="userSpaceOnUse" x="111" y="58" width="18" height="22">
<path d="M127.344 64.0581L112.369 58.3828L112.055 64.0581L111.285 76.7264L121.072 79.3554L128.114 76.7264L127.344 64.0581Z" fill="#FFD7CF"/>
</mask>
<g mask="url(#mask2_5195_158568)">
<path d="M127.344 64.0581L112.369 58.3828L112.055 64.0581L111.285 76.7264L121.072 79.3554L128.114 76.7264L127.344 64.0581Z" fill="#FFD7CF"/>
<path d="M116.519 66.5497C116.519 66.5497 120.411 72.4591 125.098 72.9211C126.353 73.0384 127.581 72.6671 128.62 71.9508C130.138 70.9034 132.637 68.2938 131.929 65.4433C130.779 60.8113 132.403 62.3903 132.403 62.3903C132.403 62.3903 123.899 68.0687 114.678 63.6797L116.519 66.5497Z" fill="#F4A292"/>
</g>
<mask id="mask3_5195_158568" style="mask-type:alpha" maskUnits="userSpaceOnUse" x="104" y="27" width="38" height="42">
<path d="M138.724 43.2399C137.95 39.7205 136.754 37.8842 134.642 34.9649C131.121 30.0992 127.498 27.5393 121.492 27.5469C117.244 27.5522 111.512 29.9335 107.854 37.3543C103.037 47.1237 104.755 54.1868 108.842 58.2147C112.702 62.0194 114.169 64.1278 120.311 66.9431C126.453 69.7583 134.042 69.744 135.537 66.5395C135.729 66.1284 136.552 64.6798 136.791 63.6479C137.426 60.9078 137.118 59.4842 138.724 58.5463L138.747 58.5327C139.925 57.8447 140.901 57.2748 141.072 55.9182C141.287 54.2191 139.503 54.0072 139.06 52.3531C138.669 50.8921 139.011 50.0145 139.06 48.5028C139.14 46.0763 139.245 45.6112 138.724 43.2399Z" fill="#FFD7CF"/>
</mask>
<g mask="url(#mask3_5195_158568)">
<path d="M138.724 43.2399C137.95 39.7205 136.754 37.8842 134.642 34.9649C131.121 30.0992 127.498 27.5393 121.492 27.5469C117.244 27.5522 111.512 29.9335 107.854 37.3543C103.037 47.1237 104.755 54.1868 108.842 58.2147C112.702 62.0194 114.169 64.1278 120.311 66.9431C126.453 69.7583 134.042 69.744 135.537 66.5395C135.729 66.1284 136.552 64.6798 136.791 63.6479C137.426 60.9078 137.118 59.4842 138.724 58.5463L138.747 58.5327C139.925 57.8447 140.901 57.2748 141.072 55.9182C141.287 54.2191 139.503 54.0072 139.06 52.3531C138.669 50.8921 139.011 50.0145 139.06 48.5028C139.14 46.0763 139.245 45.6112 138.724 43.2399Z" fill="#FFD7CF"/>
<path d="M137.401 61.1811C134.628 61.1811 132.77 59.6765 132.741 59.6535C132.552 59.4966 132.55 59.2417 132.734 59.0819C132.918 58.9221 133.22 58.9192 133.411 59.0747C133.56 59.1985 137.132 62.0564 141.74 58.9106C141.945 58.7695 142.246 58.7969 142.413 58.9711C142.578 59.1453 142.547 59.4001 142.342 59.5412C140.534 60.7751 138.846 61.1825 137.404 61.1825L137.401 61.1811Z" fill="#B45C63"/>
<path d="M135.28 47.4021C135.28 48.3138 134.779 49.0542 134.16 49.0542C133.542 49.0542 133.041 48.3138 133.041 47.4021C133.041 46.4904 133.542 45.75 134.16 45.75C134.779 45.75 135.28 46.4904 135.28 47.4021Z" fill="#1A1A1A"/>
<path d="M131.945 42.7578H135.935" stroke="black" stroke-width="1.69511" stroke-linecap="round"/>
</g>
<path d="M99.7852 50.5917C93.8492 31.8932 106.759 20.5547 120.947 20.5547C126.844 20.5547 131.957 26.4547 131.957 26.4547L119.125 34.964L117.022 42.597L118.18 58.3497L113.455 63.3103C113.455 63.3103 103.059 60.9481 99.7852 50.5917Z" fill="#372E2C"/>
<path d="M127.101 30.468C127.101 30.468 115.779 34.1304 118.496 50.2862L116.246 43.0821L119.511 29.594L125.982 27.0781L127.101 30.4646V30.468Z" fill="#372E2C"/>
<path d="M132.335 32.6014C133.526 33.9697 133.277 35.8241 134.474 37.7982C135.415 39.3497 136.474 40.9427 137.801 42.3564C138.307 42.8948 139.183 42.6398 139.431 41.9439C140.006 40.3275 140.553 39.2474 140.603 37.326C140.704 33.3594 140.559 31.1489 138.004 28.1132C135.129 24.6969 131.575 23.2114 127.119 22.916C121.547 22.5466 117.069 26.2948 113.891 28.3497C110.59 30.4838 125.681 30.4805 127.024 30.4761C127.094 30.4758 127.154 30.4676 127.223 30.4538C129.319 30.0358 130.971 31.0342 132.335 32.6014Z" fill="#372E2C"/>
<path d="M128.966 22.8809C130.897 23.607 132.709 26.9618 132.709 26.9618L133.654 28.8498C133.654 28.8498 129.033 23.5078 126.659 22.2145C126.659 22.2145 127.035 22.1548 128.966 22.8809Z" fill="#483A37"/>
<path d="M129.258 27.1712C121.403 24.1925 118.473 32.7291 117.99 37.3698C116.541 39.7441 114.513 44.4927 117.99 44.4927C127.971 45.6259 139.078 30.8945 129.258 27.1712Z" fill="#372E2C"/>
<path d="M118.794 58.7229C115.53 56.5721 111.524 52.7914 112.68 48.5327C113.194 46.639 115.518 45.6638 117.33 46.5481L118.794 58.7229Z" fill="#FFD7CF"/>
<path d="M103.242 169.926C97.3076 164.148 107.028 156.972 112.337 154.054C120.846 148.802 134.225 149.927 139.61 150.115C144.994 150.302 144.413 156.275 143.176 159.776C142.683 161.175 139.217 163.115 133.282 163.465C124.729 163.64 114.009 168.499 109.718 170.906C108.555 171.417 105.162 171.852 103.242 169.926Z" fill="#EFF0F2"/>
<path d="M131.202 84.1065C133.572 84.1065 143.344 105.84 143.344 116.349C143.344 126.858 142.698 123.636 142.797 136.397C142.831 140.779 141.371 148.022 143.483 152.443C143.785 156.543 142.797 160.127 142.797 160.127C142.797 160.127 130.789 162.811 122.98 162.799C119.689 162.794 105.385 164.317 101.827 163.761C102.659 161.844 103.645 152.134 103.6 148.726C103.554 145.318 104.549 143.634 103.892 129.243C103.368 117.789 101.955 106.775 101.987 89.8343C102.671 81.6303 107.86 78.6492 109.452 77.2917C113.958 76.5483 116.47 79.2454 118.747 80.4056C121.369 81.7408 122.212 83.0756 126.158 83.9423C131.395 84.6926 130.834 84.1065 131.202 84.1065Z" fill="#EFF0F2"/>
<path fill-rule="evenodd" clip-rule="evenodd" d="M134.343 146.125L128.943 137.482L124.277 124.094C124.277 124.094 132.272 127.123 142.584 130.142C144.767 130.781 145.91 131.233 146.638 131.52L146.638 131.52C146.816 131.591 146.97 131.652 147.107 131.703L149.074 131.809C149.33 131.767 149.631 131.712 149.996 131.646L149.996 131.646L150.303 131.591C160.166 129.808 183.584 133.025 185.303 133.404C186.803 132.558 187.004 132.48 188.303 132.058C189.94 131.525 194.303 132.058 195.803 132.558C198.803 133.558 201.303 134.058 201.303 134.058C202.69 134.465 203.476 134.902 203.892 135.393C204.563 135.519 205.246 135.643 206.262 135.733C206.803 135.753 207.41 135.737 208.045 135.721C210.275 135.665 212.852 135.6 214.156 137.017C214.93 137.855 214.29 138.8 213.23 139.16C213.104 139.202 212.976 139.25 212.846 139.298C212.367 139.475 211.862 139.661 211.367 139.657C210.733 139.652 210.15 139.645 209.601 139.636C210.948 140.15 211.724 140.558 210.803 140.558L203.803 140.558L197.303 140.558C195.864 140.869 194.461 140.977 193.049 141.086C191.908 141.175 190.762 141.263 189.587 141.46C187.059 141.883 184.541 141.99 181.995 142.098L181.995 142.098L181.995 142.098C181.364 142.125 180.732 142.152 180.098 142.183L146.238 145.628L146.133 144.393L145.44 144.428C139.367 145.258 136.044 145.788 134.343 146.125ZM134.686 146.674L134.343 146.125C130.614 146.864 134.686 146.674 134.686 146.674Z" fill="#FFD7CF"/>
<path fill-rule="evenodd" clip-rule="evenodd" d="M110.331 86.1256C104.606 88.1068 101.848 94.6035 104.401 100.098L124.2 142.711C126.192 146.999 130.837 149.192 135.258 148.274C153.805 147.201 156.303 145.053 156.303 145.053L157.876 140.746C157.925 141.637 157.997 142.494 158.09 143.296C158.122 143.581 158.149 143.848 158.174 144.099C158.373 146.108 158.468 147.066 160.804 147.404C161.062 147.441 161.347 147.494 161.649 147.549L161.649 147.549C163.095 147.816 164.928 148.153 165.966 147.203C166.025 147.149 166.083 147.09 166.142 147.031C166.356 146.813 166.574 146.591 166.87 146.577C167.087 146.568 167.279 146.676 167.472 146.784C167.555 146.831 167.638 146.878 167.723 146.916C168.55 147.28 169.546 146.699 169.961 145.897C170.376 145.094 170.361 144.146 170.336 143.243C170.291 141.532 170.392 139.068 170.493 136.603V136.603L170.493 136.603C170.594 134.129 170.695 131.653 170.649 129.936C170.636 129.48 170.61 128.989 170.317 128.64C170.059 128.333 169.649 128.206 169.262 128.097L160.851 127.291C160.016 127.052 159.135 127.533 158.9 128.369L158.901 128.371C158.878 128.455 158.855 128.539 158.832 128.623L140.139 126.764L131.231 96.8505C128.588 87.9771 119.081 83.0981 110.331 86.1256Z" fill="#DDDBDC"/>
<mask id="mask4_5195_158568" style="mask-type:alpha" maskUnits="userSpaceOnUse" x="108" y="99" width="34" height="36">
<path d="M108.678 111.911C108.199 110.893 108.653 109.681 109.682 109.229L130.784 99.9438C131.866 99.4676 133.123 100.029 133.491 101.153L141.032 124.224C141.187 124.699 140.969 125.215 140.521 125.434L121.625 134.662C120.623 135.152 119.413 134.726 118.938 133.716L108.678 111.911Z" fill="#4E4E50"/>
</mask>
<g mask="url(#mask4_5195_158568)">
<path d="M108.678 111.911C108.199 110.893 108.653 109.681 109.682 109.229L130.784 99.9438C131.866 99.4676 133.123 100.029 133.491 101.153L141.032 124.224C141.187 124.699 140.969 125.215 140.521 125.434L121.625 134.662C120.623 135.152 119.413 134.726 118.938 133.716L108.678 111.911Z" fill="#4E4E50"/>
<path d="M109.441 109.055L133.001 98.3848L143.675 121.953L133.779 126.435C126.233 129.852 117.345 126.505 113.927 118.959L109.441 109.055Z" fill="#5D5D5F"/>
</g>
<path d="M138.305 126.555C140.805 129.388 152.305 135.055 178.305 135.055C204.305 135.055 222.638 135.388 223.805 135.555" stroke="#4F4F51" stroke-linecap="round"/>
<rect x="236.305" y="144.555" width="2" height="72" fill="#878988"/>
<rect x="238.305" y="144.555" width="3" height="72" fill="#A1A2A4"/>
<rect x="159.305" y="144.555" width="2" height="72" fill="#878988"/>
<rect x="159.305" y="144.555" width="2" height="72" fill="#878988"/>
<rect x="161.305" y="144.555" width="3" height="72" fill="#A1A2A4"/>
<rect x="159.305" y="144.555" width="82" height="10" fill="#60687B"/>
<rect x="148.305" y="138.555" width="105" height="9" fill="#4A5267"/>
<path d="M219.912 138.125C220.379 138.406 220.914 138.555 221.46 138.555H237.15C237.695 138.555 238.23 138.406 238.697 138.125L241.305 136.555H217.305L219.912 138.125Z" fill="#BBBBBB"/>
<path d="M219.793 118.529C220.278 116.213 222.321 114.555 224.687 114.555H233.923C236.289 114.555 238.331 116.213 238.816 118.529L242.047 133.939C242.438 135.803 241.015 137.555 239.111 137.555H219.499C217.594 137.555 216.172 135.803 216.563 133.939L219.793 118.529Z" fill="#DEDEE0"/>
<path d="M221.946 120.612C222.391 118.537 224.225 117.055 226.347 117.055H232.211C234.325 117.055 236.154 118.526 236.607 120.59L238.017 127.019C238.359 128.578 237.172 130.055 235.575 130.055L223.016 130.055C221.424 130.055 220.238 128.587 220.571 127.031L221.946 120.612Z" fill="white" stroke="#ABABAB"/>
<path d="M226.16 121.023C226.417 119.594 227.661 118.555 229.113 118.555H232.464C233.911 118.555 235.152 119.588 235.414 121.011L236.369 126.192C236.596 127.421 235.652 128.555 234.402 128.555L227.197 128.555C225.95 128.555 225.008 127.427 225.228 126.2L226.16 121.023Z" fill="#C4C4C4"/>
<path d="M224.242 121.537C223.953 121.427 223.305 120.965 223.305 120.181C223.305 119.835 223.553 119.555 223.86 119.555C224.042 119.555 224.203 119.652 224.305 119.806C224.405 119.654 224.568 119.555 224.749 119.555C225.057 119.555 225.305 119.835 225.305 120.181C225.305 120.965 224.657 121.427 224.366 121.537C224.305 121.56 224.305 121.561 224.242 121.537Z" fill="#F36229"/>
<ellipse cx="229.305" cy="134.055" rx="6.5" ry="2.5" fill="#33669D"/>
<path d="M229.188 122.555H228.676V120.223H228.66L228 120.645V120.18L228.699 119.727H229.188V122.555ZM229.867 122.188L230.867 121.223C230.975 121.115 231.058 121.026 231.117 120.957C231.177 120.887 231.222 120.818 231.254 120.75C231.285 120.681 231.301 120.608 231.301 120.531C231.301 120.445 231.279 120.37 231.236 120.305C231.194 120.24 231.137 120.189 231.062 120.154C230.989 120.119 230.907 120.102 230.816 120.102C230.72 120.102 230.635 120.121 230.562 120.16C230.491 120.198 230.435 120.252 230.396 120.322C230.359 120.393 230.34 120.475 230.34 120.57H229.855C229.855 120.395 229.896 120.24 229.976 120.107C230.058 119.973 230.172 119.87 230.318 119.797C230.465 119.724 230.633 119.688 230.82 119.688C231.01 119.688 231.178 119.723 231.324 119.793C231.471 119.863 231.585 119.961 231.666 120.086C231.748 120.21 231.789 120.35 231.789 120.508C231.788 120.617 231.766 120.723 231.724 120.824C231.683 120.924 231.611 121.036 231.51 121.16C231.408 121.284 231.264 121.434 231.078 121.609L230.574 122.109V122.129H231.832V122.555H229.867V122.188ZM233.312 122.594C233.086 122.594 232.891 122.537 232.728 122.424C232.565 122.309 232.441 122.143 232.355 121.926C232.269 121.708 232.226 121.447 232.226 121.141C232.226 120.836 232.269 120.575 232.355 120.357C232.442 120.139 232.567 119.973 232.73 119.859C232.893 119.745 233.087 119.688 233.312 119.688C233.537 119.688 233.731 119.745 233.894 119.859C234.057 119.973 234.181 120.139 234.267 120.357C234.354 120.575 234.398 120.836 234.398 121.141C234.398 121.447 234.354 121.709 234.267 121.928C234.181 122.145 234.057 122.311 233.894 122.424C233.733 122.537 233.539 122.594 233.312 122.594ZM232.738 121.141C232.738 121.475 232.788 121.73 232.888 121.904C232.99 122.079 233.131 122.167 233.312 122.168C233.431 122.167 233.533 122.128 233.619 122.051C233.705 121.974 233.77 121.859 233.816 121.705C233.863 121.551 233.886 121.363 233.886 121.141C233.886 120.919 233.863 120.732 233.816 120.578C233.77 120.423 233.705 120.307 233.619 120.229C233.533 120.15 233.431 120.111 233.312 120.109C233.194 120.111 233.091 120.15 233.005 120.229C232.92 120.307 232.853 120.423 232.806 120.578C232.761 120.732 232.738 120.919 232.738 121.141Z" fill="black"/>
<path d="M230.996 126.594C230.789 126.594 230.604 126.56 230.44 126.492C230.277 126.423 230.15 126.328 230.059 126.207C229.968 126.086 229.922 125.949 229.922 125.797C229.922 125.68 229.948 125.57 230 125.469C230.054 125.367 230.126 125.283 230.219 125.217C230.313 125.15 230.416 125.108 230.528 125.09V125.074C230.43 125.053 230.343 125.013 230.268 124.953C230.192 124.893 230.133 124.819 230.09 124.73C230.048 124.642 230.028 124.547 230.028 124.445C230.028 124.301 230.069 124.171 230.153 124.057C230.237 123.941 230.353 123.85 230.5 123.785C230.647 123.72 230.813 123.688 230.996 123.688C231.179 123.688 231.343 123.72 231.49 123.785C231.638 123.85 231.753 123.941 231.836 124.057C231.919 124.173 231.961 124.302 231.961 124.445C231.961 124.547 231.94 124.642 231.897 124.73C231.855 124.819 231.796 124.893 231.719 124.953C231.643 125.013 231.557 125.053 231.461 125.074V125.09C231.573 125.108 231.675 125.15 231.768 125.217C231.86 125.283 231.934 125.367 231.988 125.469C232.043 125.57 232.07 125.68 232.07 125.797C232.07 125.949 232.024 126.086 231.932 126.207C231.839 126.328 231.712 126.423 231.549 126.492C231.386 126.56 231.202 126.594 230.996 126.594ZM230.445 125.75C230.445 125.837 230.468 125.914 230.512 125.98C230.557 126.047 230.622 126.099 230.705 126.137C230.789 126.173 230.886 126.191 230.996 126.191C231.106 126.191 231.201 126.173 231.283 126.137C231.367 126.099 231.431 126.047 231.477 125.98C231.524 125.914 231.547 125.837 231.547 125.75C231.547 125.663 231.523 125.584 231.475 125.514C231.428 125.443 231.362 125.389 231.278 125.35C231.194 125.309 231.1 125.289 230.996 125.289C230.892 125.289 230.798 125.309 230.713 125.348C230.628 125.387 230.563 125.441 230.516 125.512C230.469 125.582 230.445 125.661 230.445 125.75ZM230.524 124.492C230.524 124.574 230.544 124.647 230.584 124.711C230.625 124.773 230.681 124.822 230.752 124.857C230.824 124.893 230.905 124.91 230.996 124.91C231.086 124.91 231.166 124.893 231.237 124.857C231.308 124.822 231.364 124.773 231.404 124.711C231.445 124.647 231.465 124.574 231.465 124.492C231.465 124.413 231.445 124.342 231.404 124.281C231.365 124.22 231.31 124.173 231.238 124.139C231.168 124.104 231.087 124.086 230.996 124.086C230.903 124.086 230.82 124.104 230.748 124.139C230.678 124.173 230.623 124.22 230.582 124.281C230.543 124.342 230.524 124.413 230.524 124.492ZM233.527 126.594C233.301 126.594 233.106 126.537 232.943 126.424C232.781 126.309 232.656 126.143 232.57 125.926C232.484 125.708 232.441 125.447 232.441 125.141C232.441 124.836 232.484 124.575 232.57 124.357C232.658 124.139 232.783 123.973 232.945 123.859C233.108 123.745 233.302 123.688 233.527 123.688C233.753 123.688 233.947 123.745 234.109 123.859C234.272 123.973 234.396 124.139 234.482 124.357C234.57 124.575 234.613 124.836 234.613 125.141C234.613 125.447 234.57 125.709 234.482 125.928C234.396 126.145 234.272 126.311 234.109 126.424C233.948 126.537 233.754 126.594 233.527 126.594ZM232.953 125.141C232.953 125.475 233.003 125.73 233.104 125.904C233.205 126.079 233.346 126.167 233.527 126.168C233.646 126.167 233.748 126.128 233.834 126.051C233.92 125.974 233.986 125.859 234.031 125.705C234.078 125.551 234.102 125.363 234.102 125.141C234.102 124.919 234.078 124.732 234.031 124.578C233.986 124.423 233.92 124.307 233.834 124.229C233.748 124.15 233.646 124.111 233.527 124.109C233.409 124.111 233.307 124.15 233.221 124.229C233.135 124.307 233.068 124.423 233.021 124.578C232.976 124.732 232.953 124.919 232.953 125.141Z" fill="black"/>
<path d="M228.405 132.504C228.404 132.601 228.42 132.697 228.453 132.789C228.486 132.882 228.533 132.964 228.595 133.036C228.658 133.108 228.731 133.162 228.814 133.198L228.698 133.354C228.609 133.313 228.53 133.252 228.464 133.173C228.397 133.094 228.346 133.001 228.308 132.895C228.271 133.009 228.218 133.109 228.149 133.195C228.081 133.281 228 133.347 227.906 133.391L227.786 133.228C227.872 133.191 227.947 133.135 228.01 133.061C228.073 132.986 228.122 132.9 228.155 132.803C228.189 132.707 228.206 132.607 228.206 132.504V132.25H228.405V132.504ZM228.929 132.122H229.125V133.713H228.929V132.122ZM229.925 132.398C229.925 132.465 229.939 132.529 229.967 132.591C229.996 132.652 230.039 132.707 230.095 132.756C230.152 132.804 230.22 132.842 230.301 132.869L230.203 133.02C230.116 132.991 230.04 132.948 229.977 132.892C229.914 132.836 229.865 132.77 229.829 132.693C229.794 132.777 229.743 132.849 229.676 132.91C229.611 132.971 229.533 133.017 229.442 133.048L229.338 132.897C229.421 132.87 229.491 132.83 229.55 132.779C229.609 132.727 229.654 132.668 229.683 132.603C229.713 132.537 229.728 132.468 229.728 132.398V132.379H229.393V132.222H230.256V132.379H229.925V132.398ZM229.551 133.154H230.609V133.711H230.414V133.31H229.551V133.154ZM230.414 132.122H230.609V132.519H230.83V132.683H230.609V133.08H230.414V132.122Z" fill="white"/>
<path d="M228.623 135.267H229.252V135.425H227.804V135.267H228.429V135.065H228.623V135.267ZM227.872 134.998C227.968 134.989 228.052 134.971 228.126 134.944C228.201 134.917 228.26 134.885 228.305 134.847C228.35 134.809 228.378 134.768 228.389 134.724H227.935V134.567H229.122V134.724H228.664C228.675 134.767 228.703 134.808 228.748 134.847C228.793 134.885 228.852 134.917 228.927 134.944C229.002 134.971 229.087 134.989 229.183 134.998L229.113 135.151C228.97 135.136 228.847 135.102 228.744 135.049C228.642 134.996 228.569 134.929 228.526 134.849C228.483 134.929 228.41 134.997 228.308 135.05C228.206 135.103 228.084 135.136 227.941 135.151L227.872 134.998ZM227.972 135.805C227.972 135.746 227.994 135.696 228.038 135.655C228.082 135.613 228.145 135.581 228.228 135.56C228.311 135.538 228.411 135.527 228.526 135.527C228.641 135.527 228.739 135.538 228.821 135.56C228.903 135.581 228.966 135.613 229.01 135.655C229.054 135.696 229.076 135.746 229.076 135.805C229.076 135.865 229.054 135.915 229.01 135.957C228.967 135.999 228.904 136.03 228.821 136.052C228.739 136.074 228.641 136.084 228.526 136.084C228.411 136.084 228.311 136.074 228.228 136.052C228.145 136.03 228.082 135.999 228.038 135.957C227.994 135.915 227.972 135.865 227.972 135.805ZM228.171 135.805C228.17 135.848 228.2 135.881 228.26 135.903C228.32 135.926 228.409 135.937 228.526 135.937C228.641 135.937 228.728 135.926 228.789 135.903C228.85 135.881 228.881 135.848 228.881 135.805C228.881 135.763 228.85 135.731 228.79 135.71C228.729 135.688 228.641 135.677 228.526 135.677C228.409 135.677 228.32 135.688 228.26 135.71C228.2 135.731 228.17 135.763 228.171 135.805ZM230.808 135.902H229.356V135.74H229.741V135.478H229.528V134.959H230.442V134.764H229.524V134.606H230.635V135.116H229.723V135.32H230.672V135.478H230.44V135.74H230.808V135.902ZM230.249 135.74V135.478H229.93V135.74H230.249Z" fill="white"/>
<path d="M224.365 134.133H234.363" stroke="white" stroke-width="0.1"/>
</g>
<defs>
<linearGradient id="paint0_linear_5195_158568" x1="165.1" y1="0.554687" x2="165.1" y2="200.555" gradientUnits="userSpaceOnUse">
<stop stop-color="#1A7BBF"/>
<stop offset="1" stop-color="#339AD4"/>
</linearGradient>
</defs>
</svg>
