<svg width="136" height="168" viewBox="0 0 136 168" fill="none" xmlns="http://www.w3.org/2000/svg">
<rect width="136" height="168" rx="20" fill="#FFE684"/>
<g filter="url(#filter0_d_2691_45650)">
<mask id="mask0_2691_45650" style="mask-type:alpha" maskUnits="userSpaceOnUse" x="22" y="23" width="84" height="76">
<rect x="41.9965" y="25.0719" width="65.1998" height="53.1746" transform="rotate(19.3143 41.9965 25.0719)" fill="#D9D9D9" stroke="white" stroke-width="3.25133"/>
</mask>
<g mask="url(#mask0_2691_45650)">
<rect x="41" y="22.998" width="68.4512" height="56.426" transform="rotate(19.3143 41 22.998)" fill="#FFDD55"/>
<g clip-path="url(#clip0_2691_45650)">
<path d="M46.5919 86.4213C46.5919 86.4213 58.1446 91.953 64.861 104.396C68.6642 111.442 77.7258 123.806 78.1289 125.089C72.4646 127.676 69.6999 125.73 69.6999 125.73C63.6864 120.826 51.5505 107.072 51.5505 107.072C51.5505 107.072 47.7886 106.617 45.7666 105.628C39.9841 102.801 38.9058 100.9 38.9058 100.9L46.5919 86.4199L46.5919 86.4213Z" fill="#04101C"/>
<path d="M82.6035 74.8181L95.0323 76.1403C98.3115 74.3132 97.8713 75.5317 98.5976 75.8197C98.9964 75.9779 100.928 75.9875 100.829 77.5935C100.801 78.0479 101.025 81.6434 98.3734 81.0062C97.1382 80.7101 97.046 80.3321 94.4381 79.8395C94.4161 79.845 95.2648 80.0101 94.4161 79.845C93.9691 79.7576 83.3243 79.2937 79.3065 79.1218C78.008 79.0658 64.9424 68.6724 64.9424 68.6724L70.9697 65.5449L82.6035 74.8181Z" fill="#F7D5C7"/>
<path d="M52.8464 103.373L32.5403 103.373C31.1401 103.373 30.0039 102.245 30.0039 100.856L30.0039 97.1654C30.0039 95.5948 31.4399 94.4077 32.9969 94.6902L53.3031 98.3812C54.508 98.5995 55.3828 99.642 55.3828 100.856C55.3828 102.245 54.2467 103.373 52.8464 103.373Z" fill="#04101C"/>
<path d="M64.9999 55.2207C64.9999 55.2207 59.7883 56.8909 62.5764 63.6302L68.4111 72.5745L74.074 67.6718" fill="#FC7E7E"/>
<path fill-rule="evenodd" clip-rule="evenodd" d="M68.2325 33.1041C65.3068 30.648 53.2535 28.6531 48.9373 37.2986C47.3087 40.5598 49.0652 48.2856 53.6263 52.1281C50.9647 59.1362 76.4262 44.5646 68.2311 33.1041L68.2325 33.1041Z" fill="#3F3336"/>
<path d="M37.6008 45.5477C35.1648 49.5485 33.9434 52.6937 31.6422 53.3432C29.4249 54.2274 27.4112 52.9775 27.894 54.327C28.209 55.2098 30.9462 58.4805 33.6862 59.0605C36.51 59.8737 41.2719 58.7698 43.7079 54.7704C46.1439 50.7711 47.0957 47.9779 49.0159 46.5643C51.1987 44.9569 52.273 43.7234 51.7902 42.3725C51.4752 41.4897 49.7132 41.4256 46.9719 40.847C44.148 40.0338 40.0367 41.5484 37.6008 45.5491L37.6008 45.5477Z" fill="#3F3336"/>
<path d="M66.238 68.8206C67.044 66.4682 66.1004 64.768 65.934 62.548C65.6713 59.0521 67.586 58.4176 65.9987 55.1496C62.0497 47.0199 44.4229 53.1793 43.8672 53.4221C42.2786 54.114 41.1961 55.8141 41.2497 57.5334C41.3281 60.0414 44.3019 67.1041 43.7338 72.3274C43.5963 73.5868 42.0241 84.2505 39.9375 87.6522C41.9168 88.6483 51.2728 90.4603 56.0595 89.4792C58.1034 78.8402 65.3756 71.3395 66.2394 68.8206L66.238 68.8206Z" fill="#F7D5C7"/>
<path d="M99.2097 80.1323L79.5225 80.1323C78.6298 80.1323 77.8994 79.4078 77.8994 78.5222C77.8994 77.6367 78.6298 76.9121 79.5225 76.9121L99.2097 76.9121C100.102 76.9121 100.833 77.6367 100.833 78.5222C100.833 79.4078 100.102 80.1323 99.2097 80.1323Z" fill="#04101C"/>
<path d="M65.9343 62.548C65.6715 59.0521 67.5862 58.4176 65.9989 55.1496C62.0499 47.0199 44.4232 53.1793 43.8675 53.4221C42.2788 54.114 41.1963 55.8141 41.25 57.5334C41.3284 60.0414 44.3021 67.1041 43.7341 72.3274C43.6103 73.4695 42.3297 80.2306 41.3641 84.0935C46.4534 85.5727 51.4505 86.813 56.7488 86.6192C59.3897 77.5002 65.4556 71.1062 66.2396 68.8206C67.0457 66.4682 66.1021 64.768 65.9356 62.548L65.9343 62.548Z" fill="#E8C2B5"/>
<path d="M66.2379 68.8206C67.044 66.4682 66.1004 64.768 65.9339 62.548C65.6712 59.0521 67.5859 58.4176 65.9986 55.1496C62.0496 47.0199 44.4229 53.1793 43.8672 53.4221C42.2785 54.114 41.196 55.8141 41.2496 57.5334C41.328 60.0414 44.3018 67.1041 43.7337 72.3274C43.5962 73.5868 42.1657 79.4556 40.0791 82.8573C42.0584 83.8534 54.3978 85.7773 59.1845 84.7976C61.2284 74.1586 65.3741 71.3395 66.2379 68.822L66.2379 68.8206Z" fill="#FF9494"/>
<path fill-rule="evenodd" clip-rule="evenodd" d="M61.7676 39.6534C63.2367 36.9599 66.3906 36.2776 67.0619 37.3378C67.7551 38.4322 68.1168 40.0559 67.7977 42.362C67.1705 46.9044 65.3109 51.1466 63.3109 51.9708C62.1321 52.4566 58.5573 51.4264 58.5573 51.4264C58.5573 51.4264 57.505 53.2425 58.9438 54.7257C59.5462 56.9554 59.0483 59.0458 56.0071 58.9953C53.9192 58.9598 48.1656 56.2363 49.2756 53.3585C50.4461 50.3225 53.2865 52.8932 54.4143 45.765C54.4143 45.765 53.3208 45.5849 52.8312 44.6598C52.215 43.4945 52.5492 40.9101 54.2575 41.1298C56.1199 41.37 55.4473 44.5342 55.4473 44.5342C55.4473 44.5342 59.1515 44.4483 61.7649 39.6548L61.7676 39.6534Z" fill="#F7D5C7"/>
<path fill-rule="evenodd" clip-rule="evenodd" d="M58.9453 54.7266C57.6084 53.3471 58.4378 51.6551 58.5588 51.4272C57.8848 51.1161 57.0912 50.6112 56.596 49.9727C56.2755 53.6091 58.9467 54.7252 58.9467 54.7252L58.9453 54.7266Z" fill="#E8C2B5"/>
<path fill-rule="evenodd" clip-rule="evenodd" d="M67.2336 43.275C67.0397 43.2409 66.8526 43.3692 66.8182 43.5616L66.7384 43.9996C66.7041 44.192 66.8334 44.3775 67.0273 44.4117C67.2212 44.4458 67.4083 44.3175 67.4427 44.1251L67.5225 43.6871C67.5569 43.4947 67.4276 43.3091 67.2336 43.275Z" fill="#3F3336"/>
<path fill-rule="evenodd" clip-rule="evenodd" d="M63.7551 42.7809C63.5612 42.7468 63.3741 42.875 63.3397 43.0674L63.2599 43.5054C63.2255 43.6978 63.3548 43.8834 63.5488 43.9175C63.7427 43.9516 63.9298 43.8234 63.9642 43.631L64.044 43.193C64.0783 43.0006 63.949 42.815 63.7551 42.7809Z" fill="#3F3336"/>
<path d="M62.3348 41.1654C62.2782 41.1758 62.2522 41.1115 62.3032 41.0849C62.7169 40.8684 63.6666 40.4804 64.8882 40.6733C64.9336 40.6805 64.9629 40.7253 64.9516 40.7698L64.8965 40.9871C64.8865 41.0262 64.8495 41.0519 64.8093 41.0475C64.5459 41.0187 63.5632 40.9382 62.3348 41.1654Z" fill="#2F3032"/>
<path d="M67.0039 41.2187C67.0039 41.2187 67.5634 41.3237 68.2979 41.6941C68.4398 41.7656 68.3457 41.9368 68.196 41.8835C67.7426 41.7221 67.2461 41.5889 66.8705 41.6035C66.8375 41.4534 66.8691 41.3211 67.0039 41.2187Z" fill="#2F3032"/>
<path d="M63.9022 49.1056C63.8307 49.0783 63.7578 49.0469 63.6863 49.0101C63.0371 48.6867 62.5295 48.0836 62.579 47.6933C62.59 47.6101 62.6671 47.55 62.7523 47.5596C62.8349 47.5705 62.8968 47.6469 62.8871 47.7315C62.861 47.9348 63.2448 48.4465 63.8266 48.7358C64.2048 48.9241 64.9366 49.1479 65.5817 48.5339C65.6436 48.4752 65.7412 48.4779 65.8004 48.5379C65.8595 48.5993 65.8582 48.6962 65.7963 48.7549C65.2777 49.2489 64.5982 49.3703 63.9036 49.1056L63.9022 49.1056Z" fill="#DFA797" stroke="#DFA797" stroke-width="0.131733"/>
<path d="M65.5255 46.9118C65.945 46.8995 66.1404 46.6989 66.1527 46.5298C66.1857 46.0795 65.7827 44.7095 65.7759 44.6495C65.769 44.5826 65.7071 44.5348 65.6397 44.5417C65.5723 44.5485 65.5241 44.6099 65.531 44.6768C65.5324 44.6918 65.846 46.0085 65.8928 46.4329C65.9258 46.7317 65.2215 46.6676 65.1087 46.6266C65.0455 46.6034 64.9739 46.6348 64.9506 46.6976C64.9272 46.7604 64.9588 46.8313 65.0221 46.8545C65.0537 46.8668 65.3178 46.9173 65.5241 46.9104L65.5255 46.9118Z" fill="#DFA797" stroke="#DFA797" stroke-width="0.131733"/>
<path d="M63.7666 72.7498L76.1954 74.072C79.4745 72.2449 79.0344 73.4634 79.7606 73.7513C80.1595 73.9096 82.0907 73.9191 81.9917 75.5252C81.9641 75.9795 82.1884 79.575 79.5364 78.9378C78.3013 78.6403 78.2091 78.2637 75.6012 77.7711C75.5792 77.7766 76.4279 77.9417 75.5792 77.7766C75.1322 77.6893 64.4873 77.2253 60.4696 77.0534C59.1711 76.9975 46.1055 66.604 46.1055 66.604L52.1328 63.4766L63.7666 72.7498Z" fill="#F7D5C7"/>
<path d="M89.3652 78.5238L95.2248 76.0254C103.244 72.6073 112.172 78.4405 112.172 87.0997L111.699 132.37" stroke="#04101C" stroke-width="3.03574" stroke-miterlimit="10" stroke-linecap="round"/>
<path d="M42.6445 63.2576L49.3596 70.3885L54.6387 65.0806L50.5879 59.5762" fill="#FF9494"/>
<path d="M78.48 80.7565C79.6127 80.7565 80.5309 79.8456 80.5309 78.722C80.5309 77.5984 79.6127 76.6875 78.48 76.6875C77.3474 76.6875 76.4292 77.5984 76.4292 78.722C76.4292 79.8456 77.3474 80.7565 78.48 80.7565Z" fill="#04101C"/>
<path d="M79.3228 114.317L77.0986 116.042L70.202 111.311L71.5816 110.294L53.3634 104.169C53.3634 104.169 45.6071 104.563 42.1436 103.178C34.8013 100.245 35.9168 89.9386 39.9373 87.0977L56.3055 88.6355C56.3055 88.6355 70.781 99.2104 79.0449 105.596C81.866 107.777 81.9994 111.962 79.3241 114.315L79.3228 114.317Z" fill="#091E35"/>
<path d="M112.385 74.0597L89.8879 74.0597C88.0048 74.0597 86.6156 72.3172 87.0489 70.4997L91.4614 51.9984C91.7723 50.6925 92.9483 49.7715 94.3004 49.7715L116.798 49.7715C118.681 49.7715 120.07 51.514 119.637 53.3315L115.224 71.8328C114.913 73.1387 113.737 74.0597 112.385 74.0597Z" fill="#909090"/>
<path d="M116.286 74.0597L93.7887 74.0597C91.9057 74.0597 90.5165 72.3172 90.9498 70.4997L95.3623 51.9984C95.6732 50.6925 96.8492 49.7715 98.2013 49.7715L120.699 49.7715C122.582 49.7715 123.971 51.514 123.538 53.3315L119.125 71.8328C118.814 73.1387 117.638 74.0597 116.286 74.0597Z" fill="#5A5B5D"/>
</g>
<rect x="41.613" y="24.2745" width="66.4512" height="54.426" transform="rotate(19.3143 41.613 24.2745)" stroke="white" stroke-width="2"/>
</g>
</g>
<mask id="mask1_2691_45650" style="mask-type:alpha" maskUnits="userSpaceOnUse" x="45" y="36" width="84" height="75">
<rect x="47.6702" y="58.2503" width="65.1998" height="53.1746" transform="rotate(-17.7403 47.6702 58.2503)" fill="#D9D9D9" stroke="white" stroke-width="3.25133"/>
</mask>
<g mask="url(#mask1_2691_45650)">
<rect x="45.6265" y="57.1973" width="68.4512" height="56.426" transform="rotate(-17.7403 45.6265 57.1973)" fill="#F3F3F3"/>
<g clip-path="url(#clip1_2691_45650)">
<path d="M102.862 61.8398C102.875 61.8379 102.886 61.8363 102.899 61.8344L102.862 61.8398Z" fill="#F6D4C6"/>
<path d="M103 61.8184C103.05 61.8103 103.1 61.8022 103.148 61.7946L103 61.8184Z" fill="#F6D4C6"/>
<path d="M102.978 61.8223L103.001 61.8182C102.993 61.8193 102.986 61.8212 102.978 61.8223Z" fill="#F6D4C6"/>
<path d="M102.906 61.834C102.929 61.8301 102.953 61.8266 102.977 61.8225L102.906 61.834Z" fill="#F6D4C6"/>
<path d="M103.315 61.7676C103.349 61.7624 103.381 61.7572 103.408 61.7526L103.315 61.7676Z" fill="#F6D4C6"/>
<path d="M103.272 61.7754L103.315 61.7687C103.301 61.7711 103.287 61.7734 103.272 61.7754Z" fill="#F6D4C6"/>
<path d="M103.199 61.7871C103.224 61.7834 103.248 61.7791 103.272 61.7752L103.199 61.7871Z" fill="#F6D4C6"/>
<path d="M103.148 61.7949L103.199 61.7872C103.182 61.7898 103.165 61.7924 103.148 61.7949Z" fill="#F6D4C6"/>
<path d="M102.633 61.8779C102.633 61.8779 102.629 61.8789 102.627 61.8789L102.632 61.8773L102.633 61.8779Z" fill="#F6D4C6"/>
<path d="M102.529 61.8945L102.575 61.8873C102.557 61.8905 102.541 61.8926 102.529 61.8945Z" fill="#F6D4C6"/>
<path d="M102.738 61.8594C102.753 61.8568 102.768 61.8548 102.783 61.8522L102.738 61.8594Z" fill="#F6D4C6"/>
<path d="M103.409 61.752L103.444 61.7462C103.433 61.7477 103.421 61.7501 103.409 61.752Z" fill="#F6D4C6"/>
<path d="M102.783 61.8535L102.862 61.8409C102.835 61.8453 102.808 61.8496 102.783 61.8535Z" fill="#F6D4C6"/>
<path d="M103.498 61.7383C103.505 61.7374 103.511 61.7363 103.516 61.7354L103.498 61.7383Z" fill="#F6D4C6"/>
<path d="M102.53 61.893L102.52 61.8945C102.52 61.8945 102.525 61.893 102.526 61.8933C102.527 61.893 102.528 61.8928 102.529 61.8923L102.53 61.893Z" fill="#F6D4C6"/>
<path d="M102.596 61.8835C102.589 61.8843 102.582 61.8859 102.576 61.8863L102.529 61.8937C102.529 61.8937 102.528 61.8941 102.526 61.8945C102.545 61.8915 102.569 61.888 102.596 61.8835Z" fill="#F6D4C6"/>
<path d="M127.326 63.1916C127.282 63.928 127.528 64.6499 127.581 65.3854C127.617 65.8813 127.563 66.3798 127.51 66.8746C127.444 67.4845 131.051 92.077 131.425 93.4997C130.806 94.036 124.214 90.0764 123.394 90.1034C123.296 89.3775 124.531 74.5657 124.182 72.5807C123.803 70.4217 123.421 68.2367 123.355 67.5885C123.013 67.2411 122.661 66.891 122.315 66.5426C122.206 66.4311 122.095 66.3213 121.987 66.2109C121.86 66.0832 121.734 65.9542 121.627 65.8131C121.571 65.7409 121.521 65.6661 121.478 65.5859C121.366 65.3759 121.309 65.1406 121.216 64.9219C121.15 64.7664 121.067 64.6186 120.999 64.4646C120.939 64.3285 120.891 64.1873 120.843 64.0465C120.608 63.3565 120.374 62.6663 120.139 61.9763C120.1 61.863 120.061 61.7432 120.084 61.6252C120.123 61.425 120.321 61.2993 120.507 61.2145C120.798 61.0822 121.105 60.9854 121.418 60.9278C121.363 60.6917 121.536 60.4373 121.733 60.2962C121.931 60.1543 122.175 60.0958 122.412 60.0404C122.56 60.0053 122.709 59.9712 122.86 59.9757C123.019 59.9807 123.173 60.0289 123.322 60.0824C123.62 60.1892 123.911 60.3186 124.189 60.4697C124.424 60.5959 124.65 60.7372 124.896 60.8374C125.334 61.0158 125.814 61.0577 126.266 61.1958C126.718 61.3337 127.172 61.6059 127.325 62.0507C127.449 62.4132 127.349 62.8091 127.326 63.1923L127.326 63.1916Z" fill="#F6D4C6"/>
<path d="M119.507 89.561C119.31 88.8533 119.11 88.1331 118.911 87.4114C119.054 87.6425 119.199 87.8774 119.345 88.1141C120.885 90.6084 126.822 96.1154 127.459 96.38C131.866 98.208 132.611 93.3424 129.903 89.884C127.196 86.4252 123.205 79.0899 119.409 73.38C118.369 71.8154 116.885 70.9085 115.281 70.3731C114.004 69.9467 112.651 69.7557 111.384 69.6542C108.905 69.4575 106.938 69.3142 106.147 69.0288C104.481 68.4288 102.633 61.8779 102.633 61.8779C102.628 61.8786 102.623 61.8794 102.619 61.8801C102.611 61.8814 102.603 61.8825 102.596 61.884C102.568 61.8886 102.544 61.8921 102.526 61.8952C102.522 61.8963 102.519 61.896 102.516 61.8969L102.505 61.8991C102.497 61.9002 102.491 61.9013 102.487 61.9019C102.484 61.9028 102.481 61.903 102.481 61.903L96.0912 62.9307L95.6409 63.0034L95.1715 63.0816L95.1722 63.0836C95.3437 63.541 96.3617 63.6195 96.5006 64.0549C96.5006 64.0549 98.2022 67.9824 98.2738 69.4656C98.3535 71.1306 95.6453 72.8355 94.3015 73.8332C93.3696 74.5247 92.5185 75.1149 91.7513 75.6539C90.5361 76.5071 89.5321 77.2311 88.7578 78.0237L88.7584 78.0257C87.2467 79.5734 86.6116 81.3823 86.9924 84.9237C87.0593 85.5443 87.1542 86.2321 87.2716 86.9725C90.1589 91.2421 92.8167 95.7419 96.6079 99.2187C96.5027 97.9014 96.3978 96.5893 96.2977 95.3511C96.2901 95.255 96.282 95.1599 96.2755 95.0649C96.511 95.488 96.7477 95.9121 96.9848 96.3332C99.2528 100.374 102.546 104.332 102.841 104.809C104.113 106.877 103.122 112.491 102.891 117.621C102.587 124.371 103.514 131.115 105.621 137.53C106.238 139.41 120.678 128.995 120.678 128.995L123.034 127.107L124.441 128.234L126.654 136.052L126.659 136.06L127.566 137.728C127.566 137.728 137.084 119.995 135.807 117.757C135.304 116.875 134.724 116.04 134.076 115.256C133.038 113.999 131.096 111.626 129.072 109.043C125.934 105.041 121.336 100.727 120.862 99.0988C120.527 97.9523 119.417 94.1296 119.509 89.5624L119.507 89.561Z" fill="#F6D4C6"/>
<path d="M102.619 61.8801C102.619 61.8801 102.624 61.8792 102.627 61.879L102.577 61.8867C102.583 61.8854 102.59 61.8846 102.596 61.8839C102.604 61.8829 102.611 61.8812 102.619 61.8801Z" fill="#F6D4C6"/>
<path d="M102.516 61.8958C102.504 61.8977 102.494 61.8992 102.488 61.9004L102.506 61.8977C102.506 61.8977 102.513 61.8963 102.516 61.8958Z" fill="#F6D4C6"/>
<path d="M102.52 61.8956C102.52 61.8956 102.517 61.8967 102.515 61.8965C102.515 61.8965 102.515 61.8965 102.516 61.8963L102.52 61.8949L102.52 61.8956Z" fill="#F6D4C6"/>
<path d="M102.506 61.8975L102.488 61.9002C102.488 61.9002 102.488 61.9002 102.488 61.9004C102.492 61.899 102.498 61.8986 102.506 61.8975Z" fill="#F6D4C6"/>
<path d="M103.446 61.7461C103.454 61.745 103.462 61.7432 103.469 61.7423L103.446 61.7461Z" fill="#F6D4C6"/>
<path d="M102.633 61.8767L102.628 61.8785C102.628 61.8785 102.623 61.8787 102.62 61.8789C102.624 61.8776 102.628 61.8776 102.633 61.8767Z" fill="#F6D4C6"/>
<path d="M103.47 61.7422C103.479 61.7406 103.489 61.739 103.497 61.7381L103.47 61.7422Z" fill="#F6D4C6"/>
<path d="M102.732 61.8608L102.633 61.877C102.663 61.8724 102.696 61.8667 102.732 61.8608Z" fill="#F6D4C6"/>
<path d="M103.518 61.7344C103.524 61.7333 103.528 61.7326 103.531 61.7324L103.518 61.7344Z" fill="#F6D4C6"/>
<path d="M103.048 61.8145L103.083 61.8085C103.072 61.8102 103.059 61.8121 103.048 61.8145Z" fill="#F6D4C6"/>
<path d="M103.465 61.7461L103.486 61.7428C103.48 61.744 103.473 61.7451 103.465 61.7461Z" fill="#F6D4C6"/>
<path d="M103.348 61.7656C103.396 61.758 103.436 61.7514 103.466 61.7468L103.348 61.7656Z" fill="#F6D4C6"/>
<path d="M103.488 61.7422C103.499 61.7401 103.508 61.7387 103.513 61.7378L103.488 61.7422Z" fill="#F6D4C6"/>
<path d="M103.315 61.7695L103.347 61.7644C103.337 61.7661 103.327 61.7674 103.315 61.7695Z" fill="#F6D4C6"/>
<path d="M103.085 61.8066C103.168 61.7935 103.248 61.7809 103.316 61.7697L103.085 61.8066Z" fill="#F6D4C6"/>
<path d="M103.739 65.2063C103.074 63.5033 102.617 61.8826 102.617 61.8826C102.609 61.8837 102.603 61.8848 102.596 61.8857C102.58 61.8881 102.564 61.8912 102.55 61.8933C102.54 61.8951 102.53 61.8964 102.522 61.8982C102.517 61.899 102.512 61.8999 102.508 61.9006C102.447 61.9102 102.455 61.9089 102.508 61.9006C102.513 61.8997 102.516 61.8992 102.522 61.8982C102.531 61.8968 102.54 61.8951 102.55 61.8933C102.564 61.8912 102.579 61.889 102.596 61.8857C102.711 61.8674 102.883 61.8398 103.048 61.8132L96.0745 62.935L95.6242 63.0077L95.1548 63.0859L95.1554 63.0879C95.3269 63.5453 96.3449 63.6238 96.4839 64.0592C96.4839 64.0592 98.074 67.7283 98.2445 69.3132C100.566 68.5132 102.721 67.3068 103.739 65.207L103.739 65.2063Z" fill="#E0AB9C"/>
<path d="M102.522 61.8978C102.516 61.899 102.512 61.8997 102.507 61.9004C102.512 61.8997 102.517 61.8987 102.522 61.8978Z" fill="#F6D4C6"/>
<path d="M102.595 61.8851C102.579 61.8876 102.563 61.8904 102.55 61.8926C102.564 61.8902 102.58 61.8881 102.595 61.8851Z" fill="#F6D4C6"/>
<path opacity="0.17" d="M98.3178 53.2447C95.0084 53.9113 92.3848 54.0818 92.0527 54.1944C91.7414 54.3001 91.4471 54.4054 91.1701 54.511C91.3042 55.3275 91.4968 56.3086 91.7695 57.3479C96.0955 54.5896 100.644 53.912 105.509 54.5396C105.438 53.6713 105.34 52.8074 105.24 52.0419C105.226 51.9295 105.207 51.8187 105.183 51.7101C104.997 51.7169 104.806 51.7261 104.61 51.7372C104.097 51.7667 101.518 52.6006 98.3187 53.2452L98.3178 53.2447Z" fill="#221F1D"/>
<path d="M107.004 51.8154C108.472 57.8544 106.105 63.9512 100.674 65.7309C95.2431 67.5107 89.5154 64.0807 87.336 58.2607C84.6898 51.1959 88.2348 46.125 93.6657 44.3452C99.0966 42.5655 105.394 45.1922 107.004 51.8154Z" fill="#3F3235"/>
<path d="M104.457 51.4049C104.455 51.6117 104.318 51.7884 104.106 51.9366C104.27 52.3808 104.402 52.9372 104.528 53.4699C105.25 56.498 104.701 57.2507 104.3 56.5753C104.034 56.1265 103.131 53.3475 102.887 52.4257C102.311 52.572 101.798 52.632 101.798 52.632L101.051 51.9912L100.894 52.8889C100.02 53.5703 97.5203 53.756 97.5203 53.756L96.3889 52.9469L96.2296 54.0604C94.9879 55.2966 92.9666 55.4054 92.9666 55.4054L92.123 54.7125L91.5533 55.8678C91.5533 55.8678 88.7666 58.0839 88.3472 56.9177C88.1017 56.2393 87.9549 54.1508 87.8751 52.5221C87.7881 50.746 88.3722 49.0295 89.5177 47.7952C92.7371 44.322 97.2781 44.1218 98.9939 44.537C102.632 45.4161 104.456 51.4067 104.456 51.4067L104.457 51.4049Z" fill="#3F3235"/>
<path d="M91.1307 59.6322C91.1307 59.6322 89.2782 58.3429 88.7807 60.0733C88.2832 61.8038 91.0111 65.5416 93.0291 63.7509L91.1307 59.6322Z" fill="#F6D4C6"/>
<path d="M92.0926 62.6272C92.0057 62.6556 91.907 62.625 91.854 62.5453C91.0667 61.3737 89.5499 61.2905 89.5347 61.2896C89.4196 61.2843 89.3305 61.1875 89.336 61.0723C89.3417 60.9578 89.4393 60.8688 89.5543 60.8741C89.6246 60.877 91.2955 60.9638 92.2022 62.3134C92.2662 62.4087 92.2401 62.5381 92.144 62.6022C92.1276 62.6135 92.1101 62.6215 92.0926 62.6272Z" fill="#E6AB9B"/>
<path d="M90.5214 62.4208C90.4844 62.433 90.4441 62.4351 90.4034 62.4247C90.2919 62.396 90.2255 62.2822 90.2547 62.1711C90.2597 62.1524 90.3792 61.7138 90.8048 61.329C90.8897 61.2515 91.0222 61.2577 91.1 61.3427C91.1771 61.4278 91.1708 61.5588 91.0852 61.6365C90.7563 61.934 90.6599 62.2724 90.6588 62.2758C90.6397 62.3472 90.5861 62.3997 90.5214 62.4208Z" fill="#E6AB9B"/>
<path d="M104.446 55.2735C104.446 55.2735 105.178 53.138 106.602 54.2395C108.026 55.341 108.037 59.9684 105.351 59.7171L104.446 55.2735Z" fill="#F6D4C6"/>
<path d="M105.441 58.2574C105.528 58.229 105.59 58.1458 105.585 58.0502C105.527 56.6397 106.701 55.6753 106.713 55.6662C106.803 55.5939 106.817 55.4631 106.745 55.3735C106.672 55.2846 106.541 55.2706 106.451 55.3423C106.396 55.3862 105.1 56.4438 105.167 58.0687C105.172 58.1834 105.269 58.2722 105.384 58.2673C105.404 58.2667 105.423 58.2627 105.44 58.257L105.441 58.2574Z" fill="#E6AB9B"/>
<path d="M106.587 57.1623C106.624 57.1502 106.658 57.128 106.685 57.0956C106.758 57.0065 106.744 56.8752 106.655 56.8029C106.64 56.7908 106.284 56.508 105.713 56.4491C105.599 56.4369 105.496 56.5203 105.483 56.6348C105.471 56.7493 105.554 56.851 105.669 56.8629C106.11 56.9081 106.388 57.1238 106.39 57.126C106.447 57.1726 106.522 57.1831 106.587 57.1617L106.587 57.1623Z" fill="#E6AB9B"/>
<path d="M104.447 52.1148C104.899 53.7566 105.405 55.8286 105.625 57.5465C105.679 57.9747 105.706 58.3833 105.73 58.7548C105.973 62.5518 103.487 68.8973 97.9678 67.4415C95.4503 66.7776 93.1988 65.2373 91.6325 62.3549C90.5689 60.3972 89.8229 58.3117 89.3583 56.7987C88.8855 55.2535 89.2687 53.5746 90.3654 52.3778C93.3337 49.1351 97.424 48.6425 100.269 48.7811C102.244 48.8765 103.927 50.2219 104.448 52.1146L104.447 52.1148Z" fill="#F6D4C6"/>
<path d="M98.9348 54.0596L99.1742 54.5488C99.1742 54.5488 101.662 54.0924 102.959 54.1969C103.046 53.9842 100.586 53.4295 98.9344 54.0605L98.9348 54.0596Z" fill="#3F3235"/>
<path d="M94.441 55.8192L94.5255 56.3614C94.5255 56.3614 92.2093 57.4221 91.1978 58.2575C91.0039 58.1321 92.7135 56.2534 94.4412 55.8199L94.441 55.8192Z" fill="#3F3235"/>
<path d="M104.813 51.8232C105.301 53.5774 105.363 55.7012 105.619 57.5316C105.619 57.5316 104.264 52.6546 103.488 52.9674C99.949 54.3955 95.3178 49.1403 95.2297 50.5824C95.0378 53.7275 90.4485 57.3725 90.5897 58.4564C90.7309 59.5403 91.6319 62.3532 91.6319 62.3532C90.5207 60.2502 89.4422 58.101 88.9441 56.4834C88.4362 54.8312 89.0717 52.971 90.1503 51.7216C93.0717 48.3356 97.1796 47.8965 100.047 48.1027C102.037 48.2443 104.25 49.7992 104.814 51.8215L104.813 51.8232Z" fill="#3F3235"/>
<path d="M94.9503 60.0575C94.7214 60.1326 94.474 60.0076 94.3996 59.7808L94.1011 58.8699C94.0266 58.6424 94.153 58.3957 94.3812 58.3209C94.6101 58.2459 94.8576 58.3708 94.9319 58.5977L95.2304 59.5085C95.3049 59.736 95.1785 59.9828 94.9503 60.0575Z" fill="#2A1A10"/>
<path d="M101.063 58.0556C100.834 58.1306 100.587 58.0057 100.512 57.7788L100.214 56.868C100.139 56.6405 100.266 56.3937 100.494 56.319C100.723 56.2439 100.97 56.3689 101.045 56.5957L101.343 57.5066C101.418 57.7341 101.291 57.9808 101.063 58.0556Z" fill="#2A1A10"/>
<path fill-rule="evenodd" clip-rule="evenodd" d="M98.2223 59.5311C98.2322 59.4944 98.2283 59.4542 98.2084 59.4185C98.1677 59.3455 98.075 59.3194 98.0015 59.3602C97.9522 59.3876 97.9345 59.4311 97.9294 59.4449C97.9227 59.4631 97.9203 59.4793 97.9192 59.4886C97.917 59.5079 97.9173 59.5274 97.918 59.5422C97.9195 59.5737 97.924 59.6129 97.9296 59.6539C97.9409 59.7371 97.9593 59.845 97.9773 59.95C97.978 59.9542 97.9787 59.9583 97.9794 59.9625C97.9969 60.0647 98.0139 60.1636 98.0248 60.2402C98.0292 60.2712 98.0324 60.2965 98.0342 60.3158C97.9521 60.432 97.8969 60.5804 97.8722 60.7313C97.8443 60.9021 97.8529 61.0916 97.9198 61.2596C97.9882 61.4313 98.1182 61.5802 98.3238 61.6523C98.5248 61.7229 98.7781 61.7129 99.084 61.6127C99.1639 61.5865 99.2076 61.5008 99.1816 61.4214C99.1555 61.3419 99.0696 61.2987 98.9897 61.3249C98.7216 61.4128 98.5418 61.4072 98.4259 61.3665C98.3145 61.3275 98.2437 61.2496 98.2029 61.1471C98.1606 61.0409 98.1515 60.9089 98.1727 60.7789C98.1941 60.6482 98.2437 60.5351 98.3017 60.4651L98.3017 60.4651L98.302 60.4647C98.3257 60.4359 98.333 60.4061 98.3353 60.3959C98.3384 60.382 98.3395 60.3696 98.34 60.3611C98.341 60.3437 98.3403 60.3257 98.3393 60.3102C98.3371 60.2783 98.3323 60.2387 98.3262 60.1966C98.3147 60.1156 98.2971 60.013 98.2799 59.9128C98.2791 59.9079 98.2782 59.9029 98.2774 59.8981C98.2592 59.7916 98.2418 59.6891 98.2312 59.6121C98.2263 59.5758 98.2234 59.5487 98.2223 59.5311Z" fill="#E6AB9B"/>
<path fill-rule="evenodd" clip-rule="evenodd" d="M102.111 61.444C102.188 61.4774 102.223 61.5666 102.189 61.6434L102.118 61.8055C101.79 62.5453 101.194 63.1352 100.449 63.4563L98.222 64.4174C98.1448 64.4507 98.0552 64.4155 98.022 64.3388C97.9888 64.2621 98.0245 64.1728 98.1017 64.1395L100.329 63.1784C101.003 62.8878 101.543 62.3538 101.839 61.6843C101.839 61.6843 101.839 61.6843 101.839 61.6843L101.911 61.5224C101.944 61.4457 102.034 61.4106 102.111 61.444Z" fill="#E6AB9B"/>
<path d="M89.9351 105.535C89.962 105.589 89.9637 105.636 89.9379 105.673C89.7644 105.926 82.8454 108.002 81.2662 108.167C79.4742 108.354 71.7336 108.91 71.7336 108.91C71.7336 108.91 67.6496 105.122 67.6383 106.207C67.5544 114.482 76.3534 113.311 76.3534 113.311C76.3534 113.311 84.1338 112.697 86.8846 112.615C89.6356 112.533 97.3929 114.199 97.0491 107.246C94.3014 105.504 92.7919 107.095 89.9344 105.535L89.9351 105.535Z" fill="#F6D4C6"/>
<path d="M89.592 77.3166C89.592 77.3166 87.4066 78.831 86.527 81.1313C85.6481 83.4314 87.7324 89.1136 87.9758 90.1092C88.2191 91.104 88.4522 98.2192 88.9794 100.183C89.4292 101.858 89.7681 102.974 89.6735 103.316C90.7903 106.364 88.3703 113.043 93.0445 112.431C94.6238 112.222 96.158 111.086 96.6519 109.62C97.4224 107.333 97.2998 99.0512 96.9419 96.4575C96.5842 93.8646 96.3307 89.4737 96.3307 89.4737C96.3307 89.4737 93.057 78.028 89.5918 77.316L89.592 77.3166Z" fill="#F6D4C6"/>
<path d="M113.692 47.9143C113.25 45.0827 110.585 43.152 107.738 43.6017C104.891 44.0515 102.942 46.7115 103.383 49.543C103.825 52.3745 106.491 54.3053 109.338 53.8555C112.185 53.4058 114.134 50.7458 113.692 47.9143Z" fill="#3F3235"/>
<path d="M102.889 117.62C102.889 117.62 114.104 117.397 129.069 109.041C129.069 109.041 135.78 114.166 143.835 132.394L127.534 137.736L123.043 129.145L121.197 129.782L123.076 139.197L106.36 144.675C106.36 144.675 101.28 127.582 102.89 117.62L102.889 117.62Z" fill="#E77F39"/>
<path d="M102.841 104.808C102.546 104.33 99.2529 100.373 96.985 96.332L119.345 88.1129C119.345 88.1129 119.255 88.8742 119.345 89.5612L119.509 89.5612C120.585 96.332 120.527 97.9512 120.862 99.0976C121.336 100.726 125.934 105.04 129.072 109.042L102.891 117.62C103.122 112.489 104.114 106.876 102.841 104.808Z" fill="#E77F39"/>
<g filter="url(#filter1_i_2691_45650)">
<path d="M116.591 79.1351C117.417 81.0328 118.654 82.6847 119.345 88.1137C119.403 88.5682 119.457 89.0506 119.506 89.56C119.506 89.56 110.771 95.9288 97.3444 96.8226C97.3444 96.8226 97.207 96.6423 96.9826 96.3305C96.8018 96.0792 96.5645 95.7442 96.2961 95.3482C95.2152 93.7608 93.632 91.2182 93.2293 89.4137C92.6024 86.6043 92.6773 80.6088 88.7564 78.0237L88.757 78.0235L88.7564 78.0215C89.5307 77.229 90.5347 76.5049 91.7499 75.6517C91.7499 75.6517 96.6801 82.3607 100.174 81.6529C103.67 80.9453 106.557 79.7441 106.557 79.7441C106.557 79.7441 110.58 78.5734 111.19 75.3595C111.642 72.9771 111.407 69.9257 111.385 69.6535C112.652 69.7549 114.004 69.9454 115.281 70.3725C115.189 71.5314 115.204 75.9522 116.592 79.1349L116.591 79.1351Z" fill="#E77F39"/>
</g>
<path d="M102.916 117.084C102.916 117.084 102.409 120.507 102.605 120.508C102.8 120.508 122.187 118.37 130.195 110.364L128.377 108.179C128.377 108.179 119.879 115.731 102.916 117.084L102.916 117.084Z" fill="#D96523"/>
<path d="M114.787 107.076C114.902 107.427 114.834 107.765 114.635 107.83C114.436 107.896 114.181 107.664 114.065 107.312C113.95 106.961 114.019 106.623 114.218 106.558C114.417 106.492 114.672 106.724 114.787 107.076Z" fill="#E0AB9C"/>
<path d="M78.2938 110.928C83.0721 110.459 86.7928 108.522 86.6043 106.603C86.4158 104.683 82.3894 103.507 77.6112 103.977C72.833 104.446 69.1123 106.382 69.3008 108.302C69.4893 110.221 73.5156 111.397 78.2938 110.928Z" fill="#D6EEEE"/>
<path d="M94.7137 91.2705C94.2702 86.7535 76.1618 89.2083 76.1618 89.2083C76.1598 89.2085 58.1085 90.3036 58.5521 94.8215C58.9958 99.3395 62.9635 111.019 78.2443 109.525C78.2443 109.525 78.2482 109.525 78.2502 109.525C78.2521 109.525 78.2541 109.524 78.256 109.524C93.5365 108.017 95.1554 95.7887 94.7118 91.2707L94.7137 91.2705Z" fill="white"/>
<path d="M77.2568 99.3925C87.2425 98.4119 95.0557 94.747 94.7081 91.2068C94.3604 87.6665 85.9836 85.5915 75.9978 86.5721C66.012 87.5527 58.1988 91.2176 58.5465 94.7578C58.8941 98.2981 67.271 100.373 77.2568 99.3925Z" fill="#D6EEEE"/>
<path opacity="0.45" d="M94.7105 91.2493C94.9944 94.7769 87.2032 98.4181 77.2562 99.3948C67.3093 100.372 58.9586 98.3157 58.5509 94.8002C58.5516 94.808 58.5524 94.8158 58.5532 94.8236C58.6042 95.3433 58.483 96.0486 58.858 96.6351C61.3751 100.575 69.3886 103.168 84.5212 99.72C86.6009 99.2465 88.0922 101.671 86.7265 103.304C83.409 107.268 71.8416 110.435 64.837 106.294C67.8278 108.612 72.1305 110.124 78.2462 109.526C78.2462 109.526 78.2501 109.526 78.2521 109.526C78.2541 109.526 78.256 109.525 78.258 109.525C93.5384 108.018 95.1574 95.7896 94.7137 91.2716C94.7129 91.2638 94.7122 91.256 94.7114 91.2482L94.7105 91.2493Z" fill="#D6EEEE"/>
<path d="M75.1198 93.3604C76.5339 92.8172 77.6336 92.2555 76.1938 88.5356C74.7541 84.8166 70.6794 77.6954 69.2653 78.2386C67.8512 78.7818 69.6323 86.7852 71.072 90.5041C72.5117 94.2231 73.7057 93.9036 75.1198 93.3604Z" fill="#F47920"/>
<path d="M79.7576 90.6303C82.436 90.3672 84.395 87.993 84.1332 85.3273C83.8715 82.6616 81.488 80.7139 78.8096 80.9769C76.1312 81.2399 74.1722 83.6141 74.4339 86.2798C74.6957 88.9455 77.0792 90.8933 79.7576 90.6303Z" fill="#E82855"/>
<path d="M82.3135 78.8362C81.0136 80.5221 78.8127 81.0144 78.8127 81.0144C78.8127 81.0144 78.7204 78.7718 80.0203 77.0858C81.3202 75.3998 83.5212 74.9075 83.5212 74.9075C83.5212 74.9075 83.6134 77.1502 82.3135 78.8362Z" fill="#64AA3E"/>
<path d="M75.0325 98.8041C76.4442 97.6614 76.6583 95.5978 75.5114 94.1935C75.3885 94.0438 75.2561 93.9079 75.114 93.7848C75.9987 92.609 76.0059 90.9445 75.0337 89.7538C74.3829 88.9567 73.4326 88.544 72.4753 88.5453C72.3821 88.0111 72.1546 87.4929 71.787 87.0428C70.6401 85.6395 68.5665 85.4279 67.1556 86.5695C67.1546 86.5696 67.1538 86.5716 67.1519 86.5718C65.9867 85.2847 63.9981 85.121 62.6305 86.2278C61.2803 87.321 61.0259 89.2574 62.0102 90.652C60.7374 91.8156 60.579 93.779 61.6831 95.1313C62.0508 95.5814 62.5145 95.9087 63.0203 96.1086C62.8498 96.9183 62.9875 97.7855 63.4528 98.5219C66.065 99.2981 69.5485 99.7016 73.4526 99.619C73.4742 99.5765 73.4948 99.534 73.5144 99.4907C74.053 99.3983 74.5764 99.1714 75.0314 98.8032L75.0325 98.8041Z" fill="#7DBB30"/>
<path d="M64.3591 88.1777C64.2507 88.2653 66.4291 91.1108 69.2248 94.5329C70.9807 96.6822 72.563 98.5487 73.5231 99.6172C73.636 99.615 73.7498 99.6117 73.8646 99.6084C73.0363 98.4785 71.4612 96.4732 69.6174 94.2162C66.8217 90.7942 64.4677 88.0911 64.3602 88.1786L64.3591 88.1777Z" fill="#A7E252"/>
<path d="M81.0435 89.5398C80.9753 89.6431 80.9147 89.7536 80.8638 89.8721C80.3856 90.9734 80.895 92.2509 82.0003 92.7252C82.3244 92.864 82.6632 92.9185 82.9926 92.899C83.2123 93.1861 83.5063 93.4216 83.8627 93.575C84.9689 94.0492 86.2525 93.5415 86.7309 92.4412C86.7818 92.3237 86.8217 92.2044 86.8505 92.0832C87.8144 92.2401 88.7995 91.7331 89.2049 90.7997C89.4759 90.1744 89.4298 89.4925 89.1357 88.9335C89.4229 88.715 89.6591 88.4235 89.812 88.0702C90.2902 86.9689 89.7808 85.6914 88.6755 85.217C88.6755 85.217 88.6736 85.2172 88.6725 85.2163C89.0758 84.1401 88.5647 82.9269 87.4937 82.4669C86.436 82.0126 85.2147 82.458 84.6922 83.462C83.6164 83.0745 82.4084 83.5847 81.9489 84.6447C81.7951 84.9981 81.7442 85.369 81.7813 85.7264C81.1701 85.8978 80.6392 86.3317 80.3682 86.9569C79.9628 87.8903 80.2674 88.9512 81.0437 89.5417L81.0435 89.5398Z" fill="#88C45A"/>
<path d="M84.9143 89.0014C86.0794 86.3167 86.9552 84.1112 86.8703 84.0752C86.7854 84.0391 85.7718 86.1852 84.6067 88.8699C83.4416 91.5545 82.5658 93.7601 82.6507 93.7961C82.7356 93.8322 83.7492 91.6861 84.9143 89.0014Z" fill="#A7E252"/>
<path d="M89.1739 87.8356C85.8319 85.3371 81.0839 86.0095 78.5702 89.3384L88.5864 96.827C89.9576 96.2811 91.1445 95.6773 92.1019 95.0399C92.5257 92.3737 91.4923 89.5696 89.1739 87.8356Z" fill="#FFD550"/>
<path d="M88.1391 89.207C85.5564 87.276 81.8887 87.796 79.9467 90.3686L88.5869 96.8284C89.0711 96.6359 89.5316 96.4358 89.9678 96.2293C91.0561 93.8037 90.3621 90.8686 88.1391 89.207Z" fill="#FFB452"/>
<path d="M86.9282 91.6393C87.4234 90.9831 87.4251 90.1525 87.4251 90.1525C87.4251 90.1525 86.6235 90.385 86.1283 91.0412C85.6332 91.6974 85.6314 92.528 85.6314 92.528C85.6314 92.528 86.4331 92.2954 86.9282 91.6393Z" fill="white"/>
<path d="M84.3357 90.6018C84.4353 89.7872 85.0134 89.187 85.0134 89.187C85.0134 89.187 85.4293 89.9066 85.3297 90.7212C85.2301 91.5358 84.6521 92.136 84.6521 92.136C84.6521 92.136 84.2361 91.4164 84.3357 90.6018Z" fill="white"/>
<path d="M82.5637 91.1154C82.2406 90.3611 82.4401 89.5534 82.4401 89.5534C82.4401 89.5534 83.1626 89.9697 83.4857 90.7241C83.8088 91.4784 83.6093 92.286 83.6093 92.286C83.6093 92.286 82.8868 91.8698 82.5637 91.1154Z" fill="white"/>
<path d="M87.8478 95.064C88.6661 95.1621 89.3893 94.7469 89.3893 94.7469C89.3893 94.7469 88.7871 94.1719 87.9688 94.0737C87.1506 93.9755 86.4274 94.3908 86.4274 94.3908C86.4274 94.3908 87.0295 94.9658 87.8478 95.064Z" fill="white"/>
<path d="M87.8501 93.2286C88.6082 92.9066 89.0267 92.1869 89.0267 92.1869C89.0267 92.1869 88.2155 91.9894 87.4574 92.3115C86.6992 92.6335 86.2807 93.3531 86.2807 93.3531C86.2807 93.3531 87.0919 93.5506 87.8501 93.2286Z" fill="white"/>
<path d="M80.5874 97.1223C82.8996 95.6012 83.537 92.5038 82.0104 90.2038C80.4848 87.9037 75.2278 84.0399 72.9156 85.5609C70.6033 87.082 72.112 93.4127 73.6376 95.7119C75.1632 98.012 78.2751 98.6424 80.5873 97.1213L80.5874 97.1223Z" fill="#9ACE7C"/>
<path d="M78.0069 96.0104C79.8158 95.8328 81.1389 94.2293 80.9621 92.429C80.7853 90.6287 79.1756 89.3132 77.3667 89.4909C75.5577 89.6685 74.2346 91.272 74.4114 93.0723C74.5882 94.8726 76.198 96.1881 78.0069 96.0104Z" fill="#7E543A"/>
<path d="M88.1977 96.0526C88.6759 94.9513 88.1665 93.6738 87.0613 93.1994C87.0613 93.1994 87.0593 93.1996 87.0582 93.1988C87.4615 92.1226 86.9505 90.9093 85.8794 90.4494C84.8218 89.995 83.6005 90.4404 83.078 91.4444C82.0021 91.057 80.7941 91.5671 80.3346 92.6271C80.1808 92.9805 80.1299 93.3514 80.167 93.7088C79.5558 93.8803 79.0249 94.3141 78.7539 94.9394C78.3485 95.8727 78.6531 96.9337 79.4294 97.5242C79.3612 97.6275 79.3006 97.738 79.2498 97.8564C79.0621 98.2901 79.027 98.7502 79.1207 99.1789C82.3044 98.7528 85.2145 98.0558 87.6393 97.1864C87.6055 97.0941 87.5669 97.0042 87.5216 96.9169C87.8087 96.6984 88.045 96.4069 88.1978 96.0536L88.1977 96.0526Z" fill="#88C45A"/>
<path d="M85.2558 92.0584C85.1709 92.0224 84.1573 94.1684 82.9922 96.8531C82.7155 97.4908 82.4549 98.1012 82.2203 98.6618C82.3458 98.6367 82.4702 98.6106 82.5947 98.5846C82.8185 98.0853 83.0553 97.5462 83.2998 96.9847C84.4649 94.3 85.3407 92.0945 85.2558 92.0584Z" fill="#A7E252"/>
<path d="M81.8169 98.7405C81.8173 98.3607 81.718 97.976 81.5091 97.6266C81.159 97.0426 80.5759 96.6817 79.9479 96.5914C79.9384 96.2324 79.8385 95.8714 79.6403 95.5407C79.0233 94.5114 77.6837 94.1765 76.6498 94.7919C76.6498 94.7919 76.6478 94.792 76.6469 94.7931C76.0065 93.8382 74.7183 93.5425 73.7163 94.139C72.7263 94.7274 72.3744 95.9731 72.8861 96.9811C72.0211 97.5691 71.704 98.6842 72.1112 99.6285C73.7684 99.6413 75.516 99.5634 77.3153 99.3867C78.8768 99.2334 80.3852 99.0142 81.8179 98.7404L81.8169 98.7405Z" fill="#C7EDA6"/>
<path d="M74.6624 95.5801C74.5912 95.6226 75.5097 97.287 76.7822 99.4344C76.9032 99.4235 77.0251 99.4126 77.1471 99.4016C75.8137 97.1999 74.7346 95.5375 74.6614 95.5802L74.6624 95.5801Z" fill="#A7E252"/>
</g>
<rect x="46.8836" y="57.845" width="66.4512" height="54.426" transform="rotate(-17.7403 46.8836 57.845)" stroke="white" stroke-width="2"/>
</g>
<path d="M42.6312 135.32H41.1937V121.32H42.6312V135.32ZM41.6078 128.164H38.9906V126.922H41.6078V128.164ZM39.4125 134.617H38.0219V121.609H39.4125V134.617ZM32.7797 131.055H31.3031V122.984H32.7797V131.055ZM32.1937 130.469C33.0271 130.469 33.837 130.435 34.6234 130.367C35.4099 130.299 36.2224 130.185 37.0609 130.023L37.2406 131.328C36.3292 131.484 35.4646 131.599 34.6469 131.672C33.8292 131.74 33.0115 131.773 32.1937 131.773H31.3031V130.469H32.1937ZM59.6453 131.648H58.1609V121.336H59.6453V131.648ZM58.4187 126.797H55.2625V125.562H58.4187V126.797ZM55.3484 122.391C55.3484 123.589 55.0828 124.693 54.5516 125.703C54.0255 126.708 53.2729 127.583 52.2937 128.328C51.3198 129.068 50.1583 129.656 48.8094 130.094L48.1766 128.906C49.3172 128.536 50.3042 128.062 51.1375 127.484C51.976 126.901 52.6219 126.229 53.075 125.469C53.5333 124.703 53.7625 123.888 53.7625 123.023V122.391H55.3484ZM54.7234 123.625H48.8953V122.391H54.7234V123.625ZM60.0047 135.047H50.6219V133.82H60.0047V135.047ZM52.1297 134.461H50.6219V130.594H52.1297V134.461ZM72.6016 129.641H71.125V121.32H72.6016V129.641ZM74.6406 126.078H72.1875V124.859H74.6406V126.078ZM68.7656 122.32C68.7656 123.508 68.5026 124.591 67.9766 125.57C67.4557 126.549 66.7031 127.393 65.7187 128.102C64.7396 128.805 63.5651 129.354 62.1953 129.75L61.5781 128.547C62.75 128.214 63.7552 127.773 64.5937 127.227C65.4375 126.68 66.0807 126.049 66.5234 125.336C66.9661 124.622 67.1875 123.854 67.1875 123.031V122.32H68.7656ZM68.0547 123.531H62.2109V122.32H68.0547V123.531ZM68.125 129.797C69.0625 129.797 69.8802 129.909 70.5781 130.133C71.2812 130.352 71.8203 130.667 72.1953 131.078C72.5703 131.49 72.7578 131.979 72.7578 132.547C72.7578 133.109 72.5703 133.599 72.1953 134.016C71.8203 134.432 71.2812 134.75 70.5781 134.969C69.8802 135.193 69.0625 135.305 68.125 135.305C67.1979 135.305 66.3828 135.193 65.6797 134.969C64.9818 134.75 64.4427 134.432 64.0625 134.016C63.6823 133.599 63.4922 133.109 63.4922 132.547C63.4922 131.979 63.6823 131.49 64.0625 131.078C64.4427 130.667 64.9818 130.352 65.6797 130.133C66.3828 129.909 67.1979 129.797 68.125 129.797ZM68.125 130.969C67.4844 130.964 66.9245 131.023 66.4453 131.148C65.9661 131.273 65.599 131.456 65.3437 131.695C65.0885 131.935 64.9609 132.219 64.9609 132.547C64.9609 132.87 65.0885 133.151 65.3437 133.391C65.599 133.625 65.9661 133.807 66.4453 133.938C66.9245 134.068 67.4844 134.133 68.125 134.133C68.776 134.133 69.3385 134.068 69.8125 133.938C70.2917 133.807 70.6615 133.625 70.9219 133.391C71.1823 133.151 71.3125 132.87 71.3125 132.547C71.3125 132.219 71.1823 131.935 70.9219 131.695C70.6615 131.456 70.2917 131.273 69.8125 131.148C69.3385 131.023 68.776 130.964 68.125 130.969ZM83.5219 125.453C83.5219 126.443 83.35 127.422 83.0062 128.391C82.6677 129.354 82.1964 130.211 81.5922 130.961C80.988 131.711 80.3109 132.273 79.5609 132.648L78.6703 131.484C79.3682 131.146 79.9958 130.654 80.5531 130.008C81.1104 129.357 81.5479 128.633 81.8656 127.836C82.1885 127.034 82.35 126.24 82.35 125.453V123.375H83.5219V125.453ZM83.8187 125.453C83.8187 126.193 83.9672 126.938 84.2641 127.688C84.5661 128.432 84.988 129.112 85.5297 129.727C86.0766 130.341 86.6964 130.81 87.3891 131.133L86.5531 132.297C85.7927 131.938 85.1156 131.401 84.5219 130.688C83.9281 129.969 83.4646 129.154 83.1312 128.242C82.8031 127.326 82.6391 126.396 82.6391 125.453V123.375H83.8187V125.453ZM86.8578 123.961H79.1937V122.742H86.8578V123.961ZM89.8422 135.32H88.3656V121.32H89.8422V135.32ZM92.1 128.133H89.5062V126.883H92.1V128.133ZM103.564 129.766H102.087V121.336H103.564V129.766ZM105.619 126H103.103V124.766H105.619V126ZM94.2672 127.812C95.6786 127.812 96.8687 127.784 97.8375 127.727C98.8115 127.664 99.8036 127.544 100.814 127.367L100.97 128.586C99.9495 128.763 98.9391 128.883 97.9391 128.945C96.9443 129.008 95.7203 129.039 94.2672 129.039H93.15V127.812H94.2672ZM99.5016 126.102H94.6187V128.602H93.15V124.961H98.0562V123.391H93.1266V122.188H99.5016V126.102ZM99.0328 130.141C99.9859 130.141 100.811 130.245 101.509 130.453C102.207 130.656 102.744 130.953 103.119 131.344C103.499 131.734 103.689 132.201 103.689 132.742C103.689 133.273 103.502 133.729 103.127 134.109C102.757 134.495 102.223 134.789 101.525 134.992C100.827 135.195 99.9964 135.297 99.0328 135.297C98.0589 135.297 97.2203 135.195 96.5172 134.992C95.8193 134.789 95.2802 134.495 94.9 134.109C94.525 133.729 94.3375 133.273 94.3375 132.742C94.3375 132.201 94.525 131.734 94.9 131.344C95.2802 130.953 95.8219 130.656 96.525 130.453C97.2333 130.245 98.0693 130.141 99.0328 130.141ZM99.0328 131.305C98.3557 131.305 97.7724 131.362 97.2828 131.477C96.7984 131.586 96.4286 131.75 96.1734 131.969C95.9182 132.182 95.7906 132.44 95.7906 132.742C95.7906 133.034 95.9182 133.289 96.1734 133.508C96.4286 133.721 96.7984 133.885 97.2828 134C97.7724 134.109 98.3557 134.164 99.0328 134.164C99.7099 134.164 100.288 134.109 100.767 134C101.246 133.885 101.611 133.724 101.861 133.516C102.116 133.302 102.244 133.044 102.244 132.742C102.244 132.44 102.116 132.182 101.861 131.969C101.611 131.75 101.244 131.586 100.759 131.477C100.28 131.362 99.7047 131.305 99.0328 131.305Z" fill="#785E00"/>
<defs>
<filter id="filter0_d_2691_45650" x="19.3374" y="23" width="91.2612" height="83.8906" filterUnits="userSpaceOnUse" color-interpolation-filters="sRGB">
<feFlood flood-opacity="0" result="BackgroundImageFix"/>
<feColorMatrix in="SourceAlpha" type="matrix" values="0 0 0 0 0 0 0 0 0 0 0 0 0 0 0 0 0 0 127 0" result="hardAlpha"/>
<feOffset dx="1" dy="4"/>
<feGaussianBlur stdDeviation="2"/>
<feComposite in2="hardAlpha" operator="out"/>
<feColorMatrix type="matrix" values="0 0 0 0 0.956863 0 0 0 0 0.827451 0 0 0 0 0.352941 0 0 0 0.3 0"/>
<feBlend mode="multiply" in2="BackgroundImageFix" result="effect1_dropShadow_2691_45650"/>
<feBlend mode="normal" in="SourceGraphic" in2="effect1_dropShadow_2691_45650" result="shape"/>
</filter>
<filter id="filter1_i_2691_45650" x="88.7563" y="69.6543" width="30.75" height="27.168" filterUnits="userSpaceOnUse" color-interpolation-filters="sRGB">
<feFlood flood-opacity="0" result="BackgroundImageFix"/>
<feBlend mode="normal" in="SourceGraphic" in2="BackgroundImageFix" result="shape"/>
<feColorMatrix in="SourceAlpha" type="matrix" values="0 0 0 0 0 0 0 0 0 0 0 0 0 0 0 0 0 0 127 0" result="hardAlpha"/>
<feOffset/>
<feGaussianBlur stdDeviation="2"/>
<feComposite in2="hardAlpha" operator="arithmetic" k2="-1" k3="1"/>
<feColorMatrix type="matrix" values="0 0 0 0 0.888509 0 0 0 0 0.357446 0 0 0 0 0 0 0 0 0.4 0"/>
<feBlend mode="multiply" in2="shape" result="effect1_innerShadow_2691_45650"/>
</filter>
<clipPath id="clip0_2691_45650">
<rect width="123.829" height="137.002" fill="white" transform="translate(6.00049 30.9961)"/>
</clipPath>
<clipPath id="clip1_2691_45650">
<rect width="76.8047" height="105.961" fill="white" transform="translate(44.1265 53.5625) rotate(-18.1444)"/>
</clipPath>
</defs>
</svg>
