<svg width="33" height="32" viewBox="0 0 33 32" fill="none" xmlns="http://www.w3.org/2000/svg">
<rect width="32" height="32" transform="translate(0.103027)" fill="white"/>
<path d="M6.72705 9.11983C6.72705 7.69451 7.8825 6.53906 9.30782 6.53906H21.3513C22.7766 6.53906 23.9321 7.69451 23.9321 9.11983V22.8841C23.9321 24.3094 22.7766 25.4648 21.3513 25.4648H9.30782C7.8825 25.4648 6.72705 24.3094 6.72705 22.8841V9.11983Z" fill="#D08CE9"/>
<path fill-rule="evenodd" clip-rule="evenodd" d="M26.1188 14.2334C26.4547 14.5694 26.4547 15.1141 26.1188 15.45L20.5888 20.98C20.4782 21.0907 20.3394 21.1691 20.1875 21.2067L18.0796 21.7292C17.7652 21.8071 17.4807 21.5226 17.5586 21.2082L18.0811 19.1003C18.1187 18.9483 18.1971 18.8096 18.3078 18.6989L23.8377 13.1689C24.1736 12.833 24.7183 12.833 25.0543 13.1689L26.1188 14.2334Z" fill="#6E37A6"/>
<path d="M12.5884 16.8331C11.5943 16.5008 9.36401 15.1027 9.36401 12.7329C9.36401 11.6859 10.2179 10.8395 11.2757 10.8395C11.9002 10.8395 12.4545 11.1341 12.805 11.5981C13.1491 11.1404 13.7099 10.8395 14.3344 10.8395C15.3921 10.8395 16.246 11.6859 16.246 12.7329C16.246 15.1027 14.0157 16.5008 13.0153 16.8331C12.9006 16.8707 12.7031 16.8707 12.5884 16.8331Z" fill="white"/>
<rect x="9.36401" y="19.4421" width="6.88201" height="2.15066" rx="0.860257" fill="white"/>
</svg>
