<svg width="81" height="80" viewBox="0 0 81 80" fill="none" xmlns="http://www.w3.org/2000/svg">
<circle cx="40.5" cy="40" r="40" fill="#FFF9EA"/>
<path fill-rule="evenodd" clip-rule="evenodd" d="M64.5 28C71.4036 28 77 22.4036 77 15.5C77 8.59644 71.4036 3 64.5 3C57.5964 3 52 8.59644 52 15.5C52 18.334 52.9431 20.9477 54.5326 23.0444C54.515 23.099 54.5017 23.1562 54.4931 23.216L54.015 26.5693C53.9064 27.3314 54.6635 27.9254 55.3778 27.6384L58.4117 26.4197C60.2133 27.4263 62.2896 28 64.5 28Z" fill="#3B4A65"/>
<path d="M63.7693 9.9645C63.8476 9.23556 64.5265 8.72519 65.2485 8.85251L66.3216 9.04172C67.0436 9.16903 67.507 9.88085 67.3313 10.5926L65.6885 17.2484C65.5289 17.8954 64.8952 18.308 64.2389 18.1922L64.0761 18.1635C63.4199 18.0478 62.9655 17.4434 63.0367 16.7808L63.7693 9.9645Z" fill="white"/>
<rect width="2.53314" height="2.53328" rx="1.26657" transform="matrix(0.984806 0.173658 -0.173638 0.98481 62.7188 19.0391)" fill="white"/>
<mask id="mask0_2035_142945" style="mask-type:alpha" maskUnits="userSpaceOnUse" x="19" y="16" width="34" height="45">
<path d="M52.5 44.125C52.5 55.1707 45.1136 61 36.0009 61C26.8882 61 19.5 55.1707 19.5 44.125C19.5 33.0793 36.0009 16 36.0009 16C36.0009 16 52.5 33.0793 52.5 44.125Z" fill="#FFAEAE"/>
</mask>
<g mask="url(#mask0_2035_142945)">
<path d="M52.5 44.125C52.5 55.1707 45.1136 61 36.0009 61C26.8882 61 19.5 55.1707 19.5 44.125C19.5 33.0793 36.0009 16 36.0009 16C36.0009 16 52.5 33.0793 52.5 44.125Z" fill="#FFAEAE"/>
<path d="M34.1158 56.3261C31.2302 55.5789 27.5029 57.2602 26 58.1943V61H48.544C49.1451 58.8205 49.6261 54.8344 46.7404 56.3261C43.1334 58.1908 37.7229 57.2602 34.1158 56.3261Z" fill="#F35454"/>
</g>
<rect x="37.2461" y="40" width="24" height="24" rx="12" fill="white"/>
<path fill-rule="evenodd" clip-rule="evenodd" d="M49.2444 45.9983C48.771 45.9983 48.3873 45.6146 48.3873 45.1412V41.7126C48.3873 41.2392 48.771 40.8555 49.2444 40.8555C49.7178 40.8555 50.1016 41.2392 50.1016 41.7126V45.1412C50.1016 45.6146 49.7178 45.9983 49.2444 45.9983ZM38.9587 51.1412C38.4853 51.1412 38.1016 51.5249 38.1016 51.9983C38.1016 52.4717 38.4853 52.8555 38.9587 52.8555H42.3873C42.8607 52.8555 43.2444 52.4717 43.2444 51.9983C43.2444 51.5249 42.8607 51.1412 42.3873 51.1412H38.9587ZM56.1016 51.1412C55.6282 51.1412 55.2444 51.5249 55.2444 51.9983C55.2444 52.4717 55.6282 52.8555 56.1016 52.8555H59.5301C60.0035 52.8555 60.3873 52.4717 60.3873 51.9983C60.3873 51.5249 60.0035 51.1412 59.5301 51.1412H56.1016ZM48.3873 62.284C48.3873 62.7574 48.771 63.1412 49.2444 63.1412C49.7178 63.1412 50.1016 62.7574 50.1016 62.284V58.8555C50.1016 58.3821 49.7178 57.9983 49.2444 57.9983C48.771 57.9983 48.3873 58.3821 48.3873 58.8555V62.284Z" fill="#DBE5ED"/>
<rect x="38.2461" y="41" width="22" height="22" rx="11" stroke="#516F94" stroke-width="2"/>
<path d="M48.1638 50.7066L54.1622 47.1075L50.5631 53.1059C50.3348 53.4864 49.9237 53.7192 49.48 53.7192H48.8136C48.116 53.7192 47.5505 53.1537 47.5505 52.456L47.5505 51.7897C47.5505 51.346 47.7833 50.9348 48.1638 50.7066Z" fill="#3B4A65"/>
</svg>
