<svg width="136" height="168" viewBox="0 0 136 168" fill="none" xmlns="http://www.w3.org/2000/svg">
<rect width="136" height="168" rx="20" fill="#F3F3F3"/>
<rect x="35.708" y="43.9062" width="68.961" height="51.6096" rx="1.93548" fill="#3B374C"/>
<path d="M38.3774 42.793C38.3774 41.6884 39.2729 40.793 40.3774 40.793H64.0537C64.1379 40.793 64.2207 40.8149 64.2938 40.8567L70.1617 44.2098C70.3154 44.2976 70.5047 44.2946 70.6554 44.2018L76.0781 40.8647C76.1544 40.8178 76.2422 40.793 76.3317 40.793H101.961C102.228 40.793 102.444 41.0096 102.444 41.2768V92.8085C102.444 93.0757 102.228 93.2923 101.961 93.2923H40.3774C39.2729 93.2923 38.3774 92.3969 38.3774 91.2923V42.793Z" fill="#909090"/>
<rect x="67.7417" y="91.0684" width="5.33892" height="4.4491" rx="2.22455" fill="#909090"/>
<path fill-rule="evenodd" clip-rule="evenodd" d="M70.4112 88.8438H67.7417V90.6321C69.1614 90.7401 70.2946 91.8732 70.4027 93.2928H70.4112V88.8438Z" fill="#DEDEDE"/>
<path d="M43.2715 38.6983C43.2715 37.4646 44.3776 36.5251 45.595 36.7247L67.5718 40.3274C69.2091 40.5958 70.411 42.0107 70.411 43.6699V91.0677L44.9479 86.8934C43.9811 86.7349 43.2715 85.8994 43.2715 84.9197V38.6983Z" fill="#DEDEDE"/>
<path d="M102.076 40.793C102.279 40.793 102.444 40.9576 102.444 41.1608V90.629H73.0801V90.6315C71.6604 90.7395 70.5272 91.8726 70.4191 93.2923H70.4106V43.0175C70.4106 41.7889 71.4066 40.793 72.6352 40.793H102.076Z" fill="url(#paint0_linear_2691_45616)"/>
<path d="M47.7207 34.4357C47.7207 33.0121 49.1659 32.0443 50.4822 32.5863L68.3136 39.9287C69.5828 40.4513 70.4111 41.6881 70.4111 43.0606V91.0672L50.1977 82.744C48.6989 82.1268 47.7207 80.6662 47.7207 79.0453V34.4357Z" fill="white"/>
<path fill-rule="evenodd" clip-rule="evenodd" d="M88 31C85.7909 31 84 32.7909 84 35V55.5988V55.6316V58.5788C84 59.229 84.7861 59.5546 85.2458 59.0948L88.7091 55.6316H106C108.209 55.6316 110 53.8407 110 51.6316V35C110 32.7909 108.209 31 106 31H88Z" fill="url(#paint1_linear_2691_45616)"/>
<path d="M97.3402 46.9625C96.0021 46.5211 93 44.6637 93 41.5153C93 40.1244 94.1494 39 95.5732 39C96.4138 39 97.1601 39.3915 97.6318 40.0078C98.095 39.3998 98.8498 39 99.6904 39C101.114 39 102.264 40.1244 102.264 41.5153C102.264 44.6637 99.2615 46.5211 97.9149 46.9625C97.7605 47.0125 97.4946 47.0125 97.3402 46.9625Z" fill="white"/>
<path d="M44.4258 131.648H42.9414V121.336H44.4258V131.648ZM43.1992 126.797H40.043V125.562H43.1992V126.797ZM40.1289 122.391C40.1289 123.589 39.8633 124.693 39.332 125.703C38.806 126.708 38.0534 127.583 37.0742 128.328C36.1003 129.068 34.9388 129.656 33.5898 130.094L32.957 128.906C34.0977 128.536 35.0846 128.062 35.918 127.484C36.7565 126.901 37.4023 126.229 37.8555 125.469C38.3138 124.703 38.543 123.888 38.543 123.023V122.391H40.1289ZM39.5039 123.625H33.6758V122.391H39.5039V123.625ZM44.7852 135.047H35.4023V133.82H44.7852V135.047ZM36.9102 134.461H35.4023V130.594H36.9102V134.461ZM57.382 129.641H55.9055V121.32H57.382V129.641ZM59.4211 126.078H56.968V124.859H59.4211V126.078ZM53.5461 122.32C53.5461 123.508 53.2831 124.591 52.757 125.57C52.2362 126.549 51.4836 127.393 50.4992 128.102C49.5201 128.805 48.3456 129.354 46.9758 129.75L46.3586 128.547C47.5305 128.214 48.5357 127.773 49.3742 127.227C50.218 126.68 50.8612 126.049 51.3039 125.336C51.7466 124.622 51.968 123.854 51.968 123.031V122.32H53.5461ZM52.8352 123.531H46.9914V122.32H52.8352V123.531ZM52.9055 129.797C53.843 129.797 54.6607 129.909 55.3586 130.133C56.0617 130.352 56.6008 130.667 56.9758 131.078C57.3508 131.49 57.5383 131.979 57.5383 132.547C57.5383 133.109 57.3508 133.599 56.9758 134.016C56.6008 134.432 56.0617 134.75 55.3586 134.969C54.6607 135.193 53.843 135.305 52.9055 135.305C51.9784 135.305 51.1633 135.193 50.4602 134.969C49.7622 134.75 49.2232 134.432 48.843 134.016C48.4628 133.599 48.2727 133.109 48.2727 132.547C48.2727 131.979 48.4628 131.49 48.843 131.078C49.2232 130.667 49.7622 130.352 50.4602 130.133C51.1633 129.909 51.9784 129.797 52.9055 129.797ZM52.9055 130.969C52.2648 130.964 51.7049 131.023 51.2258 131.148C50.7466 131.273 50.3794 131.456 50.1242 131.695C49.869 131.935 49.7414 132.219 49.7414 132.547C49.7414 132.87 49.869 133.151 50.1242 133.391C50.3794 133.625 50.7466 133.807 51.2258 133.938C51.7049 134.068 52.2648 134.133 52.9055 134.133C53.5565 134.133 54.119 134.068 54.593 133.938C55.0721 133.807 55.4419 133.625 55.7023 133.391C55.9628 133.151 56.093 132.87 56.093 132.547C56.093 132.219 55.9628 131.935 55.7023 131.695C55.4419 131.456 55.0721 131.273 54.593 131.148C54.119 131.023 53.5565 130.964 52.9055 130.969ZM75.0836 129.977H65.318V128.781H75.0836V129.977ZM76.5289 133.562H63.7164V132.344H76.5289V133.562ZM74.943 123.703H66.8336V129.125H65.318V122.469H74.943V123.703ZM74.6305 126.75H66.3727V125.578H74.6305V126.75ZM78.8836 128.562C79.9721 128.562 80.8888 128.536 81.6336 128.484C82.3836 128.432 83.157 128.331 83.9539 128.18L84.1102 129.375C83.3341 129.521 82.5789 129.622 81.8445 129.68C81.1102 129.732 80.2221 129.758 79.1805 129.758H78.8836H77.9617V128.562H78.8836ZM82.9148 126.586H79.4148V129.125H77.9617V125.484H81.4852V123.609H77.9383V122.438H82.9148V126.586ZM86.0789 126.328H83.4773V125.094H86.0789V126.328ZM89.282 131.859H87.868V121.336H89.282V131.859ZM86.4773 131.492H85.0711V121.586H86.4773V131.492ZM89.6805 135.047H79.993V133.82H89.6805V135.047ZM81.4695 134.648H79.993V130.805H81.4695V134.648ZM102.316 129.188H92.5664V127.977H102.316V129.188ZM103.785 133.484H90.9727V132.25H103.785V133.484ZM102.184 123.797H94.0352V128.5H92.5664V122.586H102.184V123.797Z" fill="#5C5C5C"/>
<defs>
<linearGradient id="paint0_linear_2691_45616" x1="102.83" y1="63.3205" x2="70.1882" y2="63.3205" gradientUnits="userSpaceOnUse">
<stop stop-color="white"/>
<stop offset="0.713542" stop-color="#F1F1F1"/>
<stop offset="0.837287" stop-color="#EDEDED"/>
<stop offset="1" stop-color="#E1E1E1"/>
</linearGradient>
<linearGradient id="paint1_linear_2691_45616" x1="97" y1="31" x2="97" y2="59.31" gradientUnits="userSpaceOnUse">
<stop stop-color="#F57979"/>
<stop offset="1" stop-color="#EF5B5B"/>
</linearGradient>
</defs>
</svg>
