<svg width="81" height="80" viewBox="0 0 81 80" fill="none" xmlns="http://www.w3.org/2000/svg">
<ellipse cx="40.5" cy="40" rx="40" ry="40" fill="#BEE8AA"/>
<path d="M63.0508 55.8239C62.2883 56.7814 61.3583 57.5264 60.3308 58.1214C58.5958 59.1289 56.5833 59.6989 54.6283 60.1239C46.2833 61.9414 37.5958 61.9864 29.2333 60.2564C26.4158 59.6739 23.5083 58.8014 21.0583 57.2714C19.5583 56.3364 18.2283 55.1564 17.1933 53.6439C14.3483 49.4839 14.4483 43.7689 15.7508 38.8138C17.9483 30.4538 23.4358 22.9813 30.8508 19.3463C38.2683 15.7088 47.5233 16.2513 54.1533 21.3163C60.9633 26.5213 64.3083 35.5988 65.2033 44.4639C65.6033 48.4189 65.4658 52.7914 63.0508 55.8264V55.8239Z" fill="#3E3944"/>
<path d="M42.9166 34.2563C46.9866 33.7363 50.7916 30.6263 54.9516 32.5538C56.9416 33.4763 58.0066 35.1038 58.9341 37.0538C60.0566 39.4188 60.7891 41.7563 60.5441 44.4388C60.2216 47.9838 58.3166 51.3388 55.4891 53.3488C52.7916 55.2663 49.4066 56.2063 46.1566 56.5338C41.8116 56.9713 37.6991 56.9663 33.1391 56.0188C30.5741 55.4863 28.1541 54.5738 25.9366 53.1263C21.9841 50.5513 19.7241 45.6613 20.9791 40.9913C22.2341 36.3213 26.6516 32.7788 31.3166 32.7013C35.2316 32.6363 39.0316 34.7513 42.9166 34.2563Z" fill="white"/>
<path d="M45.4638 52.1912C46.5813 51.0662 47.5513 49.7937 48.3388 48.4162C48.7663 47.6687 49.1463 46.7587 48.7888 45.9762C48.3613 45.0437 47.1563 44.8237 46.1338 44.7537C42.1688 44.4837 38.1788 44.6262 34.2313 45.0812C33.4838 45.1662 32.5963 45.3737 32.3513 46.0837C32.1663 46.6187 32.4463 47.1937 32.7438 47.6762C34.1213 49.9237 36.0038 51.8612 38.2113 53.3012C39.0288 53.8337 39.9238 54.3112 40.8963 54.3962C42.6388 54.5487 44.2338 53.4287 45.4663 52.1887L45.4638 52.1912Z" fill="#F2B952"/>
<path d="M32.4308 39.8015C32.6933 40.5115 32.6533 41.3865 32.1333 41.9365C31.7958 42.294 31.3058 42.469 30.8183 42.534C30.1833 42.619 29.4933 42.5165 29.0008 42.104C28.5108 41.6915 28.2958 40.924 28.6333 40.3815C28.9008 40.464 29.2108 40.3815 29.3983 40.174C29.5858 39.9665 29.6408 39.649 29.5333 39.3915C29.4333 39.1515 29.2033 38.9165 29.3033 38.6765C29.3433 38.579 29.4308 38.5115 29.5208 38.4565C30.0408 38.1365 30.7308 38.1515 31.2758 38.4315C31.8208 38.7115 32.2208 39.2265 32.4333 39.8015H32.4308Z" fill="#603218"/>
<path d="M52.091 39.8015C52.3535 40.5115 52.3135 41.3865 51.7935 41.9365C51.456 42.294 50.966 42.469 50.4785 42.534C49.8435 42.619 49.1535 42.5165 48.661 42.104C48.171 41.6915 47.956 40.924 48.2935 40.3815C48.561 40.464 48.871 40.3815 49.0585 40.174C49.246 39.9665 49.301 39.649 49.1935 39.3915C49.0935 39.1515 48.8635 38.9165 48.9635 38.6765C49.0035 38.579 49.091 38.5115 49.181 38.4565C49.701 38.1365 50.391 38.1515 50.936 38.4315C51.481 38.7115 51.881 39.2265 52.0935 39.8015H52.091Z" fill="#603218"/>
<path d="M56.6083 45.919C55.4383 44.9615 53.6408 44.8815 52.3733 45.704C51.9858 45.954 51.6433 46.2865 51.4383 46.699C51.2333 47.1115 51.1783 47.609 51.3508 48.0365C51.5708 48.5815 52.1183 48.929 52.6708 49.129C53.9258 49.584 55.3833 49.439 56.5258 48.749C56.8658 48.544 57.1933 48.274 57.3458 47.9065C57.6358 47.2065 57.1958 46.399 56.6108 45.919H56.6083Z" fill="#F48E8E"/>
<path d="M24.6582 45.919C25.8282 44.9615 27.6257 44.8815 28.8932 45.704C29.2807 45.954 29.6232 46.2865 29.8282 46.699C30.0332 47.1115 30.0882 47.609 29.9157 48.0365C29.6957 48.5815 29.1482 48.929 28.5957 49.129C27.3407 49.584 25.8832 49.439 24.7407 48.749C24.4007 48.544 24.0732 48.274 23.9207 47.9065C23.6307 47.2065 24.0707 46.399 24.6557 45.919H24.6582Z" fill="#F48E8E"/>
</svg>
