<svg width="61" height="60" viewBox="0 0 61 60" fill="none" xmlns="http://www.w3.org/2000/svg">
<rect x="0.5" width="60" height="60" rx="30" fill="#DDE1E4"/>
<g clip-path="url(#clip0_2035_144233)">
<ellipse cx="30.1502" cy="29.9979" rx="11.0213" ry="11.0213" fill="white"/>
<ellipse opacity="0.5" cx="30.1502" cy="29.9979" rx="11.0213" ry="11.0213" fill="white"/>
<path fill-rule="evenodd" clip-rule="evenodd" d="M16.2461 20.4204C16.2461 20.0286 16.5637 19.7109 16.9555 19.7109C17.3474 19.7109 17.665 20.0286 17.665 20.4204V24.3208C17.665 24.5168 17.8239 24.6758 18.02 24.6758C18.2161 24.6758 18.375 24.5168 18.375 24.3208V20.4204C18.375 20.0286 18.6926 19.7109 19.0845 19.7109C19.4763 19.7109 19.7939 20.0286 19.7939 20.4204V24.3213C19.7939 24.5171 19.9526 24.6758 20.1484 24.6758C20.3442 24.6758 20.5029 24.5171 20.5029 24.3213V20.4204C20.5029 20.0286 20.8205 19.7109 21.2123 19.7109C21.6042 19.7109 21.9218 20.0286 21.9218 20.4204V24.6771C21.9218 24.6806 21.9218 24.6842 21.9217 24.6877V25.3852C21.9217 26.6566 21.0857 27.7327 19.9334 28.0937C19.8795 28.1106 19.8469 28.1653 19.8516 28.2217L20.7095 38.5173C20.7888 39.4688 20.038 40.2848 19.0832 40.2848C18.1284 40.2848 17.3776 39.4688 17.4569 38.5173L18.3148 28.2217C18.3195 28.1651 18.2868 28.1102 18.2327 28.0932C17.0813 27.7316 16.2461 26.656 16.2461 25.3852V24.6771V24.6758V20.4204Z" fill="#CCCCCC"/>
<path fill-rule="evenodd" clip-rule="evenodd" d="M41.4514 28.1276C43.0474 27.712 44.243 26.0074 44.243 23.9677C44.243 21.6167 42.6548 19.7109 40.6957 19.7109C38.7366 19.7109 37.1484 21.6167 37.1484 23.9677C37.1484 26.008 38.3447 27.7131 39.9415 28.128C39.9352 28.1582 39.9307 28.1892 39.9281 28.2207L39.0701 38.5163C38.9909 39.4678 39.7417 40.2838 40.6965 40.2838C41.6513 40.2838 42.4021 39.4678 42.3228 38.5163L41.4649 28.2207C41.4622 28.189 41.4577 28.158 41.4514 28.1276Z" fill="#CCCCCC"/>
<path d="M29.8502 34.1677C28.4705 33.7125 25.375 31.7972 25.375 28.5508C25.375 27.1165 26.5601 25.957 28.0283 25.957C28.895 25.957 29.6645 26.3607 30.1509 26.9962C30.6285 26.3693 31.4068 25.957 32.2735 25.957C33.7417 25.957 34.9268 27.1165 34.9268 28.5508C34.9268 31.7972 31.8313 33.7125 30.4428 34.1677C30.2836 34.2192 30.0094 34.2192 29.8502 34.1677Z" fill="#CCCCCC"/>
</g>
<defs>
<clipPath id="clip0_2035_144233">
<rect width="28" height="28" fill="white" transform="translate(16 16)"/>
</clipPath>
</defs>
</svg>
