<svg width="150" height="150" viewBox="0 0 150 150" fill="none" xmlns="http://www.w3.org/2000/svg">
<rect width="150" height="150" rx="16" fill="#EEFBEF"/>
<mask id="mask0_3302_47995" style="mask-type:alpha" maskUnits="userSpaceOnUse" x="0" y="0" width="150" height="150">
<rect width="150" height="150" rx="16" fill="#FFF4F6"/>
</mask>
<g mask="url(#mask0_3302_47995)">
<path opacity="0.5" d="M40.002 104.999C10.002 104.999 -0.00195312 88 -0.00195312 88V159.53H150.998V104.999C150.998 104.999 141.392 81.509 110.502 82.9976C75.4334 84.6874 75.1112 104.999 40.002 104.999Z" fill="#7DF39E"/>
<path opacity="0.5" d="M26.5 89.9967C44.7266 89.9967 49.3908 100.497 84.5 100.497C97.6168 100.497 109.454 95.9059 122 89.9971C138.148 82.3917 151.223 89.9981 151.223 89.9981V154.996H0.222656V106.499C0.222656 106.499 8.27344 89.9967 26.5 89.9967Z" fill="#39DA79"/>
<path opacity="0.5" d="M119.996 107.809C141.496 107.809 150.996 98 150.996 98V163H-0.00390625V112C-0.00390625 112 23.57 98.0001 54.4961 98C86.4961 97.9999 98.4961 107.809 119.996 107.809Z" fill="#0BB44F"/>
</g>
</svg>
