<svg width="150" height="150" viewBox="0 0 150 150" fill="none" xmlns="http://www.w3.org/2000/svg">
<rect width="150" height="150" rx="16" fill="#FFF9EB"/>
<mask id="mask0_3302_47787" style="mask-type:alpha" maskUnits="userSpaceOnUse" x="0" y="0" width="150" height="150">
<rect width="150" height="150" rx="16" fill="#FFF9EB"/>
</mask>
<g mask="url(#mask0_3302_47787)">
<path opacity="0.5" d="M39.9961 80.1803C9.99609 80.1803 -0.00390625 67.6055 -0.00390625 67.6055V158.638H150.996V73.1074C150.996 73.1074 137.89 33.5133 107 35.0019C71.9315 36.6918 75.1053 80.1803 39.9961 80.1803Z" fill="#FFB36C"/>
<path opacity="0.5" d="M21 68.8594C39.2266 68.8594 46.1135 88.8579 81.2227 88.8579C103.5 88.8579 109.677 69.7667 122.223 63.8579C138.371 56.2525 150.223 59.8579 150.223 59.8579V155.355H-0.777344V86.8579C-0.777344 86.8579 2.77344 68.8594 21 68.8594Z" fill="#FF921E"/>
<path opacity="0.5" d="M119.996 117.307C141.496 117.307 150.996 107.498 150.996 107.498V164H-0.00390625V121.351C-0.00390625 121.351 23.57 89.0001 54.4961 89C86.4961 88.9999 98.4961 117.307 119.996 117.307Z" fill="#FF7D04"/>
</g>
</svg>
