<svg
   id="svg26"
   xmlns="http://www.w3.org/2000/svg"
   xmlns:svg="http://www.w3.org/2000/svg">
  <defs
     id="defs30" />
  <g
     id="g24">
    <g
       id="g10" height="9">
      <path
         d="M420,20c21.5-0.4,38.8-2.5,51.1-4.5c13.4-2.2,26.5-5.2,27.3-5.4C514,6.5,518,4.7,528.5,2.7c7.1-1.3,17.9-2.8,31.5-2.7c0,0,0,0,0,0v20H420z"
         fill="#fff"
         fill-opacity="0.5"
         id="path2" />
      <path
         d="M420,20c-21.5-0.4-38.8-2.5-51.1-4.5c-13.4-2.2-26.5-5.2-27.3-5.4C326,6.5,322,4.7,311.5,2.7C304.3,1.4,293.6-0.1,280,0c0,0,0,0,0,0v20H420z"
         fill="#fff"
         fill-opacity="0.5"
         id="path4" />
      <path
         d="M140,20c21.5-0.4,38.8-2.5,51.1-4.5c13.4-2.2,26.5-5.2,27.3-5.4C234,6.5,238,4.7,248.5,2.7c7.1-1.3,17.9-2.8,31.5-2.7c0,0,0,0,0,0v20H140z"
         fill="#fff"
         fill-opacity="0.5"
         id="path6" />
      <path
         d="M140,20c-21.5-0.4-38.8-2.5-51.1-4.5c-13.4-2.2-26.5-5.2-27.3-5.4C46,6.5,42,4.7,31.5,2.7C24.3,1.4,13.6-0.1,0,0c0,0,0,0,0,0l0,20H140z"
         fill="#fff"
         fill-opacity="0.5"
         id="path8" />
      <animateTransform
         attributeName="transform"
         attributeType="XML"
         type="translate"
         from="-280 0"
         to="0 0"
         repeatCount="indefinite"
         dur="2.8s" />
    </g>
    <g
       id="g20">
      <path
         d="M420,20c21.5-0.4,38.8-2.5,51.1-4.5c13.4-2.2,26.5-5.2,27.3-5.4C514,6.5,518,4.7,528.5,2.7c7.1-1.3,17.9-2.8,31.5-2.7c0,0,0,0,0,0v21H420z"
         fill="#fff"
         id="path12" />
      <path
         d="M420,20c-21.5-0.4-38.8-2.5-51.1-4.5c-13.4-2.2-26.5-5.2-27.3-5.4C326,6.5,322,4.7,311.5,2.7C304.3,1.4,293.6-0.1,280,0c0,0,0,0,0,0v21H420z"
         fill="#fff"
         id="path14" />
      <path d="M140,20c20-0.4,38.8-2.5,51.1-4.5c13.4-2.2,26.5-5.2,27.3-5.4C234,6.5,238,4.7,248.5,2.7c7.1-1.3,17.9-2.8,31.5-2.7c1,1,1,1,1,0v21H141z" fill="#fff" id="path16" />
      <path
         d="M140,20c-21.5-0.4-38.8-2.5-51.1-4.5c-13.4-2.2-26.5-5.2-27.3-5.4C46,6.5,42,4.7,31.5,2.7C24.3,1.4,13.6-0.1,0,0c0,0,0,0,0,0l0,21H140z"
         fill="#fff"
         id="path18" />
      <animateTransform
         attributeName="transform"
         attributeType="XML"
         type="translate"
         from="0 0"
         to="-280 0"
         repeatCount="indefinite"
         dur="2.8s" />
    </g>
    <rect
       height="107"
       width="100%"
       fill="#fff"
       y="20"
       id="rect22" />
  </g>

</svg>
