<svg width="38" height="38" viewBox="0 0 38 38" fill="none" xmlns="http://www.w3.org/2000/svg">
<path d="M27.2613 17.6599C26.7977 17.4564 26.2969 17.3516 25.7907 17.352H12.5554C12.0492 17.3515 11.5484 17.4562 11.0848 17.6595C10.4296 17.946 9.87198 18.4172 9.48024 19.0155C9.08849 19.6139 8.87953 20.3133 8.87891 21.0285V26.1755C8.87891 26.3706 8.95637 26.5576 9.09427 26.6955C9.23216 26.8334 9.41919 26.9108 9.6142 26.9108C9.80921 26.9108 9.99624 26.8334 10.1341 26.6955C10.272 26.5576 10.3495 26.3706 10.3495 26.1755V25.8079C10.3507 25.7108 10.3898 25.6179 10.4585 25.5493C10.5272 25.4806 10.62 25.4414 10.7171 25.4403H27.6289C27.726 25.4414 27.8189 25.4806 27.8876 25.5493C27.9562 25.6179 27.9954 25.7108 27.9966 25.8079V26.1755C27.9966 26.3706 28.074 26.5576 28.2119 26.6955C28.3498 26.8334 28.5368 26.9108 28.7318 26.9108C28.9269 26.9108 29.1139 26.8334 29.2518 26.6955C29.3897 26.5576 29.4671 26.3706 29.4671 26.1755V21.0285C29.4664 20.3134 29.2574 19.614 28.8657 19.0158C28.4739 18.4176 27.9164 17.9464 27.2613 17.6599ZM24.6877 10.7344H13.6583C12.9758 10.7344 12.3212 11.0055 11.8386 11.4881C11.3559 11.9708 11.0848 12.6254 11.0848 13.3079V16.6167C11.0848 16.6452 11.0914 16.6733 11.1042 16.6988C11.1169 16.7243 11.1354 16.7464 11.1582 16.7635C11.181 16.7807 11.2074 16.7922 11.2354 16.7974C11.2634 16.8025 11.2923 16.8011 11.3196 16.7932C11.721 16.6758 12.1372 16.6164 12.5554 16.6167H12.7498C12.7951 16.617 12.839 16.6005 12.873 16.5704C12.9069 16.5403 12.9285 16.4987 12.9336 16.4536C12.9737 16.0943 13.1447 15.7624 13.4141 15.5212C13.6834 15.28 14.0321 15.1465 14.3936 15.1461H16.9671C17.3289 15.1462 17.6779 15.2795 17.9476 15.5207C18.2172 15.7619 18.3884 16.0941 18.4285 16.4536C18.4336 16.4987 18.4552 16.5403 18.4892 16.5704C18.5231 16.6005 18.567 16.617 18.6124 16.6167H19.7364C19.7818 16.617 19.8257 16.6005 19.8596 16.5704C19.8936 16.5403 19.9152 16.4987 19.9203 16.4536C19.9603 16.0945 20.1312 15.7628 20.4002 15.5217C20.6692 15.2805 21.0176 15.1468 21.3789 15.1461H23.9524C24.3142 15.1462 24.6632 15.2795 24.9328 15.5207C25.2025 15.7619 25.3737 16.0941 25.4138 16.4536C25.4189 16.4987 25.4405 16.5403 25.4745 16.5704C25.5084 16.6005 25.5523 16.617 25.5977 16.6167H25.7907C26.2089 16.6165 26.625 16.6761 27.0264 16.7937C27.0538 16.8016 27.0827 16.803 27.1108 16.7978C27.1388 16.7927 27.1653 16.781 27.188 16.7639C27.2108 16.7467 27.2293 16.7245 27.242 16.6989C27.2547 16.6734 27.2613 16.6453 27.2613 16.6167V13.3079C27.2613 12.6254 26.9901 11.9708 26.5075 11.4881C26.0249 11.0055 25.3703 10.7344 24.6877 10.7344Z" fill="white"/>
</svg>
